<svg width="150" height="117" viewBox="0 0 150 117" fill="none" xmlns="http://www.w3.org/2000/svg">
<path d="M9.40063 0.024995L74.1368 6.88067C74.5684 6.88067 75.4316 6.88067 75.8632 6.88067L140.599 0.024995C146.21 -0.403485 151.389 4.73827 149.662 10.737L132.831 79.2938C132.399 81.4362 131.105 83.1501 128.947 84.4355L79.3158 115.715C76.2947 117.428 72.8421 117.428 70.2527 115.715L21.0532 84.4355C19.3269 83.1501 18.0322 81.4362 17.169 79.2938L0.337585 10.737C-1.38872 4.73827 3.79018 -0.403485 9.40063 0.024995ZM36.1583 65.5824L75 88.7203L113.842 65.5824L124.2 24.0199L75 31.7325L25.8005 24.0199L36.1583 65.5824Z" fill="url(#paint0_linear)"/>
<defs>
<linearGradient id="paint0_linear" x1="150" y1="117" x2="0" y2="117" gradientUnits="userSpaceOnUse">
<stop stop-color="#64ECF5"/>
<stop offset="1" stop-color="#1CEBBC"/>
</linearGradient>
</defs>
</svg>
