<svg width="41" height="41" viewBox="0 0 41 41" fill="none" xmlns="http://www.w3.org/2000/svg">
<g clip-path="url(#clip0_19_5750)">
<path d="M16.4494 11.3674C17.1328 10.194 17.7389 9.00573 18.4791 7.90731C20.5963 4.76785 23.3264 2.32996 26.8832 0.917708C29.2336 -0.0146944 31.6567 -0.334213 34.1173 0.421943C37.4421 1.44304 39.4218 3.79223 40.3382 7.06133C41.2661 10.3759 40.867 13.6427 39.6696 16.8152C37.9618 21.3396 35.1202 24.9589 30.8937 27.3979C28.7185 28.6533 26.3784 29.3594 23.8359 29.215C23.5027 29.1956 23.4493 29.3344 23.4038 29.6186C22.974 32.3704 22.0381 34.9129 20.1677 37.029C17.101 40.4982 12.6323 41.26 8.56721 39.0234C5.55623 37.3667 3.51063 34.8253 2.04836 31.7779C0.516714 28.5862 -0.16212 25.2056 0.0311829 21.675C0.202881 18.5458 1.03977 15.6155 2.97052 13.0821C4.49989 11.0752 6.47499 9.7562 9.00157 9.36277C11.3144 9.00345 13.4419 9.56517 15.4363 10.7261C15.791 10.9319 16.1299 11.165 16.4483 11.3663L16.4494 11.3674ZM7.15269 11.4709L6.9935 11.4311C6.83431 11.5187 6.6717 11.5994 6.51706 11.6938C4.76938 12.7535 3.57658 14.2954 2.75107 16.1284C1.47299 18.9665 1.15234 21.9468 1.52189 25.018C1.92441 28.3588 3.04216 31.4254 5.07184 34.126C6.54663 36.0897 8.35458 37.643 10.7163 38.4594C11.7704 38.8233 12.8517 38.9756 13.9888 38.8483C14.0274 38.5515 14.0593 38.2854 14.0979 38.0205C14.405 35.8691 14.3492 33.7258 13.9319 31.5926C13.3759 28.7533 12.1444 26.2233 10.5082 23.8491C8.55129 21.0087 7.43468 17.8385 7.16406 14.3943C7.08787 13.4255 7.15269 12.4454 7.15269 11.4709ZM37.3989 4.21295C37.3295 4.26412 37.2818 4.29255 37.242 4.32893C34.0127 7.30921 31.9546 10.941 31.1655 15.2756C30.2672 20.2071 27.9089 24.2892 24.0701 27.5139C23.9769 27.5924 23.87 27.6549 23.7688 27.7254L23.8313 27.8368C24.0087 27.8459 24.1872 27.8653 24.3646 27.8641C26.4079 27.8425 28.308 27.2808 30.075 26.2825C33.974 24.0777 36.6177 20.7836 38.2528 16.6605C39.4002 13.7678 39.8175 10.7841 39.0818 7.70946C38.7759 6.43252 38.2449 5.25679 37.3989 4.21523V4.21295ZM18.3085 37.0369C18.7941 36.4741 19.2819 35.9794 19.6889 35.4234C21.3514 33.1549 22.0654 30.551 22.2064 27.7902C22.4077 23.8559 21.5117 20.1684 19.4774 16.7845C18.138 14.5581 16.3994 12.7217 14.0411 11.546C13.128 11.0911 12.1672 10.7784 11.1108 10.6909C11.0324 12.6444 11.1779 14.541 11.6248 16.4138C12.2366 18.9711 13.4259 21.2441 14.895 23.4091C17.0794 26.627 18.2028 30.2088 18.3051 34.101C18.3301 35.0448 18.3085 35.9897 18.3085 37.0358V37.0369ZM23.2844 22.5983C23.3481 22.5301 23.4549 22.4414 23.53 22.3311C24.1804 21.3703 24.8797 20.4367 25.4596 19.4338C26.6126 17.4394 27.1959 15.246 27.6405 12.9935C28.4626 8.82834 30.4639 5.28408 33.5135 2.33337C33.6716 2.17986 33.8501 2.0491 34.0195 1.90696L33.9558 1.77051C33.4453 1.66931 32.9393 1.53855 32.4242 1.4726C30.4229 1.21448 28.5274 1.64089 26.7309 2.48801C22.4623 4.4995 19.6116 7.85501 17.7264 12.1088C17.6263 12.3339 17.7241 12.4363 17.8651 12.5705C19.7447 14.3591 21.1273 16.4865 22.0597 18.8971C22.5259 20.1024 22.8773 21.3521 23.2855 22.5983H23.2844ZM9.71793 10.6568C9.47914 10.6909 9.28698 10.7148 9.09481 10.7466C8.94131 10.7716 8.77302 10.775 8.64226 10.8444C8.54788 10.8944 8.44895 11.0377 8.44554 11.1423C8.38528 13.0321 8.4842 14.9083 8.90833 16.7617C9.50416 19.369 10.6685 21.7 12.174 23.898C14.4868 27.274 15.6341 31.0388 15.6557 35.1312C15.6614 36.2728 15.5443 37.4156 15.4829 38.564C15.633 38.5128 15.8092 38.4605 15.9798 38.3946C16.1515 38.3286 16.3278 38.265 16.4824 38.1683C16.5745 38.1103 16.6746 37.9966 16.6905 37.8954C17.002 35.9078 17.0555 33.9156 16.7507 31.9223C16.2948 28.933 15.1964 26.1994 13.4612 23.7195C10.8766 20.0251 9.64061 15.9169 9.71793 11.4106C9.72248 11.173 9.71793 10.9353 9.71793 10.6568ZM36.3789 3.14865C36.1151 2.95876 35.8275 2.73475 35.5182 2.546C35.45 2.50393 35.2726 2.55169 35.2009 2.61764C33.2076 4.44605 31.5464 6.52349 30.39 8.98867C29.5474 10.7864 29.1028 12.6921 28.7014 14.6229C27.9407 18.2854 26.2453 21.4783 23.7085 24.2266C23.6107 24.3324 23.5084 24.4893 23.5118 24.6201C23.5232 25.0817 23.58 25.5411 23.6244 26.0607C23.7654 25.9447 23.8745 25.8651 23.9734 25.773C27.105 22.8542 29.0425 19.2815 29.8055 15.0743C30.4161 11.7086 31.7294 8.65551 33.8626 5.97883C34.6381 5.00549 35.5159 4.11516 36.3801 3.14865H36.3789Z" fill="#D3AD7F"/>
<path d="M8.75348 34.2466C9.01728 34.3899 9.20831 34.4729 9.37773 34.5877C10.102 35.0812 10.8139 35.5929 11.5416 36.0807C11.9919 36.3831 12.1363 36.7345 11.9134 37.1041C11.694 37.4679 11.2812 37.5566 10.8434 37.2655C10.0202 36.7174 9.21286 36.1432 8.41122 35.5633C8.14628 35.3723 8.02575 35.0698 8.19631 34.7765C8.31684 34.5695 8.55222 34.4308 8.75348 34.2466Z" fill="#D3AD7F"/>
<path d="M7.93314 33.4869C7.81944 33.6302 7.70459 33.9088 7.51129 33.9838C7.30207 34.0645 6.93365 34.0452 6.7847 33.9076C6.42538 33.5767 6.12747 33.1685 5.85457 32.758C5.67605 32.4885 5.73177 32.177 5.97851 31.945C6.22298 31.7153 6.56979 31.6448 6.78925 31.8688C7.18836 32.2782 7.50901 32.7649 7.8581 33.2231C7.88994 33.2652 7.88993 33.33 7.93314 33.4869Z" fill="#D3AD7F"/>
<path d="M22.4819 9.6299C22.4444 9.70268 22.3727 9.86755 22.2783 10.0188C21.7996 10.784 21.3084 11.5425 20.8343 12.3111C20.5682 12.7432 20.2236 12.891 19.8518 12.6955C19.4857 12.5033 19.3629 12.0917 19.6153 11.6721C20.1327 10.8147 20.6773 9.97216 21.23 9.13641C21.4153 8.85669 21.6962 8.72593 22.043 8.86465C22.3386 8.98177 22.4864 9.20009 22.4819 9.6299Z" fill="#D3AD7F"/>
<path d="M24.9566 6.90426C24.943 7.50122 23.6854 8.62351 23.2669 8.5064C23.0532 8.44727 22.8053 8.25055 22.7234 8.05384C22.6495 7.87873 22.7098 7.55011 22.8405 7.40684C23.1601 7.05435 23.5285 6.73256 23.9287 6.47672C24.0993 6.36756 24.4302 6.38234 24.6258 6.4733C24.8031 6.55631 24.8975 6.81898 24.9578 6.90426H24.9566Z" fill="#D3AD7F"/>
</g>
<defs>
<clipPath id="clip0_19_5750">
<rect width="40.8494" height="40.29" fill="white"/>
</clipPath>
</defs>
</svg>
