<svg width="46" height="41" viewBox="0 0 46 41" fill="none" xmlns="http://www.w3.org/2000/svg">
<g clip-path="url(#clip0_19_5745)">
<path d="M45.9498 24.7342C45.5242 26.5492 44.4393 27.917 42.924 28.9072C41.8056 29.6385 40.6128 30.2774 39.396 30.8361C37.5475 31.6836 35.5851 32.2099 33.5975 32.633C33.4836 32.657 33.3505 32.6798 33.2702 32.7529C32.6469 33.3235 32.0331 33.9062 31.363 34.5367C31.5739 34.5367 31.7322 34.5367 31.8892 34.5367C35.5527 34.5367 39.2162 34.5415 42.8785 34.5319C43.3736 34.5307 43.7644 34.6542 43.9682 35.1373C44.1768 35.6324 43.949 35.998 43.6074 36.3349C42.9468 36.987 42.2995 37.6512 41.639 38.3033C40.2975 39.6256 38.6899 40.2909 36.8018 40.2909C26.949 40.2861 17.095 40.2861 7.24218 40.2909C5.38646 40.2909 3.79807 39.6483 2.46861 38.3668C1.75773 37.6823 1.07203 36.9703 0.371937 36.2726C0.0482644 35.9501 -0.10518 35.5821 0.0794329 35.1373C0.27004 34.6758 0.639266 34.5319 1.12238 34.5331C4.78587 34.5415 8.44936 34.5379 12.1116 34.5379H12.7206C12.5156 34.3593 12.391 34.249 12.2639 34.1411C8.71789 31.113 6.54808 27.3044 5.94509 22.6699C5.7437 21.1199 5.76408 19.5339 5.76887 17.9647C5.77247 16.7084 6.9269 15.5396 8.17603 15.3897C8.39781 15.3633 8.62318 15.3501 8.84735 15.3489C17.6237 15.3466 26.4012 15.3454 35.1775 15.3489C36.8882 15.3489 38.039 16.2972 38.2776 17.906C38.3291 18.2584 38.3027 18.6228 38.3087 18.9825C38.3123 19.2054 38.3087 19.4284 38.3087 19.6406C39.1095 19.4979 39.8779 19.2846 40.6547 19.2426C41.434 19.2007 42.2515 19.2174 43.0008 19.408C44.6683 19.8324 45.5374 21.042 45.8527 22.6927C45.8743 22.8066 45.9162 22.9157 45.9498 23.0272V24.7354V24.7342ZM22.0388 17.2706C17.6428 17.2706 13.2469 17.2706 8.85095 17.2706C8.07294 17.2706 7.66295 17.5931 7.68093 18.3064C7.7181 19.7857 7.67614 21.2853 7.9087 22.7371C8.73707 27.8871 11.4979 31.7411 15.9873 34.3593C16.1695 34.466 16.4057 34.5271 16.6167 34.5283C20.2202 34.5379 23.8238 34.5379 27.4273 34.5283C27.6251 34.5283 27.8445 34.4732 28.0159 34.3761C31.7669 32.2422 34.3048 29.117 35.6354 25.0028C36.3187 22.8905 36.4086 20.7159 36.3631 18.5233C36.3439 17.5751 36.0502 17.2682 35.0912 17.2682C30.7396 17.2682 26.3892 17.2682 22.0376 17.2682L22.0388 17.2706ZM3.36051 36.4847C4.47778 37.8166 5.84679 38.3716 7.50232 38.3692C17.1765 38.3561 26.8519 38.3632 36.5261 38.3608C36.8546 38.3608 37.1855 38.3537 37.5103 38.3105C38.7894 38.1415 39.8132 37.5217 40.6859 36.4835H3.36051V36.4847ZM35.2614 30.287C36.2828 29.9358 37.1903 29.6589 38.0714 29.3148C39.7317 28.6675 41.3345 27.9098 42.6627 26.6775C43.6529 25.7592 44.1612 24.6683 43.9922 23.2777C43.8483 22.0909 43.2981 21.3752 42.1436 21.187C40.8406 20.9737 39.5962 21.3069 38.3842 21.7565C38.2931 21.79 38.226 21.983 38.2104 22.1089C37.8951 24.7558 37.0896 27.2349 35.7205 29.5258C35.5935 29.7392 35.4652 29.9514 35.2614 30.2894V30.287Z" fill="#D3AD7F"/>
<path d="M21.0527 9.77391C21.0719 8.29341 21.4411 7.16775 22.1856 6.15957C23.2046 4.77857 23.2261 3.06191 22.2671 1.64135C21.8835 1.07312 21.9434 0.521679 22.4253 0.182423C22.9025 -0.153237 23.4491 -0.0177744 23.8519 0.533667C25.2245 2.41576 25.2964 5.22931 23.8735 7.08503C22.8042 8.47922 22.7035 10.5855 23.7464 11.9185C24.0965 12.3669 23.9622 12.9471 23.5222 13.2624C23.1158 13.5537 22.544 13.4758 22.2048 13.0466C21.3932 12.0228 21.0587 10.8336 21.0527 9.77391Z" fill="#D3AD7F"/>
<path d="M30.643 3.81592C30.6286 5.1142 30.2762 6.24705 29.5305 7.26003C28.49 8.6734 28.4648 10.3745 29.4394 11.8238C29.8098 12.3752 29.7547 12.9027 29.2908 13.2504C28.834 13.592 28.2586 13.4613 27.8558 12.9243C26.4388 11.0362 26.4544 8.19868 27.911 6.20869C28.7561 5.05426 28.9263 3.80752 28.4564 2.47208C28.3485 2.16639 28.1675 1.88347 27.9937 1.60775C27.6508 1.0635 27.7144 0.504869 28.1795 0.183594C28.6518 -0.143674 29.1901 -0.0249946 29.5797 0.504869C30.3157 1.50346 30.6382 2.63631 30.6442 3.81711L30.643 3.81592Z" fill="#D3AD7F"/>
<path d="M19.1563 3.7951C19.1432 5.11736 18.7883 6.24902 18.0439 7.26199C17.0033 8.67776 16.9782 10.3752 17.954 11.8246C18.3244 12.3736 18.268 12.9071 17.8041 13.2511C17.3582 13.582 16.7875 13.4633 16.3967 12.9586C14.9738 11.1209 14.9462 8.23181 16.3752 6.28258C17.2419 5.10058 17.4529 3.84305 16.9698 2.47164C16.8619 2.16595 16.6809 1.88304 16.507 1.60732C16.1654 1.06546 16.2313 0.502035 16.694 0.183158C17.1688 -0.14411 17.7034 -0.0242316 18.093 0.506831C18.8279 1.50662 19.1516 2.63827 19.1563 3.7951Z" fill="#D3AD7F"/>
</g>
<defs>
<clipPath id="clip0_19_5745">
<rect width="45.9495" height="40.29" fill="white"/>
</clipPath>
</defs>
</svg>
