<svg width="194" height="42" viewBox="0 0 194 42" fill="none" xmlns="http://www.w3.org/2000/svg">
<path d="M34.4613 0.562815C34.5264 0.194944 34.6557 -4.57764e-05 34.8295 -4.57764e-05C35.0029 -4.57764e-05 35.1322 0.108591 35.4129 0.670732L41.3182 12.8763L47.2028 0.51874C47.3757 0.173378 47.4835 -4.57764e-05 47.6779 -4.57764e-05C47.8733 -4.57764e-05 48.003 0.216013 48.0682 0.670732L50.0365 14.0458C50.2305 15.4084 50.4465 16.0362 51.0963 16.2312C51.7232 16.4256 52.1561 16.4477 52.4372 16.4477C52.6321 16.4477 52.7834 16.4688 52.7834 16.599C52.7834 16.7721 52.5239 16.8372 52.2212 16.8372C51.681 16.8372 48.6955 16.7721 47.8297 16.7073C47.3321 16.6643 47.2028 16.599 47.2028 16.4688C47.2028 16.3614 47.289 16.2957 47.4404 16.2312C47.5706 16.188 47.6357 15.9067 47.549 15.3001L46.2508 5.77853H46.1641L41.4484 15.6045C40.9504 16.6202 40.843 16.8161 40.6477 16.8161C40.4541 16.8161 40.2372 16.3824 39.8906 15.7333C39.3714 14.7377 37.6632 11.427 37.4036 10.8208C37.2087 10.3666 35.9109 7.63865 35.1537 6.01634H35.0675L33.943 14.6302C33.899 15.0193 33.8779 15.3001 33.8779 15.6466C33.8779 16.0586 34.1586 16.2522 34.5264 16.3394C34.9166 16.4256 35.2193 16.4477 35.4353 16.4477C35.6087 16.4477 35.7595 16.4907 35.7595 16.599C35.7595 16.7936 35.5642 16.8372 35.2404 16.8372C34.3319 16.8372 33.3588 16.7721 32.9699 16.7721C32.5581 16.7721 31.5194 16.8372 30.8274 16.8372C30.6109 16.8372 30.4385 16.7936 30.4385 16.599C30.4385 16.4907 30.5678 16.4477 30.7847 16.4477C30.9581 16.4477 31.1089 16.4477 31.4332 16.3824C32.0381 16.2522 32.2119 15.4084 32.3201 14.6726L34.4613 0.562815Z" fill="#979797"/>
<path d="M65.2212 11.1888C65.3074 11.1888 65.3294 11.1453 65.3074 11.0801L63.5116 6.40627C63.4905 6.34099 63.4689 6.23271 63.4254 6.23271C63.3607 6.23271 63.3396 6.34099 63.3171 6.40627L61.4786 11.059C61.4346 11.1453 61.4786 11.1888 61.5437 11.1888H65.2212ZM61.154 12.2055C61.0457 12.2055 61.0246 12.2271 60.9806 12.3354L59.9648 14.8033C59.7699 15.2575 59.6837 15.7117 59.6837 15.9279C59.6837 16.2522 59.8557 16.4477 60.4404 16.4477H60.722C60.9595 16.4477 61.0026 16.5339 61.0026 16.6422C61.0026 16.7936 60.8944 16.8372 60.6999 16.8372C60.0726 16.8372 59.1852 16.7721 58.5799 16.7721C58.3854 16.7721 57.3687 16.8372 56.374 16.8372C56.1356 16.8372 56.0273 16.7936 56.0273 16.6422C56.0273 16.5339 56.0925 16.4477 56.2442 16.4477C56.4162 16.4477 56.6331 16.4256 56.8065 16.4256C57.6714 16.2957 57.9965 15.7333 58.3854 14.8033L63.3607 3.22391C63.5771 2.70463 63.7285 2.48894 63.9229 2.48894C64.2036 2.48894 64.2907 2.66231 64.4852 3.073C64.9392 4.09018 68.12 11.6214 69.3311 14.4139C70.0667 16.0797 70.6069 16.317 70.9532 16.3824C71.2338 16.4256 71.4507 16.4477 71.6667 16.4477C71.8401 16.4477 71.9263 16.5128 71.9263 16.6422C71.9263 16.7936 71.8185 16.8372 71.1045 16.8372C70.4336 16.8372 69.0491 16.8372 67.4491 16.7936C67.1028 16.7721 66.8864 16.7721 66.8864 16.6422C66.8864 16.5339 66.9299 16.4688 67.1248 16.4477C67.2542 16.4256 67.3844 16.2522 67.2982 16.0362L65.8266 12.3354C65.7834 12.2271 65.7179 12.2055 65.6317 12.2055H61.154Z" fill="#979797"/>
<path d="M80.7473 9.67394C80.7473 9.86839 80.7896 9.93349 80.9198 9.99859C81.3307 10.1281 81.8929 10.1717 82.3694 10.1717C83.1265 10.1717 83.3856 10.1066 83.7099 9.86839C84.2941 9.45685 84.9435 8.65672 84.9435 7.14161C84.9435 4.5444 83.1692 3.87398 82.0443 3.87398C81.5691 3.87398 81.1151 3.89523 80.9198 3.93926C80.7896 3.98226 80.7473 4.04669 80.7473 4.19796V9.67394ZM78.3233 8.24464C78.3233 5.45366 78.3232 4.93402 78.3021 4.34941C78.259 3.72217 78.0857 3.52718 77.4803 3.35434C77.3286 3.31117 77.0052 3.28902 76.7237 3.28902C76.5288 3.28902 76.3994 3.22392 76.3994 3.09457C76.3994 2.96473 76.5512 2.92119 76.8319 2.92119C77.827 2.92119 79.0382 2.96472 79.4271 2.96472C80.0764 2.96472 81.8072 2.92119 82.391 2.92119C83.6021 2.92119 84.9866 3.03068 86.0033 3.7011C86.5435 4.06861 87.3447 4.99948 87.3447 6.23271C87.3447 7.59637 86.5655 8.808 84.7059 10.3015C86.3922 12.3789 87.7336 14.0458 88.8801 15.1924C89.9399 16.2522 90.6108 16.3394 90.9135 16.4037C91.1075 16.4477 91.217 16.4477 91.3684 16.4477C91.5201 16.4477 91.6059 16.555 91.6059 16.6422C91.6059 16.7936 91.4757 16.8372 91.2381 16.8372H89.4212C88.3609 16.8372 87.8418 16.7298 87.3447 16.4688C86.5224 16.0586 85.8088 15.1924 84.7481 13.7642C83.991 12.7686 83.1912 11.5342 82.9527 11.2534C82.8459 11.1453 82.7363 11.1241 82.6065 11.1241L80.8987 11.0801C80.8116 11.0801 80.7473 11.1241 80.7473 11.231V11.4921C80.7473 13.2012 80.7685 14.6302 80.8542 15.4084C80.9198 15.949 81.006 16.2957 81.5903 16.3824C81.8718 16.4256 82.2823 16.4477 82.5207 16.4477C82.6721 16.4477 82.7592 16.555 82.7592 16.6422C82.7592 16.7721 82.6065 16.8372 82.3694 16.8372C81.2669 16.8372 79.6866 16.7721 79.406 16.7721C79.0382 16.7721 77.827 16.8372 77.069 16.8372C76.8319 16.8372 76.7025 16.7721 76.7025 16.6422C76.7025 16.555 76.7668 16.4477 77.0052 16.4477C77.2859 16.4477 77.5019 16.4256 77.6757 16.3824C78.0646 16.2957 78.1724 15.949 78.2375 15.4084C78.3232 14.6302 78.3233 13.1792 78.3233 11.4921V8.24464Z" fill="#979797"/>
<path d="M97.4908 8.24464C97.4908 5.45366 97.4908 4.93402 97.4697 4.34941C97.4266 3.72217 97.2321 3.50611 96.8208 3.37537C96.6043 3.31117 96.3659 3.28902 96.1283 3.28902C95.9339 3.28902 95.8252 3.24638 95.8252 3.073C95.8252 2.96473 95.977 2.92119 96.2792 2.92119C96.9941 2.92119 98.2919 2.96472 98.8322 2.96472C99.3087 2.96472 100.541 2.92119 101.277 2.92119C101.514 2.92119 101.666 2.96473 101.666 3.073C101.666 3.24638 101.559 3.28902 101.363 3.28902C101.168 3.28902 101.017 3.31117 100.8 3.35434C100.283 3.44101 100.131 3.7011 100.087 4.34941C100.044 4.93402 100.044 5.45366 100.044 8.24464V11.4921C100.044 13.2663 100.044 14.7377 100.131 15.5172C100.195 16.0146 100.325 16.2957 100.888 16.3824C101.147 16.4256 101.58 16.4477 101.861 16.4477C102.078 16.4477 102.164 16.555 102.164 16.6422C102.164 16.7721 102.013 16.8372 101.797 16.8372C100.541 16.8372 99.244 16.7721 98.7248 16.7721C98.2919 16.7721 96.9941 16.8372 96.2366 16.8372C95.9985 16.8372 95.8696 16.7721 95.8696 16.6422C95.8696 16.555 95.9339 16.4477 96.1723 16.4477C96.4525 16.4477 96.6695 16.4256 96.8428 16.3824C97.2321 16.2957 97.3395 16.0362 97.4041 15.4948C97.4908 14.7377 97.4908 13.2663 97.4908 11.4921V8.24464Z" fill="#979797"/>
<path d="M122.022 15.6045C122.022 16.1008 122.022 16.1224 121.784 16.2523C120.507 16.8809 118.625 17.0745 117.133 17.0745C112.461 17.0745 108.329 14.9543 108.329 9.86843C108.329 6.92617 109.908 4.86877 111.66 3.85295C113.478 2.79134 115.186 2.66235 116.787 2.66235C118.106 2.66235 119.772 2.87895 120.161 2.96476C120.55 3.03072 121.221 3.13778 121.675 3.15975C121.892 3.18186 121.936 3.24642 121.936 3.37541C121.936 3.59232 121.805 4.09021 121.805 6.40631C121.805 6.68711 121.697 6.81646 121.546 6.81646C121.416 6.81646 121.372 6.73011 121.351 6.57919C121.307 6.16765 121.2 5.58358 120.702 5.06462C120.14 4.47965 118.713 3.65711 116.57 3.65711C115.532 3.65711 114.213 3.67818 112.893 4.73943C111.834 5.60479 111.141 6.96827 111.141 9.21836C111.141 13.1792 113.693 16.0587 117.76 16.0587C118.258 16.0587 118.647 16.0587 119.102 15.8628C119.383 15.7333 119.47 15.5389 119.47 15.214V13.526C119.47 12.6176 119.47 11.9247 119.448 11.3618C119.425 10.7342 119.231 10.5397 118.625 10.3667C118.474 10.3226 118.149 10.3015 117.891 10.3015C117.717 10.3015 117.587 10.2152 117.587 10.1066C117.587 9.95478 117.739 9.93353 117.998 9.93353C118.994 9.93353 120.356 9.97671 120.918 9.97671C121.524 9.97671 122.519 9.93353 123.147 9.93353C123.405 9.93353 123.536 9.95478 123.536 10.1066C123.536 10.2152 123.428 10.3015 123.298 10.3015C123.147 10.3015 122.995 10.3226 122.779 10.3667C122.26 10.4533 122.065 10.7122 122.043 11.3618C122.022 11.9247 122.022 12.6598 122.022 13.5692V15.6045Z" fill="#979797"/>
<path d="M132.851 14.3267C132.895 15.7558 133.133 16.1881 133.501 16.317C133.825 16.4257 134.193 16.4478 134.495 16.4478C134.712 16.4478 134.82 16.534 134.82 16.6422C134.82 16.7937 134.647 16.8372 134.388 16.8372C133.154 16.8372 132.268 16.7721 131.922 16.7721C131.749 16.7721 130.841 16.8372 129.867 16.8372C129.607 16.8372 129.434 16.8162 129.434 16.6422C129.434 16.534 129.563 16.4478 129.737 16.4478C129.996 16.4478 130.343 16.4257 130.602 16.3614C131.1 16.2312 131.165 15.7333 131.186 14.1321L131.358 3.22398C131.358 2.85701 131.489 2.59728 131.684 2.59728C131.922 2.59728 132.181 2.87898 132.507 3.20291C132.744 3.44107 135.599 6.36231 138.367 9.06748C139.665 10.3451 142.196 12.9415 142.478 13.2012H142.564L142.37 5.02075C142.347 3.8953 142.175 3.57096 141.721 3.39741C141.439 3.28908 140.985 3.28908 140.726 3.28908C140.487 3.28908 140.423 3.20291 140.423 3.09463C140.423 2.94318 140.617 2.92126 140.899 2.92126C141.893 2.92126 142.911 2.96479 143.321 2.96479C143.538 2.96479 144.251 2.92126 145.182 2.92126C145.441 2.92126 145.615 2.94318 145.615 3.09463C145.615 3.20291 145.505 3.28908 145.29 3.28908C145.095 3.28908 144.944 3.28908 144.707 3.35441C144.187 3.50618 144.036 3.83051 144.014 4.8688L143.797 16.4689C143.797 16.8809 143.646 17.0535 143.495 17.0535C143.17 17.0535 142.911 16.8588 142.715 16.6644C141.525 15.56 139.147 13.2884 137.157 11.3618C135.08 9.3711 133.068 7.14167 132.7 6.81648H132.635L132.851 14.3267Z" fill="#979797"/>
<path d="M156.234 12.0541C156.234 11.059 156.061 10.6694 155.802 10.1281C155.672 9.84732 153.076 5.80064 152.405 4.82659C151.93 4.15582 151.54 3.72217 151.174 3.52718C150.935 3.39734 150.61 3.28902 150.372 3.28902C150.221 3.28902 150.091 3.22392 150.091 3.09457C150.091 2.96473 150.221 2.92119 150.459 2.92119C150.783 2.92119 152.211 2.96472 152.838 2.96472C153.25 2.96472 154.136 2.92119 155.002 2.92119C155.174 2.92119 155.283 2.96473 155.283 3.09457C155.283 3.24638 155.153 3.24638 154.85 3.33309C154.699 3.37537 154.59 3.46262 154.59 3.61443C154.59 3.76588 154.677 3.98226 154.829 4.24199C155.174 4.80503 157.662 9.11126 157.987 9.63077C158.225 9.19708 160.539 5.25921 160.82 4.69621C161.015 4.28516 161.101 3.96033 161.101 3.72217C161.101 3.54965 161.015 3.37537 160.691 3.31117C160.517 3.26799 160.344 3.24638 160.344 3.09457C160.344 2.96473 160.453 2.92119 160.668 2.92119C161.297 2.92119 161.967 2.96472 162.529 2.96472C162.941 2.96472 164.195 2.92119 164.563 2.92119C164.779 2.92119 164.908 2.96473 164.908 3.073C164.908 3.20285 164.757 3.28902 164.54 3.28902C164.347 3.28902 163.999 3.37537 163.718 3.50611C163.308 3.7011 163.135 3.87398 162.724 4.37098C162.097 5.1074 159.371 9.47931 159.026 10.2575C158.744 10.9287 158.787 11.4921 158.787 12.0981V13.5692C158.787 13.8724 158.787 14.6302 158.83 15.4084C158.873 15.949 159.047 16.2957 159.609 16.3824C159.89 16.4256 160.302 16.4477 160.561 16.4477C160.777 16.4477 160.885 16.555 160.885 16.6422C160.885 16.7721 160.734 16.8372 160.474 16.8372C159.284 16.8372 158.008 16.7721 157.489 16.7721C157.014 16.7721 155.737 16.8372 155.023 16.8372C154.764 16.8372 154.613 16.7936 154.613 16.6422C154.613 16.555 154.699 16.4477 154.915 16.4477C155.174 16.4477 155.411 16.4256 155.586 16.3824C155.975 16.2957 156.126 15.949 156.169 15.4084C156.234 14.6302 156.234 13.8724 156.234 13.5692V12.0541Z" fill="#979797"/>
<path d="M14.6438 33.4095C14.6438 28.5618 11.8537 25.5539 8.3065 25.5539C5.81818 25.5539 2.98454 26.9395 2.98454 32.3276C2.98454 36.8295 5.4724 40.3995 9.62588 40.3995C11.1393 40.3995 14.6438 39.6645 14.6438 33.4095ZM0 32.9979C0 29.2982 2.44385 24.5151 8.93385 24.5151C14.32 24.5151 17.6724 27.6534 17.6724 32.6084C17.6724 37.5644 14.2109 41.4827 8.71696 41.4827C2.50853 41.4827 0 36.8295 0 32.9979Z" fill="#979797"/>
<path d="M25.4364 32.5873C25.4364 29.7954 25.4364 29.2768 25.4139 28.6918C25.3708 28.0637 25.1984 27.8693 24.5921 27.6959C24.4408 27.6532 24.1161 27.632 23.8354 27.632C23.6405 27.632 23.5107 27.5669 23.5107 27.4361C23.5107 27.3063 23.6616 27.2641 23.9436 27.2641C24.9379 27.2641 26.1499 27.3063 26.6911 27.3063C27.4693 27.3063 28.9831 27.2641 29.8489 27.2641C32.2286 27.2641 33.0931 28.0423 33.3957 28.3019C33.808 28.6918 34.3478 29.5146 34.3478 30.5093C34.3478 33.1069 32.2712 34.9679 29.5674 34.9679C29.4812 34.9679 29.0923 34.9679 29.0047 34.9454C28.8965 34.9454 28.7676 34.8812 28.7676 34.7519C28.7676 34.6004 28.9831 34.5132 29.3949 34.5132C30.4543 34.5132 31.947 33.4093 31.947 31.5272C31.947 30.9207 31.8819 29.7096 30.8221 28.7998C30.1296 28.1936 29.3509 28.1074 28.9189 28.1074C28.6383 28.1074 28.27 28.1285 28.0967 28.1936C27.9884 28.2376 27.9458 28.3456 27.9458 28.5405V35.8333C27.9458 37.5222 27.9458 38.9714 28.0316 39.7726C28.0967 40.2919 28.2049 40.6378 28.7676 40.7245C29.0483 40.7672 29.4601 40.7896 29.7407 40.7896C29.9563 40.7896 30.0434 40.8979 30.0434 40.9843C30.0434 41.1141 29.8921 41.1787 29.6972 41.1787C28.4214 41.1787 27.0804 41.1141 26.5824 41.1141C26.1499 41.1141 24.9379 41.1787 24.1808 41.1787C23.9436 41.1787 23.813 41.1141 23.813 40.9843C23.813 40.8979 23.8785 40.7896 24.1161 40.7896C24.3977 40.7896 24.6146 40.7672 24.7866 40.7245C25.1763 40.6378 25.2846 40.2919 25.3497 39.7505C25.4364 38.9714 25.4364 37.5222 25.4364 35.8333V32.5873Z" fill="#979797"/>
<path d="M42.6499 32.5874C42.6499 29.7955 42.6499 29.2769 42.6288 28.692C42.5852 28.0639 42.4128 27.8694 41.807 27.696C41.6556 27.6533 41.3305 27.6321 41.0498 27.6321C40.8549 27.6321 40.7256 27.567 40.7256 27.4363C40.7256 27.3064 40.8765 27.2643 41.1571 27.2643C42.1532 27.2643 43.3648 27.3064 43.9055 27.3064C44.5108 27.3064 48.7285 27.328 49.0963 27.3064C49.443 27.2853 49.7452 27.2202 49.897 27.199C50.0057 27.1765 50.1135 27.1123 50.2001 27.1123C50.3079 27.1123 50.3299 27.199 50.3299 27.2853C50.3299 27.4152 50.2212 27.6321 50.179 28.4754C50.1566 28.6704 50.1135 29.4702 50.0694 29.6872C50.0483 29.7734 50.0057 29.99 49.8539 29.99C49.7241 29.99 49.7017 29.9042 49.7017 29.7523C49.7017 29.6221 49.6805 29.2982 49.5732 29.0811C49.421 28.7576 49.2696 28.4966 48.3181 28.4103C47.9929 28.3671 45.7215 28.3245 45.3326 28.3245C45.2464 28.3245 45.2024 28.3892 45.2024 28.4966V33.0419C45.2024 33.1499 45.2244 33.2369 45.3326 33.2369C45.7655 33.2369 48.2318 33.2369 48.6638 33.1934C49.1179 33.1499 49.3985 33.107 49.5732 32.9117C49.7241 32.7819 49.7888 32.6741 49.8759 32.6741C49.9621 32.6741 50.0272 32.7602 50.0272 32.8686C50.0272 32.9763 49.9832 33.2796 49.8759 34.2106C49.8319 34.5784 49.7888 35.3136 49.7888 35.4444C49.7888 35.5953 49.7663 35.8549 49.5943 35.8549C49.4641 35.8549 49.421 35.7911 49.421 35.7039C49.3985 35.5095 49.3985 35.2713 49.3563 35.0328C49.2472 34.6648 49.0096 34.384 48.2961 34.3189C47.9503 34.2752 45.7866 34.2325 45.3115 34.2325C45.2244 34.2325 45.2024 34.3189 45.2024 34.4272V35.8986C45.2024 36.5262 45.1813 38.0834 45.2024 38.6251C45.2464 39.88 45.8302 40.1622 47.7774 40.1622C48.2745 40.1622 49.0752 40.1411 49.5732 39.924C50.0483 39.7071 50.2648 39.3184 50.3946 38.5614C50.4372 38.3656 50.4812 38.2792 50.6106 38.2792C50.7619 38.2792 50.7839 38.5169 50.7839 38.7124C50.7839 39.123 50.633 40.3782 50.5235 40.7462C50.3946 41.2217 50.2212 41.2217 49.5081 41.2217C48.0805 41.2217 46.9327 41.2004 46.0035 41.1564C45.0731 41.1353 44.3595 41.1143 43.7972 41.1143C43.5803 41.1143 43.1694 41.1353 42.715 41.1353C42.261 41.1564 41.7854 41.1789 41.3952 41.1789C41.1572 41.1789 41.0283 41.1143 41.0283 40.9844C41.0283 40.8981 41.092 40.7898 41.3305 40.7898C41.6121 40.7898 41.8281 40.7673 42.0014 40.7247C42.3917 40.638 42.499 40.2921 42.5636 39.7506C42.6499 38.9716 42.6499 37.5223 42.6499 35.8335V32.5874Z" fill="#979797"/>
<path d="M61.43 34.0155C61.43 34.2105 61.474 34.275 61.6033 34.3398C62.0142 34.47 62.5764 34.5132 63.0529 34.5132C63.8096 34.5132 64.0692 34.4489 64.3943 34.2105C64.9785 33.7989 65.6265 32.9977 65.6265 31.4837C65.6265 28.8865 63.8536 28.2157 62.7282 28.2157C62.2518 28.2157 61.7977 28.2376 61.6033 28.2799C61.474 28.3243 61.43 28.3891 61.43 28.5405V34.0155ZM59.0076 32.5873C59.0076 29.7954 59.0077 29.2768 58.9856 28.6918C58.943 28.0637 58.7701 27.8693 58.1638 27.6959C58.0125 27.6532 57.6874 27.632 57.4067 27.632C57.2123 27.632 57.082 27.5669 57.082 27.4361C57.082 27.3063 57.2334 27.2641 57.5149 27.2641C58.5101 27.2641 59.7212 27.3063 60.1106 27.3063C60.759 27.3063 62.4902 27.2641 63.074 27.2641C64.2861 27.2641 65.6701 27.371 66.6868 28.0423C67.2279 28.4101 68.0277 29.3412 68.0277 30.5744C68.0277 31.9379 67.249 33.1497 65.3885 34.6427C67.0766 36.7207 68.4166 38.3865 69.564 39.5348C70.6234 40.5952 71.2938 40.681 71.5969 40.7461C71.7918 40.7896 71.8996 40.7896 72.051 40.7896C72.2023 40.7896 72.289 40.8979 72.289 40.9843C72.289 41.1352 72.1601 41.1787 71.9216 41.1787H70.1042C69.0444 41.1787 68.5253 41.0704 68.0277 40.8112C67.2059 40.3993 66.4923 39.5348 65.4325 38.1057C64.675 37.1096 63.8747 35.8772 63.6371 35.5952C63.528 35.4869 63.4207 35.4653 63.2905 35.4653L61.5808 35.423C61.4951 35.423 61.43 35.4653 61.43 35.5739V35.8333C61.43 37.5432 61.452 38.9714 61.5386 39.7505C61.6033 40.2919 61.6904 40.6378 62.2742 40.7245C62.5549 40.7672 62.9667 40.7896 63.2042 40.7896C63.3556 40.7896 63.4418 40.8979 63.4418 40.9843C63.4418 41.1141 63.2905 41.1787 63.0529 41.1787C61.9491 41.1787 60.3701 41.1141 60.0886 41.1141C59.7212 41.1141 58.5101 41.1787 57.7529 41.1787C57.5149 41.1787 57.3852 41.1141 57.3852 40.9843C57.3852 40.8979 57.4503 40.7896 57.6874 40.7896C57.9689 40.7896 58.1858 40.7672 58.3583 40.7245C58.7485 40.6378 58.8563 40.2919 58.9219 39.7505C59.0077 38.9714 59.0076 37.5222 59.0076 35.8333V32.5873Z" fill="#979797"/>
<path d="M83.0548 35.5304C83.1414 35.5304 83.163 35.4869 83.1414 35.423L81.3456 30.7473C81.3236 30.6827 81.3025 30.5744 81.2598 30.5744C81.1947 30.5744 81.1722 30.6827 81.1511 30.7473L79.3126 35.4005C79.2695 35.4869 79.3126 35.5304 79.3773 35.5304H83.0548ZM78.9884 36.5476C78.8806 36.5476 78.8577 36.5687 78.8155 36.6775L77.7979 39.1448C77.6039 39.599 77.5172 40.0534 77.5172 40.27C77.5172 40.5952 77.6906 40.7896 78.2739 40.7896H78.5546C78.794 40.7896 78.8366 40.876 78.8366 40.9843C78.8366 41.1352 78.7293 41.1787 78.5335 41.1787C77.9075 41.1787 77.0201 41.1141 76.4143 41.1141C76.219 41.1141 75.2023 41.1787 74.2071 41.1787C73.9696 41.1787 73.8613 41.1352 73.8613 40.9843C73.8613 40.876 73.9264 40.7896 74.0782 40.7896C74.2516 40.7896 74.4676 40.7672 74.64 40.7672C75.5054 40.6378 75.8305 40.0748 76.219 39.1448L81.1947 27.5669C81.4107 27.047 81.5625 26.831 81.7569 26.831C82.0381 26.831 82.1247 27.003 82.3201 27.4151C82.7741 28.4318 85.9531 35.9635 87.1638 38.7545C87.8998 40.4212 88.4409 40.6599 88.7872 40.7245C89.0687 40.7672 89.2852 40.7896 89.5007 40.7896C89.6745 40.7896 89.7603 40.8535 89.7603 40.9843C89.7603 41.1352 89.6521 41.1787 88.9385 41.1787C88.2676 41.1787 86.8831 41.1787 85.2826 41.1352C84.9364 41.1141 84.7208 41.1141 84.7208 40.9843C84.7208 40.876 84.763 40.8112 84.9588 40.7896C85.0886 40.7672 85.217 40.5952 85.1308 40.3781L83.6605 36.6775C83.617 36.5687 83.5523 36.5476 83.4661 36.5476H78.9884Z" fill="#979797"/>
<path d="M113.71 31.6999C113.775 31.6999 113.84 31.6571 113.84 31.5485V31.0942C113.84 27.8045 113.84 27.1988 113.797 26.5065C113.754 25.7706 113.581 25.4233 112.867 25.2724C112.694 25.2288 112.326 25.2073 112.023 25.2073C111.786 25.2073 111.656 25.165 111.656 25.0132C111.656 24.8617 111.807 24.8182 112.11 24.8182C113.278 24.8182 114.641 24.8829 115.225 24.8829C115.743 24.8829 117.107 24.8182 117.95 24.8182C118.253 24.8182 118.404 24.8617 118.404 25.0132C118.404 25.165 118.275 25.2073 118.015 25.2073C117.842 25.2073 117.648 25.2288 117.388 25.2724C116.804 25.3806 116.631 25.7482 116.588 26.5065C116.544 27.1988 116.544 27.8045 116.544 31.0942V34.9032C116.544 36.894 116.544 38.6034 116.653 39.5348C116.717 40.141 116.847 40.6162 117.496 40.7021C117.798 40.7461 118.275 40.7896 118.6 40.7896C118.837 40.7896 118.946 40.8535 118.946 40.9632C118.946 41.1141 118.772 41.1787 118.512 41.1787C117.107 41.1787 115.743 41.1141 115.138 41.1141C114.641 41.1141 113.278 41.1787 112.434 41.1787C112.131 41.1787 111.979 41.1141 111.979 40.9632C111.979 40.8535 112.066 40.7896 112.326 40.7896C112.65 40.7896 112.911 40.7461 113.104 40.7021C113.537 40.6162 113.645 40.141 113.732 39.512C113.84 38.6034 113.84 36.894 113.84 34.9032V32.9977C113.84 32.9115 113.775 32.8684 113.71 32.8684H105.448C105.382 32.8684 105.317 32.8905 105.317 32.9977V34.9032C105.317 36.894 105.317 38.6034 105.426 39.5348C105.49 40.141 105.62 40.6162 106.269 40.7021C106.572 40.7461 107.048 40.7896 107.373 40.7896C107.61 40.7896 107.718 40.8535 107.718 40.9632C107.718 41.1141 107.546 41.1787 107.286 41.1787C105.88 41.1787 104.517 41.1141 103.911 41.1141C103.415 41.1141 102.052 41.1787 101.186 41.1787C100.904 41.1787 100.753 41.1141 100.753 40.9632C100.753 40.8535 100.84 40.7896 101.1 40.7896C101.423 40.7896 101.684 40.7461 101.878 40.7021C102.311 40.6162 102.419 40.141 102.506 39.512C102.613 38.6034 102.613 36.894 102.613 34.9032V31.0942C102.613 27.8045 102.613 27.1988 102.57 26.5065C102.527 25.7706 102.355 25.4233 101.64 25.2724C101.467 25.2288 101.1 25.2073 100.797 25.2073C100.559 25.2073 100.429 25.165 100.429 25.0132C100.429 24.8617 100.58 24.8182 100.883 24.8182C102.052 24.8182 103.415 24.8829 103.998 24.8829C104.517 24.8829 105.88 24.8182 106.723 24.8182C107.026 24.8182 107.177 24.8617 107.177 25.0132C107.177 25.165 107.048 25.2073 106.788 25.2073C106.616 25.2073 106.421 25.2288 106.161 25.2724C105.577 25.3806 105.404 25.7482 105.361 26.5065C105.317 27.1988 105.317 27.8045 105.317 31.0942V31.5485C105.317 31.6571 105.382 31.6999 105.448 31.6999H113.71Z" fill="#979797"/>
<path d="M138.177 34.5559C138.177 30.4882 135.732 27.9771 132.661 27.9771C130.541 27.9771 128.054 29.1022 128.054 33.6475C128.054 37.4345 130.216 40.4213 133.807 40.4213C135.149 40.4213 138.177 39.7937 138.177 34.5559ZM125.241 34.2106C125.241 31.0722 127.447 27.0031 133.224 27.0031C138.025 27.0031 141.011 29.6659 141.011 33.8857C141.011 38.1058 137.939 41.4175 133.029 41.4175C127.491 41.4175 125.241 37.4782 125.241 34.2106Z" fill="#979797"/>
<path d="M148.706 32.5873C148.706 29.7955 148.727 29.2769 148.682 28.6919C148.64 28.0424 148.466 27.8693 147.86 27.696C147.709 27.6533 147.385 27.6321 147.125 27.6321C146.91 27.6321 146.801 27.567 146.801 27.4362C146.801 27.3064 146.931 27.2642 147.213 27.2642C148.228 27.2642 149.504 27.3063 150.068 27.3063C150.543 27.3063 151.819 27.2642 152.512 27.2642C152.793 27.2642 152.923 27.3064 152.923 27.4362C152.923 27.567 152.814 27.6321 152.62 27.6321C152.403 27.6321 152.296 27.6533 152.058 27.696C151.561 27.7835 151.409 28.0424 151.365 28.6919C151.322 29.2769 151.322 29.7955 151.322 32.5873V35.1621C151.322 37.846 151.841 38.8848 152.772 39.6207C153.615 40.292 154.524 40.3571 155.172 40.3571C155.994 40.3571 156.967 40.1186 157.724 39.3822C158.784 38.3866 158.828 36.7858 158.828 34.9033V32.5873C158.828 29.7955 158.807 29.2769 158.784 28.6919C158.742 28.0638 158.591 27.8693 157.985 27.696C157.834 27.6533 157.508 27.6321 157.292 27.6321C157.076 27.6321 156.967 27.567 156.967 27.4362C156.967 27.3064 157.098 27.2642 157.356 27.2642C158.33 27.2642 159.606 27.3063 159.629 27.3063C159.845 27.3063 161.121 27.2642 161.856 27.2642C162.116 27.2642 162.245 27.3064 162.245 27.4362C162.245 27.567 162.138 27.6321 161.921 27.6321C161.704 27.6321 161.597 27.6533 161.36 27.696C160.84 27.7835 160.71 28.0424 160.666 28.6919C160.645 29.2769 160.624 29.7955 160.624 32.5873V34.5559C160.624 36.6125 160.407 38.7771 158.807 40.0961C157.466 41.2216 156.015 41.4175 154.783 41.4175C153.788 41.4175 151.819 41.3734 150.436 40.1621C149.462 39.3183 148.706 37.9543 148.706 35.2923V32.5873Z" fill="#979797"/>
<path d="M169.253 40.9408C168.95 40.8113 168.885 40.7246 168.885 40.3131C168.885 39.3183 168.971 38.1709 168.993 37.8676C168.993 37.5868 169.08 37.3918 169.232 37.3918C169.404 37.3918 169.425 37.5644 169.425 37.6942C169.425 37.9324 169.49 38.3218 169.6 38.6472C170.009 40.0103 171.437 40.4645 172.627 40.4645C174.271 40.4645 175.266 39.4257 175.266 38.1274C175.266 37.3262 175.072 36.5261 173.384 35.5305L172.281 34.8813C170.031 33.5613 169.296 32.3276 169.296 30.7053C169.296 28.4543 171.459 27.0031 174.099 27.0031C175.331 27.0031 176.304 27.1765 176.802 27.3064C176.974 27.35 177.061 27.4152 177.061 27.545C177.061 27.7835 176.997 28.302 176.997 29.7523C176.997 30.1414 176.909 30.3373 176.758 30.3373C176.629 30.3373 176.564 30.2275 176.564 30.012C176.564 29.8385 176.477 29.2769 176.066 28.7999C175.785 28.4543 175.179 27.935 173.947 27.935C172.584 27.935 171.351 28.6479 171.351 29.9041C171.351 30.7263 171.654 31.3755 173.362 32.3276L174.141 32.7602C176.651 34.1458 177.428 35.5521 177.428 37.219C177.428 38.5824 176.909 39.686 175.526 40.66C174.618 41.3083 173.362 41.4175 172.345 41.4175C171.242 41.4175 170.075 41.3083 169.253 40.9408Z" fill="#979797"/>
<path d="M185.863 32.5874C185.863 29.7955 185.863 29.2769 185.842 28.692C185.799 28.0639 185.626 27.8694 185.02 27.696C184.869 27.6533 184.544 27.6321 184.263 27.6321C184.069 27.6321 183.939 27.567 183.939 27.4363C183.939 27.3064 184.09 27.2643 184.371 27.2643C185.367 27.2643 186.578 27.3064 187.118 27.3064C187.723 27.3064 191.942 27.328 192.31 27.3064C192.656 27.2853 192.959 27.2202 193.11 27.199C193.22 27.1765 193.327 27.1123 193.413 27.1123C193.522 27.1123 193.543 27.199 193.543 27.2853C193.543 27.4152 193.435 27.6321 193.392 28.4754C193.37 28.6704 193.327 29.4702 193.283 29.6872C193.262 29.7734 193.22 29.99 193.068 29.99C192.938 29.99 192.916 29.9042 192.916 29.7523C192.916 29.6221 192.894 29.2982 192.786 29.0811C192.635 28.7576 192.484 28.4966 191.531 28.4103C191.207 28.3671 188.936 28.3245 188.546 28.3245C188.459 28.3245 188.417 28.3892 188.417 28.4966V33.0419C188.417 33.1499 188.438 33.2369 188.546 33.2369C188.979 33.2369 191.445 33.2369 191.878 33.1934C192.332 33.1499 192.612 33.107 192.786 32.9117C192.938 32.7819 193.003 32.6741 193.089 32.6741C193.175 32.6741 193.241 32.7602 193.241 32.8686C193.241 32.9763 193.196 33.2796 193.089 34.2106C193.045 34.5784 193.003 35.3136 193.003 35.4444C193.003 35.5953 192.981 35.8549 192.807 35.8549C192.678 35.8549 192.635 35.7911 192.635 35.7039C192.612 35.5095 192.612 35.2713 192.57 35.0328C192.462 34.6648 192.223 34.384 191.51 34.3189C191.163 34.2752 189 34.2325 188.525 34.2325C188.438 34.2325 188.417 34.3189 188.417 34.4272V35.8986C188.417 36.5262 188.394 38.0834 188.417 38.6251C188.459 39.88 189.044 40.1622 190.991 40.1622C191.488 40.1622 192.288 40.1411 192.786 39.924C193.262 39.7071 193.478 39.3184 193.608 38.5614C193.651 38.3656 193.695 38.2792 193.824 38.2792C193.976 38.2792 193.997 38.5169 193.997 38.7124C193.997 39.123 193.846 40.3782 193.737 40.7462C193.608 41.2217 193.435 41.2217 192.721 41.2217C191.293 41.2217 190.147 41.2004 189.216 41.1564C188.287 41.1353 187.572 41.1143 187.011 41.1143C186.794 41.1143 186.382 41.1353 185.928 41.1353C185.474 41.1564 184.999 41.1789 184.609 41.1789C184.371 41.1789 184.242 41.1143 184.242 40.9844C184.242 40.8981 184.306 40.7898 184.544 40.7898C184.826 40.7898 185.042 40.7673 185.215 40.7247C185.604 40.638 185.711 40.2921 185.777 39.7506C185.863 38.9716 185.863 37.5223 185.863 35.8335V32.5874Z" fill="#979797"/>
</svg>
