<svg width="32" height="41" viewBox="0 0 32 41" fill="none" xmlns="http://www.w3.org/2000/svg">
<g clip-path="url(#clip0_19_5759)">
<path d="M2.28167 12.749C1.8648 12.749 1.50104 12.761 1.13993 12.7464C0.460203 12.7185 0.0207679 12.295 0.0114747 11.6126C-0.00578414 10.2386 -0.00445654 8.86316 0.0114747 7.4891C0.0194403 6.82264 0.429669 6.42436 1.09612 6.37126C1.19437 6.36329 1.29526 6.36462 1.39351 6.36329C2.09271 6.3571 2.55471 6.01369 2.77952 5.33307C3.25215 3.90723 3.72477 2.48139 4.20005 1.05555C4.49345 0.178004 4.73906 0.00408832 5.69227 0.00408832C12.0355 0.00408832 18.3788 0.00408832 24.7221 0.00408832C25.2691 0.00408832 25.8147 -0.00387728 26.3617 0.00674352C27.0693 0.0200195 27.3786 0.249694 27.6043 0.922787C28.1606 2.58229 28.7275 4.23913 29.2558 5.9066C29.3753 6.28364 29.5479 6.40843 29.921 6.36993C30.1998 6.34205 30.4839 6.354 30.764 6.37524C31.4291 6.42436 31.8088 6.78016 31.8194 7.45325C31.842 8.86051 31.8433 10.2691 31.8168 11.6763C31.8048 12.3388 31.3654 12.7159 30.6936 12.753C30.3206 12.7729 29.8214 12.6707 29.6103 12.8685C29.3913 13.0743 29.4444 13.5761 29.3873 13.9505C28.4354 20.092 27.4822 26.2321 26.5343 32.3736C26.1864 34.6279 25.8532 36.8835 25.5094 39.1391C25.3793 39.998 25.0274 40.2928 24.1406 40.2928C18.6589 40.2928 13.176 40.2928 7.69429 40.2928C6.80082 40.2928 6.48618 40.0047 6.35076 39.1231C5.70555 34.9253 5.04972 30.7287 4.40317 26.5309C3.82434 22.7738 3.25347 19.0153 2.67862 15.2582C2.55383 14.4417 2.42107 13.6266 2.283 12.7517L2.28167 12.749ZM27.3892 12.7809H4.45761C5.76131 21.2523 7.0597 29.6892 8.3581 38.1328C8.51342 38.1447 8.6276 38.1606 8.74177 38.1606C13.5105 38.162 18.2792 38.158 23.048 38.1686C23.4091 38.1686 23.5511 38.0584 23.5631 37.6946C23.5737 37.384 23.656 37.0747 23.7038 36.764C24.1831 33.6455 24.661 30.5256 25.1403 27.4057C25.6195 24.2872 26.1015 21.1674 26.5807 18.0488C26.8489 16.303 27.1171 14.5559 27.3892 12.7783V12.7809ZM27.1529 6.34205C26.6989 4.97595 26.2767 3.67623 25.8213 2.38846C25.7775 2.26632 25.5333 2.14152 25.3806 2.1402C19.0758 2.12825 12.771 2.1309 6.46759 2.12294C6.19012 2.12294 6.06135 2.20525 5.97638 2.46944C5.5927 3.66295 5.18779 4.85115 4.79482 6.04201C4.76694 6.12831 4.7749 6.22522 4.76561 6.34205H27.1529ZM2.18608 10.5545H29.6701V8.52462H2.18608V10.5545Z" fill="#D3AD7F"/>
</g>
<defs>
<clipPath id="clip0_19_5759">
<rect width="31.8372" height="40.29" fill="white"/>
</clipPath>
</defs>
</svg>
