<?xml version="1.0" encoding="UTF-8"?>
<svg xmlns="http://www.w3.org/2000/svg" width="712" height="296" viewBox="0 0 712 296" fill="none">
  <g clip-path="url(#clip0_1_2_1)">
    <g clip-path="url(#clip1_1_2_1)">
      <path d="M11.8506 116.899C11.8506 116.899 106.922 51.731 221.136 83.989L208.806 103.539L239.955 84.477L248.391 88.875C248.391 88.875 226.165 67.533 224.867 66.555C223.57 65.577 231.195 57.431 238.657 56.454C246.12 55.476 253.665 57.92 255.773 60.038C257.882 62.156 257.233 66.473 255.773 66.636C254.313 66.799 237.683 67.777 237.683 67.777L255.855 69.487C255.855 69.487 254.151 73.074 247.661 75.516L255.044 82.032C255.044 82.032 526.359 69.867 583.033 68.564C639.707 67.261 665.233 63.785 665.233 63.785C665.233 63.785 688.593 70.301 692.056 72.473C695.517 74.646 679.51 85.508 679.51 85.508C679.51 85.508 669.343 98.975 677.995 117.874L701.141 122.436C701.141 122.436 671.938 139.379 659.608 165.664C659.608 165.664 661.553 114.833 624.997 99.628C588.441 84.423 538.471 105.059 524.844 116.137C524.844 116.137 533.928 93.544 561.618 81.815C561.618 81.815 343.788 89.853 300.958 92.785C258.128 95.717 227.302 103.212 209.781 127.324C209.781 127.324 191.61 91.807 152.998 91.482C114.386 91.156 87.4545 119.83 81.2894 134.167C81.2894 134.167 87.4545 106.797 113.737 89.527C113.736 89.529 67.9844 89.529 11.8506 116.899Z" fill="#00ADB5"></path>
      <path d="M67.3365 103.757C67.3365 103.757 36.8359 108.318 13.6902 128.737C13.6902 128.737 31.6437 166.101 30.7793 169.143C29.914 172.182 16.7175 178.918 16.7175 178.918C16.7175 178.918 34.89 174.572 37.7002 172.182C40.5134 169.794 26.2365 131.996 26.2365 131.996C26.2365 131.996 32.293 115.922 67.3365 103.757Z" fill="#00ADB5"></path>
      <path d="M425.405 107.667C353.695 112.943 267.536 119.18 267.536 119.18H424.241C424.642 115.344 425.033 111.506 425.405 107.667Z" fill="#00ADB5"></path>
      <path d="M449.486 105.892C445.465 106.188 441.355 106.493 437.168 106.801C436.77 110.93 436.354 115.055 435.922 119.18H446.388C447.54 114.769 448.652 110.353 449.486 105.892Z" fill="#00ADB5"></path>
      <path d="M475.203 103.981C470.824 104.308 466.223 104.65 461.433 105.005C460.649 109.776 459.528 114.482 458.34 119.179H472.109C472.892 114.066 473.91 108.987 475.203 103.981Z" fill="#00ADB5"></path>
      <path d="M487.595 103.052C486.071 108.36 484.846 113.741 483.938 119.18H501.157C507.663 102.99 513.425 101.161 514.799 100.958C509.24 101.409 499.724 102.14 487.595 103.052Z" fill="#00ADB5"></path>
      <path d="M188.041 68.132C188.041 68.132 236.063 45.866 272.405 31.856C308.746 17.845 357.417 6.11405 412.577 12.958C467.738 19.8 647.171 59.227 647.171 59.227C647.171 59.227 395.055 67.3731 319.453 73.8901C319.453 73.8901 421.337 57.598 486.556 51.733C486.556 51.733 455.731 33.812 395.379 27.947C395.379 27.947 391.066 37.353 392.458 50.104C392.458 50.104 388.889 39.6771 391.485 27.2951C391.485 27.2951 362.931 23.385 304.85 31.857C246.77 40.327 188.041 68.132 188.041 68.132Z" fill="#00ADB5"></path>
      <path d="M186.484 145.683C179.106 130.507 163.592 120.049 145.644 120.049C129.833 120.049 115.916 128.163 107.779 140.467H148.24L170.087 162.623L149.104 190.864H107.779C115.915 203.167 129.833 211.282 145.644 211.282C164.101 211.282 179.974 200.221 187.082 184.347H206.635L227.834 145.681H186.484V145.683Z" fill="#00ADB5"></path>
      <path d="M555.379 145.683C562.757 130.507 578.271 120.049 596.219 120.049C612.03 120.049 625.947 128.163 634.084 140.467H593.623L571.776 162.623L592.759 190.864H634.084C625.949 203.167 612.03 211.282 596.219 211.282C577.763 211.282 561.889 200.221 554.782 184.347H513.164L535.228 145.681H555.379V145.683Z" fill="#00ADB5"></path>
      <path d="M246.188 145.683L224.528 184.349H245.876L267.537 145.683H246.188Z" fill="#00ADB5"></path>
      <path d="M326.194 145.683L304.534 184.349H325.884L347.543 145.683H326.194Z" fill="#00ADB5"></path>
      <path d="M428.575 145.683L406.915 184.349H428.262L449.922 145.683H428.575Z" fill="#00ADB5"></path>
      <path d="M362.052 145.683L340.393 184.349H361.741L383.401 145.683H362.052Z" fill="#00ADB5"></path>
      <path d="M285.782 145.683L264.122 184.349H285.47L307.13 145.683H285.782Z" fill="#00ADB5"></path>
      <path d="M395.314 145.683L373.654 184.349H395.002L416.662 145.683H395.314Z" fill="#00ADB5"></path>
      <path d="M461.834 145.683L440.174 184.349H461.524L483.183 145.683H461.834Z" fill="#00ADB5"></path>
      <path d="M496.863 145.683L475.203 184.349H496.551L518.211 145.683H496.863Z" fill="#00ADB5"></path>
      <path d="M192.328 207.302C202.455 207.302 210.23 209.099 215.652 212.692C221.075 216.22 223.786 222.035 223.786 230.136C223.786 238.303 221.042 244.215 215.554 247.874C210.066 251.467 202.226 253.264 192.034 253.264H187.232V276H171.944V209.066C175.276 208.413 178.804 207.955 182.528 207.694C186.252 207.433 189.519 207.302 192.328 207.302ZM193.308 220.336C192.198 220.336 191.087 220.369 189.976 220.434C188.931 220.499 188.016 220.565 187.232 220.63V240.23H192.034C197.326 240.23 201.312 239.511 203.99 238.074C206.669 236.637 208.008 233.958 208.008 230.038C208.008 228.143 207.649 226.575 206.93 225.334C206.277 224.093 205.297 223.113 203.99 222.394C202.749 221.61 201.214 221.087 199.384 220.826C197.555 220.499 195.53 220.336 193.308 220.336ZM235.013 208.086H250.301V276H235.013V208.086ZM316.393 208.086V221.12H295.911V276H280.623V221.12H260.141V208.086H316.393ZM344.74 264.338C346.896 264.338 348.66 264.175 350.032 263.848C351.469 263.456 352.613 262.966 353.462 262.378C354.311 261.725 354.899 260.973 355.226 260.124C355.553 259.275 355.716 258.327 355.716 257.282C355.716 255.061 354.671 253.231 352.58 251.794C350.489 250.291 346.896 248.691 341.8 246.992C339.579 246.208 337.357 245.326 335.136 244.346C332.915 243.301 330.922 242.027 329.158 240.524C327.394 238.956 325.957 237.094 324.846 234.938C323.735 232.717 323.18 230.038 323.18 226.902C323.18 223.766 323.768 220.957 324.944 218.474C326.12 215.926 327.786 213.77 329.942 212.006C332.098 210.242 334.711 208.903 337.782 207.988C340.853 207.008 344.315 206.518 348.17 206.518C352.743 206.518 356.696 207.008 360.028 207.988C363.36 208.968 366.104 210.046 368.26 211.222L363.85 223.276C361.955 222.296 359.832 221.447 357.48 220.728C355.193 219.944 352.417 219.552 349.15 219.552C345.491 219.552 342.845 220.075 341.212 221.12C339.644 222.1 338.86 223.635 338.86 225.726C338.86 226.967 339.154 228.013 339.742 228.862C340.33 229.711 341.147 230.495 342.192 231.214C343.303 231.867 344.544 232.488 345.916 233.076C347.353 233.599 348.921 234.154 350.62 234.742C354.148 236.049 357.219 237.355 359.832 238.662C362.445 239.903 364.601 241.373 366.3 243.072C368.064 244.771 369.371 246.763 370.22 249.05C371.069 251.337 371.494 254.113 371.494 257.38C371.494 263.717 369.273 268.65 364.83 272.178C360.387 275.641 353.691 277.372 344.74 277.372C341.735 277.372 339.023 277.176 336.606 276.784C334.189 276.457 332.033 276.033 330.138 275.51C328.309 274.987 326.708 274.432 325.336 273.844C324.029 273.256 322.919 272.701 322.004 272.178L326.316 260.026C328.341 261.137 330.824 262.149 333.764 263.064C336.769 263.913 340.428 264.338 344.74 264.338ZM431.715 208.086V221.12H411.233V276H395.945V221.12H375.463V208.086H431.715ZM452.081 241.994C452.081 245.326 452.473 248.331 453.257 251.01C454.107 253.689 455.283 256.008 456.785 257.968C458.353 259.863 460.248 261.333 462.469 262.378C464.691 263.423 467.239 263.946 470.113 263.946C472.923 263.946 475.438 263.423 477.659 262.378C479.946 261.333 481.841 259.863 483.343 257.968C484.911 256.008 486.087 253.689 486.871 251.01C487.721 248.331 488.145 245.326 488.145 241.994C488.145 238.662 487.721 235.657 486.871 232.978C486.087 230.234 484.911 227.915 483.343 226.02C481.841 224.06 479.946 222.557 477.659 221.512C475.438 220.467 472.923 219.944 470.113 219.944C467.239 219.944 464.691 220.499 462.469 221.61C460.248 222.655 458.353 224.158 456.785 226.118C455.283 228.013 454.107 230.332 453.257 233.076C452.473 235.755 452.081 238.727 452.081 241.994ZM503.923 241.994C503.923 247.809 503.041 252.937 501.277 257.38C499.579 261.757 497.227 265.449 494.221 268.454C491.216 271.394 487.623 273.615 483.441 275.118C479.325 276.621 474.883 277.372 470.113 277.372C465.475 277.372 461.097 276.621 456.981 275.118C452.865 273.615 449.272 271.394 446.201 268.454C443.131 265.449 440.713 261.757 438.949 257.38C437.185 252.937 436.303 247.809 436.303 241.994C436.303 236.179 437.218 231.083 439.047 226.706C440.877 222.263 443.327 218.539 446.397 215.534C449.533 212.529 453.127 210.275 457.177 208.772C461.293 207.269 465.605 206.518 470.113 206.518C474.752 206.518 479.129 207.269 483.245 208.772C487.361 210.275 490.955 212.529 494.025 215.534C497.096 218.539 499.513 222.263 501.277 226.706C503.041 231.083 503.923 236.179 503.923 241.994ZM537.051 207.302C547.178 207.302 554.952 209.099 560.375 212.692C565.798 216.22 568.509 222.035 568.509 230.136C568.509 238.303 565.765 244.215 560.277 247.874C554.789 251.467 546.949 253.264 536.757 253.264H531.955V276H516.667V209.066C519.999 208.413 523.527 207.955 527.251 207.694C530.975 207.433 534.242 207.302 537.051 207.302ZM538.031 220.336C536.92 220.336 535.81 220.369 534.699 220.434C533.654 220.499 532.739 220.565 531.955 220.63V240.23H536.757C542.049 240.23 546.034 239.511 548.713 238.074C551.392 236.637 552.731 233.958 552.731 230.038C552.731 228.143 552.372 226.575 551.653 225.334C551 224.093 550.02 223.113 548.713 222.394C547.472 221.61 545.936 221.087 544.107 220.826C542.278 220.499 540.252 220.336 538.031 220.336Z" fill="#EEEEEE"></path>
    </g>
  </g>
  <defs>
    <clipPath id="clip0_1_2_1">
      <rect width="712" height="296" fill="white"></rect>
    </clipPath>
    <clipPath id="clip1_1_2_1">
      <rect width="999" height="1098.73" fill="white" transform="translate(-131 -364)"></rect>
    </clipPath>
  </defs>
</svg>
