<svg xmlns="http://www.w3.org/2000/svg" width="115" height="56" viewBox="0 0 115 56" fill="none"><path fill-rule="evenodd" clip-rule="evenodd" d="M20.2919 6.78789C12.8207 6.78789 6.76404 12.866 6.76404 20.3636C6.76404 27.8613 12.8207 33.9394 20.2919 33.9394C27.7631 33.9394 33.8197 27.8613 33.8197 20.3636C33.8197 12.866 27.7631 6.78789 20.2919 6.78789ZM3.38208 20.3636C3.38208 10.9915 10.9529 3.39395 20.2919 3.39395C29.6309 3.39395 37.2017 10.9915 37.2017 20.3636C37.2017 29.7358 29.6309 37.3333 20.2919 37.3333C10.9529 37.3333 3.38208 29.7358 3.38208 20.3636Z" fill="white"></path><path fill-rule="evenodd" clip-rule="evenodd" d="M57.4933 6.78789C50.0221 6.78789 43.9655 12.866 43.9655 20.3636C43.9655 27.8613 50.0221 33.9394 57.4933 33.9394C64.9645 33.9394 71.0211 27.8613 71.0211 20.3636C71.0211 12.866 64.9645 6.78789 57.4933 6.78789ZM40.5835 20.3636C40.5835 10.9915 48.1543 3.39395 57.4933 3.39395C66.8323 3.39395 74.4031 10.9915 74.4031 20.3636C74.4031 29.7358 66.8323 37.3333 57.4933 37.3333C48.1543 37.3333 40.5835 29.7358 40.5835 20.3636Z" fill="white"></path><path fill-rule="evenodd" clip-rule="evenodd" d="M94.695 6.78789C87.2237 6.78789 81.1671 12.866 81.1671 20.3636C81.1671 27.8613 87.2237 33.9394 94.695 33.9394C102.166 33.9394 108.223 27.8613 108.223 20.3636C108.223 12.866 102.166 6.78789 94.695 6.78789ZM77.7852 20.3636C77.7852 10.9915 85.3559 3.39395 94.695 3.39395C104.034 3.39395 111.605 10.9915 111.605 20.3636C111.605 29.7358 104.034 37.3333 94.695 37.3333C85.3559 37.3333 77.7852 29.7358 77.7852 20.3636Z" fill="white"></path><path fill-rule="evenodd" clip-rule="evenodd" d="M38.8924 49.2121C46.3637 49.2121 52.4203 43.134 52.4203 35.6364C52.4203 28.1387 46.3637 22.0606 38.8924 22.0606C31.4212 22.0606 25.3646 28.1387 25.3646 35.6364C25.3646 43.134 31.4212 49.2121 38.8924 49.2121ZM55.8022 35.6364C55.8022 45.0085 48.2315 52.606 38.8924 52.606C29.5534 52.606 21.9826 45.0085 21.9826 35.6364C21.9826 26.2642 29.5534 18.6667 38.8924 18.6667C48.2315 18.6667 55.8022 26.2642 55.8022 35.6364Z" fill="white"></path><path fill-rule="evenodd" clip-rule="evenodd" d="M76.0941 49.2121C83.5653 49.2121 89.6219 43.134 89.6219 35.6364C89.6219 28.1387 83.5653 22.0606 76.0941 22.0606C68.6229 22.0606 62.5663 28.1387 62.5663 35.6364C62.5663 43.134 68.6229 49.2121 76.0941 49.2121ZM93.0039 35.6364C93.0039 45.0085 85.4331 52.606 76.0941 52.606C66.7551 52.606 59.1843 45.0085 59.1843 35.6364C59.1843 26.2642 66.7551 18.6667 76.0941 18.6667C85.4331 18.6667 93.0039 26.2642 93.0039 35.6364Z" fill="white"></path></svg>