<?xml version="1.0" encoding="UTF-8"?>
<svg xmlns="http://www.w3.org/2000/svg" width="83" height="51" viewBox="0 0 83 51" fill="none">
  <path d="M12.0904 10.312C13.0984 8.608 14.0584 6.904 14.9704 5.2C15.8824 3.496 16.7224 1.78 17.4904 0.0519993H23.6824C22.3144 2.74 20.8984 5.344 19.4344 7.864C17.9704 10.384 16.4224 12.916 14.7904 15.46V25H9.17441V15.532C7.54241 12.988 5.98241 10.444 4.49441 7.9C3.03041 5.356 1.61441 2.74 0.246406 0.0519993H6.76241C7.53041 1.78 8.35841 3.496 9.24641 5.2C10.1344 6.904 11.0824 8.608 12.0904 10.312ZM41.3207 24.352C40.4087 24.616 39.2327 24.856 37.7927 25.072C36.3527 25.312 34.8407 25.432 33.2567 25.432C31.6487 25.432 30.3047 25.216 29.2247 24.784C28.1687 24.352 27.3287 23.752 26.7047 22.984C26.0807 22.192 25.6367 21.256 25.3727 20.176C25.1087 19.096 24.9767 17.908 24.9767 16.612V6.064H30.3407V15.964C30.3407 17.692 30.5687 18.94 31.0247 19.708C31.4807 20.476 32.3327 20.86 33.5807 20.86C33.9647 20.86 34.3727 20.848 34.8047 20.824C35.2367 20.776 35.6207 20.728 35.9567 20.68V6.064H41.3207V24.352ZM46.3559 6.712C47.2679 6.448 48.4439 6.208 49.8839 5.992C51.3239 5.752 52.8359 5.632 54.4199 5.632C56.0279 5.632 57.3599 5.848 58.4159 6.28C59.4959 6.688 60.3479 7.276 60.9719 8.044C61.5959 8.812 62.0399 9.724 62.3039 10.78C62.5679 11.836 62.6999 13.012 62.6999 14.308V25H57.3359V14.956C57.3359 13.228 57.1079 12.004 56.6519 11.284C56.1959 10.564 55.3439 10.204 54.0959 10.204C53.7119 10.204 53.3039 10.228 52.8719 10.276C52.4399 10.3 52.0559 10.336 51.7199 10.384V25H46.3559V6.712ZM74.7912 21.256C75.3192 21.256 75.8232 21.244 76.3032 21.22C76.7832 21.196 77.1672 21.16 77.4552 21.112V17.044C77.2392 16.996 76.9152 16.948 76.4832 16.9C76.0512 16.852 75.6552 16.828 75.2952 16.828C74.7912 16.828 74.3112 16.864 73.8552 16.936C73.4232 16.984 73.0392 17.092 72.7032 17.26C72.3672 17.428 72.1032 17.656 71.9112 17.944C71.7192 18.232 71.6232 18.592 71.6232 19.024C71.6232 19.864 71.8992 20.452 72.4512 20.788C73.0272 21.1 73.8072 21.256 74.7912 21.256ZM74.3592 5.56C75.9432 5.56 77.2632 5.74 78.3192 6.1C79.3752 6.46 80.2152 6.976 80.8392 7.648C81.4872 8.32 81.9432 9.136 82.2072 10.096C82.4712 11.056 82.6032 12.124 82.6032 13.3V24.46C81.8352 24.628 80.7672 24.82 79.3992 25.036C78.0312 25.276 76.3752 25.396 74.4312 25.396C73.2072 25.396 72.0912 25.288 71.0832 25.072C70.0992 24.856 69.2472 24.508 68.5272 24.028C67.8072 23.524 67.2552 22.876 66.8712 22.084C66.4872 21.292 66.2952 20.32 66.2952 19.168C66.2952 18.064 66.5112 17.128 66.9432 16.36C67.3992 15.592 67.9992 14.98 68.7432 14.524C69.4872 14.068 70.3392 13.744 71.2992 13.552C72.2592 13.336 73.2552 13.228 74.2872 13.228C74.9832 13.228 75.5952 13.264 76.1232 13.336C76.6752 13.384 77.1192 13.456 77.4552 13.552V13.048C77.4552 12.136 77.1792 11.404 76.6272 10.852C76.0752 10.3 75.1152 10.024 73.7472 10.024C72.8352 10.024 71.9352 10.096 71.0472 10.24C70.1592 10.36 69.3912 10.54 68.7432 10.78L68.0592 6.46C68.3712 6.364 68.7552 6.268 69.2112 6.172C69.6912 6.052 70.2072 5.956 70.7592 5.884C71.3112 5.788 71.8872 5.716 72.4872 5.668C73.1112 5.596 73.7352 5.56 74.3592 5.56Z" fill="#C97800"></path>
  <path d="M7.11597 36.041H12.678V37.526H7.11597V44.951C7.11597 45.743 7.17897 46.391 7.30497 46.895C7.44897 47.381 7.64697 47.759 7.89897 48.029C8.15097 48.299 8.45697 48.479 8.81697 48.569C9.17697 48.659 9.57297 48.704 10.005 48.704C10.743 48.704 11.337 48.623 11.787 48.461C12.237 48.281 12.588 48.119 12.84 47.975L13.272 49.433C13.02 49.595 12.579 49.784 11.949 50C11.319 50.198 10.635 50.297 9.89697 50.297C9.03297 50.297 8.30397 50.189 7.70997 49.973C7.13397 49.739 6.66597 49.397 6.30597 48.947C5.96397 48.479 5.72097 47.903 5.57697 47.219C5.43297 46.535 5.36097 45.725 5.36097 44.789V31.937L7.11597 31.613V36.041ZM15.9104 50V29.372L17.6654 29.048V36.446C18.2414 36.23 18.8264 36.068 19.4204 35.96C20.0144 35.834 20.6084 35.771 21.2024 35.771C22.2824 35.771 23.1824 35.924 23.9024 36.23C24.6224 36.536 25.1984 36.977 25.6304 37.553C26.0624 38.111 26.3594 38.786 26.5214 39.578C26.7014 40.37 26.7914 41.243 26.7914 42.197V50H25.0364V42.764C25.0364 41.774 24.9644 40.937 24.8204 40.253C24.6944 39.569 24.4694 39.011 24.1454 38.579C23.8394 38.147 23.4254 37.841 22.9034 37.661C22.3814 37.463 21.7244 37.364 20.9324 37.364C20.6264 37.364 20.2934 37.391 19.9334 37.445C19.5914 37.499 19.2674 37.562 18.9614 37.634C18.6554 37.688 18.3764 37.751 18.1244 37.823C17.8904 37.895 17.7374 37.949 17.6654 37.985V50H15.9104ZM30.4454 43.007C30.4454 41.783 30.6164 40.721 30.9584 39.821C31.3184 38.903 31.7774 38.138 32.3354 37.526C32.9114 36.914 33.5594 36.464 34.2794 36.176C35.0174 35.87 35.7734 35.717 36.5474 35.717C38.2574 35.717 39.6164 36.275 40.6244 37.391C41.6504 38.507 42.1634 40.226 42.1634 42.548C42.1634 42.692 42.1544 42.836 42.1365 42.98C42.1365 43.124 42.1275 43.259 42.1094 43.385H32.3084C32.3624 45.095 32.7854 46.409 33.5774 47.327C34.3694 48.245 35.6294 48.704 37.3574 48.704C38.3114 48.704 39.0674 48.614 39.6254 48.434C40.1834 48.254 40.5884 48.101 40.8404 47.975L41.1644 49.487C40.9124 49.631 40.4354 49.802 39.7334 50C39.0494 50.198 38.2394 50.297 37.3034 50.297C36.0794 50.297 35.0354 50.117 34.1714 49.757C33.3074 49.397 32.5964 48.893 32.0384 48.245C31.4804 47.597 31.0754 46.832 30.8234 45.95C30.5714 45.05 30.4454 44.069 30.4454 43.007ZM40.3544 41.9C40.3184 40.442 39.9764 39.308 39.3284 38.498C38.6804 37.688 37.7624 37.283 36.5744 37.283C35.9444 37.283 35.3774 37.409 34.8734 37.661C34.3874 37.913 33.9554 38.255 33.5774 38.687C33.2174 39.101 32.9294 39.587 32.7134 40.145C32.5154 40.703 32.3984 41.288 32.3624 41.9H40.3544ZM46.0744 36.527C46.5964 36.383 47.2714 36.221 48.0994 36.041C48.9454 35.861 50.0344 35.771 51.3664 35.771C53.1304 35.771 54.4084 36.284 55.2004 37.31C55.2904 37.238 55.4614 37.121 55.7134 36.959C55.9834 36.779 56.3164 36.599 56.7124 36.419C57.1084 36.239 57.5674 36.086 58.0894 35.96C58.6294 35.834 59.2234 35.771 59.8714 35.771C60.9334 35.771 61.7884 35.933 62.4364 36.257C63.1024 36.563 63.6154 37.004 63.9754 37.58C64.3354 38.138 64.5784 38.813 64.7044 39.605C64.8304 40.397 64.8934 41.261 64.8934 42.197V50H63.1384V42.764C63.1384 41.846 63.0934 41.054 63.0034 40.388C62.9314 39.704 62.7694 39.146 62.5174 38.714C62.2834 38.264 61.9414 37.931 61.4914 37.715C61.0414 37.481 60.4564 37.364 59.7364 37.364C59.1964 37.364 58.7014 37.418 58.2514 37.526C57.8194 37.616 57.4414 37.733 57.1174 37.877C56.7934 38.021 56.5234 38.165 56.3074 38.309C56.1094 38.453 55.9654 38.561 55.8754 38.633C56.0374 39.101 56.1544 39.632 56.2264 40.226C56.3164 40.802 56.3614 41.414 56.3614 42.062V50H54.6064V42.764C54.6064 41.846 54.5614 41.054 54.4714 40.388C54.3994 39.704 54.2374 39.146 53.9854 38.714C53.7334 38.264 53.3734 37.931 52.9054 37.715C52.4554 37.481 51.8524 37.364 51.0964 37.364C50.2504 37.364 49.5304 37.409 48.9364 37.499C48.3604 37.589 47.9914 37.67 47.8294 37.742V50H46.0744V36.527ZM68.546 43.007C68.546 41.783 68.717 40.721 69.059 39.821C69.419 38.903 69.878 38.138 70.436 37.526C71.012 36.914 71.66 36.464 72.38 36.176C73.118 35.87 73.874 35.717 74.648 35.717C76.358 35.717 77.717 36.275 78.725 37.391C79.751 38.507 80.264 40.226 80.264 42.548C80.264 42.692 80.255 42.836 80.237 42.98C80.237 43.124 80.228 43.259 80.21 43.385H70.409C70.463 45.095 70.886 46.409 71.678 47.327C72.47 48.245 73.73 48.704 75.458 48.704C76.412 48.704 77.168 48.614 77.726 48.434C78.284 48.254 78.689 48.101 78.941 47.975L79.265 49.487C79.013 49.631 78.536 49.802 77.834 50C77.15 50.198 76.34 50.297 75.404 50.297C74.18 50.297 73.136 50.117 72.272 49.757C71.408 49.397 70.697 48.893 70.139 48.245C69.581 47.597 69.176 46.832 68.924 45.95C68.672 45.05 68.546 44.069 68.546 43.007ZM78.455 41.9C78.419 40.442 78.077 39.308 77.429 38.498C76.781 37.688 75.863 37.283 74.675 37.283C74.045 37.283 73.478 37.409 72.974 37.661C72.488 37.913 72.056 38.255 71.678 38.687C71.318 39.101 71.03 39.587 70.814 40.145C70.616 40.703 70.499 41.288 70.463 41.9H78.455Z" fill="#737272"></path>
</svg>
