<svg width="53" height="18" viewBox="0 0 53 18" fill="none" xmlns="http://www.w3.org/2000/svg">
<rect width="52.7002" height="18" fill="black" fill-opacity="0" transform="translate(0.238281)"/>
<path d="M4.75781 4.43803H6.59811L5.67796 2.13672L4.75781 4.43803Z" fill="#017AAB"/>
<path d="M45.493 -6.27057e-07V0.986275L44.9911 -6.27057e-07H41.0595V0.986275L40.5576 -6.27057e-07H35.204C34.2839 -6.27057e-07 33.531 0.164379 32.8618 0.493137V-6.27057e-07H29.0976V0.493137C28.6793 0.164379 28.1774 -6.27057e-07 27.5082 -6.27057e-07H14.0405L13.1204 2.05474L12.2002 -6.27057e-07H7.93409V0.986275L7.43219 -6.27057e-07H3.83523L2.16223 3.86291L0.238281 8.13677H2.16223H4.50444L5.00634 6.82174H6.17744L6.67934 8.13677H11.531V7.15049L11.9493 8.13677H14.3751L14.7934 7.15049V8.13677H26.4208V5.99984H26.5881C26.7554 5.99984 26.7554 5.99984 26.7554 6.24641V8.05458H32.7782V7.56144C33.2801 7.80801 34.0329 8.05458 35.0367 8.05458H37.5462L38.0481 6.73955H39.2192L39.7211 8.05458H44.5728V6.82174L45.3257 8.05458H49.2572V-6.27057e-07H45.493ZM17.2192 6.90393H15.7972V2.3835L13.7896 6.90393H12.5348L10.5272 2.3835V6.90393H7.68314L7.09759 5.67108H4.25349L3.75158 6.98611H2.16223L4.67174 1.15065H6.76299L9.10519 6.65736V1.15065H11.3637L13.204 5.09575L14.877 1.15065H17.2192V6.90393ZM22.9075 2.3835H19.6451V3.45196H22.8238V4.60262H19.6451V5.75327H22.9075V6.98611H18.223V1.15065H22.9075V2.3835ZM29.1812 4.767C29.3485 5.09575 29.4322 5.34232 29.4322 5.83546V6.98611H28.0101V6.24641C28.0101 5.91765 28.0101 5.42451 27.7592 5.09575C27.5082 4.84918 27.2573 4.84919 26.7554 4.84919H25.2497V6.98611H23.8276V1.15065H27.0063C27.7592 1.15065 28.2611 1.15065 28.6793 1.39722C29.0976 1.64379 29.3485 2.05474 29.3485 2.71226C29.3485 3.61634 28.763 4.10948 28.3447 4.27386C28.763 4.35605 29.0139 4.60262 29.1812 4.767ZM31.6907 6.90393H30.2687V1.06846H31.6907V6.90393ZM48.1698 6.90393H46.1622L43.4854 2.54788V6.90393H40.6413L40.1394 5.67108H37.2116L36.7097 6.98611H35.1204C34.4512 6.98611 33.6147 6.82174 33.1128 6.3286C32.6109 5.83546 32.3599 5.17794 32.3599 4.10948C32.3599 3.28758 32.5272 2.46569 33.1128 1.80817C33.531 1.31503 34.2839 1.15065 35.204 1.15065H36.5424V2.3835H35.204C34.7021 2.3835 34.4512 2.46569 34.1166 2.71226C33.8656 2.95883 33.6983 3.45196 33.6983 4.02729C33.6983 4.68481 33.782 5.09575 34.1166 5.42451C34.3675 5.67108 34.7021 5.75327 35.1204 5.75327H35.7059L37.6299 1.23284H39.7211L42.0633 6.73955V1.23284H44.1546L46.5804 5.26013V1.23284H48.0025V6.90393H48.1698Z" fill="#017AAB"/>
<rect width="18.3188" height="14.1365" fill="black" fill-opacity="0" transform="translate(21.3164 2.13672)"/>
<path d="M37.7109 4.43803H39.6349L38.7147 2.13672L37.7109 4.43803Z" fill="#017AAB"/>
<path d="M23.4913 16.2732V11.5884L21.3164 13.8897L23.4913 16.2732Z" fill="#017AAB"/>
<path d="M14.543 12.1645V13.233H17.638V14.3837H14.543V15.6165H17.9726L19.562 13.8905L18.0563 12.1645H14.543Z" fill="#017AAB"/>
<path d="M26.6727 12.1645H24.916V13.644H26.7563C27.2582 13.644 27.5928 13.3974 27.5928 12.9043C27.5092 12.4111 27.1746 12.1645 26.6727 12.1645Z" fill="#017AAB"/>
<path d="M52.5211 13.5618V9.86328H51.5173H49.0078C48.255 9.86328 47.6694 10.0277 47.2512 10.3564V9.86328H43.4033C42.8177 9.86328 42.0649 10.0277 41.7303 10.3564V9.86328H34.9546V10.3564C34.4527 9.94547 33.5326 9.86328 33.1143 9.86328H28.5972V10.3564C28.179 9.94547 27.1752 9.86328 26.6733 9.86328H21.6542L20.4831 11.0961L19.3957 9.86328H11.8672V17.9179H19.2284L20.3995 16.685L21.4869 17.9179H26.004V16.0275H26.5896C27.1751 16.0275 27.928 16.0275 28.5135 15.7809V18.0001H32.2778V15.8631H32.4451C32.6961 15.8631 32.6961 15.8631 32.6961 16.1097V18.0001H44.0725C44.8253 18.0001 45.5782 17.8357 45.9964 17.5069V18.0001H49.5934C50.3462 18.0001 51.0991 17.9179 51.601 17.5891C52.4375 17.096 52.9394 16.1919 52.9394 15.1234C52.9394 14.5481 52.7721 13.9728 52.5211 13.5618ZM26.5896 14.8768H24.9166V16.8494H22.2398L20.5668 14.959L18.8101 16.8494H13.2892V11.0139H18.8938L20.5668 12.9043L22.3234 11.0139H26.7569C27.8444 11.0139 29.0991 11.3427 29.0991 12.9043C29.0155 14.5481 27.8444 14.8768 26.5896 14.8768ZM34.9546 14.5481C35.1219 14.7947 35.2056 15.1234 35.2056 15.6166V16.7672H33.7835V16.0275C33.7835 15.6987 33.7835 15.1234 33.5326 14.8768C33.3653 14.6303 33.0307 14.6303 32.5288 14.6303H31.0231V16.7672H29.601V10.9317H32.7797C33.4489 10.9317 34.0345 10.9317 34.4527 11.1783C34.871 11.4249 35.2056 11.8358 35.2056 12.4933C35.2056 13.3974 34.62 13.8906 34.2018 14.055C34.62 14.2193 34.871 14.3837 34.9546 14.5481ZM40.7265 12.1646H37.4641V13.2331H40.6428V14.3837H37.4641V15.5344H40.7265V16.7672H36.0421V10.9317H40.7265V12.1646ZM44.2398 16.7672H41.563V15.5344H44.2398C44.4907 15.5344 44.658 15.5344 44.8253 15.37C44.909 15.2878 44.9926 15.1234 44.9926 14.959C44.9926 14.7947 44.909 14.6303 44.8253 14.5481C44.7417 14.4659 44.5744 14.3837 44.3234 14.3837C42.985 14.3015 41.3957 14.3837 41.3957 12.5755C41.3957 11.7536 41.8976 10.8496 43.4033 10.8496H46.1637V12.2468H43.5706C43.3196 12.2468 43.1523 12.2468 42.985 12.329C42.8177 12.4112 42.8177 12.5755 42.8177 12.7399C42.8177 12.9865 42.985 13.0687 43.1523 13.1509C43.3196 13.2331 43.4869 13.2331 43.6542 13.2331H44.4071C45.1599 13.2331 45.6618 13.3974 45.9964 13.7262C46.2474 13.9728 46.4147 14.3837 46.4147 14.959C46.4147 16.1919 45.6618 16.7672 44.2398 16.7672ZM51.4337 16.1919C51.0991 16.5206 50.5135 16.7672 49.677 16.7672H47.0002V15.5344H49.677C49.928 15.5344 50.0953 15.5344 50.2626 15.37C50.3462 15.2878 50.4299 15.1234 50.4299 14.959C50.4299 14.7947 50.3462 14.6303 50.2626 14.5481C50.1789 14.4659 50.0116 14.3837 49.7607 14.3837C48.4223 14.3015 46.8329 14.3837 46.8329 12.5755C46.8329 11.7536 47.3348 10.8496 48.8405 10.8496H51.601V12.2468H49.0915C48.8405 12.2468 48.6732 12.2468 48.5059 12.329C48.3386 12.4112 48.3386 12.5755 48.3386 12.7399C48.3386 12.9865 48.4223 13.0687 48.6732 13.1509C48.8405 13.2331 49.0078 13.2331 49.1751 13.2331H49.928C50.6808 13.2331 51.1827 13.3974 51.5173 13.7262C51.601 13.7262 51.601 13.8084 51.601 13.8084C51.8519 14.1371 51.9356 14.5481 51.9356 14.959C51.9356 15.4522 51.7683 15.8631 51.4337 16.1919Z" fill="#017AAB"/>
<rect width="2.1749" height="4.68481" fill="black" fill-opacity="0" transform="translate(21.3203 11.5884)"/>
<path d="M23.4952 16.2732V11.5884L21.3203 13.8897L23.4952 16.2732Z" fill="#017AAB"/>
<rect width="0.25095" height="0.246569" fill="black" fill-opacity="0" transform="translate(45.3262 7.80811)"/>
<path d="M45.3262 7.8081L45.4935 8.05467H45.5771L45.3262 7.8081Z" fill="#228FE0"/>
<path d="M32.7684 12.1645H31.0117V13.644H32.852C33.3539 13.644 33.6885 13.3974 33.6885 12.9043C33.6049 12.4111 33.2703 12.1645 32.7684 12.1645Z" fill="#017AAB"/>
<path d="M27.0067 2.23975H25.25V3.71916H27.0903C27.5922 3.71916 27.9268 3.47259 27.9268 2.97945C27.8432 2.48631 27.5086 2.23975 27.0067 2.23975Z" fill="#017AAB"/>
</svg>
