<svg width="46" height="14" viewBox="0 0 46 14" fill="none" xmlns="http://www.w3.org/2000/svg">
<rect width="44.8429" height="13.9996" fill="black" fill-opacity="0" transform="translate(0.28125)"/>
<path d="M24.0755 7.46146C26.1526 7.46146 27.8364 5.80701 27.8364 3.76613C27.8364 1.72526 26.1526 0.0708008 24.0755 0.0708008C21.9983 0.0708008 20.3145 1.72526 20.3145 3.76613C20.3145 5.80701 21.9983 7.46146 24.0755 7.46146Z" fill="#F5821E"/>
<path d="M2.3064 0.284179H0.28125V7.24846H2.3064C3.39131 7.24846 4.1869 6.9642 4.83784 6.46675C5.63344 5.82718 6.13973 4.83228 6.13973 3.76632C6.13973 1.70546 4.62086 0.284179 2.3064 0.284179ZM3.96992 5.54292C3.53596 5.89824 2.95735 6.11143 2.08942 6.11143H1.65546V1.49227H2.0171C2.88502 1.49227 3.46363 1.6344 3.89759 2.06078C4.40388 2.48717 4.69319 3.12674 4.69319 3.76632C4.76552 4.4059 4.47621 5.11654 3.96992 5.54292Z" fill="#141414"/>
<path d="M8.16523 0.28418H6.79102V7.24846H8.16523V0.28418Z" fill="#141414"/>
<path d="M11.6353 2.9839C10.7673 2.69965 10.5504 2.48645 10.5504 2.13113C10.5504 1.70475 10.9843 1.34943 11.5629 1.34943C11.9969 1.34943 12.3585 1.49156 12.7202 1.91794L13.4434 0.994107C12.8648 0.496658 12.1416 0.212403 11.346 0.212403C10.1164 0.212403 9.10382 1.06517 9.10382 2.2022C9.10382 3.19709 9.53778 3.62348 10.8397 4.12093C11.4183 4.33412 11.6353 4.40518 11.7799 4.54731C12.0692 4.68944 12.2139 4.9737 12.2139 5.25795C12.2139 5.82646 11.7799 6.25285 11.129 6.25285C10.478 6.25285 9.89942 5.89753 9.61011 5.32902L8.74219 6.18179C9.39313 7.10562 10.1887 7.532 11.2013 7.532C12.6478 7.532 13.6604 6.60817 13.6604 5.25795C13.6604 4.04986 13.2265 3.55241 11.6353 2.9839Z" fill="#141414"/>
<path d="M14.0957 3.7664C14.0957 5.82725 15.7592 7.39066 17.8567 7.39066C18.4353 7.39066 18.9416 7.24854 19.5925 6.96428V5.3298C19.0139 5.89832 18.5076 6.11151 17.929 6.11151C16.5548 6.11151 15.5422 5.11661 15.5422 3.69533C15.5422 2.34511 16.5548 1.27915 17.8567 1.27915C18.5076 1.27915 19.0139 1.49234 19.5925 2.06086V0.426384C19.0139 0.142128 18.5076 -2.71088e-07 17.8567 -2.71088e-07C15.8315 0.142128 14.0957 1.7766 14.0957 3.7664Z" fill="#141414"/>
<path d="M30.9482 4.97441L29.0677 0.284179H27.5488L30.5142 7.46165H31.3098L34.4199 0.284179H32.901L30.9482 4.97441Z" fill="#141414"/>
<path d="M34.998 7.24846H38.976V6.11143H36.4446V4.1927H38.9037V2.98461H36.4446V1.49227H38.976V0.284179H34.998V7.24846Z" fill="#141414"/>
<path d="M42.8814 4.33483C43.9663 4.12164 44.5449 3.411 44.5449 2.34504C44.5449 1.06589 43.6047 0.284179 42.0135 0.284179H39.916V7.24846H41.2902V4.47696H41.5072L43.46 7.24846H45.1236L42.8814 4.33483ZM41.7242 3.48206H41.2902V1.35014H41.7242C42.5921 1.35014 43.0984 1.70546 43.0984 2.4161C43.0984 3.12674 42.5921 3.48206 41.7242 3.48206Z" fill="#4D4D4D"/>
<path d="M42.8814 4.33483C43.9663 4.12164 44.5449 3.411 44.5449 2.34504C44.5449 1.06589 43.6047 0.284179 42.0135 0.284179H39.916V7.24846H41.2902V4.47696H41.5072L43.46 7.24846H45.1236L42.8814 4.33483ZM41.7242 3.48206H41.2902V1.35014H41.7242C42.5921 1.35014 43.0984 1.70546 43.0984 2.4161C43.0984 3.12674 42.5921 3.48206 41.7242 3.48206Z" fill="#141414"/>
<rect width="24.8072" height="4.19306" fill="black" fill-opacity="0" transform="translate(10.4805 9.80664)"/>
<path d="M10.4805 13.7152V9.80664L13.2289 12.5781V10.0198H13.8075V13.9284L11.0591 11.1569V13.7152H10.4805Z" fill="#858585"/>
<path d="M16.699 10.5885H15.1802V11.4413H16.6267V12.0098H15.1802V13.2179H16.699V13.7154H14.6016V10.02H16.699V10.5885Z" fill="#858585"/>
<path d="M18.509 10.5888V13.7156H17.9304V10.5888H17.0625V10.0913H19.377V10.5888H18.509Z" fill="#858585"/>
<path d="M20.2446 10.0913L21.1849 12.5786L22.1975 9.94922L23.1377 12.5786L24.1503 10.0913H24.8736L23.21 13.9999L22.2698 11.3705L21.2572 13.9999L19.666 10.0913H20.2446Z" fill="#858585"/>
<path d="M24.9453 11.8679C24.9453 11.3705 25.1623 10.8731 25.5239 10.5177C25.8856 10.1624 26.3918 9.94922 26.8981 9.94922C27.4044 9.94922 27.9107 10.1624 28.2723 10.5177C28.634 10.8731 28.851 11.3705 28.851 11.8679C28.851 12.3654 28.634 12.8628 28.2723 13.2182C27.9107 13.5735 27.4044 13.7867 26.8981 13.7867C26.3918 13.7867 25.9579 13.6445 25.5963 13.2892C25.1623 12.9339 24.9453 12.5075 24.9453 11.8679ZM25.5239 11.8679C25.5239 12.2943 25.6686 12.5786 25.9579 12.8628C26.2472 13.1471 26.5365 13.2892 26.8981 13.2892C27.2598 13.2892 27.6214 13.1471 27.9107 12.8628C28.2 12.5786 28.3447 12.2943 28.3447 11.8679C28.3447 11.4416 28.2 11.1573 27.9107 10.8731C27.6214 10.5888 27.3321 10.4467 26.8981 10.4467C26.5365 10.4467 26.1749 10.5888 25.8856 10.8731C25.6686 11.1573 25.5239 11.5126 25.5239 11.8679Z" fill="#858585"/>
<path d="M30.8761 12.1519L32.0333 13.7154H31.3101L30.2252 12.223H30.1528V13.7154H29.5742V10.02H30.2252C30.7314 10.02 31.0931 10.0911 31.3101 10.3043C31.527 10.5175 31.6717 10.8017 31.6717 11.086C31.6717 11.3702 31.5994 11.5834 31.4547 11.7256C31.3101 12.0098 31.0931 12.1519 30.8761 12.1519ZM30.1528 11.7256H30.2975C30.8038 11.7256 31.0931 11.5124 31.0931 11.157C31.0931 10.8017 30.8038 10.5885 30.2975 10.5885H30.0805V11.7256H30.1528Z" fill="#858585"/>
<path d="M33.1177 11.5126L34.5643 10.0203H35.2875L33.624 11.6548L35.2875 13.6445H34.5643L33.1901 12.0101L33.0454 12.1522V13.6445H32.4668V9.94922H33.0454V11.5126H33.1177Z" fill="#858585"/>
</svg>
