<svg width="111" height="24" viewBox="0 0 111 24" fill="none" xmlns="http://www.w3.org/2000/svg">
<g opacity="0.4">
<rect width="111" height="23.9998" fill="black" fill-opacity="0"/>
<path d="M1.7116 3.1734L13.4979 4.39398C13.5765 4.39398 13.7336 4.39398 13.8122 4.39398L25.5985 3.1734C26.62 3.09711 27.5629 4.01255 27.2486 5.08057L24.1842 17.2865C24.1056 17.6679 23.8699 17.973 23.477 18.2019L14.4408 23.7708C13.8908 24.076 13.2622 24.076 12.7907 23.7708L3.83314 18.2019C3.51884 17.973 3.28311 17.6679 3.12596 17.2865L0.0615177 5.08057C-0.252785 4.01255 0.690119 3.09711 1.7116 3.1734ZM6.58327 14.8453L13.6551 18.9648L20.7268 14.8453L22.6126 7.44546L13.6551 8.81862L4.69747 7.44546L6.58327 14.8453Z" fill="white"/>
<path d="M30.3442 18.7925L31.2242 8.76402H33.7883L35.2145 12.3945C35.4573 12.9996 35.6646 13.5551 35.8366 14.061C36.0085 14.5669 36.1198 14.924 36.1704 15.1323L36.2462 15.4299C36.4081 14.7752 36.7621 13.7634 37.3083 12.3945L38.7497 8.76402H41.3138L42.3758 18.7925H40.0393L39.66 14.9091L39.4627 11.9779C39.1998 12.7219 38.8356 13.6989 38.3703 14.9091L36.929 18.6884H35.5483L34.1221 14.9091C33.8895 14.2941 33.6922 13.7436 33.5304 13.2575C33.3686 12.7715 33.2624 12.4342 33.2118 12.2457L33.1359 11.9779C33.1359 12.6822 33.0904 13.6592 32.9994 14.9091L32.6808 18.7925H30.3442Z" fill="white"/>
<path d="M47.4369 18.9116C46.2333 18.9116 45.3027 18.5594 44.6452 17.8552C43.9878 17.141 43.6591 16.2284 43.6591 15.1174C43.6591 13.9568 44.003 13.0046 44.6908 12.2606C45.3786 11.5067 46.294 11.1298 47.4369 11.1298C48.6305 11.1298 49.556 11.4919 50.2135 12.216C50.8709 12.9401 51.1996 13.8626 51.1996 14.9835C51.1996 16.1242 50.8659 17.0666 50.1983 17.8105C49.5408 18.5445 48.6204 18.9116 47.4369 18.9116ZM47.4218 12.8409C46.9363 12.8409 46.5721 13.0442 46.3294 13.4509C46.0866 13.8576 45.9652 14.3834 45.9652 15.0281C45.9652 15.6729 46.0866 16.2036 46.3294 16.6202C46.5822 17.0269 46.9565 17.2302 47.4521 17.2302C47.9376 17.2302 48.2967 17.0318 48.5293 16.6351C48.7721 16.2284 48.8935 15.7026 48.8935 15.0579C48.8935 13.5799 48.4029 12.8409 47.4218 12.8409Z" fill="white"/>
<path d="M54.862 11.2488V12.5284C55.0541 12.1118 55.3475 11.7845 55.7419 11.5464C56.1465 11.2984 56.627 11.1744 57.1833 11.1744C57.9723 11.1744 58.5893 11.4075 59.0343 11.8738C59.4794 12.33 59.7019 13.0046 59.7019 13.8973V18.7925H57.4868V14.299C57.4868 13.8527 57.3806 13.5154 57.1681 13.2873C56.9557 13.0492 56.6573 12.9302 56.273 12.9302C55.8684 12.9302 55.5295 13.0889 55.2564 13.4063C54.9935 13.7138 54.862 14.18 54.862 14.8049V18.7925H52.6468V11.2488H54.862Z" fill="white"/>
<path d="M66.303 11.472V13.3319C65.7669 13.0244 65.1398 12.8707 64.4216 12.8707C64.1587 12.8707 63.9564 12.9252 63.8148 13.0343C63.6731 13.1335 63.6023 13.2625 63.6023 13.4212C63.6023 13.5105 63.6276 13.5948 63.6782 13.6741C63.7288 13.7535 63.8097 13.8279 63.921 13.8973C64.0423 13.9667 64.1536 14.0312 64.2548 14.0907C64.366 14.1403 64.5127 14.2048 64.6947 14.2842C64.8869 14.3635 65.0387 14.433 65.1499 14.4925C65.6152 14.7305 65.9894 15.0083 66.2727 15.3257C66.5559 15.6332 66.6975 16.03 66.6975 16.516C66.6975 17.26 66.4244 17.8353 65.8782 18.242C65.332 18.6487 64.6088 18.8521 63.7086 18.8521C62.778 18.8521 61.9991 18.6983 61.372 18.3908V16.4565C62.07 16.9326 62.8083 17.1707 63.5872 17.1707C64.1435 17.1707 64.4216 16.9971 64.4216 16.6499C64.4216 16.5607 64.3964 16.4764 64.3458 16.397C64.2952 16.3176 64.2092 16.2432 64.0879 16.1738C63.9665 16.1044 63.8552 16.0498 63.7541 16.0101C63.6529 15.9605 63.5063 15.8961 63.3141 15.8167C63.1219 15.7374 62.9752 15.6729 62.8741 15.6233C61.8525 15.1472 61.3417 14.433 61.3417 13.4807C61.3417 12.7467 61.6249 12.1763 62.1913 11.7696C62.7679 11.3629 63.481 11.1596 64.3306 11.1596C65.1196 11.1596 65.777 11.2637 66.303 11.472Z" fill="white"/>
<path d="M70.6202 12.8409V16.3077C70.6202 16.5755 70.6961 16.7789 70.8478 16.9178C71.0096 17.0566 71.217 17.1261 71.4699 17.1261C71.8745 17.1261 72.2335 17.0269 72.5471 16.8285V18.6289C72.1728 18.7876 71.6671 18.8669 71.0299 18.8669C69.28 18.8669 68.4051 18.0089 68.4051 16.2928V12.8409H67.2975V11.2488H68.4051V9.46334H70.6202V11.2488H72.4105V12.8409H70.6202Z" fill="white"/>
<path d="M76.1086 11.2488V12.6475C76.2503 12.211 76.4829 11.8638 76.8066 11.6059C77.1404 11.3381 77.5247 11.2042 77.9597 11.2042C78.2024 11.2042 78.3946 11.224 78.5362 11.2637V13.317C78.2934 13.2079 78.0153 13.1534 77.7017 13.1534C77.2263 13.1534 76.842 13.3269 76.5486 13.6741C76.2553 14.0114 76.1086 14.4627 76.1086 15.0281V18.7925H73.8935L73.9087 11.2488H76.1086Z" fill="white"/>
<path d="M82.9228 18.9116C81.7191 18.9116 80.7885 18.5594 80.1311 17.8552C79.4736 17.141 79.1449 16.2284 79.1449 15.1174C79.1449 13.9568 79.4888 13.0046 80.1766 12.2606C80.8644 11.5067 81.7798 11.1298 82.9228 11.1298C84.1163 11.1298 85.0418 11.4919 85.6993 12.216C86.3567 12.9401 86.6855 13.8626 86.6855 14.9835C86.6855 16.1242 86.3517 17.0666 85.6841 17.8105C85.0266 18.5445 84.1062 18.9116 82.9228 18.9116ZM82.9076 12.8409C82.4221 12.8409 82.0579 13.0442 81.8152 13.4509C81.5724 13.8576 81.451 14.3834 81.451 15.0281C81.451 15.6729 81.5724 16.2036 81.8152 16.6202C82.0681 17.0269 82.4423 17.2302 82.9379 17.2302C83.4234 17.2302 83.7825 17.0318 84.0152 16.6351C84.2579 16.2284 84.3793 15.7026 84.3793 15.0579C84.3793 13.5799 83.8887 12.8409 82.9076 12.8409Z" fill="white"/>
<path d="M88.2085 18.7925V11.2488H90.4236V18.7925H88.2085ZM88.4057 9.95435C88.1529 9.70636 88.0264 9.40878 88.0264 9.0616C88.0264 8.71442 88.1529 8.41684 88.4057 8.16885C88.6586 7.92087 88.9621 7.79688 89.3161 7.79688C89.6701 7.79688 89.9735 7.92087 90.2264 8.16885C90.4793 8.41684 90.6057 8.71442 90.6057 9.0616C90.6057 9.40878 90.4793 9.70636 90.2264 9.95435C89.9735 10.2023 89.6701 10.3263 89.3161 10.3263C88.9621 10.3263 88.6586 10.2023 88.4057 9.95435Z" fill="white"/>
<path d="M95.8609 17.0666C96.3666 17.0666 96.7763 16.8731 97.0898 16.4863C97.4034 16.0994 97.5602 15.5836 97.5602 14.9388C97.5602 14.3139 97.3882 13.8279 97.0443 13.4807C96.7105 13.1335 96.311 12.9599 95.8457 12.9599C95.3804 12.9599 94.9859 13.1434 94.6623 13.5105C94.3487 13.8775 94.1919 14.3883 94.1919 15.043C94.1919 15.6481 94.3538 16.1391 94.6774 16.516C95.0011 16.883 95.3956 17.0666 95.8609 17.0666ZM97.5602 8.27301H99.7753V18.7925H97.5602V17.6171C97.0443 18.4602 96.2756 18.8818 95.254 18.8818C94.2526 18.8818 93.4485 18.4999 92.8416 17.7361C92.2448 16.9723 91.9464 16.0597 91.9464 14.9984C91.9464 13.808 92.26 12.8707 92.8871 12.1862C93.5142 11.5018 94.3082 11.1596 95.2691 11.1596C96.2705 11.1596 97.0342 11.5762 97.5602 12.4094V8.27301Z" fill="white"/>
<path d="M107.48 8.01984H111V9.86485H104.385V8.18351C105.477 7.44947 106.438 6.63608 107.267 5.74334C108.107 4.85059 108.527 4.062 108.527 3.37756C108.527 2.96094 108.4 2.6336 108.147 2.39554C107.895 2.14755 107.51 2.02356 106.994 2.02356C106.135 2.02356 105.32 2.33602 104.552 2.96094V0.862988C104.885 0.624922 105.32 0.421574 105.856 0.252944C106.393 0.0843147 106.919 0 107.434 0C108.466 0 109.285 0.267824 109.892 0.803471C110.509 1.3292 110.818 2.0682 110.818 3.02046C110.818 4.73652 109.705 6.40298 107.48 8.01984Z" fill="white"/>
</g>
</svg>
