<svg width="222" height="48" viewBox="0 0 222 48" fill="none" xmlns="http://www.w3.org/2000/svg">
<g opacity="0.4">
<rect width="111" height="23.9998" fill="black" fill-opacity="0" transform="scale(2)"/>
<path d="M3.4232 6.34679L26.9958 8.78797C27.153 8.78797 27.4673 8.78797 27.6244 8.78797L51.197 6.34679C53.24 6.19422 55.1258 8.0251 54.4972 10.1611L48.3683 34.5729C48.2112 35.3358 47.7397 35.9461 46.954 36.4038L28.8816 47.5417C27.7816 48.152 26.5244 48.152 25.5815 47.5417L7.66627 36.4038C7.03767 35.9461 6.56622 35.3358 6.25191 34.5729L0.123035 10.1611C-0.505569 8.0251 1.38024 6.19422 3.4232 6.34679ZM13.1665 29.6906L27.3101 37.9295L41.4537 29.6906L45.2253 14.8909L27.3101 17.6372L9.39493 14.8909L13.1665 29.6906Z" fill="white"/>
<path d="M60.6885 37.5851L62.4485 17.528H67.5767L70.429 24.789C70.9146 25.9992 71.3293 27.1102 71.6732 28.122C72.0171 29.1337 72.2396 29.8479 72.3407 30.2646L72.4925 30.8597C72.8161 29.5504 73.5242 27.5268 74.6166 24.789L77.4993 17.528H82.6275L84.7516 37.5851H80.0786L79.32 29.8182L78.9255 23.9558C78.3995 25.4437 77.6713 27.3978 76.7407 29.8182L73.858 37.3768H71.0966L68.2442 29.8182C67.779 28.5882 67.3845 27.4871 67.0608 26.515C66.7371 25.5429 66.5247 24.8684 66.4236 24.4915L66.2719 23.9558C66.2719 25.3644 66.1808 27.3185 65.9988 29.8182L65.3615 37.5851H60.6885Z" fill="white"/>
<path d="M94.8739 37.8231C92.4665 37.8231 90.6054 37.1189 89.2905 35.7103C87.9756 34.2819 87.3181 32.4567 87.3181 30.2348C87.3181 27.9137 88.0059 26.0091 89.3815 24.5212C90.7571 23.0135 92.5879 22.2596 94.8739 22.2596C97.261 22.2596 99.112 22.9837 100.427 24.4319C101.742 25.8802 102.399 27.7252 102.399 29.967C102.399 32.2484 101.732 34.1331 100.397 35.621C99.0816 37.0891 97.2407 37.8231 94.8739 37.8231ZM94.8435 25.6818C93.8725 25.6818 93.1442 26.0885 92.6587 26.9019C92.1732 27.7153 91.9305 28.7667 91.9305 30.0562C91.9305 31.3458 92.1732 32.4071 92.6587 33.2404C93.1645 34.0538 93.913 34.4605 94.9042 34.4605C95.8752 34.4605 96.5934 34.0637 97.0587 33.2701C97.5442 32.4567 97.7869 31.4053 97.7869 30.1158C97.7869 27.1598 96.8058 25.6818 94.8435 25.6818Z" fill="white"/>
<path d="M109.724 22.4977V25.0569C110.108 24.2236 110.695 23.569 111.484 23.0928C112.293 22.5969 113.254 22.3489 114.367 22.3489C115.945 22.3489 117.179 22.8151 118.069 23.7475C118.959 24.6601 119.404 26.0091 119.404 27.7946V37.5851H114.974V28.5981C114.974 27.7053 114.761 27.0308 114.336 26.5745C113.911 26.0984 113.315 25.8603 112.546 25.8603C111.737 25.8603 111.059 26.1778 110.513 26.8126C109.987 27.4276 109.724 28.36 109.724 29.6099V37.5851H105.294V22.4977H109.724Z" fill="white"/>
<path d="M132.606 22.944V26.6638C131.534 26.0488 130.28 25.7413 128.843 25.7413C128.317 25.7413 127.913 25.8504 127.63 26.0686C127.346 26.267 127.205 26.5249 127.205 26.8424C127.205 27.0209 127.255 27.1895 127.356 27.3482C127.458 27.507 127.619 27.6557 127.842 27.7946C128.085 27.9335 128.307 28.0624 128.51 28.1815C128.732 28.2807 129.025 28.4096 129.389 28.5683C129.774 28.727 130.077 28.8659 130.3 28.9849C131.23 29.4611 131.979 30.0166 132.545 30.6514C133.112 31.2664 133.395 32.06 133.395 33.0321C133.395 34.52 132.849 35.6706 131.756 36.484C130.664 37.2974 129.218 37.7041 127.417 37.7041C125.556 37.7041 123.998 37.3966 122.744 36.7816V32.913C124.14 33.8653 125.617 34.3414 127.174 34.3414C128.287 34.3414 128.843 33.9942 128.843 33.2999C128.843 33.1213 128.793 32.9527 128.692 32.794C128.59 32.6353 128.418 32.4865 128.176 32.3476C127.933 32.2088 127.71 32.0996 127.508 32.0203C127.306 31.9211 127.013 31.7921 126.628 31.6334C126.244 31.4747 125.95 31.3458 125.748 31.2466C123.705 30.2943 122.683 28.8659 122.683 26.9614C122.683 25.4933 123.25 24.3526 124.383 23.5392C125.536 22.7258 126.962 22.3191 128.661 22.3191C130.239 22.3191 131.554 22.5274 132.606 22.944Z" fill="white"/>
<path d="M141.24 25.6818V32.6154C141.24 33.1511 141.392 33.5578 141.696 33.8355C142.019 34.1133 142.434 34.2522 142.94 34.2522C143.749 34.2522 144.467 34.0538 145.094 33.657V37.2577C144.346 37.5752 143.334 37.7339 142.06 37.7339C138.56 37.7339 136.81 36.0178 136.81 32.5857V25.6818H134.595V22.4977H136.81V18.9267H141.24V22.4977H144.821V25.6818H141.24Z" fill="white"/>
<path d="M152.217 22.4977V25.2949C152.501 24.422 152.966 23.7277 153.613 23.2119C154.281 22.6762 155.049 22.4084 155.919 22.4084C156.405 22.4084 156.789 22.4481 157.072 22.5274V26.634C156.587 26.4158 156.031 26.3067 155.403 26.3067C154.453 26.3067 153.684 26.6539 153.097 27.3482C152.511 28.0228 152.217 28.9254 152.217 30.0562V37.5851H147.787L147.817 22.4977H152.217Z" fill="white"/>
<path d="M165.846 37.8231C163.438 37.8231 161.577 37.1189 160.262 35.7103C158.947 34.2819 158.29 32.4567 158.29 30.2348C158.29 27.9137 158.978 26.0091 160.353 24.5212C161.729 23.0135 163.56 22.2596 165.846 22.2596C168.233 22.2596 170.084 22.9837 171.399 24.4319C172.713 25.8802 173.371 27.7252 173.371 29.967C173.371 32.2484 172.703 34.1331 171.368 35.621C170.053 37.0891 168.212 37.8231 165.846 37.8231ZM165.815 25.6818C164.844 25.6818 164.116 26.0885 163.63 26.9019C163.145 27.7153 162.902 28.7667 162.902 30.0562C162.902 31.3458 163.145 32.4071 163.63 33.2404C164.136 34.0538 164.885 34.4605 165.876 34.4605C166.847 34.4605 167.565 34.0637 168.03 33.2701C168.516 32.4567 168.759 31.4053 168.759 30.1158C168.759 27.1598 167.777 25.6818 165.815 25.6818Z" fill="white"/>
<path d="M176.417 37.5851V22.4977H180.847V37.5851H176.417ZM176.811 19.9087C176.306 19.4127 176.053 18.8176 176.053 18.1232C176.053 17.4288 176.306 16.8337 176.811 16.3377C177.317 15.8417 177.924 15.5938 178.632 15.5938C179.34 15.5938 179.947 15.8417 180.453 16.3377C180.959 16.8337 181.211 17.4288 181.211 18.1232C181.211 18.8176 180.959 19.4127 180.453 19.9087C179.947 20.4047 179.34 20.6526 178.632 20.6526C177.924 20.6526 177.317 20.4047 176.811 19.9087Z" fill="white"/>
<path d="M191.722 34.1331C192.733 34.1331 193.553 33.7463 194.18 32.9725C194.807 32.1988 195.12 31.1672 195.12 29.8777C195.12 28.6278 194.776 27.6557 194.089 26.9614C193.421 26.267 192.622 25.9199 191.691 25.9199C190.761 25.9199 189.972 26.2869 189.325 27.0209C188.697 27.7549 188.384 28.7766 188.384 30.086C188.384 31.2962 188.708 32.2782 189.355 33.0321C190.002 33.7661 190.791 34.1331 191.722 34.1331ZM195.12 16.546H199.551V37.5851H195.12V35.2342C194.089 36.9205 192.551 37.7636 190.508 37.7636C188.505 37.7636 186.897 36.9998 185.683 35.4722C184.49 33.9447 183.893 32.1195 183.893 29.9967C183.893 27.6161 184.52 25.7413 185.774 24.3724C187.028 23.0035 188.616 22.3191 190.538 22.3191C192.541 22.3191 194.068 23.1523 195.12 24.8188V16.546Z" fill="white"/>
<path d="M214.96 16.0397H222V19.7297H208.77V16.367C210.954 14.8989 212.876 13.2722 214.535 11.4867C216.214 9.70118 217.054 8.12399 217.054 6.75512C217.054 5.92189 216.801 5.2672 216.295 4.79107C215.789 4.2951 215.02 4.04712 213.989 4.04712C212.269 4.04712 210.641 4.67204 209.103 5.92189V1.72598C209.771 1.24984 210.641 0.843149 211.713 0.505889C212.785 0.168629 213.837 0 214.869 0C216.932 0 218.571 0.535648 219.785 1.60694C221.019 2.6584 221.636 4.13639 221.636 6.04092C221.636 9.47303 219.41 12.806 214.96 16.0397Z" fill="white"/>
</g>
</svg>
