<svg width="80" height="80" viewBox="0 0 80 80" fill="none" xmlns="http://www.w3.org/2000/svg">
<rect width="40" height="40" fill="black" fill-opacity="0" transform="translate(20 10)"/>
<g filter="url(#filter0_d)">
<circle cx="40" cy="30" r="20" fill="url(#paint0_linear)"/>
</g>
<path d="M39.4316 24.7559C39.2884 24.627 39.1237 24.5625 38.9375 24.5625C38.7513 24.5625 38.5866 24.627 38.4434 24.7559C38.3145 24.8991 38.25 25.0638 38.25 25.25C38.25 25.4362 38.3145 25.6009 38.4434 25.7441L42.0957 29.375L38.4434 33.0059C38.3145 33.1491 38.25 33.3138 38.25 33.5C38.25 33.6862 38.3145 33.8509 38.4434 33.9941C38.515 34.0514 38.5938 34.1016 38.6797 34.1445C38.7656 34.1732 38.8516 34.1875 38.9375 34.1875C39.0234 34.1875 39.1094 34.1732 39.1953 34.1445C39.2812 34.1016 39.36 34.0514 39.4316 33.9941L43.5566 29.8691C43.6855 29.7259 43.75 29.5612 43.75 29.375C43.75 29.1888 43.6855 29.0241 43.5566 28.8809L39.4316 24.7559Z" fill="white"/>
<defs>
<filter id="filter0_d" x="0" y="0" width="80" height="80" filterUnits="userSpaceOnUse" color-interpolation-filters="sRGB">
<feFlood flood-opacity="0" result="BackgroundImageFix"/>
<feColorMatrix in="SourceAlpha" type="matrix" values="0 0 0 0 0 0 0 0 0 0 0 0 0 0 0 0 0 0 255 0"/>
<feOffset dy="10"/>
<feGaussianBlur stdDeviation="10"/>
<feColorMatrix type="matrix" values="0 0 0 0 0.25098 0 0 0 0 0.92549 0 0 0 0 0.85098 0 0 0 0.5 0"/>
<feBlend mode="normal" in2="BackgroundImageFix" result="effect1_dropShadow"/>
<feBlend mode="normal" in="SourceGraphic" in2="effect1_dropShadow" result="shape"/>
</filter>
<linearGradient id="paint0_linear" x1="20" y1="50" x2="60" y2="50" gradientUnits="userSpaceOnUse">
<stop stop-color="#64ECF5"/>
<stop offset="1" stop-color="#1CEBBC"/>
</linearGradient>
</defs>
</svg>
