<svg width="1179" height="333" viewBox="0 0 1179 333" fill="none" xmlns="http://www.w3.org/2000/svg">
<rect width="1179" height="332.576" fill="black" fill-opacity="0"/>
<rect x="773" y="2" width="270" height="270" fill="#8667F7"/>
<circle opacity="0.3" cx="1044" cy="137" r="135" fill="#64ECF5"/>
<g opacity="0.55">
<path d="M818 288.735L970.735 136L980.635 145.899L827.899 298.635L818 288.735Z" fill="#1CEBBC"/>
<path d="M834.971 305.706L987.706 152.971L997.605 162.87L844.87 315.605L834.971 305.706Z" fill="#1CEBBC"/>
<path d="M851.939 322.676L951.642 222.974L961.541 232.874L861.839 332.576L851.939 322.676Z" fill="#1CEBBC"/>
</g>
<path opacity="0.5" d="M624 2L773 272H475L624 2Z" fill="url(#paint0_linear)"/>
<path opacity="0.55" d="M123.711 202.296V217.56C118.911 214.68 112.911 213.24 105.711 213.24C102.735 213.24 100.383 213.912 98.6548 215.256C97.0228 216.504 96.2068 218.136 96.2068 220.152C96.2068 220.92 96.3028 221.64 96.4948 222.312C96.7827 222.984 97.2147 223.656 97.7907 224.328C98.4627 224.904 99.0867 225.432 99.6628 225.912C100.239 226.392 101.055 226.92 102.111 227.496C103.167 227.976 104.079 228.408 104.847 228.792C105.615 229.176 106.671 229.656 108.015 230.232C109.359 230.808 110.415 231.288 111.183 231.672C116.271 234.168 120.303 236.952 123.279 240.024C126.255 243.096 127.743 247.08 127.743 251.976C127.743 258.792 125.295 264.12 120.399 267.96C115.503 271.8 108.975 273.72 100.815 273.72C91.7908 273.72 84.4948 272.232 78.9268 269.256V253.416C85.3587 257.736 92.3188 259.896 99.8068 259.896C102.975 259.896 105.423 259.32 107.151 258.168C108.975 256.92 109.887 255.24 109.887 253.128C109.887 251.88 109.599 250.776 109.023 249.816C108.447 248.76 107.343 247.752 105.711 246.792C104.079 245.832 102.783 245.16 101.823 244.776C100.959 244.296 99.1828 243.48 96.4948 242.328C96.2068 242.232 95.9667 242.136 95.7747 242.04C95.6787 241.944 95.4867 241.848 95.1988 241.752C94.9107 241.656 94.6707 241.56 94.4788 241.464C83.8228 236.664 78.4948 229.752 78.4948 220.728C78.4948 214.008 81.0388 208.728 86.1268 204.888C91.2147 201.048 97.5987 199.128 105.279 199.128C112.671 199.128 118.815 200.184 123.711 202.296ZM162.556 212.952V250.104C162.556 253.176 163.372 255.528 165.004 257.16C166.636 258.696 168.892 259.464 171.772 259.464C175.42 259.464 178.78 258.456 181.852 256.44V271.272C178.492 272.904 174.172 273.72 168.892 273.72C153.148 273.72 145.276 265.752 145.276 249.816V212.952H134.332V199.992H145.276V182.424H162.556V199.992H180.7V212.952H162.556ZM241.31 199.992H258.734V273H241.31V261.048C237.47 269.496 229.982 273.72 218.846 273.72C211.454 273.72 205.694 271.608 201.566 267.384C197.438 263.16 195.374 257.16 195.374 249.384V199.992H212.654V245.352C212.654 249.96 213.758 253.464 215.966 255.864C218.27 258.264 221.39 259.464 225.326 259.464C230.318 259.464 234.206 257.784 236.99 254.424C239.87 251.064 241.31 245.976 241.31 239.16V199.992ZM308.908 259.176C314.092 259.176 318.412 257.208 321.868 253.272C325.324 249.24 327.052 243.432 327.052 235.848C327.052 228.456 325.228 222.936 321.58 219.288C317.932 215.544 313.756 213.672 309.052 213.672C304.06 213.672 299.836 215.736 296.38 219.864C293.02 223.896 291.34 229.56 291.34 236.856C291.34 243.48 293.02 248.856 296.38 252.984C299.74 257.112 303.916 259.176 308.908 259.176ZM327.052 171.192H344.332V273H327.052V261.624C322.06 269.88 314.668 274.008 304.876 274.008C295.276 274.008 287.644 270.36 281.98 263.064C276.412 255.768 273.628 246.936 273.628 236.568C273.628 225.048 276.556 215.928 282.412 209.208C288.364 202.392 295.948 198.984 305.164 198.984C314.668 198.984 321.964 203.064 327.052 211.224V171.192ZM363.736 273V199.992H381.016V273H363.736ZM362.008 178.104C362.008 175.224 363.016 172.776 365.032 170.76C367.048 168.744 369.496 167.736 372.376 167.736C375.256 167.736 377.704 168.744 379.72 170.76C381.736 172.776 382.744 175.224 382.744 178.104C382.744 181.08 381.736 183.576 379.72 185.592C377.704 187.608 375.256 188.616 372.376 188.616C369.496 188.616 367.048 187.608 365.032 185.592C363.016 183.576 362.008 181.08 362.008 178.104ZM431.671 274.152C420.63 274.152 411.99 270.696 405.75 263.784C399.606 256.872 396.534 248.04 396.534 237.288C396.534 226.152 399.75 216.984 406.182 209.784C412.615 202.488 421.111 198.84 431.671 198.84C442.902 198.84 451.59 202.392 457.734 209.496C463.879 216.504 466.951 225.432 466.951 236.28C466.951 247.32 463.831 256.392 457.591 263.496C451.447 270.6 442.807 274.152 431.671 274.152ZM431.671 212.952C426.198 212.952 421.974 215.208 418.999 219.72C416.119 224.232 414.679 229.896 414.679 236.712C414.679 243.432 416.167 249.048 419.142 253.56C422.118 258.072 426.342 260.328 431.814 260.328C437.479 260.328 441.751 258.12 444.631 253.704C447.511 249.288 448.951 243.672 448.951 236.856C448.951 229.848 447.559 224.136 444.774 219.72C441.991 215.208 437.623 212.952 431.671 212.952Z" fill="#1CEBBC"/>
<path d="M73.014 247.232C82.302 247.232 90.042 243.706 96.234 236.654C102.426 229.43 105.522 219.024 105.522 205.436C105.522 192.192 102.254 182.302 95.718 175.766C89.182 169.058 81.7 165.704 73.272 165.704C64.328 165.704 56.76 169.402 50.568 176.798C44.548 184.022 41.538 194.17 41.538 207.242C41.538 219.11 44.548 228.742 50.568 236.138C56.588 243.534 64.07 247.232 73.014 247.232ZM105.522 89.594H136.482V272H105.522V251.618C96.578 266.41 83.334 273.806 65.79 273.806C48.59 273.806 34.916 267.27 24.768 254.198C14.792 241.126 9.804 225.302 9.804 206.726C9.804 186.086 15.05 169.746 25.542 157.706C36.206 145.494 49.794 139.388 66.306 139.388C83.334 139.388 96.406 146.698 105.522 161.318V89.594ZM248.648 195.89V192.02C248.304 183.592 245.982 176.884 241.682 171.896C237.554 166.736 231.448 164.156 223.364 164.156C215.968 164.156 209.518 166.908 204.014 172.412C198.682 177.744 195.242 185.57 193.694 195.89H248.648ZM269.804 237.944V264.776C260.688 270.452 247.53 273.29 230.33 273.29C209.518 273.29 193.092 267.098 181.052 254.714C169.012 242.33 162.992 226.334 162.992 206.726C162.992 185.914 168.668 169.574 180.02 157.706C191.372 145.838 205.562 139.904 222.59 139.904C239.618 139.904 253.12 145.064 263.096 155.384C273.072 165.704 278.06 180.754 278.06 200.534C278.06 205.35 277.458 211.542 276.254 219.11H194.21C196.446 228.57 201.09 235.794 208.142 240.782C215.366 245.77 224.31 248.264 234.974 248.264C248.734 248.264 260.344 244.824 269.804 237.944ZM384.69 145.322V172.67C376.09 167.51 365.34 164.93 352.44 164.93C347.108 164.93 342.894 166.134 339.798 168.542C336.874 170.778 335.412 173.702 335.412 177.314C335.412 178.69 335.584 179.98 335.928 181.184C336.444 182.388 337.218 183.592 338.25 184.796C339.454 185.828 340.572 186.774 341.604 187.634C342.636 188.494 344.098 189.44 345.99 190.472C347.882 191.332 349.516 192.106 350.892 192.794C352.268 193.482 354.16 194.342 356.568 195.374C358.976 196.406 360.868 197.266 362.244 197.954C371.36 202.426 378.584 207.414 383.916 212.918C389.248 218.422 391.914 225.56 391.914 234.332C391.914 246.544 387.528 256.09 378.756 262.97C369.984 269.85 358.288 273.29 343.668 273.29C327.5 273.29 314.428 270.624 304.452 265.292V236.912C315.976 244.652 328.446 248.522 341.862 248.522C347.538 248.522 351.924 247.49 355.02 245.426C358.288 243.19 359.922 240.18 359.922 236.396C359.922 234.16 359.406 232.182 358.374 230.462C357.342 228.57 355.364 226.764 352.44 225.044C349.516 223.324 347.194 222.12 345.474 221.432C343.926 220.572 340.744 219.11 335.928 217.046C335.412 216.874 334.982 216.702 334.638 216.53C334.466 216.358 334.122 216.186 333.606 216.014C333.09 215.842 332.66 215.67 332.316 215.498C313.224 206.898 303.678 194.514 303.678 178.346C303.678 166.306 308.236 156.846 317.352 149.966C326.468 143.086 337.906 139.646 351.666 139.646C364.91 139.646 375.918 141.538 384.69 145.322ZM417.91 272V141.194H448.87V272H417.91ZM414.814 101.978C414.814 96.818 416.62 92.432 420.232 88.82C423.844 85.208 428.23 83.402 433.39 83.402C438.55 83.402 442.936 85.208 446.548 88.82C450.16 92.432 451.966 96.818 451.966 101.978C451.966 107.31 450.16 111.782 446.548 115.394C442.936 119.006 438.55 120.812 433.39 120.812C428.23 120.812 423.844 119.006 420.232 115.394C416.62 111.782 414.814 107.31 414.814 101.978ZM538.335 242.588C546.763 242.588 553.815 239.32 559.491 232.784C565.167 226.076 568.005 217.39 568.005 206.726C568.005 192.794 565.253 182.56 559.749 176.024C554.245 169.488 547.279 166.22 538.851 166.22C529.907 166.22 522.855 169.746 517.695 176.798C512.535 183.678 509.955 193.052 509.955 204.92C509.955 217.132 512.621 226.506 517.953 233.042C523.285 239.406 530.079 242.588 538.335 242.588ZM568.005 141.194H598.965V260.132C598.965 280.772 592.945 296.252 580.905 306.572C569.037 317.064 553.901 322.31 535.497 322.31C518.297 322.31 503.247 319.214 490.347 313.022V281.546C502.043 289.802 516.061 293.93 532.401 293.93C556.137 293.93 568.005 282.578 568.005 259.874V248.522C560.093 261.422 547.709 267.872 530.853 267.872C516.233 267.872 503.677 262.54 493.185 251.876C482.865 241.04 477.705 225.388 477.705 204.92C477.705 186 482.607 170.434 492.411 158.222C502.387 145.838 515.459 139.646 531.627 139.646C547.967 139.646 560.093 146.44 568.005 160.028V141.194ZM661.992 141.194V163.64C669.388 147.644 682.804 139.646 702.24 139.646C715.312 139.646 725.632 143.602 733.2 151.514C740.768 159.426 744.552 170.606 744.552 185.054V272H713.592V191.504C713.592 182.904 711.528 176.454 707.4 172.154C703.272 167.682 697.682 165.446 690.63 165.446C682.546 165.446 675.752 168.628 670.248 174.992C664.744 181.184 661.992 190.128 661.992 201.824V272H631.032V141.194H661.992Z" fill="url(#paint1_linear)"/>
<defs>
<linearGradient id="paint0_linear" x1="475" y1="272" x2="773" y2="272" gradientUnits="userSpaceOnUse">
<stop stop-color="#64ECF5"/>
<stop offset="1" stop-color="#1CEBBC"/>
</linearGradient>
<linearGradient id="paint1_linear" x1="585" y1="7.39183e-07" x2="578.343" y2="336.435" gradientUnits="userSpaceOnUse">
<stop stop-color="#5F45EA"/>
<stop offset="1" stop-color="#5F45EA" stop-opacity="0"/>
</linearGradient>
</defs>
</svg>
