<svg width="170" height="180" viewBox="0 0 170 180" fill="none" xmlns="http://www.w3.org/2000/svg">
<g filter="url(#icon10_d)">
<rect width="73.9623" height="95.0943" rx="4" transform="translate(75.4717 20)" fill="white"/>
<rect x="0.5" y="0.5" width="72.9623" height="94.0943" rx="3.5" transform="translate(75.4717 20)" stroke="#5F45EA"/>
</g>
<g filter="url(#icon11_d)">
<path d="M0 4C0 1.79086 1.79086 0 4 0H69.9623C72.1714 0 73.9623 1.79086 73.9623 4V9.50943H0V4Z" transform="translate(75.4717 20)" fill="white"/>
<path d="M0.5 4C0.5 2.067 2.067 0.5 4 0.5H69.9623C71.8953 0.5 73.4623 2.067 73.4623 4V9.00943H0.5V4Z" transform="translate(75.4717 20)" stroke="#5F45EA"/>
</g>
<circle cx="1.58491" cy="1.58491" r="1.58491" transform="translate(79.6982 23.1699)" fill="#1CEBBC"/>
<circle cx="1.58491" cy="1.58491" r="1.58491" transform="translate(86.0381 23.1699)" fill="#1CEBBC"/>
<circle cx="1.58491" cy="1.58491" r="1.58491" transform="translate(92.377 23.1699)" fill="#1CEBBC"/>
<g filter="url(#icon12_d)">
<rect width="92.4528" height="118.868" rx="4" transform="translate(20 41.1328)" fill="white"/>
<rect x="0.5" y="0.5" width="91.4528" height="117.868" rx="3.5" transform="translate(20 41.1328)" stroke="#5F45EA"/>
</g>
<rect opacity="0.15" width="89.8113" height="36.9811" transform="translate(21.3203 53.0195)" fill="#1EE4BD"/>
<g filter="url(#icon13_d)">
<path d="M0 4C0 1.79086 1.79086 0 4 0H88.4528C90.662 0 92.4528 1.79086 92.4528 4V11.8868H0V4Z" transform="translate(20 41.1328)" fill="white"/>
<path d="M0.5 4C0.5 2.067 2.067 0.5 4 0.5H88.4528C90.3858 0.5 91.9528 2.067 91.9528 4V11.3868H0.5V4Z" transform="translate(20 41.1328)" stroke="#5F45EA"/>
</g>
<circle cx="1.98113" cy="1.98113" r="1.98113" transform="translate(25.2832 45.0938)" fill="#1DE8BC"/>
<circle cx="1.98113" cy="1.98113" r="1.98113" transform="translate(33.208 45.0938)" fill="#1DE8BC"/>
<circle cx="1.98113" cy="1.98113" r="1.98113" transform="translate(41.1318 45.0938)" fill="#1DE8BC"/>
<defs>
<filter id="icon10_d" x="55.4717" y="0" width="113.962" height="135.094" filterUnits="userSpaceOnUse" color-interpolation-filters="sRGB">
<feFlood flood-opacity="0" result="BackgroundImageFix"/>
<feColorMatrix in="SourceAlpha" type="matrix" values="0 0 0 0 0 0 0 0 0 0 0 0 0 0 0 0 0 0 255 0"/>
<feOffset/>
<feGaussianBlur stdDeviation="10"/>
<feColorMatrix type="matrix" values="0 0 0 0 0.372549 0 0 0 0 0.270588 0 0 0 0 0.917647 0 0 0 0.5 0"/>
<feBlend mode="normal" in2="BackgroundImageFix" result="effect1_dropShadow"/>
<feBlend mode="normal" in="SourceGraphic" in2="effect1_dropShadow" result="shape"/>
</filter>
<filter id="icon11_d" x="55.4717" y="0" width="113.962" height="49.5094" filterUnits="userSpaceOnUse" color-interpolation-filters="sRGB">
<feFlood flood-opacity="0" result="BackgroundImageFix"/>
<feColorMatrix in="SourceAlpha" type="matrix" values="0 0 0 0 0 0 0 0 0 0 0 0 0 0 0 0 0 0 255 0"/>
<feOffset/>
<feGaussianBlur stdDeviation="10"/>
<feColorMatrix type="matrix" values="0 0 0 0 0.203922 0 0 0 0 0.192157 0 0 0 0 0.294118 0 0 0 0.1 0"/>
<feBlend mode="normal" in2="BackgroundImageFix" result="effect1_dropShadow"/>
<feBlend mode="normal" in="SourceGraphic" in2="effect1_dropShadow" result="shape"/>
</filter>
<filter id="icon12_d" x="0" y="21.1328" width="132.453" height="158.868" filterUnits="userSpaceOnUse" color-interpolation-filters="sRGB">
<feFlood flood-opacity="0" result="BackgroundImageFix"/>
<feColorMatrix in="SourceAlpha" type="matrix" values="0 0 0 0 0 0 0 0 0 0 0 0 0 0 0 0 0 0 255 0"/>
<feOffset/>
<feGaussianBlur stdDeviation="10"/>
<feColorMatrix type="matrix" values="0 0 0 0 0.372549 0 0 0 0 0.270588 0 0 0 0 0.917647 0 0 0 0.5 0"/>
<feBlend mode="normal" in2="BackgroundImageFix" result="effect1_dropShadow"/>
<feBlend mode="normal" in="SourceGraphic" in2="effect1_dropShadow" result="shape"/>
</filter>
<filter id="icon13_d" x="0" y="21.1328" width="132.453" height="51.8868" filterUnits="userSpaceOnUse" color-interpolation-filters="sRGB">
<feFlood flood-opacity="0" result="BackgroundImageFix"/>
<feColorMatrix in="SourceAlpha" type="matrix" values="0 0 0 0 0 0 0 0 0 0 0 0 0 0 0 0 0 0 255 0"/>
<feOffset/>
<feGaussianBlur stdDeviation="10"/>
<feColorMatrix type="matrix" values="0 0 0 0 0.203922 0 0 0 0 0.192157 0 0 0 0 0.294118 0 0 0 0.1 0"/>
<feBlend mode="normal" in2="BackgroundImageFix" result="effect1_dropShadow"/>
<feBlend mode="normal" in="SourceGraphic" in2="effect1_dropShadow" result="shape"/>
</filter>
</defs>
</svg>
