<svg width="148" height="31" viewBox="0 0 148 31" fill="none" xmlns="http://www.w3.org/2000/svg">
<rect width="148" height="30.4446" fill="black" fill-opacity="0"/>
<path d="M2.25615 8.12261L17.7928 9.2326C17.8964 9.2326 18.1036 9.2326 18.2072 9.2326L33.7438 8.12261C35.0904 8.05323 36.3333 8.88573 35.919 9.85697L31.8794 20.9569C31.7759 21.3038 31.4651 21.5813 30.9472 21.7894L19.0358 26.8537C18.3107 27.1312 17.4821 27.1312 16.8606 26.8537L5.05276 21.7894C4.63845 21.5813 4.32771 21.3038 4.12056 20.9569L0.0810204 9.85697C-0.333294 8.88573 0.909641 8.05323 2.25615 8.12261ZM8.67799 18.7369L18 22.4831L27.322 18.7369L29.8079 12.0076L18 13.2563L6.19212 12.0076L8.67799 18.7369Z" fill="white"/>
<path d="M40 29.1186L41.16 15.6386H44.54L46.42 20.5186C46.74 21.3319 47.0133 22.0786 47.24 22.7586C47.4667 23.4386 47.6133 23.9186 47.68 24.1986L47.78 24.5986C47.9933 23.7186 48.46 22.3586 49.18 20.5186L51.08 15.6386H54.46L55.86 29.1186H52.78L52.28 23.8986L52.02 19.9586C51.6733 20.9586 51.1933 22.2719 50.58 23.8986L48.68 28.9786H46.86L44.98 23.8986C44.6733 23.0719 44.4133 22.3319 44.2 21.6786C43.9867 21.0252 43.8467 20.5719 43.78 20.3186L43.68 19.9586C43.68 20.9052 43.62 22.2186 43.5 23.8986L43.08 29.1186H40ZM62.5316 29.2786C60.9449 29.2786 59.7182 28.8052 58.8516 27.8586C57.9849 26.8986 57.5516 25.6719 57.5516 24.1786C57.5516 22.6186 58.0049 21.3386 58.9116 20.3386C59.8182 19.3252 61.0249 18.8186 62.5316 18.8186C64.1049 18.8186 65.3249 19.3052 66.1916 20.2786C67.0582 21.2519 67.4916 22.4919 67.4916 23.9986C67.4916 25.5319 67.0516 26.7986 66.1716 27.7986C65.3049 28.7852 64.0916 29.2786 62.5316 29.2786ZM62.5116 21.1186C61.8716 21.1186 61.3916 21.3919 61.0716 21.9386C60.7516 22.4852 60.5916 23.1919 60.5916 24.0586C60.5916 24.9252 60.7516 25.6386 61.0716 26.1986C61.4049 26.7452 61.8982 27.0186 62.5516 27.0186C63.1916 27.0186 63.6649 26.7519 63.9716 26.2186C64.2916 25.6719 64.4516 24.9652 64.4516 24.0986C64.4516 22.1119 63.8049 21.1186 62.5116 21.1186ZM72.3192 18.9786V20.6986C72.5726 20.1386 72.9592 19.6986 73.4792 19.3786C74.0126 19.0452 74.6459 18.8786 75.3792 18.8786C76.4192 18.8786 77.2326 19.1919 77.8192 19.8186C78.4059 20.4319 78.6992 21.3386 78.6992 22.5386V29.1186H75.7792V23.0786C75.7792 22.4786 75.6392 22.0252 75.3592 21.7186C75.0792 21.3986 74.6859 21.2386 74.1792 21.2386C73.6459 21.2386 73.1992 21.4519 72.8392 21.8786C72.4926 22.2919 72.3192 22.9186 72.3192 23.7586V29.1186H69.3992V18.9786H72.3192ZM87.4008 19.2786V21.7786C86.6941 21.3652 85.8674 21.1586 84.9208 21.1586C84.5741 21.1586 84.3074 21.2319 84.1208 21.3786C83.9341 21.5119 83.8408 21.6852 83.8408 21.8986C83.8408 22.0186 83.8741 22.1319 83.9408 22.2386C84.0074 22.3452 84.1141 22.4452 84.2608 22.5386C84.4208 22.6319 84.5674 22.7186 84.7008 22.7986C84.8474 22.8652 85.0408 22.9519 85.2808 23.0586C85.5341 23.1652 85.7341 23.2586 85.8808 23.3386C86.4941 23.6586 86.9874 24.0319 87.3608 24.4586C87.7341 24.8719 87.9208 25.4052 87.9208 26.0586C87.9208 27.0586 87.5608 27.8319 86.8408 28.3786C86.1208 28.9252 85.1674 29.1986 83.9808 29.1986C82.7541 29.1986 81.7274 28.9919 80.9008 28.5786V25.9786C81.8208 26.6186 82.7941 26.9386 83.8208 26.9386C84.5541 26.9386 84.9208 26.7052 84.9208 26.2386C84.9208 26.1186 84.8874 26.0052 84.8208 25.8986C84.7541 25.7919 84.6408 25.6919 84.4808 25.5986C84.3208 25.5052 84.1741 25.4319 84.0408 25.3786C83.9074 25.3119 83.7141 25.2252 83.4608 25.1186C83.2074 25.0119 83.0141 24.9252 82.8808 24.8586C81.5341 24.2186 80.8608 23.2586 80.8608 21.9786C80.8608 20.9919 81.2341 20.2252 81.9808 19.6786C82.7408 19.1319 83.6808 18.8586 84.8008 18.8586C85.8408 18.8586 86.7074 18.9986 87.4008 19.2786ZM93.0917 21.1186V25.7786C93.0917 26.1386 93.1917 26.4119 93.3917 26.5986C93.6051 26.7852 93.8784 26.8786 94.2117 26.8786C94.7451 26.8786 95.2184 26.7452 95.6317 26.4786V28.8986C95.1384 29.1119 94.4717 29.2186 93.6317 29.2186C91.3251 29.2186 90.1717 28.0652 90.1717 25.7586V21.1186H88.7117V18.9786H90.1717V16.5786H93.0917V18.9786H95.4517V21.1186H93.0917ZM100.327 18.9786V20.8586C100.513 20.2719 100.82 19.8052 101.247 19.4586C101.687 19.0986 102.193 18.9186 102.767 18.9186C103.087 18.9186 103.34 18.9452 103.527 18.9986V21.7586C103.207 21.6119 102.84 21.5386 102.427 21.5386C101.8 21.5386 101.293 21.7719 100.907 22.2386C100.52 22.6919 100.327 23.2986 100.327 24.0586V29.1186H97.4066L97.4266 18.9786H100.327ZM109.309 29.2786C107.722 29.2786 106.496 28.8052 105.629 27.8586C104.762 26.8986 104.329 25.6719 104.329 24.1786C104.329 22.6186 104.782 21.3386 105.689 20.3386C106.596 19.3252 107.802 18.8186 109.309 18.8186C110.882 18.8186 112.102 19.3052 112.969 20.2786C113.836 21.2519 114.269 22.4919 114.269 23.9986C114.269 25.5319 113.829 26.7986 112.949 27.7986C112.082 28.7852 110.869 29.2786 109.309 29.2786ZM109.289 21.1186C108.649 21.1186 108.169 21.3919 107.849 21.9386C107.529 22.4852 107.369 23.1919 107.369 24.0586C107.369 24.9252 107.529 25.6386 107.849 26.1986C108.182 26.7452 108.676 27.0186 109.329 27.0186C109.969 27.0186 110.442 26.7519 110.749 26.2186C111.069 25.6719 111.229 24.9652 111.229 24.0986C111.229 22.1119 110.582 21.1186 109.289 21.1186ZM116.277 29.1186V18.9786H119.197V29.1186H116.277ZM116.537 17.2386C116.203 16.9052 116.037 16.5052 116.037 16.0386C116.037 15.5719 116.203 15.1719 116.537 14.8386C116.87 14.5052 117.27 14.3386 117.737 14.3386C118.203 14.3386 118.603 14.5052 118.937 14.8386C119.27 15.1719 119.437 15.5719 119.437 16.0386C119.437 16.5052 119.27 16.9052 118.937 17.2386C118.603 17.5719 118.203 17.7386 117.737 17.7386C117.27 17.7386 116.87 17.5719 116.537 17.2386ZM126.364 26.7986C127.031 26.7986 127.571 26.5386 127.984 26.0186C128.397 25.4986 128.604 24.8052 128.604 23.9386C128.604 23.0986 128.377 22.4452 127.924 21.9786C127.484 21.5119 126.957 21.2786 126.344 21.2786C125.731 21.2786 125.211 21.5252 124.784 22.0186C124.371 22.5119 124.164 23.1986 124.164 24.0786C124.164 24.8919 124.377 25.5519 124.804 26.0586C125.231 26.5519 125.751 26.7986 126.364 26.7986ZM128.604 14.9786H131.524V29.1186H128.604V27.5386C127.924 28.6719 126.911 29.2386 125.564 29.2386C124.244 29.2386 123.184 28.7252 122.384 27.6986C121.597 26.6719 121.204 25.4452 121.204 24.0186C121.204 22.4186 121.617 21.1586 122.444 20.2386C123.271 19.3186 124.317 18.8586 125.584 18.8586C126.904 18.8586 127.911 19.4186 128.604 20.5386V14.9786Z" fill="white"/>
<path d="M141.68 18.52H146.32V21H137.6V18.74C139.04 17.7533 140.307 16.66 141.4 15.46C142.507 14.26 143.06 13.2 143.06 12.28C143.06 11.72 142.893 11.28 142.56 10.96C142.227 10.6267 141.72 10.46 141.04 10.46C139.907 10.46 138.833 10.88 137.82 11.72V8.9C138.26 8.58 138.833 8.30667 139.54 8.08C140.247 7.85333 140.94 7.74 141.62 7.74C142.98 7.74 144.06 8.1 144.86 8.82C145.673 9.52667 146.08 10.52 146.08 11.8C146.08 14.1067 144.613 16.3467 141.68 18.52Z" fill="white"/>
</svg>
