<svg width="296" height="90" viewBox="0 0 296 90" fill="none" xmlns="http://www.w3.org/2000/svg">
<rect width="148" height="45" fill="black" fill-opacity="0" transform="scale(2)"/>
<path d="M4.51231 24.012L35.5857 27.2933C35.7928 27.2933 36.2072 27.2933 36.4143 27.2933L67.4877 24.012C70.1807 23.8069 72.6666 26.2679 71.838 29.1391L63.7589 61.9526C63.5517 62.978 62.9303 63.7983 61.8945 64.4136L38.0716 79.3847C36.6215 80.2051 34.9642 80.2051 33.7213 79.3847L10.1055 64.4136C9.2769 63.7983 8.65543 62.978 8.24112 61.9526L0.162041 29.1391C-0.666588 26.2679 1.81928 23.8069 4.51231 24.012ZM17.356 55.3899L36 66.4644L54.644 55.3899L59.6158 35.4967L36 39.1882L12.3842 35.4967L17.356 55.3899Z" fill="url(#paint0_linear)"/>
<path d="M80 66L82.32 39.04H89.08L92.84 48.8C93.48 50.4267 94.0267 51.92 94.48 53.28C94.9333 54.64 95.2267 55.6 95.36 56.16L95.56 56.96C95.9867 55.2 96.92 52.48 98.36 48.8L102.16 39.04H108.92L111.72 66H105.56L104.56 55.56L104.04 47.68C103.347 49.68 102.387 52.3067 101.16 55.56L97.36 65.72H93.72L89.96 55.56C89.3467 53.9067 88.8267 52.4267 88.4 51.12C87.9733 49.8133 87.6933 48.9067 87.56 48.4L87.36 47.68C87.36 49.5733 87.24 52.2 87 55.56L86.16 66H80ZM125.063 66.32C121.89 66.32 119.436 65.3733 117.703 63.48C115.97 61.56 115.103 59.1067 115.103 56.12C115.103 53 116.01 50.44 117.823 48.44C119.636 46.4133 122.05 45.4 125.063 45.4C128.21 45.4 130.65 46.3733 132.383 48.32C134.116 50.2667 134.983 52.7467 134.983 55.76C134.983 58.8267 134.103 61.36 132.343 63.36C130.61 65.3333 128.183 66.32 125.063 66.32ZM125.023 50C123.743 50 122.783 50.5467 122.143 51.64C121.503 52.7333 121.183 54.1467 121.183 55.88C121.183 57.6133 121.503 59.04 122.143 60.16C122.81 61.2533 123.796 61.8 125.103 61.8C126.383 61.8 127.33 61.2667 127.943 60.2C128.583 59.1067 128.903 57.6933 128.903 55.96C128.903 51.9867 127.61 50 125.023 50ZM144.638 45.72V49.16C145.145 48.04 145.918 47.16 146.958 46.52C148.025 45.8533 149.292 45.52 150.758 45.52C152.838 45.52 154.465 46.1467 155.638 47.4C156.812 48.6267 157.398 50.44 157.398 52.84V66H151.558V53.92C151.558 52.72 151.278 51.8133 150.718 51.2C150.158 50.56 149.372 50.24 148.358 50.24C147.292 50.24 146.398 50.6667 145.678 51.52C144.985 52.3467 144.638 53.6 144.638 55.28V66H138.798V45.72H144.638ZM174.802 46.32V51.32C173.388 50.4933 171.735 50.08 169.842 50.08C169.148 50.08 168.615 50.2267 168.242 50.52C167.868 50.7867 167.682 51.1333 167.682 51.56C167.682 51.8 167.748 52.0267 167.882 52.24C168.015 52.4533 168.228 52.6533 168.522 52.84C168.842 53.0267 169.135 53.2 169.402 53.36C169.695 53.4933 170.082 53.6667 170.562 53.88C171.068 54.0933 171.468 54.28 171.762 54.44C172.988 55.08 173.975 55.8267 174.722 56.68C175.468 57.5067 175.842 58.5733 175.842 59.88C175.842 61.88 175.122 63.4267 173.682 64.52C172.242 65.6133 170.335 66.16 167.962 66.16C165.508 66.16 163.455 65.7467 161.802 64.92V59.72C163.642 61 165.588 61.64 167.642 61.64C169.108 61.64 169.842 61.1733 169.842 60.24C169.842 60 169.775 59.7733 169.642 59.56C169.508 59.3467 169.282 59.1467 168.962 58.96C168.642 58.7733 168.348 58.6267 168.082 58.52C167.815 58.3867 167.428 58.2133 166.922 58C166.415 57.7867 166.028 57.6133 165.762 57.48C163.068 56.2 161.722 54.28 161.722 51.72C161.722 49.7467 162.468 48.2133 163.962 47.12C165.482 46.0267 167.362 45.48 169.602 45.48C171.682 45.48 173.415 45.76 174.802 46.32ZM186.183 50V59.32C186.183 60.04 186.383 60.5867 186.783 60.96C187.21 61.3333 187.757 61.52 188.423 61.52C189.49 61.52 190.437 61.2533 191.263 60.72V65.56C190.277 65.9867 188.943 66.2 187.263 66.2C182.65 66.2 180.343 63.8933 180.343 59.28V50H177.423V45.72H180.343V40.92H186.183V45.72H190.903V50H186.183ZM200.653 45.72V49.48C201.026 48.3067 201.64 47.3733 202.493 46.68C203.373 45.96 204.386 45.6 205.533 45.6C206.173 45.6 206.68 45.6533 207.053 45.76V51.28C206.413 50.9867 205.68 50.84 204.853 50.84C203.6 50.84 202.586 51.3067 201.813 52.24C201.04 53.1467 200.653 54.36 200.653 55.88V66H194.813L194.853 45.72H200.653ZM218.618 66.32C215.444 66.32 212.991 65.3733 211.258 63.48C209.524 61.56 208.658 59.1067 208.658 56.12C208.658 53 209.564 50.44 211.378 48.44C213.191 46.4133 215.604 45.4 218.618 45.4C221.764 45.4 224.204 46.3733 225.938 48.32C227.671 50.2667 228.538 52.7467 228.538 55.76C228.538 58.8267 227.658 61.36 225.898 63.36C224.164 65.3333 221.738 66.32 218.618 66.32ZM218.578 50C217.298 50 216.338 50.5467 215.698 51.64C215.058 52.7333 214.738 54.1467 214.738 55.88C214.738 57.6133 215.058 59.04 215.698 60.16C216.364 61.2533 217.351 61.8 218.658 61.8C219.938 61.8 220.884 61.2667 221.498 60.2C222.138 59.1067 222.458 57.6933 222.458 55.96C222.458 51.9867 221.164 50 218.578 50ZM232.553 66V45.72H238.393V66H232.553ZM233.073 42.24C232.406 41.5733 232.073 40.7733 232.073 39.84C232.073 38.9067 232.406 38.1067 233.073 37.44C233.74 36.7733 234.54 36.44 235.473 36.44C236.406 36.44 237.206 36.7733 237.873 37.44C238.54 38.1067 238.873 38.9067 238.873 39.84C238.873 40.7733 238.54 41.5733 237.873 42.24C237.206 42.9067 236.406 43.24 235.473 43.24C234.54 43.24 233.74 42.9067 233.073 42.24ZM252.728 61.36C254.061 61.36 255.141 60.84 255.968 59.8C256.794 58.76 257.208 57.3733 257.208 55.64C257.208 53.96 256.754 52.6533 255.848 51.72C254.968 50.7867 253.914 50.32 252.688 50.32C251.461 50.32 250.421 50.8133 249.568 51.8C248.741 52.7867 248.328 54.16 248.328 55.92C248.328 57.5467 248.754 58.8667 249.608 59.88C250.461 60.8667 251.501 61.36 252.728 61.36ZM257.208 37.72H263.048V66H257.208V62.84C255.848 65.1067 253.821 66.24 251.128 66.24C248.488 66.24 246.368 65.2133 244.768 63.16C243.194 61.1067 242.408 58.6533 242.408 55.8C242.408 52.6 243.234 50.08 244.888 48.24C246.541 46.4 248.634 45.48 251.168 45.48C253.808 45.48 255.821 46.6 257.208 48.84V37.72Z" fill="white"/>
<path d="M283.36 37.04H292.64V42H275.2V37.48C278.08 35.5067 280.613 33.32 282.8 30.92C285.013 28.52 286.12 26.4 286.12 24.56C286.12 23.44 285.787 22.56 285.12 21.92C284.453 21.2533 283.44 20.92 282.08 20.92C279.813 20.92 277.667 21.76 275.64 23.44V17.8C276.52 17.16 277.667 16.6133 279.08 16.16C280.493 15.7067 281.88 15.48 283.24 15.48C285.96 15.48 288.12 16.2 289.72 17.64C291.347 19.0533 292.16 21.04 292.16 23.6C292.16 28.2133 289.227 32.6933 283.36 37.04Z" fill="#1CEBBC"/>
<defs>
<linearGradient id="paint0_linear" x1="72" y1="80" x2="0" y2="80" gradientUnits="userSpaceOnUse">
<stop stop-color="#64ECF5"/>
<stop offset="1" stop-color="#1CEBBC"/>
</linearGradient>
</defs>
</svg>
