<svg width="296" height="62" viewBox="0 0 296 62" fill="none" xmlns="http://www.w3.org/2000/svg">
<rect width="148" height="30.4446" fill="black" fill-opacity="0" transform="scale(2)"/>
<path d="M4.51231 16.2452L35.5857 18.4652C35.7928 18.4652 36.2072 18.4652 36.4143 18.4652L67.4877 16.2452C70.1807 16.1065 72.6666 17.7715 71.838 19.7139L63.7589 41.9138C63.5517 42.6075 62.9303 43.1625 61.8945 43.5788L38.0716 53.7075C36.6215 54.2625 34.9642 54.2625 33.7213 53.7075L10.1055 43.5788C9.2769 43.1625 8.65543 42.6075 8.24112 41.9138L0.162041 19.7139C-0.666588 17.7715 1.81928 16.1065 4.51231 16.2452ZM17.356 37.4738L36 44.9663L54.644 37.4738L59.6158 24.0152L36 26.5126L12.3842 24.0152L17.356 37.4738Z" fill="white"/>
<path d="M80 58.2371L82.32 31.2771H89.08L92.84 41.0371C93.48 42.6638 94.0267 44.1571 94.48 45.5171C94.9333 46.8771 95.2267 47.8371 95.36 48.3971L95.56 49.1971C95.9867 47.4371 96.92 44.7171 98.36 41.0371L102.16 31.2771H108.92L111.72 58.2371H105.56L104.56 47.7971L104.04 39.9171C103.347 41.9171 102.387 44.5438 101.16 47.7971L97.36 57.9571H93.72L89.96 47.7971C89.3467 46.1438 88.8267 44.6638 88.4 43.3571C87.9733 42.0505 87.6933 41.1438 87.56 40.6371L87.36 39.9171C87.36 41.8105 87.24 44.4371 87 47.7971L86.16 58.2371H80ZM125.063 58.5571C121.89 58.5571 119.436 57.6105 117.703 55.7171C115.97 53.7971 115.103 51.3438 115.103 48.3571C115.103 45.2371 116.01 42.6771 117.823 40.6771C119.636 38.6505 122.05 37.6371 125.063 37.6371C128.21 37.6371 130.65 38.6105 132.383 40.5571C134.116 42.5038 134.983 44.9838 134.983 47.9971C134.983 51.0638 134.103 53.5971 132.343 55.5971C130.61 57.5705 128.183 58.5571 125.063 58.5571ZM125.023 42.2371C123.743 42.2371 122.783 42.7838 122.143 43.8771C121.503 44.9705 121.183 46.3838 121.183 48.1171C121.183 49.8505 121.503 51.2771 122.143 52.3971C122.81 53.4905 123.796 54.0371 125.103 54.0371C126.383 54.0371 127.33 53.5038 127.943 52.4371C128.583 51.3438 128.903 49.9305 128.903 48.1971C128.903 44.2238 127.61 42.2371 125.023 42.2371ZM144.638 37.9571V41.3971C145.145 40.2771 145.918 39.3971 146.958 38.7571C148.025 38.0905 149.292 37.7571 150.758 37.7571C152.838 37.7571 154.465 38.3838 155.638 39.6371C156.812 40.8638 157.398 42.6771 157.398 45.0771V58.2371H151.558V46.1571C151.558 44.9571 151.278 44.0505 150.718 43.4371C150.158 42.7971 149.372 42.4771 148.358 42.4771C147.292 42.4771 146.398 42.9038 145.678 43.7571C144.985 44.5838 144.638 45.8371 144.638 47.5171V58.2371H138.798V37.9571H144.638ZM174.802 38.5571V43.5571C173.388 42.7305 171.735 42.3171 169.842 42.3171C169.148 42.3171 168.615 42.4638 168.242 42.7571C167.868 43.0238 167.682 43.3705 167.682 43.7971C167.682 44.0371 167.748 44.2638 167.882 44.4771C168.015 44.6905 168.228 44.8905 168.522 45.0771C168.842 45.2638 169.135 45.4371 169.402 45.5971C169.695 45.7305 170.082 45.9038 170.562 46.1171C171.068 46.3305 171.468 46.5171 171.762 46.6771C172.988 47.3171 173.975 48.0638 174.722 48.9171C175.468 49.7438 175.842 50.8105 175.842 52.1171C175.842 54.1171 175.122 55.6638 173.682 56.7571C172.242 57.8505 170.335 58.3971 167.962 58.3971C165.508 58.3971 163.455 57.9838 161.802 57.1571V51.9571C163.642 53.2371 165.588 53.8771 167.642 53.8771C169.108 53.8771 169.842 53.4105 169.842 52.4771C169.842 52.2371 169.775 52.0105 169.642 51.7971C169.508 51.5838 169.282 51.3838 168.962 51.1971C168.642 51.0105 168.348 50.8638 168.082 50.7571C167.815 50.6238 167.428 50.4505 166.922 50.2371C166.415 50.0238 166.028 49.8505 165.762 49.7171C163.068 48.4371 161.722 46.5171 161.722 43.9571C161.722 41.9838 162.468 40.4505 163.962 39.3571C165.482 38.2638 167.362 37.7171 169.602 37.7171C171.682 37.7171 173.415 37.9971 174.802 38.5571ZM186.183 42.2371V51.5571C186.183 52.2771 186.383 52.8238 186.783 53.1971C187.21 53.5705 187.757 53.7571 188.423 53.7571C189.49 53.7571 190.437 53.4905 191.263 52.9571V57.7971C190.277 58.2238 188.943 58.4371 187.263 58.4371C182.65 58.4371 180.343 56.1305 180.343 51.5171V42.2371H177.423V37.9571H180.343V33.1571H186.183V37.9571H190.903V42.2371H186.183ZM200.653 37.9571V41.7171C201.026 40.5438 201.64 39.6105 202.493 38.9171C203.373 38.1971 204.386 37.8371 205.533 37.8371C206.173 37.8371 206.68 37.8905 207.053 37.9971V43.5171C206.413 43.2238 205.68 43.0771 204.853 43.0771C203.6 43.0771 202.586 43.5438 201.813 44.4771C201.04 45.3838 200.653 46.5971 200.653 48.1171V58.2371H194.813L194.853 37.9571H200.653ZM218.618 58.5571C215.444 58.5571 212.991 57.6105 211.258 55.7171C209.524 53.7971 208.658 51.3438 208.658 48.3571C208.658 45.2371 209.564 42.6771 211.378 40.6771C213.191 38.6505 215.604 37.6371 218.618 37.6371C221.764 37.6371 224.204 38.6105 225.938 40.5571C227.671 42.5038 228.538 44.9838 228.538 47.9971C228.538 51.0638 227.658 53.5971 225.898 55.5971C224.164 57.5705 221.738 58.5571 218.618 58.5571ZM218.578 42.2371C217.298 42.2371 216.338 42.7838 215.698 43.8771C215.058 44.9705 214.738 46.3838 214.738 48.1171C214.738 49.8505 215.058 51.2771 215.698 52.3971C216.364 53.4905 217.351 54.0371 218.658 54.0371C219.938 54.0371 220.884 53.5038 221.498 52.4371C222.138 51.3438 222.458 49.9305 222.458 48.1971C222.458 44.2238 221.164 42.2371 218.578 42.2371ZM232.553 58.2371V37.9571H238.393V58.2371H232.553ZM233.073 34.4771C232.406 33.8105 232.073 33.0105 232.073 32.0771C232.073 31.1438 232.406 30.3438 233.073 29.6771C233.74 29.0105 234.54 28.6771 235.473 28.6771C236.406 28.6771 237.206 29.0105 237.873 29.6771C238.54 30.3438 238.873 31.1438 238.873 32.0771C238.873 33.0105 238.54 33.8105 237.873 34.4771C237.206 35.1438 236.406 35.4771 235.473 35.4771C234.54 35.4771 233.74 35.1438 233.073 34.4771ZM252.728 53.5971C254.061 53.5971 255.141 53.0771 255.968 52.0371C256.794 50.9971 257.208 49.6105 257.208 47.8771C257.208 46.1971 256.754 44.8905 255.848 43.9571C254.968 43.0238 253.914 42.5571 252.688 42.5571C251.461 42.5571 250.421 43.0505 249.568 44.0371C248.741 45.0238 248.328 46.3971 248.328 48.1571C248.328 49.7838 248.754 51.1038 249.608 52.1171C250.461 53.1038 251.501 53.5971 252.728 53.5971ZM257.208 29.9571H263.048V58.2371H257.208V55.0771C255.848 57.3438 253.821 58.4771 251.128 58.4771C248.488 58.4771 246.368 57.4505 244.768 55.3971C243.194 53.3438 242.408 50.8905 242.408 48.0371C242.408 44.8371 243.234 42.3171 244.888 40.4771C246.541 38.6371 248.634 37.7171 251.168 37.7171C253.808 37.7171 255.821 38.8371 257.208 41.0771V29.9571Z" fill="white"/>
<path d="M283.36 37.04H292.64V42H275.2V37.48C278.08 35.5067 280.613 33.32 282.8 30.92C285.013 28.52 286.12 26.4 286.12 24.56C286.12 23.44 285.787 22.56 285.12 21.92C284.453 21.2533 283.44 20.92 282.08 20.92C279.813 20.92 277.667 21.76 275.64 23.44V17.8C276.52 17.16 277.667 16.6133 279.08 16.16C280.493 15.7067 281.88 15.48 283.24 15.48C285.96 15.48 288.12 16.2 289.72 17.64C291.347 19.0533 292.16 21.04 292.16 23.6C292.16 28.2133 289.227 32.6933 283.36 37.04Z" fill="white"/>
</svg>
