<svg width="72" height="56" viewBox="0 0 72 56" fill="none" xmlns="http://www.w3.org/2000/svg">
<path d="M4.51231 0.0119634L35.5857 3.29331C35.7928 3.29331 36.2072 3.29331 36.4143 3.29331L67.4877 0.0119634C70.1807 -0.193121 72.6666 2.26789 71.838 5.13907L63.7589 37.9526C63.5517 38.978 62.9303 39.7983 61.8945 40.4136L38.0716 55.3847C36.6215 56.2051 34.9642 56.2051 33.7213 55.3847L10.1055 40.4136C9.2769 39.7983 8.65543 38.978 8.24112 37.9526L0.162041 5.13907C-0.666588 2.26789 1.81928 -0.193121 4.51231 0.0119634ZM17.356 31.3899L36 42.4644L54.644 31.3899L59.6158 11.4967L36 15.1882L12.3842 11.4967L17.356 31.3899Z" fill="#5F45EA"/>
</svg>
