<svg width="36" height="28" viewBox="0 0 36 28" fill="none" xmlns="http://www.w3.org/2000/svg">
<path d="M2.25615 0.0059817L17.7928 1.64666C17.8964 1.64666 18.1036 1.64666 18.2072 1.64666L33.7438 0.0059817C35.0904 -0.0965605 36.3333 1.13395 35.919 2.56954L31.8794 18.9763C31.7759 19.489 31.4651 19.8992 30.9472 20.2068L19.0358 27.6924C18.3107 28.1025 17.4821 28.1025 16.8606 27.6924L5.05276 20.2068C4.63845 19.8992 4.32771 19.489 4.12056 18.9763L0.0810204 2.56954C-0.333294 1.13395 0.909641 -0.0965605 2.25615 0.0059817ZM8.67799 15.6949L18 21.2322L27.322 15.6949L29.8079 5.74834L18 7.5941L6.19212 5.74834L8.67799 15.6949Z" fill="#5F45EA"/>
</svg>
