<svg width="35" height="20" viewBox="0 0 35 20" fill="none" xmlns="http://www.w3.org/2000/svg">
<rect width="33.8965" height="20.0001" fill="black" fill-opacity="0" transform="translate(0.519531)"/>
<path d="M20.7667 10.0533C20.7667 15.5293 16.2703 20.0001 10.6431 20.0001C5.06976 20.0001 0.519531 15.5293 0.519531 10.0533C0.519531 4.57723 5.01591 0.106445 10.5893 0.106445C16.2703 0.106445 20.7667 4.57723 20.7667 10.0533Z" fill="#EA192A"/>
<path d="M34.4154 9.99973C34.4154 15.5022 29.8921 19.9995 24.238 19.9995C18.6377 19.9995 14.0605 15.5022 14.0605 9.99973C14.0605 4.49723 18.5838 2.0183e-07 24.1841 2.0183e-07C29.8921 2.0183e-07 34.4154 4.49723 34.4154 9.99973Z" fill="#F9B532"/>
<path d="M20.7949 10.0533C20.7949 9.31255 20.6872 8.62474 20.5795 7.93692H14.3331C14.3869 7.56656 14.4946 7.24911 14.6023 6.87875H20.2026C20.0949 6.50839 19.9334 6.13803 19.7718 5.82058H15.0331C15.1947 5.45022 15.4101 5.13277 15.6254 4.76241H19.2333C19.0179 4.39204 18.7487 4.02168 18.4256 3.70423H16.4332C16.7563 3.33387 17.0794 3.01642 17.4563 2.69897C15.7264 1.1051 13.384 0.159354 10.8262 0.106445V19.9935C13.4042 19.9538 15.713 18.9618 17.5102 17.401C17.8871 17.0835 18.2102 16.7131 18.5333 16.3428H16.4332C16.1639 16.0253 15.8947 15.655 15.6793 15.3375H19.2872C19.5026 15.0201 19.718 14.6497 19.8795 14.2793H15.087C14.9254 13.9619 14.7639 13.5915 14.6562 13.2212H20.2564C20.5795 12.2225 20.7949 11.1644 20.7949 10.0533Z" fill="#EA192A"/>
<rect width="31.9866" height="5.29145" fill="black" fill-opacity="0" transform="translate(1.46094 7.40723)"/>
<path d="M14.2765 12.5397L14.438 11.6403C14.3842 11.6403 14.2765 11.6932 14.1688 11.6932C13.7918 11.6932 13.738 11.4816 13.7918 11.3758L14.1149 9.52396H14.7072L14.8688 8.51869H14.3303L14.438 7.88379H13.361C13.361 7.88379 12.7148 11.3758 12.7148 11.799C12.7148 12.4339 13.0918 12.6985 13.5764 12.6985C13.8995 12.6985 14.1688 12.5927 14.2765 12.5397Z" fill="white"/>
<path d="M14.6543 10.8461C14.6543 12.3275 15.6774 12.6979 16.539 12.6979C17.3467 12.6979 17.6698 12.5392 17.6698 12.5392L17.8852 11.5339C17.8852 11.5339 17.2929 11.7984 16.7544 11.7984C15.5697 11.7984 15.7851 10.9519 15.7851 10.9519H17.9929C17.9929 10.9519 18.1545 10.2641 18.1545 9.99954C18.1545 9.31173 17.7775 8.46519 16.5929 8.46519C15.462 8.35938 14.6543 9.52336 14.6543 10.8461ZM16.539 9.31173C17.1313 9.31173 17.0236 9.99954 17.0236 10.0525H15.839C15.839 9.99954 15.9467 9.31173 16.539 9.31173Z" fill="white"/>
<path d="M23.3777 12.5394L23.5931 11.3754C23.5931 11.3754 23.0546 11.6399 22.6777 11.6399C21.9238 11.6399 21.6007 11.0579 21.6007 10.423C21.6007 9.15321 22.2469 8.4654 23.0008 8.4654C23.5392 8.4654 23.97 8.78285 23.97 8.78285L24.1316 7.67177C24.1316 7.67177 23.4854 7.40723 22.8931 7.40723C21.6545 7.40723 20.416 8.4654 20.416 10.4759C20.416 11.7986 21.0622 12.6981 22.3546 12.6981C22.7854 12.6981 23.3777 12.5394 23.3777 12.5394Z" fill="white"/>
<path d="M8.35485 8.35986C7.60097 8.35986 7.06248 8.5715 7.06248 8.5715L6.90093 9.47094C6.90093 9.47094 7.38557 9.25931 8.08561 9.25931C8.46255 9.25931 8.78564 9.31222 8.78564 9.62967C8.78564 9.8413 8.73179 9.89421 8.73179 9.89421C8.73179 9.89421 8.4087 9.89421 8.24715 9.89421C7.33172 9.89421 6.30859 10.2646 6.30859 11.4815C6.30859 12.4338 6.95478 12.6455 7.33172 12.6455C8.0856 12.6455 8.4087 12.1693 8.46255 12.1693L8.4087 12.5926H9.37798L9.80877 9.68258C9.80877 8.41277 8.73179 8.35986 8.35485 8.35986ZM8.57024 10.7408C8.57024 10.8995 8.46255 11.746 7.81636 11.746C7.49327 11.746 7.38557 11.4815 7.38557 11.3227C7.38557 11.0582 7.54712 10.6878 8.35485 10.6878C8.5164 10.7408 8.57024 10.7408 8.57024 10.7408Z" fill="white"/>
<path d="M10.8303 12.6451C11.0996 12.6451 12.4458 12.6981 12.4458 11.2695C12.4458 9.94681 11.1534 10.2114 11.1534 9.68226C11.1534 9.41772 11.3688 9.31191 11.7457 9.31191C11.9073 9.31191 12.4996 9.36481 12.4996 9.36481L12.6612 8.41246C12.6612 8.41246 12.2842 8.30664 11.6381 8.30664C10.8303 8.30664 10.0226 8.62409 10.0226 9.68226C10.0226 10.8992 11.3688 10.7933 11.3688 11.2695C11.3688 11.587 10.9919 11.6399 10.7226 11.6399C10.238 11.6399 9.75334 11.4812 9.75334 11.4812L9.5918 12.4335C9.64565 12.5393 9.91489 12.6451 10.8303 12.6451Z" fill="white"/>
<path d="M32.3174 7.51367L32.102 8.9422C32.102 8.9422 31.6712 8.41312 31.0789 8.41312C30.1096 8.41312 29.248 9.57711 29.248 10.9527C29.248 11.7993 29.6788 12.6987 30.5943 12.6987C31.2405 12.6987 31.6174 12.2754 31.6174 12.2754L31.5635 12.6458H32.6405L33.4483 7.56658L32.3174 7.51367ZM31.8328 10.3178C31.8328 10.8998 31.5635 11.6405 30.9712 11.6405C30.5943 11.6405 30.3789 11.3231 30.3789 10.794C30.3789 9.94747 30.7558 9.41838 31.2405 9.41838C31.6174 9.41838 31.8328 9.68292 31.8328 10.3178Z" fill="white"/>
<path d="M2.48407 12.5929L3.13025 8.78348L3.23795 12.5929H3.99183L5.3919 8.78348L4.79956 12.5929H5.93039L6.79197 7.51367H5.01496L3.93798 10.6353L3.88413 7.51367H2.32252L1.46094 12.5929H2.48407Z" fill="white"/>
<path d="M19.1769 12.5922C19.5 10.8462 19.5538 9.41769 20.3077 9.68223C20.4154 8.99442 20.5769 8.72988 20.6846 8.46533C20.6846 8.46533 20.6308 8.46533 20.4692 8.46533C19.9846 8.46533 19.6077 9.10024 19.6077 9.10024L19.7154 8.51824H18.6922L17.9922 12.6451H19.1769V12.5922Z" fill="white"/>
<path d="M25.8548 8.35986C25.101 8.35986 24.5625 8.5715 24.5625 8.5715L24.4009 9.47094C24.4009 9.47094 24.8856 9.25931 25.5856 9.25931C25.9625 9.25931 26.2856 9.31222 26.2856 9.62967C26.2856 9.8413 26.2318 9.89421 26.2318 9.89421C26.2318 9.89421 25.9087 9.89421 25.7472 9.89421C24.8317 9.89421 23.8086 10.2646 23.8086 11.4815C23.8086 12.4338 24.4548 12.6455 24.8317 12.6455C25.5856 12.6455 25.9087 12.1693 25.9625 12.1693L25.9087 12.5926H26.878L27.3088 9.68258C27.3626 8.41277 26.2318 8.35986 25.8548 8.35986ZM26.1241 10.7408C26.1241 10.8995 26.0164 11.746 25.3702 11.746C25.0471 11.746 24.9394 11.4815 24.9394 11.3227C24.9394 11.0582 25.101 10.6878 25.9087 10.6878C26.0702 10.7408 26.0702 10.7408 26.1241 10.7408Z" fill="white"/>
<path d="M28.2257 12.5922C28.5488 10.8462 28.6026 9.41769 29.3565 9.68223C29.4642 8.99442 29.6258 8.72988 29.7335 8.46533C29.7335 8.46533 29.6796 8.46533 29.5181 8.46533C29.0334 8.46533 28.6565 9.10024 28.6565 9.10024L28.7642 8.51824H27.741L27.041 12.6451H28.2257V12.5922Z" fill="white"/>
</svg>
