<svg width="57" height="20" viewBox="0 0 57 20" fill="none" xmlns="http://www.w3.org/2000/svg">
<rect width="56.5527" height="19.9995" fill="black" fill-opacity="0" transform="translate(0.320312)"/>
<path d="M19.889 1.36711C19.7543 1.32301 15.0303 6.72917e-07 10.1379 6.72917e-07C5.24559 6.72917e-07 0.420565 1.36711 0.420565 1.36711C-0.836184 16.3391 10.1379 19.9995 10.1379 19.9995C10.1379 19.9995 21.1569 16.3171 19.889 1.36711ZM10.1379 19.0513C10.1379 19.0513 0.207366 15.7328 1.34069 2.18296C1.34069 2.18296 5.71687 0.948155 10.1379 0.948155C14.559 0.948155 18.8342 2.13886 18.9688 2.18296C20.1246 15.7217 10.1379 19.0513 10.1379 19.0513Z" fill="#C2CAD1"/>
<path d="M10.1495 17.3647C10.1495 17.3647 1.8235 14.3659 2.77728 2.99902C2.77728 2.99902 6.44654 3.28567 10.1495 3.28567C13.8636 3.28567 17.4431 3.01005 17.5553 2.99902C18.5091 14.3548 10.1495 17.3647 10.1495 17.3647Z" fill="#D31242"/>
<rect width="5.58805" height="7.60729" fill="black" fill-opacity="0" transform="translate(5.68555 4.85107)"/>
<rect width="5.58805" height="7.60729" fill="black" fill-opacity="0" transform="translate(5.68555 4.85107)"/>
<path d="M5.68555 12.4584L6.87497 4.85107H8.84986L11.2736 12.4584H9.19771L8.15416 8.51139L7.54823 12.4584H5.68555Z" fill="white"/>
<rect width="4.25275" height="7.60729" fill="black" fill-opacity="0" transform="translate(10.4316 4.85107)"/>
<rect width="4.25275" height="7.60729" fill="black" fill-opacity="0" transform="translate(10.4316 4.85107)"/>
<path d="M11.5874 4.85107H13.5286L14.6844 12.4584H12.8105L12.1372 8.51139L11.464 11.5984L10.4316 8.51139L11.5874 4.85107Z" fill="white"/>
<rect width="34.9853" height="6.96726" fill="black" fill-opacity="0" transform="translate(21.8887 1.69775)"/>
<path d="M27.1064 8.52227H25.5692L24.0992 4.85092H24.088L23.5494 8.52227H21.8887L22.9771 1.69775H24.6154L27.1064 8.52227ZM26.0404 5.02732L27.2972 1.69775H28.9579L29.9229 8.52227H28.251L27.7797 4.85092H27.7685L26.8035 7.04491L26.0404 5.02732Z" fill="#141414"/>
<path d="M36.2507 7.33156L35.8355 8.52227H34.1523L36.4975 1.69775H38.2256L40.5146 8.52227H38.8315L38.4388 7.33156H36.2507ZM37.3503 3.80354H37.3391L36.6883 5.97548H38.0011L37.3503 3.80354Z" fill="#141414"/>
<path d="M48.9393 6.47111H45.6852C45.6852 7.14364 46.0218 7.50747 46.6502 7.50747C46.9756 7.50747 47.2225 7.38619 47.3908 7.07749H48.872C48.7485 7.61772 48.4456 8.01462 48.0528 8.27922C47.6489 8.54382 47.1664 8.6651 46.6614 8.6651C45.2139 8.6651 44.1367 7.79412 44.1367 6.19548C44.1367 4.65197 45.1354 3.71484 46.5492 3.71484C48.0641 3.71484 48.9393 4.7071 48.9393 6.29471V6.47111ZM47.5142 5.52295C47.4357 5.08195 47.0542 4.78427 46.639 4.78427C46.1902 4.78427 45.8199 5.03785 45.7189 5.52295H47.5142Z" fill="#141414"/>
<path d="M54.2811 6.47111H51.027C51.027 7.14364 51.3636 7.50747 51.992 7.50747C52.3286 7.50747 52.5643 7.38619 52.7326 7.07749H54.2138C54.0903 7.61772 53.7874 8.01462 53.3946 8.27922C52.9907 8.54382 52.5082 8.6651 52.0032 8.6651C50.5557 8.6651 49.4785 7.79412 49.4785 6.19548C49.4785 4.65197 50.4772 3.71484 51.891 3.71484C53.4059 3.71484 54.2811 4.7071 54.2811 6.29471V6.47111ZM52.8448 5.52295C52.7663 5.08195 52.3847 4.78427 51.9696 4.78427C51.5207 4.78427 51.1504 5.03785 51.0495 5.52295H52.8448Z" fill="#141414"/>
<path d="M54.4941 2.96504C54.4941 2.31456 55.0215 1.79639 55.6836 1.79639C56.3456 1.79639 56.873 2.31456 56.873 2.96504C56.873 3.61552 56.3456 4.1337 55.6836 4.1337C55.0103 4.12268 54.4941 3.61552 54.4941 2.96504ZM54.6849 2.96504C54.6849 3.5163 55.1337 3.93525 55.6836 3.93525C56.2222 3.93525 56.6822 3.50527 56.6822 2.96504C56.6822 2.41379 56.2334 1.99484 55.6836 1.99484C55.1337 1.99484 54.6849 2.41379 54.6849 2.96504ZM56.2222 3.62655H55.9978L55.6611 3.02017H55.4143V3.62655H55.2235V2.31457H55.7846C56.0202 2.31457 56.2446 2.38071 56.2446 2.65634C56.2446 2.90992 56.0651 3.00914 55.8855 3.00914L56.2222 3.62655ZM55.4143 2.51302V2.84377H55.6162C55.7958 2.84377 56.0426 2.87684 56.0426 2.70044C56.0426 2.53507 55.8968 2.52404 55.7397 2.52404H55.4143V2.51302Z" fill="#53626F"/>
<rect width="3.55705" height="7.02297" fill="black" fill-opacity="0" transform="translate(40.2109 1.48877)"/>
<path d="M41.1086 4.99474H40.2109V3.88121H41.1423V3.34098C41.1423 1.96285 41.7594 1.48877 42.9825 1.48877C43.3079 1.48877 43.566 1.54389 43.768 1.57697L43.6782 2.67948C43.5548 2.63538 43.4201 2.61333 43.1957 2.61333C42.803 2.61333 42.6571 2.89998 42.6571 3.35201V3.89223H43.7455V5.00577H42.6571V8.51173H41.1311V4.99474H41.1086Z" fill="#141414"/>
<rect width="32.1475" height="6.64811" fill="black" fill-opacity="0" transform="translate(21.9219 10.6943)"/>
<path d="M25.3779 11.7735C24.8842 11.5861 24.6149 11.5089 24.11 11.5089C23.5714 11.5089 22.9318 11.6964 22.9318 12.3689C22.9318 13.6037 25.8268 13.317 25.8268 15.4339C25.8268 16.801 24.7159 17.3412 23.3694 17.3412C22.8981 17.3412 22.438 17.2089 21.9892 17.0766L22.0902 16.2166C22.4156 16.3489 22.9991 16.5253 23.4928 16.5253C24.0426 16.5253 24.8169 16.2277 24.8169 15.478C24.8169 14.0447 21.9219 14.4416 21.9219 12.4461C21.9219 11.3105 22.8644 10.7041 24.0875 10.7041C24.5364 10.7041 25.0637 10.7813 25.5238 10.9356L25.3779 11.7735Z" fill="#53626F"/>
<path d="M27.1836 10.8052H30.9538V11.61H28.1486V13.4843H30.707V14.2891H28.1486V16.4059H30.9538V17.2107H27.1836V10.8052Z" fill="#53626F"/>
<path d="M36.7677 11.863C36.3413 11.6204 35.8701 11.4992 35.3763 11.4992C33.8278 11.4992 32.7843 12.5686 32.7843 14.0129C32.7843 15.5233 33.9288 16.5266 35.3202 16.5266C35.8027 16.5266 36.4535 16.4053 36.7902 16.2179L36.8463 17.1109C36.3301 17.3094 35.7017 17.3424 35.309 17.3424C33.177 17.3424 31.752 16.0415 31.752 13.9908C31.752 12.0173 33.2556 10.6943 35.309 10.6943C35.8252 10.6943 36.3413 10.7715 36.8238 10.97L36.7677 11.863Z" fill="#53626F"/>
<path d="M42.8716 14.5647C42.8716 16.3618 41.9178 17.332 40.2571 17.332C38.5964 17.332 37.6426 16.3618 37.6426 14.5647V10.8052H38.6076V14.4434C38.6076 15.6783 39.0115 16.5272 40.2571 16.5272C41.5026 16.5272 41.9066 15.6783 41.9066 14.4434V10.8052H42.8716V14.5647Z" fill="#53626F"/>
<path d="M44.4082 10.8052H46.0577C47.393 10.8052 48.6722 11.0036 48.6722 12.5471C48.6722 13.3299 48.0662 13.8812 47.2808 14.0135V14.0355C47.5837 14.1458 47.7296 14.2781 47.9316 14.675L49.2108 17.2328H48.1111L47.0788 15.0057C46.7758 14.3773 46.4616 14.3773 45.9455 14.3773H45.362V17.2328H44.4082V10.8052ZM45.3732 13.5614H46.1923C47.1125 13.5614 47.6511 13.1756 47.6511 12.5582C47.6511 11.9738 47.191 11.61 46.3045 11.61H45.3732V13.5614Z" fill="#53626F"/>
<path d="M50.2988 10.8052H54.0691V11.61H51.2638V13.4843H53.8222V14.2891H51.2638V16.4059H54.0691V17.2107H50.2988V10.8052Z" fill="#53626F"/>
<path d="M33.7611 5.33581C33.4805 5.15941 33.2 5.08223 32.8297 5.08223C32.1677 5.08223 31.6627 5.55631 31.6627 6.36114C31.6627 7.09982 32.2574 7.57389 32.9195 7.57389C33.2673 7.57389 33.6152 7.49672 33.8733 7.35339L33.9069 8.5441C33.5254 8.6764 33.0654 8.75358 32.6614 8.75358C31.2027 8.75358 30.0918 7.86055 30.0918 6.33909C30.0918 4.80661 31.2027 3.91357 32.6614 3.91357C33.1215 3.91357 33.5254 3.99075 33.8733 4.16715L33.7611 5.33581Z" fill="#141414"/>
</svg>
