<svg width="299" height="299" viewBox="0 0 299 299" fill="none" xmlns="http://www.w3.org/2000/svg">
<g filter="url(#filter0_d)">
<path d="M226.886 66.7688C220.434 73.2081 209.987 73.2101 203.533 66.7733L192.669 55.9382C186.209 49.4963 186.189 39.0395 192.623 32.5725L208.84 16.2728C213.738 11.3504 212.169 3.114 205.392 1.60041C200.792 0.533471 196.015 0 191.061 0C181.685 0 172.838 1.77824 164.523 5.33471C156.385 8.89118 149.219 13.7813 143.027 20.0051C136.835 26.229 131.969 33.5197 128.431 41.8774C124.892 50.0573 123.123 58.8596 123.123 68.2842C123.123 72.1964 123.388 76.0196 123.919 79.7539C125.172 86.3656 123.122 93.4007 117.685 97.3662L20.419 168.31C14.5806 172.578 9.89209 177.912 6.35363 184.314C2.81516 190.538 0.780544 197.206 0.249774 204.319C-0.457919 211.61 0.338235 218.634 2.63824 225.391C5.11516 232.149 8.83055 238.195 13.7844 243.529C18.3844 248.508 23.7806 252.332 29.9729 254.999C36.3421 257.666 42.8883 259 49.6114 259C50.1421 259 50.6729 259 51.2037 259C51.7344 259 52.2652 259 52.796 259C60.0498 258.467 66.8614 256.422 73.2306 252.865C79.7768 249.486 85.2614 244.863 89.6845 238.995L161.791 141.632C165.781 136.243 172.798 134.241 179.385 135.502C183.277 136.213 187.169 136.568 191.061 136.568C200.438 136.568 209.196 134.79 217.335 131.234C225.65 127.677 232.904 122.787 239.096 116.563C245.288 110.34 250.154 103.138 253.692 94.9578C257.231 86.6001 259 77.7089 259 68.2842C259 63.3052 258.469 58.5039 257.408 53.8805C255.914 47.3729 247.969 45.726 243.243 50.4427L226.886 66.7688ZM55.1844 221.924C50.4075 221.924 46.3383 220.323 42.9767 217.123C39.7921 213.744 38.1998 209.654 38.1998 204.853C38.1998 200.051 39.7921 196.05 42.9767 192.85C46.3383 189.471 50.4075 187.782 55.1844 187.782C59.9614 187.782 63.9421 189.471 67.1268 192.85C70.4883 196.05 72.1691 200.051 72.1691 204.853C72.1691 209.654 70.4883 213.744 67.1268 217.123C63.9421 220.323 59.9614 221.924 55.1844 221.924Z" transform="translate(20 10)" fill="url(#paint0_linear)"/>
<path d="M226.886 66.7688C220.434 73.2081 209.987 73.2101 203.533 66.7733L192.669 55.9382C186.209 49.4963 186.189 39.0395 192.623 32.5725L208.84 16.2728C213.738 11.3504 212.169 3.114 205.392 1.60041C200.792 0.533471 196.015 0 191.061 0C181.685 0 172.838 1.77824 164.523 5.33471C156.385 8.89118 149.219 13.7813 143.027 20.0051C136.835 26.229 131.969 33.5197 128.431 41.8774C124.892 50.0573 123.123 58.8596 123.123 68.2842C123.123 72.1964 123.388 76.0196 123.919 79.7539C125.172 86.3656 123.122 93.4007 117.685 97.3662L20.419 168.31C14.5806 172.578 9.89209 177.912 6.35363 184.314C2.81516 190.538 0.780544 197.206 0.249774 204.319C-0.457919 211.61 0.338235 218.634 2.63824 225.391C5.11516 232.149 8.83055 238.195 13.7844 243.529C18.3844 248.508 23.7806 252.332 29.9729 254.999C36.3421 257.666 42.8883 259 49.6114 259C50.1421 259 50.6729 259 51.2037 259C51.7344 259 52.2652 259 52.796 259C60.0498 258.467 66.8614 256.422 73.2306 252.865C79.7768 249.486 85.2614 244.863 89.6845 238.995L161.791 141.632C165.781 136.243 172.798 134.241 179.385 135.502C183.277 136.213 187.169 136.568 191.061 136.568C200.438 136.568 209.196 134.79 217.335 131.234C225.65 127.677 232.904 122.787 239.096 116.563C245.288 110.34 250.154 103.138 253.692 94.9578C257.231 86.6001 259 77.7089 259 68.2842C259 63.3052 258.469 58.5039 257.408 53.8805C255.914 47.3729 247.969 45.726 243.243 50.4427L226.886 66.7688ZM55.1844 221.924C50.4075 221.924 46.3383 220.323 42.9767 217.123C39.7921 213.744 38.1998 209.654 38.1998 204.853C38.1998 200.051 39.7921 196.05 42.9767 192.85C46.3383 189.471 50.4075 187.782 55.1844 187.782C59.9614 187.782 63.9421 189.471 67.1268 192.85C70.4883 196.05 72.1691 200.051 72.1691 204.853C72.1691 209.654 70.4883 213.744 67.1268 217.123C63.9421 220.323 59.9614 221.924 55.1844 221.924Z" transform="translate(20 10)" fill="url(#paint1_linear)" fill-opacity="0.9"/>
</g>
<defs>
<filter id="filter0_d" x="0" y="0" width="299" height="299" filterUnits="userSpaceOnUse" color-interpolation-filters="sRGB">
<feFlood flood-opacity="0" result="BackgroundImageFix"/>
<feColorMatrix in="SourceAlpha" type="matrix" values="0 0 0 0 0 0 0 0 0 0 0 0 0 0 0 0 0 0 255 0"/>
<feOffset dy="10"/>
<feGaussianBlur stdDeviation="10"/>
<feColorMatrix type="matrix" values="0 0 0 0 0.447059 0 0 0 0 0.337255 0 0 0 0 0.945098 0 0 0 0.5 0"/>
<feBlend mode="normal" in2="BackgroundImageFix" result="effect1_dropShadow"/>
<feBlend mode="normal" in="SourceGraphic" in2="effect1_dropShadow" result="shape"/>
</filter>
<linearGradient id="paint0_linear" x2="1" gradientUnits="userSpaceOnUse" gradientTransform="translate(0 129.5) scale(259)">
<stop stop-color="#5F45EA"/>
<stop offset="1" stop-color="#8667F7"/>
</linearGradient>
<linearGradient id="paint1_linear" x2="1" gradientUnits="userSpaceOnUse" gradientTransform="translate(344.75 26.5) scale(242.438) rotate(107.276)">
<stop stop-color="#FF8B8D"/>
<stop offset="1" stop-color="#FF8B8D" stop-opacity="0"/>
</linearGradient>
</defs>
</svg>
