<svg width="56" height="15" viewBox="0 0 56 15" fill="none" xmlns="http://www.w3.org/2000/svg">
<rect width="55.7541" height="14.7832" fill="black" fill-opacity="0" transform="translate(0 0.216797)"/>
<path d="M37.6733 0.217285H33.3748C33.1219 0.217285 32.8691 0.465725 32.7426 0.714165L30.9727 11.6456C30.9727 11.894 31.0991 12.0182 31.3519 12.0182H33.6276C33.8805 12.0182 34.0069 11.894 34.0069 11.6456L34.5126 8.54004C34.5126 8.2916 34.7655 8.04316 35.1448 8.04316H36.5355C39.4433 8.04316 41.0869 6.67674 41.4662 3.94389C41.719 2.82591 41.4662 1.83215 40.9604 1.21105C40.2019 0.589947 39.064 0.217285 37.6733 0.217285ZM38.179 4.31656C37.9262 5.8072 36.7883 5.8072 35.6505 5.8072H34.8919L35.3976 2.95013C35.3976 2.82591 35.5241 2.70169 35.7769 2.70169H36.0298C36.7883 2.70169 37.5469 2.70169 37.9262 3.19857C38.179 3.32279 38.179 3.69545 38.179 4.31656Z" fill="#469BDB"/>
<rect width="20.2287" height="11.9259" fill="black" fill-opacity="0" transform="translate(0 0.216797)"/>
<path d="M6.70067 0.216796H2.40212C2.14927 0.216796 1.89641 0.465237 1.76999 0.713677L-4.82283e-07 11.6451C-4.82283e-07 11.8935 0.126429 12.0177 0.379284 12.0177H2.40212C2.65498 12.0177 2.90784 11.7693 3.03426 11.5208L3.53998 8.53955C3.53998 8.29111 3.79283 8.04268 4.17211 8.04268H5.56282C8.47065 8.04268 10.1142 6.67625 10.4935 3.94341C10.7464 2.82542 10.4935 1.83166 9.98779 1.21056C9.22922 0.589459 8.2178 0.216796 6.70067 0.216796ZM7.20638 4.31607C6.95352 5.80671 5.81567 5.80671 4.67782 5.80671H4.04569L4.5514 2.94964C4.5514 2.82542 4.67782 2.7012 4.93068 2.7012H5.18353C5.9421 2.7012 6.70067 2.7012 7.07995 3.19808C7.20638 3.3223 7.33281 3.69497 7.20638 4.31607Z" fill="#283B82"/>
<path d="M19.7223 4.19278H17.6995C17.5731 4.19278 17.3202 4.317 17.3202 4.44122L17.1938 5.06232L17.0674 4.81388C16.5616 4.19278 15.6767 3.94434 14.6652 3.94434C12.3895 3.94434 10.3667 5.68342 9.9874 8.04361C9.73455 9.28581 10.1138 10.4038 10.746 11.1491C11.3781 11.8944 12.2631 12.1429 13.401 12.1429C15.2974 12.1429 16.3088 11.0249 16.3088 11.0249L16.1824 11.646C16.1824 11.8944 16.3088 12.0187 16.5616 12.0187H18.4581C18.7109 12.0187 18.9638 11.7702 19.0902 11.5218L20.2281 4.56544C20.1016 4.44122 19.8488 4.19278 19.7223 4.19278ZM16.8145 8.16782C16.5616 9.28581 15.6767 10.1554 14.4124 10.1554C13.7802 10.1554 13.2745 9.90691 13.0217 9.65847C12.7688 9.28581 12.6424 8.78893 12.6424 8.16782C12.7688 7.04984 13.7802 6.1803 14.9181 6.1803C15.5502 6.1803 15.9295 6.42874 16.3088 6.67718C16.6881 7.04984 16.8145 7.67094 16.8145 8.16782Z" fill="#283B82"/>
<path d="M50.57 4.19278H48.5471C48.4207 4.19278 48.1679 4.317 48.1679 4.44122L48.0414 5.06232L47.915 4.81388C47.4093 4.19278 46.5243 3.94434 45.5129 3.94434C43.2372 3.94434 41.2143 5.68342 40.8351 8.04361C40.5822 9.28581 40.9615 10.4038 41.5936 11.1491C42.2258 11.8944 43.1108 12.1429 44.2486 12.1429C46.145 12.1429 47.1564 11.0249 47.1564 11.0249L47.03 11.646C47.03 11.8944 47.1564 12.0187 47.4093 12.0187H49.3057C49.5586 12.0187 49.8114 11.7702 49.9379 11.5218L51.0757 4.56544C50.9493 4.44122 50.8229 4.19278 50.57 4.19278ZM47.6622 8.16782C47.4093 9.28581 46.5243 10.1554 45.26 10.1554C44.6279 10.1554 44.1222 9.90691 43.8693 9.65847C43.6165 9.28581 43.49 8.78893 43.49 8.16782C43.6165 7.04984 44.6279 6.1803 45.7657 6.1803C46.3979 6.1803 46.7772 6.42874 47.1564 6.67718C47.6622 7.04984 47.7886 7.67094 47.6622 8.16782Z" fill="#469BDB"/>
<path d="M30.7213 4.19287H28.572C28.3191 4.19287 28.1927 4.31709 28.0663 4.44131L25.2849 8.6648L24.0206 4.68975C23.8942 4.44131 23.7677 4.31709 23.3885 4.31709H21.3656C21.1128 4.31709 20.9863 4.56553 20.9863 4.81397L23.262 11.3977L21.1128 14.3789C20.9863 14.6274 21.1128 15 21.3656 15H23.3885C23.6413 15 23.7677 14.8758 23.8942 14.7516L30.8477 4.93819C31.227 4.56553 30.9741 4.19287 30.7213 4.19287Z" fill="#283B82"/>
<path d="M52.9731 0.590142L51.2031 11.77C51.2031 12.0184 51.3296 12.1426 51.5824 12.1426H53.3524C53.6052 12.1426 53.8581 11.8942 53.9845 11.6457L55.7545 0.714361C55.7545 0.46592 55.6281 0.341701 55.3752 0.341701H53.3524C53.226 0.217481 53.0995 0.341702 52.9731 0.590142Z" fill="#469BDB"/>
</svg>
