<svg width="156" height="50" viewBox="0 0 156 50" fill="none" xmlns="http://www.w3.org/2000/svg">
<rect width="156" height="50" rx="4" fill="#34314B"/>
<path d="M4.53605 3.54985C4.52846 2.70654 5.22655 2.29627 5.25847 2.27717C4.86311 1.70075 4.25032 1.62199 4.03498 1.61571C3.52031 1.56155 3.02107 1.92368 2.7589 1.92368C2.49149 1.92368 2.08776 1.62094 1.65263 1.62984C1.09269 1.63847 0.568859 1.96266 0.281564 2.46608C-0.311342 3.49255 0.130852 5.00098 0.698901 5.83068C0.983057 6.23729 1.31509 6.69074 1.7497 6.67478C2.17489 6.65751 2.33371 6.40396 2.84681 6.40396C3.35521 6.40396 3.50435 6.67478 3.94759 6.66457C4.40391 6.65751 4.69121 6.25639 4.96542 5.84638C5.29379 5.3809 5.42567 4.92196 5.4309 4.89841C5.42043 4.89475 4.54494 4.56036 4.53605 3.54985ZM3.69876 1.0699C3.92744 0.783913 4.08391 0.394835 4.04047 1.99626e-09C3.70948 0.0146526 3.29555 0.228947 3.05718 0.508654C2.84629 0.755131 2.6579 1.15912 2.70657 1.53904C3.07838 1.56678 3.46013 1.35144 3.69876 1.0699Z" transform="translate(20.4629 10.5762) scale(4.00216 4.0011)" fill="white"/>
<path d="M2.93967 3.53363H2.34546L2.01996 2.51083H0.888575L0.578515 3.53363H7.98502e-08L1.12118 0.0515455H1.81352L2.93967 3.53363ZM1.92184 2.08171L1.62748 1.17247C1.59635 1.07958 1.53774 0.860839 1.45191 0.516504H1.44145C1.40691 0.664599 1.3517 0.883341 1.27608 1.17247L0.986695 2.08171H1.92184ZM5.81734 2.24734C5.81734 2.67436 5.70143 3.01189 5.46934 3.25968C5.26159 3.48025 5.00333 3.59041 4.69537 3.59041C4.36281 3.59041 4.12366 3.47188 3.97844 3.2343V4.55172H3.42059V1.84806C3.42059 1.57986 3.41353 1.30487 3.39992 1.0228H3.89052L3.92166 1.42078H3.93213C4.11816 1.12092 4.40049 0.970995 4.77936 0.970995C5.07555 0.970995 5.32281 1.08795 5.52062 1.32213C5.71817 1.55684 5.81734 1.86506 5.81734 2.24734ZM5.24903 2.26775C5.24903 2.02337 5.19408 1.82189 5.08366 1.66307C4.96304 1.49797 4.80108 1.41528 4.59803 1.41528C4.4604 1.41528 4.33533 1.46133 4.22361 1.55213C4.11162 1.64371 4.03836 1.76328 4.00408 1.91138C3.98878 1.96676 3.98008 2.02376 3.97818 2.08119V2.5001C3.97818 2.68247 4.03417 2.83658 4.14616 2.9627C4.25815 3.08829 4.40363 3.15135 4.5826 3.15135C4.7927 3.15135 4.95624 3.06998 5.0732 2.90854C5.19042 2.74657 5.24903 2.53307 5.24903 2.26775ZM8.7052 2.24734C8.7052 2.67436 8.58929 3.01189 8.35721 3.25968C8.14919 3.48025 7.8912 3.59041 7.58297 3.59041C7.25041 3.59041 7.01126 3.47188 6.86604 3.2343V4.55172H6.3082V1.84806C6.3082 1.57986 6.30113 1.30487 6.28753 1.0228H6.77813L6.80927 1.42078H6.81973C7.00551 1.12092 7.28783 0.970995 7.66697 0.970995C7.9629 0.970995 8.21016 1.08795 8.40849 1.32213C8.60578 1.55684 8.7052 1.86506 8.7052 2.24734ZM8.13663 2.26775C8.13663 2.02337 8.08142 1.82189 7.97101 1.66307C7.85038 1.49797 7.68894 1.41528 7.4859 1.41528C7.34827 1.41528 7.2232 1.46133 7.11095 1.55213C6.99896 1.64371 6.92596 1.76328 6.89169 1.91138C6.87468 1.98045 6.86552 2.03671 6.86552 2.08119V2.5001C6.86552 2.68247 6.92178 2.83658 7.03324 2.9627C7.14523 3.08803 7.29071 3.15135 7.4702 3.15135C7.68057 3.15135 7.8441 3.06998 7.9608 2.90854C8.07802 2.74657 8.13663 2.53307 8.13663 2.26775ZM11.934 2.55688C11.934 2.85333 11.8304 3.09431 11.6245 3.28035C11.3979 3.48339 11.0815 3.58517 10.676 3.58517C10.3013 3.58517 10.0009 3.51296 9.77432 3.36826L9.90332 2.90331C10.148 3.04826 10.4167 3.12048 10.7092 3.12048C10.9196 3.12048 11.0831 3.07286 11.1998 2.9784C11.3168 2.88368 11.3759 2.75704 11.3759 2.599C11.3759 2.45745 11.327 2.33892 11.2309 2.24237C11.1344 2.14608 10.9748 2.05633 10.7505 1.97391C10.1409 1.74654 9.83581 1.41397 9.83581 0.97649C9.83581 0.690765 9.94361 0.456847 10.1587 0.273951C10.3738 0.0913169 10.659 1.4373e-07 11.0138 1.4373e-07C11.3306 1.4373e-07 11.5946 0.055209 11.8042 0.165365L11.6642 0.620118C11.467 0.513364 11.2443 0.459987 10.9952 0.459987C10.7984 0.459987 10.6441 0.508392 10.5336 0.604681C10.4408 0.690765 10.3937 0.795688 10.3937 0.920235C10.3937 1.0576 10.4473 1.17168 10.554 1.26117C10.6467 1.34359 10.8157 1.43334 11.0601 1.52963C11.3599 1.65051 11.5803 1.79128 11.7213 1.95298C11.8634 2.11468 11.934 2.31642 11.934 2.55688ZM13.7831 1.44145H13.1682V2.66049C13.1682 2.97055 13.2765 3.12519 13.4937 3.12519C13.5934 3.12519 13.6761 3.11681 13.7415 3.09928L13.7569 3.5229C13.6471 3.56398 13.5024 3.58465 13.3231 3.58465C13.1028 3.58465 12.9306 3.51741 12.8064 3.38292C12.6826 3.24843 12.6203 3.02314 12.6203 2.70602V1.4404H12.254V1.02176H12.6203V0.562031L13.1682 0.396666V1.02176H13.7831V1.44145ZM16.5519 2.25755C16.5519 2.64348 16.4415 2.96035 16.2212 3.20813C15.9907 3.46324 15.684 3.59041 15.3017 3.59041C14.9328 3.59041 14.6395 3.46821 14.4208 3.22409C14.202 2.97945 14.0926 2.67122 14.0926 2.29941C14.0926 1.91033 14.2057 1.59164 14.431 1.34385C14.6568 1.0958 14.9608 0.97178 15.3431 0.97178C15.7115 0.97178 16.0074 1.09423 16.2314 1.33862C16.4454 1.57568 16.5519 1.88181 16.5519 2.25755ZM15.9737 2.27037C15.9737 2.04037 15.924 1.84309 15.8243 1.67798C15.7073 1.4786 15.5399 1.37891 15.3229 1.37891C15.0995 1.37891 14.9281 1.4786 14.8114 1.67798C14.7115 1.84309 14.6617 2.04377 14.6617 2.28083C14.6617 2.51109 14.7115 2.7089 14.8114 2.87348C14.932 3.07286 15.1003 3.17255 15.3182 3.17255C15.5315 3.17255 15.6987 3.07076 15.8196 2.86851C15.9221 2.69948 15.9737 2.50088 15.9737 2.27037ZM18.366 1.5134C18.3079 1.50293 18.2491 1.49776 18.1901 1.49797C17.9939 1.49797 17.8421 1.57175 17.7354 1.72037C17.6428 1.8512 17.5962 2.01656 17.5962 2.2162V3.53363H17.0383V1.81352C17.0388 1.54995 17.0334 1.2864 17.0221 1.02306H17.508L17.5284 1.50346H17.5439C17.603 1.33836 17.6956 1.20518 17.8228 1.10549C17.9392 1.01838 18.0806 0.971202 18.226 0.970995C18.2775 0.970995 18.3241 0.974659 18.3654 0.9812L18.366 1.5134ZM20.8608 2.15943C20.8622 2.24423 20.8554 2.32896 20.8404 2.41244H19.1669C19.1732 2.66049 19.2543 2.85045 19.4097 2.98128C19.5507 3.09798 19.7331 3.15659 19.9571 3.15659C20.2049 3.15659 20.4309 3.11734 20.6342 3.03806L20.7216 3.42504C20.4841 3.52866 20.2036 3.5802 19.8799 3.5802C19.4906 3.5802 19.1849 3.4656 18.9625 3.23691C18.7407 3.00797 18.6295 2.70026 18.6295 2.31485C18.6295 1.9365 18.7328 1.6212 18.9398 1.36975C19.1564 1.1013 19.4492 0.967071 19.8176 0.967071C20.1795 0.967071 20.4534 1.1013 20.6395 1.36975C20.7868 1.58248 20.8608 1.84623 20.8608 2.15943ZM20.3289 2.01473C20.3328 1.8491 20.2962 1.7065 20.2206 1.58588C20.124 1.43046 19.9754 1.35301 19.7763 1.35301C19.5939 1.35301 19.4453 1.42863 19.3323 1.58039C19.2394 1.70101 19.1842 1.84596 19.1672 2.01421L20.3289 2.01473Z" transform="translate(51.5 22.9121) scale(4.00216 4.0011)" fill="white"/>
<path d="M0.401114 1.81535C0.245954 1.81535 0.111726 1.80776 3.67311e-07 1.79494V0.111464C0.156262 0.0873255 0.31417 0.0754277 0.472285 0.0758794C1.11203 0.0758794 1.40665 0.390648 1.40665 0.90375C1.40665 1.49561 1.05865 1.81535 0.401114 1.81535ZM0.494786 0.291743C0.408441 0.291743 0.334916 0.296977 0.273951 0.309536V1.58928C0.306919 1.59452 0.370239 1.59687 0.459201 1.59687C0.87837 1.59687 1.117 1.35824 1.117 0.911339C1.117 0.512841 0.901134 0.291743 0.494786 0.291743ZM2.32479 1.82817C1.96423 1.82817 1.73057 1.55893 1.73057 1.1934C1.73057 0.812434 1.9692 0.540837 2.3452 0.540837C2.70052 0.540837 2.93941 0.797258 2.93941 1.17325C2.93941 1.55893 2.6932 1.82817 2.32479 1.82817ZM2.33526 0.741264C2.13718 0.741264 2.01028 0.926514 2.01028 1.18555C2.01028 1.43962 2.1398 1.62487 2.33264 1.62487C2.52548 1.62487 2.655 1.4268 2.655 1.18032C2.655 0.929131 2.52809 0.741264 2.33526 0.741264ZM4.99549 0.566218L4.60955 1.80017H4.3581L4.19823 1.26431C4.15848 1.13323 4.12538 1.00023 4.09906 0.865811H4.09383C4.07368 1.0003 4.03548 1.13505 3.99492 1.26431L3.82485 1.80017H3.57078L3.20761 0.566218H3.48941L3.62913 1.15284C3.6621 1.29257 3.68983 1.42444 3.71286 1.54899H3.71809C3.73824 1.44511 3.77121 1.31533 3.81962 1.15546L3.99492 0.56648H4.21837L4.3861 1.1429C4.42665 1.28262 4.45962 1.41973 4.48526 1.54925H4.49259C4.51038 1.42235 4.53838 1.2876 4.57632 1.1429L4.72624 0.56648L4.99549 0.566218ZM6.41626 1.80017H6.14205V1.09162C6.14205 0.873399 6.05832 0.764028 5.89322 0.764028C5.73073 0.764028 5.619 0.903751 5.619 1.06624V1.80017H5.34479V0.918926C5.34479 0.809817 5.34218 0.692858 5.33459 0.565956H5.57583L5.58865 0.75644H5.59624C5.67003 0.624566 5.81969 0.540837 5.98741 0.540837C6.24645 0.540837 6.41652 0.738909 6.41652 1.06127L6.41626 1.80017ZM7.17244 1.80017H6.89797V-6.9869e-09H7.17244V1.80017ZM8.17222 1.82817C7.81192 1.82817 7.578 1.55893 7.578 1.1934C7.578 0.812434 7.81663 0.540837 8.19236 0.540837C8.54795 0.540837 8.78658 0.797258 8.78658 1.17325C8.78684 1.55893 8.54037 1.82817 8.17222 1.82817ZM8.18242 0.741264C7.98435 0.741264 7.85745 0.926514 7.85745 1.18555C7.85745 1.43962 7.98723 1.62487 8.17954 1.62487C8.37265 1.62487 8.5019 1.4268 8.5019 1.18032C8.50216 0.929131 8.37552 0.741264 8.18242 0.741264ZM9.86773 1.80017L9.84785 1.6581H9.84052C9.75679 1.77244 9.6346 1.82817 9.4797 1.82817C9.2586 1.82817 9.10161 1.67327 9.10161 1.465C9.10161 1.16043 9.36562 1.00292 9.82273 1.00292V0.980153C9.82273 0.817667 9.73664 0.736292 9.56657 0.736292C9.4449 0.736292 9.33815 0.766906 9.24421 0.827871L9.18848 0.647592C9.30256 0.576422 9.4449 0.540837 9.6121 0.540837C9.93445 0.540837 10.0972 0.710912 10.0972 1.05132V1.50581C10.0972 1.63036 10.1027 1.72691 10.115 1.80044L9.86773 1.80017ZM9.83005 1.18555C9.52549 1.18555 9.37268 1.25934 9.37268 1.43438C9.37268 1.5639 9.45144 1.62722 9.56081 1.62722C9.70027 1.62722 9.83005 1.52073 9.83005 1.37603V1.18555ZM11.4288 1.80017L11.4159 1.6021H11.4083C11.3296 1.75177 11.1972 1.82817 11.0122 1.82817C10.7147 1.82817 10.4944 1.56652 10.4944 1.19837C10.4944 0.812434 10.7228 0.540576 11.0347 0.540576C11.1998 0.540576 11.3168 0.596308 11.3827 0.708296H11.3882V-6.9869e-09H11.6627V1.46761C11.6627 1.58693 11.6656 1.69865 11.6729 1.80017H11.4288ZM11.3882 1.07409C11.3882 0.901396 11.2739 0.754085 11.0993 0.754085C10.896 0.754085 10.7717 0.934364 10.7717 1.18817C10.7717 1.437 10.9007 1.60734 11.0938 1.60734C11.2663 1.60734 11.3882 1.45741 11.3882 1.27975V1.07409ZM13.4029 1.82817C13.0426 1.82817 12.809 1.55893 12.809 1.1934C12.809 0.812434 13.0476 0.540837 13.4233 0.540837C13.7789 0.540837 14.0176 0.797258 14.0176 1.17325C14.0178 1.55893 13.7716 1.82817 13.4029 1.82817ZM13.4131 0.741264C13.2153 0.741264 13.0884 0.926514 13.0884 1.18555C13.0884 1.43962 13.2179 1.62487 13.4105 1.62487C13.6036 1.62487 13.7329 1.4268 13.7329 1.18032C13.7334 0.929131 13.6065 0.741264 13.4131 0.741264ZM15.4922 1.80017H15.2178V1.09162C15.2178 0.873399 15.134 0.764028 14.9689 0.764028C14.8064 0.764028 14.695 0.903751 14.695 1.06624V1.80017H14.4205V0.918926C14.4205 0.809817 14.4179 0.692858 14.4103 0.565956H14.6515L14.6644 0.75644H14.6719C14.7455 0.624566 14.8954 0.540576 15.0629 0.540576C15.3219 0.540576 15.4922 0.738647 15.4922 1.061V1.80017ZM17.3371 0.771877H17.0355V1.37106C17.0355 1.52361 17.0883 1.59975 17.1951 1.59975C17.2435 1.59975 17.284 1.59452 17.3167 1.58693L17.3243 1.7952C17.2712 1.81561 17.2 1.82582 17.1116 1.82582C16.8955 1.82582 16.7662 1.7065 16.7662 1.39409V0.771877H16.5862V0.566218H16.7662V0.340149L17.0355 0.258775V0.565956H17.3371V0.771877ZM18.7888 1.80017H18.5149V1.09685C18.5149 0.876015 18.4314 0.764289 18.266 0.764289C18.1239 0.764289 17.9915 0.860839 17.9915 1.05629V1.80017H17.7176V-6.9869e-09H17.9915V0.741264H17.997C18.0834 0.606774 18.2085 0.540576 18.3681 0.540576C18.6292 0.540576 18.7888 0.743619 18.7888 1.06624V1.80017ZM20.276 1.24913H19.4531C19.4584 1.48279 19.613 1.61466 19.842 1.61466C19.9636 1.61466 20.0756 1.59425 20.1745 1.55631L20.2172 1.7468C20.1005 1.79756 19.9631 1.82294 19.8032 1.82294C19.4173 1.82294 19.1889 1.57908 19.1889 1.20099C19.1889 0.822638 19.4228 0.538221 19.7724 0.538221C20.0876 0.538221 20.2855 0.771877 20.2855 1.12485C20.2872 1.1665 20.2841 1.20822 20.276 1.24913ZM20.0246 1.05368C20.0246 0.863194 19.9286 0.728705 19.7533 0.728705C19.5957 0.728705 19.4712 0.865811 19.4534 1.05368H20.0246Z" transform="translate(52.8066 10.9277) scale(4.00216 4.0011)" fill="white"/>
</svg>
