<svg width="34" height="32" viewBox="0 0 34 32" fill="none" xmlns="http://www.w3.org/2000/svg">
<path d="M1.125 12.5195C1.125 12.5664 1.125 12.5898 1.125 12.5898C1.125 12.5898 1.125 12.5664 1.125 12.5195C1.125 12.5664 1.125 12.5898 1.125 12.5898C1.125 12.5898 1.125 12.5664 1.125 12.5195C1.125 12.6367 1.125 12.7305 1.125 12.8008C1.14844 12.8477 1.18359 12.9062 1.23047 12.9766C1.23047 12.9766 1.23047 13 1.23047 13.0469C1.23047 13.0703 1.23047 13.082 1.23047 13.082C1.23047 13.1289 1.24219 13.1641 1.26562 13.1875C1.3125 13.2109 1.33594 13.2461 1.33594 13.293L17.0859 33.543C17.0859 33.543 17.0859 33.5664 17.0859 33.6133C17.1094 33.6367 17.1562 33.6484 17.2266 33.6484C17.2266 33.6484 17.2266 33.6602 17.2266 33.6836C17.2266 33.6836 17.2617 33.7188 17.332 33.7891C17.332 33.7891 17.3438 33.7891 17.3672 33.7891C17.4141 33.7891 17.4375 33.8242 17.4375 33.8945C17.4375 33.8945 17.4492 33.8945 17.4727 33.8945C17.5195 33.8945 17.543 33.8945 17.543 33.8945C17.543 33.8945 17.5547 33.8945 17.5781 33.8945C17.625 33.8945 17.6484 33.8945 17.6484 33.8945C17.7188 33.8945 17.7773 33.8945 17.8242 33.8945C17.8945 33.8945 17.9531 33.8945 18 33.8945C18.0469 33.8945 18.0938 33.8945 18.1406 33.8945C18.2109 33.8945 18.2812 33.8945 18.3516 33.8945C18.3516 33.8945 18.3633 33.8945 18.3867 33.8945C18.4336 33.8945 18.457 33.8945 18.457 33.8945C18.457 33.8945 18.4688 33.8945 18.4922 33.8945C18.5391 33.8945 18.5625 33.8945 18.5625 33.8945C18.5625 33.8945 18.5742 33.8945 18.5977 33.8945C18.6445 33.8711 18.668 33.8359 18.668 33.7891C18.6914 33.7656 18.7266 33.7188 18.7734 33.6484C18.7734 33.6484 18.7969 33.6367 18.8438 33.6133C18.8906 33.5664 18.9141 33.543 18.9141 33.543L34.6641 13.293C34.6641 13.2461 34.6758 13.2109 34.6992 13.1875C34.7461 13.1641 34.7695 13.1289 34.7695 13.082C34.7695 13.082 34.7695 13.0703 34.7695 13.0469C34.7695 13 34.7695 12.9766 34.7695 12.9766C34.7695 12.9062 34.7812 12.8477 34.8047 12.8008C34.8516 12.7305 34.875 12.6719 34.875 12.625C34.875 12.6016 34.875 12.5664 34.875 12.5195C34.875 12.4492 34.8633 12.3906 34.8398 12.3438C34.8398 12.2969 34.8164 12.2383 34.7695 12.168C34.7695 12.168 34.7695 12.1562 34.7695 12.1328C34.7695 12.0859 34.7695 12.0625 34.7695 12.0625C34.7695 12.0625 34.7695 12.0508 34.7695 12.0273C34.7695 11.9805 34.7695 11.957 34.7695 11.957L29.1445 2.95703C29.1445 2.95703 29.1328 2.94531 29.1094 2.92188C29.1094 2.875 29.0859 2.85156 29.0391 2.85156C29.0391 2.85156 29.0273 2.85156 29.0039 2.85156C29.0039 2.82813 28.9688 2.78125 28.8984 2.71094C28.8516 2.66406 28.793 2.61719 28.7227 2.57031C28.6758 2.52344 28.6289 2.5 28.582 2.5C28.5117 2.5 28.4531 2.48828 28.4062 2.46484C28.3594 2.41797 28.3008 2.39453 28.2305 2.39453C28.2305 2.39453 28.2188 2.39453 28.1953 2.39453C28.1953 2.39453 28.1719 2.39453 28.125 2.39453H7.875C7.875 2.39453 7.86328 2.39453 7.83984 2.39453C7.83984 2.39453 7.81641 2.39453 7.76953 2.39453C7.69922 2.39453 7.64062 2.40625 7.59375 2.42969C7.54688 2.42969 7.48828 2.45312 7.41797 2.5C7.30078 2.61719 7.21875 2.6875 7.17188 2.71094C7.125 2.73437 7.10156 2.78125 7.10156 2.85156C7.10156 2.85156 7.08984 2.85156 7.06641 2.85156C7.06641 2.85156 7.03125 2.88672 6.96094 2.95703C6.96094 2.95703 6.96094 2.96875 6.96094 2.99219C6.96094 2.99219 6.92578 3.01562 6.85547 3.0625L1.23047 12.0625C1.23047 12.0625 1.23047 12.0859 1.23047 12.1328C1.23047 12.1562 1.23047 12.168 1.23047 12.168C1.23047 12.168 1.23047 12.1914 1.23047 12.2383C1.23047 12.2617 1.23047 12.2734 1.23047 12.2734C1.18359 12.3438 1.14844 12.3906 1.125 12.4141C1.125 12.4141 1.125 12.4492 1.125 12.5195ZM7.76953 5.875L10.582 11.5H4.28906L7.76953 5.875ZM31.7109 11.5H25.418L28.2305 5.875L31.7109 11.5ZM22.1484 13.75L18 28.7266L13.8516 13.75H22.1484ZM14.4141 11.5L18 5.76953L21.5859 11.5H14.4141ZM24.5391 13.75H31.5L20.707 27.707L24.5391 13.75ZM23.5195 10.375L20.0391 4.75H26.332L23.5195 10.375ZM12.4805 10.375L9.66797 4.75H15.9609L12.4805 10.375ZM11.4609 13.75L15.293 27.707L4.5 13.75H11.4609Z" transform="translate(-1 -2)" fill="#1CEBBC"/>
</svg>
