<svg width="42" height="13" viewBox="0 0 42 13" fill="none" xmlns="http://www.w3.org/2000/svg">
<rect width="40.4981" height="12.6201" fill="black" fill-opacity="0" transform="translate(0.628906)"/>
<path d="M15.4805 12.3681L17.5374 1H20.7513L18.7587 12.3681H15.4805Z" fill="#005DAC"/>
<path d="M30.3932 1.12586C29.7504 0.87323 28.722 0.620606 27.4364 0.620606C24.2225 0.620606 21.9084 2.19951 21.9084 4.47313C21.9084 6.17835 23.5154 7.06254 24.801 7.63094C26.0865 8.19935 26.4722 8.57829 26.4722 9.08354C26.4722 9.84141 25.4438 10.2204 24.5439 10.2204C23.2583 10.2204 22.5512 10.0309 21.4585 9.58879L21.0085 9.39932L20.5586 11.9887C21.3299 12.3045 22.7441 12.6203 24.2225 12.6203C27.6292 12.6203 29.879 11.0414 29.879 8.64145C29.879 7.31517 29.0434 6.30466 27.115 5.48363C25.958 4.91523 25.2509 4.59945 25.2509 4.03104C25.2509 3.52579 25.8294 3.02054 27.115 3.02054C28.2077 3.02054 28.9791 3.21001 29.5576 3.46264L29.879 3.58895L30.3932 1.12586Z" fill="#005DAC"/>
<path d="M35.9199 1C35.1485 1 34.57 1.06316 34.2486 1.82103L29.4277 12.3681H32.8988L33.5416 10.4734H37.6554L38.0411 12.3681H41.1264L38.4267 1H35.9199ZM34.4415 8.57874C34.6343 8.01034 35.727 5.23147 35.727 5.23147C35.727 5.23147 35.9841 4.53675 36.177 4.09465L36.3698 5.16831C36.3698 5.16831 37.0126 8.01034 37.1412 8.6419H34.4415V8.57874Z" fill="#005DAC"/>
<path d="M9.56503 8.95751L9.24363 7.31545C8.66513 5.42077 6.80105 3.33661 4.74414 2.32611L7.63667 12.4311H11.1077L16.3143 1.06299H12.8432L9.56503 8.95751Z" fill="#005DAC"/>
<path d="M9.21008 6.18142C9.21812 6.2051 9.22615 6.22878 9.24222 6.25247L9.1217 5.7709L8.08521 0.947343C7.89237 0.189468 7.31387 -4.81844e-07 6.6068 -4.81844e-07H0.628906L2.67778 0.615773C5.20875 1.56312 7.30583 3.09465 8.51105 4.87092C8.80834 5.3367 9.04939 5.81827 9.24222 6.31562L9.21008 6.18142Z" fill="#FBB120"/>
</svg>
