<?xml version="1.0" standalone="no"?>
<!DOCTYPE svg PUBLIC "-//W3C//DTD SVG 20010904//EN"
 "http://www.w3.org/TR/2001/REC-SVG-20010904/DTD/svg10.dtd">
<svg version="1.0" xmlns="http://www.w3.org/2000/svg"
 width="1280.000000pt" height="924.000000pt" viewBox="0 0 1280.000000 924.000000"
 preserveAspectRatio="xMidYMid meet">
<metadata>
Created by potrace 1.15, written by Peter Selinger 2001-2017
</metadata>
<g transform="translate(0.000000,924.000000) scale(0.100000,-0.100000)"
fill="#00ADB5" stroke="none">
<path d="M6345 9234 c-38 -2 -164 -8 -280 -14 -484 -25 -957 -71 -1610 -156
-249 -32 -282 -39 -425 -86 -443 -146 -619 -258 -904 -578 -217 -243 -356
-424 -725 -950 -134 -190 -246 -348 -250 -352 -4 -4 -30 10 -59 31 -106 80
-225 104 -382 77 -107 -19 -255 -75 -363 -137 -90 -53 -200 -161 -229 -226
-32 -70 -31 -152 4 -223 54 -109 142 -170 373 -255 l154 -57 -82 -76 c-267
-247 -453 -444 -588 -622 -225 -296 -604 -1005 -829 -1550 -132 -319 -145
-394 -145 -835 1 -351 16 -568 66 -925 78 -555 219 -965 368 -1063 66 -44 266
-71 746 -102 2035 -130 6124 -154 7645 -44 459 32 776 82 852 132 64 43 156
263 222 532 40 163 91 439 146 785 131 833 214 1223 299 1405 69 145 178 265
243 265 61 0 142 -63 201 -157 55 -87 74 -160 96 -363 46 -430 59 -717 68
-1438 5 -423 9 -552 18 -548 7 2 171 54 366 115 195 61 377 123 406 136 89 44
160 131 247 307 118 237 160 429 206 953 35 388 51 506 92 675 26 107 53 164
95 206 102 102 231 40 336 -161 l46 -90 1 145 c0 204 -26 343 -87 465 -14 28
-67 192 -119 365 -173 578 -211 661 -461 1012 -113 158 -253 432 -261 508 -4
44 -2 52 25 78 20 21 47 33 89 42 109 23 131 30 164 52 97 66 103 162 21 343
-24 52 -41 72 -112 128 -140 112 -287 179 -482 217 -67 13 -117 51 -148 111
-11 22 -36 89 -55 151 -20 62 -47 133 -59 158 -13 25 -51 115 -85 200 -169
425 -375 754 -609 972 -143 132 -332 194 -881 287 -448 76 -869 112 -1680 141
-277 10 -1555 21 -1685 14z m1595 -373 c1209 -34 1816 -71 1867 -113 76 -63
110 -529 99 -1363 -5 -427 -22 -1004 -29 -1011 -3 -3 -8071 -21 -8075 -18 -7
4 483 727 663 979 530 744 927 1206 1181 1376 32 22 88 48 124 59 157 47 579
81 1250 100 377 11 2441 4 2920 -9z m2476 -166 c108 -45 280 -236 426 -471 76
-123 116 -204 182 -371 51 -129 216 -610 216 -630 0 -4 -44 -15 -98 -24 -286
-48 -385 -166 -368 -439 5 -97 30 -200 60 -259 10 -18 16 -34 14 -36 -10 -9
-194 -69 -277 -89 -109 -28 -321 -70 -326 -64 -2 1 -10 131 -19 288 -74 1317
-54 1999 61 2090 30 24 80 26 129 5z m-4752 -2508 c-117 -123 -226 -245 -301
-337 -147 -181 -305 -436 -385 -621 l-43 -99 -324 0 -323 0 7 55 c9 79 58 256
100 371 100 266 244 495 418 662 l65 62 437 0 437 0 -88 -93z m-4250 -907
c219 -68 356 -320 316 -584 -44 -290 -237 -535 -491 -621 -143 -49 -257 -43
-386 20 -116 57 -202 170 -240 318 -22 86 -13 267 17 357 71 213 209 379 387
467 133 66 273 81 397 43z m7263 -20 c292 -82 464 -283 465 -546 0 -210 -121
-412 -330 -551 -160 -107 -326 -156 -527 -156 -92 0 -140 5 -205 22 -301 79
-496 317 -476 581 24 326 324 605 721 671 81 13 271 2 352 -21z m-1109 -402
l-3 -43 -2865 -3 c-1576 -1 -2870 0 -2875 2 -6 2 -9 22 -7 45 l4 41 2875 0
2874 0 -3 -42z m-1493 -349 c379 -19 622 -48 818 -98 290 -73 406 -156 531
-382 37 -68 89 -151 114 -184 94 -124 273 -278 414 -355 l53 -30 -3430 0
-3430 1 30 22 c55 40 137 121 209 207 97 115 135 168 258 355 58 88 127 182
153 208 155 155 351 217 780 248 193 13 2062 29 2790 23 286 -3 606 -9 710
-15z m-5339 -664 c144 -71 212 -288 149 -470 -89 -256 -370 -282 -490 -45 -79
154 -51 349 67 469 72 74 181 92 274 46z m8246 -29 c131 -32 229 -100 274
-191 24 -50 26 -64 22 -134 -4 -62 -10 -88 -32 -125 -61 -105 -155 -177 -291
-223 -70 -24 -95 -28 -200 -28 -100 0 -131 4 -188 23 -245 85 -318 309 -165
504 55 71 208 155 323 178 64 13 195 10 257 -4z m-4994 -461 c2 -1 -1 -18 -6
-36 l-8 -34 -386 -3 -386 -2 -22 -71 c-12 -39 -19 -73 -17 -75 2 -2 35 8 73
22 233 88 543 66 707 -52 l48 -35 29 21 c44 32 146 75 225 96 55 15 105 19
230 19 149 -1 165 -3 240 -28 44 -16 106 -46 139 -68 53 -35 61 -38 75 -25 27
24 160 82 231 101 102 26 271 31 365 10 140 -31 296 -129 357 -224 15 -25 28
-49 28 -53 0 -4 -33 -8 -74 -8 -64 0 -75 3 -81 19 -8 28 -115 125 -163 150
-188 96 -437 45 -602 -123 -40 -42 -49 -46 -91 -46 -45 0 -49 2 -84 49 -41 58
-131 121 -207 148 -71 24 -213 24 -288 -1 -81 -27 -171 -80 -233 -136 -52 -47
-58 -50 -108 -50 -51 0 -55 2 -79 36 -27 40 -103 101 -165 132 -123 61 -293
54 -438 -19 -69 -35 -172 -105 -201 -138 -15 -17 -31 -21 -78 -21 -39 0 -58 4
-58 12 0 12 109 429 115 438 3 5 908 0 913 -5z m-1439 -617 l1 -108 -357 0
c-197 0 -653 3 -1013 7 l-655 6 -59 56 c-32 31 -65 71 -73 89 -12 30 -12 37 4
64 10 17 43 49 74 71 l57 40 1003 6 1004 6 6 -65 c4 -36 7 -113 8 -172z m6445
173 c51 -46 116 -142 116 -170 0 -31 -18 -60 -74 -118 l-40 -43 -1368 0 -1368
0 0 185 0 186 1353 -7 1352 -7 29 -26z m-3095 -117 c7 -6 -48 -80 -99 -133
-113 -118 -235 -171 -411 -178 -173 -8 -342 32 -462 109 l-48 31 -22 -20 c-38
-34 -89 -61 -172 -89 -107 -36 -290 -45 -414 -20 -101 21 -197 56 -263 96
l-48 30 -43 -33 c-101 -77 -247 -113 -432 -104 -137 5 -240 34 -335 92 -72 44
-200 176 -200 207 0 5 33 8 74 8 l74 0 78 -78 c84 -83 145 -119 243 -142 70
-17 190 -8 261 19 69 26 158 95 207 161 36 48 39 50 85 50 47 0 51 -2 126 -78
159 -162 343 -202 528 -118 41 19 82 52 141 111 81 82 85 85 129 85 44 0 49
-3 115 -74 120 -129 267 -184 419 -158 121 21 238 95 300 191 l31 47 67 -4
c37 -2 69 -6 71 -8z m-4164 -405 c297 -5 1878 -12 3513 -16 l2972 -6 0 -51 c0
-91 -20 -224 -41 -283 -17 -46 -39 -75 -103 -138 -133 -131 -277 -193 -556
-238 -157 -25 16 -25 -2700 -7 -2400 16 -3104 25 -3264 46 -366 45 -534 156
-621 409 -11 31 -20 98 -24 179 l-6 128 145 -6 c80 -4 388 -12 685 -17z"/>
<path d="M12470 4053 c-93 -36 -154 -234 -189 -618 -6 -60 -18 -211 -27 -335
-14 -198 -20 -243 -54 -375 -93 -359 -224 -681 -309 -758 -45 -40 -215 -109
-458 -186 -130 -41 -163 -55 -163 -69 0 -79 80 -353 134 -461 35 -68 106 -170
128 -182 54 -30 483 -43 673 -20 137 17 179 28 258 69 90 46 146 110 190 216
106 252 142 602 141 1356 0 470 -7 611 -39 835 -36 243 -108 446 -178 499 -35
27 -81 39 -107 29z"/>
<path d="M10469 3797 c-134 -89 -229 -417 -309 -1062 -17 -132 -37 -294 -46
-360 -41 -321 -192 -877 -298 -1100 -80 -168 -102 -176 -541 -215 -126 -11
-245 -23 -262 -26 -40 -7 -40 -15 -18 -167 50 -334 163 -663 269 -782 l41 -46
130 -16 c185 -23 616 -23 783 1 272 38 431 146 510 346 87 221 126 436 163
910 17 223 21 346 20 770 -1 557 -10 775 -47 1046 -52 394 -146 644 -265 704
-50 26 -88 25 -130 -3z"/>
<path d="M105 1560 c15 -681 100 -1028 307 -1246 99 -105 223 -163 428 -199
204 -37 670 -31 807 10 124 37 300 220 396 410 55 111 116 316 131 445 l7 55
-493 28 c-861 49 -1205 79 -1283 111 -79 33 -177 233 -281 571 l-25 80 6 -265z"/>
</g>
</svg>
