<?xml version="1.0" standalone="no"?>
<!DOCTYPE svg PUBLIC "-//W3C//DTD SVG 20010904//EN"
 "http://www.w3.org/TR/2001/REC-SVG-20010904/DTD/svg10.dtd">
<svg version="1.0" xmlns="http://www.w3.org/2000/svg"
 width="1280.000000pt" height="865.000000pt" viewBox="0 0 1280.000000 865.000000"
 preserveAspectRatio="xMidYMid meet">
<metadata>
Created by potrace 1.15, written by Peter Selinger 2001-2017
</metadata>
<g transform="translate(0.000000,865.000000) scale(0.100000,-0.100000)"
fill="#000000" stroke="none">
<path d="M7605 8643 c-134 -4 -614 -32 -920 -53 -206 -15 -324 -29 -500 -60
-467 -83 -597 -119 -950 -262 -163 -66 -845 -454 -1108 -630 -538 -360 -1486
-1087 -1935 -1483 -76 -67 -227 -197 -337 -290 -246 -209 -321 -274 -604 -534
-123 -113 -267 -245 -320 -292 -151 -135 -269 -265 -354 -389 -130 -191 -202
-301 -242 -375 -21 -38 -51 -88 -65 -110 -57 -85 -120 -215 -159 -329 -23 -67
-54 -134 -70 -155 -28 -35 -29 -42 -35 -166 -4 -106 -1 -161 19 -299 14 -92
32 -194 40 -225 17 -67 42 -259 51 -391 6 -87 9 -101 46 -163 22 -38 46 -71
54 -74 8 -3 14 -9 14 -14 0 -19 101 -171 157 -237 32 -37 65 -77 73 -88 29
-41 256 -212 340 -256 83 -43 87 -44 150 -37 39 4 73 3 85 -4 11 -5 146 -81
301 -168 190 -108 331 -180 440 -225 246 -101 705 -273 844 -314 277 -84 406
-156 444 -250 13 -32 26 -45 73 -69 87 -43 212 -83 488 -155 360 -94 684 -158
870 -171 50 -3 168 -13 263 -21 125 -12 246 -15 435 -11 237 4 269 6 332 27
107 34 160 65 186 106 22 36 23 37 31 14 5 -13 38 -70 74 -126 80 -126 97
-137 330 -228 200 -78 361 -114 542 -121 65 -3 133 -7 153 -11 47 -7 192 34
329 95 100 44 111 52 228 166 151 146 264 299 389 526 184 333 274 584 299
831 l7 67 101 84 c215 177 352 264 901 574 215 122 563 321 775 443 558 322
1522 850 1553 850 2 0 7 -19 10 -42 9 -65 75 -186 137 -249 75 -77 115 -88
338 -96 171 -6 173 -6 245 21 109 42 118 49 165 118 62 92 177 331 201 418 62
231 87 396 107 704 7 104 9 113 54 200 54 104 74 186 90 377 6 70 15 142 20
160 19 64 10 129 -16 129 -23 0 -41 42 -47 105 -3 33 -17 137 -31 230 -14 94
-26 201 -26 238 0 92 -15 184 -57 346 -19 75 -43 183 -54 241 -29 169 -78 359
-114 445 -18 44 -41 105 -51 135 -9 30 -44 104 -77 165 -32 60 -109 209 -169
330 -149 296 -223 403 -356 508 -276 219 -605 347 -997 387 -60 6 -171 20
-245 31 -74 11 -189 25 -255 30 -912 69 -861 67 -1930 72 -368 1 -710 1 -760
0z m1625 -27 c225 -4 989 -53 1155 -74 49 -6 23 -9 -140 -15 -256 -10 -362
-22 -510 -59 -444 -109 -571 -182 -831 -474 -139 -157 -264 -336 -764 -1099
-112 -170 -305 -455 -429 -633 -224 -322 -225 -323 -255 -316 -17 3 -32 7 -34
9 -5 4 397 604 583 870 104 149 261 378 350 510 204 303 300 438 384 539 99
118 204 256 199 261 -13 14 -631 85 -1053 122 l-320 28 -1105 -2 -1105 -2
-225 -118 c-184 -96 -295 -165 -605 -374 -400 -269 -947 -670 -1403 -1031
l-273 -215 -47 5 c-96 10 -97 8 74 144 478 377 1162 872 1450 1049 222 136
807 463 892 498 323 132 495 183 807 240 312 57 417 72 600 86 303 22 866 55
990 58 148 3 1296 -2 1615 -7z m1640 -135 c338 -49 624 -159 852 -331 115 -86
170 -143 250 -259 68 -98 385 -718 409 -800 10 -35 24 -73 32 -85 30 -46 98
-301 127 -476 7 -41 32 -152 56 -248 33 -132 45 -200 49 -285 6 -115 25 -278
51 -426 8 -46 14 -101 14 -122 0 -30 7 -45 35 -73 37 -37 41 -58 25 -116 -5
-19 -16 -107 -25 -195 -17 -178 -33 -252 -70 -317 -30 -52 -31 -43 -5 47 26
87 37 294 21 379 -14 75 -47 140 -90 178 -30 26 -40 30 -78 25 -24 -2 -73 -19
-108 -36 -53 -26 -72 -43 -111 -99 -27 -37 -63 -86 -81 -110 -18 -24 -48 -71
-67 -105 -35 -62 -52 -101 -266 -607 -153 -362 -173 -398 -228 -422 -24 -11
-46 -18 -48 -15 -5 5 21 70 196 492 75 181 116 299 126 362 8 53 49 157 156
393 142 311 173 417 165 550 -29 471 -71 736 -142 897 -33 74 -130 218 -167
247 l-32 24 17 39 c20 46 37 207 37 352 0 240 -61 528 -136 641 -31 47 -106
88 -239 130 -55 18 -135 45 -177 61 -43 16 -83 29 -89 29 -7 0 -35 22 -64 49
-119 112 -189 125 -705 125 -401 1 -520 -7 -719 -45 -89 -17 -132 -33 -268
-99 -89 -43 -188 -98 -220 -123 -107 -83 -308 -305 -383 -422 -24 -38 -79
-119 -121 -180 -117 -168 -289 -453 -310 -515 -11 -30 -27 -122 -36 -205 l-16
-150 -146 -230 c-81 -126 -198 -318 -260 -425 -63 -107 -115 -196 -117 -198
-1 -2 -13 4 -27 12 -24 16 -125 49 -312 101 -55 16 -104 31 -108 35 -4 4 74
123 174 266 101 142 344 504 542 804 198 300 389 588 425 640 152 219 287 379
439 520 81 75 117 100 208 144 168 83 472 166 675 185 178 17 227 19 495 15
185 -2 287 -8 395 -23z m165 -145 c150 -27 186 -53 307 -224 118 -167 391
-728 497 -1019 l52 -143 -30 -43 c-54 -79 -89 -100 -331 -197 -80 -32 -272
-112 -426 -179 -155 -67 -287 -121 -293 -121 -6 0 -11 7 -11 16 0 9 -13 28
-28 42 -25 24 -30 39 -41 122 -21 152 -106 540 -160 725 -49 171 -168 522
-233 690 -20 50 -63 145 -97 212 -33 68 -61 125 -61 127 0 20 738 13 855 -8z
m-808 -133 c74 -154 108 -239 218 -557 118 -342 233 -805 266 -1066 10 -84 15
-97 39 -117 55 -45 48 -57 -62 -103 -54 -22 -175 -76 -268 -120 -93 -44 -227
-104 -298 -134 -70 -30 -172 -75 -226 -100 -111 -52 -106 -50 -106 -34 0 6
-11 26 -25 44 -27 36 -30 44 -15 44 5 0 130 53 277 118 148 66 323 141 391
167 l122 49 0 50 c0 203 -84 690 -176 1026 -64 236 -172 537 -241 675 -14 28
-26 51 -27 52 -7 8 -246 -54 -326 -84 -264 -98 -434 -221 -589 -423 -81 -105
-456 -669 -515 -775 -27 -48 -147 -227 -150 -224 -9 10 26 251 43 295 41 110
425 701 546 840 170 196 275 289 403 353 224 113 344 145 633 170 10 1 38 -46
86 -146z m-2342 33 c171 -15 445 -43 610 -62 165 -19 324 -38 353 -41 28 -3
52 -9 52 -13 0 -9 -90 -127 -191 -251 -96 -117 -181 -238 -386 -544 -77 -115
-227 -334 -333 -485 -106 -151 -280 -408 -388 -570 -107 -162 -198 -299 -202
-303 -4 -5 -183 14 -396 42 -444 57 -609 77 -755 91 -98 9 -105 12 -139 45
-19 19 -105 74 -190 123 -86 49 -185 110 -220 137 -106 77 -116 80 -370 115
-129 17 -341 47 -470 65 -209 30 -276 35 -600 45 -355 11 -567 7 -602 -11 -11
-6 -18 -21 -18 -41 l0 -31 83 7 c97 8 652 -26 807 -49 218 -32 773 -127 974
-167 l208 -41 92 -75 c50 -40 96 -78 101 -83 6 -7 -15 -8 -60 -4 -152 14
-1112 128 -1310 155 -186 26 -357 49 -900 120 -82 11 -157 20 -165 21 -8 0 -1
7 15 14 68 32 730 9 1044 -35 84 -12 93 -25 11 -16 -216 22 -491 45 -595 51
-114 7 -121 6 -139 -14 -11 -12 -17 -23 -15 -25 10 -10 519 -67 899 -102 36
-3 191 -23 345 -44 276 -38 501 -65 601 -73 41 -3 53 0 62 14 18 28 -19 65
-81 83 -29 9 -189 29 -357 46 -499 50 -461 44 -490 79 -25 30 -28 31 -175 46
-453 46 -609 56 -931 62 l-342 6 -44 -26 -43 -25 -140 24 c-77 14 -157 29
-178 35 l-37 10 285 224 c771 607 1568 1165 1965 1376 l215 114 355 6 c195 3
697 5 1115 4 734 -2 771 -3 1070 -29z m2225 -116 c94 -186 217 -560 282 -855
88 -400 117 -580 121 -748 l2 -108 -175 -73 c-96 -40 -273 -117 -394 -170
l-218 -97 -83 40 c-70 34 -101 42 -206 56 -68 9 -191 17 -274 18 -148 2 -151
1 -240 -32 -144 -53 -131 -58 -139 51 -11 161 -36 337 -73 519 l-35 177 63 98
c130 205 375 572 440 659 104 140 225 252 349 323 134 76 309 145 435 172 54
11 101 22 103 25 9 9 11 6 42 -55z m1420 -10 c263 -87 285 -103 336 -252 75
-218 100 -471 73 -733 -7 -60 -17 -118 -24 -128 -11 -16 -18 -2 -55 100 -88
245 -394 877 -486 1007 -38 52 -50 77 -38 72 10 -4 98 -34 194 -66z m417
-1212 c38 -41 102 -137 135 -203 77 -151 126 -443 155 -915 3 -50 0 -107 -7
-140 -15 -66 -87 -250 -165 -420 -91 -200 -143 -331 -151 -385 -9 -64 -48
-170 -174 -475 -55 -135 -115 -279 -131 -320 l-30 -76 -117 -39 c-98 -33 -155
-62 -365 -188 -137 -82 -251 -146 -254 -143 -3 3 1 74 11 158 30 275 23 247
70 274 22 14 169 100 326 193 157 92 324 189 372 215 165 88 237 178 223 273
-3 23 -10 45 -14 47 -4 3 -43 -17 -87 -43 -287 -174 -872 -521 -879 -521 -4 0
-4 10 -1 23 4 12 11 99 16 192 5 94 18 242 29 331 27 218 41 443 41 661 0 135
4 198 16 245 34 131 -17 437 -101 613 -24 50 -45 99 -47 110 -3 16 32 34 237
123 132 57 333 141 447 187 114 46 222 92 240 101 50 26 115 82 139 120 11 19
24 34 28 34 4 0 21 -15 38 -32z m-3254 -175 c32 -164 53 -299 67 -447 15 -159
14 -173 -11 -181 -12 -4 -54 -38 -94 -76 -63 -60 -75 -77 -85 -121 -16 -63 -8
-168 16 -228 10 -25 35 -73 56 -106 41 -65 57 -74 136 -74 34 0 35 -1 16 -14
-11 -8 -78 -40 -149 -71 -72 -31 -136 -59 -144 -62 -11 -5 -12 6 -6 58 5 35 9
197 10 359 1 162 2 426 3 585 l2 291 73 112 c39 61 74 112 77 112 3 0 18 -62
33 -137z m-4470 -113 l279 -9 66 -39 c37 -22 74 -42 82 -45 28 -10 -10 -7
-110 8 -139 22 -722 58 -808 50 -68 -6 -74 -5 -70 12 6 31 141 37 561 23z
m732 -59 c154 -22 352 -50 440 -62 174 -23 197 -32 304 -109 36 -26 131 -85
211 -130 141 -81 180 -107 180 -119 0 -3 -33 -4 -73 -1 l-72 5 -104 85 c-57
47 -126 102 -154 123 -28 21 -63 51 -77 67 -25 29 -30 30 -355 80 -181 28
-384 55 -450 61 -83 8 -131 17 -155 30 l-35 20 30 -5 c17 -3 156 -23 310 -45z
m-335 19 c38 -19 49 -30 33 -30 -11 0 -90 49 -80 50 4 0 26 -9 47 -20z m3865
-567 c-4 -324 -10 -608 -13 -632 -6 -39 -11 -46 -42 -57 -82 -29 -296 -10
-470 43 -133 40 -128 37 -135 86 -7 48 9 90 66 173 16 23 65 106 110 185 154
272 473 789 486 789 2 0 1 -264 -2 -587z m-5645 520 c47 -5 63 -13 43 -20 -35
-13 -115 -77 -216 -173 -63 -61 -121 -110 -128 -110 -18 0 -157 45 -165 52 -3
4 65 66 153 138 l158 132 55 -7 c30 -3 75 -9 100 -12z m1980 7 c114 -12 750
-109 762 -116 16 -10 7 -21 -14 -18 -13 2 -158 26 -323 53 -165 28 -356 57
-424 66 -68 8 -126 17 -129 20 -7 7 20 6 128 -5z m-1614 -74 c142 -25 385 -61
539 -81 154 -20 442 -58 640 -85 480 -66 1233 -154 1580 -185 382 -34 675 -67
669 -76 -2 -4 -22 -10 -43 -14 -56 -9 -291 -167 -375 -252 l-69 -69 -111 12
c-61 7 -282 31 -491 54 -209 23 -522 59 -695 80 -173 21 -396 48 -495 60 -373
44 -782 102 -1022 145 -225 41 -742 151 -752 161 -7 6 71 85 169 171 82 73
177 136 190 128 4 -2 123 -24 266 -49z m1645 34 c79 -11 234 -35 344 -54 110
-19 249 -42 310 -52 93 -14 165 -38 152 -50 -2 -2 -73 10 -158 26 -85 17 -302
55 -484 86 -181 30 -334 57 -340 59 -26 9 45 3 176 -15z m-636 -19 c99 -10
162 -19 140 -20 -22 0 -114 6 -205 14 -235 21 -618 20 -679 -1 -40 -15 -55
-15 -120 -4 -71 12 -74 13 -50 27 34 20 661 9 914 -16z m365 -36 c62 -7 87
-13 60 -13 -25 -1 -90 5 -145 12 -55 8 -82 14 -60 14 22 0 87 -6 145 -13z
m-365 -31 c94 -8 229 -21 300 -29 72 -8 164 -19 206 -24 42 -5 88 -7 101 -4
25 5 173 -9 572 -52 219 -24 272 -38 284 -74 7 -21 -131 -9 -557 48 -201 28
-467 59 -591 71 -330 30 -662 70 -685 81 -24 11 124 5 370 -17z m545 -19 c10
-12 9 -15 -6 -15 -47 0 -124 14 -124 21 0 16 116 10 130 -6z m6076 -115 c73
-145 115 -332 117 -520 0 -60 -5 -117 -11 -133 -8 -18 -12 -93 -12 -205 0
-234 -15 -462 -45 -707 -13 -110 -27 -247 -30 -305 -3 -58 -8 -133 -11 -167
l-6 -62 -121 -75 c-125 -76 -489 -274 -792 -431 -93 -49 -316 -168 -495 -265
-179 -97 -416 -225 -526 -284 -111 -59 -212 -118 -224 -131 -31 -33 -20 -68
31 -102 l41 -27 206 103 c114 57 320 165 457 241 138 75 421 230 630 343 209
113 477 259 595 325 118 67 216 120 217 119 1 -1 -5 -61 -13 -132 -8 -72 -17
-165 -20 -208 l-7 -78 -106 -63 c-157 -94 -570 -330 -1266 -724 -341 -192
-698 -395 -794 -451 -96 -56 -175 -100 -177 -99 -1 2 4 32 12 68 32 149 66
417 75 595 5 105 13 271 18 370 5 98 7 407 5 685 -4 429 -8 551 -29 810 -16
183 -34 338 -45 387 -23 95 -25 143 -7 165 6 9 68 41 137 70 69 29 145 65 170
79 39 23 61 27 170 33 139 8 346 35 491 65 95 20 227 80 261 119 22 25 56 139
57 196 1 28 4 53 7 57 6 10 67 38 319 149 110 48 245 109 300 135 55 27 161
74 235 105 132 57 135 57 144 36 5 -11 24 -50 42 -86z m-8362 -54 c151 -48
531 -132 851 -190 488 -89 1623 -227 3197 -391 344 -36 636 -65 647 -65 14 0
21 -6 21 -18 0 -20 -39 -76 -380 -537 -134 -181 -290 -395 -348 -475 -58 -80
-163 -218 -234 -306 l-130 -162 -142 -5 c-119 -4 -178 -13 -381 -56 -289 -61
-448 -110 -660 -203 -355 -157 -573 -278 -935 -519 l-215 -144 -185 -2 c-102
-1 -201 -2 -220 -2 -53 -1 -56 11 -17 76 82 136 104 202 92 274 -13 74 -58 90
-662 244 -721 183 -1132 301 -1543 443 -80 27 -194 62 -253 77 l-109 28 -23
-29 c-21 -26 -74 -172 -90 -246 -5 -26 -25 -40 -25 -18 0 14 82 310 118 430
16 52 33 115 37 140 21 136 119 459 163 537 32 58 428 420 847 775 121 103
270 232 330 287 61 55 115 98 120 97 6 -2 63 -20 129 -40z m6960 -71 c95 -11
131 -21 190 -49 72 -35 146 -101 146 -130 0 -21 -125 -84 -189 -96 -107 -20
-451 -70 -478 -70 -16 0 -40 -8 -55 -18 l-28 -18 51 -38 c74 -55 149 -79 229
-72 93 7 410 83 432 103 22 20 22 16 3 -30 -25 -61 -126 -116 -267 -147 -226
-49 -612 -84 -730 -66 -44 7 -48 10 -86 74 -48 79 -72 156 -72 227 l0 52 56
12 c38 9 84 32 147 74 101 68 213 169 203 185 -3 6 2 13 11 15 42 11 328 6
437 -8z m-500 -46 c-63 -66 -237 -185 -290 -198 -25 -7 -49 -10 -51 -7 -12 11
12 46 70 104 58 58 71 65 176 102 63 22 116 42 119 45 3 3 8 3 11 0 2 -3 -13
-24 -35 -46z m-1864 -119 c179 -22 342 -45 362 -51 l38 -10 -67 -92 c-54 -75
-175 -238 -190 -257 -2 -2 -7 0 -11 6 -4 6 -228 33 -512 63 -277 28 -506 54
-508 56 -3 2 24 32 59 65 88 83 280 210 354 233 33 10 69 22 80 27 11 5 31 7
45 5 14 -2 171 -22 350 -45z m2696 -107 c-7 -61 -31 -97 -74 -114 -36 -14
-330 -79 -388 -85 -64 -8 -164 23 -215 65 l-34 29 25 5 c14 3 108 18 210 32
324 47 346 52 413 88 34 19 64 35 66 36 2 0 1 -25 -3 -56z m-2155 6 c57 -17
140 -41 184 -55 44 -13 85 -24 90 -24 6 0 23 -10 39 -23 l29 -23 -43 -70 c-24
-38 -58 -93 -77 -123 -35 -58 -40 -91 -23 -153 9 -32 16 -38 48 -44 20 -3 66
-16 103 -29 135 -48 395 -69 487 -40 20 7 22 4 22 -34 0 -22 9 -75 19 -118 13
-49 29 -195 45 -393 22 -265 27 -393 30 -803 2 -268 0 -565 -5 -660 -24 -496
-30 -584 -48 -717 -12 -80 -31 -193 -43 -253 l-22 -107 -74 -55 c-65 -49 -132
-80 -132 -60 0 3 9 43 21 87 56 222 69 314 69 497 -1 327 -32 440 -174 629
-95 127 -285 212 -476 212 -113 0 -198 -20 -373 -89 -16 -6 -26 -15 -23 -20 3
-5 51 9 106 29 307 117 602 55 757 -157 120 -164 141 -228 155 -463 12 -215 6
-331 -26 -480 -49 -228 -118 -465 -145 -492 -15 -16 -16 -1 -16 205 -1 378
-51 611 -175 804 -33 52 -60 98 -60 103 0 19 -159 155 -230 196 -152 89 -273
122 -466 127 -105 2 -106 -2 24 74 34 21 62 43 62 51 0 19 -28 71 -62 114
l-29 37 43 25 c203 118 517 167 718 110 33 -9 63 -14 67 -10 10 10 1 14 -68
33 -87 24 -301 24 -419 -1 -91 -19 -239 -73 -308 -113 l-42 -25 -29 23 c-16
13 -49 40 -73 61 -43 36 -98 71 -336 215 -148 90 -326 154 -490 177 -57 8
-106 17 -109 19 -2 3 51 74 119 158 68 85 176 226 239 314 64 88 244 334 400
546 156 213 313 427 349 478 175 246 246 340 256 340 6 1 58 -13 115 -30z
m4990 -558 c60 -64 74 -121 73 -291 -1 -122 -5 -160 -26 -240 l-26 -95 -7 70
c-17 157 -93 346 -162 401 -44 34 -85 54 -113 54 -25 0 -25 5 1 41 31 43 138
96 198 98 16 1 37 -13 62 -38z m-218 -135 c18 -8 48 -28 67 -46 34 -31 34 -31
3 -11 -36 24 -80 27 -126 8 -46 -20 -137 -122 -179 -203 -57 -108 -126 -285
-149 -379 -11 -48 -28 -114 -39 -148 -41 -137 -63 -433 -50 -662 11 -191 20
-246 50 -305 21 -42 94 -115 138 -139 24 -12 24 -14 7 -24 -30 -16 -359 -1
-420 19 -99 34 -222 200 -233 314 l-4 49 109 55 c115 57 122 65 123 131 0 43
36 150 69 209 29 51 139 304 284 651 112 271 143 331 224 438 48 62 67 69 126
43z m73 -85 c22 -15 47 -39 56 -53 58 -89 105 -358 93 -538 -16 -240 -38 -413
-70 -550 -44 -185 -59 -229 -130 -370 -115 -229 -160 -280 -252 -280 -33 0
-49 8 -95 48 -95 81 -113 137 -128 392 -9 177 7 463 34 585 90 403 237 720
360 776 57 26 87 24 132 -10z m-11467 -91 c-11 -36 -31 -94 -44 -130 -21 -55
-64 -227 -90 -360 -4 -19 -18 -66 -30 -105 -43 -128 -144 -519 -156 -598 -7
-45 -17 -81 -24 -84 -15 -5 -125 60 -204 120 -60 46 -121 124 -139 176 -18 52
-15 129 7 159 10 15 30 50 44 77 31 62 231 364 308 465 49 66 337 355 345 348
1 -2 -6 -32 -17 -68z m10825 -381 c-26 -59 -97 -123 -189 -171 -44 -23 -190
-107 -325 -186 -135 -80 -282 -167 -328 -194 l-83 -48 2 50 c2 29 -3 55 -11
65 -7 8 -11 17 -9 19 2 2 180 108 394 236 215 128 426 255 470 281 l80 48 9
-30 c7 -22 4 -39 -10 -70z m-10824 -398 c58 -16 240 -74 405 -129 332 -111
700 -215 1355 -382 456 -116 601 -159 637 -189 12 -10 25 -34 28 -55 7 -35 6
-36 -23 -36 -53 0 -272 41 -437 82 -88 21 -234 55 -325 74 -384 81 -541 117
-645 150 -60 18 -177 53 -260 77 -82 24 -194 63 -248 86 -54 23 -135 56 -180
72 -141 52 -467 194 -467 203 0 12 40 76 48 76 4 0 54 -13 112 -29z m290 -266
c63 -24 153 -60 200 -79 111 -47 576 -186 755 -226 77 -17 225 -49 328 -71
104 -21 241 -52 305 -68 165 -42 397 -89 475 -97 43 -4 67 -11 67 -19 0 -20
-40 -106 -75 -161 l-33 -51 -100 13 c-55 7 -135 22 -178 33 -44 10 -126 27
-184 36 -145 24 -509 105 -721 162 l-177 47 -11 52 c-27 120 -112 191 -217
181 -58 -6 -121 -41 -147 -81 -20 -29 -17 -30 -137 24 -260 117 -311 140 -316
140 -3 0 -51 28 -107 63 -56 35 -122 75 -147 90 -90 51 -86 45 -65 123 10 38
19 72 21 76 2 3 82 -27 176 -68 95 -41 225 -95 288 -119z m9588 108 l-3 -55
-205 -115 c-113 -63 -376 -207 -585 -320 -209 -113 -492 -267 -630 -343 -137
-75 -348 -187 -468 -249 l-218 -112 -31 18 c-17 10 -36 26 -42 36 -16 27 24
57 211 156 87 47 286 154 443 239 157 85 413 222 570 305 407 214 719 384 834
455 117 72 129 70 124 -15z m-10568 -87 c33 -69 119 -150 237 -223 55 -35 103
-63 106 -63 16 0 37 51 47 115 17 107 29 145 46 145 11 0 14 -5 10 -17 -4 -9
-16 -93 -27 -187 -46 -384 -12 -466 272 -658 286 -193 530 -296 929 -392 183
-44 271 -59 542 -91 l217 -25 88 21 c49 12 107 32 130 46 65 38 164 153 332
386 l63 88 36 -8 c21 -4 44 -6 52 -5 89 8 264 11 299 5 l43 -8 -111 -84 c-106
-79 -163 -136 -190 -189 -7 -13 -10 -26 -8 -29 8 -7 65 -20 247 -54 153 -28
191 -31 520 -41 l355 -11 190 33 c401 68 562 115 1000 290 384 153 833 431
1073 665 l73 71 71 -42 c65 -39 198 -142 198 -154 0 -3 -17 -16 -37 -30 -85
-57 -264 -207 -352 -293 -116 -114 -273 -313 -368 -466 -86 -137 -203 -354
-233 -431 -12 -30 -39 -91 -62 -134 -91 -181 -290 -814 -408 -1306 -77 -316
-97 -379 -123 -390 -52 -21 -226 -30 -564 -30 -410 0 -510 8 -868 71 -437 76
-1057 259 -1149 339 -35 30 -194 94 -336 135 -110 32 -576 204 -830 308 -133
54 -248 112 -480 243 l-305 172 -72 -5 c-69 -5 -74 -4 -148 36 -64 34 -195
125 -195 135 0 2 43 -19 97 -45 141 -71 253 -111 253 -91 0 6 -35 22 -77 36
-43 15 -145 62 -228 105 l-150 78 -90 106 c-49 59 -101 126 -114 149 l-24 43
64 -59 c105 -95 246 -189 377 -251 68 -31 126 -55 129 -51 9 9 8 10 -119 69
-119 56 -203 108 -295 183 -113 91 -225 202 -257 254 -30 49 -34 65 -40 155
-4 55 -13 153 -22 217 -9 70 -12 129 -7 148 l8 31 38 -39 38 -39 2 -104 c2
-99 4 -108 41 -182 34 -67 52 -90 130 -158 50 -44 117 -98 148 -120 55 -38 57
-39 68 -20 8 16 -1 54 -45 188 -31 93 -61 178 -67 190 -18 37 -69 83 -148 136
-41 28 -103 78 -138 111 -54 52 -66 59 -82 49 -15 -10 -19 -9 -24 11 -7 29
-36 221 -36 241 0 8 48 -33 106 -91 99 -97 124 -115 317 -230 115 -68 211
-123 212 -122 10 10 -21 134 -51 206 -43 107 -66 133 -180 207 -115 75 -272
219 -346 318 -32 43 -58 82 -58 87 0 5 11 22 26 39 14 16 40 74 58 128 47 138
69 190 107 255 l34 57 5 -42 c3 -23 16 -64 30 -91z m5995 40 c142 -30 305 -93
427 -166 64 -39 119 -74 122 -79 8 -12 -114 -126 -249 -234 -196 -158 -616
-394 -898 -506 -431 -171 -602 -220 -1006 -286 l-164 -27 -346 10 c-293 9
-367 15 -486 36 -200 36 -255 48 -255 57 0 4 15 27 33 51 86 112 800 594 1120
754 170 86 454 207 594 254 117 40 504 130 658 154 61 9 381 -4 450 -18z
m-5334 -159 c110 -67 331 -177 354 -177 7 0 204 -88 213 -96 2 -1 -10 -31 -26
-66 -17 -35 -33 -82 -37 -105 l-7 -42 -36 14 c-63 23 -391 184 -461 227 -36
22 -100 69 -142 104 -84 70 -80 57 -57 192 l10 62 32 -19 c17 -10 87 -52 157
-94z m10714 62 c-8 -23 -15 -56 -15 -73 0 -65 -1 -65 -281 -211 -401 -208
-1050 -566 -1524 -839 -231 -134 -582 -334 -780 -446 -528 -298 -698 -406
-877 -557 -47 -40 -89 -73 -92 -73 -18 0 -2 54 24 84 20 22 42 69 61 128 40
122 40 121 85 132 21 5 74 36 119 70 91 70 233 153 1185 691 788 446 1008 573
1429 824 167 100 323 192 345 203 38 20 295 105 323 107 9 1 8 -10 -2 -40z
m-10768 -297 c61 -42 431 -229 497 -252 l50 -17 -3 -54 c-3 -83 45 -204 99
-246 28 -22 2 -14 -151 51 -146 63 -252 120 -430 235 -48 31 -99 64 -115 73
-16 10 -51 37 -79 60 l-50 43 6 105 c4 58 7 111 8 118 0 8 26 -7 61 -35 33
-26 81 -63 107 -81z m901 49 c46 -23 79 -67 97 -129 19 -60 19 -111 1 -204
-22 -110 -36 -141 -99 -218 -84 -104 -128 -117 -220 -67 -43 24 -77 76 -102
159 -47 150 58 420 180 463 55 20 99 18 143 -4z m-1714 -160 c65 -91 265 -272
350 -318 78 -42 121 -93 161 -190 26 -65 47 -143 38 -143 -3 0 -89 49 -191
110 -173 101 -195 117 -294 217 -99 100 -108 112 -123 168 -11 44 -14 83 -9
148 4 48 10 84 14 80 4 -4 28 -37 54 -72z m7137 -74 c11 -22 19 -40 17 -41 -2
-1 -50 -31 -107 -67 -207 -128 -481 -407 -626 -640 -99 -158 -279 -510 -337
-659 -119 -303 -186 -518 -248 -790 -126 -551 -169 -683 -228 -696 -15 -3 -42
-10 -61 -15 -19 -5 -36 -7 -37 -6 -2 2 8 39 21 82 13 44 42 159 65 255 50 207
180 671 240 855 114 353 129 390 295 730 75 154 221 399 280 470 22 28 67 84
98 126 97 130 344 358 512 472 l40 28 28 -33 c16 -18 37 -50 48 -71z m-6456
12 c24 -23 79 -63 122 -89 43 -26 125 -77 183 -114 130 -82 194 -114 435 -212
200 -81 310 -113 670 -193 267 -60 404 -86 555 -106 63 -8 134 -18 158 -21 23
-3 40 -9 37 -15 -14 -22 -98 -60 -171 -79 l-81 -20 -253 30 c-318 38 -505 76
-755 153 -284 89 -472 181 -712 349 -163 114 -219 187 -233 300 -3 32 -5 58
-3 58 2 0 24 -19 48 -41z m1344 -44 c174 -46 630 -149 716 -160 28 -4 109 -20
180 -36 72 -15 163 -31 203 -35 39 -3 72 -9 72 -11 0 -12 -133 -195 -145 -199
-34 -13 -910 160 -1140 225 -85 24 -100 31 -97 47 16 103 38 214 41 214 3 0
79 -20 170 -45z m5216 -166 c85 -10 149 -30 248 -81 71 -35 157 -90 157 -99 0
-3 -30 0 -67 7 -205 40 -409 -14 -621 -164 -193 -136 -309 -279 -499 -609
-168 -294 -225 -436 -273 -685 -37 -193 -51 -349 -53 -583 -2 -177 -1 -184 42
-390 38 -185 49 -220 91 -305 42 -84 58 -105 125 -164 43 -37 97 -82 121 -99
24 -18 43 -35 44 -38 0 -8 -100 6 -228 31 -119 24 -438 144 -495 188 -39 29
-146 185 -165 240 -8 24 -9 40 -1 53 5 10 7 19 4 19 -3 0 8 26 24 58 20 39 50
149 96 347 68 292 151 613 185 715 129 385 267 682 462 994 108 172 214 295
411 478 93 86 104 93 151 99 55 6 113 4 241 -12z m-5050 -140 c99 -23 328 -67
509 -100 181 -32 331 -60 333 -62 2 -2 -30 -47 -72 -99 -53 -69 -82 -97 -101
-101 -88 -16 -673 92 -1104 204 -181 48 -196 54 -151 64 42 9 89 51 147 130
l46 63 107 -30 c58 -16 187 -47 286 -69z m5368 -51 c122 -19 187 -74 292 -248
131 -215 184 -630 136 -1060 -27 -239 -50 -351 -102 -498 -51 -143 -115 -279
-219 -467 -114 -206 -225 -357 -367 -497 -109 -107 -126 -120 -218 -163 -55
-25 -144 -59 -199 -76 -95 -28 -101 -29 -195 -18 -108 13 -122 20 -274 154
-63 55 -85 82 -126 159 -47 88 -52 105 -97 332 l-47 239 12 234 c22 417 77
671 198 916 77 154 239 427 308 519 115 152 165 204 275 286 227 168 408 223
623 188z m-7371 -203 c35 -24 78 -55 96 -67 58 -41 86 -99 157 -330 18 -60 31
-108 28 -108 -9 0 -134 100 -209 167 -97 87 -136 168 -142 296 -3 48 -2 87 2
87 3 0 34 -20 68 -45z m3043 -2117 c311 -95 533 -150 780 -194 400 -71 470
-76 947 -70 227 2 433 8 456 11 42 7 43 6 33 -13 -6 -11 -34 -39 -63 -63 l-52
-44 -247 -3 c-166 -2 -302 1 -416 12 -92 8 -208 18 -258 21 -188 13 -507 75
-840 162 -435 113 -555 160 -588 227 -9 20 -17 39 -17 41 0 3 24 -5 53 -17 28
-11 124 -43 212 -70z m2371 -248 c-18 -28 -42 -48 -74 -62 -40 -17 -129 -48
-141 -48 -2 0 23 28 54 63 51 55 65 64 119 78 33 9 63 14 65 13 2 -2 -8 -22
-23 -44z"/>
<path d="M10535 8239 c-110 -6 -201 -12 -203 -13 -6 -7 64 -188 105 -271 110
-218 236 -580 332 -955 65 -252 81 -334 81 -417 0 -38 4 -53 14 -53 7 0 112
42 232 93 121 52 307 127 415 168 240 89 233 81 196 240 -14 57 -27 124 -31
149 -37 255 -314 890 -439 1006 -28 26 -47 33 -113 43 -112 17 -356 21 -589
10z m582 -30 c99 -14 110 -24 206 -188 91 -153 136 -243 170 -336 14 -38 39
-106 57 -150 40 -100 94 -287 110 -380 6 -38 20 -105 31 -148 30 -120 41 -111
-261 -227 -140 -54 -318 -125 -394 -159 -76 -33 -145 -61 -152 -61 -9 0 -14
12 -14 36 0 70 -23 183 -86 429 -98 376 -219 724 -327 940 -39 78 -97 222 -97
241 0 14 665 16 757 3z"/>
<path d="M11390 8103 c0 -4 17 -27 38 -52 49 -58 116 -175 186 -322 58 -122
250 -586 261 -631 11 -42 20 -34 38 32 44 155 -5 625 -78 758 -42 77 -108 115
-319 183 -132 43 -126 42 -126 32z m186 -74 c191 -67 229 -99 268 -225 36
-117 44 -164 57 -326 13 -166 9 -322 -9 -340 -9 -9 -12 -9 -12 1 0 16 -190
479 -246 599 -57 123 -141 270 -173 305 l-26 29 30 -8 c17 -4 66 -20 111 -35z"/>
<path d="M11920 6629 c-59 -23 -100 -86 -120 -182 -18 -88 -6 -150 36 -187 41
-35 44 -36 93 -11 48 25 97 81 127 145 29 62 30 105 5 154 -36 70 -90 100
-141 81z m88 -42 c12 -11 22 -28 22 -37 0 -20 -44 -62 -87 -84 -29 -14 -123
-23 -123 -11 0 17 37 94 54 114 25 29 74 51 95 43 9 -3 26 -14 39 -25z m21
-128 c-19 -16 -51 -38 -72 -50 -21 -11 -59 -36 -84 -55 -50 -38 -63 -34 -63
18 0 50 8 58 64 58 41 0 62 7 99 30 25 16 52 38 59 50 l13 20 9 -20 c8 -17 3
-26 -25 -51z m-5 -80 c-29 -53 -91 -113 -125 -122 -12 -3 -30 4 -46 17 l-26
23 44 31 c24 17 64 42 89 56 25 13 54 34 65 46 30 33 30 6 -1 -51z"/>
<path d="M10690 6002 c-60 -28 -122 -99 -195 -228 -41 -72 -45 -84 -45 -146 0
-37 5 -78 11 -91 37 -82 168 -50 303 74 83 76 108 125 114 219 5 89 -10 129
-61 160 -32 20 -97 26 -127 12z m125 -36 c27 -21 28 -26 17 -50 -13 -30 -114
-107 -163 -125 -19 -7 -49 -19 -67 -27 -33 -14 -92 -19 -92 -8 0 28 123 187
164 214 43 28 103 26 141 -4z m45 -105 c0 -45 -4 -53 -45 -93 -31 -31 -78 -59
-162 -97 -65 -30 -130 -62 -145 -72 -14 -11 -29 -19 -32 -19 -11 0 -6 98 5
124 9 20 19 25 48 25 77 -1 263 93 308 156 10 13 19 25 21 25 1 0 2 -22 2 -49z
m-29 -140 c-25 -48 -130 -145 -193 -177 -63 -32 -117 -40 -143 -20 -20 15 -20
15 5 40 14 14 81 50 150 82 69 31 140 69 158 85 18 16 35 29 38 29 2 0 -4 -17
-15 -39z"/>
<path d="M12287 4840 c-142 -157 -229 -451 -244 -830 -7 -174 9 -278 59 -378
39 -78 65 -96 129 -86 87 14 173 138 233 335 117 388 112 851 -11 966 -29 28
-42 33 -83 33 -43 0 -51 -4 -83 -40z m151 -5 c114 -95 120 -579 12 -932 -62
-201 -142 -322 -223 -337 -50 -9 -68 3 -106 74 -63 119 -76 350 -35 624 37
252 129 486 226 576 31 29 89 27 126 -5z"/>
<path d="M778 4810 c-48 -26 -140 -150 -228 -307 -101 -181 -123 -264 -73
-271 80 -11 313 220 378 374 18 44 45 162 45 200 0 22 -4 24 -42 24 -24 -1
-60 -10 -80 -20z m102 -9 c0 -5 -6 -43 -14 -84 -24 -121 -86 -225 -212 -351
-56 -56 -145 -116 -171 -116 -31 0 1 94 79 233 93 165 171 274 222 307 32 20
96 27 96 11z"/>
<path d="M535 2593 c4 -10 22 -62 41 -115 103 -294 191 -428 348 -530 50 -32
150 -88 221 -124 72 -37 189 -99 260 -140 134 -75 366 -177 592 -259 574 -209
852 -295 958 -295 111 0 197 45 237 124 49 96 54 173 16 249 -23 45 -25 46
-248 102 -473 118 -1164 367 -1655 595 -121 56 -245 114 -275 128 -30 14 -152
83 -271 154 -119 70 -220 128 -224 128 -4 0 -4 -8 0 -17z m268 -163 c194 -116
616 -315 927 -437 420 -166 919 -332 1229 -409 97 -24 186 -48 198 -54 42 -18
66 -111 48 -190 -28 -129 -131 -199 -274 -187 -97 8 -206 38 -476 132 -566
196 -847 308 -1013 402 -53 31 -176 97 -272 147 -96 51 -208 114 -248 140
-131 86 -232 239 -318 488 -19 53 -34 100 -34 102 0 3 21 -7 48 -23 26 -15
109 -65 185 -111z"/>
<path d="M2889 2259 c-88 -45 -187 -166 -177 -216 6 -30 91 -53 458 -128 118
-24 283 -59 365 -79 210 -48 280 -61 525 -96 498 -70 780 -77 1200 -29 100 11
224 46 300 84 89 45 220 174 297 294 37 57 36 64 -16 77 -33 9 -265 -13 -466
-44 -156 -24 -195 -26 -480 -25 -548 0 -961 40 -1750 167 -161 27 -196 26
-256 -5z m516 -54 c542 -83 777 -108 1195 -126 326 -14 564 -7 755 21 77 12
203 27 280 35 240 25 245 23 189 -61 -21 -33 -77 -96 -124 -142 -90 -89 -186
-144 -300 -176 -153 -42 -660 -68 -905 -47 -309 27 -757 97 -995 156 -52 13
-187 42 -300 65 -266 52 -431 92 -460 110 -35 22 82 168 164 204 61 27 89 25
501 -39z"/>
<path d="M2860 1721 c0 -20 648 -180 925 -227 36 -6 38 -8 18 -17 -33 -14 -94
-181 -122 -333 -15 -81 -14 -91 10 -125 25 -35 48 -42 269 -74 340 -49 486
-65 607 -65 142 0 193 15 282 82 29 22 49 34 45 27 -57 -92 -110 -144 -176
-173 -18 -9 -82 -24 -142 -36 -192 -36 -516 -22 -846 36 -301 53 -681 164
-890 259 -103 48 -110 50 -110 37 0 -15 187 -97 315 -140 456 -153 896 -232
1285 -232 117 0 172 5 268 25 174 35 234 78 327 235 71 121 94 185 95 253 0
71 -21 113 -65 126 -16 6 -120 15 -230 20 -189 10 -638 63 -805 95 -41 8 -97
17 -125 21 -90 11 -556 115 -742 166 -199 54 -193 53 -193 40z m1103 -256
c236 -37 578 -77 742 -85 245 -13 260 -16 280 -47 26 -40 16 -143 -21 -219
-23 -46 -45 -70 -103 -116 -106 -81 -157 -98 -295 -98 -109 0 -265 15 -456 45
-52 8 -144 21 -205 29 -142 20 -182 32 -201 61 -15 23 -15 32 0 112 14 75 76
288 87 297 9 7 65 35 72 36 4 0 49 -7 100 -15z"/>
<path d="M5210 3828 c-139 -21 -296 -74 -383 -130 -58 -37 -126 -111 -183
-199 -46 -72 -104 -244 -104 -310 0 -70 37 -160 92 -228 81 -98 97 -104 253
-96 189 9 282 41 430 148 159 115 277 256 335 402 36 90 38 145 9 232 -25 72
-70 116 -160 156 -62 27 -198 39 -289 25z m278 -44 c90 -40 127 -76 151 -146
12 -34 21 -81 21 -104 0 -52 -53 -180 -106 -255 -87 -126 -242 -258 -384 -328
-96 -48 -138 -58 -285 -66 -107 -6 -124 -4 -155 13 -80 43 -170 197 -170 289
0 19 14 80 30 136 45 150 151 301 257 363 198 116 497 161 641 98z"/>
<path d="M6193 3730 c-23 -14 -34 -29 -39 -55 -16 -84 21 -196 75 -228 83 -49
161 9 161 120 0 60 -27 121 -69 156 -39 32 -83 35 -128 7z m124 -32 c56 -61
70 -150 30 -209 -65 -97 -186 7 -175 150 4 41 10 59 28 73 36 29 81 23 117
-14z"/>
<path d="M1654 3657 c-40 -28 -76 -72 -102 -123 -32 -64 -77 -250 -62 -259 4
-3 11 -22 15 -42 15 -84 87 -171 145 -174 45 -3 66 9 119 66 54 59 93 146 114
255 16 82 16 87 -4 150 -23 75 -54 124 -87 139 -38 18 -104 12 -138 -12z m36
-114 c-42 -80 -80 -136 -116 -173 -29 -30 -56 -52 -59 -49 -7 8 34 167 53 204
38 75 107 135 155 135 l29 0 -62 -117z m137 59 c12 -20 28 -60 36 -89 14 -48
14 -59 -3 -140 -19 -88 -47 -169 -56 -160 -3 2 -29 46 -59 96 l-54 91 40 113
c22 61 42 118 44 124 7 20 30 5 52 -35z m-127 -119 c-17 -49 -34 -79 -44 -81
-13 -3 -8 15 24 77 22 45 42 81 44 81 3 0 -8 -35 -24 -77z m-70 -118 c0 -13
-66 -55 -86 -55 -9 0 69 69 79 70 4 0 7 -7 7 -15z m101 -72 c63 -106 61 -103
56 -103 -6 0 -137 175 -137 184 0 3 6 6 14 6 8 0 38 -39 67 -87z m-27 -50 c83
-87 84 -94 18 -138 -57 -39 -93 -34 -140 20 -27 30 -44 63 -52 96 -7 28 -11
52 -9 53 11 10 86 45 96 46 7 0 46 -35 87 -77z"/>
<path d="M7288 2606 c-108 -53 -174 -104 -260 -199 -122 -135 -234 -338 -323
-581 -140 -387 -139 -886 3 -1121 51 -85 138 -173 197 -201 57 -27 165 -32
257 -13 241 51 501 371 656 804 119 332 135 765 39 1027 -80 218 -215 328
-404 328 -72 0 -85 -4 -165 -44z m326 -10 c85 -42 134 -96 188 -206 78 -159
103 -305 94 -540 -10 -284 -60 -493 -180 -755 -83 -179 -241 -391 -367 -489
-92 -72 -159 -97 -279 -103 -126 -7 -174 12 -263 106 -159 169 -216 438 -172
811 20 177 41 268 91 402 152 411 333 651 579 770 76 37 84 38 165 36 70 -3
95 -8 144 -32z"/>
</g>
</svg>
