<?xml version="1.0" encoding="UTF-8"?>
<svg xmlns="http://www.w3.org/2000/svg" width="120" height="44" viewBox="0 0 120 44" fill="none">
  <g clip-path="url(#clip0_19_16)">
    <path d="M0 22V44H60H120V22V0H60H0V22ZM117.995 22V42.019L60.0317 41.9981L2.05805 41.9668L2.02639 21.9687L2.00528 1.98104H60H117.995V22Z" fill="#979797"></path>
    <path d="M10.3428 10.6768V11.2398L10.7966 11.3128C11.0393 11.344 11.3982 11.4066 11.5882 11.4379L11.9259 11.49L11.9048 21.9895L11.8731 32.4786L11.1132 32.5621L10.3428 32.6559V33.2711V33.8862H14.3533H18.3639V33.2711V32.6559L17.604 32.5621L16.8335 32.4786L16.8019 27.7033L16.7808 22.9384H22.0578H27.3349V27.672C27.3349 31.6237 27.3138 32.4161 27.1871 32.4578C27.1027 32.4891 26.7016 32.5516 26.29 32.5933L25.5407 32.6663V33.2711V33.8862H29.6568H33.7729V33.2711V32.6559L33.0657 32.5829C32.6858 32.5412 32.3058 32.4891 32.2214 32.4578C32.1053 32.4161 32.0842 30.5393 32.0842 21.9478V11.49L32.5064 11.4275C32.7386 11.3962 33.1185 11.3336 33.3507 11.3023L33.7729 11.2398V10.6768V10.1137H29.6568H25.5407V10.6768V11.2398L26.0473 11.3023C26.3217 11.344 26.7227 11.3962 26.9444 11.4275L27.3349 11.49V15.963V20.436H22.0578H16.7808V15.963V11.49L17.2346 11.417C18.48 11.2294 18.3639 11.3023 18.3639 10.6768V10.1137H14.3533H10.3428V10.6768Z" fill="#979797"></path>
    <path d="M39.9899 10.4057C37.7946 11.5317 38.6706 14.8057 41.1614 14.8057C41.9107 14.8057 42.4912 14.5346 42.9767 13.982C43.7683 13.0644 43.7683 11.855 42.9661 10.9374C42.2274 10.072 41.0348 9.86348 39.9899 10.4057Z" fill="#979797"></path>
    <path d="M48.2324 10.6246V11.1355L48.9501 11.2189L49.6572 11.3128L49.6889 21.9687L49.71 32.6142L49.425 32.6768C49.2562 32.708 48.929 32.7602 48.6862 32.7914L48.2324 32.8644V33.3753V33.8862H51.9791H55.7258V33.3753V32.8644L55.2826 32.7914C55.0293 32.7602 54.7021 32.708 54.5438 32.6768L54.2483 32.6142V21.364V10.1137H51.2403H48.2324V10.6246Z" fill="#979797"></path>
    <path d="M62.7228 12.7622L60.5804 13.3982V15.1916V16.9954H58.9445H57.3086V17.7774V18.5593H58.8812H60.4643L60.4959 24.8883C60.5381 31.9366 60.5381 31.8636 61.2664 32.8646C62.3746 34.366 65.6885 34.5224 69.6358 33.2503L70.2901 33.0314V32.4579V31.8845L69.9735 31.9574C69.7941 31.9992 69.0447 32.0304 68.306 32.0304C66.3851 32.0409 65.773 31.8115 65.3086 30.8835L65.0658 30.3935L65.0342 24.4712L65.0025 18.5593H67.0184H69.0236V17.7774V16.9954H67.0184H65.0131V14.5451C65.0131 13.2001 64.9814 12.0949 64.9392 12.1053C64.8864 12.1157 63.8943 12.4077 62.7228 12.7622Z" fill="#979797"></path>
    <path d="M78.9446 16.5366C77.3615 16.7451 75.3878 17.5271 74.2797 18.3925C72.9815 19.4143 71.9367 21.0409 71.4512 22.7821C71.124 23.9499 71.0396 26.5461 71.2823 27.9328C71.6306 29.8722 72.2005 31.0712 73.3509 32.2181C74.7229 33.584 76.6121 34.2513 79.4723 34.366C82.4907 34.5015 84.9604 33.7091 86.7546 32.0409C88.4538 30.4665 89.2454 28.6418 89.3615 26.0665C89.4353 24.4295 89.277 23.1887 88.8232 21.875C88.3588 20.5091 87.9156 19.8105 86.9129 18.82C86.2269 18.1319 85.8786 17.8921 85.0659 17.4854C83.6834 16.8181 82.6174 16.5783 80.7915 16.5262C79.9789 16.5053 79.1451 16.5158 78.9446 16.5366ZM80.8443 17.8295C82.0791 18.0589 82.9235 18.7575 83.5356 20.0712C84.2005 21.4892 84.4327 22.8655 84.4327 25.4826C84.4327 30.7063 83.1451 33.0627 80.2638 33.0731C79.219 33.0835 78.4591 32.7916 77.8153 32.1243C76.4749 30.7688 75.8206 27.62 76.095 23.929C76.3694 20.2276 77.4987 18.2257 79.5039 17.8295C80.1266 17.7148 80.2216 17.7148 80.8443 17.8295Z" fill="#979797"></path>
    <path d="M102.501 16.6929C101.182 16.8597 99.5569 17.5791 98.1743 18.6114C97.7521 18.9241 97.3511 19.1848 97.2983 19.1848C97.2455 19.1848 97.2033 18.6948 97.2033 18.09V16.9952H94.1954H91.1875V17.5583V18.1213L91.6941 18.1839C91.9685 18.2256 92.3168 18.2777 92.4857 18.309L92.7706 18.3715V25.4929V32.6142L92.169 32.6768C91.1875 32.7914 91.1875 32.7914 91.1875 33.3753V33.8862H94.987H98.7864V33.3649C98.7864 33.073 98.7548 32.8436 98.7126 32.8332C98.6598 32.8227 98.3221 32.7706 97.9421 32.6976L97.2561 32.5829V26.5355V20.4881L97.7838 20.1441C98.0793 19.9564 98.6915 19.654 99.1558 19.4768C99.8841 19.1848 100.127 19.1431 100.95 19.1327C101.995 19.1327 102.48 19.3099 103.029 19.8834C103.863 20.7488 103.979 21.7185 103.937 27.8388L103.905 32.5829L103.219 32.6976C102.839 32.7706 102.501 32.8227 102.459 32.8332C102.406 32.8436 102.375 33.073 102.375 33.3649V33.8862H106.174H109.974V33.3753C109.974 32.7914 109.974 32.7914 109.003 32.6872L108.401 32.6142L108.37 26.5459C108.338 20.5403 108.327 20.4777 108.085 19.7583C107.757 18.7677 107.441 18.2568 106.808 17.6938C106.185 17.1412 105.393 16.818 104.338 16.6824C103.494 16.5677 103.42 16.5677 102.501 16.6929Z" fill="#979797"></path>
    <path d="M37.3613 17.5061V18.017L37.8679 18.0796C38.1423 18.1213 38.4906 18.1734 38.6595 18.2047L38.9444 18.2673L38.9233 25.4199L38.8917 32.5829L38.2057 32.6976C37.8257 32.7706 37.488 32.8227 37.4458 32.8332C37.393 32.8436 37.3613 33.073 37.3613 33.3649V33.8862H41.1714H44.9708L44.9392 33.4066C44.8969 32.8332 44.8231 32.7706 43.9893 32.6872L43.3772 32.6246V24.8047V16.9952H40.3692H37.3613V17.5061Z" fill="#979797"></path>
  </g>
  <defs>
    <clipPath id="clip0_19_16">
      <rect width="120" height="44" fill="white"></rect>
    </clipPath>
  </defs>
</svg>
