<svg width="38" height="42" viewBox="0 0 38 42" fill="none" xmlns="http://www.w3.org/2000/svg">
<path d="M101.062 21.9375C100.68 21.9375 100.365 22.0605 100.119 22.3066C99.873 22.5527 99.75 22.8672 99.75 23.25V39C99.75 39.3828 99.873 39.6973 100.119 39.9434C100.365 40.1895 100.68 40.3125 101.062 40.3125H108.938C109.32 40.3125 109.635 40.1895 109.881 39.9434C110.127 39.6973 110.25 39.3828 110.25 39V23.25C110.25 22.8672 110.127 22.5527 109.881 22.3066C109.635 22.0605 109.32 21.9375 108.938 21.9375H101.062ZM107.625 37.6875H102.375V24.5625H107.625V37.6875ZM86.625 31.125V39C86.625 39.3828 86.748 39.6973 86.9941 39.9434C87.2402 40.1895 87.5547 40.3125 87.9375 40.3125H95.8125C96.1953 40.3125 96.5098 40.1895 96.7559 39.9434C97.002 39.6973 97.125 39.3828 97.125 39V31.125C97.125 30.7422 97.002 30.4277 96.7559 30.1816C96.5098 29.9355 96.1953 29.8125 95.8125 29.8125H87.9375C87.5547 29.8125 87.2402 29.9355 86.9941 30.1816C86.748 30.4277 86.625 30.7422 86.625 31.125ZM89.25 32.4375H94.5V37.6875H89.25V32.4375ZM112.875 15.375V39C112.875 39.3828 112.998 39.6973 113.244 39.9434C113.49 40.1895 113.805 40.3125 114.188 40.3125H122.062C122.445 40.3125 122.76 40.1895 123.006 39.9434C123.252 39.6973 123.375 39.3828 123.375 39V15.375C123.375 14.9922 123.252 14.6777 123.006 14.4316C122.76 14.1855 122.445 14.0625 122.062 14.0625H114.188C113.805 14.0625 113.49 14.1855 113.244 14.4316C112.998 14.6777 112.875 14.9922 112.875 15.375ZM115.5 16.6875H120.75V37.6875H115.5V16.6875ZM90.9727 14.9648C91.2188 15.2383 91.5195 15.375 91.875 15.375C92.2305 15.375 92.5312 15.2383 92.7773 14.9648L98.4375 9.3457L104.098 14.9648C104.207 15.1016 104.344 15.2109 104.508 15.293C104.699 15.3477 104.863 15.375 105 15.375C105.137 15.375 105.287 15.3477 105.451 15.293C105.643 15.2109 105.793 15.1016 105.902 14.9648L116.812 4.0957V8.8125C116.812 9.19531 116.936 9.50977 117.182 9.75586C117.428 10.002 117.742 10.125 118.125 10.125C118.508 10.125 118.822 10.002 119.068 9.75586C119.314 9.50977 119.438 9.19531 119.438 8.8125V0.9375C119.438 0.882812 119.424 0.800781 119.396 0.691406C119.396 0.582031 119.369 0.486328 119.314 0.404297C119.232 0.267578 119.137 0.144531 119.027 0.0351562C118.918 -0.0742187 118.795 -0.169922 118.658 -0.251953C118.576 -0.306641 118.48 -0.333984 118.371 -0.333984C118.262 -0.361328 118.18 -0.375 118.125 -0.375H110.25C109.867 -0.375 109.553 -0.251953 109.307 -0.00585938C109.061 0.240234 108.938 0.554687 108.938 0.9375C108.938 1.32031 109.061 1.63477 109.307 1.88086C109.553 2.12695 109.867 2.25 110.25 2.25H114.967L105 12.2168L99.3398 6.59766C99.0938 6.32422 98.793 6.1875 98.4375 6.1875C98.082 6.1875 97.7812 6.32422 97.5352 6.59766L90.9727 13.1602C90.6992 13.4062 90.5625 13.707 90.5625 14.0625C90.5625 14.418 90.6992 14.7188 90.9727 14.9648Z" transform="translate(-86 1)" fill="#FF8B8D"/>
</svg>
