<svg width="40" height="39" viewBox="0 0 40 39" fill="none" xmlns="http://www.w3.org/2000/svg">
<path d="M94.8691 38.6309C95.0059 38.7402 95.1562 38.8359 95.3203 38.918C95.4844 38.9727 95.6484 39 95.8125 39C95.9766 39 96.1406 38.9727 96.3047 38.918C96.4688 38.8359 96.6191 38.7402 96.7559 38.6309L105.656 29.6895L113.244 37.3184C113.299 37.373 113.354 37.4277 113.408 37.4824C113.49 37.5098 113.572 37.5371 113.654 37.5645C113.682 37.5645 113.709 37.5781 113.736 37.6055C113.764 37.6055 113.791 37.6055 113.818 37.6055C113.846 37.6328 113.873 37.6465 113.9 37.6465C113.928 37.6465 113.955 37.6602 113.982 37.6875L123.17 39C123.225 39 123.266 39 123.293 39C123.32 39 123.348 39 123.375 39C123.539 39 123.703 38.9727 123.867 38.918C124.031 38.8359 124.182 38.7402 124.318 38.6309C124.455 38.4668 124.551 38.2891 124.605 38.0977C124.688 37.9062 124.715 37.7012 124.688 37.4824L123.375 28.2949C123.375 28.2676 123.361 28.2402 123.334 28.2129C123.334 28.1855 123.32 28.1582 123.293 28.1309C123.293 28.1035 123.279 28.0762 123.252 28.0488C123.252 28.0215 123.252 27.9941 123.252 27.9668C123.225 27.8848 123.184 27.8164 123.129 27.7617C123.102 27.6797 123.061 27.6113 123.006 27.5566L115.377 19.9688L123.006 12.3809C123.252 12.1074 123.375 11.793 123.375 11.4375C123.375 11.082 123.252 10.7676 123.006 10.4941L113.818 1.30664C113.545 1.06055 113.23 0.9375 112.875 0.9375C112.52 0.9375 112.205 1.06055 111.932 1.30664L104.344 8.93555L96.7559 1.30664C96.4824 1.06055 96.168 0.9375 95.8125 0.9375C95.457 0.9375 95.1426 1.06055 94.8691 1.30664L86.9941 9.18164C86.748 9.45508 86.625 9.76953 86.625 10.125C86.625 10.4805 86.748 10.7949 86.9941 11.0684L94.623 18.6562L85.6816 27.5566C85.4355 27.8301 85.3125 28.1445 85.3125 28.5C85.3125 28.8555 85.4355 29.1699 85.6816 29.4434L94.8691 38.6309ZM116.977 35.4316L121.119 31.2891L121.816 36.1289L116.977 35.4316ZM120.217 28.5L114.188 34.5293L107.502 27.8438L113.531 21.8145L120.217 28.5ZM96.4688 16.8105L93.7207 14.0625L99.75 8.0332L102.498 10.7812L96.4688 16.8105ZM95.8125 4.0957L97.9043 6.1875L91.875 12.2168L89.7832 10.125L95.8125 4.0957ZM91.875 25.0957L94.8691 28.1309C95.0059 28.2402 95.1562 28.3359 95.3203 28.418C95.4844 28.4727 95.6484 28.5 95.8125 28.5C95.9766 28.5 96.1406 28.4727 96.3047 28.418C96.4688 28.3359 96.6191 28.2402 96.7559 28.1309C97.002 27.8574 97.125 27.543 97.125 27.1875C97.125 26.832 97.002 26.5176 96.7559 26.2441L93.7207 23.25L95.8125 21.1582L97.4941 22.8809C97.6309 22.9902 97.7812 23.0859 97.9453 23.168C98.1094 23.2227 98.2734 23.25 98.4375 23.25C98.6016 23.25 98.7656 23.2227 98.9297 23.168C99.0938 23.0859 99.2441 22.9902 99.3809 22.8809C99.627 22.6074 99.75 22.293 99.75 21.9375C99.75 21.582 99.627 21.2676 99.3809 20.9941L97.6582 19.3125L99.75 17.2207L102.744 20.2559C102.881 20.3652 103.031 20.4609 103.195 20.543C103.359 20.5977 103.523 20.625 103.688 20.625C103.852 20.625 104.016 20.5977 104.18 20.543C104.344 20.4609 104.494 20.3652 104.631 20.2559C104.877 19.9824 105 19.668 105 19.3125C105 18.957 104.877 18.6426 104.631 18.3691L101.596 15.375L103.688 13.2832L105.369 15.0059C105.506 15.1152 105.656 15.2109 105.82 15.293C105.984 15.3477 106.148 15.375 106.312 15.375C106.477 15.375 106.641 15.3477 106.805 15.293C106.969 15.2109 107.119 15.1152 107.256 15.0059C107.502 14.7324 107.625 14.418 107.625 14.0625C107.625 13.707 107.502 13.3926 107.256 13.1191L105.533 11.4375L107.625 9.3457L110.619 12.3809C110.756 12.4902 110.906 12.5859 111.07 12.668C111.234 12.7227 111.398 12.75 111.562 12.75C111.727 12.75 111.891 12.7227 112.055 12.668C112.219 12.5859 112.369 12.4902 112.506 12.3809C112.752 12.1074 112.875 11.793 112.875 11.4375C112.875 11.082 112.752 10.7676 112.506 10.4941L109.471 7.5L112.875 4.0957L120.217 11.4375L95.8125 35.8418L88.4707 28.5L91.875 25.0957Z" transform="translate(-85)" fill="#8667F7"/>
</svg>
