<svg width="40" height="33" viewBox="0 0 40 33" fill="none" xmlns="http://www.w3.org/2000/svg">
<path d="M93.5566 29.4434C93.6934 29.5527 93.8438 29.6484 94.0078 29.7305C94.1719 29.7852 94.3359 29.8125 94.5 29.8125C94.6641 29.8125 94.8281 29.7852 94.9922 29.7305C95.1562 29.6484 95.3066 29.5527 95.4434 29.4434C95.6895 29.1699 95.8125 28.8555 95.8125 28.5C95.8125 28.1445 95.6895 27.8301 95.4434 27.5566L88.4707 20.625L95.4434 13.6934C95.6895 13.4199 95.8125 13.1055 95.8125 12.75C95.8125 12.3945 95.6895 12.0801 95.4434 11.8066C95.1699 11.5605 94.8555 11.4375 94.5 11.4375C94.1445 11.4375 93.8301 11.5605 93.5566 11.8066L85.6816 19.6816C85.4355 19.9551 85.3125 20.2695 85.3125 20.625C85.3125 20.9805 85.4355 21.2949 85.6816 21.5684L93.5566 29.4434ZM114.557 29.4434C114.693 29.5527 114.844 29.6484 115.008 29.7305C115.172 29.7852 115.336 29.8125 115.5 29.8125C115.664 29.8125 115.828 29.7852 115.992 29.7305C116.156 29.6484 116.307 29.5527 116.443 29.4434L124.318 21.5684C124.564 21.2949 124.688 20.9805 124.688 20.625C124.688 20.2695 124.564 19.9551 124.318 19.6816L116.443 11.8066C116.17 11.5605 115.855 11.4375 115.5 11.4375C115.145 11.4375 114.83 11.5605 114.557 11.8066C114.311 12.0801 114.188 12.3945 114.188 12.75C114.188 13.1055 114.311 13.4199 114.557 13.6934L121.529 20.625L114.557 27.5566C114.311 27.8301 114.188 28.1445 114.188 28.5C114.188 28.8555 114.311 29.1699 114.557 29.4434ZM109.02 5.73633L98.5195 34.6113C98.3828 34.9668 98.3965 35.3086 98.5605 35.6367C98.7246 35.9648 98.9707 36.1836 99.2988 36.293C99.3809 36.3203 99.4492 36.3477 99.5039 36.375C99.5859 36.375 99.668 36.375 99.75 36.375C100.023 36.375 100.27 36.3066 100.488 36.1699C100.734 36.0059 100.898 35.7871 100.98 35.5137L111.48 6.63867C111.617 6.2832 111.604 5.94141 111.439 5.61328C111.275 5.28516 111.029 5.06641 110.701 4.95703C110.373 4.82031 110.031 4.83398 109.676 4.99805C109.348 5.16211 109.129 5.4082 109.02 5.73633Z" transform="translate(-85 -4)" fill="#1CEBBC"/>
</svg>
