<svg width="42" height="43" viewBox="0 0 42 43" fill="none" xmlns="http://www.w3.org/2000/svg">
<path d="M124.688 4.875H106.312C105.957 4.875 105.643 5.01172 105.369 5.28516C105.123 5.53125 105 5.83203 105 6.1875C105 6.54297 105.123 6.85742 105.369 7.13086C105.643 7.37695 105.957 7.5 106.312 7.5H124.688C125.043 7.5 125.344 7.37695 125.59 7.13086C125.863 6.85742 126 6.54297 126 6.1875C126 5.83203 125.863 5.53125 125.59 5.28516C125.344 5.01172 125.043 4.875 124.688 4.875ZM84 6.1875C84 6.54297 84.123 6.85742 84.3691 7.13086C84.6426 7.37695 84.957 7.5 85.3125 7.5H89.373C89.6738 9.00391 90.4258 10.2617 91.6289 11.2734C92.832 12.2578 94.2266 12.75 95.8125 12.75C97.6172 12.75 99.1621 12.1074 100.447 10.8223C101.732 9.53711 102.375 7.99219 102.375 6.1875C102.375 4.38281 101.732 2.83789 100.447 1.55273C99.1621 0.267578 97.6172 -0.375 95.8125 -0.375C94.2266 -0.375 92.832 0.130859 91.6289 1.14258C90.4258 2.12695 89.6738 3.37109 89.373 4.875H85.3125C84.957 4.875 84.6426 5.01172 84.3691 5.28516C84.123 5.53125 84 5.83203 84 6.1875ZM95.8125 2.25C96.9062 2.25 97.8359 2.63281 98.6016 3.39844C99.3672 4.16406 99.75 5.09375 99.75 6.1875C99.75 7.28125 99.3672 8.21094 98.6016 8.97656C97.8359 9.74219 96.9062 10.125 95.8125 10.125C94.7188 10.125 93.7891 9.74219 93.0234 8.97656C92.2578 8.21094 91.875 7.28125 91.875 6.1875C91.875 5.09375 92.2578 4.16406 93.0234 3.39844C93.7891 2.63281 94.7188 2.25 95.8125 2.25ZM124.688 19.3125H120.75C120.395 19.3125 120.08 19.4492 119.807 19.7227C119.561 19.9688 119.438 20.2695 119.438 20.625C119.438 20.9805 119.561 21.2949 119.807 21.5684C120.08 21.8145 120.395 21.9375 120.75 21.9375H124.688C125.043 21.9375 125.344 21.8145 125.59 21.5684C125.863 21.2949 126 20.9805 126 20.625C126 20.2695 125.863 19.9688 125.59 19.7227C125.344 19.4492 125.043 19.3125 124.688 19.3125ZM85.3125 21.9375H103.811C104.111 23.4414 104.863 24.6992 106.066 25.7109C107.27 26.6953 108.664 27.1875 110.25 27.1875C112.055 27.1875 113.6 26.5449 114.885 25.2598C116.17 23.9746 116.812 22.4297 116.812 20.625C116.812 18.8203 116.17 17.2754 114.885 15.9902C113.6 14.7051 112.055 14.0625 110.25 14.0625C108.664 14.0625 107.27 14.5684 106.066 15.5801C104.863 16.5645 104.111 17.8086 103.811 19.3125H85.3125C84.957 19.3125 84.6426 19.4492 84.3691 19.7227C84.123 19.9688 84 20.2695 84 20.625C84 20.9805 84.123 21.2949 84.3691 21.5684C84.6426 21.8145 84.957 21.9375 85.3125 21.9375ZM110.25 16.6875C111.344 16.6875 112.273 17.0703 113.039 17.8359C113.805 18.6016 114.188 19.5312 114.188 20.625C114.188 21.7188 113.805 22.6484 113.039 23.4141C112.273 24.1797 111.344 24.5625 110.25 24.5625C109.156 24.5625 108.227 24.1797 107.461 23.4141C106.695 22.6484 106.312 21.7188 106.312 20.625C106.312 19.5312 106.695 18.6016 107.461 17.8359C108.227 17.0703 109.156 16.6875 110.25 16.6875ZM124.688 33.75H106.312C105.957 33.75 105.643 33.8867 105.369 34.1602C105.123 34.4062 105 34.707 105 35.0625C105 35.418 105.123 35.7324 105.369 36.0059C105.643 36.252 105.957 36.375 106.312 36.375H124.688C125.043 36.375 125.344 36.252 125.59 36.0059C125.863 35.7324 126 35.418 126 35.0625C126 34.707 125.863 34.4062 125.59 34.1602C125.344 33.8867 125.043 33.75 124.688 33.75ZM85.3125 36.375H89.373C89.6738 37.8789 90.4258 39.123 91.6289 40.1074C92.832 41.1191 94.2266 41.625 95.8125 41.625C97.6172 41.625 99.1621 40.9824 100.447 39.6973C101.732 38.4121 102.375 36.8672 102.375 35.0625C102.375 33.2578 101.732 31.7129 100.447 30.4277C99.1621 29.1426 97.6172 28.5 95.8125 28.5C94.2266 28.5 92.832 29.0059 91.6289 30.0176C90.4258 31.002 89.6738 32.2461 89.373 33.75H85.3125C84.957 33.75 84.6426 33.8867 84.3691 34.1602C84.123 34.4062 84 34.707 84 35.0625C84 35.418 84.123 35.7324 84.3691 36.0059C84.6426 36.252 84.957 36.375 85.3125 36.375ZM95.8125 31.125C96.9062 31.125 97.8359 31.5078 98.6016 32.2734C99.3672 33.0391 99.75 33.9688 99.75 35.0625C99.75 36.1562 99.3672 37.0859 98.6016 37.8516C97.8359 38.6172 96.9062 39 95.8125 39C94.7188 39 93.7891 38.6172 93.0234 37.8516C92.2578 37.0859 91.875 36.1562 91.875 35.0625C91.875 33.9688 92.2578 33.0391 93.0234 32.2734C93.7891 31.5078 94.7188 31.125 95.8125 31.125Z" transform="translate(-84 1)" fill="#64ECF5"/>
</svg>
