<svg width="120" height="40" viewBox="0 0 120 40" fill="none" xmlns="http://www.w3.org/2000/svg">
<rect width="119.2" height="40" fill="#8667F7"/>
<path d="M9.56097 11.9084C9.4718 11.9383 9.41236 12.0132 9.38264 12.133C9.35291 12.2229 9.30833 12.3278 9.24889 12.4476C9.24889 12.4776 9.26375 12.4925 9.29347 12.4925C9.08542 12.852 8.93681 13.1067 8.84764 13.2565C8.75848 13.4063 8.62473 13.6909 8.4464 14.1103C8.41668 14.2001 8.35723 14.29 8.26807 14.3799C8.20862 14.7394 8.07488 15.0989 7.86682 15.4584C7.68849 15.8179 7.53988 16.1924 7.421 16.5818C7.89655 16.1624 8.41668 15.6831 8.98139 15.1438C9.54611 14.5746 10.1703 14.1253 10.8539 13.7957C11.0025 13.7358 11.1362 13.6909 11.2551 13.6609C11.4037 13.601 11.5375 13.556 11.6564 13.5261C11.7158 13.4961 11.7604 13.4961 11.7901 13.5261C11.8198 13.5261 11.8644 13.5111 11.9239 13.4812C11.9536 13.4812 11.9684 13.4662 11.9684 13.4362C11.9684 13.4362 11.9833 13.4212 12.013 13.3913C12.1022 13.3613 12.2062 13.3763 12.3251 13.4362C12.444 13.4662 12.5629 13.4812 12.6818 13.4812C12.7709 13.4812 12.8601 13.4662 12.9493 13.4362C13.0681 13.4063 13.187 13.3763 13.3059 13.3463C13.5437 13.4063 13.7369 13.5261 13.8855 13.7058C14.0638 13.8556 14.2124 14.0354 14.3313 14.2451C14.4799 14.305 14.5988 14.3499 14.688 14.3799C14.7771 14.4099 14.8663 14.4698 14.9555 14.5596C15.0149 14.5596 15.0001 14.5297 14.9109 14.4698C14.8217 14.3799 14.8069 14.32 14.8663 14.29L15.4459 14.5596C15.4459 14.7094 15.4905 14.7993 15.5796 14.8293C15.6391 15.1288 15.7282 15.4135 15.8471 15.6831C15.966 15.9227 16.0255 16.2223 16.0255 16.5818C15.9957 17.6004 15.8323 18.574 15.5351 19.5027C15.2676 20.4015 14.9852 21.1954 14.688 21.8844C13.9152 23.5621 13.0384 25.015 12.0576 26.2433C11.0768 27.4716 9.87305 28.5051 8.4464 29.344C8.41668 29.344 8.40182 29.329 8.40182 29.299C8.40182 29.2691 8.38696 29.2541 8.35723 29.2541C8.03029 29.314 7.7628 29.4039 7.55474 29.5237H7.37641C7.13864 29.5836 6.79684 29.5537 6.35101 29.4339C5.93491 29.314 5.60797 29.314 5.37019 29.4339C5.28103 29.2241 5.11756 29.0893 4.87978 29.0294C4.67173 28.9995 4.50826 28.9096 4.38937 28.7598C4.38937 28.7298 4.40423 28.7149 4.43395 28.7149C4.46368 28.7448 4.4934 28.7448 4.52312 28.7149C4.52312 28.5651 4.46368 28.4752 4.34479 28.4452C4.2259 28.3853 4.1516 28.2805 4.12188 28.1307C3.8841 28.0708 3.75035 27.921 3.72063 27.6813C3.72063 27.4416 3.69091 27.2319 3.63147 27.0522C3.66119 27.0222 3.69091 27.0222 3.72063 27.0522C3.75035 27.0522 3.78007 27.0372 3.8098 27.0072C3.86924 26.8575 3.8841 26.7376 3.85438 26.6477C3.82466 26.5279 3.78007 26.3631 3.72063 26.1534C3.75035 26.1534 3.78007 26.1684 3.8098 26.1984C3.98813 26.0186 4.19618 25.9138 4.43395 25.8838C4.4934 25.8239 4.50826 25.749 4.47854 25.6591C4.47854 25.5693 4.53798 25.5243 4.65687 25.5243C4.62715 25.5842 4.59742 25.6292 4.5677 25.6591C4.53798 25.6891 4.55284 25.734 4.61228 25.7939C4.67173 25.734 4.73117 25.7041 4.79062 25.7041C4.87978 25.6741 4.92436 25.6142 4.92436 25.5243C5.01353 25.5842 5.05811 25.6441 5.05811 25.7041C5.05811 25.764 5.08783 25.8239 5.14728 25.8838C5.20672 26.1834 5.29589 26.4231 5.41477 26.6028C5.56338 26.7826 5.72685 26.9473 5.90518 27.0971C6.58879 27.0072 7.12378 26.7676 7.51016 26.3781C7.56961 26.3182 7.56961 26.2882 7.51016 26.2882C7.48044 26.2882 7.46558 26.2583 7.46558 26.1984C7.91141 25.9587 8.28293 25.7041 8.58015 25.4344C8.90709 25.1349 9.21917 24.8203 9.51638 24.4908C9.51638 24.4009 9.53125 24.341 9.56097 24.311C9.59069 24.2811 9.60555 24.2361 9.60555 24.1762C9.87305 23.9365 10.096 23.6669 10.2743 23.3673C10.4526 23.0378 10.6607 22.7382 10.8984 22.4686L11.3443 21.5698C11.3146 21.45 11.3294 21.3601 11.3889 21.3002C11.478 21.2103 11.5523 21.1355 11.6118 21.0755C11.6415 21.0456 11.6861 20.9407 11.7455 20.761C11.7752 20.761 11.805 20.746 11.8347 20.716C11.8941 20.5662 11.9387 20.4314 11.9684 20.3116C11.9982 20.1918 12.0576 20.1019 12.1468 20.042C12.3845 19.323 12.6223 18.6339 12.8601 17.9749C13.0979 17.3158 13.2316 16.5069 13.2613 15.5483C12.8155 15.6681 12.3994 15.8928 12.013 16.2223C11.6266 16.5219 11.2402 16.8365 10.8539 17.166C10.4972 17.4356 10.1257 17.7352 9.7393 18.0647C9.35291 18.3943 8.96653 18.7238 8.58015 19.0534C7.95599 19.7424 7.31697 20.4614 6.66309 21.2103C6.00921 21.9293 5.35533 22.6783 4.70145 23.4572C4.28535 24.1462 3.86924 24.7754 3.45313 25.3446C3.03703 25.9138 2.72495 26.6328 2.5169 27.5016C2.45745 27.5914 2.39801 27.6813 2.33857 27.7712C2.27912 27.861 2.18996 27.921 2.07107 27.9509C2.07107 28.0108 2.05621 28.0708 2.02649 28.1307C1.99677 28.1606 1.99677 28.2355 2.02649 28.3554C1.96704 28.4153 1.9076 28.4752 1.84816 28.5351C1.78871 28.595 1.74413 28.6699 1.71441 28.7598C1.5658 28.7598 1.52122 28.7298 1.58066 28.6699C1.61038 28.61 1.55094 28.595 1.40233 28.625C1.37261 28.6549 1.37261 28.6849 1.40233 28.7149C1.40233 28.7748 1.38747 28.8197 1.35775 28.8497C1.14969 28.8796 1.06053 28.8347 1.09025 28.7149C1.09025 28.625 1.03081 28.64 0.911919 28.7598C0.852476 28.7298 0.807893 28.6849 0.778171 28.625C0.718727 28.5351 0.659284 28.4602 0.59984 28.4003C0.540397 28.2505 0.495814 28.1307 0.466092 28.0408C0.406648 27.9509 0.391787 27.8311 0.421509 27.6813L0.0648476 27.3667C-0.0540397 26.6777 -0.00945697 26.0785 0.198596 25.5693C0.406648 25.06 0.614701 24.5207 0.822754 23.9515C0.971363 23.4422 1.13483 22.9779 1.31316 22.5585C1.49149 22.1091 1.68469 21.6597 1.89274 21.2103C2.07107 20.8808 2.23454 20.5513 2.38315 20.2217C2.50204 19.8622 2.63578 19.4878 2.78439 19.0983C2.90328 18.8586 3.00731 18.619 3.09647 18.3793C3.21536 18.1097 3.33425 17.8101 3.45313 17.4806C3.57202 17.3607 3.64633 17.2559 3.67605 17.166C3.67605 17.136 3.67605 17.1211 3.67605 17.1211C3.70577 17.0911 3.72063 17.0462 3.72063 16.9863C3.95841 16.3571 4.21104 15.728 4.47854 15.0989C4.77575 14.4698 5.07297 13.8556 5.37019 13.2565C5.45936 12.9569 5.57824 12.6723 5.72685 12.4027C5.87546 12.1031 6.02407 11.7885 6.17268 11.459C6.23212 11.3092 6.29157 11.1894 6.35101 11.0995C6.41045 10.9797 6.42532 10.8448 6.39559 10.695L6.66309 10.3356C6.69281 10.2756 6.69281 10.2157 6.66309 10.1558C6.66309 10.0959 6.67795 10.036 6.70767 9.97605L6.93059 9.84124C6.93059 9.78133 6.96031 9.66149 7.01975 9.48174C7.0792 9.36191 7.12378 9.27204 7.1535 9.21212C7.21294 9.12225 7.25753 9.04735 7.28725 8.98744C7.28725 8.89756 7.30211 8.83765 7.33183 8.80769C7.36155 8.77773 7.36155 8.76275 7.33183 8.76275C7.33183 8.76275 7.34669 8.73279 7.37641 8.67287C7.46558 8.583 7.51016 8.52308 7.51016 8.49313C7.53988 8.46317 7.55474 8.38827 7.55474 8.26844C7.61419 8.17857 7.65877 8.07371 7.68849 7.95388C7.74794 7.83405 7.80738 7.74417 7.86682 7.68426C7.92627 7.53447 7.98571 7.41463 8.04515 7.32476C8.1046 7.20493 8.16404 7.11505 8.22348 7.05514C8.28293 6.81547 8.37209 6.66568 8.49098 6.60576C8.49098 6.57581 8.50584 6.54585 8.53556 6.51589C8.56529 6.48593 8.58015 6.45597 8.58015 6.42602C8.84764 5.91673 9.10028 5.34752 9.33805 4.7184C9.57583 4.05933 9.88791 3.47514 10.2743 2.96585C10.3337 2.90594 10.3486 2.87598 10.3189 2.87598C10.3189 2.87598 10.3189 2.861 10.3189 2.83104C10.4378 2.71121 10.5418 2.53146 10.631 2.2918C10.7498 2.02217 10.8836 1.78251 11.0322 1.5728C11.2105 1.36309 11.3889 1.2133 11.5672 1.12343C11.7752 1.0036 12.0279 1.03356 12.3251 1.2133C12.3845 1.18335 12.3994 1.19833 12.3697 1.25824C12.3697 1.2882 12.3697 1.31816 12.3697 1.34811C12.3994 1.37807 12.444 1.37807 12.5034 1.34811C12.5629 1.31816 12.6223 1.2882 12.6818 1.25824C12.6818 1.2882 12.652 1.31816 12.5926 1.34811C12.5629 1.34811 12.5629 1.36309 12.5926 1.39305C12.8304 1.42301 12.9493 1.45297 12.9493 1.48293C12.9493 1.51288 13.0681 1.54284 13.3059 1.5728C13.2762 1.72259 13.3356 1.84242 13.4842 1.9323C13.6626 1.99222 13.7815 2.06711 13.8409 2.15698C13.9895 2.51648 14.0044 2.7861 13.8855 2.96585C13.7963 3.11564 13.6923 3.26543 13.5734 3.41522C13.6031 3.47514 13.5734 3.53506 13.4842 3.59497C13.4248 3.62493 13.3654 3.66987 13.3059 3.72979C13.3356 3.87958 13.3059 3.99941 13.2168 4.08928C13.1276 4.1492 13.1127 4.26903 13.1722 4.44878C13.0533 4.41882 12.9493 4.52368 12.8601 4.76334C12.7709 5.00301 12.6966 5.13782 12.6372 5.16778C12.6372 5.25765 12.6223 5.31756 12.5926 5.34752C12.5629 5.37748 12.5777 5.4374 12.6372 5.52727C12.5777 5.64711 12.4737 5.76694 12.3251 5.88677C12.2062 5.97664 12.1468 6.09648 12.1468 6.24627C12.1468 6.21631 12.117 6.21631 12.0576 6.24627C11.9684 6.48593 11.9536 6.6507 12.013 6.74058C11.8941 6.80049 11.7901 6.83045 11.7009 6.83045C11.7009 6.89037 11.6861 6.9353 11.6564 6.96526C11.6564 6.99522 11.6712 7.04016 11.7009 7.10007C11.6118 7.13003 11.5672 7.18995 11.5672 7.27982C11.5672 7.33974 11.5375 7.38468 11.478 7.41463C11.478 7.62434 11.4186 7.75915 11.2997 7.81907C11.3591 7.96886 11.3294 8.13363 11.2105 8.31338C11.1214 8.49313 11.0768 8.68785 11.0768 8.89756C11.0471 8.92752 10.9876 8.97246 10.8984 9.03237C10.839 9.09229 10.8241 9.13723 10.8539 9.16718C10.7944 9.31697 10.7053 9.46676 10.5864 9.61656C10.4972 9.76635 10.4526 9.91614 10.4526 10.0659C10.3635 10.3356 10.2446 10.5752 10.096 10.7849C9.97707 10.9647 9.88791 11.2193 9.82846 11.5489L9.65013 11.6837C9.59069 11.7436 9.56097 11.7885 9.56097 11.8185C9.59069 11.8185 9.59069 11.8484 9.56097 11.9084ZM5.63769 20.3565C5.81602 20.057 6.11324 19.6675 6.52934 19.1882C6.97517 18.7088 7.45072 18.2295 7.95599 17.7502C8.46126 17.2409 8.95167 16.7765 9.42722 16.3571C9.93249 15.9377 10.3486 15.6232 10.6755 15.4135V15.3685C9.75416 16.0875 8.99625 16.6867 8.40182 17.166C7.8371 17.6154 7.36155 18.0198 6.97517 18.3793C6.61851 18.7088 6.33615 19.0234 6.1281 19.323C5.92005 19.6226 5.75658 19.9671 5.63769 20.3565ZM10.2297 14.4698C10.1703 14.5297 10.096 14.5596 10.0068 14.5596C9.91763 14.5596 9.85818 14.5896 9.82846 14.6495C9.44208 14.9791 9.04084 15.3236 8.62473 15.6831C8.23835 16.0426 7.92627 16.3721 7.68849 16.6717C7.80738 16.6118 7.89655 16.5369 7.95599 16.447C8.04515 16.3571 8.13432 16.2523 8.22348 16.1324C8.34237 15.9827 8.46126 15.8628 8.58015 15.7729C8.69903 15.6831 8.83278 15.5932 8.98139 15.5033C9.10028 15.4135 9.20431 15.3236 9.29347 15.2337C9.41236 15.1438 9.50152 15.039 9.56097 14.9191C9.65013 14.9191 9.70958 14.9042 9.7393 14.8742C9.76902 14.8442 9.8136 14.7993 9.87305 14.7394C9.99193 14.7094 10.096 14.6645 10.1851 14.6046C10.2743 14.5447 10.3486 14.4847 10.408 14.4248C10.4675 14.3649 10.5269 14.32 10.5864 14.29C10.6755 14.2301 10.735 14.1402 10.7647 14.0204C10.6161 14.0803 10.5121 14.1552 10.4526 14.2451C10.3932 14.335 10.3189 14.4099 10.2297 14.4698ZM14.7771 14.2451C14.7177 14.275 14.6285 14.2601 14.5096 14.2001C14.4205 14.1402 14.3313 14.0803 14.2422 14.0204C14.3908 13.9605 14.4948 13.9755 14.5542 14.0653C14.6434 14.1552 14.7177 14.2151 14.7771 14.2451ZM7.33183 17.0761C7.48044 16.9863 7.53988 16.8964 7.51016 16.8065C7.48044 16.8664 7.43586 16.9114 7.37641 16.9413C7.34669 16.9713 7.33183 17.0162 7.33183 17.0761ZM10.8093 14.0204C10.8093 14.0504 10.8241 14.0653 10.8539 14.0653L10.8984 14.0204V13.9305C10.839 13.9305 10.8093 13.9605 10.8093 14.0204ZM8.98139 16.5818C9.01111 16.5519 9.02597 16.5369 9.02597 16.5369C9.0557 16.5369 9.08542 16.5069 9.11514 16.447C9.02597 16.5369 8.98139 16.5818 8.98139 16.5818Z" transform="translate(8 4)" fill="white"/>
<path d="M26.1858 18.6939C26.1858 18.6939 26.2007 18.7088 26.2304 18.7388L26.587 18.4692C26.9734 18.0498 27.3598 17.6154 27.7462 17.166C28.1326 16.7166 28.4892 16.2673 28.8162 15.8179C28.9648 15.758 29.0688 15.6681 29.1283 15.5483C29.2174 15.4284 29.366 15.3985 29.5741 15.4584C29.7227 15.3985 29.8416 15.2936 29.9307 15.1438C30.0199 14.9641 30.1239 14.8442 30.2428 14.7843C30.4212 14.7843 30.5252 14.7694 30.5549 14.7394C30.6143 14.7694 30.5995 14.8592 30.5103 15.009C30.4212 15.1288 30.3171 15.2637 30.1982 15.4135C30.1091 15.5333 30.0348 15.6531 29.9753 15.7729C29.9159 15.8928 29.9307 15.9377 30.0199 15.9078C30.0794 15.9078 30.1388 15.8778 30.1982 15.8179C30.2577 15.758 30.3468 15.728 30.4657 15.728C30.5549 15.6981 30.6143 15.6981 30.6441 15.728C30.7035 15.758 30.763 15.743 30.8224 15.6831C30.7927 15.7729 30.7481 15.8778 30.6886 15.9976C30.6589 16.0875 30.6441 16.1774 30.6441 16.2673C30.6441 16.2972 30.7035 16.3122 30.8224 16.3122C30.7927 16.4919 30.7332 16.6567 30.6441 16.8065C30.5549 16.9563 30.4806 17.1061 30.4212 17.2559C30.0942 17.7052 29.797 18.0947 29.5295 18.4242C29.262 18.7538 28.9945 19.0683 28.727 19.3679C28.4892 19.6675 28.2217 19.9821 27.9245 20.3116C27.657 20.6112 27.3449 20.9857 26.9883 21.435C26.9288 21.465 26.8991 21.4949 26.8991 21.5249C26.8991 21.5249 26.8694 21.5249 26.81 21.5249C26.0966 22.5734 25.3684 23.577 24.6254 24.5357C23.8824 25.4644 23.065 26.3332 22.1733 27.1421L22.1288 27.3218C22.099 27.3518 22.0545 27.4416 21.995 27.5914C21.7572 27.8011 21.5046 27.9959 21.2371 28.1756C20.9696 28.3254 20.7318 28.5201 20.5238 28.7598C20.4941 28.7898 20.5238 28.8047 20.613 28.8047C20.4346 29.0444 20.1225 29.2092 19.6767 29.299C19.2606 29.3889 18.8742 29.4488 18.5176 29.4788C18.0123 29.5387 17.4922 29.5087 16.9572 29.3889C16.4519 29.2691 16.0952 29.0444 15.8872 28.7149C15.59 28.595 15.3373 28.3554 15.1293 27.9959C14.9509 27.5165 14.8618 27.0222 14.8618 26.5129C14.8618 25.9737 14.9212 25.4494 15.0401 24.9401C15.1293 24.4009 15.263 23.8766 15.4414 23.3673C15.6197 22.858 15.8129 22.3787 16.0209 21.9293C16.1101 21.6897 16.1844 21.465 16.2438 21.2553C16.3033 21.0456 16.3925 20.8209 16.5113 20.5812C16.8383 19.8023 17.2247 19.0234 17.6705 18.2445C18.1163 17.4656 18.5176 16.7166 18.8742 15.9976L19.855 14.1552C20.0631 13.8257 20.2563 13.5411 20.4346 13.3014C20.6427 13.0318 20.8061 12.7472 20.925 12.4476V12.3128C21.1925 12.3128 21.3857 12.163 21.5046 11.8634C21.5641 11.8335 21.6384 11.8185 21.7275 11.8185C21.8464 11.8185 21.9356 11.7885 21.995 11.7286C22.2922 11.7586 22.5597 11.8335 22.7975 11.9533C23.065 12.0432 23.3028 12.148 23.5108 12.2678C23.5703 12.4176 23.6892 12.5525 23.8675 12.6723C24.0755 12.7622 24.1647 12.9269 24.135 13.1666C24.135 13.1966 24.0755 13.3014 23.9567 13.4812C23.9269 13.5411 23.9121 13.586 23.9121 13.616C23.9418 13.6459 23.9418 13.6909 23.9121 13.7508C23.9121 13.8406 23.8675 13.8856 23.7783 13.8856V14.2001L23.4662 15.054C23.4662 15.1139 23.4662 15.1438 23.4662 15.1438C23.496 15.1139 23.5108 15.1288 23.5108 15.1888C23.3622 15.2187 23.2582 15.3086 23.1988 15.4584C23.169 15.5782 23.1096 15.6681 23.0204 15.728C23.0204 15.8179 23.0204 15.8628 23.0204 15.8628C22.9015 15.8928 22.8272 15.9527 22.7975 16.0426C22.7975 16.1025 22.7826 16.1624 22.7529 16.2223C22.5746 16.462 22.426 16.7017 22.3071 16.9413C22.2179 17.181 22.1139 17.4057 21.995 17.6154C21.9356 17.7052 21.9059 17.7652 21.9059 17.7951C21.9356 17.7951 21.9207 17.8251 21.8613 17.885C21.8613 17.915 21.8167 17.9299 21.7275 17.9299C21.6978 18.0498 21.6532 18.1546 21.5938 18.2445C21.5641 18.3044 21.5492 18.4093 21.5492 18.5591C21.4006 18.7088 21.2817 18.9186 21.1925 19.1882C21.1034 19.4278 20.9845 19.6226 20.8359 19.7724C20.5981 20.2816 20.4049 20.776 20.2563 21.2553C20.0185 21.7346 19.7659 22.199 19.4984 22.6483C19.2606 23.0977 19.0526 23.5471 18.8742 23.9965L18.6959 24.8952C18.577 25.1948 18.473 25.5093 18.3838 25.8389C18.2947 26.1684 18.2649 26.5129 18.2947 26.8724C18.7702 26.6627 19.1863 26.3482 19.543 25.9288C20.078 25.4794 20.613 24.9851 21.1479 24.4458C21.6829 23.8766 22.2031 23.3074 22.7083 22.7382C22.7678 22.7083 22.7975 22.6933 22.7975 22.6933C22.8272 22.6633 22.8718 22.6483 22.9313 22.6483C23.1096 22.4087 23.2879 22.169 23.4662 21.9293C23.6446 21.6897 23.8526 21.45 24.0904 21.2103C24.2687 21.0905 24.4173 20.9557 24.5362 20.8059C24.6551 20.6262 24.774 20.4314 24.8929 20.2217C24.9523 20.1618 25.0118 20.1169 25.0712 20.0869C25.1604 20.027 25.2347 19.9671 25.2941 19.9072C25.413 19.6675 25.5616 19.4728 25.74 19.323C25.948 19.1432 26.0966 18.9335 26.1858 18.6939ZM25.2496 8.583C25.1604 8.64292 25.0712 8.73279 24.9821 8.85262C24.8335 8.85262 24.6997 8.85262 24.5808 8.85262C24.4619 8.85262 24.3282 8.88258 24.1796 8.9425C24.1499 8.9425 24.135 8.97246 24.135 9.03237L23.9567 8.89756V8.62794C23.7783 8.68785 23.6892 8.77773 23.6892 8.89756C23.6297 8.89756 23.6149 8.8676 23.6446 8.80769C23.704 8.71781 23.704 8.6579 23.6446 8.62794C23.5851 8.6579 23.5406 8.70283 23.5108 8.76275C23.5108 8.79271 23.4811 8.80769 23.4217 8.80769V8.62794C23.3622 8.62794 23.3325 8.64292 23.3325 8.67287C23.3919 8.25346 23.2136 8.04375 22.7975 8.04375C22.7975 7.89396 22.7678 7.81907 22.7083 7.81907C22.7083 7.30978 22.8272 6.78551 23.065 6.24627C23.1244 6.18635 23.1542 6.14141 23.1542 6.11145C23.1542 6.05154 23.169 6.0066 23.1988 5.97664C23.2879 5.91673 23.3771 5.85681 23.4662 5.7969C23.5851 5.70702 23.6446 5.58719 23.6446 5.4374C23.6743 5.46736 23.7486 5.48233 23.8675 5.48233C23.9269 5.42242 24.0161 5.33254 24.135 5.21271C24.2539 5.09288 24.343 5.10786 24.4025 5.25765C24.4619 5.28761 24.4768 5.28761 24.4471 5.25765C24.4471 5.22769 24.4619 5.21271 24.4916 5.21271C24.5511 5.27263 24.6105 5.30259 24.67 5.30259C24.6997 5.21271 24.774 5.1528 24.8929 5.12284C25.0415 5.09288 25.1901 5.10786 25.3387 5.16778C25.3387 5.22769 25.309 5.27263 25.2496 5.30259C25.2198 5.30259 25.2198 5.33254 25.2496 5.39246C25.6359 5.39246 25.8886 5.30259 26.0075 5.12284C26.0075 5.21271 26.0223 5.28761 26.052 5.34752C26.1115 5.37748 26.1561 5.42242 26.1858 5.48233C26.1264 5.51229 26.0966 5.57221 26.0966 5.66208C26.1264 5.75196 26.1709 5.82685 26.2304 5.88677C26.3493 5.82685 26.483 5.84183 26.6316 5.93171C26.81 6.02158 26.8991 6.14141 26.8991 6.2912C26.8991 6.32116 26.9288 6.33614 26.9883 6.33614C26.9883 6.39606 26.9883 6.441 26.9883 6.47095C27.018 6.47095 27.0329 6.50091 27.0329 6.56083C27.0031 6.50091 26.9734 6.47095 26.9437 6.47095C26.8843 6.59079 26.8248 6.71062 26.7654 6.83045C26.7356 6.95028 26.6613 7.07012 26.5425 7.18995C26.5425 7.21991 26.5722 7.23489 26.6316 7.23489C26.6911 7.23489 26.7208 7.24987 26.7208 7.27982C26.7208 7.27982 26.6465 7.27982 26.4979 7.27982C26.3195 7.51949 26.1115 7.75915 25.8737 7.99882C25.6359 8.20852 25.4427 8.47815 25.2941 8.80769C25.2347 8.80769 25.205 8.82267 25.205 8.85262C25.205 8.85262 25.1753 8.85262 25.1158 8.85262C25.205 8.76275 25.2496 8.67288 25.2496 8.583ZM24.0012 13.9755C24.0012 14.0054 23.9864 14.0354 23.9567 14.0653C23.9567 14.0653 23.9567 14.0953 23.9567 14.1552C23.8972 14.1852 23.8824 14.1552 23.9121 14.0653C23.9418 13.9755 23.9715 13.9455 24.0012 13.9755Z" transform="translate(8 4)" fill="white"/>
<path d="M43.5299 19.2331C43.8568 18.8437 44.1094 18.3943 44.2878 17.885C44.4958 17.3757 44.7336 16.9114 45.0011 16.4919C44.9714 16.6417 44.9268 16.7915 44.8673 16.9413C44.8376 17.0611 44.8079 17.196 44.7782 17.3458C44.7782 17.3458 44.793 17.3458 44.8228 17.3458C44.8228 17.4955 44.793 17.6453 44.7336 17.7951C44.6742 17.9449 44.6147 18.1097 44.5553 18.2894C44.6444 18.2295 44.7039 18.1546 44.7336 18.0647C44.7633 17.9749 44.8079 17.885 44.8673 17.7951C44.8971 17.9449 44.8673 18.0647 44.7782 18.1546C44.7187 18.2445 44.6742 18.3643 44.6444 18.5141C44.7336 18.3943 44.8079 18.2745 44.8673 18.1546C44.9268 18.0048 44.9862 17.855 45.0457 17.7052C45.1051 17.7652 45.1051 17.8251 45.0457 17.885C44.9862 17.9449 44.9862 17.9899 45.0457 18.0198C45.0754 18.0797 45.0903 18.0797 45.0903 18.0198C45.0903 17.9599 45.12 17.9299 45.1794 17.9299C45.0903 18.2894 44.9565 18.619 44.7782 18.9186C44.6296 19.1882 44.4958 19.4878 44.3769 19.8173C44.3769 19.8173 44.3918 19.8173 44.4215 19.8173C44.0946 20.6561 43.6933 21.45 43.2178 22.199C42.772 22.918 42.3261 23.637 41.8803 24.3559C41.7911 24.5357 41.6871 24.7005 41.5682 24.8503C41.4493 24.9701 41.3156 25.1049 41.167 25.2547C41.1373 25.5243 41.0184 25.7041 40.8103 25.7939C40.8103 25.9138 40.7509 26.0036 40.632 26.0636C40.5428 26.0935 40.4834 26.1684 40.4537 26.2882C40.2159 26.468 40.0078 26.6627 39.8295 26.8724C39.6809 27.0522 39.4877 27.2169 39.2499 27.3667L39.0716 27.5914C38.6555 27.8311 38.2691 28.1007 37.9124 28.4003C37.5855 28.6699 37.1843 28.8796 36.7087 29.0294C36.679 29.0893 36.679 29.1193 36.7087 29.1193C36.7384 29.1193 36.7384 29.1493 36.7087 29.2092C36.5898 29.329 36.4263 29.3739 36.2183 29.344C36.04 29.344 35.8765 29.3889 35.7279 29.4788H35.6833C35.5347 29.4788 35.3861 29.4938 35.2375 29.5237C35.0889 29.5537 34.9403 29.5836 34.7917 29.6136C34.7917 29.6136 34.8065 29.6286 34.8362 29.6585C34.5985 29.6585 34.4796 29.6136 34.4796 29.5237C34.4201 29.4938 34.3904 29.4938 34.3904 29.5237C34.3904 29.5537 34.3607 29.5687 34.3012 29.5687V29.4788C34.0635 29.5387 33.8257 29.5237 33.5879 29.4339C33.3501 29.344 33.1124 29.2691 32.8746 29.2092C32.726 29.0294 32.5477 28.8796 32.3396 28.7598C32.1613 28.64 31.9532 28.5051 31.7154 28.3554C31.7749 28.3254 31.8343 28.3554 31.8938 28.4452C31.9532 28.5051 32.0424 28.5501 32.1613 28.58C32.1018 28.4902 32.0275 28.4003 31.9384 28.3104C31.8492 28.1906 31.76 28.1007 31.6709 28.0408C31.3736 27.6214 31.1507 27.2469 31.0021 26.9174C30.8535 26.5579 30.7198 26.0935 30.6009 25.5243C30.5414 25.3146 30.4968 25.1798 30.4671 25.1199C30.4374 25.03 30.4523 24.8952 30.5117 24.7154C30.4523 24.296 30.3928 23.8766 30.3334 23.4572C30.3037 23.0078 30.2591 22.5585 30.1996 22.1091C29.6349 22.858 29.1148 23.637 28.6392 24.4458C28.1637 25.2547 27.6881 26.0785 27.2126 26.9174C27.2126 27.0672 27.1977 27.202 27.168 27.3218C27.0788 27.4117 27.0343 27.5315 27.0343 27.6813C27.0937 27.6813 27.1086 27.6663 27.0788 27.6364C27.0491 27.5764 27.064 27.5465 27.1234 27.5465C27.1531 27.5764 27.1531 27.6214 27.1234 27.6813C27.1234 27.7113 27.1234 27.7562 27.1234 27.8161C27.0937 27.8161 27.0788 27.8161 27.0788 27.8161C27.0788 27.7862 27.064 27.7712 27.0343 27.7712C27.0343 27.7712 27.0343 27.8461 27.0343 27.9959C27.0937 27.9359 27.1086 27.921 27.0788 27.9509C27.0788 27.9509 27.0937 27.9959 27.1234 28.0857H26.9897C26.9302 28.2056 26.9005 28.2954 26.9005 28.3554C26.9005 28.4153 26.8856 28.4902 26.8559 28.58C26.8262 28.5201 26.7816 28.5051 26.7222 28.5351C26.6925 28.5351 26.6776 28.5651 26.6776 28.625C26.6479 28.595 26.5587 28.5501 26.4101 28.4902C26.3209 28.5501 26.3061 28.61 26.3655 28.6699C26.2466 28.7298 26.1426 28.7298 26.0534 28.6699C25.9643 28.61 25.8751 28.61 25.7859 28.6699C25.7859 28.7298 25.8008 28.7598 25.8305 28.7598C25.8602 28.7598 25.89 28.7898 25.9197 28.8497C25.9197 28.9395 25.89 28.9995 25.8305 29.0294C25.7711 29.0594 25.7265 29.1193 25.6968 29.2092C25.5482 29.1193 25.4441 29.0294 25.3847 28.9395C25.2955 28.9995 25.2212 29.0893 25.1618 29.2092C25.1321 29.359 25.0578 29.4039 24.9389 29.344C25.0875 29.2841 25.1469 29.1942 25.1172 29.0744C25.2064 29.0444 25.2807 28.9395 25.3401 28.7598C25.2509 28.7298 25.2064 28.7898 25.2064 28.9395C25.1469 28.8796 25.1023 28.8197 25.0726 28.7598C25.0132 28.7298 24.9686 28.6849 24.9389 28.625C24.8794 28.6849 24.8348 28.7448 24.8051 28.8047C24.7754 28.8646 24.6862 28.8946 24.5376 28.8946C24.4782 28.7748 24.493 28.6699 24.5822 28.58C24.4633 28.5201 24.3593 28.5051 24.2701 28.5351C24.1512 28.5651 24.0472 28.5501 23.9581 28.4902C23.7797 28.1606 23.6906 27.7862 23.6906 27.3667C23.6906 26.9174 23.7203 26.5129 23.7797 26.1534L23.9135 25.7041L24.0026 25.2098C24.0918 24.9401 24.181 24.6555 24.2701 24.3559C24.3296 24.0264 24.4039 23.6969 24.493 23.3673C24.7011 22.7682 24.9091 22.184 25.1172 21.6148C25.3253 21.0156 25.5333 20.4165 25.7414 19.8173C26.0386 19.0384 26.3358 18.2595 26.633 17.4806C26.96 16.6717 27.3018 15.8928 27.6584 15.1438C27.6584 15.0839 27.6436 15.054 27.6138 15.054C27.6138 15.054 27.6138 15.024 27.6138 14.9641C27.6733 14.9341 27.703 14.9042 27.703 14.8742C27.703 14.8442 27.7327 14.8143 27.7922 14.7843C28.2083 13.616 28.6987 12.5225 29.2634 11.5039C29.8578 10.4554 30.4077 9.39187 30.913 8.31338C30.913 8.25346 30.913 8.25346 30.913 8.31338C30.913 8.34334 30.8981 8.34334 30.8684 8.31338C31.0467 7.92392 31.1805 7.54945 31.2696 7.18995C31.3885 6.80049 31.5371 6.39606 31.7154 5.97664C31.6857 6.12644 31.6709 6.27623 31.6709 6.42602C31.7006 6.54585 31.6857 6.66568 31.6263 6.78551C31.7749 6.54585 31.8789 6.30618 31.9384 6.06652C31.9978 5.7969 32.1018 5.49731 32.2504 5.16778C32.6665 4.47874 33.0975 3.74476 33.5433 2.96585C34.0189 2.15698 34.3904 1.31816 34.6579 0.449371V0.224686C34.6876 0.254643 34.7322 0.254643 34.7917 0.224686C34.8808 0.194728 34.97 0.179749 35.0591 0.179749C34.9997 0.299582 34.97 0.404435 34.97 0.494308C35.0294 0.494308 35.0591 0.479329 35.0591 0.449371C35.0889 0.389456 35.1186 0.32954 35.1483 0.269622C35.178 0.269622 35.178 0.284601 35.1483 0.314559C35.1483 0.314559 35.1632 0.314559 35.1929 0.314559C35.2226 0.254643 35.2375 0.209707 35.2375 0.179749C35.2375 0.149791 35.2672 0.16477 35.3266 0.224686C35.3564 0.194728 35.3861 0.179749 35.4158 0.179749C35.4455 0.149791 35.4753 0.104854 35.505 0.0449366C35.5644 0.0449366 35.6239 0.0599155 35.6833 0.0898732C35.6536 0.179748 35.6684 0.254643 35.7279 0.314559C35.9359 0.374476 36.0548 0.344518 36.0845 0.224686C36.144 0.0748952 36.2777 0 36.4858 0C36.4561 0.119833 36.4709 0.224686 36.5304 0.314559C36.6195 0.404434 36.7087 0.494309 36.7979 0.584184C36.9168 0.644099 37.0208 0.718994 37.11 0.808869C37.1991 0.898744 37.2437 1.01858 37.2437 1.16837C37.2437 1.22828 37.2437 1.25824 37.2437 1.25824C37.2437 1.22828 37.214 1.24326 37.1545 1.30318C37.0356 1.96226 36.8573 2.56142 36.6195 3.10067C36.4115 3.63991 36.1886 4.19414 35.9508 4.76334C35.1186 6.80049 34.2715 8.82267 33.4096 10.8299C32.5477 12.8071 31.6857 14.7843 30.8238 16.7616C30.8832 16.7915 30.9278 16.7765 30.9575 16.7166C30.9873 16.6268 31.0318 16.5968 31.0913 16.6268C31.0318 16.6867 31.0021 16.7466 31.0021 16.8065C31.0318 16.8365 31.017 16.8964 30.9575 16.9863C31.1061 16.8365 31.225 16.7017 31.3142 16.5818C31.4331 16.462 31.5371 16.3272 31.6263 16.1774C31.9532 15.758 32.2653 15.3535 32.5625 14.9641C32.8895 14.5447 33.2313 14.1253 33.5879 13.7058C33.6474 13.7058 33.7068 13.6459 33.7663 13.5261C33.9446 13.4063 34.1229 13.2265 34.3012 12.9868C34.2715 12.9569 34.2567 12.9569 34.2567 12.9868C34.2567 13.0168 34.2418 13.0318 34.2121 13.0318C34.1824 12.9719 34.1824 12.9269 34.2121 12.897C34.2715 12.867 34.3161 12.8371 34.3458 12.8071C34.4053 12.8071 34.4053 12.8221 34.3458 12.852C34.3161 12.852 34.3012 12.882 34.3012 12.9419C34.8065 12.4925 35.3118 12.0432 35.8171 11.5938C36.3223 11.1444 36.9168 10.7699 37.6004 10.4704C37.6301 10.4404 37.6152 10.4404 37.5558 10.4704C37.5261 10.4704 37.5261 10.4404 37.5558 10.3805C37.8827 10.2906 38.2097 10.2157 38.5366 10.1558C38.8635 10.0659 39.1756 10.036 39.4728 10.0659C39.7403 10.0659 39.9632 10.0809 40.1416 10.1109C40.3496 10.1109 40.528 10.2307 40.6766 10.4704C40.736 10.4704 40.7509 10.4554 40.7212 10.4254C40.7212 10.3955 40.736 10.3805 40.7657 10.3805C40.7657 10.3805 40.7657 10.4104 40.7657 10.4704C40.8549 10.5602 40.9441 10.6501 41.0332 10.74C41.1224 10.8299 41.1818 10.9497 41.2116 11.0995C41.2116 11.0995 41.2264 11.0845 41.2561 11.0545C41.2859 11.0845 41.2859 11.1444 41.2561 11.2343C41.2561 11.2942 41.2859 11.3242 41.3453 11.3242C41.375 11.9533 41.271 12.5225 41.0332 13.0318C41.0035 13.0617 41.0035 13.0917 41.0332 13.1217C41.063 13.1516 41.063 13.1816 41.0332 13.2115L40.4982 14.29C39.993 15.2786 39.4283 16.2223 38.8041 17.1211C38.1799 17.9899 37.5261 18.8287 36.8425 19.6375C36.5452 19.8473 36.2629 20.0719 35.9954 20.3116C35.7279 20.5513 35.4604 20.761 35.1929 20.9407C35.1929 21.0006 35.1632 21.0456 35.1037 21.0755C35.074 21.0755 35.0591 21.1055 35.0591 21.1654C34.9997 21.1954 34.9848 21.2103 35.0146 21.2103C35.0443 21.1804 35.0443 21.1504 35.0146 21.1205C34.9254 21.1504 34.866 21.1954 34.8362 21.2553C34.8362 21.3152 34.7917 21.3452 34.7025 21.3452C34.643 21.4051 34.6133 21.3901 34.6133 21.3002C34.4647 21.4201 34.2864 21.5249 34.0783 21.6148C33.9 21.6747 33.7365 21.7796 33.5879 21.9293C33.5879 21.8994 33.5433 21.8844 33.4542 21.8844C33.3947 21.9443 33.3799 21.9893 33.4096 22.0192C33.469 22.0192 33.4988 22.0492 33.4988 22.1091C33.4096 22.0791 33.365 22.0192 33.365 21.9293C33.2164 21.9293 33.0529 21.9593 32.8746 22.0192C32.6963 22.0791 32.5922 22.0342 32.5625 21.8844C32.5328 21.9144 32.5179 21.9743 32.5179 22.0642C32.5477 22.0342 32.5774 22.0192 32.6071 22.0192C32.6071 22.0492 32.5774 22.0642 32.5179 22.0642C32.6665 23.0827 32.8152 24.1013 32.9638 25.1199C33.1124 26.1085 33.4393 26.9473 33.9446 27.6364C34.0635 27.8461 34.2567 27.921 34.5242 27.861C34.9105 27.8011 35.2375 27.6963 35.505 27.5465C35.7725 27.3967 36.0251 27.202 36.2629 26.9623C36.5898 26.7226 36.887 26.468 37.1545 26.1984C37.422 25.8988 37.6895 25.5842 37.957 25.2547C38.1354 25.1948 38.2691 25.0749 38.3583 24.8952C38.4474 24.7154 38.5663 24.5507 38.7149 24.4009L39.2053 23.8616C39.2648 23.7718 39.3242 23.6669 39.3837 23.5471C39.4728 23.3973 39.5769 23.2625 39.6958 23.1426C39.7552 23.0827 39.7998 23.0378 39.8295 23.0078C39.8889 22.9779 39.9335 22.9329 39.9632 22.873C40.0227 22.7831 40.0821 22.6933 40.1416 22.6034C40.201 22.4836 40.2605 22.3637 40.3199 22.2439C40.4091 22.0941 40.4982 21.9593 40.5874 21.8395C40.7063 21.7196 40.8103 21.5698 40.8995 21.3901L41.1224 21.1205V21.0306C41.1818 20.9407 41.2413 20.8658 41.3007 20.8059C41.3899 20.716 41.4642 20.6262 41.5236 20.5363L42.0141 19.5477C42.0141 19.6076 41.9843 19.6975 41.9249 19.8173C41.8654 19.9072 41.8209 19.997 41.7911 20.0869C42.0884 19.7574 42.341 19.3979 42.549 19.0084C42.7571 18.589 42.98 18.1846 43.2178 17.7951C43.3664 17.7652 43.4556 17.7052 43.4853 17.6154C43.5447 17.5255 43.6042 17.4506 43.6636 17.3907C43.6042 17.6903 43.5001 17.9449 43.3515 18.1546C43.2326 18.3643 43.1435 18.604 43.084 18.8736C43.1435 18.9036 43.1881 18.8586 43.2178 18.7388C43.2772 18.619 43.3367 18.5291 43.3961 18.4692C43.3961 18.5291 43.3813 18.604 43.3515 18.6939C43.3218 18.7837 43.2921 18.8586 43.2624 18.9186H43.307C43.2772 19.0384 43.2326 19.1882 43.1732 19.3679C43.1138 19.5177 43.0543 19.6825 42.9949 19.8622C43.084 19.8023 43.1435 19.7274 43.1732 19.6375C43.2326 19.5477 43.307 19.4728 43.3961 19.4129C43.3961 19.3529 43.3961 19.323 43.3961 19.323C43.3961 19.293 43.4407 19.278 43.5299 19.278V19.2331ZM33.5879 17.3008C33.3501 17.6004 33.1124 17.9 32.8746 18.1996C32.6665 18.4991 32.4734 18.8137 32.295 19.1432C32.3247 19.293 32.3396 19.4728 32.3396 19.6825C32.3396 19.8622 32.4139 19.9671 32.5625 19.997C32.5625 20.057 32.5625 20.1169 32.5625 20.1768C32.5922 20.2068 32.6071 20.2517 32.6071 20.3116C32.7557 20.2517 32.9192 20.1768 33.0975 20.0869C33.2758 19.9671 33.3947 19.8023 33.4542 19.5926C33.6622 19.4129 33.8108 19.2331 33.9 19.0534C34.1675 18.8437 34.3755 18.619 34.5242 18.3793C34.7025 18.1097 34.9105 17.855 35.1483 17.6154C35.4158 17.196 35.6833 16.7915 35.9508 16.4021C36.248 16.0126 36.5155 15.5932 36.7533 15.1438C37.0208 14.6945 37.2734 14.2451 37.5112 13.7957C37.7787 13.3463 38.0016 12.882 38.1799 12.4027V12.3577C37.318 13.0767 36.5007 13.8556 35.7279 14.6945C34.9848 15.5333 34.2715 16.4021 33.5879 17.3008ZM31.76 19.8173C31.76 19.8772 31.7897 19.9072 31.8492 19.9072C31.8492 19.9072 31.8641 19.8772 31.8938 19.8173C31.9532 19.8772 31.9978 19.9072 32.0275 19.9072C32.0275 19.6375 32.0424 19.4578 32.0721 19.3679C31.9829 19.3979 31.9235 19.4878 31.8938 19.6375C31.8641 19.7574 31.8195 19.8173 31.76 19.8173ZM43.5299 19.2331C43.5299 19.1133 43.5596 18.9934 43.619 18.8736C43.7082 18.7238 43.7825 18.589 43.8419 18.4692C43.8419 18.589 43.7974 18.7088 43.7082 18.8287C43.6488 18.9485 43.5893 19.0833 43.5299 19.2331ZM41.167 13.0767C41.167 13.3463 41.0778 13.601 40.8995 13.8407C40.8698 13.8706 40.8549 13.9006 40.8549 13.9305C40.8549 13.9605 40.84 13.9755 40.8103 13.9755C40.8103 13.9755 40.8252 13.9455 40.8549 13.8856C40.9143 13.7358 40.9589 13.601 40.9887 13.4812C41.0481 13.3613 41.1075 13.2265 41.167 13.0767ZM35.8171 27.0971C35.8171 27.187 35.7725 27.2319 35.6833 27.2319C35.4753 27.4416 35.1632 27.6214 34.7471 27.7712C34.9551 27.6513 35.1483 27.5465 35.3266 27.4566C35.505 27.3667 35.6684 27.2469 35.8171 27.0971ZM40.7657 14.1552C40.7063 14.305 40.632 14.4548 40.5428 14.6046C40.4537 14.7544 40.3645 14.9042 40.2753 15.054C40.3348 14.9042 40.4091 14.7544 40.4982 14.6046C40.6171 14.4548 40.7063 14.305 40.7657 14.1552ZM35.3712 11.8185C35.3118 11.8784 35.2226 11.9683 35.1037 12.0881C34.9848 12.2079 34.8808 12.2978 34.7917 12.3577C35.0591 12.0881 35.2523 11.9084 35.3712 11.8185ZM34.0783 13.2115C34.0486 13.2115 34.0337 13.1966 34.0337 13.1666C33.9743 13.1666 33.9446 13.1666 33.9446 13.1666C34.0337 12.9569 34.1824 12.8071 34.3904 12.7172L34.435 12.7622C34.3458 12.7322 34.2715 12.7771 34.2121 12.897C34.1526 12.9868 34.108 13.0917 34.0783 13.2115ZM37.9124 18.4692C37.853 18.589 37.7638 18.7238 37.6449 18.8736C37.5261 18.9934 37.4072 19.0983 37.2883 19.1882L37.9124 18.4692ZM34.5687 12.5375L34.7471 12.4027C34.7471 12.4626 34.7173 12.5075 34.6579 12.5375C34.6282 12.5674 34.5985 12.6124 34.5687 12.6723C34.5093 12.6423 34.5093 12.5974 34.5687 12.5375C34.5093 12.5974 34.4647 12.6273 34.435 12.6273C34.4944 12.5674 34.539 12.5225 34.5687 12.4925C34.6282 12.4326 34.6876 12.3727 34.7471 12.3128L34.5687 12.5375ZM38.8487 17.166C38.8784 17.2259 38.8635 17.2858 38.8041 17.3458C38.7744 17.3757 38.7447 17.4206 38.7149 17.4806C38.6555 17.4206 38.6555 17.3757 38.7149 17.3458C38.7744 17.2858 38.819 17.2259 38.8487 17.166ZM35.0146 12.0432C35.0146 12.0731 34.9848 12.1181 34.9254 12.178C34.866 12.2379 34.8065 12.2828 34.7471 12.3128C34.7768 12.2229 34.866 12.133 35.0146 12.0432ZM37.11 26.0186C37.1397 25.9587 37.1843 25.8988 37.2437 25.8389C37.3329 25.779 37.4072 25.719 37.4666 25.6591C37.4072 25.719 37.3477 25.779 37.2883 25.8389C37.2288 25.8988 37.1694 25.9587 37.11 26.0186ZM35.9062 11.414C35.9062 11.474 35.8765 11.5039 35.8171 11.5039C35.7873 11.5039 35.7576 11.5189 35.7279 11.5489C35.7279 11.459 35.7873 11.414 35.9062 11.414ZM38.6258 24.311C38.6852 24.341 38.6703 24.3859 38.5812 24.4458C38.5217 24.5057 38.5069 24.5207 38.5366 24.4908C38.5366 24.4308 38.5663 24.3709 38.6258 24.311ZM31.225 16.4021C31.2845 16.432 31.2845 16.477 31.225 16.5369C31.1656 16.5668 31.121 16.5818 31.0913 16.5818C31.0913 16.5219 31.1061 16.4919 31.1359 16.4919C31.1953 16.462 31.225 16.432 31.225 16.4021ZM37.1545 19.4129C37.0951 19.293 37.1397 19.2331 37.2883 19.2331L37.1545 19.4129ZM36.5304 10.9197C36.5304 10.9797 36.5007 11.0096 36.4412 11.0096C36.4115 11.0096 36.3818 11.0246 36.352 11.0545C36.352 10.9946 36.3669 10.9647 36.3966 10.9647C36.4264 10.9647 36.4709 10.9497 36.5304 10.9197ZM36.3966 20.2217C36.3372 20.2816 36.2777 20.3266 36.2183 20.3565C36.1589 20.3565 36.1886 20.3116 36.3075 20.2217H36.3966ZM36.1291 11.1444C36.1291 11.2043 36.0994 11.2643 36.04 11.3242C36.0102 11.2942 36.0102 11.2643 36.04 11.2343C36.0697 11.1744 36.0994 11.1444 36.1291 11.1444ZM44.5107 19.5477C44.5107 19.6675 44.481 19.7574 44.4215 19.8173C44.4215 19.7574 44.4512 19.6675 44.5107 19.5477ZM35.6833 11.5489C35.713 11.5788 35.6982 11.6088 35.6387 11.6387C35.609 11.6387 35.5941 11.6537 35.5941 11.6837C35.5347 11.6537 35.5198 11.6237 35.5496 11.5938C35.609 11.5638 35.6536 11.5489 35.6833 11.5489ZM38.5366 17.5255C38.5663 17.5854 38.5515 17.6453 38.492 17.7052C38.4326 17.7352 38.4029 17.7801 38.4029 17.8401C38.4029 17.7801 38.4177 17.7352 38.4474 17.7052C38.4772 17.6453 38.5069 17.5854 38.5366 17.5255ZM39.7403 15.9976C39.7403 16.0576 39.7106 16.1175 39.6512 16.1774C39.5917 16.2373 39.5471 16.2972 39.5174 16.3571C39.5174 16.2972 39.5471 16.2373 39.6066 16.1774C39.666 16.1175 39.7106 16.0576 39.7403 15.9976ZM33.9 13.2115C33.9 13.2415 33.8703 13.2864 33.8108 13.3463C33.7811 13.3164 33.7811 13.2864 33.8108 13.2565C33.8406 13.2265 33.8703 13.2115 33.9 13.2115ZM34.5687 0.359498C34.5687 0.449371 34.5539 0.494308 34.5242 0.494308V0.449371C34.5242 0.389456 34.539 0.359498 34.5687 0.359498ZM40.1862 15.2786C40.1564 15.2487 40.1564 15.2187 40.1862 15.1888C40.2159 15.1288 40.2456 15.0989 40.2753 15.0989L40.1862 15.2786ZM39.8741 15.8179C39.8146 15.9377 39.7849 15.9827 39.7849 15.9527C39.7849 15.9227 39.7998 15.8778 39.8295 15.8179H39.8741ZM45.0011 17.5704C45.0308 17.6004 45.0308 17.6304 45.0011 17.6603C44.9714 17.6603 44.9565 17.6753 44.9565 17.7052C44.8971 17.6753 44.8822 17.6603 44.9119 17.6603C44.9714 17.6304 45.0011 17.6004 45.0011 17.5704ZM38.3137 17.9299C38.3137 17.9299 38.2691 18.0048 38.1799 18.1546C38.1799 18.1247 38.1948 18.0947 38.2245 18.0647C38.2542 18.0348 38.284 17.9898 38.3137 17.9299ZM39.0716 16.8514C39.0716 16.8215 39.1162 16.7616 39.2053 16.6717L39.0716 16.8514ZM36.7087 19.8622C36.7087 19.9221 36.679 19.9521 36.6195 19.9521C36.6195 19.8922 36.6493 19.8622 36.7087 19.8622ZM34.6579 27.8161C34.6282 27.8461 34.5836 27.861 34.5242 27.861C34.5539 27.861 34.5687 27.861 34.5687 27.861C34.5985 27.8311 34.6282 27.8161 34.6579 27.8161ZM39.8741 15.728C39.8741 15.758 39.8592 15.7729 39.8295 15.7729C39.8295 15.7729 39.8295 15.7879 39.8295 15.8179C39.8295 15.7879 39.8444 15.758 39.8741 15.728ZM39.6958 15.8179C39.6958 15.8179 39.7106 15.8029 39.7403 15.7729C39.7403 15.8029 39.7255 15.8179 39.6958 15.8179Z" transform="translate(8 4)" fill="white"/>
<path d="M59.2376 14.1103C59.2079 14.1702 59.1782 14.2601 59.1484 14.3799C59.1187 14.4997 59.089 14.6196 59.0593 14.7394C59.0296 14.8592 59.0147 14.9641 59.0147 15.054C59.0147 15.1139 59.0444 15.1438 59.1039 15.1438C59.1336 15.1738 59.089 15.2786 58.9701 15.4584C58.881 15.6381 58.8512 15.743 58.881 15.7729C58.9701 15.7729 59.0741 15.6831 59.193 15.5033C59.3416 15.2936 59.4754 15.1888 59.5943 15.1888C59.3862 15.758 59.1484 16.2822 58.881 16.7616C58.6432 17.2409 58.3757 17.7202 58.0785 18.1996C58.0487 18.1996 58.019 18.1996 57.9893 18.1996C57.9893 18.1696 57.9596 18.1696 57.9001 18.1996C57.811 18.3194 57.7664 18.4542 57.7664 18.604C57.7961 18.7238 57.7664 18.8586 57.6772 19.0084C57.5583 19.1582 57.4394 19.308 57.3206 19.4578C57.2017 19.6076 57.1125 19.7574 57.0531 19.9072C56.9936 19.9072 56.9639 19.9221 56.9639 19.9521C56.9639 19.9821 56.9342 19.9671 56.8747 19.9072C56.9044 19.9671 56.9044 20.012 56.8747 20.042C56.8747 20.042 56.8747 20.057 56.8747 20.0869C56.845 20.1169 56.8301 20.1468 56.8301 20.1768C56.8301 20.2068 56.8004 20.2217 56.741 20.2217V20.3565L55.5372 21.7047C55.4778 21.8245 55.3886 21.9293 55.2697 22.0192C55.1509 22.1091 55.0617 22.2139 55.0023 22.3338C54.8536 22.4836 54.705 22.6184 54.5564 22.7382C54.4375 22.858 54.3484 22.9929 54.2889 23.1426C54.2889 23.1426 54.2741 23.1426 54.2443 23.1426C54.2443 23.2026 54.2295 23.2325 54.1998 23.2325C54.1998 23.2325 54.1998 23.2625 54.1998 23.3224L52.5948 24.9851C52.0004 25.6741 51.287 26.3482 50.4548 27.0072C49.6523 27.6364 48.8201 28.1606 47.9582 28.58C47.6907 28.6699 47.4083 28.7748 47.1111 28.8946C46.8436 29.0144 46.5613 29.1193 46.264 29.2092C46.1154 29.2092 46.0263 29.2841 45.9965 29.4339C46.3235 29.4638 46.6356 29.4189 46.9328 29.299C47.23 29.2092 47.5272 29.0893 47.8244 28.9395C48.5972 28.5501 49.37 28.0708 50.1427 27.5016C50.9452 26.9024 51.6437 26.3482 52.2381 25.8389C52.2084 25.9887 52.1341 26.1085 52.0152 26.1984C51.8963 26.2583 51.8072 26.3482 51.7477 26.468L49.8752 27.9509C49.7564 28.0108 49.5929 28.1157 49.3848 28.2655C49.1768 28.4153 48.9984 28.5201 48.8498 28.58C48.4337 28.7898 48.0176 28.9995 47.6015 29.2092C47.1854 29.4488 46.695 29.5836 46.1303 29.6136C45.9222 29.6136 45.6547 29.5836 45.3278 29.5237C45.0306 29.4638 44.7334 29.4339 44.4361 29.4339C44.2578 29.4339 44.0943 29.4189 43.9457 29.3889C43.7971 29.359 43.6039 29.314 43.3662 29.2541C43.1284 29.2241 42.8609 29.1493 42.5637 29.0294C42.2665 28.9395 41.999 28.8347 41.7612 28.7149C41.3154 28.5051 40.9736 28.1756 40.7358 27.7262C40.4683 27.2469 40.3048 26.6927 40.2454 26.0636C40.1859 25.8239 40.2008 25.5992 40.29 25.3895C40.3494 25.1498 40.3643 24.9102 40.3345 24.6705L40.5129 24.5806C40.5723 24.1612 40.6615 23.7268 40.7804 23.2775C40.8993 22.8281 41.033 22.3937 41.1816 21.9743C41.1816 21.9144 41.1816 21.8994 41.1816 21.9293C41.1816 21.9593 41.1965 21.9743 41.2262 21.9743C41.3451 21.4949 41.4788 21.0456 41.6274 20.6262C41.8058 20.1768 41.999 19.7424 42.207 19.323C42.6528 18.3943 43.1581 17.5255 43.7228 16.7166C44.3173 15.8778 44.9117 15.0689 45.5061 14.29C45.6547 14.1402 45.7736 13.9904 45.8628 13.8407C45.9817 13.6909 46.1154 13.5411 46.264 13.3913C46.264 13.3314 46.264 13.3014 46.264 13.3014C46.2938 13.3014 46.3086 13.2714 46.3086 13.2115C46.3681 13.1816 46.4424 13.0917 46.5315 12.9419C46.5613 13.0318 46.5315 13.1217 46.4424 13.2115C46.5018 13.2115 46.5315 13.1816 46.5315 13.1217C46.5613 13.0617 46.591 13.0168 46.6207 12.9868C46.6801 13.0168 46.6801 13.0468 46.6207 13.0767C46.591 13.0767 46.5761 13.1067 46.5761 13.1666C46.8436 12.9569 47.0963 12.7172 47.334 12.4476C47.6015 12.148 47.869 11.9233 48.1365 11.7735V11.5938C48.2851 11.5938 48.3743 11.5788 48.404 11.5489C48.4635 11.4889 48.5526 11.474 48.6715 11.5039C48.9984 11.1444 49.3848 10.8898 49.8307 10.74C50.009 10.6801 50.1725 10.695 50.3211 10.7849C50.4697 10.8448 50.648 10.8748 50.8561 10.8748L51.1236 11.1894C51.3019 11.1594 51.5099 11.1894 51.7477 11.2792C51.9855 11.3391 52.1192 11.474 52.149 11.6837C52.1787 11.7136 52.1935 11.7286 52.1935 11.7286C52.2233 11.6986 52.253 11.7136 52.2827 11.7735C52.5205 12.193 52.6096 12.7322 52.5502 13.3913C52.5205 14.0204 52.4165 14.6345 52.2381 15.2337C52.1787 15.4135 52.1044 15.5782 52.0152 15.728C51.9558 15.8778 51.8963 16.0276 51.8369 16.1774C51.7477 16.417 51.6437 16.6717 51.5248 16.9413C51.4059 17.2109 51.2722 17.4656 51.1236 17.7052L50.2319 19.1432C49.9347 19.5627 49.6226 19.9671 49.2957 20.3565C48.9984 20.746 48.7012 21.0606 48.404 21.3002L47.6015 21.7047C47.3637 21.7945 47.1706 21.8544 47.0219 21.8844C46.9031 21.8844 46.7247 21.8994 46.487 21.9293C46.16 21.9893 45.8628 21.9293 45.5953 21.7496C45.3575 21.5698 45.1495 21.3751 44.9711 21.1654C44.8225 21.4051 44.6591 21.7796 44.4807 22.2888C44.3024 22.7682 44.1538 23.1426 44.0349 23.4123C44.0052 23.4123 43.9903 23.3973 43.9903 23.3673C43.7823 23.9965 43.6634 24.7154 43.6337 25.5243C43.6337 26.3032 43.7823 26.9473 44.0795 27.4566C44.6739 27.3068 45.2832 27.0971 45.9074 26.8275C46.5315 26.5579 47.0814 26.2583 47.5569 25.9288C48.0028 25.5992 48.4486 25.2547 48.8944 24.8952C49.37 24.5057 49.8158 24.1462 50.2319 23.8167L50.3657 23.6819C50.4845 23.622 50.5737 23.5321 50.6331 23.4123C50.6926 23.2924 50.7669 23.2026 50.8561 23.1426C51.0938 22.9329 51.3316 22.7232 51.5694 22.5135C51.8369 22.3038 52.0747 22.0791 52.2827 21.8395C52.3124 21.8395 52.3273 21.8245 52.3273 21.7945C52.357 21.7646 52.4016 21.7346 52.461 21.7047C52.6394 21.3751 52.8771 21.1504 53.1744 21.0306C53.7985 20.3116 54.3632 19.6226 54.8685 18.9635C55.3738 18.2745 55.9088 17.4955 56.4735 16.6268C56.6221 16.6867 56.7113 16.6417 56.741 16.4919C56.8004 16.3122 56.8747 16.1774 56.9639 16.0875C57.0233 15.9677 57.0828 15.8778 57.1422 15.8179C57.2017 15.758 57.2611 15.6981 57.3206 15.6381C57.3503 15.6082 57.3651 15.5483 57.3651 15.4584C57.3949 15.3685 57.4394 15.3086 57.4989 15.2786C57.5583 15.2187 57.6178 15.1888 57.6772 15.1888C57.7367 15.1888 57.7812 15.1588 57.811 15.0989C57.8704 14.8592 57.9299 14.6945 57.9893 14.6046C58.0487 14.5447 58.0785 14.5147 58.0785 14.5147C58.1973 14.5147 58.2568 14.5147 58.2568 14.5147C58.2865 14.5746 58.2716 14.6495 58.2122 14.7394C58.1825 14.7993 58.1379 14.8592 58.0785 14.9191C58.0487 15.1288 57.9893 15.3086 57.9001 15.4584C57.8407 15.6082 57.7812 15.8029 57.7218 16.0426C57.8704 15.9227 57.9744 15.8029 58.0339 15.6831C58.0933 15.5333 58.1528 15.3835 58.2122 15.2337C58.2419 15.2637 58.2717 15.2786 58.3014 15.2786C58.3311 15.2786 58.3757 15.2936 58.4351 15.3236C58.5837 15.2637 58.6432 15.1738 58.6135 15.054C58.6135 14.9042 58.6432 14.7694 58.7026 14.6495C58.7621 14.6196 58.8512 14.5447 58.9701 14.4248C59.089 14.275 59.1782 14.1702 59.2376 14.1103ZM49.8752 13.4812C49.5483 13.7208 49.2659 14.0054 49.0282 14.335C48.7904 14.6645 48.5378 14.994 48.2703 15.3236C48.0325 15.5932 47.8244 15.8628 47.6461 16.1324C47.4678 16.4021 47.2597 16.6717 47.0219 16.9413C47.0219 17.0312 47.0071 17.0911 46.9774 17.1211C46.7396 17.4506 46.5018 17.7951 46.264 18.1546C46.0263 18.5141 45.8331 18.9036 45.6845 19.323C45.8034 19.323 45.9074 19.3679 45.9965 19.4578C46.7099 18.9785 47.3192 18.3943 47.8244 17.7052C48.3594 17.0162 48.835 16.2373 49.2511 15.3685C49.2214 15.3386 49.1768 15.3685 49.1173 15.4584C49.0876 15.5183 49.0579 15.5333 49.0282 15.5033C49.2957 15.2637 49.474 14.9641 49.5632 14.6046C49.682 14.2151 49.8158 13.8257 49.9644 13.4362C49.9347 13.4362 49.905 13.4512 49.8752 13.4812ZM44.7482 21.1205C44.6293 21.3302 44.4956 21.6747 44.347 22.154C44.1984 22.6034 44.0943 22.9479 44.0349 23.1876C44.1538 22.9479 44.2875 22.6034 44.4361 22.154C44.6145 21.7047 44.7482 21.3601 44.8374 21.1205H44.7482Z" transform="translate(8 4)" fill="white"/>
<path d="M66.4764 21.7945C66.5953 21.6148 66.7736 21.3601 67.0114 21.0306C67.2789 20.6711 67.5464 20.3116 67.8139 19.9521C68.0814 19.5627 68.334 19.1882 68.5718 18.8287C68.8393 18.4692 69.0473 18.1996 69.1959 18.0198C69.2554 17.9899 69.3 17.9449 69.3297 17.885C69.3594 17.7951 69.4188 17.7502 69.508 17.7502C69.3594 17.9599 69.2257 18.1696 69.1068 18.3793C68.9879 18.5591 68.8393 18.7388 68.6609 18.9186C68.7204 18.9485 68.7947 18.9186 68.8839 18.8287C69.0325 18.6789 69.1662 18.5291 69.2851 18.3793C69.404 18.1996 69.5377 18.0348 69.6863 17.885L70.4888 17.0761C70.4888 17.136 70.5334 17.166 70.6226 17.166C70.5334 17.3757 70.3551 17.6453 70.0876 17.9749C69.8498 18.3044 69.5972 18.619 69.3297 18.9186C69.0919 19.2181 68.8987 19.4728 68.7501 19.6825C68.6312 19.8622 68.6312 19.9221 68.7501 19.8622C69.1662 19.3829 69.5972 18.9036 70.043 18.4242C70.4888 17.9449 70.9644 17.4806 71.4696 17.0312C71.4994 17.0012 71.4548 17.0911 71.3359 17.3008C71.217 17.5105 71.0684 17.7652 70.8901 18.0647C70.7117 18.3344 70.5483 18.604 70.3997 18.8736C70.2511 19.1133 70.1619 19.2631 70.1322 19.323C70.1322 19.3529 70.2213 19.2481 70.3997 19.0084C70.6077 18.7388 70.9792 18.2295 71.5142 17.4806C71.5737 17.5405 71.5737 17.6004 71.5142 17.6603C71.4845 17.6903 71.4548 17.7352 71.4251 17.7951C71.1873 18.2145 70.9049 18.619 70.578 19.0084C70.2808 19.3979 69.9836 19.7724 69.6863 20.1319C69.9538 19.8622 70.2213 19.5776 70.4888 19.278C70.7563 18.9485 71.0535 18.619 71.3805 18.2894C71.1724 18.6789 70.9198 18.9934 70.6226 19.2331C70.2362 19.6525 69.8498 20.1169 69.4634 20.6262C69.1068 21.1355 68.765 21.5998 68.438 22.0192C68.3786 22.0492 68.334 22.0941 68.3043 22.154C68.2746 22.2139 68.2002 22.2589 68.0814 22.2888C68.0814 22.3188 68.0665 22.3488 68.0368 22.3787C68.0071 22.3787 67.9922 22.3937 67.9922 22.4237C67.9625 22.4536 67.8733 22.5585 67.7247 22.7382C67.6058 22.918 67.4721 23.1127 67.3235 23.3224C67.1748 23.5021 67.0411 23.6819 66.9222 23.8616C66.8033 24.0414 66.7439 24.1462 66.7439 24.1762C67.0114 23.8467 67.2789 23.5021 67.5464 23.1426C67.8436 22.7831 68.0962 22.5285 68.3043 22.3787V22.2439C68.4529 22.2439 68.4975 22.184 68.438 22.0642H68.5272L68.8839 21.6597C68.9136 21.5998 68.9136 21.5848 68.8839 21.6148C68.8839 21.6447 68.8987 21.6597 68.9284 21.6597L69.3297 21.2553L69.508 20.9407V21.0306L69.9984 20.3565L70.3997 19.7724C70.5185 19.7124 70.6077 19.6226 70.6672 19.5027C70.7266 19.3829 70.8158 19.293 70.9347 19.2331C70.9347 19.323 70.8752 19.4129 70.7563 19.5027C70.6672 19.5627 70.6077 19.6525 70.578 19.7724C70.4591 19.8323 70.3699 19.9072 70.3105 19.997C70.2808 20.0869 70.2362 20.1918 70.1768 20.3116L69.0622 21.7945L67.7247 23.4123C67.9328 23.1426 68.1259 22.858 68.3043 22.5585C68.5123 22.2589 68.6312 22.0791 68.6609 22.0192L67.1897 23.9965L65.6739 25.7041C65.4956 25.9138 65.2875 26.1085 65.0497 26.2882C64.8714 26.6178 64.6336 26.8425 64.3364 26.9623C64.1581 27.172 63.9946 27.3667 63.846 27.5465C63.7271 27.7262 63.5785 27.891 63.4002 28.0408C63.2516 28.2805 63.0584 28.4752 62.8206 28.625C62.6125 28.7748 62.3896 28.9096 62.1519 29.0294C62.033 29.1193 61.9438 29.1942 61.8844 29.2541C61.8249 29.344 61.7358 29.4189 61.6169 29.4788C61.4683 29.5687 61.3196 29.6286 61.171 29.6585C61.0224 29.7185 60.8887 29.7784 60.7698 29.8383C60.7104 29.8383 60.5915 29.8682 60.4131 29.9282C60.2645 29.9881 60.1011 30.048 59.9227 30.1079C59.7444 30.1978 59.5661 30.2577 59.3877 30.2877C59.2391 30.3476 59.1202 30.3775 59.0311 30.3775C58.8527 30.3775 58.7041 30.3176 58.5852 30.1978C58.4664 30.0779 58.3475 29.9431 58.2286 29.7933C58.1394 29.6735 58.0205 29.5687 57.8719 29.4788C57.753 29.3889 57.5896 29.359 57.3815 29.3889L57.1586 29.2092C57.1586 29.0594 57.1289 28.9545 57.0694 28.8946C57.01 28.5351 56.9803 28.1756 56.9803 27.8161C56.9803 27.4566 57.0248 27.0971 57.114 26.7376C57.2329 25.8988 57.3964 25.1648 57.6044 24.5357C57.8422 23.8766 58.0948 23.2625 58.3623 22.6933C58.6298 22.0941 58.9122 21.5249 59.2094 20.9857C59.5066 20.4165 59.8187 19.8173 60.1456 19.1882C60.2051 19.1283 60.2348 19.0683 60.2348 19.0084C60.2645 18.9186 60.3091 18.8586 60.3685 18.8287C60.6063 18.3493 60.8144 17.9899 60.9927 17.7502C61.171 17.4806 61.3345 17.2559 61.4831 17.0761C61.6614 16.8664 61.8398 16.6417 62.0181 16.4021C62.1964 16.1624 62.4194 15.8179 62.6869 15.3685C62.2707 15.4883 61.8101 15.5183 61.3048 15.4584C60.7995 15.3985 60.428 15.2337 60.1902 14.9641L60.0119 15.3236C59.7741 15.5932 59.5661 15.8928 59.3877 16.2223C59.2094 16.5519 59.0311 16.8814 58.8527 17.2109C58.4664 17.7502 58.1097 18.2145 57.7827 18.604C57.4855 18.9934 57.1437 19.4728 56.7574 20.042C56.579 20.3715 56.2818 20.716 55.8657 21.0755C55.4496 21.435 55.1227 21.7796 54.8849 22.1091C54.8254 22.169 54.7511 22.2439 54.662 22.3338C54.6025 22.4237 54.5431 22.5285 54.4836 22.6483H54.3945C54.335 22.7083 54.2904 22.7831 54.2607 22.873C54.231 22.9329 54.1864 22.9629 54.127 22.9629C54.0675 22.9329 54.0527 22.903 54.0824 22.873C54.1121 22.8431 54.127 22.8131 54.127 22.7831C53.9189 22.8131 53.8 22.888 53.7703 23.0078C53.7406 23.1277 53.6811 23.2325 53.592 23.3224L53.7257 23.0528C53.696 22.9929 53.6663 22.9929 53.6366 23.0528C53.6366 23.0827 53.6068 23.0977 53.5474 23.0977C53.5474 23.0378 53.5623 23.0078 53.592 23.0078C53.6514 22.9779 53.6811 22.9329 53.6811 22.873C53.4731 22.873 53.3245 22.9479 53.2353 23.0977C53.2056 23.0378 53.2205 23.0078 53.2799 23.0078C53.3096 22.9779 53.2948 22.9329 53.2353 22.873C53.2056 22.903 53.1907 22.9329 53.1907 22.9629C53.161 22.9929 53.1016 23.0228 53.0124 23.0528C52.9827 22.9929 53.0124 22.9329 53.1016 22.873C53.1907 22.8131 53.2353 22.7532 53.2353 22.6933C53.1164 22.7532 53.0273 22.8281 52.9678 22.918C52.8787 23.0078 52.7746 23.0678 52.6557 23.0977C52.7152 23.0078 52.7895 22.903 52.8787 22.7831C52.9678 22.6633 53.0718 22.5435 53.1907 22.4237C53.0421 22.4536 52.953 22.5135 52.9232 22.6034C52.8935 22.6933 52.8489 22.7682 52.7895 22.8281C52.7598 22.7382 52.7895 22.6483 52.8787 22.5585C52.9678 22.4686 53.0421 22.3637 53.1016 22.2439C53.0421 22.2439 52.9975 22.2739 52.9678 22.3338C52.9084 22.3937 52.8638 22.4536 52.8341 22.5135C52.7746 22.4536 52.7598 22.4237 52.7895 22.4237C52.7003 22.4237 52.5814 22.4686 52.4328 22.5585C52.2545 22.6184 52.1356 22.6633 52.0762 22.6933C52.2248 22.3637 52.418 22.0642 52.6557 21.7945C52.8935 21.5249 53.1016 21.2553 53.2799 20.9857C53.3393 20.8658 53.4136 20.746 53.5028 20.6262C53.5623 20.4764 53.6217 20.3416 53.6811 20.2217C53.7109 20.2217 53.7257 20.2217 53.7257 20.2217C53.7257 20.1918 53.7406 20.1768 53.7703 20.1768C53.9784 19.8173 54.2607 19.4129 54.6174 18.9635C55.0038 18.4842 55.2713 18.0647 55.4199 17.7052C55.5388 17.5555 55.6725 17.3907 55.8211 17.2109C55.9697 17.0012 56.0886 16.7915 56.1778 16.5818C56.3264 16.2822 56.4601 16.0426 56.579 15.8628C56.6979 15.6531 56.8168 15.4584 56.9357 15.2786C57.0546 15.0689 57.1735 14.8742 57.2923 14.6945C57.4409 14.4847 57.6044 14.2301 57.7827 13.9305C57.8125 13.9006 57.7976 13.8856 57.7382 13.8856C57.7084 13.8556 57.6936 13.8257 57.6936 13.7957C57.753 13.8257 57.7976 13.8257 57.8273 13.7957C57.8571 13.7658 57.8868 13.7508 57.9165 13.7508C57.649 13.3014 57.6341 12.7472 57.8719 12.0881C58.1097 11.3991 58.3177 10.74 58.4961 10.1109C58.5258 10.0509 58.5704 9.99103 58.6298 9.93112C58.6893 9.84124 58.7487 9.76635 58.8082 9.70643C58.8676 9.7963 58.8676 9.91614 58.8082 10.0659C58.7487 10.1858 58.719 10.3206 58.719 10.4704C58.5704 10.7699 58.4515 11.1294 58.3623 11.5489C58.3029 11.9683 58.3326 12.3427 58.4515 12.6723C58.4812 12.3727 58.4961 12.0881 58.4961 11.8185C58.4961 11.5489 58.5704 11.2792 58.719 11.0096C58.7487 10.74 58.7933 10.4853 58.8527 10.2457C58.9122 10.006 58.9716 9.76635 59.0311 9.52668C59.0905 9.5866 59.1202 9.60158 59.1202 9.57162C59.1202 9.5117 59.15 9.48174 59.2094 9.48174C59.2391 9.48174 59.2391 9.49672 59.2094 9.52668C59.2094 9.55664 59.2243 9.5866 59.254 9.61656C59.4026 9.55664 59.4918 9.45179 59.5215 9.302C59.5809 9.1522 59.6849 9.04735 59.8336 8.98744C59.893 8.98744 59.9227 9.00241 59.9227 9.03237C59.9524 9.06233 59.997 9.07731 60.0565 9.07731C59.9376 8.92752 59.7741 8.89756 59.5661 8.98744C59.5661 8.89756 59.6255 8.8676 59.7444 8.89756C59.893 8.89756 59.997 8.92752 60.0565 8.98744C60.1456 8.83764 60.2199 8.73279 60.2794 8.67287C60.3685 8.61296 60.3388 8.70283 60.1902 8.9425C60.2497 8.91254 60.2942 8.88258 60.324 8.85262C60.3834 8.79271 60.4874 8.76275 60.636 8.76275C60.7252 8.76275 60.8144 8.79271 60.9035 8.85262C61.0224 8.91254 61.1413 8.95748 61.2602 8.98744C61.3196 8.98744 61.3345 8.97246 61.3048 8.9425C61.3048 8.88258 61.3345 8.85262 61.394 8.85262C61.4831 8.97246 61.5723 9.04735 61.6614 9.07731C61.7803 9.07731 61.8992 9.10727 62.0181 9.16718C62.1667 9.5866 62.1816 10.006 62.0627 10.4254C61.9735 10.8149 61.8546 11.2193 61.706 11.6387C61.6466 11.8784 61.5574 12.0731 61.4385 12.2229C61.3494 12.3727 61.2602 12.5674 61.171 12.8071C61.0522 13.1067 60.9927 13.3314 60.9927 13.4812C61.0224 13.571 61.1265 13.6609 61.3048 13.7508C61.5128 13.8107 61.6912 13.8257 61.8398 13.7957C61.8695 13.7957 61.8992 13.7957 61.9289 13.7957C61.9587 13.7658 61.9884 13.7508 62.0181 13.7508C62.0776 13.7508 62.1519 13.7658 62.241 13.7957C62.3302 13.8257 62.4194 13.8407 62.5085 13.8407C62.7463 13.8107 62.9543 13.7658 63.1327 13.7058C63.311 13.616 63.5339 13.571 63.8014 13.571C63.8609 13.571 63.8757 13.571 63.846 13.571C63.8163 13.5411 63.8163 13.5111 63.846 13.4812C63.9352 13.571 64.0541 13.571 64.2027 13.4812C64.2621 13.4812 64.2918 13.4961 64.2918 13.5261C64.3215 13.556 64.3513 13.556 64.381 13.5261C64.4404 13.4961 64.5296 13.4812 64.6485 13.4812C64.7674 13.4812 64.8714 13.4512 64.9606 13.3913C65.02 13.3913 65.0646 13.4063 65.0943 13.4362C65.124 13.4662 65.1835 13.4662 65.2727 13.4362C65.3321 13.5261 65.3767 13.601 65.4064 13.6609C65.4658 13.7208 65.5104 13.8107 65.5401 13.9305C65.5996 14.0204 65.659 14.0803 65.7185 14.1103C65.7779 14.1402 65.8374 14.1852 65.8968 14.2451C65.9562 14.4548 66.0157 14.5896 66.0751 14.6495C66.0751 14.7694 66.1049 14.8592 66.1643 14.9191C66.2237 14.9791 66.2832 15.054 66.3426 15.1438C66.2832 15.2037 66.2386 15.3086 66.2089 15.4584C66.2089 15.5782 66.1643 15.6681 66.0751 15.728C66.0157 15.728 66.0008 15.713 66.0306 15.6831C66.0603 15.6232 66.0603 15.5632 66.0306 15.5033C65.9117 15.8928 65.7631 16.2373 65.5847 16.5369C65.4064 16.8065 65.2429 17.1211 65.0943 17.4806C65.0349 17.5405 64.9754 17.6154 64.916 17.7052C64.8863 17.7951 64.8268 17.87 64.7377 17.9299C64.5593 18.2595 64.4256 18.4991 64.3364 18.6489C64.2472 18.7987 64.1581 18.9335 64.0689 19.0534C63.9798 19.1432 63.8906 19.2481 63.8014 19.3679C63.742 19.4878 63.6528 19.6525 63.5339 19.8622C63.1475 20.5213 62.8057 21.0905 62.5085 21.5698C62.241 22.0492 61.9884 22.5285 61.7506 23.0078C61.5426 23.4872 61.3494 24.0264 61.171 24.6256C60.9927 25.1948 60.8292 25.8988 60.6806 26.7376C61.0076 26.438 61.3048 26.2583 61.5723 26.1984C61.8695 26.1085 62.2113 25.9288 62.5977 25.6591C62.5977 25.6292 62.5977 25.6142 62.5977 25.6142C62.6274 25.6142 62.6423 25.6292 62.6423 25.6591C62.9692 25.3296 63.2813 25 63.5785 24.6705C63.8757 24.341 64.2175 24.0414 64.6039 23.7718H64.5147C64.5742 23.7119 64.6336 23.6519 64.6931 23.592C64.7822 23.5021 64.8268 23.4272 64.8268 23.3673C64.8863 23.3074 64.9457 23.2475 65.0051 23.1876C65.0646 23.1277 65.1538 23.0528 65.2727 22.9629V22.918C65.2727 22.918 65.3024 22.888 65.3618 22.8281C65.5104 22.7083 65.659 22.5585 65.8076 22.3787C65.986 22.199 66.1792 22.0342 66.3872 21.8844V21.9293L66.4764 21.7945ZM66.1197 24.8503C66.0603 24.8203 66.0603 24.7903 66.1197 24.7604C66.2089 24.7005 66.2832 24.6705 66.3426 24.6705C66.3426 24.6705 66.3575 24.6406 66.3872 24.5806C66.4467 24.5207 66.4764 24.4608 66.4764 24.4009C66.2386 24.5507 66.0454 24.7304 65.8968 24.9401C65.7482 25.1199 65.6144 25.3296 65.4956 25.5693C65.555 25.5393 65.5996 25.4794 65.6293 25.3895C65.6888 25.2996 65.7631 25.2247 65.8522 25.1648C65.8522 25.1049 65.8819 25.045 65.9414 24.9851C65.9711 25.015 65.9711 25.045 65.9414 25.0749C65.9117 25.0749 65.8968 25.0899 65.8968 25.1199L66.298 24.7154C66.1792 24.7754 66.1197 24.8203 66.1197 24.8503ZM65.8522 22.4686C65.9117 22.4087 65.9711 22.3488 66.0306 22.2888C66.1197 22.2289 66.194 22.154 66.2535 22.0642C66.1643 22.1241 66.0751 22.199 65.986 22.2888C65.8968 22.3488 65.8522 22.4087 65.8522 22.4686ZM66.7439 24.1762C66.6547 24.1762 66.5953 24.2211 66.5656 24.311C66.5656 24.3709 66.5507 24.4308 66.521 24.4908L66.7439 24.1762ZM66.7885 24.311C66.9668 24.2511 67.056 24.1462 67.056 23.9965L66.7885 24.311ZM68.438 18.8287C68.3786 18.8287 68.3489 18.8287 68.3489 18.8287C68.3489 18.7388 68.3786 18.6939 68.438 18.6939C68.438 18.7238 68.438 18.7388 68.438 18.7388C68.4677 18.7388 68.4677 18.7688 68.438 18.8287ZM70.7117 19.3679C70.6523 19.4878 70.5483 19.6226 70.3997 19.7724L70.7117 19.3679ZM69.5972 20.8059C69.6566 20.746 69.7012 20.6861 69.7309 20.6262C69.7606 20.5662 69.8052 20.5063 69.8647 20.4464L69.5972 20.8059ZM67.1897 23.9965C67.2194 23.9965 67.2937 23.9066 67.4126 23.7268L67.1897 23.9965ZM69.8647 20.4015C69.8647 20.4314 69.9093 20.4015 69.9984 20.3116L69.9538 20.3565C69.9241 20.3865 69.8944 20.4015 69.8647 20.4015Z" transform="translate(8 4)" fill="white"/>
<path d="M77.3427 18.6939C77.3427 18.6939 77.3576 18.7088 77.3873 18.7388L77.744 18.4692C78.1303 18.0498 78.5167 17.6154 78.9031 17.166C79.2895 16.7166 79.6462 16.2673 79.9731 15.8179C80.1217 15.758 80.2257 15.6681 80.2852 15.5483C80.3743 15.4284 80.523 15.3985 80.731 15.4584C80.8796 15.3985 80.9985 15.2936 81.0877 15.1438C81.1768 14.9641 81.2809 14.8442 81.3997 14.7843C81.5781 14.7843 81.6821 14.7694 81.7118 14.7394C81.7713 14.7694 81.7564 14.8592 81.6672 15.009C81.5781 15.1288 81.4741 15.2637 81.3552 15.4135C81.266 15.5333 81.1917 15.6531 81.1323 15.7729C81.0728 15.8928 81.0877 15.9377 81.1768 15.9078C81.2363 15.9078 81.2957 15.8778 81.3552 15.8179C81.4146 15.758 81.5038 15.728 81.6227 15.728C81.7118 15.6981 81.7713 15.6981 81.801 15.728C81.8604 15.758 81.9199 15.743 81.9793 15.6831C81.9496 15.7729 81.905 15.8778 81.8456 15.9976C81.8159 16.0875 81.801 16.1774 81.801 16.2673C81.801 16.2972 81.8604 16.3122 81.9793 16.3122C81.9496 16.4919 81.8902 16.6567 81.801 16.8065C81.7118 16.9563 81.6375 17.1061 81.5781 17.2559C81.2511 17.7052 80.9539 18.0947 80.6864 18.4242C80.4189 18.7538 80.1514 19.0683 79.8839 19.3679C79.6462 19.6675 79.3787 19.9821 79.0815 20.3116C78.8139 20.6112 78.5019 20.9857 78.1452 21.435C78.0858 21.465 78.056 21.4949 78.056 21.5249C78.056 21.5249 78.0263 21.5249 77.9669 21.5249C77.2536 22.5734 76.5254 23.577 75.7823 24.5357C75.0393 25.4644 74.2219 26.3332 73.3303 27.1421L73.2857 27.3218C73.256 27.3518 73.2114 27.4416 73.1519 27.5914C72.9142 27.8011 72.6615 27.9959 72.394 28.1756C72.1265 28.3254 71.8888 28.5201 71.6807 28.7598C71.651 28.7898 71.6807 28.8047 71.7699 28.8047C71.5916 29.0444 71.2795 29.2092 70.8336 29.299C70.4175 29.3889 70.0312 29.4488 69.6745 29.4788C69.1692 29.5387 68.6491 29.5087 68.1141 29.3889C67.6088 29.2691 67.2522 29.0444 67.0441 28.7149C66.7469 28.595 66.4943 28.3554 66.2862 27.9959C66.1079 27.5165 66.0187 27.0222 66.0187 26.5129C66.0187 25.9737 66.0782 25.4494 66.197 24.9401C66.2862 24.4009 66.42 23.8766 66.5983 23.3673C66.7766 22.858 66.9698 22.3787 67.1779 21.9293C67.267 21.6897 67.3413 21.465 67.4008 21.2553C67.4602 21.0456 67.5494 20.8209 67.6683 20.5812C67.9952 19.8023 68.3816 19.0234 68.8274 18.2445C69.2733 17.4656 69.6745 16.7166 70.0312 15.9976L71.012 14.1552C71.22 13.8257 71.4132 13.5411 71.5916 13.3014C71.7996 13.0318 71.9631 12.7472 72.082 12.4476V12.3128C72.3495 12.3128 72.5426 12.163 72.6615 11.8634C72.721 11.8335 72.7953 11.8185 72.8845 11.8185C73.0033 11.8185 73.0925 11.7885 73.1519 11.7286C73.4492 11.7586 73.7167 11.8335 73.9544 11.9533C74.2219 12.0432 74.4597 12.148 74.6678 12.2678C74.7272 12.4176 74.8461 12.5525 75.0244 12.6723C75.2325 12.7622 75.3216 12.9269 75.2919 13.1666C75.2919 13.1966 75.2325 13.3014 75.1136 13.4812C75.0839 13.5411 75.069 13.586 75.069 13.616C75.0987 13.6459 75.0987 13.6909 75.069 13.7508C75.069 13.8406 75.0244 13.8856 74.9353 13.8856V14.2001L74.6232 15.054C74.6232 15.1139 74.6232 15.1438 74.6232 15.1438C74.6529 15.1139 74.6678 15.1288 74.6678 15.1888C74.5191 15.2187 74.4151 15.3086 74.3557 15.4584C74.326 15.5782 74.2665 15.6681 74.1773 15.728C74.1773 15.8179 74.1773 15.8628 74.1773 15.8628C74.0585 15.8928 73.9842 15.9527 73.9544 16.0426C73.9544 16.1025 73.9396 16.1624 73.9099 16.2223C73.7315 16.462 73.5829 16.7017 73.464 16.9413C73.3749 17.181 73.2708 17.4057 73.1519 17.6154C73.0925 17.7052 73.0628 17.7652 73.0628 17.7951C73.0925 17.7951 73.0776 17.8251 73.0182 17.885C73.0182 17.915 72.9736 17.9299 72.8845 17.9299C72.8547 18.0498 72.8102 18.1546 72.7507 18.2445C72.721 18.3044 72.7061 18.4093 72.7061 18.5591C72.5575 18.7088 72.4386 18.9186 72.3495 19.1882C72.2603 19.4278 72.1414 19.6226 71.9928 19.7724C71.755 20.2816 71.5618 20.776 71.4132 21.2553C71.1754 21.7346 70.9228 22.199 70.6553 22.6483C70.4175 23.0977 70.2095 23.5471 70.0312 23.9965L69.8528 24.8952C69.7339 25.1948 69.6299 25.5093 69.5407 25.8389C69.4516 26.1684 69.4219 26.5129 69.4516 26.8724C69.9271 26.6627 70.3432 26.3482 70.6999 25.9288C71.2349 25.4794 71.7699 24.9851 72.3049 24.4458C72.8399 23.8766 73.36 23.3074 73.8653 22.7382C73.9247 22.7083 73.9544 22.6933 73.9544 22.6933C73.9842 22.6633 74.0287 22.6483 74.0882 22.6483C74.2665 22.4087 74.4448 22.169 74.6232 21.9293C74.8015 21.6897 75.0096 21.45 75.2473 21.2103C75.4257 21.0905 75.5743 20.9557 75.6932 20.8059C75.812 20.6262 75.9309 20.4314 76.0498 20.2217C76.1093 20.1618 76.1687 20.1169 76.2282 20.0869C76.3173 20.027 76.3916 19.9671 76.4511 19.9072C76.57 19.6675 76.7186 19.4728 76.8969 19.323C77.1049 19.1432 77.2536 18.9335 77.3427 18.6939ZM76.4065 8.583C76.3173 8.64292 76.2282 8.73279 76.139 8.85262C75.9904 8.85262 75.8566 8.85262 75.7377 8.85262C75.6189 8.85262 75.4851 8.88258 75.3365 8.9425C75.3068 8.9425 75.2919 8.97246 75.2919 9.03237L75.1136 8.89756V8.62794C74.9353 8.68785 74.8461 8.77773 74.8461 8.89756C74.7867 8.89756 74.7718 8.8676 74.8015 8.80769C74.861 8.71781 74.861 8.6579 74.8015 8.62794C74.7421 8.6579 74.6975 8.70283 74.6678 8.76275C74.6678 8.79271 74.638 8.80769 74.5786 8.80769V8.62794C74.5192 8.62794 74.4894 8.64292 74.4894 8.67287C74.5489 8.25346 74.3705 8.04375 73.9544 8.04375C73.9544 7.89396 73.9247 7.81907 73.8653 7.81907C73.8653 7.30978 73.9842 6.78551 74.2219 6.24627C74.2814 6.18635 74.3111 6.14141 74.3111 6.11145C74.3111 6.05154 74.326 6.0066 74.3557 5.97664C74.4448 5.91673 74.534 5.85681 74.6232 5.7969C74.7421 5.70702 74.8015 5.58719 74.8015 5.4374C74.8312 5.46736 74.9055 5.48233 75.0244 5.48233C75.0839 5.42242 75.173 5.33254 75.2919 5.21271C75.4108 5.09288 75.5 5.10786 75.5594 5.25765C75.6189 5.28761 75.6337 5.28761 75.604 5.25765C75.604 5.22769 75.6189 5.21271 75.6486 5.21271C75.708 5.27263 75.7675 5.30259 75.8269 5.30259C75.8566 5.21271 75.9309 5.1528 76.0498 5.12284C76.1984 5.09288 76.347 5.10786 76.4957 5.16778C76.4957 5.22769 76.4659 5.27263 76.4065 5.30259C76.3768 5.30259 76.3768 5.33254 76.4065 5.39246C76.7929 5.39246 77.0455 5.30259 77.1644 5.12284C77.1644 5.21271 77.1793 5.28761 77.209 5.34752C77.2684 5.37748 77.313 5.42242 77.3427 5.48233C77.2833 5.51229 77.2536 5.57221 77.2536 5.66208C77.2833 5.75196 77.3279 5.82685 77.3873 5.88677C77.5062 5.82685 77.6399 5.84183 77.7886 5.93171C77.9669 6.02158 78.056 6.14141 78.056 6.2912C78.056 6.32116 78.0858 6.33614 78.1452 6.33614C78.1452 6.39606 78.1452 6.441 78.1452 6.47095C78.1749 6.47095 78.1898 6.50091 78.1898 6.56083C78.1601 6.50091 78.1303 6.47095 78.1006 6.47095C78.0412 6.59079 77.9817 6.71062 77.9223 6.83045C77.8926 6.95028 77.8183 7.07012 77.6994 7.18995C77.6994 7.21991 77.7291 7.23489 77.7886 7.23489C77.848 7.23489 77.8777 7.24987 77.8777 7.27982C77.8777 7.27982 77.8034 7.27982 77.6548 7.27982C77.4765 7.51949 77.2684 7.75915 77.0306 7.99882C76.7929 8.20852 76.5997 8.47815 76.4511 8.80769C76.3916 8.80769 76.3619 8.82267 76.3619 8.85262C76.3619 8.85262 76.3322 8.85262 76.2727 8.85262C76.3619 8.76275 76.4065 8.67288 76.4065 8.583ZM75.1582 13.9755C75.1582 14.0054 75.1433 14.0354 75.1136 14.0653C75.1136 14.0653 75.1136 14.0953 75.1136 14.1552C75.0541 14.1852 75.0393 14.1552 75.069 14.0653C75.0987 13.9755 75.1284 13.9455 75.1582 13.9755Z" transform="translate(8 4)" fill="white"/>
<path d="M85.369 17.6154C85.369 17.7352 85.369 17.8401 85.369 17.9299C85.369 18.0198 85.3541 18.1396 85.3244 18.2894C85.5027 18.2295 85.5176 18.2445 85.369 18.3344C85.2204 18.3943 85.2055 18.4842 85.3244 18.604C85.473 18.574 85.6216 18.5291 85.7702 18.4692C85.9189 18.3793 86.0675 18.3493 86.2161 18.3793C86.2755 18.3493 86.3647 18.3344 86.4836 18.3344C86.8105 18.1846 87.2415 18.0647 87.7765 17.9749C87.9251 17.915 88.0588 17.885 88.1777 17.885C88.3263 17.855 88.4749 17.8101 88.6236 17.7502C88.683 17.7502 88.7276 17.7202 88.7573 17.6603C88.8167 17.6603 88.8613 17.6753 88.891 17.7052C88.9208 17.7352 88.9356 17.7202 88.9356 17.6603C88.9951 17.6603 89.0396 17.6753 89.0694 17.7052C89.753 17.5555 90.288 17.4955 90.6743 17.5255C91.0607 17.5555 91.4471 17.7502 91.8335 18.1097C91.8335 18.1996 91.8781 18.2595 91.9672 18.2894C91.9078 18.3493 91.8781 18.4093 91.8781 18.4692C91.9078 18.4991 91.9078 18.5441 91.8781 18.604C91.8484 18.6639 91.8038 18.619 91.7443 18.4692C91.6849 18.5291 91.6106 18.574 91.5214 18.604C91.462 18.604 91.4174 18.6489 91.3877 18.7388C91.2391 18.589 91.135 18.589 91.0756 18.7388C91.0162 18.8886 90.8973 18.9635 90.7189 18.9635H90.496C90.4069 18.9635 90.4069 18.9785 90.496 19.0084C90.5852 19.0084 90.5703 19.0084 90.4514 19.0084C90.392 19.0084 90.3177 19.0384 90.2285 19.0983C90.1394 19.1283 89.9759 19.1582 89.7381 19.1882C89.6787 19.2481 89.6489 19.278 89.6489 19.278C89.5003 19.2481 89.3071 19.2631 89.0694 19.323C88.8613 19.3829 88.683 19.4428 88.5344 19.5027L85.8594 20.5812C85.9189 20.6112 85.9634 20.6112 85.9932 20.5812C86.0229 20.5513 86.0675 20.5363 86.1269 20.5363C85.9783 20.6861 85.8 20.7909 85.5919 20.8509C85.3839 20.8808 85.2055 20.9707 85.0569 21.1205C84.9975 21.0606 84.9678 21.0606 84.9678 21.1205C84.9678 21.1804 84.938 21.2103 84.8786 21.2103L84.5219 22.918C84.5517 22.888 84.5665 22.8431 84.5665 22.7831C84.626 22.8431 84.626 22.888 84.5665 22.918C84.5368 22.9479 84.5219 22.9779 84.5219 23.0078C84.4625 23.1876 84.4328 23.3074 84.4328 23.3673C84.4328 23.3673 84.4031 23.3973 84.3436 23.4572C84.2544 23.7867 84.1504 24.1163 84.0315 24.4458C83.9424 24.7754 83.8383 25.1049 83.7194 25.4344C83.6006 25.7041 83.4668 25.9437 83.3182 26.1534C83.1993 26.3332 83.0804 26.5429 82.9615 26.7826C82.8724 26.9923 82.7683 27.187 82.6495 27.3667C82.5306 27.5165 82.4117 27.6813 82.2928 27.861C82.1739 28.0108 82.055 28.1906 81.9361 28.4003C81.847 28.58 81.7281 28.7448 81.5795 28.8946C81.6389 28.7748 81.7578 28.625 81.9361 28.4452C81.9064 28.3853 81.8916 28.3853 81.8916 28.4452C81.8916 28.4752 81.8618 28.4902 81.8024 28.4902C81.8618 28.4303 81.9064 28.3554 81.9361 28.2655C81.9659 28.1756 82.0104 28.0857 82.0699 27.9959C82.1293 27.9359 82.1888 27.861 82.2482 27.7712C82.3077 27.6813 82.3077 27.5914 82.2482 27.5016C82.0996 27.6813 81.951 27.861 81.8024 28.0408C81.6835 28.1906 81.5646 28.3554 81.4457 28.5351C81.2971 28.5651 81.1782 28.64 81.0891 28.7598C81.0296 28.8796 80.9553 28.9845 80.8661 29.0744C80.8364 29.0744 80.8216 29.0594 80.8216 29.0294C80.673 29.2092 80.5095 29.359 80.3312 29.4788C80.1825 29.5986 80.0339 29.7035 79.8853 29.7933C79.8259 29.7933 79.811 29.7784 79.8408 29.7484C79.8705 29.7484 79.8705 29.7334 79.8408 29.7035C79.7516 29.6735 79.6773 29.6885 79.6178 29.7484C79.5584 29.8383 79.4841 29.8533 79.3949 29.7933C79.276 29.8832 79.1423 29.9731 78.9937 30.063C78.8451 30.1828 78.6816 30.2427 78.5033 30.2427C78.4735 30.2427 78.4587 30.2727 78.4587 30.3326C78.3992 30.1828 78.2952 30.1528 78.1466 30.2427C77.998 30.3626 77.894 30.3626 77.8345 30.2427L78.102 30.1528C78.0426 30.0929 77.9683 30.078 77.8791 30.1079C77.7899 30.1678 77.6711 30.1828 77.5224 30.1528C77.463 30.0929 77.4333 30.078 77.4333 30.1079C77.463 30.1678 77.463 30.1978 77.4333 30.1978C77.2847 30.1678 77.1658 30.1379 77.0766 30.1079C77.0172 30.078 76.928 30.048 76.8091 30.018C76.9875 30.1978 77.2401 30.3026 77.567 30.3326C77.5076 30.4225 77.4184 30.4225 77.2995 30.3326C77.2104 30.2727 77.1361 30.2727 77.0766 30.3326C76.928 30.3026 76.8091 30.2277 76.72 30.1079C76.6308 29.9881 76.5119 29.9132 76.3633 29.8832C76.3336 29.9132 76.3187 29.9431 76.3187 29.9731C76.3187 30.0031 76.289 29.9881 76.2295 29.9282C76.1998 29.9881 76.1998 30.018 76.2295 30.018C76.289 30.018 76.3187 30.033 76.3187 30.063C76.2295 30.033 76.1552 29.9731 76.0958 29.8832C76.0066 29.8233 75.9175 29.7634 75.8283 29.7035C75.858 29.6436 75.8729 29.6136 75.8729 29.6136C75.8432 29.6136 75.8283 29.5836 75.8283 29.5237C75.7689 29.5537 75.754 29.5836 75.7837 29.6136C75.8134 29.6735 75.7986 29.6885 75.7391 29.6585C75.7391 29.5687 75.7243 29.4638 75.6946 29.344C75.6648 29.2541 75.65 29.1343 75.65 28.9845C75.6797 28.9845 75.6648 29.0594 75.6054 29.2092C75.546 28.8497 75.5608 28.5051 75.65 28.1756C75.7391 27.8461 75.8432 27.5615 75.9621 27.3218V27.2319H76.0066C76.2444 26.6328 76.5416 26.0785 76.8983 25.5693C77.2847 25.03 77.7008 24.5357 78.1466 24.0863C78.3844 23.8167 78.4884 23.6819 78.4587 23.6819C78.4587 23.6819 78.3547 23.7867 78.1466 23.9965C77.9683 24.1762 77.7305 24.4458 77.4333 24.8053C77.1658 25.1349 76.8983 25.4944 76.6308 25.8838C76.3633 26.2733 76.1255 26.6627 75.9175 27.0522C75.7094 27.4416 75.5905 27.8011 75.5608 28.1307C75.5311 28.3104 75.5162 28.4902 75.5162 28.6699C75.4865 28.8197 75.5014 28.9695 75.5608 29.1193C75.6203 29.299 75.65 29.4638 75.65 29.6136C75.4716 29.4938 75.3676 29.314 75.3379 29.0744C75.3082 28.8646 75.3082 28.625 75.3379 28.3554C75.3379 28.0857 75.3825 27.8311 75.4716 27.5914C75.5311 27.3218 75.5905 27.0971 75.65 26.9174C75.7094 26.8874 75.7391 26.8575 75.7391 26.8275C75.7391 26.7676 75.7689 26.7077 75.8283 26.6477C75.8877 26.5878 75.9323 26.5279 75.9621 26.468C75.9918 26.4081 76.0512 26.3482 76.1404 26.2882C76.3187 25.8988 76.5416 25.5393 76.8091 25.2098C77.1063 24.8802 77.4036 24.5507 77.7008 24.2211C78.3844 23.5021 79.1126 22.8281 79.8853 22.199C80.6878 21.5698 81.52 21.0006 82.382 20.4914V20.3116C81.9659 20.5513 81.5646 20.8059 81.1782 21.0755C80.7918 21.3452 80.3906 21.6148 79.9745 21.8844C79.9151 22.0042 79.8259 22.0941 79.707 22.154C79.5881 22.184 79.4989 22.2739 79.4395 22.4237C79.3801 22.4536 79.3058 22.5135 79.2166 22.6034C79.1571 22.6633 79.0977 22.7232 79.0383 22.7831C78.8897 22.9329 78.6965 23.0977 78.4587 23.2775C78.2506 23.4572 78.0872 23.622 77.9683 23.7718C77.6116 24.1313 77.255 24.5207 76.8983 24.9401C76.5714 25.3595 76.2741 25.779 76.0066 26.1984C76.0661 26.0486 76.1552 25.8988 76.2741 25.749C76.393 25.5693 76.497 25.4045 76.5862 25.2547C76.5565 25.2547 76.5268 25.2847 76.497 25.3446C76.4673 25.4045 76.4376 25.4494 76.4079 25.4794C76.4079 25.4794 76.4525 25.4045 76.5416 25.2547C76.7497 25.015 76.9577 24.7454 77.1658 24.4458C77.4036 24.1462 77.6562 23.8916 77.9237 23.6819C78.1615 23.3524 78.429 23.0827 78.7262 22.873C79.0531 22.6334 79.3652 22.3488 79.6624 22.0192C80.138 21.6897 80.5689 21.3901 80.9553 21.1205C81.3417 20.8209 81.8173 20.5213 82.382 20.2217C82.4117 19.9821 82.4414 19.7873 82.4711 19.6375C82.5009 19.4578 82.5306 19.308 82.5603 19.1882C82.59 19.0384 82.6049 18.8736 82.6049 18.6939C82.6346 18.5141 82.6495 18.2894 82.6495 18.0198C82.6197 17.9599 82.6197 17.885 82.6495 17.7951C82.7089 17.6753 82.7238 17.5405 82.694 17.3907C82.6643 17.3907 82.6346 17.3757 82.6049 17.3458C82.6643 17.2858 82.6792 17.181 82.6495 17.0312C82.6495 16.8814 82.6197 16.7316 82.5603 16.5818C82.5008 16.5818 82.4711 16.5668 82.4711 16.5369C82.2036 16.9563 81.9064 17.3458 81.5795 17.7052C81.2823 18.0348 80.9999 18.3793 80.7324 18.7388C80.6432 18.8586 80.4946 19.0683 80.2866 19.3679C80.1082 19.6675 79.9002 19.9821 79.6624 20.3116C79.4246 20.6411 79.1869 20.9407 78.9491 21.2103C78.741 21.48 78.5776 21.6298 78.4587 21.6597C78.2804 21.9893 78.0574 22.3038 77.7899 22.6034C77.5522 22.873 77.3144 23.0228 77.0766 23.0528C77.0469 23.1127 76.9726 23.1876 76.8537 23.2775C76.7348 23.3374 76.6011 23.4123 76.4525 23.5021C76.3336 23.592 76.2295 23.6969 76.1404 23.8167C76.0215 23.9066 75.9621 23.9815 75.9621 24.0414C75.8134 24.1013 75.7391 24.1163 75.7391 24.0863C75.7094 24.0564 75.6203 24.0414 75.4716 24.0414C75.4716 23.9515 75.3973 23.9365 75.2487 23.9965C75.0704 24.0264 74.9961 23.9815 75.0258 23.8616C75.0258 23.8317 75.0407 23.8167 75.0704 23.8167C75.1001 23.8167 75.115 23.8017 75.115 23.7718C74.9961 23.8017 74.9812 23.8017 75.0704 23.7718C75.1596 23.7119 75.1298 23.6819 74.9812 23.6819V23.637C75.0407 23.607 75.1001 23.5621 75.1596 23.5021C75.219 23.4422 75.219 23.4272 75.1596 23.4572C75.1893 23.3973 75.1596 23.3973 75.0704 23.4572C74.9812 23.4872 74.9664 23.4722 75.0258 23.4123C74.9961 23.3524 75.0407 23.2924 75.1596 23.2325C75.2487 23.1726 75.2636 23.1127 75.2041 23.0528C75.2636 22.9629 75.3528 22.8281 75.4716 22.6483C75.5905 22.4386 75.7243 22.2289 75.8729 22.0192C75.9918 21.8095 76.1107 21.6148 76.2295 21.435C76.3484 21.2253 76.4525 21.0905 76.5416 21.0306H76.497C76.497 20.9707 76.5119 20.9108 76.5416 20.8509C76.5714 20.7909 76.6011 20.716 76.6308 20.6262C76.6011 20.6561 76.6159 20.6711 76.6754 20.6711H76.7645C76.824 20.5513 76.8537 20.4914 76.8537 20.4914C76.8537 20.4914 76.9131 20.4165 77.032 20.2667C77.0915 20.2367 77.1509 20.2068 77.2104 20.1768C77.2698 20.1468 77.2995 20.1019 77.2995 20.042C77.3887 19.9821 77.4481 19.8922 77.4779 19.7724C77.5076 19.6226 77.567 19.5177 77.6562 19.4578L80.4203 15.2337C80.777 14.7843 81.1188 14.32 81.4457 13.8407C81.7727 13.3613 82.0996 12.867 82.4266 12.3577C82.5752 12.3278 82.6495 12.2978 82.6495 12.2678C82.6792 12.2079 82.7238 12.1181 82.7832 11.9982C82.7535 11.9383 82.7386 11.9084 82.7386 11.9084V11.8634C82.7386 11.444 82.7683 11.1294 82.8278 10.9197C82.8872 10.6801 82.917 10.3955 82.917 10.0659C82.9764 10.036 83.021 10.021 83.0507 10.021C83.1101 10.021 83.1696 9.99103 83.229 9.93112C83.3182 9.93112 83.3776 9.97605 83.4074 10.0659C83.4371 10.1258 83.4817 10.1558 83.5411 10.1558C83.5411 10.1558 83.5411 10.1109 83.5411 10.021C83.66 9.90116 83.7492 9.8712 83.8086 9.93112C83.8383 9.93112 83.8383 9.91614 83.8086 9.88618C83.8086 9.85622 83.8383 9.84124 83.8978 9.84124C83.9869 9.99103 84.1356 10.006 84.3436 9.88618C84.3733 9.97605 84.4328 10.021 84.5219 10.021C84.5517 10.021 84.5517 10.006 84.5219 9.97605C84.5219 9.91614 84.5368 9.8712 84.5665 9.84124C84.6854 9.90116 84.7746 9.93112 84.834 9.93112C84.7746 10.0509 84.7746 10.1558 84.834 10.2457C84.9232 10.3356 84.9826 10.4254 85.0123 10.5153C85.0421 10.5453 85.0867 10.5453 85.1461 10.5153C85.2055 10.4554 85.2204 10.3955 85.1907 10.3356L85.2353 10.3805V10.4254C85.2947 10.4554 85.3244 10.4704 85.3244 10.4704C85.3244 10.4404 85.3541 10.4254 85.4136 10.4254C85.3541 10.5453 85.369 10.6202 85.4582 10.6501C85.4879 10.5902 85.5028 10.5003 85.5028 10.3805C85.6216 10.5003 85.6216 10.6801 85.5028 10.9197C85.3839 11.1294 85.3987 11.2942 85.5473 11.414C85.4879 11.5638 85.4582 11.6986 85.4582 11.8185C85.4879 11.9383 85.4582 12.0731 85.369 12.2229C85.3096 12.6423 85.2798 13.0917 85.2798 13.571C85.3096 14.0204 85.3244 14.4848 85.3244 14.9641C85.3244 14.9341 85.3244 14.9341 85.3244 14.9641C85.3541 14.9641 85.369 14.994 85.369 15.054V15.3236H85.3244V15.4135C85.3839 15.5033 85.3987 15.5932 85.369 15.6831C85.3393 15.7729 85.3244 15.8628 85.3244 15.9527C85.265 16.0725 85.2798 16.1624 85.369 16.2223C85.369 16.3422 85.369 16.447 85.369 16.5369C85.3987 16.5968 85.3987 16.6717 85.369 16.7616V17.1211C85.369 17.151 85.3541 17.181 85.3244 17.2109C85.3244 17.2709 85.3244 17.3158 85.3244 17.3458C85.3541 17.3757 85.369 17.4206 85.369 17.4806V17.6154ZM77.1658 29.1193C77.3441 29.2092 77.5224 29.2241 77.7008 29.1642C77.8791 29.1043 78.0277 29.0444 78.1466 28.9845C78.1763 28.9845 78.1912 28.9695 78.1912 28.9395C78.1912 28.9096 78.2061 28.8946 78.2358 28.8946C78.7708 28.5351 79.172 28.0857 79.4395 27.5465C79.3801 27.5165 79.3503 27.5315 79.3503 27.5914C79.3801 27.6214 79.3801 27.6064 79.3503 27.5465C79.6178 27.2469 79.8407 26.9323 80.0191 26.6028V26.468C80.138 26.3482 80.2271 26.2283 80.2866 26.1085C80.3757 25.9587 80.4798 25.7939 80.5987 25.6142C80.8067 25.3446 80.9702 25.03 81.0891 24.6705C81.208 24.2811 81.3714 23.9216 81.5795 23.592C81.5795 23.4422 81.6092 23.3224 81.6686 23.2325C81.7281 23.1127 81.7429 22.9929 81.7132 22.873C81.3566 23.1426 80.9999 23.4272 80.6432 23.7268C80.3163 24.0264 79.9894 24.356 79.6624 24.7154H79.5732C79.5732 24.7754 79.5435 24.8053 79.4841 24.8053C79.4841 24.9252 79.4098 25.015 79.2612 25.0749C79.2612 25.1049 79.2463 25.1199 79.2166 25.1199C79.2166 25.1199 79.2166 25.1349 79.2166 25.1648C79.0085 25.3446 78.8153 25.5693 78.637 25.8389C78.4587 26.0785 78.2804 26.3182 78.102 26.5579C78.102 26.5878 78.0723 26.6328 78.0129 26.6927C77.9831 26.7226 77.9683 26.7226 77.9683 26.6927V26.6477C77.7602 27.0672 77.5522 27.4716 77.3441 27.861C77.1658 28.2205 77.1063 28.64 77.1658 29.1193ZM76.3633 25.4794C76.1552 25.8089 75.9621 26.1385 75.7837 26.468C75.5757 26.7975 75.3973 27.157 75.2487 27.5465C75.2487 27.2169 75.323 26.9623 75.4716 26.7826C75.6203 26.6028 75.754 26.3931 75.8729 26.1534C75.9323 26.0336 76.0066 25.9138 76.0958 25.7939C76.185 25.6741 76.2741 25.5693 76.3633 25.4794ZM82.9615 10.5602C83.0507 10.4704 83.0953 10.3505 83.0953 10.2007C83.0061 10.2906 82.9615 10.4104 82.9615 10.5602ZM85.3244 16.2223C85.2947 16.5519 85.2947 16.8514 85.3244 17.1211V16.2223ZM83.229 10.2007C83.229 10.2607 83.2142 10.2906 83.1845 10.2906C83.2439 10.2607 83.2885 10.2457 83.3182 10.2457C83.3776 10.2457 83.4074 10.2007 83.4074 10.1109C83.3776 10.0809 83.3479 10.0959 83.3182 10.1558C83.3182 10.1858 83.2885 10.2007 83.229 10.2007ZM85.6365 11.3691C85.6068 11.3092 85.6068 11.2493 85.6365 11.1894C85.6662 11.0995 85.6662 11.0246 85.6365 10.9647C85.696 11.0246 85.7108 11.0845 85.6811 11.1444C85.6514 11.2043 85.6365 11.2792 85.6365 11.3691ZM76.5416 30.3326C76.5416 30.3626 76.5268 30.3626 76.497 30.3326C76.497 30.3326 76.497 30.3476 76.497 30.3775C76.4673 30.3775 76.4227 30.3476 76.3633 30.2877C76.393 30.2577 76.4227 30.2427 76.4525 30.2427C76.5119 30.2727 76.5416 30.3026 76.5416 30.3326ZM78.4587 26.1534C78.3992 26.3032 78.3101 26.438 78.1912 26.5579L78.4587 26.1534ZM77.9237 27.0522C77.9831 26.8724 78.0426 26.7526 78.102 26.6927L77.9237 27.0522ZM82.4711 12.3128C82.5009 12.2529 82.5306 12.2079 82.5603 12.178C82.59 12.1181 82.6197 12.0581 82.6495 11.9982C82.6495 12.0581 82.6197 12.1181 82.5603 12.178C82.5306 12.2379 82.5009 12.2828 82.4711 12.3128ZM79.0383 25.5243C78.9788 25.6441 78.8896 25.734 78.7708 25.7939L79.0383 25.5243ZM85.1907 10.2007C85.1312 10.1708 85.1015 10.1408 85.1015 10.1109C85.1015 10.0809 85.1312 10.0659 85.1907 10.0659V10.2007ZM74.9812 23.637L74.9366 23.6819C74.9366 23.592 74.9515 23.5321 74.9812 23.5021V23.637ZM78.637 26.0636C78.5776 26.0336 78.6073 25.9887 78.7262 25.9288L78.637 26.0636ZM75.0258 28.4003C75.0258 28.4602 75.0258 28.4902 75.0258 28.4902C75.0258 28.3703 75.0258 28.3104 75.0258 28.3104V28.4003ZM89.2031 19.4129C89.2031 19.4428 89.1585 19.4578 89.0694 19.4578C89.0694 19.4278 89.114 19.4129 89.2031 19.4129ZM77.5224 27.6364C77.4927 27.6364 77.4779 27.6813 77.4779 27.7712C77.3887 27.6813 77.4036 27.6364 77.5224 27.6364ZM82.5157 16.447C82.486 16.477 82.5008 16.5219 82.5603 16.5818C82.5306 16.5519 82.5157 16.5069 82.5157 16.447ZM83.1845 10.2906C83.125 10.3505 83.125 10.3805 83.1845 10.3805V10.2906ZM76.2295 30.1978C76.1998 30.2277 76.1552 30.2128 76.0958 30.1528C76.1255 30.1528 76.1552 30.1528 76.185 30.1528C76.185 30.1828 76.1998 30.1978 76.2295 30.1978ZM76.4079 21.1205L76.497 21.0306C76.4673 21.0606 76.4525 21.0755 76.4525 21.0755C76.4525 21.1055 76.4376 21.1205 76.4079 21.1205ZM78.1912 26.5579C78.1912 26.5878 78.1615 26.6328 78.102 26.6927L78.1912 26.5579ZM85.369 15.9078C85.369 15.9377 85.3541 15.9527 85.3244 15.9527C85.3244 15.9527 85.3244 15.9677 85.3244 15.9976V15.9527L85.369 15.9078ZM85.369 16.0426C85.3393 16.0426 85.3244 16.0276 85.3244 15.9976L85.369 16.0426Z" transform="translate(8 4)" fill="white"/>
<path d="M93.7474 8.9425C92.9747 9.06233 92.1573 9.16718 91.2954 9.25706C90.4334 9.34693 89.5864 9.48174 88.7542 9.66149C88.7839 9.72141 88.8285 9.75137 88.8879 9.75137C88.9771 9.72141 89.0514 9.70643 89.1108 9.70643L91.4737 9.34693C91.444 9.34693 91.4291 9.36191 91.4291 9.39187C91.4291 9.39187 91.4143 9.39187 91.3845 9.39187C91.3548 9.39187 91.2805 9.42183 91.1616 9.48174L89.4675 9.70643C89.2594 9.73639 89.0514 9.76635 88.8433 9.7963C88.665 9.82626 88.4718 9.82626 88.2637 9.7963C88.2637 9.7963 88.2637 9.76635 88.2637 9.70643C88.234 9.67647 88.1894 9.67647 88.13 9.70643C88.0706 9.73639 88.0111 9.75137 87.9517 9.75137C88.0111 9.69145 88.0706 9.66149 88.13 9.66149C88.2192 9.66149 88.2489 9.60158 88.2192 9.48174C88.1597 9.48174 88.13 9.49672 88.13 9.52668C88.1597 9.55664 88.1449 9.57162 88.0854 9.57162C88.026 9.57162 87.9963 9.55664 87.9963 9.52668C88.026 9.46677 88.0111 9.45179 87.9517 9.48174C87.8031 9.5117 87.6544 9.5117 87.5058 9.48174C87.387 9.45179 87.2532 9.46677 87.1046 9.52668C87.164 9.46677 87.2235 9.33195 87.2829 9.12225C87.3127 8.91254 87.3572 8.79271 87.4167 8.76275C87.5356 8.73279 87.6396 8.68785 87.7288 8.62794C87.8179 8.53806 87.8922 8.47815 87.9517 8.44819C88.1894 8.35831 88.4272 8.2984 88.665 8.26844C88.9028 8.23848 89.1554 8.19355 89.4229 8.13363C90.1957 7.98384 90.9833 7.86401 91.7858 7.77413C92.618 7.68426 93.4651 7.54945 94.327 7.3697C94.5945 6.92033 94.8174 6.51589 94.9957 6.15639C95.2038 5.7969 95.397 5.45238 95.5753 5.12284C95.7834 4.7933 95.9766 4.44878 96.1549 4.08928C96.3629 3.72979 96.5859 3.31037 96.8236 2.83104C96.8831 2.80108 96.9277 2.77113 96.9574 2.74117C97.0168 2.71121 97.0763 2.68125 97.1357 2.65129C97.1654 2.62134 97.1803 2.5764 97.1803 2.51648C97.3289 2.51648 97.4032 2.47154 97.4032 2.38167C97.4329 2.26184 97.5221 2.2169 97.6707 2.24686C97.7896 2.33673 97.9531 2.42661 98.1611 2.51648C98.3692 2.5764 98.5475 2.60636 98.6961 2.60636C98.7555 2.75615 98.8447 2.84602 98.9636 2.87598C99.1122 2.90594 99.2311 2.96585 99.3203 3.05573L99.6323 3.46016C99.7512 3.63991 99.8107 3.80468 99.8107 3.95447C99.7512 4.01439 99.7066 4.10426 99.6769 4.22409C99.6769 4.31397 99.6323 4.38886 99.5432 4.44878C99.3351 4.98803 99.0825 5.51229 98.7853 6.02158C98.488 6.50091 98.2057 7.0102 97.9382 7.54945L100.569 7.3697C101.46 7.30978 102.278 7.26484 103.021 7.23489C103.764 7.20493 104.626 7.23489 105.606 7.32476C105.755 7.35472 105.889 7.3697 106.008 7.3697C106.127 7.3697 106.216 7.41463 106.275 7.50451C106.216 7.53447 106.231 7.5794 106.32 7.63932C106.409 7.66928 106.424 7.69924 106.364 7.72919C106.335 7.78911 106.26 7.86401 106.141 7.95388C106.052 8.04375 106.023 8.08869 106.052 8.08869C106.023 8.14861 105.948 8.17857 105.829 8.17857C105.74 8.14861 105.696 8.16359 105.696 8.2235C105.636 8.19355 105.592 8.20852 105.562 8.26844C105.562 8.2984 105.532 8.28342 105.473 8.2235C105.235 8.34334 104.982 8.40325 104.715 8.40325C104.477 8.37329 104.224 8.38827 103.957 8.44819C103.273 8.50811 102.709 8.56802 102.263 8.62794C101.817 8.6579 101.267 8.71781 100.613 8.80769C100.435 8.80769 100.242 8.80769 100.034 8.80769C99.8553 8.80769 99.6918 8.83764 99.5432 8.89756C99.4837 8.89756 99.4392 8.89756 99.4094 8.89756C99.4094 8.8676 99.3797 8.8676 99.3203 8.89756C99.2608 8.89756 99.2162 8.91254 99.1865 8.9425C99.1568 8.97246 99.1122 8.98744 99.0528 8.98744C98.9933 9.01739 98.9339 9.03237 98.8744 9.03237C98.815 9.00241 98.7555 9.00241 98.6961 9.03237H98.4286C98.3394 9.03237 98.2354 9.04735 98.1165 9.07731C98.0274 9.10727 97.9531 9.13723 97.8936 9.16718C97.9531 9.16718 98.0125 9.18216 98.0719 9.21212C98.1611 9.21212 98.2206 9.19714 98.2503 9.16718C98.2206 9.28702 98.0868 9.36191 97.849 9.39187C97.6113 9.39187 97.4032 9.40685 97.2249 9.43681C96.6602 10.6351 96.1252 11.6986 95.6199 12.6273C95.1146 13.556 94.6242 14.4698 94.1487 15.3685C93.7028 16.2673 93.2421 17.2109 92.7666 18.1996C92.2911 19.1582 91.8006 20.2667 91.2954 21.5249C91.2359 21.6148 91.1765 21.6897 91.117 21.7496C91.0873 21.8095 91.0873 21.8844 91.117 21.9743L91.0279 22.154C90.7307 22.9629 90.4186 23.6819 90.0916 24.311C89.7944 24.9102 89.5864 25.6891 89.4675 26.6477C89.4675 26.6777 89.4675 26.6777 89.4675 26.6477C89.4972 26.6178 89.5121 26.6178 89.5121 26.6477C89.5121 26.6777 89.4972 26.6927 89.4675 26.6927C89.4675 26.6927 89.4675 26.7077 89.4675 26.7376C89.6161 26.6777 89.839 26.5729 90.1362 26.4231C90.4334 26.2733 90.6415 26.1385 90.7604 26.0186C90.7307 26.0186 90.7158 26.0186 90.7158 26.0186C90.7158 25.9887 90.7009 25.9737 90.6712 25.9737C90.8793 25.9138 91.0279 25.8239 91.117 25.7041C91.2359 25.5842 91.3697 25.4644 91.5183 25.3446C91.4886 25.4045 91.4588 25.4644 91.4291 25.5243C91.3994 25.5543 91.3697 25.5992 91.34 25.6591L91.3845 25.6142C91.3548 25.6741 91.34 25.734 91.34 25.7939C91.3994 25.7041 91.4588 25.6292 91.5183 25.5693C91.6074 25.5093 91.6669 25.4195 91.6966 25.2996L91.8304 25.0749C92.2465 24.6855 92.6031 24.341 92.9003 24.0414C93.2273 23.7418 93.5988 23.3823 94.0149 22.9629C93.688 23.4123 93.3313 23.7867 92.9449 24.0863C92.5883 24.3559 92.2465 24.7005 91.9195 25.1199C92.3356 24.8203 92.7072 24.5207 93.0341 24.2211C93.361 23.9216 93.7028 23.5621 94.0595 23.1426C94.1189 23.0528 94.2527 22.903 94.4607 22.6933C94.6985 22.4836 94.9512 22.2589 95.2187 22.0192C95.4862 21.7496 95.7239 21.5099 95.932 21.3002C96.1698 21.0606 96.3184 20.8958 96.3778 20.8059V20.8958C96.8831 20.3565 97.3735 19.7724 97.849 19.1432C98.3543 18.4842 98.9042 17.885 99.4986 17.3458C99.4392 17.4955 99.3648 17.6154 99.2757 17.7052L98.384 18.6489C98.2354 18.8287 98.1017 19.0084 97.9828 19.1882C97.8936 19.3679 97.7747 19.5327 97.6261 19.6825C97.4775 19.8622 97.3289 20.057 97.1803 20.2667C97.0614 20.4764 96.9425 20.6711 96.8236 20.8509C96.9128 20.7909 96.9722 20.716 97.002 20.6262C97.0614 20.5363 97.1208 20.4614 97.1803 20.4015C97.4181 20.1618 97.6261 19.9221 97.8045 19.6825C98.0125 19.4129 98.2354 19.1732 98.4732 18.9635C98.7407 18.6339 99.0082 18.3194 99.2757 18.0198C99.5432 17.6903 99.8255 17.4057 100.123 17.166C100.182 17.2559 100.167 17.3308 100.078 17.3907C100.019 17.4506 99.9593 17.5105 99.8998 17.5704C99.5729 18.0498 99.2162 18.5141 98.8299 18.9635C98.4732 19.4129 98.1017 19.8622 97.7153 20.3116C97.6856 20.3715 97.7301 20.3416 97.849 20.2217C97.9679 20.1019 98.0868 19.9671 98.2057 19.8173C98.3543 19.6675 98.4881 19.5327 98.6069 19.4129C98.7258 19.293 98.7704 19.2631 98.7407 19.323C98.7704 19.323 98.7853 19.323 98.7853 19.323C98.7853 19.293 98.8001 19.278 98.8299 19.278C98.7704 19.338 98.7407 19.3979 98.7407 19.4578C98.7407 19.4878 98.7258 19.5327 98.6961 19.5926C98.7258 19.6525 98.7555 19.6825 98.7853 19.6825C98.8447 19.6525 98.8893 19.6525 98.919 19.6825C99.1865 19.4129 99.3797 19.2181 99.4986 19.0983C99.6175 18.9785 99.7364 18.8886 99.8553 18.8287C99.9741 18.7388 100.093 18.6489 100.212 18.5591C100.331 18.4392 100.524 18.2445 100.791 17.9749C100.732 18.0947 100.658 18.1996 100.569 18.2894C100.479 18.3493 100.405 18.4392 100.346 18.5591C100.435 18.4991 100.524 18.4093 100.613 18.2894C100.732 18.1696 100.851 18.0797 100.97 18.0198C100.583 18.5291 100.152 19.0234 99.6769 19.5027C99.2311 19.9821 98.8298 20.4914 98.4732 21.0306C98.6218 20.9707 98.7407 20.8658 98.8299 20.716C98.919 20.5662 99.023 20.4314 99.1419 20.3116C98.9042 20.761 98.6664 21.1355 98.4286 21.435C98.1908 21.7346 97.9233 22.0941 97.6261 22.5135C97.6856 22.5135 97.6558 22.6034 97.537 22.7831C97.4181 22.9329 97.3883 23.0078 97.4478 23.0078C97.4181 23.0677 97.3289 23.1426 97.1803 23.2325C97.0614 23.4123 96.8534 23.6519 96.5561 23.9515C96.2886 24.2511 95.9914 24.5657 95.6645 24.8952C95.3375 25.2247 95.0255 25.5393 94.7282 25.8389C94.431 26.1385 94.223 26.3781 94.1041 26.5579C94.0744 26.5878 94.0595 26.6178 94.0595 26.6477C94.0892 26.6477 94.0892 26.6627 94.0595 26.6927C93.6137 27.1121 93.1381 27.5615 92.6329 28.0408C92.1276 28.4902 91.6075 28.8946 91.0725 29.2541C91.013 29.314 90.9239 29.359 90.805 29.3889C90.7158 29.4189 90.6266 29.4638 90.5375 29.5237C90.4483 29.5537 90.3591 29.5836 90.27 29.6136C90.1808 29.6436 90.0768 29.6735 89.9579 29.7035C89.7796 29.7634 89.5121 29.7634 89.1554 29.7035C88.7987 29.6735 88.561 29.6136 88.4421 29.5237C88.1151 29.6436 87.8476 29.6136 87.6396 29.4339C87.4613 29.2841 87.3127 29.1193 87.1938 28.9395C87.1938 28.9395 87.1938 28.8946 87.1938 28.8047C86.956 28.625 86.8817 28.2954 86.9709 27.8161C86.9709 27.7862 86.9709 27.7862 86.9709 27.8161C86.9411 27.8461 86.9114 27.8461 86.8817 27.8161C86.7628 27.6663 86.6736 27.5165 86.6142 27.3667C86.525 27.187 86.4953 26.9773 86.525 26.7376C86.4656 26.2882 86.4804 25.8089 86.5696 25.2996C86.6588 24.7005 86.8371 24.0863 87.1046 23.4572C87.2532 22.858 87.4167 22.2888 87.595 21.7496C87.8922 20.9407 88.1746 20.2068 88.4421 19.5477C88.7096 18.8586 88.9771 18.2145 89.2446 17.6154C89.5121 16.9863 89.7944 16.3721 90.0916 15.7729C90.4186 15.1438 90.7604 14.4848 91.117 13.7957V13.6609C91.1765 13.5111 91.2062 13.4512 91.2062 13.4812C91.2062 13.4812 91.2062 13.4961 91.2062 13.5261C91.2062 13.556 91.2062 13.586 91.2062 13.616C91.2062 13.616 91.2359 13.5411 91.2954 13.3913C91.4143 13.2115 91.5777 12.9269 91.7858 12.5375C92.0236 12.148 92.2613 11.7436 92.4991 11.3242C92.7369 10.8748 92.9598 10.4554 93.1678 10.0659C93.3759 9.67647 93.5394 9.39187 93.6583 9.21212C93.4799 9.24208 93.3016 9.25706 93.1233 9.25706C92.9449 9.2271 92.7666 9.2271 92.5883 9.25706L93.4353 9.12225C93.4948 9.06233 93.5542 9.04735 93.6137 9.07731C93.6731 9.10727 93.7326 9.09229 93.792 9.03237V8.98744C93.792 8.98744 93.7771 8.97246 93.7474 8.9425ZM99.4986 4.85321C99.558 4.73338 99.5878 4.68845 99.5878 4.7184C99.558 4.68845 99.5432 4.68845 99.5432 4.7184C99.5432 4.74836 99.5283 4.76334 99.4986 4.76334C99.558 4.64351 99.6026 4.58359 99.6323 4.58359C99.6323 4.73338 99.5878 4.82326 99.4986 4.85321ZM98.2949 21.9293C98.1462 22.169 97.9828 22.3787 97.8045 22.5585C97.8639 22.4686 97.9382 22.3787 98.0274 22.2888C98.1463 22.169 98.2354 22.0492 98.2949 21.9293ZM97.1803 19.9521C97.1208 20.012 97.0763 20.057 97.0465 20.0869C97.0465 20.1169 97.0168 20.1468 96.9574 20.1768C97.0168 20.027 97.0911 19.9521 97.1803 19.9521ZM96.467 23.8616C96.5859 23.8616 96.6453 23.8167 96.6453 23.7268C96.5264 23.7268 96.467 23.7718 96.467 23.8616ZM99.7215 8.98744C99.6918 9.07731 99.6472 9.10727 99.5878 9.07731C99.5878 9.01739 99.6323 8.98744 99.7215 8.98744ZM99.454 9.07731C99.454 9.10727 99.3946 9.12225 99.2757 9.12225C99.2757 9.06233 99.2905 9.04735 99.3203 9.07731C99.3797 9.07731 99.4243 9.07731 99.454 9.07731ZM96.7345 20.4015C96.7642 20.4614 96.7493 20.5063 96.6899 20.5363C96.6304 20.5662 96.5859 20.6112 96.5561 20.6711C96.5561 20.6112 96.571 20.5662 96.6007 20.5363C96.6602 20.5063 96.7047 20.4614 96.7345 20.4015ZM92.187 9.25706C92.1573 9.28702 92.1276 9.302 92.0979 9.302H92.0533C92.083 9.302 92.0979 9.302 92.0979 9.302C92.0979 9.27204 92.1127 9.25706 92.1424 9.25706H92.187ZM98.6515 21.48C98.6515 21.5099 98.6367 21.5399 98.6069 21.5698C98.5772 21.5998 98.5624 21.6298 98.5624 21.6597C98.5624 21.5998 98.5624 21.5698 98.5624 21.5698C98.5921 21.5698 98.6218 21.5399 98.6515 21.48ZM91.6966 25.2996H91.652C91.652 25.2996 91.6669 25.2847 91.6966 25.2547V25.2996Z" transform="translate(8 4)" fill="white"/>
</svg>
