<svg width="176" height="41" viewBox="0 0 176 41" fill="none" xmlns="http://www.w3.org/2000/svg">
<path fill-rule="evenodd" clip-rule="evenodd" d="M27.702 2.58044C30.5412 4.30073 32.8125 6.59443 34.516 9.46158C34.7999 10.035 35.0837 10.3217 35.0837 10.8952C35.3677 15.4826 28.5538 21.2169 24.5791 23.7973C20.8883 26.3778 14.3582 26.3778 10.6674 23.7973C6.97655 21.2169 -1.25681 14.6225 0.162744 10.035C1.86621 6.88118 4.42142 4.30073 7.54444 2.58044C10.3836 0.860145 13.7905 1.74997e-05 17.4813 1.74997e-05C21.1722 1.74997e-05 24.8629 0.860145 27.702 2.58044Z" transform="translate(2.23462)" fill="#64ECF5"/>
<path d="M5.372 19.176H7.752C9.86 19.176 11.4807 18.5187 12.614 17.204C13.77 15.8893 14.348 14.0307 14.348 11.628C14.348 9.588 13.77 7.956 12.614 6.732C11.458 5.48533 9.826 4.862 7.718 4.862H5.372V19.176ZM0 0.543999H7.888C11.3333 0.543999 14.1553 1.60933 16.354 3.74C18.5527 5.848 19.652 8.47733 19.652 11.628C19.652 15.3 18.564 18.19 16.388 20.298C14.2347 22.406 11.3787 23.46 7.82 23.46H0V0.543999Z" transform="translate(53 9)" fill="#34314B"/>
<path d="M27.969 6.222V9.418C28.2863 8.42067 28.8077 7.62733 29.533 7.038C30.281 6.426 31.1423 6.12 32.117 6.12C32.661 6.12 33.0917 6.16533 33.409 6.256V10.948C32.865 10.6987 32.2416 10.574 31.539 10.574C30.4737 10.574 29.6123 10.9707 28.955 11.764C28.2977 12.5347 27.969 13.566 27.969 14.858V23.46H23.005L23.039 6.222H27.969Z" transform="translate(53 9)" fill="#34314B"/>
<path d="M44.157 16.388H42.559C41.7203 16.388 41.0743 16.5693 40.621 16.932C40.1676 17.2947 39.941 17.7593 39.941 18.326C39.941 19.482 40.6096 20.06 41.947 20.06C42.6496 20.06 43.1936 19.8447 43.579 19.414C43.9643 18.9833 44.157 18.394 44.157 17.646V16.388ZM36.099 11.526V7.072C37.459 6.30133 39.4196 5.916 41.981 5.916C44.429 5.916 46.2536 6.44867 47.455 7.514C48.6563 8.55667 49.257 10.1887 49.257 12.41V23.46H44.395V21.352C43.6696 22.8253 42.2416 23.562 40.111 23.562C38.4336 23.562 37.119 23.086 36.167 22.134C35.2376 21.182 34.773 19.992 34.773 18.564C34.773 16.9093 35.3736 15.6287 36.575 14.722C37.799 13.7927 39.601 13.328 41.981 13.328H44.157V12.138C44.157 10.6873 43.1936 9.962 41.267 9.962C39.4083 9.962 37.6856 10.4833 36.099 11.526Z" transform="translate(53 9)" fill="#34314B"/>
<path d="M58.1182 6.222V9.146C58.5489 8.194 59.2062 7.446 60.0902 6.902C60.9969 6.33533 62.0736 6.052 63.3202 6.052C65.0882 6.052 66.4709 6.58467 67.4682 7.65C68.4655 8.69267 68.9642 10.234 68.9642 12.274V23.46H64.0002V13.192C64.0002 12.172 63.7622 11.4013 63.2862 10.88C62.8102 10.336 62.1416 10.064 61.2802 10.064C60.3736 10.064 59.6142 10.4267 59.0022 11.152C58.4129 11.8547 58.1182 12.92 58.1182 14.348V23.46H53.1542V6.222H58.1182Z" transform="translate(53 9)" fill="#34314B"/>
<path d="M89.0949 23.46H83.3489L77.8409 14.994V23.46H72.8769V0H77.8409V13.94L83.2809 6.222H88.9929L83.0089 14.484L89.0949 23.46Z" transform="translate(53 9)" fill="#34314B"/>
<path d="M102.384 6.732V10.982C101.182 10.2793 99.7772 9.928 98.1678 9.928C97.5785 9.928 97.1252 10.0527 96.8078 10.302C96.4905 10.5287 96.3318 10.8233 96.3318 11.186C96.3318 11.39 96.3885 11.5827 96.5018 11.764C96.6152 11.9453 96.7965 12.1153 97.0458 12.274C97.3178 12.4327 97.5672 12.58 97.7938 12.716C98.0432 12.8293 98.3718 12.9767 98.7798 13.158C99.2105 13.3393 99.5505 13.498 99.7998 13.634C100.842 14.178 101.681 14.8127 102.316 15.538C102.95 16.2407 103.268 17.1473 103.268 18.258C103.268 19.958 102.656 21.2727 101.432 22.202C100.208 23.1313 98.5872 23.596 96.5698 23.596C94.4845 23.596 92.7392 23.2447 91.3338 22.542V18.122C92.8978 19.21 94.5525 19.754 96.2978 19.754C97.5445 19.754 98.1678 19.3573 98.1678 18.564C98.1678 18.36 98.1112 18.1673 97.9978 17.986C97.8845 17.8047 97.6918 17.6347 97.4198 17.476C97.1478 17.3173 96.8985 17.1927 96.6718 17.102C96.4452 16.9887 96.1165 16.8413 95.6858 16.66C95.2552 16.4787 94.9265 16.3313 94.6998 16.218C92.4105 15.13 91.2658 13.498 91.2658 11.322C91.2658 9.64467 91.9005 8.34133 93.1698 7.412C94.4618 6.48267 96.0598 6.018 97.9638 6.018C99.7318 6.018 101.205 6.256 102.384 6.732Z" transform="translate(53 9)" fill="#34314B"/>
<path d="M113.928 23.732C111.231 23.732 109.146 22.9273 107.672 21.318C106.199 19.686 105.462 17.6007 105.462 15.062C105.462 12.41 106.233 10.234 107.774 8.534C109.316 6.81133 111.367 5.95 113.928 5.95C116.603 5.95 118.677 6.77733 120.15 8.432C121.624 10.0867 122.36 12.1947 122.36 14.756C122.36 17.3627 121.612 19.516 120.116 21.216C118.643 22.8933 116.58 23.732 113.928 23.732ZM113.894 9.86C112.806 9.86 111.99 10.3247 111.446 11.254C110.902 12.1833 110.63 13.3847 110.63 14.858C110.63 16.3313 110.902 17.544 111.446 18.496C112.013 19.4253 112.852 19.89 113.962 19.89C115.05 19.89 115.855 19.4367 116.376 18.53C116.92 17.6007 117.192 16.3993 117.192 14.926C117.192 11.5487 116.093 9.86 113.894 9.86Z" transform="translate(53 9)" fill="#34314B"/>
<path fill-rule="evenodd" clip-rule="evenodd" d="M18.0126 24.3708C13.1861 23.7973 9.21131 21.217 6.08829 18.0631C2.39745 14.3358 0.126148 9.17492 0.126148 3.72733C0.126148 2.29376 -0.157763 1.43356 0.126148 -1.74997e-05C0.97788 1.43356 4.10093 4.87416 7.79177 7.45459C14.6056 12.042 18.8643 12.6155 18.0126 24.3708Z" transform="translate(0 16.6289)" fill="#FFC69C"/>
<path fill-rule="evenodd" clip-rule="evenodd" d="M0.113928 24.3708C4.94041 23.7973 8.9152 21.217 12.0382 18.0631C15.7291 14.3358 18.0003 9.17492 18.0003 3.72733C18.0003 2.29376 18.2842 1.43356 18.0003 -1.74997e-05C17.1485 1.43356 14.0256 4.87416 10.3347 7.45459C3.23696 12.042 -0.737805 12.6155 0.113928 24.3708Z" transform="translate(21.8735 16.6289)" fill="#8667F7"/>
</svg>
