<?xml version="1.0" encoding="utf-8"?>
<!-- Generator: Adobe Illustrator 17.0.0, SVG Export Plug-In . SVG Version: 6.00 Build 0)  -->
<!DOCTYPE svg PUBLIC "-//W3C//DTD SVG 1.1//EN" "http://www.w3.org/Graphics/SVG/1.1/DTD/svg11.dtd">
<svg version="1.1" id="Layer_1" xmlns="http://www.w3.org/2000/svg" xmlns:xlink="http://www.w3.org/1999/xlink" x="0px" y="0px"
	 width="500px" height="500px" viewBox="0 0 100 100" enable-background="new 0 0 100 100" xml:space="preserve">
<g>
	<g>
		<g>
			<path fill="#F6DC81" d="M50.549,26.22c-9.244,1.779-18.295,9.674-20.475,20.913c-2.193,11.157,6.236,24.275,20.451,24.13
				c14.252-0.146,22.623-13.235,20.475-24.134C68.866,36.148,59.797,28.287,50.549,26.22z"/>
			<path fill="#434953" d="M50.291,72.229c-6.56-0.001-12.425-2.739-16.515-7.711c-4.095-4.979-5.834-11.549-4.65-17.572
				c2.086-10.756,10.821-19.67,21.24-21.676l0.198-0.038l0.196,0.044c10.449,2.336,19.163,11.246,21.189,21.667
				c1.156,5.864-0.564,12.328-4.6,17.288c-4.139,5.088-10.111,7.928-16.814,7.996L50.291,72.229L50.291,72.229z M50.534,27.207
				c-9.576,1.935-17.585,10.175-19.511,20.109c-1.074,5.466,0.513,11.436,4.246,15.975c3.716,4.517,9.051,7.005,15.022,7.006
				l0.225-0.001c6.118-0.063,11.563-2.649,15.334-7.283c3.678-4.52,5.249-10.388,4.203-15.697
				C67.872,36.097,58.448,29.057,50.534,27.207L50.534,27.207z"/>
		</g>
		<g>
			<path fill="#CDD9D6" d="M34.726,40.725c-1.169,0.517-2.3,1.171-3.366,1.944c-0.547,1.42-0.984,2.908-1.286,4.463
				c-0.936,4.759,0.068,9.872,2.622,14.163c3.559-2.612,5.65-6.52,5.491-10.729C38.058,46.864,36.735,43.49,34.726,40.725z"/>
			<path fill="#434953" d="M32.41,62.704l-0.544-0.914c-2.703-4.542-3.702-9.952-2.739-14.844c0.303-1.561,0.751-3.118,1.332-4.624
				l0.103-0.267l0.231-0.168c1.123-0.814,2.315-1.502,3.543-2.045l0.714-0.316l0.459,0.631c2.256,3.104,3.516,6.692,3.645,10.375
				c0.168,4.466-1.977,8.674-5.885,11.542L32.41,62.704L32.41,62.704z M32.159,43.286c-0.491,1.317-0.873,2.671-1.137,4.031
				c-0.805,4.092-0.089,8.593,1.962,12.516c2.836-2.439,4.368-5.75,4.237-9.23c-0.107-3.045-1.079-6.02-2.823-8.655
				C33.63,42.332,32.88,42.78,32.159,43.286L32.159,43.286z"/>
		</g>
		<g>
			<path fill="#CDD9D6" d="M66.337,40.725c1.17,0.517,2.301,1.171,3.366,1.944c0.547,1.42,0.985,2.908,1.287,4.463
				c0.935,4.759-0.068,9.872-2.623,14.163c-3.559-2.612-5.65-6.52-5.491-10.729C63.007,46.864,64.328,43.49,66.337,40.725z"/>
			<path fill="#434953" d="M68.654,62.704l-0.858-0.629c-3.908-2.869-6.053-7.076-5.885-11.545c0.13-3.683,1.391-7.27,3.644-10.372
				l0.459-0.631l0.714,0.315c1.23,0.543,2.422,1.232,3.543,2.046l0.231,0.168l0.103,0.267c0.582,1.511,1.032,3.068,1.334,4.627
				c0.96,4.891-0.038,10.302-2.741,14.841L68.654,62.704L68.654,62.704z M66.665,41.947c-1.742,2.633-2.715,5.609-2.823,8.653
				c-0.131,3.482,1.401,6.793,4.237,9.232c2.051-3.921,2.767-8.423,1.964-12.514c-0.264-1.358-0.646-2.713-1.138-4.033
				C68.184,42.78,67.434,42.332,66.665,41.947L66.665,41.947z"/>
		</g>
		<g>
			<circle fill="#FFFFFF" cx="38.757" cy="42.395" r="8.212"/>
			<path fill="#434953" d="M38.757,51.573c-5.061,0-9.178-4.117-9.178-9.178s4.117-9.178,9.178-9.178
				c5.061,0,9.178,4.117,9.178,9.178S43.818,51.573,38.757,51.573L38.757,51.573z M38.757,35.149c-3.995,0-7.246,3.251-7.246,7.246
				s3.251,7.246,7.246,7.246c3.995,0,7.246-3.251,7.246-7.246S42.752,35.149,38.757,35.149L38.757,35.149z"/>
		</g>
		<g>
			<circle fill="#FFFFFF" cx="61.969" cy="42.395" r="8.212"/>
			<path fill="#434953" d="M61.969,51.573c-5.061,0-9.178-4.117-9.178-9.178s4.117-9.178,9.178-9.178s9.178,4.117,9.178,9.178
				S67.03,51.573,61.969,51.573L61.969,51.573z M61.969,35.149c-3.995,0-7.246,3.251-7.246,7.246s3.251,7.246,7.246,7.246
				s7.246-3.251,7.246-7.246S65.965,35.149,61.969,35.149L61.969,35.149z"/>
		</g>
		<g>
			<path fill-rule="evenodd" clip-rule="evenodd" fill="#434953" d="M44.314,20.527c-2.649-2.074-4.515-3.079-4.905-4.248
				c-0.43-1.608,5.139-1.51,7.103,2.106c2.087,3.345,2.312,4.787,3.398,8.359C48.16,23.469,46.95,22.552,44.314,20.527z"/>
		</g>
		<g>
			<path fill-rule="evenodd" clip-rule="evenodd" fill="#434953" d="M41.036,23.538c-2.327-0.643-3.841-0.795-4.421-1.462
				c-0.728-0.947,2.989-2.417,5.287-0.563c2.305,1.641,2.851,2.535,4.554,4.602C44.397,24.427,43.341,24.153,41.036,23.538z"/>
		</g>
		<g>
			<circle fill="#434953" cx="38.758" cy="42.395" r="2.973"/>
			<circle fill="#FFFFFF" cx="37.877" cy="41.294" r="0.771"/>
			<circle fill="#FFFFFF" cx="36.775" cy="42.285" r="0.358"/>
		</g>
		<g>
			<circle fill="#434953" cx="61.971" cy="42.395" r="2.973"/>
			<circle fill="#FFFFFF" cx="61.089" cy="41.294" r="0.771"/>
			<circle fill="#FFFFFF" cx="59.988" cy="42.285" r="0.357"/>
		</g>
		<g>
			<path fill="#F9A559" d="M50.537,42.539c-4.482,0.376-7.89,2.251-7.89,4.509c0,2.258,3.408,4.133,7.89,4.509
				c4.482-0.376,7.89-2.251,7.89-4.509C58.427,44.789,55.019,42.914,50.537,42.539z"/>
			<path fill="#434953" d="M50.537,52.526l-0.081-0.007c-5.167-0.433-8.775-2.683-8.775-5.471c0-2.788,3.609-5.038,8.775-5.471
				l0.081-0.007l0.081,0.007c5.167,0.433,8.776,2.683,8.776,5.471c0,2.788-3.609,5.038-8.776,5.471L50.537,52.526L50.537,52.526z
				 M50.537,43.508c-4.28,0.378-6.924,2.125-6.924,3.539s2.644,3.161,6.924,3.539c4.279-0.378,6.924-2.125,6.924-3.539
				S54.816,43.886,50.537,43.508L50.537,43.508z"/>
		</g>
		<g>
			<path fill="#434953" d="M50.215,48.671c-2.584,0-5.167-0.224-7.733-0.672l0.332-1.903c4.911,0.857,9.89,0.857,14.801,0
				l0.332,1.903C55.382,48.447,52.799,48.671,50.215,48.671L50.215,48.671z"/>
		</g>
	</g>
	<g>
		<path fill="#434953" d="M25.832,84.039c-0.396,0.012-0.698-0.132-0.903-0.433c-0.196-0.289-0.294-0.732-0.294-1.331v-4.897h1.027
			v5.095c0,0.371,0.179,0.557,0.539,0.557c0.037,0,0.081-0.003,0.131-0.009c0.051-0.006,0.328-0.011,0.832-0.014l-0.074,0.995
			L25.832,84.039z"/>
		<path fill="#434953" d="M29.561,84.002v-6.661h1.046v6.661H29.561z"/>
		<path fill="#434953" d="M32.94,78.304v-0.963h3.16v0.963h-1.069v5.698h-1.027v-5.698H32.94z"/>
		<path fill="#434953" d="M37.876,78.304v-0.963h3.16v0.963h-1.069v5.698h-1.027v-5.698H37.876z"/>
		<path fill="#434953" d="M44.743,84.039c-0.396,0.012-0.698-0.132-0.903-0.433c-0.196-0.289-0.294-0.732-0.294-1.331v-4.897h1.027
			v5.095c0,0.371,0.179,0.557,0.539,0.557c0.037,0,0.081-0.003,0.131-0.009c0.051-0.006,0.328-0.011,0.832-0.014L46,84.002
			L44.743,84.039z"/>
		<path fill="#434953" d="M48.472,84.002v-6.661h2.676v0.963H49.5v1.745h1.189v0.963H49.5v1.99h1.649v0.999H48.472z"/>
		<path fill="#434953" d="M57.636,84.002v-6.661h1.359c0.55,0,0.972,0.152,1.269,0.454c0.296,0.303,0.445,0.73,0.445,1.283
			c0,0.657-0.238,1.164-0.714,1.52c0.534,0.307,0.801,0.847,0.801,1.622c0,1.188-0.548,1.783-1.644,1.783H57.636z M58.654,80.114
			h0.415c0.396,0,0.594-0.304,0.594-0.912c0-0.599-0.226-0.898-0.677-0.898h-0.332V80.114z M58.654,83.039h0.442
			c0.426,0,0.64-0.318,0.64-0.954c0-0.325-0.045-0.564-0.134-0.714c-0.113-0.196-0.319-0.295-0.617-0.295h-0.332V83.039z"/>
		<path fill="#434953" d="M63.521,84.002v-6.661h1.046v6.661H63.521z"/>
		<path fill="#434953" d="M68.504,81.201v2.801h-1.027v-6.661h1.506c0.599,0,1.026,0.177,1.281,0.53
			c0.215,0.301,0.323,0.766,0.323,1.396c0,0.793-0.216,1.339-0.65,1.64l0.755,3.095H69.63l-0.636-2.801H68.504z M68.504,78.304
			v1.935h0.405c0.274,0,0.456-0.108,0.549-0.323c0.055-0.132,0.083-0.361,0.083-0.686c0-0.31-0.036-0.53-0.106-0.659
			c-0.095-0.178-0.282-0.267-0.562-0.267H68.504z"/>
		<path fill="#434953" d="M73.306,84.002v-6.661h1.46c1.108,0,1.663,0.61,1.663,1.829v2.976c0,0.611-0.115,1.064-0.346,1.359
			c-0.258,0.331-0.682,0.498-1.271,0.498H73.306z M74.325,83.021h0.52c0.357,0,0.535-0.233,0.535-0.7v-3.206
			c0-0.528-0.274-0.792-0.82-0.792h-0.235V83.021z"/>
	</g>
</g>
</svg>
