<svg width="310" height="160" viewBox="0 0 310 160" fill="none" xmlns="http://www.w3.org/2000/svg">
<g filter="url(#filter0_d)">
<rect width="270" height="120" rx="4" transform="translate(20 20)" fill="white"/>
</g>
<path d="M0 30.6012L2.58629 0.491405H10.1222L14.3138 11.3917C15.0272 13.2084 15.6366 14.8762 16.142 16.3951C16.6474 17.914 16.9744 18.9861 17.123 19.6116L17.346 20.505C17.8216 18.5394 18.8621 15.5016 20.4674 11.3917L24.7035 0.491405H32.2394L35.3608 30.6012H28.4938L27.379 18.9415L26.7993 10.1408C26.0264 12.3745 24.9562 15.308 23.5887 18.9415L19.3526 30.2885H15.2948L11.1032 18.9415C10.4195 17.095 9.83979 15.4421 9.36415 13.9827C8.88851 12.5234 8.57637 11.5108 8.42774 10.945L8.20479 10.1408C8.20479 12.2554 8.07101 15.1889 7.80346 18.9415L6.86705 30.6012H0Z" transform="translate(102 65)" fill="#64ECF5"/>
<path d="M40.9159 30.6012V0.491405H47.7829V30.6012H40.9159Z" transform="translate(102 65)" fill="#64ECF5"/>
<path d="M74.0343 0.491405V6.03089H66.7213V30.6012H59.8097V6.03089H52.4521V0.491405H74.0343Z" transform="translate(102 65)" fill="#64ECF5"/>
<path d="M77.1532 15.457C77.1532 10.8407 78.4761 7.11794 81.1218 4.28863C83.7973 1.42954 87.3497 0 91.7791 0C96.2382 0 99.7907 1.41465 102.436 4.24396C105.082 7.07327 106.405 10.8109 106.405 15.457C106.405 20.0732 105.067 23.8109 102.392 26.6699C99.7461 29.4992 96.2085 30.9139 91.7791 30.9139C87.32 30.9139 83.7676 29.4992 81.1218 26.6699C78.4761 23.8406 77.1532 20.103 77.1532 15.457ZM86.4728 8.75596C85.1648 10.394 84.5108 12.6276 84.5108 15.457C84.5108 18.2863 85.1648 20.5348 86.4728 22.2026C87.7808 23.8406 89.5496 24.6596 91.7791 24.6596C94.0087 24.6596 95.7775 23.8406 97.0855 22.2026C98.3935 20.5348 99.0475 18.2863 99.0475 15.457C99.0475 12.6276 98.3935 10.394 97.0855 8.75596C95.7775 7.08816 94.0087 6.25426 91.7791 6.25426C89.5496 6.25426 87.7808 7.08816 86.4728 8.75596Z" transform="translate(102 65)" fill="#64ECF5"/>
<defs>
<filter id="filter0_d" x="0" y="0" width="310" height="160" filterUnits="userSpaceOnUse" color-interpolation-filters="sRGB">
<feFlood flood-opacity="0" result="BackgroundImageFix"/>
<feColorMatrix in="SourceAlpha" type="matrix" values="0 0 0 0 0 0 0 0 0 0 0 0 0 0 0 0 0 0 255 0"/>
<feOffset/>
<feGaussianBlur stdDeviation="10"/>
<feColorMatrix type="matrix" values="0 0 0 0 0.203922 0 0 0 0 0.192157 0 0 0 0 0.294118 0 0 0 0.1 0"/>
<feBlend mode="normal" in2="BackgroundImageFix" result="effect1_dropShadow"/>
<feBlend mode="normal" in="SourceGraphic" in2="effect1_dropShadow" result="shape"/>
</filter>
</defs>
</svg>
