<svg width="310" height="160" viewBox="0 0 310 160" fill="none" xmlns="http://www.w3.org/2000/svg">
<g filter="url(#filter0_d)">
<rect width="270" height="120" rx="4" transform="translate(20 20)" fill="white"/>
</g>
<rect width="149" height="50" transform="translate(81 55)" fill="#8667F7"/>
<path d="M11.9512 14.8854C11.8398 14.9229 11.7654 15.0165 11.7283 15.1663C11.6911 15.2786 11.6354 15.4097 11.5611 15.5595C11.5611 15.5969 11.5797 15.6157 11.6168 15.6157C11.3568 16.065 11.171 16.3833 11.0596 16.5706C10.9481 16.7578 10.7809 17.1136 10.558 17.6378C10.5208 17.7502 10.4465 17.8625 10.3351 17.9749C10.2608 18.4242 10.0936 18.8736 9.83353 19.323C9.61062 19.7724 9.42485 20.2405 9.27625 20.7273C9.87068 20.203 10.5208 19.6038 11.2267 18.9298C11.9326 18.2183 12.7128 17.6566 13.5673 17.2446C13.7531 17.1697 13.9203 17.1136 14.0689 17.0761C14.2546 17.0012 14.4218 16.9451 14.5704 16.9076C14.6447 16.8702 14.7005 16.8702 14.7376 16.9076C14.7748 16.9076 14.8305 16.8889 14.9048 16.8514C14.942 16.8514 14.9605 16.8327 14.9605 16.7953C14.9605 16.7953 14.9791 16.7765 15.0163 16.7391C15.1277 16.7017 15.2578 16.7204 15.4064 16.7953C15.555 16.8327 15.7036 16.8514 15.8522 16.8514C15.9637 16.8514 16.0751 16.8327 16.1866 16.7953C16.3352 16.7578 16.4838 16.7204 16.6324 16.6829C16.9296 16.7578 17.1711 16.9076 17.3569 17.1323C17.5798 17.3195 17.7655 17.5442 17.9141 17.8064C18.0999 17.8813 18.2485 17.9374 18.36 17.9749C18.4714 18.0123 18.5829 18.0872 18.6943 18.1996C18.7686 18.1996 18.7501 18.1621 18.6386 18.0872C18.5272 17.9749 18.5086 17.9 18.5829 17.8625L19.3074 18.1996C19.3074 18.3868 19.3631 18.4991 19.4745 18.5366C19.5488 18.9111 19.6603 19.2668 19.8089 19.6038C19.9575 19.9034 20.0318 20.2779 20.0318 20.7273C19.9947 22.0005 19.7903 23.2175 19.4188 24.3784C19.0844 25.5018 18.7315 26.4942 18.36 27.3555C17.394 29.4526 16.298 31.2688 15.072 32.8041C13.846 34.3395 12.3413 35.6314 10.558 36.68C10.5208 36.68 10.5023 36.6612 10.5023 36.6238C10.5023 36.5864 10.4837 36.5676 10.4465 36.5676C10.0379 36.6425 9.7035 36.7549 9.44343 36.9047H9.22052C8.9233 36.9796 8.49605 36.9421 7.93876 36.7923C7.41863 36.6425 7.00996 36.6425 6.71274 36.7923C6.60128 36.5302 6.39694 36.3617 6.09973 36.2868C5.83966 36.2493 5.63532 36.137 5.48671 35.9497C5.48671 35.9123 5.50529 35.8936 5.54244 35.8936C5.57959 35.931 5.61675 35.931 5.6539 35.8936C5.6539 35.7063 5.57959 35.594 5.43099 35.5565C5.28238 35.4816 5.1895 35.3506 5.15234 35.1633C4.85513 35.0884 4.68794 34.9012 4.65079 34.6016C4.65079 34.302 4.61364 34.0399 4.53933 33.8152C4.57648 33.7778 4.61364 33.7778 4.65079 33.8152C4.68794 33.8152 4.72509 33.7965 4.76225 33.7591C4.83655 33.5718 4.85513 33.422 4.81797 33.3097C4.78082 33.1599 4.72509 32.9539 4.65079 32.6918C4.68794 32.6918 4.72509 32.7105 4.76225 32.748C4.98516 32.5233 5.24522 32.3922 5.54244 32.3548C5.61675 32.2799 5.63532 32.1863 5.59817 32.0739C5.59817 31.9616 5.67248 31.9054 5.82108 31.9054C5.78393 31.9803 5.74678 32.0365 5.70963 32.0739C5.67248 32.1114 5.69105 32.1675 5.76536 32.2424C5.83966 32.1675 5.91397 32.1301 5.98827 32.1301C6.09973 32.0926 6.15546 32.0177 6.15546 31.9054C6.26691 31.9803 6.32264 32.0552 6.32264 32.1301C6.32264 32.205 6.35979 32.2799 6.4341 32.3548C6.5084 32.7292 6.61986 33.0288 6.76847 33.2535C6.95423 33.4782 7.15857 33.6842 7.38148 33.8714C8.23598 33.7591 8.90472 33.4595 9.3877 32.9727C9.46201 32.8978 9.46201 32.8603 9.3877 32.8603C9.35055 32.8603 9.33197 32.8229 9.33197 32.748C9.88926 32.4484 10.3537 32.1301 10.7252 31.7931C11.1339 31.4186 11.524 31.0254 11.8955 30.6135C11.8955 30.5011 11.9141 30.4262 11.9512 30.3888C11.9884 30.3513 12.0069 30.2951 12.0069 30.2203C12.3413 29.9207 12.6199 29.5836 12.8429 29.2092C13.0658 28.7972 13.3258 28.4228 13.6231 28.0857L14.1803 26.9623C14.1432 26.8125 14.1618 26.7002 14.2361 26.6253C14.3475 26.5129 14.4404 26.4193 14.5147 26.3444C14.5519 26.307 14.6076 26.1759 14.6819 25.9512C14.7191 25.9512 14.7562 25.9325 14.7934 25.895C14.8677 25.7078 14.9234 25.5393 14.9605 25.3895C14.9977 25.2397 15.072 25.1274 15.1835 25.0525C15.4807 24.1537 15.7779 23.2924 16.0751 22.4686C16.3723 21.6447 16.5395 20.6337 16.5767 19.4353C16.0194 19.5851 15.4992 19.866 15.0163 20.2779C14.5333 20.6524 14.0503 21.0456 13.5673 21.4575C13.1215 21.7945 12.6571 22.169 12.1741 22.5809C11.6911 22.9929 11.2082 23.4048 10.7252 23.8167C9.94499 24.678 9.14621 25.5767 8.32886 26.5129C7.51151 27.4117 6.69416 28.3479 5.87681 29.3215C5.35668 30.1828 4.83655 30.9692 4.31642 31.6807C3.79629 32.3922 3.40619 33.291 3.14612 34.3769C3.07182 34.4893 2.99751 34.6016 2.92321 34.714C2.8489 34.8263 2.73745 34.9012 2.58884 34.9387C2.58884 35.0136 2.57026 35.0884 2.53311 35.1633C2.49596 35.2008 2.49596 35.2944 2.53311 35.4442C2.4588 35.5191 2.3845 35.594 2.3102 35.6689C2.23589 35.7438 2.18016 35.8374 2.14301 35.9497C1.95725 35.9497 1.90152 35.9123 1.97582 35.8374C2.01298 35.7625 1.93867 35.7438 1.75291 35.7812C1.71576 35.8187 1.71576 35.8561 1.75291 35.8936C1.75291 35.9685 1.73434 36.0246 1.69718 36.0621C1.43712 36.0995 1.32566 36.0434 1.36281 35.8936C1.36281 35.7812 1.28851 35.8 1.1399 35.9497C1.06559 35.9123 1.00987 35.8561 0.972714 35.7812C0.898409 35.6689 0.824105 35.5753 0.7498 35.5004C0.675496 35.3131 0.619767 35.1633 0.582615 35.051C0.508311 34.9387 0.489734 34.7889 0.526887 34.6016L0.0810595 34.2084C-0.0675496 33.3471 -0.0118212 32.5982 0.248245 31.9616C0.50831 31.325 0.768376 30.6509 1.02844 29.9394C1.2142 29.3028 1.41854 28.7223 1.64145 28.1981C1.86437 27.6364 2.10586 27.0747 2.36592 26.5129C2.58884 26.101 2.79317 25.6891 2.97894 25.2772C3.12755 24.8278 3.29473 24.3597 3.48049 23.8729C3.6291 23.5733 3.75913 23.2737 3.87059 22.9741C4.0192 22.6371 4.16781 22.2626 4.31642 21.8507C4.46503 21.7009 4.55791 21.5698 4.59506 21.4575C4.59506 21.4201 4.59506 21.4013 4.59506 21.4013C4.63221 21.3639 4.65079 21.3077 4.65079 21.2328C4.94801 20.4464 5.2638 19.66 5.59817 18.8736C5.96969 18.0872 6.34122 17.3195 6.71274 16.5706C6.8242 16.1961 6.97281 15.8404 7.15857 15.5033C7.34433 15.1288 7.53009 14.7356 7.71585 14.3237C7.79015 14.1365 7.86446 13.9867 7.93876 13.8744C8.01307 13.7246 8.03164 13.556 7.99449 13.3688L8.32886 12.9194C8.36602 12.8445 8.36602 12.7696 8.32886 12.6948C8.32886 12.6199 8.34744 12.545 8.38459 12.4701L8.66323 12.3016C8.66323 12.2267 8.70039 12.0769 8.77469 11.8522C8.84899 11.7024 8.90472 11.59 8.94188 11.5152C9.01618 11.4028 9.07191 11.3092 9.10906 11.2343C9.10906 11.122 9.12764 11.0471 9.16479 11.0096C9.20194 10.9722 9.20194 10.9534 9.16479 10.9534C9.16479 10.9534 9.18336 10.916 9.22052 10.8411C9.33197 10.7288 9.3877 10.6539 9.3877 10.6164C9.42485 10.579 9.44343 10.4853 9.44343 10.3356C9.51774 10.2232 9.57346 10.0921 9.61062 9.94235C9.68492 9.79256 9.75922 9.68022 9.83353 9.60532C9.90783 9.41808 9.98214 9.26829 10.0564 9.15595C10.1307 9.00616 10.2051 8.89382 10.2794 8.81892C10.3537 8.51934 10.4651 8.3321 10.6137 8.25721C10.6137 8.21976 10.6323 8.18231 10.6695 8.14486C10.7066 8.10742 10.7252 8.06997 10.7252 8.03252C11.0596 7.39591 11.3753 6.68441 11.6726 5.89801C11.9698 5.07416 12.3599 4.34393 12.8429 3.70732C12.9172 3.63242 12.9357 3.59497 12.8986 3.59497C12.8986 3.59497 12.8986 3.57625 12.8986 3.5388C13.0472 3.38901 13.1772 3.16433 13.2887 2.86475C13.4373 2.52772 13.6045 2.22814 13.7902 1.966C14.0132 1.70387 14.2361 1.51663 14.459 1.40429C14.7191 1.2545 15.0348 1.29195 15.4064 1.51663C15.4807 1.47918 15.4993 1.49791 15.4621 1.5728C15.4621 1.61025 15.4621 1.6477 15.4621 1.68514C15.4993 1.72259 15.555 1.72259 15.6293 1.68514C15.7036 1.6477 15.7779 1.61025 15.8522 1.5728C15.8522 1.61025 15.815 1.6477 15.7407 1.68514C15.7036 1.68514 15.7036 1.70387 15.7407 1.74132C16.038 1.77876 16.1866 1.81621 16.1866 1.85366C16.1866 1.89111 16.3352 1.92855 16.6324 1.966C16.5952 2.15324 16.6695 2.30303 16.8553 2.41537C17.0782 2.49027 17.2268 2.58389 17.3011 2.69623C17.4869 3.1456 17.5055 3.48263 17.3569 3.70732C17.2454 3.89455 17.1154 4.08179 16.9668 4.26903C17.0039 4.34393 16.9668 4.41882 16.8553 4.49372C16.781 4.53116 16.7067 4.58734 16.6324 4.66223C16.6695 4.84947 16.6324 4.99926 16.5209 5.11161C16.4095 5.1865 16.3909 5.33629 16.4652 5.56097C16.3166 5.52353 16.1866 5.65459 16.0751 5.95418C15.9637 6.25376 15.8708 6.42227 15.7965 6.45972C15.7965 6.57206 15.7779 6.64696 15.7407 6.68441C15.7036 6.72185 15.7222 6.79675 15.7965 6.90909C15.7222 7.05888 15.5921 7.20867 15.4064 7.35846C15.2578 7.47081 15.1835 7.6206 15.1835 7.80783C15.1835 7.77039 15.1463 7.77039 15.072 7.80783C14.9605 8.10742 14.942 8.31338 15.0163 8.42572C14.8677 8.50062 14.7376 8.53806 14.6262 8.53806C14.6262 8.61296 14.6076 8.66913 14.5704 8.70658C14.5704 8.74403 14.589 8.8002 14.6262 8.87509C14.5147 8.91254 14.459 8.98744 14.459 9.09978C14.459 9.17467 14.4218 9.23085 14.3475 9.26829C14.3475 9.53043 14.2732 9.69894 14.1246 9.77384C14.1989 9.96107 14.1618 10.167 14.0132 10.3917C13.9017 10.6164 13.846 10.8598 13.846 11.122C13.8088 11.1594 13.7345 11.2156 13.6231 11.2905C13.5488 11.3654 13.5302 11.4215 13.5673 11.459C13.493 11.6462 13.3816 11.8335 13.233 12.0207C13.1215 12.2079 13.0658 12.3952 13.0658 12.5824C12.9543 12.9194 12.8057 13.219 12.6199 13.4812C12.4713 13.7058 12.3599 14.0241 12.2856 14.4361L12.0627 14.6046C11.9884 14.6795 11.9512 14.7356 11.9512 14.7731C11.9884 14.7731 11.9884 14.8105 11.9512 14.8854ZM7.04711 25.4457C7.27002 25.0712 7.64155 24.5844 8.16168 23.9852C8.71896 23.3861 9.3134 22.7869 9.94499 22.1877C10.5766 21.5511 11.1896 20.9707 11.784 20.4464C12.4156 19.9221 12.9357 19.5289 13.3444 19.2668V19.2106C12.1927 20.1094 11.2453 20.8583 10.5023 21.4575C9.79638 22.0192 9.20194 22.5248 8.71896 22.9741C8.27313 23.3861 7.92019 23.7793 7.66012 24.1537C7.40006 24.5282 7.19572 24.9589 7.04711 25.4457ZM12.7871 18.0872C12.7128 18.1621 12.6199 18.1996 12.5085 18.1996C12.397 18.1996 12.3227 18.237 12.2856 18.3119C11.8026 18.7238 11.301 19.1545 10.7809 19.6038C10.2979 20.0532 9.90783 20.4651 9.61062 20.8396C9.75922 20.7647 9.87068 20.6711 9.94499 20.5588C10.0564 20.4464 10.1679 20.3153 10.2794 20.1656C10.428 19.9783 10.5766 19.8285 10.7252 19.7162C10.8738 19.6038 11.041 19.4915 11.2267 19.3792C11.3753 19.2668 11.5054 19.1545 11.6168 19.0421C11.7654 18.9298 11.8769 18.7987 11.9512 18.6489C12.0627 18.6489 12.137 18.6302 12.1741 18.5928C12.2113 18.5553 12.267 18.4991 12.3413 18.4242C12.4899 18.3868 12.6199 18.3306 12.7314 18.2557C12.8429 18.1808 12.9357 18.1059 13.01 18.031C13.0844 17.9561 13.1587 17.9 13.233 17.8625C13.3444 17.7876 13.4187 17.6753 13.4559 17.5255C13.2701 17.6004 13.1401 17.694 13.0658 17.8064C12.9915 17.9187 12.8986 18.0123 12.7871 18.0872ZM18.4714 17.8064C18.3971 17.8438 18.2857 17.8251 18.1371 17.7502C18.0256 17.6753 17.9141 17.6004 17.8027 17.5255C17.9885 17.4506 18.1185 17.4693 18.1928 17.5817C18.3042 17.694 18.3971 17.7689 18.4714 17.8064ZM9.16479 21.3452C9.35055 21.2328 9.42485 21.1205 9.3877 21.0081C9.35055 21.083 9.29482 21.1392 9.22052 21.1766C9.18336 21.2141 9.16479 21.2703 9.16479 21.3452ZM13.5116 17.5255C13.5116 17.5629 13.5302 17.5817 13.5673 17.5817L13.6231 17.5255V17.4132C13.5488 17.4132 13.5116 17.4506 13.5116 17.5255ZM11.2267 20.7273C11.2639 20.6898 11.2825 20.6711 11.2825 20.6711C11.3196 20.6711 11.3568 20.6337 11.3939 20.5588C11.2825 20.6711 11.2267 20.7273 11.2267 20.7273Z" transform="translate(91 60)" fill="white"/>
<path d="M32.7322 23.3673C32.7322 23.3673 32.7508 23.3861 32.788 23.4235L33.2338 23.0865C33.7168 22.5622 34.1998 22.0192 34.6827 21.4575C35.1657 20.8958 35.6115 20.3341 36.0202 19.7724C36.206 19.6975 36.336 19.5851 36.4103 19.4353C36.5218 19.2855 36.7075 19.2481 36.9676 19.323C37.1534 19.2481 37.302 19.117 37.4134 18.9298C37.5249 18.7051 37.6549 18.5553 37.8035 18.4804C38.0264 18.4804 38.1565 18.4617 38.1936 18.4242C38.2679 18.4617 38.2494 18.574 38.1379 18.7613C38.0264 18.9111 37.8964 19.0796 37.7478 19.2668C37.6363 19.4166 37.5435 19.5664 37.4692 19.7162C37.3948 19.866 37.4134 19.9221 37.5249 19.8847C37.5992 19.8847 37.6735 19.8473 37.7478 19.7724C37.8221 19.6975 37.9336 19.66 38.0822 19.66C38.1936 19.6226 38.2679 19.6226 38.3051 19.66C38.3794 19.6975 38.4537 19.6787 38.528 19.6038C38.4908 19.7162 38.4351 19.8473 38.3608 19.997C38.3237 20.1094 38.3051 20.2217 38.3051 20.3341C38.3051 20.3715 38.3794 20.3902 38.528 20.3902C38.4908 20.6149 38.4165 20.8209 38.3051 21.0081C38.1936 21.1954 38.1007 21.3826 38.0264 21.5698C37.6178 22.1316 37.2462 22.6184 36.9119 23.0303C36.5775 23.4422 36.2431 23.8354 35.9088 24.2099C35.6115 24.5844 35.2772 24.9776 34.9056 25.3895C34.5713 25.764 34.1812 26.2321 33.7354 26.7938C33.661 26.8312 33.6239 26.8687 33.6239 26.9061C33.6239 26.9061 33.5867 26.9061 33.5124 26.9061C32.6208 28.2168 31.7106 29.4713 30.7817 30.6696C29.8529 31.8305 28.8313 32.9165 27.7167 33.9276L27.661 34.1523C27.6238 34.1897 27.5681 34.302 27.4938 34.4893C27.1966 34.7514 26.8808 34.9948 26.5464 35.2195C26.212 35.4068 25.9148 35.6502 25.6547 35.9497C25.6176 35.9872 25.6547 36.0059 25.7662 36.0059C25.5433 36.3055 25.1532 36.5115 24.5959 36.6238C24.0758 36.7361 23.5928 36.811 23.147 36.8485C22.5154 36.9234 21.8652 36.8859 21.1965 36.7361C20.5649 36.5864 20.119 36.3055 19.859 35.8936C19.4875 35.7438 19.1717 35.4442 18.9116 34.9948C18.6887 34.3957 18.5772 33.7778 18.5772 33.1412C18.5772 32.4671 18.6515 31.8118 18.8001 31.1752C18.9116 30.5011 19.0788 29.8458 19.3017 29.2092C19.5246 28.5726 19.7661 27.9734 20.0262 27.4117C20.1376 27.1121 20.2305 26.8312 20.3048 26.5691C20.3791 26.307 20.4906 26.0261 20.6392 25.7265C21.0479 24.7529 21.5308 23.7793 22.0881 22.8056C22.6454 21.832 23.147 20.8958 23.5928 19.997L24.8188 17.694C25.0789 17.2821 25.3204 16.9263 25.5433 16.6268C25.8033 16.2897 26.0077 15.934 26.1563 15.5595V15.391C26.4907 15.391 26.7322 15.2037 26.8808 14.8293C26.9551 14.7918 27.0479 14.7731 27.1594 14.7731C27.308 14.7731 27.4195 14.7357 27.4938 14.6608C27.8653 14.6982 28.1997 14.7918 28.4969 14.9416C28.8313 15.054 29.1285 15.185 29.3885 15.3348C29.4628 15.522 29.6115 15.6906 29.8344 15.8404C30.0944 15.9527 30.2059 16.1587 30.1687 16.4582C30.1687 16.4957 30.0944 16.6268 29.9458 16.8514C29.9087 16.9263 29.8901 16.9825 29.8901 17.02C29.9272 17.0574 29.9272 17.1136 29.8901 17.1885C29.8901 17.3008 29.8344 17.357 29.7229 17.357V17.7502L29.3328 18.8174C29.3328 18.8923 29.3328 18.9298 29.3328 18.9298C29.37 18.8923 29.3885 18.9111 29.3885 18.986C29.2028 19.0234 29.0727 19.1357 28.9984 19.323C28.9613 19.4728 28.887 19.5851 28.7755 19.66C28.7755 19.7724 28.7755 19.8285 28.7755 19.8285C28.6269 19.866 28.534 19.9409 28.4969 20.0532C28.4969 20.1281 28.4783 20.203 28.4412 20.2779C28.2182 20.5775 28.0325 20.8771 27.8839 21.1766C27.7724 21.4762 27.6424 21.7571 27.4938 22.0192C27.4195 22.1316 27.3823 22.2065 27.3823 22.2439C27.4195 22.2439 27.4009 22.2813 27.3266 22.3562C27.3266 22.3937 27.2709 22.4124 27.1594 22.4124C27.1222 22.5622 27.0665 22.6933 26.9922 22.8056C26.9551 22.8805 26.9365 23.0116 26.9365 23.1988C26.7507 23.3861 26.6021 23.6482 26.4907 23.9852C26.3792 24.2848 26.2306 24.5282 26.0448 24.7154C25.7476 25.3521 25.5061 25.9699 25.3204 26.5691C25.0231 27.1683 24.7074 27.7487 24.373 28.3104C24.0758 28.8721 23.8157 29.4339 23.5928 29.9956L23.3699 31.119C23.2213 31.4935 23.0912 31.8867 22.9798 32.2986C22.8683 32.7105 22.8312 33.1412 22.8683 33.5905C23.4628 33.3284 23.9829 32.9352 24.4287 32.4109C25.0975 31.8492 25.7662 31.2313 26.4349 30.5573C27.1037 29.8458 27.7538 29.1343 28.3854 28.4228C28.4597 28.3853 28.4969 28.3666 28.4969 28.3666C28.534 28.3291 28.5898 28.3104 28.6641 28.3104C28.887 28.0108 29.1099 27.7113 29.3328 27.4117C29.5557 27.1121 29.8158 26.8125 30.113 26.5129C30.3359 26.3631 30.5217 26.1946 30.6703 26.0074C30.8189 25.7827 30.9675 25.5393 31.1161 25.2772C31.1904 25.2023 31.2647 25.1461 31.339 25.1086C31.4505 25.0338 31.5434 24.9589 31.6177 24.884C31.7663 24.5844 31.952 24.341 32.175 24.1537C32.435 23.929 32.6208 23.6669 32.7322 23.3673ZM31.5619 10.7288C31.4505 10.8036 31.339 10.916 31.2276 11.0658C31.0418 11.0658 30.8746 11.0658 30.726 11.0658C30.5774 11.0658 30.4102 11.1032 30.2245 11.1781C30.1873 11.1781 30.1687 11.2156 30.1687 11.2905L29.9458 11.122V10.7849C29.7229 10.8598 29.6115 10.9722 29.6115 11.122C29.5371 11.122 29.5186 11.0845 29.5557 11.0096C29.63 10.8973 29.63 10.8224 29.5557 10.7849C29.4814 10.8224 29.4257 10.8785 29.3885 10.9534C29.3885 10.9909 29.3514 11.0096 29.2771 11.0096V10.7849C29.2028 10.7849 29.1656 10.8036 29.1656 10.8411C29.2399 10.3168 29.017 10.0547 28.4969 10.0547C28.4969 9.86745 28.4597 9.77384 28.3854 9.77384C28.3854 9.13723 28.534 8.48189 28.8313 7.80783C28.9056 7.73294 28.9427 7.67677 28.9427 7.63932C28.9427 7.56442 28.9613 7.50825 28.9984 7.47081C29.1099 7.39591 29.2214 7.32101 29.3328 7.24612C29.4814 7.13378 29.5557 6.98399 29.5557 6.79675C29.5929 6.8342 29.6858 6.85292 29.8344 6.85292C29.9087 6.77802 30.0201 6.66568 30.1687 6.51589C30.3173 6.3661 30.4288 6.38482 30.5031 6.57206C30.5774 6.60951 30.596 6.60951 30.5588 6.57206C30.5588 6.53461 30.5774 6.51589 30.6146 6.51589C30.6889 6.59078 30.7632 6.62823 30.8375 6.62823C30.8746 6.51589 30.9675 6.441 31.1161 6.40355C31.3019 6.3661 31.4876 6.38482 31.6734 6.45972C31.6734 6.53461 31.6362 6.59079 31.5619 6.62823C31.5248 6.62823 31.5248 6.66568 31.5619 6.74058C32.0449 6.74058 32.3607 6.62823 32.5093 6.40355C32.5093 6.51589 32.5279 6.60951 32.5651 6.68441C32.6394 6.72185 32.6951 6.77802 32.7322 6.85292C32.6579 6.89037 32.6208 6.96526 32.6208 7.0776C32.6579 7.18995 32.7137 7.28357 32.788 7.35846C32.9366 7.28357 33.1038 7.30229 33.2895 7.41463C33.5124 7.52698 33.6239 7.67677 33.6239 7.864C33.6239 7.90145 33.661 7.92018 33.7354 7.92018C33.7354 7.99507 33.7354 8.05124 33.7354 8.08869C33.7725 8.08869 33.7911 8.12614 33.7911 8.20103C33.7539 8.12614 33.7168 8.08869 33.6796 8.08869C33.6053 8.23848 33.531 8.38827 33.4567 8.53806C33.4196 8.68785 33.3267 8.83764 33.1781 8.98744C33.1781 9.02488 33.2152 9.04361 33.2895 9.04361C33.3638 9.04361 33.401 9.06233 33.401 9.09978C33.401 9.09978 33.3081 9.09978 33.1223 9.09978C32.8994 9.39936 32.6394 9.69894 32.3421 9.99852C32.0449 10.2607 31.8034 10.5977 31.6177 11.0096C31.5434 11.0096 31.5062 11.0283 31.5062 11.0658C31.5062 11.0658 31.4691 11.0658 31.3948 11.0658C31.5062 10.9534 31.5619 10.8411 31.5619 10.7288ZM30.0015 17.4693C30.0015 17.5068 29.983 17.5442 29.9458 17.5817C29.9458 17.5817 29.9458 17.6191 29.9458 17.694C29.8715 17.7315 29.8529 17.694 29.8901 17.5817C29.9272 17.4693 29.9644 17.4319 30.0015 17.4693Z" transform="translate(91 60)" fill="white"/>
<path d="M54.4123 24.0414C54.821 23.5546 55.1368 22.9929 55.3597 22.3562C55.6198 21.7196 55.917 21.1392 56.2514 20.6149C56.2142 20.8022 56.1585 20.9894 56.0842 21.1766C56.047 21.3264 56.0099 21.495 55.9727 21.6822C55.9727 21.6822 55.9913 21.6822 56.0285 21.6822C56.0285 21.8694 55.9913 22.0567 55.917 22.2439C55.8427 22.4311 55.7684 22.6371 55.6941 22.8618C55.8055 22.7869 55.8798 22.6933 55.917 22.5809C55.9541 22.4686 56.0099 22.3562 56.0842 22.2439C56.1213 22.4311 56.0842 22.5809 55.9727 22.6933C55.8984 22.8056 55.8427 22.9554 55.8055 23.1426C55.917 22.9929 56.0099 22.8431 56.0842 22.6933C56.1585 22.506 56.2328 22.3188 56.3071 22.1316C56.3814 22.2065 56.3814 22.2813 56.3071 22.3562C56.2328 22.4311 56.2328 22.4873 56.3071 22.5248C56.3443 22.5997 56.3628 22.5997 56.3628 22.5248C56.3628 22.4499 56.4 22.4124 56.4743 22.4124C56.3628 22.8618 56.1956 23.2737 55.9727 23.6482C55.787 23.9852 55.6198 24.3597 55.4712 24.7716C55.4712 24.7716 55.4897 24.7716 55.5269 24.7716C55.1182 25.8202 54.6167 26.8125 54.0222 27.7487C53.4649 28.6474 52.9077 29.5462 52.3504 30.4449C52.2389 30.6696 52.1089 30.8756 51.9603 31.0628C51.8117 31.2126 51.6445 31.3811 51.4587 31.5684C51.4216 31.9054 51.273 32.1301 51.0129 32.2424C51.0129 32.3922 50.9386 32.5046 50.79 32.5795C50.6785 32.6169 50.6042 32.7105 50.5671 32.8603C50.2699 33.085 50.0098 33.3284 49.7869 33.5905C49.6011 33.8152 49.3596 34.0212 49.0624 34.2084L48.8395 34.4893C48.3194 34.7889 47.8364 35.1259 47.3906 35.5004C46.9819 35.8374 46.4803 36.0995 45.8859 36.2868C45.8487 36.3617 45.8487 36.3991 45.8859 36.3991C45.923 36.3991 45.923 36.4366 45.8859 36.5115C45.7373 36.6612 45.5329 36.7174 45.2729 36.68C45.05 36.68 44.8456 36.7361 44.6599 36.8485H44.6041C44.4184 36.8485 44.2326 36.8672 44.0468 36.9047C43.8611 36.9421 43.6753 36.9796 43.4896 37.017C43.4896 37.017 43.5081 37.0357 43.5453 37.0732C43.2481 37.0732 43.0995 37.017 43.0995 36.9047C43.0252 36.8672 42.988 36.8672 42.988 36.9047C42.988 36.9421 42.9509 36.9608 42.8766 36.9608V36.8485C42.5793 36.9234 42.2821 36.9047 41.9849 36.7923C41.6877 36.68 41.3905 36.5864 41.0932 36.5115C40.9075 36.2868 40.6846 36.0995 40.4245 35.9497C40.2016 35.8 39.9415 35.6314 39.6443 35.4442C39.7186 35.4068 39.7929 35.4442 39.8672 35.5565C39.9415 35.6314 40.053 35.6876 40.2016 35.7251C40.1273 35.6127 40.0344 35.5004 39.9229 35.388C39.8115 35.2382 39.7 35.1259 39.5886 35.051C39.2171 34.5267 38.9384 34.0586 38.7527 33.6467C38.5669 33.1973 38.3997 32.6169 38.2511 31.9054C38.1768 31.6433 38.1211 31.4747 38.0839 31.3999C38.0468 31.2875 38.0653 31.119 38.1396 30.8943C38.0653 30.37 37.991 29.8458 37.9167 29.3215C37.8796 28.7598 37.8238 28.1981 37.7495 27.6364C37.0436 28.5726 36.3935 29.5462 35.799 30.5573C35.2046 31.5684 34.6102 32.5982 34.0157 33.6467C34.0157 33.8339 33.9972 34.0025 33.96 34.1523C33.8486 34.2646 33.7928 34.4144 33.7928 34.6016C33.8671 34.6016 33.8857 34.5829 33.8486 34.5455C33.8114 34.4706 33.83 34.4331 33.9043 34.4331C33.9414 34.4706 33.9414 34.5267 33.9043 34.6016C33.9043 34.6391 33.9043 34.6952 33.9043 34.7701C33.8671 34.7701 33.8486 34.7701 33.8486 34.7701C33.8486 34.7327 33.83 34.714 33.7928 34.714C33.7928 34.714 33.7928 34.8076 33.7928 34.9948C33.8671 34.9199 33.8857 34.9012 33.8486 34.9387C33.8486 34.9387 33.8671 34.9948 33.9043 35.1072H33.7371C33.6628 35.257 33.6256 35.3693 33.6256 35.4442C33.6256 35.5191 33.6071 35.6127 33.5699 35.7251C33.5328 35.6502 33.477 35.6314 33.4027 35.6689C33.3656 35.6689 33.347 35.7063 33.347 35.7812C33.3098 35.7438 33.1984 35.6876 33.0126 35.6127C32.9012 35.6876 32.8826 35.7625 32.9569 35.8374C32.8083 35.9123 32.6783 35.9123 32.5668 35.8374C32.4553 35.7625 32.3439 35.7625 32.2324 35.8374C32.2324 35.9123 32.251 35.9497 32.2882 35.9497C32.3253 35.9497 32.3625 35.9872 32.3996 36.0621C32.3996 36.1744 32.3625 36.2493 32.2882 36.2868C32.2139 36.3242 32.1581 36.3991 32.121 36.5115C31.9352 36.3991 31.8052 36.2868 31.7309 36.1744C31.6194 36.2493 31.5265 36.3617 31.4522 36.5115C31.4151 36.6987 31.3222 36.7549 31.1736 36.68C31.3593 36.6051 31.4337 36.4927 31.3965 36.3429C31.508 36.3055 31.6008 36.1744 31.6751 35.9497C31.5637 35.9123 31.508 35.9872 31.508 36.1744C31.4337 36.0995 31.3779 36.0246 31.3408 35.9497C31.2665 35.9123 31.2107 35.8561 31.1736 35.7812C31.0993 35.8561 31.0436 35.931 31.0064 36.0059C30.9693 36.0808 30.8578 36.1183 30.672 36.1183C30.5977 35.9685 30.6163 35.8374 30.7278 35.7251C30.5792 35.6502 30.4491 35.6314 30.3377 35.6689C30.1891 35.7063 30.059 35.6876 29.9476 35.6127C29.7247 35.2008 29.6132 34.7327 29.6132 34.2084C29.6132 33.6467 29.6503 33.1412 29.7246 32.6918L29.8918 32.1301L30.0033 31.5122C30.1147 31.1752 30.2262 30.8194 30.3377 30.4449C30.412 30.033 30.5048 29.6211 30.6163 29.2092C30.8764 28.4602 31.1364 27.73 31.3965 27.0185C31.6566 26.2695 31.9166 25.5206 32.1767 24.7716C32.5482 23.798 32.9197 22.8243 33.2913 21.8507C33.6999 20.8396 34.1272 19.866 34.573 18.9298C34.573 18.8549 34.5544 18.8174 34.5173 18.8174C34.5173 18.8174 34.5173 18.78 34.5173 18.7051C34.5916 18.6677 34.6287 18.6302 34.6287 18.5928C34.6287 18.5553 34.6659 18.5179 34.7402 18.4804C35.2603 17.02 35.8734 15.6531 36.5792 14.3799C37.3223 13.0692 38.0096 11.7398 38.6412 10.3917C38.6412 10.3168 38.6412 10.3168 38.6412 10.3917C38.6412 10.4292 38.6226 10.4292 38.5855 10.3917C38.8084 9.9049 38.9756 9.43681 39.087 8.98744C39.2356 8.50062 39.4214 7.99507 39.6443 7.47081C39.6072 7.65804 39.5886 7.84528 39.5886 8.03252C39.6257 8.18231 39.6072 8.3321 39.5328 8.48189C39.7186 8.18231 39.8486 7.88273 39.9229 7.58315C39.9973 7.24612 40.1273 6.87164 40.313 6.45972C40.8332 5.59842 41.3719 4.68096 41.9292 3.70732C42.5236 2.69623 42.988 1.6477 43.3224 0.561714V0.280857C43.3595 0.318304 43.4153 0.318304 43.4896 0.280857C43.601 0.24341 43.7125 0.224686 43.8239 0.224686C43.7496 0.374477 43.7125 0.505543 43.7125 0.617885C43.7868 0.617885 43.8239 0.599161 43.8239 0.561714C43.8611 0.48682 43.8982 0.411924 43.9354 0.337028C43.9725 0.337028 43.9725 0.355751 43.9354 0.393199C43.9354 0.393199 43.954 0.393199 43.9911 0.393199C44.0283 0.318304 44.0468 0.262134 44.0468 0.224686C44.0468 0.187239 44.084 0.205963 44.1583 0.280857C44.1955 0.24341 44.2326 0.224686 44.2698 0.224686C44.3069 0.187239 44.3441 0.131067 44.3812 0.0561707C44.4555 0.0561707 44.5298 0.0748943 44.6041 0.112341C44.567 0.224685 44.5856 0.318304 44.6599 0.393199C44.9199 0.468095 45.0685 0.430648 45.1057 0.280857C45.18 0.093619 45.3472 0 45.6072 0C45.5701 0.149791 45.5887 0.280857 45.663 0.393199C45.7744 0.505542 45.8859 0.617886 45.9973 0.73023C46.146 0.805124 46.276 0.898743 46.3874 1.01109C46.4989 1.12343 46.5546 1.27322 46.5546 1.46046C46.5546 1.53535 46.5546 1.5728 46.5546 1.5728C46.5546 1.53535 46.5175 1.55408 46.4432 1.62897C46.2946 2.45282 46.0716 3.20177 45.7744 3.87583C45.5144 4.54989 45.2357 5.24267 44.9385 5.95418C43.8982 8.50062 42.8394 11.0283 41.762 13.5373C40.6846 16.0089 39.6072 18.4804 38.5297 20.952C38.604 20.9894 38.6598 20.9707 38.6969 20.8958C38.7341 20.7834 38.7898 20.746 38.8641 20.7834C38.7898 20.8583 38.7527 20.9332 38.7527 21.0081C38.7898 21.0456 38.7712 21.1205 38.6969 21.2328C38.8827 21.0456 39.0313 20.8771 39.1427 20.7273C39.2914 20.5775 39.4214 20.409 39.5328 20.2217C39.9415 19.6975 40.3316 19.1919 40.7031 18.7051C41.1118 18.1808 41.5391 17.6566 41.9849 17.1323C42.0592 17.1323 42.1335 17.0574 42.2078 16.9076C42.4307 16.7578 42.6536 16.5331 42.8766 16.2336C42.8394 16.1961 42.8208 16.1961 42.8208 16.2336C42.8208 16.271 42.8022 16.2897 42.7651 16.2897C42.7279 16.2148 42.7279 16.1587 42.7651 16.1212C42.8394 16.0838 42.8951 16.0463 42.9323 16.0089C43.0066 16.0089 43.0066 16.0276 42.9323 16.065C42.8951 16.065 42.8766 16.1025 42.8766 16.1774C43.5081 15.6157 44.1397 15.054 44.7713 14.4922C45.4029 13.9305 46.146 13.4624 47.0005 13.088C47.0376 13.0505 47.019 13.0505 46.9447 13.088C46.9076 13.088 46.9076 13.0505 46.9447 12.9756C47.3534 12.8633 47.7621 12.7696 48.1707 12.6948C48.5794 12.5824 48.9695 12.545 49.341 12.5824C49.6754 12.5824 49.9541 12.6011 50.177 12.6386C50.437 12.6386 50.66 12.7884 50.8457 13.088C50.92 13.088 50.9386 13.0692 50.9014 13.0318C50.9014 12.9943 50.92 12.9756 50.9572 12.9756C50.9572 12.9756 50.9572 13.0131 50.9572 13.088C51.0686 13.2003 51.1801 13.3126 51.2915 13.425C51.403 13.5373 51.4773 13.6871 51.5145 13.8744C51.5145 13.8744 51.533 13.8556 51.5702 13.8182C51.6073 13.8556 51.6073 13.9305 51.5702 14.0429C51.5702 14.1178 51.6073 14.1552 51.6816 14.1552C51.7188 14.9416 51.5888 15.6531 51.2915 16.2897C51.2544 16.3272 51.2544 16.3646 51.2915 16.4021C51.3287 16.4395 51.3287 16.477 51.2915 16.5144L50.6228 17.8625C49.9912 19.0983 49.2853 20.2779 48.5051 21.4013C47.7249 22.4873 46.9076 23.5358 46.0531 24.5469C45.6815 24.8091 45.3286 25.0899 44.9942 25.3895C44.6599 25.6891 44.3255 25.9512 43.9911 26.1759C43.9911 26.2508 43.954 26.307 43.8797 26.3444C43.8425 26.3444 43.8239 26.3819 43.8239 26.4568C43.7496 26.4942 43.7311 26.5129 43.7682 26.5129C43.8054 26.4755 43.8054 26.438 43.7682 26.4006C43.6567 26.438 43.5824 26.4942 43.5453 26.5691C43.5453 26.644 43.4896 26.6814 43.3781 26.6814C43.3038 26.7563 43.2667 26.7376 43.2667 26.6253C43.0809 26.7751 42.858 26.9061 42.5979 27.0185C42.375 27.0934 42.1707 27.2244 41.9849 27.4117C41.9849 27.3742 41.9292 27.3555 41.8177 27.3555C41.7434 27.4304 41.7248 27.4866 41.762 27.524C41.8363 27.524 41.8734 27.5615 41.8734 27.6364C41.762 27.5989 41.7063 27.524 41.7063 27.4117C41.5205 27.4117 41.3162 27.4491 41.0932 27.524C40.8703 27.5989 40.7403 27.5427 40.7031 27.3555C40.666 27.393 40.6474 27.4679 40.6474 27.5802C40.6846 27.5427 40.7217 27.524 40.7589 27.524C40.7589 27.5615 40.7217 27.5802 40.6474 27.5802C40.8332 28.8534 41.0189 30.1266 41.2047 31.3999C41.3905 32.6356 41.7991 33.6842 42.4307 34.5455C42.5793 34.8076 42.8208 34.9012 43.1552 34.8263C43.6382 34.7514 44.0468 34.6203 44.3812 34.4331C44.7156 34.2459 45.0314 34.0025 45.3286 33.7029C45.7373 33.4033 46.1088 33.085 46.4432 32.748C46.7775 32.3735 47.1119 31.9803 47.4463 31.5684C47.6692 31.4935 47.8364 31.3437 47.9478 31.119C48.0593 30.8943 48.2079 30.6883 48.3937 30.5011L49.0067 29.827C49.081 29.7147 49.1553 29.5836 49.2296 29.4339C49.341 29.2466 49.4711 29.0781 49.6197 28.9283C49.694 28.8534 49.7497 28.7972 49.7869 28.7598C49.8612 28.7223 49.9169 28.6662 49.9541 28.5913C50.0284 28.4789 50.1027 28.3666 50.177 28.2542C50.2513 28.1045 50.3256 27.9547 50.3999 27.8049C50.5113 27.6176 50.6228 27.4491 50.7343 27.2993C50.8829 27.1495 51.0129 26.9623 51.1244 26.7376L51.403 26.4006V26.2882C51.4773 26.1759 51.5516 26.0823 51.6259 26.0074C51.7374 25.895 51.8302 25.7827 51.9046 25.6704L52.5176 24.4346C52.5176 24.5095 52.4804 24.6218 52.4061 24.7716C52.3318 24.884 52.2761 24.9963 52.2389 25.1086C52.6104 24.6967 52.9262 24.2474 53.1863 23.7605C53.4464 23.2363 53.725 22.7307 54.0222 22.2439C54.208 22.2065 54.3194 22.1316 54.3566 22.0192C54.4309 21.9069 54.5052 21.8133 54.5795 21.7384C54.5052 22.1128 54.3752 22.4311 54.1894 22.6933C54.0408 22.9554 53.9293 23.255 53.855 23.592C53.9293 23.6295 53.9851 23.5733 54.0222 23.4235C54.0965 23.2737 54.1708 23.1614 54.2451 23.0865C54.2451 23.1614 54.2266 23.255 54.1894 23.3673C54.1523 23.4797 54.1151 23.5733 54.078 23.6482H54.1337C54.0965 23.798 54.0408 23.9852 53.9665 24.2099C53.8922 24.3971 53.8179 24.6031 53.7436 24.8278C53.855 24.7529 53.9294 24.6593 53.9665 24.5469C54.0408 24.4346 54.1337 24.341 54.2451 24.2661C54.2451 24.1912 54.2451 24.1537 54.2451 24.1537C54.2451 24.1163 54.3009 24.0976 54.4123 24.0976V24.0414ZM41.9849 21.626C41.6877 22.0005 41.3905 22.375 41.0932 22.7494C40.8332 23.1239 40.5917 23.5171 40.3688 23.929C40.4059 24.1163 40.4245 24.341 40.4245 24.6031C40.4245 24.8278 40.5174 24.9589 40.7031 24.9963C40.7031 25.0712 40.7031 25.1461 40.7031 25.221C40.7403 25.2584 40.7589 25.3146 40.7589 25.3895C40.9446 25.3146 41.149 25.221 41.3719 25.1086C41.5948 24.9589 41.7434 24.7529 41.8177 24.4908C42.0778 24.2661 42.2635 24.0414 42.375 23.8167C42.7094 23.5546 42.9694 23.2737 43.1552 22.9741C43.3781 22.6371 43.6382 22.3188 43.9354 22.0192C44.2698 21.4949 44.6041 20.9894 44.9385 20.5026C45.31 20.0158 45.6444 19.4915 45.9416 18.9298C46.276 18.3681 46.5918 17.8064 46.889 17.2446C47.2234 16.6829 47.502 16.1025 47.7249 15.5033V15.4472C46.6475 16.3459 45.6258 17.3195 44.6599 18.3681C43.7311 19.4166 42.8394 20.5026 41.9849 21.626ZM39.7 24.7716C39.7 24.8465 39.7372 24.884 39.8115 24.884C39.8115 24.884 39.8301 24.8465 39.8672 24.7716C39.9415 24.8465 39.9973 24.884 40.0344 24.884C40.0344 24.5469 40.053 24.3222 40.0901 24.2099C39.9787 24.2474 39.9044 24.3597 39.8672 24.5469C39.8301 24.6967 39.7743 24.7716 39.7 24.7716ZM54.4123 24.0414C54.4123 23.8916 54.4495 23.7418 54.5238 23.592C54.6352 23.4048 54.7281 23.2363 54.8024 23.0865C54.8024 23.2363 54.7467 23.3861 54.6352 23.5358C54.5609 23.6856 54.4866 23.8542 54.4123 24.0414ZM51.4587 16.3459C51.4587 16.6829 51.3473 17.0012 51.1244 17.3008C51.0872 17.3383 51.0686 17.3757 51.0686 17.4132C51.0686 17.4506 51.0501 17.4693 51.0129 17.4693C51.0129 17.4693 51.0315 17.4319 51.0686 17.357C51.1429 17.1697 51.1987 17.0012 51.2358 16.8514C51.3101 16.7017 51.3844 16.5331 51.4587 16.3459ZM44.7713 33.8714C44.7713 33.9837 44.7156 34.0399 44.6041 34.0399C44.3441 34.302 43.954 34.5267 43.4338 34.714C43.6939 34.5642 43.9354 34.4331 44.1583 34.3208C44.3812 34.2084 44.5856 34.0586 44.7713 33.8714ZM50.9572 17.694C50.8829 17.8813 50.79 18.0685 50.6785 18.2557C50.5671 18.443 50.4556 18.6302 50.3442 18.8174C50.4185 18.6302 50.5113 18.443 50.6228 18.2557C50.7714 18.0685 50.8829 17.8813 50.9572 17.694ZM44.214 14.7731C44.1397 14.848 44.0283 14.9603 43.8797 15.1101C43.7311 15.2599 43.601 15.3723 43.4896 15.4472C43.8239 15.1101 44.0654 14.8854 44.214 14.7731ZM42.5979 16.5144C42.5608 16.5144 42.5422 16.4957 42.5422 16.4582C42.4679 16.4582 42.4307 16.4582 42.4307 16.4582C42.5422 16.1961 42.7279 16.0089 42.988 15.8965L43.0437 15.9527C42.9323 15.9153 42.8394 15.9714 42.7651 16.1212C42.6908 16.2336 42.6351 16.3646 42.5979 16.5144ZM47.3906 23.0865C47.3162 23.2363 47.2048 23.4048 47.0562 23.592C46.9076 23.7418 46.759 23.8729 46.6104 23.9852L47.3906 23.0865ZM43.2109 15.6718L43.4338 15.5033C43.4338 15.5782 43.3967 15.6344 43.3224 15.6718C43.2852 15.7093 43.2481 15.7655 43.2109 15.8404C43.1366 15.8029 43.1366 15.7467 43.2109 15.6718C43.1366 15.7467 43.0809 15.7842 43.0437 15.7842C43.118 15.7093 43.1738 15.6531 43.2109 15.6157C43.2852 15.5408 43.3595 15.4659 43.4338 15.391L43.2109 15.6718ZM48.5608 21.4575C48.598 21.5324 48.5794 21.6073 48.5051 21.6822C48.468 21.7196 48.4308 21.7758 48.3937 21.8507C48.3194 21.7758 48.3194 21.7196 48.3937 21.6822C48.468 21.6073 48.5237 21.5324 48.5608 21.4575ZM43.7682 15.054C43.7682 15.0914 43.7311 15.1476 43.6567 15.2225C43.5824 15.2974 43.5081 15.3535 43.4338 15.391C43.471 15.2786 43.5824 15.1663 43.7682 15.054ZM46.3874 32.5233C46.4246 32.4484 46.4803 32.3735 46.5546 32.2986C46.6661 32.2237 46.759 32.1488 46.8333 32.0739C46.759 32.1488 46.6847 32.2237 46.6104 32.2986C46.536 32.3735 46.4617 32.4484 46.3874 32.5233ZM44.8828 14.2676C44.8828 14.3425 44.8456 14.3799 44.7713 14.3799C44.7342 14.3799 44.697 14.3986 44.6599 14.4361C44.6599 14.3237 44.7342 14.2676 44.8828 14.2676ZM48.2822 30.3888C48.3565 30.4262 48.3379 30.4824 48.2265 30.5573C48.1522 30.6322 48.1336 30.6509 48.1707 30.6135C48.1707 30.5386 48.2079 30.4637 48.2822 30.3888ZM39.0313 20.5026C39.1056 20.54 39.1056 20.5962 39.0313 20.6711C38.957 20.7085 38.9013 20.7273 38.8641 20.7273C38.8641 20.6524 38.8827 20.6149 38.9198 20.6149C38.9941 20.5775 39.0313 20.54 39.0313 20.5026ZM46.4432 24.2661C46.3689 24.1163 46.4246 24.0414 46.6104 24.0414L46.4432 24.2661ZM45.663 13.6497C45.663 13.7246 45.6258 13.762 45.5515 13.762C45.5144 13.762 45.4772 13.7807 45.4401 13.8182C45.4401 13.7433 45.4586 13.7058 45.4958 13.7058C45.5329 13.7058 45.5887 13.6871 45.663 13.6497ZM45.4958 25.2772C45.4215 25.3521 45.3472 25.4082 45.2729 25.4457C45.1986 25.4457 45.2357 25.3895 45.3843 25.2772H45.4958ZM45.1614 13.9305C45.1614 14.0054 45.1243 14.0803 45.05 14.1552C45.0128 14.1178 45.0128 14.0803 45.05 14.0429C45.0871 13.968 45.1243 13.9305 45.1614 13.9305ZM55.6384 24.4346C55.6384 24.5844 55.6012 24.6967 55.5269 24.7716C55.5269 24.6967 55.5641 24.5844 55.6384 24.4346ZM44.6041 14.4361C44.6413 14.4735 44.6227 14.511 44.5484 14.5484C44.5113 14.5484 44.4927 14.5671 44.4927 14.6046C44.4184 14.5671 44.3998 14.5297 44.4369 14.4922C44.5113 14.4548 44.567 14.4361 44.6041 14.4361ZM48.1707 21.9069C48.2079 21.9818 48.1893 22.0567 48.115 22.1316C48.0407 22.169 48.0036 22.2252 48.0036 22.3001C48.0036 22.2252 48.0221 22.169 48.0593 22.1316C48.0964 22.0567 48.1336 21.9818 48.1707 21.9069ZM49.6754 19.997C49.6754 20.0719 49.6383 20.1468 49.564 20.2217C49.4897 20.2966 49.4339 20.3715 49.3968 20.4464C49.3968 20.3715 49.4339 20.2966 49.5082 20.2217C49.5825 20.1468 49.6383 20.0719 49.6754 19.997ZM42.375 16.5144C42.375 16.5519 42.3378 16.608 42.2635 16.6829C42.2264 16.6455 42.2264 16.608 42.2635 16.5706C42.3007 16.5331 42.3378 16.5144 42.375 16.5144ZM43.2109 0.449373C43.2109 0.561714 43.1923 0.617885 43.1552 0.617885V0.561714C43.1552 0.48682 43.1738 0.449373 43.2109 0.449373ZM50.2327 19.0983C50.1955 19.0609 50.1955 19.0234 50.2327 18.986C50.2699 18.9111 50.307 18.8736 50.3442 18.8736L50.2327 19.0983ZM49.8426 19.7724C49.7683 19.9221 49.7311 19.9783 49.7311 19.9409C49.7311 19.9034 49.7497 19.8473 49.7869 19.7724H49.8426ZM56.2514 21.963C56.2885 22.0005 56.2885 22.0379 56.2514 22.0754C56.2142 22.0754 56.1956 22.0941 56.1956 22.1316C56.1213 22.0941 56.1028 22.0754 56.1399 22.0754C56.2142 22.0379 56.2514 22.0005 56.2514 21.963ZM47.8921 22.4124C47.8921 22.4124 47.8364 22.506 47.7249 22.6933C47.7249 22.6558 47.7435 22.6184 47.7807 22.5809C47.8178 22.5435 47.855 22.4873 47.8921 22.4124ZM48.8395 21.0643C48.8395 21.0269 48.8952 20.952 49.0067 20.8396L48.8395 21.0643ZM45.8859 24.8278C45.8859 24.9027 45.8487 24.9401 45.7744 24.9401C45.7744 24.8652 45.8116 24.8278 45.8859 24.8278ZM43.3224 34.7701C43.2852 34.8076 43.2295 34.8263 43.1552 34.8263C43.1923 34.8263 43.2109 34.8263 43.2109 34.8263C43.2481 34.7889 43.2852 34.7701 43.3224 34.7701ZM49.8426 19.66C49.8426 19.6975 49.824 19.7162 49.7869 19.7162C49.7869 19.7162 49.7869 19.7349 49.7869 19.7724C49.7869 19.7349 49.8054 19.6975 49.8426 19.66ZM49.6197 19.7724C49.6197 19.7724 49.6383 19.7536 49.6754 19.7162C49.6754 19.7536 49.6568 19.7724 49.6197 19.7724Z" transform="translate(91 60)" fill="white"/>
<path d="M74.047 17.6378C74.0099 17.7127 73.9727 17.8251 73.9356 17.9749C73.8984 18.1247 73.8612 18.2745 73.8241 18.4242C73.7869 18.574 73.7684 18.7051 73.7684 18.8174C73.7684 18.8923 73.8055 18.9298 73.8798 18.9298C73.917 18.9672 73.8613 19.0983 73.7126 19.323C73.6012 19.5477 73.564 19.6787 73.6012 19.7162C73.7126 19.7162 73.8427 19.6038 73.9913 19.3792C74.177 19.117 74.3442 18.986 74.4928 18.986C74.2328 19.6975 73.9356 20.3528 73.6012 20.952C73.304 21.5511 72.9696 22.1503 72.5981 22.7494C72.5609 22.7494 72.5238 22.7494 72.4866 22.7494C72.4866 22.712 72.4495 22.712 72.3752 22.7494C72.2637 22.8992 72.208 23.0678 72.208 23.255C72.2451 23.4048 72.208 23.5733 72.0965 23.7605C71.9479 23.9478 71.7993 24.135 71.6507 24.3222C71.5021 24.5095 71.3906 24.6967 71.3163 24.884C71.242 24.884 71.2049 24.9027 71.2049 24.9401C71.2049 24.9776 71.1677 24.9589 71.0934 24.884C71.1306 24.9589 71.1306 25.015 71.0934 25.0525C71.0934 25.0525 71.0934 25.0712 71.0934 25.1086C71.0563 25.1461 71.0377 25.1835 71.0377 25.221C71.0377 25.2584 71.0005 25.2772 70.9262 25.2772V25.4457L69.4216 27.1308C69.3473 27.2806 69.2358 27.4117 69.0872 27.524C68.9386 27.6364 68.8271 27.7674 68.7528 27.9172C68.5671 28.1045 68.3813 28.273 68.1955 28.4228C68.0469 28.5726 67.9355 28.7411 67.8612 28.9283C67.8612 28.9283 67.8426 28.9283 67.8054 28.9283C67.8054 29.0032 67.7869 29.0406 67.7497 29.0406C67.7497 29.0406 67.7497 29.0781 67.7497 29.153L65.7435 31.2313C65.0004 32.0926 64.1088 32.9352 63.0685 33.7591C62.0654 34.5455 61.0251 35.2008 59.9477 35.7251C59.6134 35.8374 59.2604 35.9685 58.8889 36.1183C58.5545 36.268 58.2016 36.3991 57.83 36.5115C57.6443 36.5115 57.5328 36.6051 57.4957 36.7923C57.9044 36.8298 58.2945 36.7736 58.666 36.6238C59.0375 36.5115 59.409 36.3617 59.7805 36.1744C60.7465 35.6876 61.7125 35.0884 62.6784 34.3769C63.6815 33.628 64.5546 32.9352 65.2977 32.2986C65.2605 32.4858 65.1676 32.6356 65.019 32.748C64.8704 32.8229 64.7589 32.9352 64.6846 33.085L62.344 34.9387C62.1954 35.0136 61.9911 35.1446 61.731 35.3319C61.471 35.5191 61.2481 35.6502 61.0623 35.7251C60.5422 35.9872 60.022 36.2493 59.5019 36.5115C58.9818 36.811 58.3688 36.9796 57.6629 37.017C57.4028 37.017 57.0684 36.9796 56.6598 36.9047C56.2882 36.8298 55.9167 36.7923 55.5452 36.7923C55.3223 36.7923 55.1179 36.7736 54.9322 36.7361C54.7464 36.6987 54.5049 36.6425 54.2077 36.5676C53.9105 36.5302 53.5761 36.4366 53.2046 36.2868C52.8331 36.1744 52.4987 36.0434 52.2015 35.8936C51.6442 35.6314 51.2169 35.2195 50.9197 34.6578C50.5854 34.0586 50.381 33.3659 50.3067 32.5795C50.2324 32.2799 50.251 31.999 50.3624 31.7369C50.4367 31.4373 50.4553 31.1377 50.4182 30.8381L50.6411 30.7258C50.7154 30.2015 50.8268 29.6585 50.9755 29.0968C51.1241 28.5351 51.2912 27.9921 51.477 27.4678C51.477 27.393 51.477 27.3742 51.477 27.4117C51.477 27.4491 51.4956 27.4678 51.5327 27.4678C51.6813 26.8687 51.8485 26.307 52.0343 25.7827C52.2572 25.221 52.4987 24.678 52.7588 24.1537C53.316 22.9929 53.9476 21.9069 54.6535 20.8958C55.3966 19.8473 56.1396 18.8362 56.8827 17.8625C57.0684 17.6753 57.217 17.4881 57.3285 17.3008C57.4771 17.1136 57.6443 16.9263 57.83 16.7391C57.83 16.6642 57.83 16.6268 57.83 16.6268C57.8672 16.6268 57.8858 16.5893 57.8858 16.5144C57.9601 16.477 58.053 16.3646 58.1644 16.1774C58.2016 16.2897 58.1644 16.4021 58.053 16.5144C58.1273 16.5144 58.1644 16.477 58.1644 16.4021C58.2016 16.3272 58.2387 16.271 58.2759 16.2336C58.3502 16.271 58.3502 16.3085 58.2759 16.3459C58.2387 16.3459 58.2202 16.3833 58.2202 16.4582C58.5545 16.1961 58.8703 15.8965 59.1675 15.5595C59.5019 15.185 59.8363 14.9042 60.1706 14.7169V14.4922C60.3564 14.4922 60.4679 14.4735 60.505 14.4361C60.5793 14.3612 60.6908 14.3424 60.8394 14.3799C61.2481 13.9305 61.731 13.6122 62.2883 13.425C62.5112 13.3501 62.7156 13.3688 62.9013 13.4812C63.0871 13.556 63.31 13.5935 63.5701 13.5935L63.9044 13.9867C64.1274 13.9492 64.3874 13.9867 64.6846 14.099C64.9819 14.1739 65.149 14.3424 65.1862 14.6046C65.2234 14.642 65.2419 14.6608 65.2419 14.6608C65.2791 14.6233 65.3162 14.642 65.3534 14.7169C65.6506 15.2412 65.7621 15.9152 65.6878 16.7391C65.6506 17.5255 65.5206 18.2932 65.2977 19.0421C65.2233 19.2668 65.1305 19.4728 65.019 19.66C64.9447 19.8473 64.8704 20.0345 64.7961 20.2217C64.6846 20.5213 64.5546 20.8396 64.406 21.1766C64.2574 21.5137 64.0902 21.832 63.9044 22.1316L62.7899 23.929C62.4184 24.4533 62.0283 24.9589 61.6196 25.4457C61.2481 25.9325 60.8765 26.3257 60.505 26.6253L59.5019 27.1308C59.2047 27.2432 58.9632 27.3181 58.7774 27.3555C58.6288 27.3555 58.4059 27.3742 58.1087 27.4117C57.7 27.4866 57.3285 27.4117 56.9941 27.187C56.6969 26.9623 56.4368 26.7189 56.2139 26.4568C56.0282 26.7563 55.8238 27.2244 55.6009 27.8611C55.378 28.4602 55.1922 28.9283 55.0436 29.2653C55.0065 29.2653 54.9879 29.2466 54.9879 29.2092C54.7278 29.9956 54.5792 30.8943 54.5421 31.9054C54.5421 32.879 54.7278 33.6842 55.0994 34.3208C55.8424 34.1335 56.604 33.8714 57.3842 33.5344C58.1644 33.1973 58.8517 32.8229 59.4462 32.4109C60.0035 31.999 60.5607 31.5684 61.118 31.119C61.7125 30.6322 62.2697 30.1828 62.7899 29.7709L62.9571 29.6024C63.1057 29.5275 63.2171 29.4151 63.2914 29.2653C63.3657 29.1155 63.4586 29.0032 63.5701 28.9283C63.8673 28.6662 64.1645 28.404 64.4617 28.1419C64.7961 27.8798 65.0933 27.5989 65.3534 27.2993C65.3905 27.2993 65.4091 27.2806 65.4091 27.2432C65.4463 27.2057 65.502 27.1683 65.5763 27.1308C65.7992 26.7189 66.0964 26.438 66.4679 26.2882C67.2481 25.3895 67.954 24.5282 68.5856 23.7044C69.2172 22.8431 69.886 21.8694 70.5918 20.7834C70.7776 20.8583 70.8891 20.8022 70.9262 20.6149C71.0005 20.3902 71.0934 20.2217 71.2049 20.1094C71.2792 19.9596 71.3535 19.8473 71.4278 19.7724C71.5021 19.6975 71.5764 19.6226 71.6507 19.5477C71.6878 19.5102 71.7064 19.4353 71.7064 19.323C71.7436 19.2106 71.7993 19.1357 71.8736 19.0983C71.9479 19.0234 72.0222 18.986 72.0965 18.986C72.1708 18.986 72.2265 18.9485 72.2637 18.8736C72.338 18.574 72.4123 18.3681 72.4866 18.2557C72.5609 18.1808 72.5981 18.1434 72.5981 18.1434C72.7467 18.1434 72.821 18.1434 72.821 18.1434C72.8581 18.2183 72.8396 18.3119 72.7653 18.4242C72.7281 18.4991 72.6724 18.574 72.5981 18.6489C72.5609 18.9111 72.4866 19.1357 72.3752 19.323C72.3009 19.5102 72.2266 19.7536 72.1522 20.0532C72.338 19.9034 72.468 19.7536 72.5423 19.6038C72.6167 19.4166 72.691 19.2294 72.7653 19.0421C72.8024 19.0796 72.8396 19.0983 72.8767 19.0983C72.9139 19.0983 72.9696 19.117 73.0439 19.1545C73.2297 19.0796 73.304 18.9672 73.2668 18.8174C73.2668 18.6302 73.304 18.4617 73.3783 18.3119C73.4526 18.2745 73.564 18.1808 73.7126 18.031C73.8613 17.8438 73.9727 17.7127 74.047 17.6378ZM62.344 16.8514C61.9354 17.151 61.5824 17.5068 61.2852 17.9187C60.988 18.3306 60.6722 18.7425 60.3378 19.1545C60.0406 19.4915 59.7805 19.8285 59.5576 20.1656C59.3347 20.5026 59.0747 20.8396 58.7774 21.1766C58.7774 21.289 58.7589 21.3639 58.7217 21.4013C58.4245 21.8133 58.1273 22.2439 57.83 22.6933C57.5328 23.1426 57.2913 23.6295 57.1056 24.1537C57.2542 24.1537 57.3842 24.2099 57.4957 24.3222C58.3873 23.7231 59.149 22.9929 59.7805 22.1316C60.4493 21.2703 61.0437 20.2966 61.5638 19.2106C61.5267 19.1732 61.471 19.2106 61.3967 19.323C61.3595 19.3979 61.3224 19.4166 61.2852 19.3792C61.6196 19.0796 61.8425 18.7051 61.954 18.2557C62.1026 17.7689 62.2697 17.2821 62.4555 16.7953C62.4184 16.7953 62.3812 16.814 62.344 16.8514ZM55.9353 26.4006C55.7867 26.6627 55.6195 27.0934 55.4337 27.6925C55.248 28.2542 55.1179 28.6849 55.0436 28.9845C55.1922 28.6849 55.3594 28.2542 55.5452 27.6925C55.7681 27.1308 55.9353 26.7002 56.0467 26.4006H55.9353Z" transform="translate(91 60)" fill="white"/>
<path d="M83.0955 27.2432C83.2441 27.0185 83.467 26.7002 83.7642 26.2882C84.0986 25.8389 84.433 25.3895 84.7673 24.9401C85.1017 24.4533 85.4175 23.9852 85.7147 23.5358C86.0491 23.0865 86.3092 22.7494 86.4949 22.5248C86.5692 22.4873 86.6249 22.4311 86.6621 22.3562C86.6992 22.2439 86.7736 22.1877 86.885 22.1877C86.6992 22.4499 86.5321 22.712 86.3835 22.9741C86.2348 23.1988 86.0491 23.4235 85.8262 23.6482C85.9005 23.6856 85.9934 23.6482 86.1048 23.5358C86.2906 23.3486 86.4578 23.1614 86.6064 22.9741C86.755 22.7494 86.9222 22.5435 87.1079 22.3562L88.111 21.3452C88.111 21.4201 88.1668 21.4575 88.2782 21.4575C88.1668 21.7196 87.9439 22.0567 87.6095 22.4686C87.3123 22.8805 86.9965 23.2737 86.6621 23.6482C86.3649 24.0227 86.1234 24.341 85.9376 24.6031C85.789 24.8278 85.789 24.9027 85.9376 24.8278C86.4578 24.2286 86.9965 23.6295 87.5538 23.0303C88.111 22.4311 88.7055 21.8507 89.3371 21.289C89.3742 21.2515 89.3185 21.3639 89.1699 21.626C89.0213 21.8882 88.8355 22.2065 88.6126 22.5809C88.3897 22.918 88.1853 23.255 87.9996 23.592C87.8138 23.8916 87.7024 24.0788 87.6652 24.1537C87.6652 24.1912 87.7767 24.0601 87.9996 23.7605C88.2596 23.4235 88.724 22.7869 89.3928 21.8507C89.4671 21.9256 89.4671 22.0005 89.3928 22.0754C89.3556 22.1128 89.3185 22.169 89.2813 22.2439C88.9841 22.7682 88.6312 23.2737 88.2225 23.7605C87.851 24.2474 87.4794 24.7154 87.1079 25.1648C87.4423 24.8278 87.7767 24.472 88.111 24.0976C88.4454 23.6856 88.8169 23.2737 89.2256 22.8618C88.9655 23.3486 88.6497 23.7418 88.2782 24.0414C87.7952 24.5657 87.3123 25.1461 86.8293 25.7827C86.3835 26.4193 85.9562 26.9998 85.5475 27.524C85.4732 27.5615 85.4175 27.6176 85.3803 27.6925C85.3432 27.7674 85.2503 27.8236 85.1017 27.8611C85.1017 27.8985 85.0831 27.9359 85.046 27.9734C85.0088 27.9734 84.9902 27.9921 84.9902 28.0296C84.9531 28.067 84.8416 28.1981 84.6559 28.4228C84.5073 28.6475 84.3401 28.8909 84.1543 29.153C83.9686 29.3777 83.8014 29.6024 83.6528 29.827C83.5042 30.0517 83.4298 30.1828 83.4298 30.2203C83.7642 29.8083 84.0986 29.3777 84.433 28.9283C84.8045 28.4789 85.1203 28.1606 85.3803 27.9734V27.8049C85.5661 27.8049 85.6218 27.73 85.5475 27.5802H85.659L86.1048 27.0747C86.142 26.9998 86.142 26.981 86.1048 27.0185C86.1048 27.0559 86.1234 27.0747 86.1605 27.0747L86.6621 26.5691L86.885 26.1759V26.2882L87.498 25.4457L87.9996 24.7154C88.1482 24.6406 88.2596 24.5282 88.3339 24.3784C88.4082 24.2286 88.5197 24.1163 88.6683 24.0414C88.6683 24.1537 88.594 24.2661 88.4454 24.3784C88.3339 24.4533 88.2596 24.5657 88.2225 24.7154C88.0739 24.7903 87.9624 24.884 87.8881 24.9963C87.851 25.1086 87.7952 25.2397 87.7209 25.3895L86.3277 27.2432L84.6559 29.2653C84.9159 28.9283 85.1574 28.5726 85.3803 28.1981C85.6404 27.8236 85.789 27.5989 85.8262 27.524L83.9871 29.9956L82.0924 32.1301C81.8695 32.3922 81.6094 32.6356 81.3122 32.8603C81.0893 33.2722 80.792 33.5531 80.4205 33.7029C80.1976 33.965 79.9933 34.2084 79.8075 34.4331C79.6589 34.6578 79.4731 34.8638 79.2502 35.051C79.0645 35.3506 78.823 35.594 78.5257 35.7812C78.2657 35.9685 77.987 36.137 77.6898 36.2868C77.5412 36.3991 77.4298 36.4927 77.3555 36.5676C77.2811 36.68 77.1697 36.7736 77.0211 36.8485C76.8353 36.9608 76.6496 37.0357 76.4638 37.0732C76.278 37.1481 76.1108 37.223 75.9622 37.2979C75.8879 37.2979 75.7393 37.3353 75.5164 37.4102C75.3307 37.4851 75.1263 37.56 74.9034 37.6349C74.6805 37.7472 74.4576 37.8221 74.2347 37.8596C74.0489 37.9345 73.9003 37.9719 73.7888 37.9719C73.5659 37.9719 73.3802 37.897 73.2315 37.7472C73.0829 37.5974 72.9343 37.4289 72.7857 37.2417C72.6743 37.0919 72.5257 36.9608 72.3399 36.8485C72.1913 36.7361 71.9869 36.6987 71.7269 36.7361L71.4482 36.5115C71.4482 36.3242 71.4111 36.1932 71.3368 36.1183C71.2625 35.6689 71.2253 35.2195 71.2253 34.7701C71.2253 34.3208 71.2811 33.8714 71.3925 33.422C71.5411 32.3735 71.7455 31.456 72.0055 30.6696C72.3027 29.8458 72.6185 29.0781 72.9529 28.3666C73.2873 27.6176 73.6402 26.9061 74.0117 26.2321C74.3833 25.5206 74.7734 24.7716 75.182 23.9852C75.2563 23.9103 75.2935 23.8354 75.2935 23.7605C75.3306 23.6482 75.3864 23.5733 75.4607 23.5358C75.7579 22.9367 76.018 22.4873 76.2409 22.1877C76.4638 21.8507 76.6681 21.5698 76.8539 21.3452C77.0768 21.083 77.2997 20.8022 77.5226 20.5026C77.7455 20.203 78.0242 19.7724 78.3586 19.2106C77.8384 19.3604 77.2626 19.3979 76.631 19.323C75.9994 19.2481 75.535 19.0421 75.2378 18.7051L75.0149 19.1545C74.7176 19.4915 74.4576 19.866 74.2347 20.2779C74.0117 20.6898 73.7888 21.1017 73.5659 21.5137C73.0829 22.1877 72.6371 22.7682 72.2284 23.255C71.8569 23.7418 71.4297 24.341 70.9467 25.0525C70.7238 25.4644 70.3523 25.895 69.8321 26.3444C69.312 26.7938 68.9033 27.2244 68.6061 27.6364C68.5318 27.7113 68.4389 27.8049 68.3274 27.9172C68.2531 28.0296 68.1788 28.1606 68.1045 28.3104H67.9931C67.9188 28.3853 67.863 28.4789 67.8259 28.5913C67.7887 28.6662 67.733 28.7036 67.6587 28.7036C67.5844 28.6662 67.5658 28.6287 67.603 28.5913C67.6401 28.5538 67.6587 28.5164 67.6587 28.4789C67.3986 28.5164 67.25 28.61 67.2129 28.7598C67.1757 28.9096 67.1014 29.0407 66.99 29.153L67.1572 28.816C67.12 28.7411 67.0829 28.7411 67.0457 28.816C67.0457 28.8534 67.0085 28.8721 66.9342 28.8721C66.9342 28.7972 66.9528 28.7598 66.99 28.7598C67.0643 28.7223 67.1014 28.6662 67.1014 28.5913C66.8414 28.5913 66.6556 28.6849 66.5441 28.8721C66.507 28.7972 66.5256 28.7598 66.5999 28.7598C66.637 28.7223 66.6184 28.6662 66.5441 28.5913C66.507 28.6287 66.4884 28.6662 66.4884 28.7036C66.4513 28.7411 66.377 28.7785 66.2655 28.816C66.2283 28.7411 66.2655 28.6662 66.377 28.5913C66.4884 28.5164 66.5441 28.4415 66.5441 28.3666C66.3955 28.4415 66.2841 28.5351 66.2098 28.6475C66.0983 28.7598 65.9683 28.8347 65.8197 28.8721C65.894 28.7598 65.9869 28.6287 66.0983 28.4789C66.2098 28.3291 66.3398 28.1794 66.4884 28.0296C66.3027 28.067 66.1912 28.1419 66.154 28.2542C66.1169 28.3666 66.0612 28.4602 65.9869 28.5351C65.9497 28.4228 65.9869 28.3104 66.0983 28.1981C66.2098 28.0857 66.3027 27.9547 66.377 27.8049C66.3027 27.8049 66.2469 27.8423 66.2098 27.9172C66.1355 27.9921 66.0797 28.067 66.0426 28.1419C65.9683 28.067 65.9497 28.0296 65.9869 28.0296C65.8754 28.0296 65.7268 28.0857 65.541 28.1981C65.3181 28.273 65.1695 28.3291 65.0952 28.3666C65.281 27.9547 65.5225 27.5802 65.8197 27.2432C66.1169 26.9061 66.377 26.5691 66.5999 26.2321C66.6742 26.0823 66.7671 25.9325 66.8785 25.7827C66.9528 25.5955 67.0271 25.427 67.1014 25.2772C67.1386 25.2772 67.1572 25.2772 67.1572 25.2772C67.1572 25.2397 67.1757 25.221 67.2129 25.221C67.473 24.7716 67.8259 24.2661 68.2717 23.7044C68.7547 23.1052 69.0891 22.5809 69.2748 22.1316C69.4234 21.9443 69.5906 21.7384 69.7764 21.5137C69.9622 21.2515 70.1108 20.9894 70.2222 20.7273C70.408 20.3528 70.5752 20.0532 70.7238 19.8285C70.8724 19.5664 71.021 19.323 71.1696 19.0983C71.3182 18.8362 71.4668 18.5928 71.6154 18.3681C71.8012 18.1059 72.0055 17.7876 72.2284 17.4132C72.2656 17.3757 72.247 17.357 72.1727 17.357C72.1356 17.3195 72.117 17.2821 72.117 17.2446C72.1913 17.2821 72.247 17.2821 72.2842 17.2446C72.3213 17.2072 72.3585 17.1885 72.3956 17.1885C72.0613 16.6268 72.0427 15.934 72.3399 15.1101C72.6371 14.2488 72.8972 13.425 73.1201 12.6386C73.1572 12.5637 73.213 12.4888 73.2873 12.4139C73.3616 12.3016 73.4359 12.2079 73.5102 12.133C73.5845 12.2454 73.5845 12.3952 73.5102 12.5824C73.4359 12.7322 73.3987 12.9007 73.3987 13.088C73.213 13.4624 73.0644 13.9118 72.9529 14.4361C72.8786 14.9603 72.9158 15.4284 73.0644 15.8404C73.1015 15.4659 73.1201 15.1101 73.1201 14.7731C73.1201 14.4361 73.213 14.099 73.3987 13.762C73.4359 13.425 73.4916 13.1067 73.5659 12.8071C73.6402 12.5075 73.7145 12.2079 73.7888 11.9084C73.8631 11.9832 73.9003 12.002 73.9003 11.9645C73.9003 11.8896 73.9374 11.8522 74.0117 11.8522C74.0489 11.8522 74.0489 11.8709 74.0117 11.9084C74.0117 11.9458 74.0303 11.9832 74.0675 12.0207C74.2532 11.9458 74.3647 11.8147 74.4018 11.6275C74.4761 11.4403 74.6062 11.3092 74.7919 11.2343C74.8662 11.2343 74.9034 11.253 74.9034 11.2905C74.9406 11.3279 74.9963 11.3466 75.0706 11.3466C74.922 11.1594 74.7176 11.122 74.4576 11.2343C74.4576 11.122 74.5319 11.0845 74.6805 11.122C74.8663 11.122 74.9963 11.1594 75.0706 11.2343C75.182 11.0471 75.2749 10.916 75.3492 10.8411C75.4607 10.7662 75.4235 10.8785 75.2378 11.1781C75.3121 11.1407 75.3678 11.1032 75.405 11.0658C75.4793 10.9909 75.6093 10.9534 75.7951 10.9534C75.9065 10.9534 76.018 10.9909 76.1294 11.0658C76.278 11.1407 76.4266 11.1968 76.5753 11.2343C76.6496 11.2343 76.6681 11.2156 76.631 11.1781C76.631 11.1032 76.6681 11.0658 76.7424 11.0658C76.8539 11.2156 76.9654 11.3092 77.0768 11.3466C77.2254 11.3466 77.374 11.3841 77.5226 11.459C77.7084 11.9832 77.727 12.5075 77.5784 13.0318C77.4669 13.5186 77.3183 14.0241 77.1325 14.5484C77.0582 14.848 76.9468 15.0914 76.7982 15.2786C76.6867 15.4659 76.5753 15.7093 76.4638 16.0089C76.3152 16.3833 76.2409 16.6642 76.2409 16.8514C76.278 16.9638 76.4081 17.0761 76.631 17.1885C76.891 17.2634 77.114 17.2821 77.2997 17.2446C77.3369 17.2446 77.374 17.2446 77.4112 17.2446C77.4483 17.2072 77.4855 17.1885 77.5226 17.1885C77.5969 17.1885 77.6898 17.2072 77.8013 17.2446C77.9127 17.2821 78.0242 17.3008 78.1356 17.3008C78.4329 17.2634 78.6929 17.2072 78.9158 17.1323C79.1388 17.02 79.4174 16.9638 79.7518 16.9638C79.8261 16.9638 79.8447 16.9638 79.8075 16.9638C79.7703 16.9263 79.7703 16.8889 79.8075 16.8514C79.919 16.9638 80.0676 16.9638 80.2533 16.8514C80.3276 16.8514 80.3648 16.8702 80.3648 16.9076C80.4019 16.9451 80.4391 16.9451 80.4762 16.9076C80.5505 16.8702 80.662 16.8514 80.8106 16.8514C80.9592 16.8514 81.0893 16.814 81.2007 16.7391C81.275 16.7391 81.3307 16.7578 81.3679 16.7953C81.405 16.8327 81.4794 16.8327 81.5908 16.7953C81.6651 16.9076 81.7208 17.0012 81.758 17.0761C81.8323 17.151 81.888 17.2634 81.9252 17.4132C81.9995 17.5255 82.0738 17.6004 82.1481 17.6378C82.2224 17.6753 82.2967 17.7315 82.371 17.8064C82.4453 18.0685 82.5196 18.237 82.5939 18.3119C82.5939 18.4617 82.6311 18.574 82.7054 18.6489C82.7797 18.7238 82.854 18.8174 82.9283 18.9298C82.854 19.0047 82.7983 19.1357 82.7611 19.323C82.7611 19.4728 82.7054 19.5851 82.5939 19.66C82.5196 19.66 82.501 19.6413 82.5382 19.6038C82.5753 19.5289 82.5753 19.4541 82.5382 19.3792C82.3896 19.866 82.2038 20.2966 81.9809 20.6711C81.758 21.0081 81.5537 21.4013 81.3679 21.8507C81.2936 21.9256 81.2193 22.0192 81.145 22.1316C81.1078 22.2439 81.0335 22.3375 80.9221 22.4124C80.6992 22.8243 80.532 23.1239 80.4205 23.3112C80.3091 23.4984 80.1976 23.6669 80.0861 23.8167C79.9747 23.929 79.8632 24.0601 79.7518 24.2099C79.6775 24.3597 79.566 24.5657 79.4174 24.8278C78.9344 25.6516 78.5072 26.3631 78.1356 26.9623C77.8013 27.5615 77.4855 28.1606 77.1883 28.7598C76.9282 29.359 76.6867 30.033 76.4638 30.782C76.2409 31.4935 76.0365 32.3735 75.8508 33.422C76.2595 33.0475 76.631 32.8229 76.9654 32.748C77.3369 32.6356 77.7641 32.4109 78.2471 32.0739C78.2471 32.0365 78.2471 32.0177 78.2471 32.0177C78.2843 32.0177 78.3028 32.0365 78.3028 32.0739C78.7115 31.662 79.1016 31.2501 79.4731 30.8381C79.8447 30.4262 80.2719 30.0517 80.7549 29.7147H80.6434C80.7177 29.6398 80.792 29.5649 80.8663 29.49C80.9778 29.3777 81.0335 29.2841 81.0335 29.2092C81.1078 29.1343 81.1821 29.0594 81.2564 28.9845C81.3307 28.9096 81.4422 28.816 81.5908 28.7036V28.6475C81.5908 28.6475 81.628 28.61 81.7023 28.5351C81.888 28.3853 82.0738 28.1981 82.2595 27.9734C82.4825 27.7487 82.724 27.5427 82.984 27.3555V27.4117L83.0955 27.2432ZM82.6497 31.0628C82.5753 31.0254 82.5753 30.9879 82.6497 30.9505C82.7611 30.8756 82.854 30.8381 82.9283 30.8381C82.9283 30.8381 82.9469 30.8007 82.984 30.7258C83.0583 30.6509 83.0955 30.576 83.0955 30.5011C82.7983 30.6883 82.5568 30.913 82.371 31.1752C82.1852 31.3999 82.0181 31.662 81.8695 31.9616C81.9438 31.9241 81.9995 31.8492 82.0366 31.7369C82.1109 31.6245 82.2038 31.5309 82.3153 31.456C82.3153 31.3811 82.3524 31.3062 82.4267 31.2313C82.4639 31.2688 82.4639 31.3062 82.4267 31.3437C82.3896 31.3437 82.371 31.3624 82.371 31.3999L82.8726 30.8943C82.724 30.9692 82.6497 31.0254 82.6497 31.0628ZM82.3153 28.0857C82.3896 28.0108 82.4639 27.9359 82.5382 27.8611C82.6497 27.7862 82.7425 27.6925 82.8168 27.5802C82.7054 27.6551 82.5939 27.7487 82.4825 27.8611C82.371 27.9359 82.3153 28.0108 82.3153 28.0857ZM83.4298 30.2203C83.3184 30.2203 83.2441 30.2764 83.2069 30.3888C83.2069 30.4637 83.1884 30.5386 83.1512 30.6135L83.4298 30.2203ZM83.4856 30.3888C83.7085 30.3139 83.8199 30.1828 83.8199 29.9956L83.4856 30.3888ZM85.5475 23.5358C85.4732 23.5358 85.4361 23.5358 85.4361 23.5358C85.4361 23.4235 85.4732 23.3673 85.5475 23.3673C85.5475 23.4048 85.5475 23.4235 85.5475 23.4235C85.5847 23.4235 85.5847 23.461 85.5475 23.5358ZM88.3897 24.2099C88.3154 24.3597 88.1853 24.5282 87.9996 24.7154L88.3897 24.2099ZM86.9965 26.0074C87.0708 25.9325 87.1265 25.8576 87.1636 25.7827C87.2008 25.7078 87.2565 25.6329 87.3308 25.558L86.9965 26.0074ZM83.9871 29.9956C84.0243 29.9956 84.1172 29.8832 84.2658 29.6585L83.9871 29.9956ZM87.3308 25.5018C87.3308 25.5393 87.3866 25.5018 87.498 25.3895L87.4423 25.4457C87.4051 25.4831 87.368 25.5018 87.3308 25.5018Z" transform="translate(91 60)" fill="white"/>
<path d="M96.6784 23.3673C96.6784 23.3673 96.697 23.3861 96.7341 23.4235L97.18 23.0865C97.6629 22.5622 98.1459 22.0192 98.6289 21.4575C99.1119 20.8958 99.5577 20.3341 99.9664 19.7724C100.152 19.6975 100.282 19.5851 100.356 19.4353C100.468 19.2855 100.654 19.2481 100.914 19.323C101.1 19.2481 101.248 19.117 101.36 18.9298C101.471 18.7051 101.601 18.5553 101.75 18.4804C101.973 18.4804 102.103 18.4617 102.14 18.4242C102.214 18.4617 102.196 18.574 102.084 18.7613C101.973 18.9111 101.843 19.0796 101.694 19.2668C101.583 19.4166 101.49 19.5664 101.415 19.7162C101.341 19.866 101.36 19.9221 101.471 19.8847C101.545 19.8847 101.62 19.8473 101.694 19.7724C101.768 19.6975 101.88 19.66 102.028 19.66C102.14 19.6226 102.214 19.6226 102.251 19.66C102.326 19.6975 102.4 19.6787 102.474 19.6038C102.437 19.7162 102.381 19.8473 102.307 19.997C102.27 20.1094 102.251 20.2217 102.251 20.3341C102.251 20.3715 102.326 20.3902 102.474 20.3902C102.437 20.6149 102.363 20.8209 102.251 21.0081C102.14 21.1954 102.047 21.3826 101.973 21.5698C101.564 22.1316 101.192 22.6184 100.858 23.0303C100.524 23.4422 100.189 23.8354 99.8549 24.2099C99.5577 24.5844 99.2233 24.9776 98.8518 25.3895C98.5174 25.764 98.1273 26.2321 97.6815 26.7938C97.6072 26.8312 97.5701 26.8687 97.5701 26.9061C97.5701 26.9061 97.5329 26.9061 97.4586 26.9061C96.5669 28.2168 95.6567 29.4713 94.7279 30.6696C93.7991 31.8305 92.7774 32.9165 91.6628 33.9276L91.6071 34.1523C91.57 34.1897 91.5142 34.302 91.4399 34.4893C91.1427 34.7514 90.8269 34.9948 90.4926 35.2195C90.1582 35.4068 89.861 35.6502 89.6009 35.9497C89.5637 35.9872 89.6009 36.0059 89.7124 36.0059C89.4894 36.3055 89.0993 36.5115 88.5421 36.6238C88.0219 36.7361 87.5389 36.811 87.0931 36.8485C86.4615 36.9234 85.8114 36.8859 85.1426 36.7361C84.511 36.5864 84.0652 36.3055 83.8051 35.8936C83.4336 35.7438 83.1178 35.4442 82.8578 34.9948C82.6348 34.3957 82.5234 33.7778 82.5234 33.1412C82.5234 32.4671 82.5977 31.8118 82.7463 31.1752C82.8578 30.5011 83.0249 29.8458 83.2479 29.2092C83.4708 28.5726 83.7123 27.9734 83.9723 27.4117C84.0838 27.1121 84.1767 26.8312 84.251 26.5691C84.3253 26.307 84.4367 26.0261 84.5853 25.7265C84.994 24.7529 85.477 23.7793 86.0343 22.8056C86.5916 21.832 87.0931 20.8958 87.5389 19.997L88.765 17.694C89.025 17.2821 89.2665 16.9263 89.4894 16.6268C89.7495 16.2897 89.9538 15.934 90.1024 15.5595V15.391C90.4368 15.391 90.6783 15.2037 90.8269 14.8293C90.9012 14.7918 90.9941 14.7731 91.1056 14.7731C91.2542 14.7731 91.3656 14.7357 91.4399 14.6608C91.8115 14.6982 92.1458 14.7918 92.443 14.9416C92.7774 15.054 93.0746 15.185 93.3347 15.3348C93.409 15.522 93.5576 15.6906 93.7805 15.8404C94.0406 15.9527 94.1521 16.1587 94.1149 16.4582C94.1149 16.4957 94.0406 16.6268 93.892 16.8514C93.8548 16.9263 93.8363 16.9825 93.8363 17.02C93.8734 17.0574 93.8734 17.1136 93.8363 17.1885C93.8363 17.3008 93.7805 17.357 93.6691 17.357V17.7502L93.279 18.8174C93.279 18.8923 93.279 18.9298 93.279 18.9298C93.3161 18.8923 93.3347 18.9111 93.3347 18.986C93.1489 19.0234 93.0189 19.1357 92.9446 19.323C92.9074 19.4728 92.8331 19.5851 92.7217 19.66C92.7217 19.7724 92.7217 19.8285 92.7217 19.8285C92.5731 19.866 92.4802 19.9409 92.443 20.0532C92.443 20.1281 92.4245 20.203 92.3873 20.2779C92.1644 20.5775 91.9786 20.8771 91.83 21.1766C91.7186 21.4762 91.5885 21.7571 91.4399 22.0192C91.3656 22.1316 91.3285 22.2065 91.3285 22.2439C91.3656 22.2439 91.3471 22.2813 91.2727 22.3562C91.2727 22.3937 91.217 22.4124 91.1056 22.4124C91.0684 22.5622 91.0127 22.6933 90.9384 22.8056C90.9012 22.8805 90.8827 23.0116 90.8827 23.1988C90.6969 23.3861 90.5483 23.6482 90.4368 23.9852C90.3254 24.2848 90.1768 24.5282 89.991 24.7154C89.6938 25.3521 89.4523 25.9699 89.2665 26.5691C88.9693 27.1683 88.6535 27.7487 88.3191 28.3104C88.0219 28.8721 87.7619 29.4339 87.5389 29.9956L87.316 31.119C87.1674 31.4935 87.0374 31.8867 86.9259 32.2986C86.8145 32.7105 86.7773 33.1412 86.8145 33.5905C87.4089 33.3284 87.929 32.9352 88.3749 32.4109C89.0436 31.8492 89.7124 31.2313 90.3811 30.5573C91.0498 29.8458 91.7 29.1343 92.3316 28.4228C92.4059 28.3853 92.443 28.3666 92.443 28.3666C92.4802 28.3291 92.5359 28.3104 92.6102 28.3104C92.8331 28.0108 93.0561 27.7113 93.279 27.4117C93.5019 27.1121 93.762 26.8125 94.0592 26.5129C94.2821 26.3631 94.4678 26.1946 94.6165 26.0074C94.7651 25.7827 94.9137 25.5393 95.0623 25.2772C95.1366 25.2023 95.2109 25.1461 95.2852 25.1086C95.3967 25.0338 95.4895 24.9589 95.5638 24.884C95.7124 24.5844 95.8982 24.341 96.1211 24.1537C96.3812 23.929 96.5669 23.6669 96.6784 23.3673ZM95.5081 10.7288C95.3966 10.8036 95.2852 10.916 95.1737 11.0658C94.988 11.0658 94.8208 11.0658 94.6722 11.0658C94.5236 11.0658 94.3564 11.1032 94.1706 11.1781C94.1335 11.1781 94.1149 11.2156 94.1149 11.2905L93.892 11.122V10.7849C93.6691 10.8598 93.5576 10.9722 93.5576 11.122C93.4833 11.122 93.4647 11.0845 93.5019 11.0096C93.5762 10.8973 93.5762 10.8224 93.5019 10.7849C93.4276 10.8224 93.3718 10.8785 93.3347 10.9534C93.3347 10.9909 93.2976 11.0096 93.2232 11.0096V10.7849C93.1489 10.7849 93.1118 10.8036 93.1118 10.8411C93.1861 10.3168 92.9632 10.0547 92.443 10.0547C92.443 9.86745 92.4059 9.77384 92.3316 9.77384C92.3316 9.13723 92.4802 8.48189 92.7774 7.80783C92.8517 7.73294 92.8889 7.67677 92.8889 7.63932C92.8889 7.56442 92.9074 7.50825 92.9446 7.47081C93.0561 7.39591 93.1675 7.32101 93.279 7.24612C93.4276 7.13378 93.5019 6.98399 93.5019 6.79675C93.539 6.8342 93.6319 6.85292 93.7805 6.85292C93.8548 6.77802 93.9663 6.66568 94.1149 6.51589C94.2635 6.3661 94.375 6.38482 94.4493 6.57206C94.5236 6.60951 94.5421 6.60951 94.505 6.57206C94.505 6.53461 94.5236 6.51589 94.5607 6.51589C94.635 6.59078 94.7093 6.62823 94.7836 6.62823C94.8208 6.51589 94.9137 6.441 95.0623 6.40355C95.248 6.3661 95.4338 6.38482 95.6196 6.45972C95.6196 6.53461 95.5824 6.59079 95.5081 6.62823C95.471 6.62823 95.471 6.66568 95.5081 6.74058C95.9911 6.74058 96.3069 6.62823 96.4555 6.40355C96.4555 6.51589 96.4741 6.60951 96.5112 6.68441C96.5855 6.72185 96.6413 6.77802 96.6784 6.85292C96.6041 6.89037 96.5669 6.96526 96.5669 7.0776C96.6041 7.18995 96.6598 7.28357 96.7341 7.35846C96.8827 7.28357 97.0499 7.30229 97.2357 7.41463C97.4586 7.52698 97.5701 7.67677 97.5701 7.864C97.5701 7.90145 97.6072 7.92018 97.6815 7.92018C97.6815 7.99507 97.6815 8.05124 97.6815 8.08869C97.7187 8.08869 97.7372 8.12614 97.7372 8.20103C97.7001 8.12614 97.6629 8.08869 97.6258 8.08869C97.5515 8.23848 97.4772 8.38827 97.4029 8.53806C97.3657 8.68785 97.2728 8.83764 97.1242 8.98744C97.1242 9.02488 97.1614 9.04361 97.2357 9.04361C97.31 9.04361 97.3471 9.06233 97.3471 9.09978C97.3471 9.09978 97.2543 9.09978 97.0685 9.09978C96.8456 9.39936 96.5855 9.69894 96.2883 9.99852C95.9911 10.2607 95.7496 10.5977 95.5638 11.0096C95.4895 11.0096 95.4524 11.0283 95.4524 11.0658C95.4524 11.0658 95.4152 11.0658 95.3409 11.0658C95.4524 10.9534 95.5081 10.8411 95.5081 10.7288ZM93.9477 17.4693C93.9477 17.5068 93.9291 17.5442 93.892 17.5817C93.892 17.5817 93.892 17.6191 93.892 17.694C93.8177 17.7315 93.7991 17.694 93.8363 17.5817C93.8734 17.4693 93.9106 17.4319 93.9477 17.4693Z" transform="translate(91 60)" fill="white"/>
<path d="M106.711 22.0192C106.711 22.169 106.711 22.3001 106.711 22.4124C106.711 22.5248 106.693 22.6746 106.656 22.8618C106.878 22.7869 106.897 22.8056 106.711 22.918C106.525 22.9929 106.507 23.1052 106.656 23.255C106.841 23.2175 107.027 23.1614 107.213 23.0865C107.399 22.9741 107.584 22.9367 107.77 22.9741C107.844 22.9367 107.956 22.918 108.104 22.918C108.513 22.7307 109.052 22.5809 109.721 22.4686C109.906 22.3937 110.074 22.3562 110.222 22.3562C110.408 22.3188 110.594 22.2626 110.779 22.1877C110.854 22.1877 110.909 22.1503 110.947 22.0754C111.021 22.0754 111.077 22.0941 111.114 22.1316C111.151 22.169 111.17 22.1503 111.17 22.0754C111.244 22.0754 111.3 22.0941 111.337 22.1316C112.191 21.9443 112.86 21.8694 113.343 21.9069C113.826 21.9443 114.309 22.1877 114.792 22.6371C114.792 22.7494 114.848 22.8243 114.959 22.8618C114.885 22.9367 114.848 23.0116 114.848 23.0865C114.885 23.1239 114.885 23.1801 114.848 23.255C114.81 23.3299 114.755 23.2737 114.68 23.0865C114.606 23.1614 114.513 23.2175 114.402 23.255C114.327 23.255 114.272 23.3112 114.235 23.4235C114.049 23.2363 113.919 23.2363 113.844 23.4235C113.77 23.6107 113.622 23.7044 113.399 23.7044H113.12C113.009 23.7044 113.009 23.7231 113.12 23.7605C113.231 23.7605 113.213 23.7605 113.064 23.7605C112.99 23.7605 112.897 23.798 112.786 23.8729C112.674 23.9103 112.47 23.9478 112.173 23.9852C112.098 24.0601 112.061 24.0976 112.061 24.0976C111.875 24.0601 111.634 24.0788 111.337 24.1537C111.077 24.2286 110.854 24.3035 110.668 24.3784L107.324 25.7265C107.399 25.764 107.454 25.764 107.491 25.7265C107.529 25.6891 107.584 25.6704 107.659 25.6704C107.473 25.8576 107.25 25.9887 106.99 26.0636C106.73 26.101 106.507 26.2134 106.321 26.4006C106.247 26.3257 106.21 26.3257 106.21 26.4006C106.21 26.4755 106.173 26.5129 106.098 26.5129L105.652 28.6475C105.69 28.61 105.708 28.5538 105.708 28.4789C105.782 28.5538 105.782 28.61 105.708 28.6475C105.671 28.6849 105.652 28.7223 105.652 28.7598C105.578 28.9845 105.541 29.1343 105.541 29.2092C105.541 29.2092 105.504 29.2466 105.43 29.3215C105.318 29.7334 105.188 30.1454 105.039 30.5573C104.928 30.9692 104.798 31.3811 104.649 31.7931C104.501 32.1301 104.334 32.4297 104.148 32.6918C103.999 32.9165 103.851 33.1786 103.702 33.4782C103.59 33.7403 103.46 33.9837 103.312 34.2084C103.163 34.3957 103.015 34.6016 102.866 34.8263C102.717 35.0136 102.569 35.2382 102.42 35.5004C102.309 35.7251 102.16 35.931 101.974 36.1183C102.049 35.9685 102.197 35.7812 102.42 35.5565C102.383 35.4816 102.364 35.4816 102.364 35.5565C102.364 35.594 102.327 35.6127 102.253 35.6127C102.327 35.5378 102.383 35.4442 102.42 35.3319C102.457 35.2195 102.513 35.1072 102.587 34.9948C102.662 34.9199 102.736 34.8263 102.81 34.714C102.885 34.6016 102.885 34.4893 102.81 34.3769C102.625 34.6016 102.439 34.8263 102.253 35.051C102.104 35.2382 101.956 35.4442 101.807 35.6689C101.621 35.7063 101.473 35.8 101.361 35.9497C101.287 36.0995 101.194 36.2306 101.083 36.3429C101.046 36.3429 101.027 36.3242 101.027 36.2868C100.841 36.5115 100.637 36.6987 100.414 36.8485C100.228 36.9983 100.042 37.1293 99.8567 37.2417C99.7824 37.2417 99.7638 37.223 99.8009 37.1855C99.8381 37.1855 99.8381 37.1668 99.8009 37.1293C99.6895 37.0919 99.5966 37.1106 99.5223 37.1855C99.448 37.2979 99.3551 37.3166 99.2437 37.2417C99.095 37.354 98.9279 37.4664 98.7421 37.5787C98.5563 37.7285 98.352 37.8034 98.1291 37.8034C98.0919 37.8034 98.0734 37.8408 98.0734 37.9157C97.9991 37.7285 97.869 37.6911 97.6833 37.8034C97.4975 37.9532 97.3675 37.9532 97.2932 37.8034L97.6275 37.6911C97.5532 37.6162 97.4603 37.5974 97.3489 37.6349C97.2374 37.7098 97.0888 37.7285 96.9031 37.6911C96.8288 37.6162 96.7916 37.5974 96.7916 37.6349C96.8288 37.7098 96.8288 37.7472 96.7916 37.7472C96.6058 37.7098 96.4572 37.6723 96.3458 37.6349C96.2715 37.5974 96.16 37.56 96.0114 37.5225C96.2343 37.7472 96.5501 37.8783 96.9588 37.9157C96.8845 38.0281 96.773 38.0281 96.6244 37.9157C96.513 37.8408 96.4201 37.8408 96.3458 37.9157C96.16 37.8783 96.0114 37.7847 95.8999 37.6349C95.7885 37.4851 95.6399 37.3915 95.4541 37.354C95.417 37.3915 95.3984 37.4289 95.3984 37.4664C95.3984 37.5038 95.3612 37.4851 95.2869 37.4102C95.2498 37.4851 95.2498 37.5225 95.2869 37.5225C95.3612 37.5225 95.3984 37.5413 95.3984 37.5787C95.2869 37.5413 95.1941 37.4664 95.1197 37.354C95.0083 37.2791 94.8968 37.2042 94.7854 37.1293C94.8225 37.0544 94.8411 37.017 94.8411 37.017C94.804 37.017 94.7854 36.9796 94.7854 36.9047C94.7111 36.9421 94.6925 36.9796 94.7296 37.017C94.7668 37.0919 94.7482 37.1106 94.6739 37.0732C94.6739 36.9608 94.6553 36.8298 94.6182 36.68C94.581 36.5676 94.5625 36.4178 94.5625 36.2306C94.5996 36.2306 94.581 36.3242 94.5067 36.5115C94.4324 36.0621 94.451 35.6314 94.5625 35.2195C94.6739 34.8076 94.804 34.4518 94.9526 34.1523V34.0399H95.0083C95.3055 33.291 95.677 32.5982 96.1229 31.9616C96.6058 31.2875 97.126 30.6696 97.6833 30.1079C97.9805 29.7709 98.1105 29.6024 98.0734 29.6024C98.0734 29.6024 97.9433 29.7334 97.6833 29.9956C97.4603 30.2203 97.1631 30.5573 96.7916 31.0067C96.4572 31.4186 96.1229 31.8679 95.7885 32.3548C95.4541 32.8416 95.1569 33.3284 94.8968 33.8152C94.6368 34.302 94.4882 34.7514 94.451 35.1633C94.4139 35.388 94.3953 35.6127 94.3953 35.8374C94.3581 36.0246 94.3767 36.2119 94.451 36.3991C94.5253 36.6238 94.5625 36.8298 94.5625 37.017C94.3396 36.8672 94.2095 36.6425 94.1724 36.3429C94.1352 36.0808 94.1352 35.7812 94.1724 35.4442C94.1724 35.1072 94.2281 34.7889 94.3396 34.4893C94.4139 34.1523 94.4882 33.8714 94.5625 33.6467C94.6368 33.6093 94.6739 33.5718 94.6739 33.5344C94.6739 33.4595 94.7111 33.3846 94.7854 33.3097C94.8597 33.2348 94.9154 33.1599 94.9526 33.085C94.9897 33.0101 95.064 32.9352 95.1755 32.8603C95.3984 32.3735 95.677 31.9241 96.0114 31.5122C96.3829 31.1003 96.7545 30.6883 97.126 30.2764C97.9805 29.3777 98.8907 28.5351 99.8567 27.7487C100.86 26.9623 101.9 26.2508 102.977 25.6142V25.3895C102.457 25.6891 101.956 26.0074 101.473 26.3444C100.99 26.6814 100.488 27.0185 99.9681 27.3555C99.8938 27.5053 99.7824 27.6176 99.6337 27.6925C99.4851 27.73 99.3737 27.8423 99.2994 28.0296C99.2251 28.067 99.1322 28.1419 99.0207 28.2542C98.9464 28.3291 98.8721 28.404 98.7978 28.4789C98.6121 28.6662 98.3706 28.8721 98.0734 29.0968C97.8133 29.3215 97.609 29.5275 97.4603 29.7147C97.0145 30.1641 96.5687 30.6509 96.1229 31.1752C95.7142 31.6994 95.3427 32.2237 95.0083 32.748C95.0826 32.5607 95.1941 32.3735 95.3427 32.1863C95.4913 31.9616 95.6213 31.7556 95.7328 31.5684C95.6956 31.5684 95.6585 31.6058 95.6213 31.6807C95.5842 31.7556 95.547 31.8118 95.5098 31.8492C95.5098 31.8492 95.5656 31.7556 95.677 31.5684C95.9371 31.2688 96.1972 30.9318 96.4572 30.5573C96.7544 30.1828 97.0702 29.8645 97.4046 29.6024C97.7018 29.1904 98.0362 28.8534 98.4077 28.5913C98.8164 28.2917 99.2065 27.9359 99.578 27.524C100.172 27.1121 100.711 26.7376 101.194 26.4006C101.677 26.0261 102.272 25.6516 102.977 25.2772C103.015 24.9776 103.052 24.7342 103.089 24.5469C103.126 24.3222 103.163 24.135 103.2 23.9852C103.238 23.798 103.256 23.592 103.256 23.3673C103.293 23.1426 103.312 22.8618 103.312 22.5248C103.275 22.4499 103.275 22.3562 103.312 22.2439C103.386 22.0941 103.405 21.9256 103.368 21.7384C103.33 21.7384 103.293 21.7196 103.256 21.6822C103.33 21.6073 103.349 21.4762 103.312 21.289C103.312 21.1018 103.275 20.9145 103.2 20.7273C103.126 20.7273 103.089 20.7085 103.089 20.6711C102.755 21.1954 102.383 21.6822 101.974 22.1316C101.603 22.5435 101.25 22.9741 100.916 23.4235C100.804 23.5733 100.618 23.8354 100.358 24.2099C100.135 24.5844 99.8752 24.9776 99.578 25.3895C99.2808 25.8014 98.9836 26.1759 98.6864 26.5129C98.4263 26.85 98.222 27.0372 98.0734 27.0747C97.8504 27.4866 97.5718 27.8798 97.2374 28.2542C96.9402 28.5913 96.643 28.7785 96.3458 28.816C96.3086 28.8909 96.2157 28.9845 96.0671 29.0968C95.9185 29.1717 95.7513 29.2653 95.5656 29.3777C95.417 29.49 95.2869 29.6211 95.1755 29.7709C95.0269 29.8832 94.9526 29.9768 94.9526 30.0517C94.7668 30.1266 94.6739 30.1454 94.6739 30.1079C94.6368 30.0705 94.5253 30.0517 94.3396 30.0517C94.3396 29.9394 94.2467 29.9207 94.0609 29.9956C93.838 30.033 93.7451 29.9768 93.7823 29.827C93.7823 29.7896 93.8008 29.7709 93.838 29.7709C93.8751 29.7709 93.8937 29.7522 93.8937 29.7147C93.7451 29.7522 93.7265 29.7522 93.838 29.7147C93.9495 29.6398 93.9123 29.6024 93.7265 29.6024V29.5462C93.8008 29.5087 93.8752 29.4526 93.9495 29.3777C94.0238 29.3028 94.0238 29.2841 93.9495 29.3215C93.9866 29.2466 93.9495 29.2466 93.838 29.3215C93.7265 29.359 93.708 29.3402 93.7823 29.2653C93.7451 29.1904 93.8008 29.1155 93.9495 29.0406C94.0609 28.9658 94.0795 28.8909 94.0052 28.816C94.0795 28.7036 94.1909 28.5351 94.3396 28.3104C94.4882 28.0483 94.6553 27.7862 94.8411 27.524C94.9897 27.2619 95.1383 27.0185 95.2869 26.7938C95.4355 26.5317 95.5656 26.3631 95.677 26.2882H95.6213C95.6213 26.2134 95.6399 26.1385 95.677 26.0636C95.7142 25.9887 95.7513 25.895 95.7885 25.7827C95.7513 25.8202 95.7699 25.8389 95.8442 25.8389H95.9557C96.03 25.6891 96.0671 25.6142 96.0671 25.6142C96.0671 25.6142 96.1414 25.5206 96.29 25.3333C96.3643 25.2959 96.4387 25.2584 96.513 25.221C96.5873 25.1835 96.6244 25.1274 96.6244 25.0525C96.7359 24.9776 96.8102 24.8652 96.8473 24.7154C96.8845 24.5282 96.9588 24.3971 97.0702 24.3222L100.525 19.0421C100.971 18.4804 101.398 17.9 101.807 17.3008C102.216 16.7017 102.625 16.0838 103.033 15.4472C103.219 15.4097 103.312 15.3723 103.312 15.3348C103.349 15.2599 103.405 15.1476 103.479 14.9978C103.442 14.9229 103.423 14.8854 103.423 14.8854V14.8293C103.423 14.305 103.46 13.9118 103.535 13.6497C103.609 13.3501 103.646 12.9943 103.646 12.5824C103.721 12.545 103.776 12.5262 103.813 12.5262C103.888 12.5262 103.962 12.4888 104.036 12.4139C104.148 12.4139 104.222 12.4701 104.259 12.5824C104.296 12.6573 104.352 12.6948 104.426 12.6948C104.426 12.6948 104.426 12.6386 104.426 12.5262C104.575 12.3764 104.686 12.339 104.761 12.4139C104.798 12.4139 104.798 12.3952 104.761 12.3577C104.761 12.3203 104.798 12.3016 104.872 12.3016C104.984 12.4888 105.169 12.5075 105.43 12.3577C105.467 12.4701 105.541 12.5262 105.652 12.5262C105.69 12.5262 105.69 12.5075 105.652 12.4701C105.652 12.3952 105.671 12.339 105.708 12.3016C105.857 12.3764 105.968 12.4139 106.043 12.4139C105.968 12.5637 105.968 12.6948 106.043 12.8071C106.154 12.9194 106.228 13.0318 106.265 13.1441C106.303 13.1816 106.358 13.1816 106.433 13.1441C106.507 13.0692 106.525 12.9943 106.488 12.9194L106.544 12.9756V13.0318C106.618 13.0692 106.656 13.088 106.656 13.088C106.656 13.0505 106.693 13.0318 106.767 13.0318C106.693 13.1816 106.711 13.2752 106.823 13.3126C106.86 13.2377 106.878 13.1254 106.878 12.9756C107.027 13.1254 107.027 13.3501 106.878 13.6497C106.73 13.9118 106.748 14.1178 106.934 14.2676C106.86 14.4548 106.823 14.6233 106.823 14.7731C106.86 14.9229 106.823 15.0914 106.711 15.2786C106.637 15.8029 106.6 16.3646 106.6 16.9638C106.637 17.5255 106.656 18.1059 106.656 18.7051C106.656 18.6677 106.656 18.6677 106.656 18.7051C106.693 18.7051 106.711 18.7425 106.711 18.8174V19.1545H106.656V19.2668C106.73 19.3792 106.748 19.4915 106.711 19.6038C106.674 19.7162 106.656 19.8285 106.656 19.9409C106.581 20.0907 106.6 20.203 106.711 20.2779C106.711 20.4277 106.711 20.5588 106.711 20.6711C106.748 20.746 106.748 20.8396 106.711 20.952V21.4013C106.711 21.4388 106.693 21.4762 106.656 21.5137C106.656 21.5886 106.656 21.6447 106.656 21.6822C106.693 21.7196 106.711 21.7758 106.711 21.8507V22.0192ZM96.4572 36.3991C96.6801 36.5115 96.9031 36.5302 97.126 36.4553C97.3489 36.3804 97.5346 36.3055 97.6833 36.2306C97.7204 36.2306 97.739 36.2119 97.739 36.1744C97.739 36.137 97.7576 36.1183 97.7947 36.1183C98.4635 35.6689 98.965 35.1072 99.2994 34.4331C99.2251 34.3957 99.1879 34.4144 99.1879 34.4893C99.2251 34.5267 99.2251 34.508 99.1879 34.4331C99.5223 34.0586 99.8009 33.6654 100.024 33.2535V33.085C100.172 32.9352 100.284 32.7854 100.358 32.6356C100.47 32.4484 100.6 32.2424 100.748 32.0177C101.008 31.6807 101.213 31.2875 101.361 30.8381C101.51 30.3513 101.714 29.9019 101.974 29.49C101.974 29.3028 102.011 29.153 102.086 29.0406C102.16 28.8909 102.179 28.7411 102.142 28.5913C101.696 28.9283 101.25 29.2841 100.804 29.6585C100.395 30.033 99.9867 30.4449 99.578 30.8943H99.4666C99.4666 30.9692 99.4294 31.0067 99.3551 31.0067C99.3551 31.1564 99.2622 31.2688 99.0765 31.3437C99.0765 31.3811 99.0579 31.3999 99.0207 31.3999C99.0207 31.3999 99.0207 31.4186 99.0207 31.456C98.7607 31.6807 98.5192 31.9616 98.2963 32.2986C98.0734 32.5982 97.8504 32.8978 97.6275 33.1973C97.6275 33.2348 97.5904 33.291 97.5161 33.3659C97.4789 33.4033 97.4603 33.4033 97.4603 33.3659V33.3097C97.2003 33.834 96.9402 34.3395 96.6801 34.8263C96.4572 35.2757 96.3829 35.8 96.4572 36.3991ZM95.4541 31.8492C95.1941 32.2611 94.9526 32.6731 94.7296 33.085C94.4696 33.4969 94.2467 33.9463 94.0609 34.4331C94.0609 34.0212 94.1538 33.7029 94.3396 33.4782C94.5253 33.2535 94.6925 32.9914 94.8411 32.6918C94.9154 32.542 95.0083 32.3922 95.1197 32.2424C95.2312 32.0926 95.3427 31.9616 95.4541 31.8492ZM103.702 13.2003C103.813 13.088 103.869 12.9382 103.869 12.7509C103.758 12.8633 103.702 13.0131 103.702 13.2003ZM106.656 20.2779C106.618 20.6898 106.618 21.0643 106.656 21.4013V20.2779ZM104.036 12.7509C104.036 12.8258 104.018 12.8633 103.981 12.8633C104.055 12.8258 104.111 12.8071 104.148 12.8071C104.222 12.8071 104.259 12.7509 104.259 12.6386C104.222 12.6011 104.185 12.6199 104.148 12.6948C104.148 12.7322 104.111 12.7509 104.036 12.7509ZM107.046 14.2114C107.008 14.1365 107.008 14.0616 107.046 13.9867C107.083 13.8744 107.083 13.7807 107.046 13.7058C107.12 13.7807 107.139 13.8556 107.101 13.9305C107.064 14.0054 107.046 14.099 107.046 14.2114ZM95.677 37.9157C95.677 37.9532 95.6585 37.9532 95.6213 37.9157C95.6213 37.9157 95.6213 37.9345 95.6213 37.9719C95.5842 37.9719 95.5284 37.9345 95.4541 37.8596C95.4913 37.8221 95.5284 37.8034 95.5656 37.8034C95.6399 37.8408 95.677 37.8783 95.677 37.9157ZM98.0734 32.6918C97.9991 32.879 97.8876 33.0475 97.739 33.1973L98.0734 32.6918ZM97.4046 33.8152C97.4789 33.5905 97.5532 33.4407 97.6275 33.3659L97.4046 33.8152ZM103.089 15.391C103.126 15.3161 103.163 15.2599 103.2 15.2225C103.238 15.1476 103.275 15.0727 103.312 14.9978C103.312 15.0727 103.275 15.1476 103.2 15.2225C103.163 15.2974 103.126 15.3535 103.089 15.391ZM98.7978 31.9054C98.7235 32.0552 98.6121 32.1675 98.4635 32.2424L98.7978 31.9054ZM106.488 12.7509C106.414 12.7135 106.377 12.676 106.377 12.6386C106.377 12.6011 106.414 12.5824 106.488 12.5824V12.7509ZM93.7265 29.5462L93.6708 29.6024C93.6708 29.49 93.6894 29.4151 93.7265 29.3777V29.5462ZM98.2963 32.5795C98.222 32.542 98.2591 32.4858 98.4077 32.4109L98.2963 32.5795ZM93.7823 35.5004C93.7823 35.5753 93.7823 35.6127 93.7823 35.6127C93.7823 35.4629 93.7823 35.388 93.7823 35.388V35.5004ZM111.504 24.2661C111.504 24.3035 111.448 24.3222 111.337 24.3222C111.337 24.2848 111.392 24.2661 111.504 24.2661ZM96.9031 34.5455C96.8659 34.5455 96.8473 34.6016 96.8473 34.714C96.7359 34.6016 96.7544 34.5455 96.9031 34.5455ZM103.145 20.5588C103.107 20.5962 103.126 20.6524 103.2 20.7273C103.163 20.6898 103.145 20.6337 103.145 20.5588ZM103.981 12.8633C103.906 12.9382 103.906 12.9756 103.981 12.9756V12.8633ZM95.2869 37.7472C95.2498 37.7847 95.1941 37.766 95.1197 37.6911C95.1569 37.6911 95.1941 37.6911 95.2312 37.6911C95.2312 37.7285 95.2498 37.7472 95.2869 37.7472ZM95.5098 26.4006L95.6213 26.2882C95.5842 26.3257 95.5656 26.3444 95.5656 26.3444C95.5656 26.3819 95.547 26.4006 95.5098 26.4006ZM97.739 33.1973C97.739 33.2348 97.7018 33.291 97.6275 33.3659L97.739 33.1973ZM106.711 19.8847C106.711 19.9221 106.693 19.9409 106.656 19.9409C106.656 19.9409 106.656 19.9596 106.656 19.997V19.9409L106.711 19.8847ZM106.711 20.0532C106.674 20.0532 106.656 20.0345 106.656 19.997L106.711 20.0532Z" transform="translate(91 60)" fill="white"/>
<path d="M117.184 11.1781C116.218 11.3279 115.197 11.459 114.119 11.5713C113.042 11.6837 111.983 11.8522 110.943 12.0769C110.98 12.1518 111.036 12.1892 111.11 12.1892C111.221 12.1518 111.314 12.133 111.389 12.133L114.342 11.6837C114.305 11.6837 114.286 11.7024 114.286 11.7398C114.286 11.7398 114.268 11.7398 114.231 11.7398C114.194 11.7398 114.101 11.7773 113.952 11.8522L111.834 12.133C111.574 12.1705 111.314 12.2079 111.054 12.2454C110.831 12.2828 110.59 12.2828 110.33 12.2454C110.33 12.2454 110.33 12.2079 110.33 12.133C110.293 12.0956 110.237 12.0956 110.162 12.133C110.088 12.1705 110.014 12.1892 109.94 12.1892C110.014 12.1143 110.088 12.0769 110.162 12.0769C110.274 12.0769 110.311 12.002 110.274 11.8522C110.2 11.8522 110.162 11.8709 110.162 11.9084C110.2 11.9458 110.181 11.9645 110.107 11.9645C110.032 11.9645 109.995 11.9458 109.995 11.9084C110.032 11.8335 110.014 11.8147 109.94 11.8522C109.754 11.8896 109.568 11.8896 109.382 11.8522C109.234 11.8147 109.067 11.8335 108.881 11.9084C108.955 11.8335 109.029 11.6649 109.104 11.4028C109.141 11.1407 109.197 10.9909 109.271 10.9534C109.419 10.916 109.549 10.8598 109.661 10.7849C109.772 10.6726 109.865 10.5977 109.94 10.5602C110.237 10.4479 110.534 10.373 110.831 10.3356C111.128 10.2981 111.444 10.2419 111.779 10.167C112.745 9.9798 113.729 9.83001 114.732 9.71767C115.772 9.60532 116.831 9.43681 117.909 9.21212C118.243 8.65041 118.522 8.14486 118.745 7.69549C119.005 7.24612 119.246 6.81547 119.469 6.40355C119.729 5.99162 119.971 5.56098 120.194 5.11161C120.454 4.66223 120.732 4.13797 121.03 3.5388C121.104 3.50135 121.16 3.46391 121.197 3.42646C121.271 3.38901 121.345 3.35156 121.42 3.31412C121.457 3.27667 121.475 3.2205 121.475 3.1456C121.661 3.1456 121.754 3.08943 121.754 2.97709C121.791 2.8273 121.903 2.77113 122.088 2.80857C122.237 2.92092 122.441 3.03326 122.701 3.1456C122.961 3.2205 123.184 3.25795 123.37 3.25795C123.444 3.44519 123.556 3.55753 123.704 3.59497C123.89 3.63242 124.039 3.70732 124.15 3.81966L124.54 4.3252C124.689 4.54989 124.763 4.75585 124.763 4.94309C124.689 5.01798 124.633 5.13033 124.596 5.28012C124.596 5.39246 124.54 5.48608 124.429 5.56097C124.169 6.23503 123.853 6.89037 123.482 7.52698C123.11 8.12614 122.757 8.76275 122.423 9.43681L125.711 9.21212C126.825 9.13723 127.847 9.08105 128.776 9.04361C129.705 9.00616 130.782 9.04361 132.008 9.15595C132.194 9.1934 132.361 9.21212 132.51 9.21212C132.658 9.21212 132.77 9.26829 132.844 9.38064C132.77 9.41808 132.788 9.47426 132.9 9.54915C133.011 9.5866 133.03 9.62405 132.955 9.66149C132.918 9.73639 132.825 9.83001 132.677 9.94235C132.565 10.0547 132.528 10.1109 132.565 10.1109C132.528 10.1858 132.435 10.2232 132.287 10.2232C132.175 10.1858 132.119 10.2045 132.119 10.2794C132.045 10.2419 131.989 10.2607 131.952 10.3356C131.952 10.373 131.915 10.3543 131.841 10.2794C131.544 10.4292 131.228 10.5041 130.893 10.5041C130.596 10.4666 130.28 10.4853 129.946 10.5602C129.092 10.6351 128.386 10.71 127.828 10.7849C127.271 10.8224 126.584 10.8973 125.766 11.0096C125.544 11.0096 125.302 11.0096 125.042 11.0096C124.819 11.0096 124.615 11.0471 124.429 11.122C124.355 11.122 124.299 11.122 124.262 11.122C124.262 11.0845 124.225 11.0845 124.15 11.122C124.076 11.122 124.02 11.1407 123.983 11.1781C123.946 11.2156 123.89 11.2343 123.816 11.2343C123.742 11.2717 123.667 11.2905 123.593 11.2905C123.519 11.253 123.444 11.253 123.37 11.2905H123.036C122.924 11.2905 122.794 11.3092 122.646 11.3466C122.534 11.3841 122.441 11.4215 122.367 11.459C122.441 11.459 122.516 11.4777 122.59 11.5152C122.701 11.5152 122.776 11.4964 122.813 11.459C122.776 11.6088 122.609 11.7024 122.311 11.7398C122.014 11.7398 121.754 11.7586 121.531 11.796C120.825 13.2939 120.156 14.6233 119.525 15.7842C118.893 16.9451 118.28 18.0872 117.686 19.2106C117.129 20.3341 116.553 21.5137 115.958 22.7494C115.364 23.9478 114.751 25.3333 114.119 26.9061C114.045 27.0185 113.971 27.1121 113.896 27.187C113.859 27.2619 113.859 27.3555 113.896 27.4678L113.785 27.6925C113.413 28.7036 113.023 29.6024 112.615 30.3888C112.243 31.1377 111.983 32.1114 111.834 33.3097C111.834 33.3471 111.834 33.3471 111.834 33.3097C111.872 33.2722 111.89 33.2722 111.89 33.3097C111.89 33.3471 111.872 33.3659 111.834 33.3659C111.834 33.3659 111.834 33.3846 111.834 33.422C112.02 33.3471 112.299 33.2161 112.67 33.0288C113.042 32.8416 113.302 32.6731 113.45 32.5233C113.413 32.5233 113.395 32.5233 113.395 32.5233C113.395 32.4858 113.376 32.4671 113.339 32.4671C113.599 32.3922 113.785 32.2799 113.896 32.1301C114.045 31.9803 114.212 31.8305 114.398 31.6807C114.361 31.7556 114.324 31.8305 114.286 31.9054C114.249 31.9428 114.212 31.999 114.175 32.0739L114.231 32.0177C114.194 32.0926 114.175 32.1675 114.175 32.2424C114.249 32.1301 114.324 32.0365 114.398 31.9616C114.509 31.8867 114.584 31.7743 114.621 31.6245L114.788 31.3437C115.308 30.8569 115.754 30.4262 116.125 30.0517C116.534 29.6773 116.999 29.2279 117.519 28.7036C117.11 29.2653 116.664 29.7334 116.181 30.1079C115.735 30.4449 115.308 30.8756 114.899 31.3999C115.42 31.0254 115.884 30.6509 116.293 30.2764C116.701 29.9019 117.129 29.4526 117.574 28.9283C117.649 28.816 117.816 28.6287 118.076 28.3666C118.373 28.1045 118.689 27.8236 119.023 27.524C119.358 27.187 119.655 26.8874 119.915 26.6253C120.212 26.3257 120.398 26.1197 120.472 26.0074V26.1197C121.104 25.4457 121.717 24.7154 122.311 23.929C122.943 23.1052 123.63 22.3562 124.373 21.6822C124.299 21.8694 124.206 22.0192 124.095 22.1316L122.98 23.3112C122.794 23.5358 122.627 23.7605 122.478 23.9852C122.367 24.2099 122.218 24.4159 122.033 24.6031C121.847 24.8278 121.661 25.0712 121.475 25.3333C121.327 25.5955 121.178 25.8389 121.03 26.0636C121.141 25.9887 121.215 25.895 121.252 25.7827C121.327 25.6704 121.401 25.5767 121.475 25.5018C121.773 25.2023 122.033 24.9027 122.256 24.6031C122.516 24.2661 122.794 23.9665 123.091 23.7044C123.426 23.2924 123.76 22.8992 124.095 22.5248C124.429 22.1128 124.782 21.7571 125.153 21.4575C125.228 21.5698 125.209 21.6635 125.098 21.7384C125.023 21.8133 124.949 21.8881 124.875 21.963C124.466 22.5622 124.02 23.1426 123.537 23.7044C123.091 24.2661 122.627 24.8278 122.144 25.3895C122.107 25.4644 122.163 25.427 122.311 25.2772C122.46 25.1274 122.609 24.9589 122.757 24.7716C122.943 24.5844 123.11 24.4159 123.259 24.2661C123.407 24.1163 123.463 24.0788 123.426 24.1537C123.463 24.1537 123.482 24.1537 123.482 24.1537C123.482 24.1163 123.5 24.0976 123.537 24.0976C123.463 24.1725 123.426 24.2474 123.426 24.3222C123.426 24.3597 123.407 24.4159 123.37 24.4908C123.407 24.5657 123.444 24.6031 123.482 24.6031C123.556 24.5657 123.612 24.5657 123.649 24.6031C123.983 24.2661 124.225 24.0227 124.373 23.8729C124.522 23.7231 124.67 23.6107 124.819 23.5358C124.968 23.4235 125.116 23.3112 125.265 23.1988C125.414 23.049 125.655 22.8056 125.989 22.4686C125.915 22.6184 125.822 22.7494 125.711 22.8618C125.599 22.9367 125.506 23.049 125.432 23.1988C125.544 23.1239 125.655 23.0116 125.766 22.8618C125.915 22.712 126.064 22.5997 126.212 22.5248C125.729 23.1614 125.191 23.7793 124.596 24.3784C124.039 24.9776 123.537 25.6142 123.091 26.2882C123.277 26.2134 123.426 26.0823 123.537 25.895C123.649 25.7078 123.779 25.5393 123.927 25.3895C123.63 25.9512 123.333 26.4193 123.036 26.7938C122.739 27.1683 122.404 27.6176 122.033 28.1419C122.107 28.1419 122.07 28.2543 121.921 28.4789C121.773 28.6662 121.735 28.7598 121.81 28.7598C121.773 28.8347 121.661 28.9283 121.475 29.0406C121.327 29.2653 121.067 29.5649 120.695 29.9394C120.361 30.3139 119.989 30.7071 119.581 31.119C119.172 31.5309 118.782 31.9241 118.41 32.2986C118.039 32.6731 117.779 32.9727 117.63 33.1973C117.593 33.2348 117.574 33.2722 117.574 33.3097C117.612 33.3097 117.612 33.3284 117.574 33.3659C117.017 33.8901 116.423 34.4518 115.791 35.051C115.159 35.6127 114.509 36.1183 113.841 36.5676C113.766 36.6425 113.655 36.6987 113.506 36.7361C113.395 36.7736 113.283 36.8298 113.172 36.9047C113.06 36.9421 112.949 36.9796 112.837 37.017C112.726 37.0544 112.596 37.0919 112.447 37.1293C112.224 37.2042 111.89 37.2042 111.444 37.1293C110.998 37.0919 110.701 37.017 110.553 36.9047C110.144 37.0544 109.81 37.017 109.549 36.7923C109.327 36.6051 109.141 36.3991 108.992 36.1744C108.992 36.1744 108.992 36.1183 108.992 36.0059C108.695 35.7812 108.602 35.3693 108.714 34.7701C108.714 34.7327 108.714 34.7327 108.714 34.7701C108.676 34.8076 108.639 34.8076 108.602 34.7701C108.453 34.5829 108.342 34.3957 108.268 34.2084C108.156 33.9837 108.119 33.7216 108.156 33.422C108.082 32.8603 108.101 32.2611 108.212 31.6245C108.323 30.8756 108.546 30.1079 108.881 29.3215C109.067 28.5726 109.271 27.861 109.494 27.187C109.865 26.1759 110.218 25.2584 110.553 24.4346C110.887 23.5733 111.221 22.7682 111.556 22.0192C111.89 21.2328 112.243 20.4651 112.615 19.7162C113.023 18.9298 113.45 18.1059 113.896 17.2446V17.0761C113.971 16.8889 114.008 16.814 114.008 16.8514C114.008 16.8514 114.008 16.8702 114.008 16.9076C114.008 16.9451 114.008 16.9825 114.008 17.02C114.008 17.02 114.045 16.9263 114.119 16.7391C114.268 16.5144 114.472 16.1587 114.732 15.6718C115.029 15.185 115.327 14.6795 115.624 14.1552C115.921 13.5935 116.2 13.0692 116.46 12.5824C116.72 12.0956 116.924 11.7398 117.073 11.5152C116.85 11.5526 116.627 11.5713 116.404 11.5713C116.181 11.5339 115.958 11.5339 115.735 11.5713L116.794 11.4028C116.868 11.3279 116.943 11.3092 117.017 11.3466C117.091 11.3841 117.166 11.3654 117.24 11.2905V11.2343C117.24 11.2343 117.221 11.2156 117.184 11.1781ZM124.373 6.06652C124.448 5.91673 124.485 5.86056 124.485 5.89801C124.448 5.86056 124.429 5.86056 124.429 5.89801C124.429 5.93545 124.41 5.95418 124.373 5.95418C124.448 5.80439 124.503 5.72949 124.54 5.72949C124.54 5.91673 124.485 6.02907 124.373 6.06652ZM122.869 27.4117C122.683 27.7113 122.478 27.9734 122.256 28.1981C122.33 28.0857 122.423 27.9734 122.534 27.8611C122.683 27.7113 122.794 27.5615 122.869 27.4117ZM121.475 24.9401C121.401 25.015 121.345 25.0712 121.308 25.1086C121.308 25.1461 121.271 25.1835 121.197 25.221C121.271 25.0338 121.364 24.9401 121.475 24.9401ZM120.584 29.827C120.732 29.827 120.807 29.7709 120.807 29.6585C120.658 29.6585 120.584 29.7147 120.584 29.827ZM124.652 11.2343C124.615 11.3466 124.559 11.3841 124.485 11.3466C124.485 11.2717 124.54 11.2343 124.652 11.2343ZM124.318 11.3466C124.318 11.3841 124.243 11.4028 124.095 11.4028C124.095 11.3279 124.113 11.3092 124.15 11.3466C124.225 11.3466 124.28 11.3466 124.318 11.3466ZM120.918 25.5018C120.955 25.5767 120.937 25.6329 120.862 25.6704C120.788 25.7078 120.732 25.764 120.695 25.8389C120.695 25.764 120.714 25.7078 120.751 25.6704C120.825 25.6329 120.881 25.5767 120.918 25.5018ZM115.234 11.5713C115.197 11.6088 115.159 11.6275 115.122 11.6275H115.067C115.104 11.6275 115.122 11.6275 115.122 11.6275C115.122 11.59 115.141 11.5713 115.178 11.5713H115.234ZM123.314 26.85C123.314 26.8874 123.296 26.9249 123.259 26.9623C123.222 26.9998 123.203 27.0372 123.203 27.0747C123.203 26.9998 123.203 26.9623 123.203 26.9623C123.24 26.9623 123.277 26.9249 123.314 26.85ZM114.621 31.6245H114.565C114.565 31.6245 114.584 31.6058 114.621 31.5684V31.6245Z" transform="translate(91 60)" fill="white"/>
<defs>
<filter id="filter0_d" x="0" y="0" width="310" height="160" filterUnits="userSpaceOnUse" color-interpolation-filters="sRGB">
<feFlood flood-opacity="0" result="BackgroundImageFix"/>
<feColorMatrix in="SourceAlpha" type="matrix" values="0 0 0 0 0 0 0 0 0 0 0 0 0 0 0 0 0 0 255 0"/>
<feOffset/>
<feGaussianBlur stdDeviation="10"/>
<feColorMatrix type="matrix" values="0 0 0 0 0.203922 0 0 0 0 0.192157 0 0 0 0 0.294118 0 0 0 0.1 0"/>
<feBlend mode="normal" in2="BackgroundImageFix" result="effect1_dropShadow"/>
<feBlend mode="normal" in="SourceGraphic" in2="effect1_dropShadow" result="shape"/>
</filter>
</defs>
</svg>
