<svg width="310" height="160" viewBox="0 0 310 160" fill="none" xmlns="http://www.w3.org/2000/svg">
<g filter="url(#filter0_d)">
<rect width="270" height="120" rx="4" transform="translate(20 20)" fill="white"/>
</g>
<path d="M0 10C0 4.47715 4.47715 0 10 0H170C175.523 0 180 4.47715 180 10V40C180 45.5228 175.523 50 170 50H10C4.47715 50 0 45.5228 0 40V10Z" transform="translate(53 55)" fill="url(#paint0_linear)"/>
<path d="M204 10C204 15.5228 199.523 20 194 20C188.477 20 184 15.5228 184 10C184 4.47715 188.477 0 194 0C199.523 0 204 4.47715 204 10Z" transform="translate(53 55)" fill="url(#paint1_linear)"/>
<path d="M5.236 20.944H7.99C10.574 20.944 11.866 20.06 11.866 18.292C11.866 16.524 10.5853 15.64 8.024 15.64H5.236V20.944ZM5.236 6.392V11.526H7.174C8.534 11.526 9.554 11.2767 10.234 10.778C10.9367 10.2793 11.288 9.622 11.288 8.806C11.288 7.19667 10.2 6.392 8.024 6.392H5.236ZM0 2.21H8.908C11.424 2.21 13.3393 2.81067 14.654 4.012C15.9687 5.19067 16.626 6.698 16.626 8.534C16.626 9.73533 16.3087 10.7893 15.674 11.696C15.0393 12.6027 14.212 13.2147 13.192 13.532C15.844 14.3253 17.17 16.116 17.17 18.904C17.17 20.7173 16.5127 22.2133 15.198 23.392C13.906 24.548 12.138 25.126 9.894 25.126H0V2.21Z" transform="translate(74 64)" fill="white"/>
<path d="M20.5859 25.126V7.888H25.5499V25.126H20.5859ZM21.0279 4.93C20.4613 4.36333 20.1779 3.68333 20.1779 2.89C20.1779 2.09667 20.4613 1.41667 21.0279 0.850001C21.5946 0.283334 22.2746 0 23.0679 0C23.8613 0 24.5413 0.283334 25.1079 0.850001C25.6746 1.41667 25.9579 2.09667 25.9579 2.89C25.9579 3.68333 25.6746 4.36333 25.1079 4.93C24.5413 5.49667 23.8613 5.78 23.0679 5.78C22.2746 5.78 21.5946 5.49667 21.0279 4.93Z" transform="translate(74 64)" fill="white"/>
<path d="M34.7764 7.888V10.812C35.2071 9.86 35.8644 9.112 36.7484 8.568C37.6551 8.00133 38.7318 7.718 39.9784 7.718C41.7464 7.718 43.1291 8.25067 44.1264 9.316C45.1238 10.3587 45.6224 11.9 45.6224 13.94V25.126H40.6584V14.858C40.6584 13.838 40.4204 13.0673 39.9444 12.546C39.4684 12.002 38.7998 11.73 37.9384 11.73C37.0318 11.73 36.2724 12.0927 35.6604 12.818C35.0711 13.5207 34.7764 14.586 34.7764 16.014V25.126H29.8124V7.888H34.7764Z" transform="translate(74 64)" fill="white"/>
<path d="M57.4571 21.182C58.5904 21.182 59.5084 20.74 60.2111 19.856C60.9137 18.972 61.2651 17.7933 61.2651 16.32C61.2651 14.892 60.8797 13.7813 60.1091 12.988C59.3611 12.1947 58.4657 11.798 57.4231 11.798C56.3804 11.798 55.4964 12.2173 54.7711 13.056C54.0684 13.8947 53.7171 15.062 53.7171 16.558C53.7171 17.9407 54.0797 19.0627 54.8051 19.924C55.5304 20.7627 56.4144 21.182 57.4571 21.182ZM61.2651 1.088H66.2291V25.126H61.2651V22.44C60.1091 24.3667 58.3864 25.33 56.0971 25.33C53.8531 25.33 52.0511 24.4573 50.6911 22.712C49.3537 20.9667 48.6851 18.8813 48.6851 16.456C48.6851 13.736 49.3877 11.594 50.7931 10.03C52.1984 8.466 53.9777 7.684 56.1311 7.684C58.3751 7.684 60.0864 8.636 61.2651 10.54V1.088Z" transform="translate(74 64)" fill="white"/>
<path d="M77.9362 25.398C75.2389 25.398 73.1536 24.5933 71.6802 22.984C70.2069 21.352 69.4702 19.2667 69.4702 16.728C69.4702 14.076 70.2409 11.9 71.7822 10.2C73.3236 8.47733 75.3749 7.616 77.9362 7.616C80.6109 7.616 82.6849 8.44333 84.1582 10.098C85.6316 11.7527 86.3682 13.8607 86.3682 16.422C86.3682 19.0287 85.6202 21.182 84.1242 22.882C82.6509 24.5593 80.5882 25.398 77.9362 25.398ZM77.9022 11.526C76.8142 11.526 75.9982 11.9907 75.4542 12.92C74.9102 13.8493 74.6382 15.0507 74.6382 16.524C74.6382 17.9973 74.9102 19.21 75.4542 20.162C76.0209 21.0913 76.8596 21.556 77.9702 21.556C79.0582 21.556 79.8629 21.1027 80.3842 20.196C80.9282 19.2667 81.2002 18.0653 81.2002 16.592C81.2002 13.2147 80.1009 11.526 77.9022 11.526Z" transform="translate(74 64)" fill="white"/>
<path d="M94.5752 7.888V10.812C95.0059 9.86 95.6632 9.112 96.5472 8.568C97.4539 8.00133 98.5306 7.718 99.7773 7.718C101.545 7.718 102.928 8.25067 103.925 9.316C104.923 10.3587 105.421 11.9 105.421 13.94V25.126H100.457V14.858C100.457 13.838 100.219 13.0673 99.7432 12.546C99.2672 12.002 98.5986 11.73 97.7373 11.73C96.8306 11.73 96.0713 12.0927 95.4593 12.818C94.8699 13.5207 94.5752 14.586 94.5752 16.014V25.126H89.6113V7.888H94.5752Z" transform="translate(74 64)" fill="white"/>
<path d="M119.296 14.926V14.518C119.137 12.5007 118.253 11.492 116.644 11.492C115.851 11.492 115.148 11.7867 114.536 12.376C113.924 12.9427 113.516 13.7927 113.312 14.926H119.296ZM122.866 19.992V24.14C121.687 24.9107 119.885 25.296 117.46 25.296C114.627 25.296 112.417 24.48 110.83 22.848C109.266 21.1933 108.484 19.074 108.484 16.49C108.484 13.7473 109.243 11.6053 110.762 10.064C112.303 8.5 114.196 7.718 116.44 7.718C118.752 7.718 120.577 8.398 121.914 9.758C123.251 11.0953 123.92 13.1013 123.92 15.776C123.92 16.2973 123.829 17.1927 123.648 18.462H113.516C113.856 19.414 114.445 20.1507 115.284 20.672C116.123 21.1933 117.131 21.454 118.31 21.454C120.055 21.454 121.574 20.9667 122.866 19.992Z" transform="translate(74 64)" fill="white"/>
<path d="M135.079 25.398C132.381 25.398 130.296 24.5933 128.823 22.984C127.349 21.352 126.613 19.2667 126.613 16.728C126.613 14.076 127.383 11.9 128.925 10.2C130.466 8.47733 132.517 7.616 135.079 7.616C137.753 7.616 139.827 8.44333 141.301 10.098C142.774 11.7527 143.511 13.8607 143.511 16.422C143.511 19.0287 142.763 21.182 141.267 22.882C139.793 24.5593 137.731 25.398 135.079 25.398ZM135.045 11.526C133.957 11.526 133.141 11.9907 132.597 12.92C132.053 13.8493 131.781 15.0507 131.781 16.524C131.781 17.9973 132.053 19.21 132.597 20.162C133.163 21.0913 134.002 21.556 135.113 21.556C136.201 21.556 137.005 21.1027 137.527 20.196C138.071 19.2667 138.343 18.0653 138.343 16.592C138.343 13.2147 137.243 11.526 135.045 11.526Z" transform="translate(74 64)" fill="white"/>
<defs>
<filter id="filter0_d" x="0" y="0" width="310" height="160" filterUnits="userSpaceOnUse" color-interpolation-filters="sRGB">
<feFlood flood-opacity="0" result="BackgroundImageFix"/>
<feColorMatrix in="SourceAlpha" type="matrix" values="0 0 0 0 0 0 0 0 0 0 0 0 0 0 0 0 0 0 255 0"/>
<feOffset/>
<feGaussianBlur stdDeviation="10"/>
<feColorMatrix type="matrix" values="0 0 0 0 0.203922 0 0 0 0 0.192157 0 0 0 0 0.294118 0 0 0 0.1 0"/>
<feBlend mode="normal" in2="BackgroundImageFix" result="effect1_dropShadow"/>
<feBlend mode="normal" in="SourceGraphic" in2="effect1_dropShadow" result="shape"/>
</filter>
<linearGradient id="paint0_linear" x2="1" gradientUnits="userSpaceOnUse" gradientTransform="translate(0 25) scale(204 50)">
<stop stop-color="#64ECF5"/>
<stop offset="1" stop-color="#1CEBBC"/>
</linearGradient>
<linearGradient id="paint1_linear" x2="1" gradientUnits="userSpaceOnUse" gradientTransform="translate(0 25) scale(204 50)">
<stop stop-color="#64ECF5"/>
<stop offset="1" stop-color="#1CEBBC"/>
</linearGradient>
</defs>
</svg>
