<svg width="160" height="44" viewBox="0 0 160 44" fill="none" xmlns="http://www.w3.org/2000/svg">
<path fill-rule="evenodd" clip-rule="evenodd" d="M-2.0287e-05 4.59199L1.66189 2.95198C5.65048 -0.984046 11.9658 -0.984046 15.622 2.95198L18.9458 6.232C20.9401 8.20001 21.6048 10.496 21.6048 13.1201V28.8642C21.2724 26.5682 20.2753 24.6001 18.6134 22.9601C-0.997147 3.608 19.9429 24.2721 -2.0287e-05 4.59199Z" transform="translate(21.9376)" fill="#1CEBBC"/>
<path fill-rule="evenodd" clip-rule="evenodd" d="M24.5963 0L26.2582 1.64001C30.2468 5.57603 30.2468 11.8081 26.2582 15.4161L22.9344 18.6962C20.9401 20.6642 18.6134 21.3201 15.9543 21.3201H4.0574e-05C2.32672 20.9921 4.32097 20.0081 5.98288 18.3681C25.5934 -0.983986 4.65337 19.6801 24.5963 0Z" transform="translate(14.6252 21.6465)" fill="#5F45EA"/>
<path fill-rule="evenodd" clip-rule="evenodd" d="M21.6048 24.2722L19.9429 25.9122C15.9543 29.8482 9.63912 29.8482 5.98292 25.9122L2.6591 22.6322C0.664805 20.6642 -2.0287e-05 18.3681 -2.0287e-05 15.7441V-4.00393e-05C0.332362 2.29597 1.32949 4.26405 2.9914 5.90406C22.6019 25.2562 1.66189 4.59207 21.6048 24.2722Z" transform="translate(0.332764 14.4297)" fill="#8667F7"/>
<path fill-rule="evenodd" clip-rule="evenodd" d="M4.65339 21.3201L2.99148 19.6801C-0.997106 15.7441 -0.997106 9.51202 2.99148 5.904L6.3153 2.62398C8.30959 0.655964 10.6362 0 13.2952 0H29.2496C26.923 0.328002 24.9286 1.31199 23.2667 2.952C3.65616 22.3041 24.5963 1.64001 4.65339 21.3201Z" transform="translate(0 0.327148)" fill="#64ECF5"/>
<path d="M4.68417 13.2262H12.7806L12.3153 11.9097L8.77894 1.59204C8.51009 2.40847 7.30027 5.85789 5.14948 11.9403L4.68417 13.2262ZM15.3244 20.6353L13.339 14.9101H4.09477L2.07841 20.6353H0L7.383 0H10.1749L17.4028 20.6353H15.3244Z" transform="translate(55.1951 10.5479)" fill="black"/>
<path d="M22.8227 5.1129V7.74589C23.6913 5.8681 25.1596 4.9292 27.2277 4.9292C27.3725 4.9292 27.631 4.94961 28.0032 4.99044V6.88864C27.5896 6.76617 27.176 6.70494 26.7624 6.70494C25.6456 6.70494 24.7047 7.25603 23.9395 8.35821C23.195 9.43998 22.8227 10.6442 22.8227 11.9709V20.6353H20.9304V5.1129H22.8227Z" transform="translate(55.1951 10.5479)" fill="black"/>
<path d="M33.6011 6.70494V16.349C33.6011 18.1248 34.4386 19.0126 36.1138 19.0126C36.941 19.0126 37.6441 18.7779 38.2232 18.3085V20.2067C37.6235 20.5945 36.9306 20.7884 36.1448 20.7884C33.1668 20.7884 31.6778 19.278 31.6778 16.2572V6.70494H29.103V5.1129H31.6778V1.22465H33.6011V5.1129H38.0991V6.70494H33.6011Z" transform="translate(55.1951 10.5479)" fill="black"/>
<path d="M45.366 20.6353L40.5578 5.1129H42.6362L44.1872 10.2564C44.7663 12.175 45.2523 13.8487 45.6452 15.2775C46.0588 16.6858 46.3277 17.6145 46.4518 18.0635L46.6069 18.7677C46.9791 17.441 47.8063 14.5937 49.0885 10.2258L50.5775 5.1129H52.8111L54.3621 10.2258L56.9058 18.8289C57.2367 17.6247 58.1156 14.757 59.5426 10.2258L61.1557 5.1129H63.141L58.1777 20.6353H55.634L54.1139 15.553L51.6943 7.28665C51.3427 8.57253 50.5672 11.328 49.3677 15.553L47.9097 20.6353H45.366Z" transform="translate(55.1951 10.5479)" fill="black"/>
<path d="M72.6982 20.9108C70.4853 20.9108 68.7275 20.1556 67.4246 18.6452C66.1217 17.1348 65.4703 15.2366 65.4703 12.9506C65.4703 10.685 66.1424 8.77663 67.4866 7.22542C68.8309 5.6742 70.5681 4.89859 72.6982 4.89859C75.0351 4.89859 76.8447 5.66399 78.1268 7.1948C79.4297 8.7052 80.0812 10.6238 80.0812 12.9506C80.0812 15.2571 79.4194 17.1655 78.0958 18.6759C76.7929 20.1658 74.9937 20.9108 72.6982 20.9108ZM72.6982 6.67432C71.0644 6.67432 69.7822 7.28665 68.8516 8.51129C67.9209 9.73594 67.4556 11.2157 67.4556 12.9506C67.4556 14.6447 67.9313 16.1041 68.8826 17.3287C69.8546 18.533 71.1264 19.1351 72.6982 19.1351C74.4147 19.1351 75.7382 18.5432 76.6689 17.3594C77.6202 16.1551 78.0958 14.6856 78.0958 12.9506C78.0958 11.1545 77.6512 9.6645 76.7619 8.48068C75.8727 7.27644 74.5181 6.67432 72.6982 6.67432Z" transform="translate(55.1951 10.5479)" fill="black"/>
<path d="M85.7129 5.1129V7.74589C86.5815 5.8681 88.0499 4.9292 90.1179 4.9292C90.2627 4.9292 90.5212 4.94961 90.8934 4.99044V6.88864C90.4798 6.76617 90.0662 6.70494 89.6526 6.70494C88.5358 6.70494 87.5949 7.25603 86.8297 8.35821C86.0852 9.43998 85.7129 10.6442 85.7129 11.9709V20.6353H83.8207V5.1129H85.7129Z" transform="translate(55.1951 10.5479)" fill="black"/>
<path d="M99.5313 12.6751L104.805 20.6353H102.54L98.4146 14.1141L94.1957 20.6353H92.0553L97.2358 12.6445L92.3655 5.08228H94.599L98.4456 11.2055L102.261 5.08228H104.464L99.5313 12.6751Z" transform="translate(55.1951 10.5479)" fill="black"/>
</svg>
