<svg width="180" height="49" viewBox="0 0 180 49" fill="none" xmlns="http://www.w3.org/2000/svg">
<path fill-rule="evenodd" clip-rule="evenodd" d="M-2.28229e-05 5.19718L1.86963 3.34103C6.35678 -1.11374 13.4615 -1.11374 17.5747 3.34103L21.314 7.05333C23.5576 9.28072 24.3054 11.8794 24.3054 14.8492V32.6683C23.9315 30.0697 22.8097 27.8423 20.9401 25.9861C-1.12179 4.08351 22.4358 27.471 -2.28229e-05 5.19718Z" transform="translate(24.6798)" fill="#1CEBBC"/>
<path fill-rule="evenodd" clip-rule="evenodd" d="M27.6708 0L29.5405 1.85615C34.0276 6.31092 34.0276 13.3643 29.5405 17.4479L25.8012 21.1602C23.5576 23.3876 20.9401 24.13 17.9486 24.13H4.56457e-05C2.61755 23.7588 4.86109 22.6451 6.73074 20.7889C28.7926 -1.11367 5.23504 22.2738 27.6708 0Z" transform="translate(16.4534 24.499)" fill="#5F45EA"/>
<path fill-rule="evenodd" clip-rule="evenodd" d="M24.3054 27.4711L22.4358 29.3273C17.9486 33.782 10.844 33.782 6.73078 29.3273L2.99148 25.6149C0.747905 23.3876 -2.28229e-05 20.7889 -2.28229e-05 17.8191V-4.53162e-05C0.373907 2.59857 1.49567 4.82602 3.36532 6.68217C25.4272 28.5848 1.86963 5.19727 24.3054 27.4711Z" transform="translate(0.374268 16.332)" fill="#8667F7"/>
<path fill-rule="evenodd" clip-rule="evenodd" d="M5.23506 24.13L3.36541 22.2738C-1.12174 17.8191 -1.12174 10.7656 3.36541 6.6821L7.10471 2.9698C9.34829 0.742416 11.9657 0 14.9571 0H32.9058C30.2883 0.37123 28.0447 1.4849 26.175 3.34105C4.11318 25.2437 27.6709 1.85615 5.23506 24.13Z" transform="translate(0 0.370117)" fill="#64ECF5"/>
<path d="M5.26969 14.9693H14.3782L13.8547 13.4793L9.87631 1.80186C9.57385 2.72589 8.21281 6.62992 5.79317 13.514L5.26969 14.9693ZM17.2399 23.3549L15.0064 16.8751H4.60662L2.33821 23.3549H0L8.30587 0H11.4467L19.5781 23.3549H17.2399Z" transform="translate(62.0945 11.9375)" fill="black"/>
<path d="M25.6756 5.78674V8.76675C26.6527 6.64147 28.3046 5.57884 30.6312 5.57884C30.794 5.57884 31.0848 5.60194 31.5036 5.64814V7.79651C31.0383 7.65791 30.573 7.58861 30.1077 7.58861C28.8513 7.58861 27.7927 8.21233 26.9319 9.45977C26.0943 10.6841 25.6756 12.0471 25.6756 13.5486V23.3549H23.5467V5.78674H25.6756Z" transform="translate(62.0945 11.9375)" fill="black"/>
<path d="M37.8012 7.58861V18.5037C37.8012 20.5135 38.7435 21.5184 40.628 21.5184C41.5586 21.5184 42.3496 21.2527 43.0011 20.7214V22.8698C42.3264 23.3087 41.547 23.5281 40.6629 23.5281C37.3126 23.5281 35.6375 21.8187 35.6375 18.3998V7.58861H32.7409V5.78674H35.6375V1.38605H37.8012V5.78674H42.8615V7.58861H37.8012Z" transform="translate(62.0945 11.9375)" fill="black"/>
<path d="M51.0368 23.3549L45.6275 5.78674H47.9657L49.7106 11.6081C50.3621 13.7796 50.9088 15.6739 51.3508 17.2909C51.8162 18.8849 52.1186 19.936 52.2582 20.4442L52.4327 21.2412C52.8515 19.7396 53.7821 16.5171 55.2246 11.5735L56.8997 5.78674H59.4124L61.1574 11.5735L64.019 21.3105C64.3913 19.9475 65.3801 16.7019 66.9854 11.5735L68.8002 5.78674H71.0337L65.4499 23.3549H62.5882L60.8782 17.6028L58.1561 8.24698C57.7606 9.70233 56.8881 12.8209 55.5387 17.6028L53.8984 23.3549H51.0368Z" transform="translate(62.0945 11.9375)" fill="black"/>
<path d="M81.7854 23.6667C79.296 23.6667 77.3184 22.812 75.8527 21.1026C74.3869 19.3931 73.6541 17.2447 73.6541 14.6574C73.6541 12.0933 74.4102 9.93334 75.9225 8.17768C77.4347 6.42202 79.3891 5.54419 81.7854 5.54419C84.4145 5.54419 86.4502 6.41047 87.8927 8.14302C89.3584 9.85248 90.0913 12.024 90.0913 14.6574C90.0913 17.2678 89.3468 19.4278 87.8578 21.1372C86.3921 22.8236 84.3679 23.6667 81.7854 23.6667ZM81.7854 7.55396C79.9474 7.55396 78.505 8.24698 77.458 9.63303C76.411 11.0191 75.8876 12.6939 75.8876 14.6574C75.8876 16.5748 76.4227 18.2265 77.4929 19.6126C78.5864 20.9755 80.0172 21.657 81.7854 21.657C83.7165 21.657 85.2055 20.9871 86.2524 19.6472C87.3227 18.2843 87.8578 16.621 87.8578 14.6574C87.8578 12.6246 87.3576 10.9382 86.3571 9.59837C85.3567 8.23543 83.8328 7.55396 81.7854 7.55396Z" transform="translate(62.0945 11.9375)" fill="black"/>
<path d="M96.427 5.78674V8.76675C97.4042 6.64147 99.0561 5.57884 101.383 5.57884C101.546 5.57884 101.836 5.60194 102.255 5.64814V7.79651C101.79 7.65791 101.324 7.58861 100.859 7.58861C99.6028 7.58861 98.5442 8.21233 97.6834 9.45977C96.8458 10.6841 96.427 12.0471 96.427 13.5486V23.3549H94.2982V5.78674H96.427Z" transform="translate(62.0945 11.9375)" fill="black"/>
<path d="M111.973 14.3456L117.905 23.3549H115.358L110.716 15.9742L105.97 23.3549H103.562L109.39 14.3109L103.911 5.75209H106.424L110.751 12.6823L115.044 5.75209H117.522L111.973 14.3456Z" transform="translate(62.0945 11.9375)" fill="black"/>
</svg>
