<svg width="160" height="40" viewBox="0 0 160 40" fill="none" xmlns="http://www.w3.org/2000/svg">
<path fill-rule="evenodd" clip-rule="evenodd" d="M16.6985 32.0067C14.5732 31.397 12.4479 30.1777 10.9299 28.6536C8.8046 26.5198 7.28662 23.1667 7.28662 19.8137C7.28662 16.4606 8.8046 13.1075 10.9299 10.9737C13.0551 8.83997 16.3949 7.3158 19.7346 7.3158C23.9851 7.3158 28.2356 9.14477 30.968 12.193C33.7005 15.2413 35.5222 19.2039 35.5222 23.4715C35.5222 27.739 33.7005 32.0066 30.968 34.7501C28.2356 37.7983 23.9851 39.3225 19.7346 39.6273C14.2696 39.6273 9.41188 37.4935 5.76858 33.8356C2.12528 30.1777 3.70616e-05 25.3005 3.70616e-05 19.8137C3.70616e-05 14.3268 2.12528 9.44958 5.76858 5.79168C9.41188 2.13378 14.2696 1.8605e-05 19.7346 1.8605e-05C26.414 1.8605e-05 32.1825 2.74341 36.433 7.01096C44.9341 15.5461 43.416 26.2149 43.416 37.1886C43.416 40.5417 38.5582 40.5417 38.5582 37.1886C38.5582 28.0439 40.0763 17.6799 33.0933 10.6689C29.7536 7.31582 24.8959 5.18199 19.7346 5.18199C15.4841 5.18199 11.8408 6.70619 9.10829 9.44962C6.37581 12.193 4.8577 15.8509 4.8577 19.8137C4.8577 23.7764 6.67942 27.4343 9.10829 30.1777C11.8408 32.9211 15.484 34.4452 19.431 34.4452C22.467 34.4452 25.1995 33.2259 27.3248 31.0921C29.45 28.9583 30.6644 26.215 30.6644 23.1667C30.6644 20.1185 29.45 17.3751 27.3248 15.2413C25.1995 13.1075 22.467 11.8882 19.431 11.8882C17.3057 11.8882 15.484 12.8027 14.2696 14.022C13.0551 15.2413 12.1444 17.375 12.1444 19.5088C12.1444 21.6426 13.0551 23.4715 14.2696 24.9956C15.1804 25.9101 16.3949 26.5198 17.9129 27.1294C20.949 28.0439 19.7346 32.6163 16.6985 32.0067Z" fill="#1CEBBC"/>
<path d="M19.6278 1.13393V20.0328H17.7109V4.9137L10.2864 17.6299H9.34143L1.91688 4.9947V20.0328H0V1.13393H1.6469L9.8544 15.1461L17.9809 1.13393H19.6278Z" transform="translate(52.4087 10.3232)" fill="#34314B"/>
<path d="M30.3483 5.72365C32.2022 5.72365 33.6241 6.19162 34.614 7.12757C35.6039 8.04551 36.0989 9.41343 36.0989 11.2313V20.0328H34.263V17.8189C33.8311 18.5569 33.1921 19.1328 32.3461 19.5468C31.5182 19.9608 30.5283 20.1678 29.3763 20.1678C27.7924 20.1678 26.5325 19.7898 25.5966 19.0338C24.6606 18.2779 24.1926 17.279 24.1926 16.037C24.1926 14.8311 24.6246 13.8592 25.4886 13.1212C26.3705 12.3832 27.7654 12.0143 29.6733 12.0143H34.182V11.1503C34.182 9.9264 33.8401 8.99945 33.1561 8.36949C32.4721 7.72153 31.4732 7.39755 30.1593 7.39755C29.2593 7.39755 28.3954 7.55054 27.5674 7.85652C26.7395 8.14451 26.0285 8.54948 25.4346 9.07145L24.5706 7.64054C25.2906 7.02857 26.1545 6.5606 27.1625 6.23662C28.1704 5.89464 29.2323 5.72365 30.3483 5.72365ZM29.6733 18.6559C30.7532 18.6559 31.6802 18.4129 32.4541 17.9269C33.2281 17.4229 33.8041 16.703 34.182 15.767V13.4452H29.7273C27.2975 13.4452 26.0825 14.2911 26.0825 15.983C26.0825 16.811 26.3975 17.4679 27.0275 17.9539C27.6574 18.4219 28.5394 18.6559 29.6733 18.6559Z" transform="translate(52.4087 10.3232)" fill="#34314B"/>
<path d="M41.3054 5.83165H43.2223V20.0328H41.3054V5.83165ZM42.2773 2.72684C41.8813 2.72684 41.5484 2.59184 41.2784 2.32186C41.0084 2.05187 40.8734 1.72789 40.8734 1.34992C40.8734 0.98994 41.0084 0.674958 41.2784 0.404975C41.5484 0.134992 41.8813 0 42.2773 0C42.6733 0 43.0063 0.134992 43.2763 0.404975C43.5462 0.65696 43.6812 0.962941 43.6812 1.32292C43.6812 1.7189 43.5462 2.05187 43.2763 2.32186C43.0063 2.59184 42.6733 2.72684 42.2773 2.72684Z" transform="translate(52.4087 10.3232)" fill="#34314B"/>
<path d="M50.3918 8.61248C50.8418 7.65853 51.5077 6.93858 52.3897 6.45261C53.2896 5.96664 54.3966 5.72365 55.7105 5.72365V7.58654L55.2515 7.55954C53.7576 7.55954 52.5877 8.01851 51.7417 8.93646C50.8958 9.8544 50.4728 11.1413 50.4728 12.7972V20.0328H48.5559V5.83165H50.3918V8.61248Z" transform="translate(52.4087 10.3232)" fill="#34314B"/>
<path d="M64.8541 20.1678C63.4862 20.1678 62.2532 19.8618 61.1553 19.2498C60.0574 18.6199 59.1934 17.7559 58.5634 16.658C57.9335 15.5601 57.6185 14.3181 57.6185 12.9322C57.6185 11.5463 57.9335 10.3044 58.5634 9.20644C59.1934 8.10851 60.0574 7.25356 61.1553 6.6416C62.2532 6.02963 63.4862 5.72365 64.8541 5.72365C66.222 5.72365 67.4549 6.02963 68.5528 6.6416C69.6508 7.25356 70.5057 8.10851 71.1177 9.20644C71.7477 10.3044 72.0626 11.5463 72.0626 12.9322C72.0626 14.3181 71.7477 15.5601 71.1177 16.658C70.5057 17.7559 69.6508 18.6199 68.5528 19.2498C67.4549 19.8618 66.222 20.1678 64.8541 20.1678ZM64.8541 18.4669C65.862 18.4669 66.7619 18.2419 67.5539 17.7919C68.3639 17.3239 68.9938 16.667 69.4438 15.821C69.8938 14.9751 70.1188 14.0121 70.1188 12.9322C70.1188 11.8523 69.8938 10.8893 69.4438 10.0434C68.9938 9.19744 68.3639 8.54948 67.5539 8.09951C66.7619 7.63154 65.862 7.39755 64.8541 7.39755C63.8461 7.39755 62.9372 7.63154 62.1272 8.09951C61.3353 8.54948 60.7053 9.19744 60.2374 10.0434C59.7874 10.8893 59.5624 11.8523 59.5624 12.9322C59.5624 14.0121 59.7874 14.9751 60.2374 15.821C60.7053 16.667 61.3353 17.3239 62.1272 17.7919C62.9372 18.2419 63.8461 18.4669 64.8541 18.4669Z" transform="translate(52.4087 10.3232)" fill="#34314B"/>
<path d="M83.2117 5.72365C84.9936 5.72365 86.4065 6.24562 87.4504 7.28956C88.5124 8.3155 89.0433 9.8184 89.0433 11.7983V20.0328H87.1264V11.9873C87.1264 10.5114 86.7575 9.38643 86.0195 8.61248C85.2816 7.83852 84.2286 7.45155 82.8607 7.45155C81.3308 7.45155 80.1159 7.91052 79.2159 8.82846C78.334 9.72841 77.893 10.9793 77.893 12.5812V20.0328H75.9761V5.83165H77.812V8.45049C78.334 7.58654 79.0539 6.92058 79.9719 6.45261C80.9078 5.96664 81.9878 5.72365 83.2117 5.72365Z" transform="translate(52.4087 10.3232)" fill="#34314B"/>
<path d="M101.726 19.1688C101.366 19.4928 100.916 19.7448 100.376 19.9248C99.8541 20.0868 99.3052 20.1678 98.7292 20.1678C97.3973 20.1678 96.3714 19.8078 95.6514 19.0878C94.9314 18.3679 94.5715 17.3509 94.5715 16.037V7.45155H92.0336V5.83165H94.5715V2.72684H96.4883V5.83165H100.808V7.45155H96.4883V15.929C96.4883 16.775 96.6953 17.4229 97.1093 17.8729C97.5413 18.3049 98.1532 18.5209 98.9452 18.5209C99.3412 18.5209 99.7191 18.4579 100.079 18.3319C100.457 18.2059 100.781 18.0259 101.051 17.7919L101.726 19.1688Z" transform="translate(52.4087 10.3232)" fill="#34314B"/>
<path d="M105.216 5.83165H107.132V20.0328H105.216V5.83165ZM106.188 2.72684C105.792 2.72684 105.459 2.59184 105.189 2.32186C104.919 2.05187 104.784 1.72789 104.784 1.34992C104.784 0.98994 104.919 0.674958 105.189 0.404975C105.459 0.134992 105.792 0 106.188 0C106.583 0 106.916 0.134992 107.186 0.404975C107.456 0.65696 107.591 0.962941 107.591 1.32292C107.591 1.7189 107.456 2.05187 107.186 2.32186C106.916 2.59184 106.583 2.72684 106.188 2.72684Z" transform="translate(52.4087 10.3232)" fill="#34314B"/>
</svg>
