<svg width="310" height="160" viewBox="0 0 310 160" fill="none" xmlns="http://www.w3.org/2000/svg">
<g filter="url(#filter0_d)">
<rect width="270" height="120" rx="4" transform="translate(20 20)" fill="white"/>
</g>
<path fill-rule="evenodd" clip-rule="evenodd" d="M15.9724 0.891028L3.54941 8.01885L11.8313 12.7709L19.226 8.61288L29.8742 14.8499V27.3237L19.226 33.5607L11.8313 29.4027L3.54941 34.1548L15.9724 41.2826C18.0429 42.4706 20.4091 42.4706 22.7754 41.2826L35.1984 34.1548C37.2689 32.9668 38.452 30.8878 38.452 28.2148V13.9588C38.452 11.5828 37.2689 9.50384 35.1984 8.01885L22.7754 0.891028C20.4091 -0.296961 18.0429 -0.296961 15.9724 0.891028ZM-3.61065e-05 13.9588L8.28199 18.7109V23.4627L-3.61065e-05 28.2148V13.9588Z" transform="translate(60 59)" fill="#5F45EA"/>
<path d="M0 26.4744V0H7.32773C9.37634 0 11.231 0.484878 12.8917 1.45464C14.5524 2.42439 15.8555 3.78811 16.801 5.5458C17.7466 7.29136 18.2314 9.24906 18.2557 11.4189V14.8555C18.2557 17.0617 17.789 19.0497 16.8556 20.8195C15.9343 22.5893 14.6433 23.9712 12.9826 24.9652C11.3219 25.9592 9.46725 26.4622 7.41864 26.4744H0ZM0.981879 0.981879V25.4925H7.32773C9.18239 25.4925 10.8673 25.044 12.3826 24.1469C13.91 23.2378 15.104 21.9771 15.9646 20.3649C16.8253 18.7406 17.2617 16.9404 17.2738 14.9646V11.5644C17.2738 9.58847 16.8495 7.79442 16.001 6.1822C15.1646 4.56998 13.9887 3.3093 12.4735 2.40015C10.9704 1.47888 9.30361 1.00612 7.47319 0.981879H0.981879Z" transform="translate(108.191 65.5693)" fill="#34314B"/>
<path d="M30.9292 26.838C29.3412 26.838 27.8805 26.4138 26.5471 25.5652C25.2258 24.7046 24.1894 23.5287 23.4378 22.0377C22.6863 20.5467 22.3105 18.8921 22.3105 17.0738V16.2556C22.3105 14.4373 22.6741 12.7705 23.4015 11.2552C24.1288 9.74 25.1288 8.5581 26.4016 7.70957C27.6744 6.86103 29.0624 6.43676 30.5655 6.43676C32.7596 6.43676 34.5537 7.21863 35.9477 8.78236C37.3417 10.3461 38.0387 12.4008 38.0387 14.9464V15.9828H23.2924V17.0556C23.2924 18.6557 23.6257 20.1406 24.2924 21.5104C24.9712 22.8681 25.8986 23.9348 27.0744 24.7106C28.2624 25.4864 29.5473 25.8743 30.9292 25.8743C32.2505 25.8743 33.3718 25.6561 34.293 25.2197C35.2264 24.7712 36.0507 24.0863 36.7659 23.1651L37.4569 23.656C35.9901 25.7774 33.8142 26.838 30.9292 26.838ZM30.5655 7.41864C28.6503 7.41864 27.0259 8.13384 25.6925 9.56423C24.3591 10.9825 23.5772 12.7947 23.3469 15.0009H37.0568V14.7645C37.0568 13.4311 36.772 12.1947 36.2022 11.0552C35.6446 9.90364 34.8688 9.01268 33.8748 8.38234C32.893 7.73987 31.7899 7.41864 30.5655 7.41864Z" transform="translate(108.191 65.5693)" fill="#34314B"/>
<path d="M49.294 25.8561C51.0759 25.8561 52.5427 25.3834 53.6942 24.4379C54.858 23.4924 55.4944 22.1832 55.6035 20.5104H56.5853C56.4884 22.4135 55.755 23.9469 54.3852 25.1106C53.0154 26.2622 51.3183 26.838 49.294 26.838C46.8332 26.838 44.8755 25.9471 43.4209 24.1651C41.9784 22.3832 41.2571 19.9649 41.2571 16.9101V16.2556C41.2571 13.2735 41.9784 10.8916 43.4209 9.10965C44.8755 7.32773 46.8211 6.43676 49.2576 6.43676C51.3426 6.43676 53.0639 7.06104 54.4216 8.3096C55.7792 9.55817 56.5005 11.2189 56.5853 13.2917H55.6035C55.5186 11.5219 54.8943 10.1037 53.7306 9.03692C52.579 7.95807 51.088 7.41864 49.2576 7.41864C47.0635 7.41864 45.3422 8.21263 44.0936 9.80061C42.8572 11.3765 42.239 13.5705 42.239 16.3828V17.0192C42.239 19.7709 42.8633 21.9347 44.1118 23.5105C45.3725 25.0743 47.0999 25.8561 49.294 25.8561Z" transform="translate(108.191 65.5693)" fill="#34314B"/>
<path d="M60.0401 16.2556C60.0401 14.3766 60.3977 12.6917 61.1129 11.2007C61.8402 9.69757 62.8584 8.5278 64.1676 7.69138C65.4889 6.85497 66.9799 6.43676 68.6406 6.43676C70.2892 6.43676 71.7681 6.84285 73.0773 7.65502C74.3864 8.46719 75.4047 9.61878 76.132 11.1098C76.8714 12.6008 77.2472 14.2797 77.2593 16.1465V17.0192C77.2593 18.9103 76.9017 20.6013 76.1865 22.0923C75.4714 23.5833 74.4531 24.747 73.1318 25.5834C71.8226 26.4198 70.3377 26.838 68.677 26.838C67.0163 26.838 65.5253 26.4259 64.204 25.6016C62.8948 24.7773 61.8766 23.6257 61.1493 22.1468C60.4219 20.6558 60.0522 18.983 60.0401 17.1283V16.2556ZM61.022 17.0192C61.022 18.6557 61.3432 20.1588 61.9857 21.5286C62.6403 22.8863 63.5433 23.9469 64.6949 24.7106C65.8586 25.4743 67.186 25.8561 68.677 25.8561C70.9196 25.8561 72.7439 25.0137 74.1501 23.3287C75.5683 21.6438 76.2775 19.4739 76.2775 16.8192V16.2556C76.2775 14.6433 75.9502 13.1523 75.2956 11.7825C74.641 10.4128 73.7319 9.34603 72.5681 8.58235C71.4166 7.80654 70.1074 7.41864 68.6406 7.41864C66.3981 7.41864 64.5676 8.27324 63.1494 9.98244C61.7311 11.6916 61.022 13.8433 61.022 16.4374V17.0192Z" transform="translate(108.191 65.5693)" fill="#34314B"/>
<path d="M90.7147 7.50956L89.4419 7.40046C87.7691 7.40046 86.369 7.94595 85.2417 9.03692C84.1143 10.1158 83.3749 11.631 83.0233 13.5827V26.4744H82.0415V6.80042H83.0233V10.8916C83.5567 9.5218 84.3568 8.43689 85.4235 7.63684C86.4902 6.83679 87.8297 6.43676 89.4419 6.43676C90.0117 6.43676 90.4723 6.50343 90.8238 6.63677L90.7147 7.50956Z" transform="translate(108.191 65.5693)" fill="#34314B"/>
<path d="M92.6603 16.2556C92.6603 14.3766 93.0179 12.6917 93.7331 11.2007C94.4604 9.69757 95.4787 8.5278 96.7878 7.69138C98.1091 6.85497 99.6001 6.43676 101.261 6.43676C102.909 6.43676 104.388 6.84285 105.697 7.65502C107.007 8.46719 108.025 9.61878 108.752 11.1098C109.492 12.6008 109.867 14.2797 109.88 16.1465V17.0192C109.88 18.9103 109.522 20.6013 108.807 22.0923C108.092 23.5833 107.073 24.747 105.752 25.5834C104.443 26.4198 102.958 26.838 101.297 26.838C99.6365 26.838 98.1455 26.4259 96.8242 25.6016C95.515 24.7773 94.4968 23.6257 93.7695 22.1468C93.0421 20.6558 92.6724 18.983 92.6603 17.1283V16.2556ZM93.6422 17.0192C93.6422 18.6557 93.9634 20.1588 94.6059 21.5286C95.2605 22.8863 96.1635 23.9469 97.3151 24.7106C98.4788 25.4743 99.8062 25.8561 101.297 25.8561C103.54 25.8561 105.364 25.0137 106.77 23.3287C108.189 21.6438 108.898 19.4739 108.898 16.8192V16.2556C108.898 14.6433 108.57 13.1523 107.916 11.7825C107.261 10.4128 106.352 9.34603 105.188 8.58235C104.037 7.80654 102.728 7.41864 101.261 7.41864C99.0183 7.41864 97.1879 8.27324 95.7696 9.98244C94.3513 11.6916 93.6422 13.8433 93.6422 16.4374V17.0192Z" transform="translate(108.191 65.5693)" fill="#34314B"/>
<path d="M116.862 1.491V6.80042H121.335V7.80048H116.862V21.765C116.862 23.159 117.086 24.1894 117.535 24.8561C117.995 25.5228 118.759 25.8561 119.826 25.8561C120.359 25.8561 121.008 25.8016 121.771 25.6925L121.935 26.6198C121.535 26.7653 120.85 26.838 119.88 26.838C118.45 26.838 117.425 26.4441 116.807 25.6561C116.189 24.8561 115.874 23.6015 115.862 21.8923V7.80048H112.225V6.80042H115.862V1.491H116.862Z" transform="translate(108.191 65.5693)" fill="#34314B"/>
<path d="M124.59 16.2556C124.59 14.3766 124.947 12.6917 125.662 11.2007C126.39 9.69757 127.408 8.5278 128.717 7.69138C130.038 6.85497 131.529 6.43676 133.19 6.43676C134.839 6.43676 136.318 6.84285 137.627 7.65502C138.936 8.46719 139.954 9.61878 140.681 11.1098C141.421 12.6008 141.797 14.2797 141.809 16.1465V17.0192C141.809 18.9103 141.451 20.6013 140.736 22.0923C140.021 23.5833 139.003 24.747 137.681 25.5834C136.372 26.4198 134.887 26.838 133.226 26.838C131.566 26.838 130.075 26.4259 128.753 25.6016C127.444 24.7773 126.426 23.6257 125.699 22.1468C124.971 20.6558 124.602 18.983 124.59 17.1283V16.2556ZM125.571 17.0192C125.571 18.6557 125.893 20.1588 126.535 21.5286C127.19 22.8863 128.093 23.9469 129.244 24.7106C130.408 25.4743 131.735 25.8561 133.226 25.8561C135.469 25.8561 137.293 25.0137 138.7 23.3287C140.118 21.6438 140.827 19.4739 140.827 16.8192V16.2556C140.827 14.6433 140.5 13.1523 139.845 11.7825C139.19 10.4128 138.281 9.34603 137.118 8.58235C135.966 7.80654 134.657 7.41864 133.19 7.41864C130.948 7.41864 129.117 8.27324 127.699 9.98244C126.281 11.6916 125.571 13.8433 125.571 16.4374V17.0192Z" transform="translate(108.191 65.5693)" fill="#34314B"/>
<path fill-rule="evenodd" clip-rule="evenodd" d="M15.6766 9.20691L-3.61065e-05 18.4138V7.25091e-05L15.6766 9.20691Z" transform="translate(60 70.8799)" fill="#64ECF5"/>
<defs>
<filter id="filter0_d" x="0" y="0" width="310" height="160" filterUnits="userSpaceOnUse" color-interpolation-filters="sRGB">
<feFlood flood-opacity="0" result="BackgroundImageFix"/>
<feColorMatrix in="SourceAlpha" type="matrix" values="0 0 0 0 0 0 0 0 0 0 0 0 0 0 0 0 0 0 255 0"/>
<feOffset/>
<feGaussianBlur stdDeviation="10"/>
<feColorMatrix type="matrix" values="0 0 0 0 0.203922 0 0 0 0 0.192157 0 0 0 0 0.294118 0 0 0 0.1 0"/>
<feBlend mode="normal" in2="BackgroundImageFix" result="effect1_dropShadow"/>
<feBlend mode="normal" in="SourceGraphic" in2="effect1_dropShadow" result="shape"/>
</filter>
</defs>
</svg>
