<?xml version="1.0" encoding="utf-8"?>
<!-- Generator: Adobe Illustrator 17.0.0, SVG Export Plug-In . SVG Version: 6.00 Build 0)  -->
<!DOCTYPE svg PUBLIC "-//W3C//DTD SVG 1.1//EN" "http://www.w3.org/Graphics/SVG/1.1/DTD/svg11.dtd">
<svg version="1.1" id="Layer_1" xmlns="http://www.w3.org/2000/svg" xmlns:xlink="http://www.w3.org/1999/xlink" x="0px" y="0px"
	 width="500px" height="500px" viewBox="0 0 100 100" enable-background="new 0 0 100 100" xml:space="preserve">
<g>
	<g>
		<path fill="#434953" d="M51.498,27.014c-3.134,0.839-5.845,2.118-7.437,3.973c-0.688-1.568-0.869-5.816-0.869-7.101
			c0-1.436-0.703-2.721-1.813-3.601c1.583-1.621,1.43-2.46,0.821-2.993c0,0-7.324,2.513-7.25,2.572
			c-1.293,0.758-2.196,2.007-2.385,3.454c-1.336,0.263-1.796,0.909-0.805,2.967c0.731,1.517,0.611,1.296,3.509,2.706
			c0.986,0.481,0.761,4.892,1.491,7.959c0.807,3.39,2.224,6.221,3.744,7.809c2.546,2.317,4.936,11.443,5.181,15.82h2.455
			c-0.18-0.789-0.342-1.6-0.476-2.435c-1.353-8.468,0.375-15.829,3.858-16.441c1.084-0.19,2.208,0.301,3.285,1.314
			c-0.03,0.931,0.043,1.886,0.229,2.848c0.515,2.657,2.725,4.938,4.474,6.608l-3.516,8.106h1.981l4.992-9.489h-0.06l0.328-0.756
			c-1.866-2.359-1.309-7.455,1.537-12.279C65.947,36.066,59.348,24.912,51.498,27.014z"/>
		<g>
			<path fill="#434953" d="M63.767,38.173c-0.32,0-0.642-0.096-0.924-0.295c-0.722-0.511-0.892-1.51-0.382-2.23
				c3-4.238,3.06-9.613,0.155-13.695c-3.708-5.21-12.28-3.092-12.366-3.07c-0.854,0.219-1.727-0.297-1.947-1.151
				c-0.219-0.855,0.294-1.726,1.148-1.948c0.438-0.113,10.783-2.697,15.774,4.314c3.704,5.206,3.646,12.035-0.151,17.399
				C64.762,37.937,64.268,38.173,63.767,38.173L63.767,38.173z"/>
		</g>
		<path fill="#434953" d="M46.437,60.578c0.019-0.099,0.032-0.201,0.032-0.305c0-0.883-0.717-1.6-1.6-1.6
			c-0.884,0-1.6,0.717-1.6,1.6c0,0.104,0.011,0.206,0.031,0.305H46.437z"/>
		<path fill="#434953" d="M57.564,60.578c0.019-0.099,0.032-0.201,0.032-0.305c0-0.883-0.717-1.6-1.6-1.6s-1.6,0.717-1.6,1.6
			c0,0.104,0.011,0.206,0.031,0.305H57.564z"/>
	</g>
	<g>
		<path fill="#434953" d="M34.29,73.644c0.076-0.115,0.151-0.196,0.225-0.244c0.073-0.048,0.129-0.065,0.167-0.053
			c0.038,0.013,0.051,0.056,0.038,0.129c-0.013,0.073-0.064,0.171-0.153,0.292c-0.064,0.083-0.154,0.207-0.273,0.373
			c-0.118,0.166-0.264,0.35-0.439,0.555c-0.175,0.204-0.382,0.414-0.621,0.63c-0.239,0.217-0.511,0.417-0.817,0.602
			c-0.306,0.185-0.645,0.342-1.017,0.473c-0.373,0.13-0.779,0.212-1.219,0.244c-0.439,0.032-0.836-0.014-1.19-0.139
			c-0.354-0.124-0.664-0.305-0.932-0.544c-0.268-0.239-0.494-0.525-0.678-0.86c-0.185-0.334-0.331-0.696-0.44-1.084
			c-0.108-0.389-0.178-0.795-0.21-1.219c-0.032-0.424-0.025-0.846,0.019-1.266c0.045-0.42,0.145-0.863,0.301-1.328
			c0.156-0.465,0.358-0.929,0.607-1.39c0.248-0.462,0.541-0.905,0.879-1.328c0.338-0.424,0.712-0.801,1.123-1.133
			c0.411-0.331,0.852-0.604,1.324-0.817c0.471-0.213,0.968-0.339,1.491-0.377c0.421-0.032,0.793-0.018,1.118,0.043
			c0.325,0.061,0.607,0.15,0.846,0.268c0.239,0.118,0.439,0.258,0.602,0.421c0.162,0.163,0.289,0.33,0.382,0.502
			c0.092,0.172,0.156,0.344,0.191,0.516c0.035,0.172,0.046,0.328,0.033,0.468c0,0.051-0.006,0.109-0.019,0.172
			c0,0.038-0.004,0.067-0.01,0.086c-0.013,0.115-0.045,0.223-0.095,0.325c-0.052,0.102-0.118,0.193-0.201,0.272
			c-0.083,0.08-0.177,0.145-0.282,0.196c-0.105,0.051-0.215,0.08-0.33,0.086c-0.223,0.013-0.408-0.054-0.554-0.2
			c-0.147-0.147-0.21-0.331-0.191-0.555c0.012-0.115,0.046-0.223,0.1-0.325s0.123-0.193,0.206-0.273
			c0.083-0.08,0.175-0.145,0.277-0.196c0.102-0.051,0.21-0.08,0.325-0.086c0.146-0.013,0.274,0.01,0.382,0.067
			c-0.052-0.172-0.131-0.354-0.239-0.545c-0.109-0.191-0.263-0.363-0.463-0.516c-0.201-0.153-0.454-0.274-0.76-0.363
			c-0.306-0.089-0.682-0.118-1.127-0.086c-0.44,0.032-0.854,0.209-1.243,0.531c-0.388,0.322-0.741,0.732-1.056,1.232
			c-0.316,0.501-0.586,1.066-0.812,1.696c-0.226,0.631-0.398,1.27-0.516,1.916c-0.118,0.647-0.174,1.276-0.167,1.887
			c0.006,0.612,0.086,1.15,0.239,1.615c0.153,0.465,0.387,0.833,0.702,1.104c0.316,0.271,0.725,0.387,1.228,0.349
			c0.286-0.019,0.562-0.078,0.826-0.176c0.265-0.099,0.511-0.217,0.741-0.354c0.229-0.137,0.438-0.287,0.626-0.449
			c0.188-0.163,0.355-0.319,0.502-0.468c0.146-0.15,0.266-0.285,0.358-0.406C34.186,73.791,34.252,73.701,34.29,73.644z"/>
		<path fill="#434953" d="M42.727,72.297c0.089,0,0.127,0.044,0.115,0.134c0,0.007-0.033,0.051-0.1,0.134
			c-0.067,0.083-0.159,0.186-0.277,0.31c-0.118,0.124-0.258,0.258-0.42,0.401c-0.163,0.144-0.338,0.276-0.526,0.397
			c-0.188,0.121-0.387,0.223-0.597,0.306c-0.21,0.083-0.424,0.124-0.64,0.124c-0.229,0-0.422-0.075-0.579-0.224
			c-0.156-0.15-0.283-0.317-0.382-0.502c-0.099-0.185-0.171-0.355-0.215-0.511c-0.045-0.156-0.067-0.244-0.067-0.262
			c-0.013,0.019-0.08,0.107-0.2,0.262c-0.121,0.156-0.277,0.327-0.468,0.511c-0.191,0.185-0.409,0.352-0.654,0.502
			c-0.246,0.149-0.498,0.224-0.76,0.224c-0.28,0-0.513-0.056-0.697-0.167c-0.185-0.111-0.324-0.262-0.416-0.454
			c-0.092-0.191-0.137-0.413-0.134-0.664c0.003-0.252,0.053-0.516,0.148-0.794c0.096-0.277,0.239-0.557,0.43-0.841
			c0.191-0.283,0.427-0.556,0.707-0.817c0.306-0.28,0.609-0.491,0.908-0.631c0.3-0.14,0.589-0.235,0.87-0.286
			c0.249-0.045,0.48-0.059,0.693-0.043c0.213,0.016,0.391,0.046,0.535,0.091c0.143,0.045,0.247,0.097,0.31,0.158
			c0.064,0.061,0.076,0.113,0.038,0.157c-0.051,0.051-0.094,0.073-0.129,0.067c-0.035-0.006-0.085-0.023-0.148-0.052
			c-0.064-0.029-0.148-0.059-0.253-0.091c-0.105-0.032-0.253-0.048-0.444-0.048c-0.178,0-0.367,0.04-0.564,0.12
			c-0.197,0.08-0.388,0.188-0.573,0.325c-0.185,0.137-0.355,0.298-0.511,0.483c-0.156,0.185-0.282,0.379-0.378,0.583
			c-0.147,0.306-0.228,0.575-0.244,0.807c-0.016,0.232,0.008,0.43,0.071,0.592c0.064,0.163,0.154,0.285,0.273,0.368
			c0.118,0.083,0.234,0.124,0.349,0.124c0.217,0,0.405-0.064,0.564-0.191c0.16-0.127,0.301-0.285,0.426-0.473
			c0.124-0.188,0.234-0.392,0.329-0.612c0.096-0.22,0.185-0.424,0.268-0.612c0.083-0.188,0.161-0.344,0.234-0.468
			c0.073-0.124,0.151-0.186,0.234-0.186c0.083,0,0.15,0.068,0.201,0.205c0.051,0.137,0.098,0.306,0.143,0.507
			c0.044,0.2,0.091,0.42,0.139,0.659c0.048,0.239,0.11,0.459,0.186,0.66s0.171,0.37,0.282,0.507
			c0.111,0.137,0.253,0.205,0.425,0.205c0.127,0,0.251-0.027,0.373-0.082c0.121-0.054,0.226-0.116,0.316-0.186
			c0.108-0.076,0.207-0.166,0.296-0.268l0.363-0.373C42.607,72.325,42.658,72.297,42.727,72.297z"/>
		<path fill="#434953" d="M41.6,70.242c-0.076-0.051-0.081-0.123-0.014-0.215c0.067-0.092,0.177-0.191,0.33-0.296
			c0.153-0.105,0.333-0.21,0.54-0.315c0.207-0.105,0.416-0.199,0.626-0.282c0.07-0.401,0.143-0.807,0.22-1.218
			c0.076-0.411,0.153-0.787,0.229-1.128c0.076-0.34,0.148-0.63,0.215-0.87c0.067-0.239,0.126-0.39,0.177-0.454
			c0.089-0.109,0.208-0.244,0.358-0.406c0.15-0.163,0.301-0.314,0.454-0.454c0.153-0.14,0.293-0.248,0.42-0.325
			c0.127-0.076,0.21-0.086,0.248-0.029c0.019,0.032,0.017,0.121-0.005,0.267c-0.022,0.147-0.059,0.338-0.11,0.573
			c-0.051,0.236-0.112,0.508-0.181,0.817c-0.07,0.309-0.145,0.639-0.225,0.989c-0.08,0.35-0.161,0.715-0.244,1.094
			c-0.083,0.379-0.163,0.753-0.239,1.123c0.178,0.038,0.354,0.081,0.526,0.129c0.172,0.047,0.328,0.095,0.468,0.143
			c0.14,0.048,0.259,0.089,0.358,0.124c0.099,0.035,0.167,0.053,0.205,0.053c0.051,0,0.097-0.008,0.139-0.024
			c0.041-0.016,0.078-0.032,0.11-0.048c0.032-0.016,0.064-0.025,0.095-0.029c0.032-0.003,0.064,0.008,0.096,0.033
			c0.032,0.026,0.044,0.056,0.038,0.091c-0.007,0.035-0.042,0.084-0.105,0.148c-0.064,0.064-0.163,0.148-0.297,0.253
			c-0.134,0.105-0.315,0.238-0.544,0.397c-0.185,0.134-0.39,0.194-0.617,0.181c-0.226-0.013-0.457-0.06-0.693-0.143
			c-0.038,0.236-0.068,0.459-0.091,0.669c-0.022,0.211-0.037,0.405-0.043,0.583c-0.019,0.484,0.024,0.875,0.129,1.171
			c0.105,0.296,0.266,0.444,0.483,0.444c0.108,0,0.237-0.045,0.387-0.134c0.149-0.089,0.292-0.188,0.425-0.296
			c0.16-0.121,0.322-0.265,0.487-0.43c0.038-0.032,0.073-0.06,0.106-0.086c0.07-0.045,0.13-0.048,0.181-0.01
			c0.057,0.051,0.064,0.095,0.019,0.134c-0.044,0.038-0.076,0.07-0.095,0.096c-0.007,0.013-0.043,0.059-0.11,0.139
			c-0.067,0.079-0.157,0.175-0.272,0.286c-0.115,0.112-0.247,0.232-0.397,0.363c-0.15,0.131-0.314,0.252-0.492,0.363
			c-0.178,0.112-0.367,0.204-0.568,0.277c-0.201,0.073-0.403,0.11-0.607,0.11c-0.21,0-0.384-0.046-0.521-0.139
			c-0.137-0.092-0.248-0.21-0.334-0.353c-0.086-0.144-0.15-0.306-0.191-0.487c-0.041-0.182-0.068-0.362-0.081-0.54
			s-0.013-0.349,0-0.511s0.029-0.295,0.048-0.397c0.013-0.102,0.047-0.313,0.105-0.636c0.057-0.322,0.121-0.693,0.191-1.113
			c-0.102-0.032-0.198-0.052-0.287-0.062c-0.089-0.009-0.172-0.005-0.248,0.014c-0.134,0.032-0.242,0.075-0.325,0.13
			c-0.083,0.054-0.153,0.103-0.21,0.148c-0.057,0.045-0.105,0.078-0.143,0.1C41.686,70.279,41.645,70.274,41.6,70.242z"/>
		<path fill="#434953" d="M51.539,79.578c-0.191-0.153-0.357-0.357-0.497-0.612c-0.128-0.217-0.239-0.498-0.335-0.846
			c-0.095-0.347-0.137-0.776-0.124-1.285c0-0.255,0.024-0.608,0.071-1.061c0.048-0.452,0.11-0.963,0.187-1.534
			c0.076-0.57,0.164-1.181,0.263-1.835c0.098-0.653,0.203-1.304,0.315-1.954c0.112-0.65,0.226-1.28,0.344-1.892
			s0.231-1.161,0.339-1.648c0.108-0.487,0.208-0.895,0.301-1.223c0.092-0.328,0.174-0.534,0.244-0.616
			c0.127-0.166,0.276-0.287,0.444-0.363c0.169-0.076,0.325-0.092,0.468-0.047c0.143,0.044,0.258,0.154,0.344,0.33
			c0.086,0.175,0.11,0.428,0.071,0.759c-0.019,0.166-0.07,0.443-0.153,0.831c-0.083,0.389-0.185,0.855-0.305,1.4
			c-0.121,0.544-0.257,1.147-0.406,1.806c-0.15,0.66-0.301,1.346-0.454,2.06c-0.153,0.714-0.299,1.435-0.439,2.164
			c-0.14,0.729-0.263,1.433-0.368,2.112c-0.105,0.678-0.187,1.313-0.244,1.906C51.548,78.623,51.525,79.139,51.539,79.578z"/>
		<path fill="#434953" d="M60.254,72.297c0.051-0.058,0.095-0.089,0.134-0.096c0.038-0.006,0.067,0.004,0.086,0.029
			c0.019,0.026,0.029,0.057,0.029,0.095c0,0.038-0.013,0.07-0.038,0.096c-0.013,0.019-0.075,0.075-0.186,0.167
			c-0.112,0.092-0.253,0.2-0.426,0.325c-0.172,0.124-0.371,0.256-0.597,0.397c-0.226,0.14-0.465,0.269-0.717,0.387
			c-0.252,0.118-0.508,0.215-0.769,0.292c-0.261,0.076-0.516,0.115-0.765,0.115c-0.376,0-0.685-0.076-0.927-0.229
			c-0.243-0.153-0.432-0.344-0.569-0.573c-0.137-0.229-0.225-0.481-0.263-0.755c-0.038-0.274-0.035-0.532,0.01-0.774
			c0.045-0.249,0.14-0.516,0.287-0.803c0.146-0.287,0.334-0.553,0.564-0.798c0.229-0.245,0.498-0.449,0.807-0.612
			c0.309-0.162,0.645-0.244,1.008-0.244c0.204,0,0.385,0.032,0.545,0.096c0.159,0.064,0.293,0.148,0.401,0.253
			c0.109,0.105,0.188,0.224,0.239,0.358c0.051,0.134,0.07,0.271,0.057,0.411c-0.013,0.102-0.033,0.204-0.062,0.306
			c-0.029,0.102-0.067,0.197-0.114,0.286c-0.048,0.089-0.107,0.167-0.177,0.234c-0.07,0.067-0.15,0.119-0.239,0.158
			c-0.083,0.045-0.172,0.067-0.268,0.067c-0.147,0-0.261-0.049-0.344-0.148c-0.083-0.099-0.112-0.222-0.086-0.368
			c0.025-0.147,0.099-0.271,0.22-0.373c0.121-0.102,0.254-0.153,0.401-0.153c0.134,0,0.239,0.044,0.316,0.134
			c0.006-0.064,0.006-0.149,0-0.258c-0.007-0.109-0.035-0.215-0.086-0.32c-0.051-0.105-0.137-0.198-0.258-0.277
			c-0.121-0.08-0.293-0.119-0.516-0.119c-0.217,0-0.408,0.094-0.573,0.282c-0.166,0.188-0.298,0.424-0.397,0.707
			c-0.099,0.283-0.159,0.591-0.181,0.922c-0.022,0.331,0.005,0.639,0.081,0.923c0.076,0.283,0.206,0.519,0.387,0.707
			c0.181,0.188,0.428,0.282,0.741,0.282c0.185,0,0.395-0.038,0.63-0.115c0.197-0.07,0.433-0.18,0.707-0.33
			C59.62,72.83,59.923,72.602,60.254,72.297z"/>
		<path fill="#434953" d="M62.843,69.43c0.306,0,0.583,0.062,0.831,0.187c0.248,0.124,0.454,0.292,0.616,0.502
			c0.163,0.21,0.277,0.457,0.344,0.741c0.067,0.283,0.072,0.588,0.014,0.913c-0.057,0.325-0.169,0.629-0.334,0.912
			c-0.166,0.283-0.368,0.531-0.607,0.741c-0.239,0.211-0.504,0.378-0.794,0.502c-0.29,0.124-0.588,0.187-0.893,0.187
			c-0.306,0-0.581-0.062-0.826-0.187c-0.246-0.124-0.449-0.291-0.612-0.502c-0.163-0.21-0.277-0.457-0.344-0.741
			c-0.067-0.283-0.072-0.588-0.014-0.912c0.057-0.325,0.169-0.629,0.334-0.913c0.166-0.283,0.368-0.53,0.607-0.741
			c0.239-0.21,0.502-0.377,0.789-0.502C62.241,69.492,62.537,69.43,62.843,69.43z M63.178,73.338
			c0.185-0.044,0.357-0.132,0.516-0.263c0.16-0.13,0.297-0.29,0.411-0.478c0.115-0.188,0.202-0.398,0.262-0.63
			c0.061-0.232,0.085-0.47,0.072-0.712c-0.019-0.242-0.072-0.462-0.158-0.659c-0.086-0.198-0.196-0.363-0.329-0.497
			c-0.134-0.134-0.287-0.228-0.459-0.282c-0.172-0.055-0.351-0.059-0.535-0.015c-0.191,0.045-0.366,0.133-0.525,0.263
			c-0.16,0.13-0.297,0.288-0.411,0.473c-0.115,0.185-0.2,0.393-0.258,0.626c-0.057,0.232-0.076,0.47-0.057,0.712
			c0.013,0.242,0.062,0.463,0.148,0.664c0.086,0.201,0.196,0.366,0.33,0.497c0.134,0.13,0.285,0.224,0.454,0.282
			C62.806,73.376,62.986,73.383,63.178,73.338z"/>
		<path fill="#434953" d="M72.361,72.297c0.089,0,0.127,0.044,0.115,0.134c0,0.007-0.034,0.051-0.1,0.134
			c-0.067,0.083-0.16,0.186-0.277,0.31c-0.118,0.124-0.258,0.258-0.421,0.401c-0.162,0.144-0.337,0.276-0.525,0.397
			c-0.188,0.121-0.387,0.223-0.597,0.306c-0.21,0.083-0.424,0.124-0.64,0.124c-0.235,0-0.425-0.07-0.568-0.21
			c-0.144-0.14-0.252-0.314-0.325-0.521c-0.073-0.207-0.124-0.433-0.153-0.678c-0.029-0.245-0.047-0.471-0.057-0.678
			c-0.01-0.207-0.018-0.381-0.024-0.521c-0.007-0.14-0.029-0.21-0.067-0.21c-0.058,0-0.131,0.07-0.22,0.21
			c-0.089,0.14-0.191,0.314-0.305,0.521c-0.115,0.207-0.241,0.433-0.378,0.678c-0.137,0.245-0.282,0.471-0.435,0.678
			c-0.153,0.207-0.316,0.381-0.487,0.521c-0.172,0.14-0.348,0.21-0.526,0.21c-0.179,0-0.332-0.041-0.459-0.124
			c-0.128-0.083-0.234-0.195-0.32-0.335c-0.086-0.14-0.156-0.298-0.21-0.473c-0.054-0.175-0.097-0.355-0.129-0.54
			c-0.07-0.433-0.092-0.927-0.067-1.481c0.025-0.35,0.098-0.666,0.22-0.946c0.051-0.121,0.116-0.239,0.196-0.354
			c0.08-0.115,0.177-0.217,0.292-0.306c0.115-0.089,0.25-0.161,0.406-0.215c0.156-0.054,0.336-0.081,0.54-0.081
			c0.242,0,0.395,0.062,0.459,0.187c0.064,0.124,0.068,0.286,0.014,0.487c-0.054,0.2-0.153,0.424-0.296,0.669
			s-0.301,0.492-0.473,0.741c0.058,0.191,0.121,0.375,0.191,0.549c0.07,0.175,0.142,0.33,0.215,0.464
			c0.073,0.134,0.145,0.242,0.215,0.325c0.07,0.083,0.13,0.124,0.181,0.124c0.057,0,0.139-0.088,0.244-0.263
			c0.105-0.175,0.226-0.393,0.363-0.654c0.137-0.261,0.282-0.545,0.435-0.851c0.153-0.306,0.307-0.589,0.464-0.85
			c0.156-0.261,0.307-0.48,0.454-0.655c0.147-0.175,0.277-0.262,0.392-0.262c0.14,0,0.242,0.1,0.306,0.301
			c0.064,0.201,0.11,0.45,0.139,0.746s0.049,0.619,0.062,0.97c0.013,0.35,0.04,0.673,0.081,0.97
			c0.041,0.296,0.105,0.544,0.191,0.745c0.086,0.201,0.215,0.301,0.387,0.301c0.127,0,0.252-0.027,0.373-0.082
			c0.121-0.054,0.226-0.116,0.315-0.186c0.109-0.076,0.207-0.166,0.296-0.268l0.363-0.373C72.24,72.325,72.291,72.297,72.361,72.297
			z M66.857,69.468c-0.127,0-0.228,0.045-0.301,0.134c-0.073,0.089-0.123,0.207-0.148,0.353c-0.026,0.147-0.029,0.314-0.01,0.502
			c0.019,0.188,0.054,0.384,0.105,0.588c0.134-0.198,0.256-0.392,0.368-0.583c0.111-0.191,0.191-0.36,0.239-0.507
			c0.047-0.146,0.056-0.264,0.023-0.353C67.102,69.513,67.01,69.468,66.857,69.468z"/>
	</g>
	<g>
		<path fill="#434953" d="M28.535,83.18h-1.072l-0.291,0.81h-0.346l1.106-2.969h0.159l1.111,2.969h-0.367L28.535,83.18z
			 M27.575,82.879h0.856l-0.324-0.889l-0.103-0.442h-0.005l-0.103,0.451L27.575,82.879z"/>
		<path fill="#434953" d="M31.369,82.077l-0.226-0.422h-0.017l0.042,0.422v1.912h-0.326v-2.969h0.184l1.399,1.95l0.217,0.401h0.021
			l-0.046-0.401v-1.904h0.326v2.968h-0.184L31.369,82.077z"/>
		<path fill="#434953" d="M34.985,81.067h0.347v2.923h-0.347V81.067z"/>
		<path fill="#434953" d="M39.62,82.027l0.042-0.438H39.64l-0.159,0.401l-0.76,1.32h-0.104l-0.806-1.324l-0.15-0.397H37.64
			l0.058,0.434v1.966h-0.326v-2.923h0.259l0.914,1.494l0.138,0.326h0.008l0.129-0.334l0.873-1.486h0.272v2.923H39.62V82.027z"/>
		<path fill="#434953" d="M43.316,83.18h-1.072l-0.291,0.81h-0.346l1.106-2.969h0.159l1.111,2.969h-0.367L43.316,83.18z
			 M42.356,82.879h0.856l-0.324-0.889l-0.103-0.442H42.78l-0.103,0.451L42.356,82.879z"/>
		<path fill="#434953" d="M47.352,83.99h-1.729v-2.923h0.347v2.614h1.382V83.99z"/>
		<path fill="#434953" d="M52.547,83.247c0-0.117-0.035-0.213-0.104-0.286c-0.069-0.074-0.156-0.139-0.261-0.196
			c-0.104-0.057-0.218-0.111-0.34-0.161c-0.123-0.05-0.236-0.111-0.34-0.181c-0.104-0.071-0.192-0.159-0.261-0.263
			c-0.07-0.104-0.104-0.238-0.104-0.399c0-0.228,0.079-0.409,0.238-0.542c0.159-0.134,0.384-0.201,0.676-0.201
			c0.17,0,0.324,0.013,0.463,0.038c0.139,0.025,0.248,0.057,0.326,0.096l-0.104,0.309c-0.064-0.032-0.158-0.062-0.282-0.091
			c-0.124-0.029-0.264-0.043-0.42-0.043c-0.184,0-0.321,0.041-0.413,0.123c-0.092,0.082-0.138,0.179-0.138,0.291
			c0,0.109,0.035,0.199,0.104,0.271c0.069,0.072,0.156,0.137,0.261,0.194c0.104,0.057,0.218,0.114,0.34,0.169
			c0.123,0.056,0.236,0.12,0.34,0.194c0.104,0.073,0.192,0.162,0.261,0.265c0.07,0.103,0.104,0.231,0.104,0.384
			c0,0.125-0.022,0.238-0.067,0.338c-0.045,0.1-0.11,0.187-0.196,0.259c-0.087,0.072-0.191,0.128-0.313,0.167
			c-0.122,0.039-0.261,0.058-0.417,0.058c-0.208,0-0.381-0.016-0.518-0.048c-0.136-0.032-0.242-0.067-0.317-0.107l0.117-0.309
			c0.064,0.035,0.159,0.07,0.284,0.103c0.125,0.034,0.266,0.051,0.422,0.051c0.092,0,0.178-0.009,0.259-0.027
			c0.081-0.018,0.15-0.047,0.208-0.088c0.059-0.04,0.105-0.091,0.14-0.152C52.529,83.402,52.547,83.33,52.547,83.247z"/>
		<path fill="#434953" d="M55.34,82.829l-0.964-1.762h0.405l0.685,1.277l0.072,0.255h0.005l0.076-0.263l0.657-1.269h0.367
			l-0.956,1.757v1.165H55.34V82.829z"/>
		<path fill="#434953" d="M60.526,82.027l0.042-0.438h-0.021l-0.159,0.401l-0.76,1.32h-0.104l-0.806-1.324l-0.15-0.397h-0.021
			l0.058,0.434v1.966h-0.326v-2.923h0.259l0.914,1.494l0.138,0.326h0.008l0.129-0.334l0.873-1.486h0.272v2.923h-0.347V82.027z"/>
		<path fill="#434953" d="M64.596,81.735c0,0.07-0.011,0.141-0.033,0.213c-0.022,0.072-0.056,0.14-0.1,0.202
			c-0.044,0.063-0.101,0.118-0.171,0.165c-0.069,0.047-0.151,0.084-0.246,0.109v0.017c0.084,0.014,0.164,0.037,0.24,0.071
			c0.076,0.034,0.144,0.08,0.202,0.138c0.059,0.059,0.106,0.129,0.142,0.213c0.036,0.084,0.054,0.182,0.054,0.297
			c0,0.15-0.031,0.28-0.094,0.39c-0.063,0.11-0.145,0.2-0.246,0.269c-0.102,0.07-0.218,0.121-0.349,0.154
			c-0.131,0.034-0.265,0.05-0.401,0.05c-0.047,0-0.103,0-0.167,0c-0.064,0-0.131-0.003-0.201-0.007
			c-0.069-0.004-0.139-0.01-0.208-0.017c-0.07-0.007-0.131-0.017-0.184-0.031v-2.877c0.103-0.017,0.223-0.031,0.359-0.042
			c0.136-0.011,0.285-0.017,0.446-0.017c0.109,0,0.219,0.009,0.332,0.027c0.113,0.018,0.215,0.053,0.307,0.104
			c0.092,0.051,0.168,0.123,0.227,0.215C64.567,81.472,64.596,81.59,64.596,81.735z M63.398,82.353c0.047,0,0.104-0.002,0.171-0.004
			c0.067-0.003,0.122-0.007,0.167-0.013c0.067-0.022,0.129-0.049,0.188-0.082c0.059-0.032,0.111-0.069,0.157-0.113
			s0.082-0.093,0.109-0.15c0.026-0.057,0.039-0.119,0.039-0.186c0-0.092-0.017-0.168-0.052-0.228
			c-0.035-0.06-0.082-0.108-0.14-0.144c-0.059-0.036-0.125-0.062-0.201-0.077c-0.075-0.015-0.151-0.023-0.229-0.023
			c-0.092,0-0.176,0.002-0.253,0.006c-0.076,0.004-0.134,0.011-0.173,0.019v0.994H63.398z M63.628,83.723
			c0.089,0,0.175-0.011,0.259-0.032c0.084-0.021,0.157-0.054,0.221-0.1c0.064-0.046,0.115-0.102,0.152-0.169
			c0.038-0.067,0.056-0.146,0.056-0.238c0-0.114-0.023-0.206-0.069-0.276c-0.046-0.069-0.105-0.124-0.179-0.163
			c-0.074-0.039-0.157-0.065-0.248-0.08c-0.092-0.014-0.184-0.021-0.276-0.021h-0.363v1.048c0.019,0.006,0.047,0.01,0.084,0.013
			c0.036,0.003,0.075,0.006,0.117,0.008c0.042,0.003,0.085,0.005,0.129,0.007C63.555,83.722,63.594,83.723,63.628,83.723z"/>
		<path fill="#434953" d="M66.405,82.528c0-0.487,0.103-0.861,0.309-1.121c0.206-0.26,0.499-0.39,0.881-0.39
			c0.206,0,0.384,0.036,0.535,0.109c0.15,0.072,0.275,0.175,0.374,0.307c0.099,0.133,0.172,0.291,0.219,0.476
			c0.047,0.186,0.071,0.392,0.071,0.62c0,0.487-0.104,0.861-0.311,1.121c-0.207,0.26-0.503,0.39-0.887,0.39
			c-0.203,0-0.379-0.036-0.528-0.109c-0.149-0.072-0.273-0.174-0.372-0.307c-0.099-0.132-0.172-0.291-0.219-0.476
			C66.428,82.963,66.405,82.757,66.405,82.528z M66.772,82.528c0,0.162,0.016,0.314,0.048,0.459
			c0.032,0.145,0.082,0.272,0.148,0.382c0.067,0.11,0.152,0.198,0.256,0.264c0.104,0.065,0.228,0.098,0.37,0.098
			c0.259,0,0.462-0.098,0.61-0.294c0.147-0.196,0.221-0.499,0.221-0.908c0-0.159-0.016-0.311-0.048-0.457
			c-0.032-0.146-0.082-0.274-0.15-0.384c-0.068-0.11-0.155-0.198-0.259-0.263c-0.104-0.065-0.229-0.098-0.374-0.098
			c-0.256,0-0.457,0.098-0.603,0.294C66.845,81.816,66.772,82.119,66.772,82.528z"/>
		<path fill="#434953" d="M72.363,83.99h-1.729v-2.923h0.347v2.614h1.382V83.99z"/>
	</g>
</g>
</svg>
