<?xml version="1.0" encoding="utf-8"?>
<!-- Generator: Adobe Illustrator 17.0.0, SVG Export Plug-In . SVG Version: 6.00 Build 0)  -->
<!DOCTYPE svg PUBLIC "-//W3C//DTD SVG 1.1//EN" "http://www.w3.org/Graphics/SVG/1.1/DTD/svg11.dtd">
<svg version="1.1" id="Layer_1" xmlns="http://www.w3.org/2000/svg" xmlns:xlink="http://www.w3.org/1999/xlink" x="0px" y="0px"
	 width="500px" height="500px" viewBox="0 0 100 100" enable-background="new 0 0 100 100" xml:space="preserve">
<g>
	<g>
		<path fill="#434953" d="M32.297,78.422c0.17,0.028,0.362,0.074,0.574,0.138c0.213,0.064,0.415,0.149,0.607,0.256
			c0.192,0.106,0.355,0.234,0.49,0.383c0.135,0.149,0.202,0.323,0.202,0.521c0,0.185-0.068,0.32-0.202,0.405
			c-0.135,0.085-0.298,0.145-0.49,0.181c-0.192,0.035-0.394,0.05-0.607,0.042c-0.212-0.007-0.397-0.01-0.553-0.01
			c-2.242,0-4.143,0-5.703,0c-1.561,0-2.852,0.003-3.873,0.01c-1.022,0.007-1.82,0.011-2.394,0.011
			c-0.575,0-1.007,0.003-1.298,0.011c-0.291,0.007-0.479,0.01-0.564,0.01c-0.085,0-0.149,0-0.192,0c-0.355,0-0.678-0.05-0.968-0.149
			c-0.291-0.099-0.437-0.255-0.437-0.468c0-0.185,0.071-0.323,0.213-0.415c0.142-0.092,0.323-0.16,0.543-0.202
			c0.22-0.043,0.458-0.064,0.713-0.064c0.255,0,0.49,0,0.702,0c0.695,0,1.376-0.021,2.043-0.064c0.667-0.043,1.341-0.099,2.022-0.17
			c-0.114-0.738-0.192-1.625-0.234-2.66c-0.043-1.036-0.064-2.096-0.064-3.182c0-1.086,0.01-2.135,0.032-3.15
			c0.021-1.014,0.046-1.869,0.074-2.565c0-0.44,0.011-0.855,0.032-1.245c0.021-0.39,0.053-0.735,0.096-1.032
			c0.043-0.298,0.099-0.535,0.17-0.713c0.071-0.177,0.163-0.266,0.277-0.266c0.227,0,0.422,0.071,0.585,0.213
			c0.163,0.142,0.302,0.319,0.415,0.532c0.113,0.213,0.195,0.44,0.245,0.681c0.049,0.242,0.067,0.455,0.053,0.639
			c-0.042,1.362-0.081,2.557-0.117,3.586c-0.036,1.029-0.071,1.926-0.106,2.692c-0.036,0.766-0.064,1.415-0.085,1.947
			c-0.022,0.532-0.032,0.968-0.032,1.309c-0.014,0.212-0.036,0.454-0.064,0.723c-0.029,0.27-0.064,0.546-0.107,0.83
			c-0.042,0.284-0.092,0.564-0.148,0.841c-0.057,0.277-0.128,0.522-0.213,0.735c0.652-0.057,1.316-0.121,1.99-0.192
			c0.674-0.071,1.358-0.131,2.054-0.181c0.695-0.05,1.401-0.074,2.118-0.074C30.81,78.316,31.545,78.351,32.297,78.422z"/>
		<path fill="#434953" d="M29.742,69.59c0.028,0.156,0.01,0.302-0.053,0.436c-0.064,0.135-0.16,0.255-0.288,0.362
			c-0.127,0.106-0.276,0.195-0.447,0.266c-0.17,0.071-0.348,0.121-0.532,0.149c-0.355,0.042-0.702,0.007-1.043-0.107
			c-0.34-0.113-0.532-0.319-0.575-0.617c-0.056-0.312,0.04-0.578,0.288-0.798c0.248-0.22,0.578-0.365,0.99-0.436
			c0.411-0.071,0.78-0.039,1.106,0.095C29.515,69.075,29.7,69.292,29.742,69.59z M27.316,72.506c0-0.341,0.089-0.575,0.266-0.703
			c0.177-0.127,0.373-0.177,0.586-0.149c0.213,0.029,0.397,0.121,0.553,0.277c0.156,0.156,0.213,0.348,0.17,0.575
			c-0.057,0.255-0.11,0.574-0.159,0.958c-0.05,0.383-0.082,0.752-0.096,1.106c-0.014,0.355-0.004,0.66,0.032,0.916
			c0.035,0.255,0.117,0.383,0.245,0.383c0.085,0,0.188-0.11,0.308-0.33c0.121-0.22,0.238-0.479,0.352-0.777
			c0.113-0.298,0.22-0.596,0.319-0.894c0.099-0.298,0.163-0.525,0.191-0.681c0.043-0.142,0.113-0.238,0.213-0.288
			c0.099-0.05,0.195-0.063,0.288-0.042c0.092,0.021,0.17,0.074,0.234,0.16c0.064,0.085,0.074,0.191,0.032,0.319
			c-0.029,0.085-0.075,0.245-0.139,0.479c-0.064,0.234-0.145,0.493-0.245,0.777c-0.099,0.284-0.216,0.578-0.351,0.883
			c-0.135,0.305-0.291,0.575-0.468,0.809c-0.177,0.234-0.372,0.415-0.585,0.543c-0.213,0.127-0.447,0.156-0.703,0.085
			c-0.383-0.113-0.656-0.323-0.819-0.628c-0.163-0.305-0.259-0.66-0.288-1.064c-0.028-0.405-0.024-0.844,0.011-1.32
			C27.298,73.424,27.316,72.96,27.316,72.506z"/>
		<path fill="#434953" d="M30.317,69.951c0-0.099,0.004-0.195,0.011-0.287c0.007-0.092,0.01-0.174,0.01-0.245
			c0-0.34,0.092-0.578,0.277-0.713c0.185-0.135,0.383-0.195,0.596-0.181c0.213,0.014,0.401,0.093,0.564,0.235
			c0.163,0.142,0.224,0.326,0.181,0.553l-0.106,0.553h0.511c0.269,0,0.464,0.046,0.585,0.139c0.12,0.092,0.181,0.191,0.181,0.298
			c0,0.106-0.064,0.202-0.192,0.287c-0.128,0.085-0.305,0.128-0.532,0.128h-0.638c-0.057,0.511-0.107,1.075-0.149,1.692
			c-0.043,0.617-0.072,1.199-0.086,1.745c-0.014,0.546-0.007,1.001,0.022,1.362c0.028,0.361,0.092,0.542,0.191,0.542
			c0.085,0,0.202-0.127,0.351-0.383c0.149-0.255,0.302-0.549,0.458-0.883c0.156-0.334,0.298-0.66,0.426-0.979
			c0.127-0.32,0.213-0.536,0.255-0.649c0.028-0.128,0.092-0.213,0.192-0.256c0.099-0.042,0.195-0.053,0.287-0.032
			c0.092,0.021,0.17,0.071,0.234,0.149c0.064,0.078,0.075,0.181,0.032,0.309c-0.085,0.284-0.199,0.653-0.34,1.107
			c-0.142,0.454-0.32,0.894-0.533,1.319c-0.212,0.426-0.468,0.795-0.766,1.107c-0.298,0.312-0.653,0.468-1.064,0.468
			c-0.27,0-0.49-0.106-0.66-0.319c-0.17-0.213-0.298-0.493-0.383-0.841c-0.085-0.347-0.138-0.748-0.16-1.202
			c-0.021-0.454-0.024-0.922-0.01-1.405c0.014-0.482,0.042-0.969,0.085-1.458c0.042-0.49,0.078-0.94,0.106-1.352h-0.511
			c-0.227,0-0.401-0.042-0.521-0.127c-0.121-0.086-0.184-0.177-0.192-0.277c-0.007-0.099,0.046-0.192,0.16-0.277
			c0.114-0.085,0.298-0.128,0.553-0.128H30.317z"/>
		<path fill="#434953" d="M33.445,69.951c0-0.099,0.004-0.195,0.011-0.287c0.007-0.092,0.01-0.174,0.01-0.245
			c0-0.34,0.092-0.578,0.277-0.713c0.185-0.135,0.383-0.195,0.596-0.181c0.213,0.014,0.401,0.093,0.564,0.235
			c0.163,0.142,0.224,0.326,0.181,0.553l-0.106,0.553h0.511c0.269,0,0.464,0.046,0.585,0.139c0.12,0.092,0.181,0.191,0.181,0.298
			c0,0.106-0.064,0.202-0.192,0.287c-0.128,0.085-0.305,0.128-0.532,0.128h-0.638c-0.057,0.511-0.107,1.075-0.149,1.692
			c-0.043,0.617-0.072,1.199-0.086,1.745c-0.014,0.546-0.007,1.001,0.022,1.362c0.028,0.361,0.092,0.542,0.191,0.542
			c0.085,0,0.202-0.127,0.351-0.383c0.149-0.255,0.302-0.549,0.458-0.883c0.156-0.334,0.298-0.66,0.426-0.979
			c0.127-0.32,0.213-0.536,0.255-0.649c0.028-0.128,0.092-0.213,0.192-0.256c0.099-0.042,0.195-0.053,0.287-0.032
			c0.092,0.021,0.17,0.071,0.234,0.149c0.064,0.078,0.075,0.181,0.032,0.309c-0.085,0.284-0.199,0.653-0.34,1.107
			c-0.142,0.454-0.32,0.894-0.533,1.319c-0.212,0.426-0.468,0.795-0.766,1.107c-0.298,0.312-0.653,0.468-1.064,0.468
			c-0.27,0-0.49-0.106-0.66-0.319c-0.17-0.213-0.298-0.493-0.383-0.841c-0.085-0.347-0.138-0.748-0.16-1.202
			c-0.021-0.454-0.024-0.922-0.01-1.405c0.014-0.482,0.042-0.969,0.085-1.458c0.042-0.49,0.078-0.94,0.106-1.352H32.87
			c-0.227,0-0.401-0.042-0.521-0.127c-0.121-0.086-0.184-0.177-0.192-0.277c-0.007-0.099,0.046-0.192,0.16-0.277
			c0.114-0.085,0.298-0.128,0.553-0.128H33.445z"/>
		<path fill="#434953" d="M36.701,68.036c0-0.341,0.092-0.578,0.277-0.713c0.184-0.135,0.386-0.195,0.606-0.181
			c0.22,0.014,0.411,0.092,0.575,0.234c0.163,0.142,0.223,0.326,0.181,0.553c-0.029,0.171-0.075,0.504-0.139,1.001
			c-0.063,0.497-0.124,1.068-0.18,1.713c-0.057,0.646-0.107,1.316-0.149,2.011c-0.043,0.695-0.068,1.337-0.075,1.926
			c-0.007,0.589,0.014,1.071,0.064,1.447c0.049,0.376,0.145,0.564,0.287,0.564c0.085,0,0.202-0.156,0.351-0.468
			c0.149-0.312,0.298-0.667,0.447-1.064c0.149-0.397,0.288-0.784,0.415-1.16c0.128-0.376,0.213-0.621,0.256-0.734
			c0.028-0.128,0.092-0.213,0.191-0.256c0.1-0.042,0.195-0.053,0.288-0.032c0.092,0.021,0.17,0.071,0.234,0.149
			c0.064,0.078,0.074,0.181,0.032,0.309c-0.085,0.284-0.199,0.681-0.341,1.192c-0.142,0.511-0.319,1.014-0.532,1.511
			c-0.213,0.497-0.468,0.929-0.766,1.298c-0.298,0.369-0.653,0.554-1.064,0.554c-0.383,0-0.671-0.202-0.862-0.607
			c-0.192-0.404-0.323-0.919-0.394-1.543c-0.071-0.624-0.096-1.32-0.075-2.086c0.022-0.766,0.06-1.514,0.117-2.245
			c0.057-0.731,0.113-1.397,0.171-2.001C36.672,68.806,36.701,68.349,36.701,68.036z"/>
		<path fill="#434953" d="M43.149,73.208c-0.113,0.156-0.255,0.284-0.425,0.383c-0.171,0.1-0.355,0.181-0.554,0.245
			c-0.199,0.064-0.401,0.11-0.606,0.138c-0.206,0.029-0.387,0.05-0.543,0.064c-0.043,0.298-0.068,0.589-0.075,0.873
			c-0.007,0.284,0.007,0.539,0.043,0.766c0.035,0.227,0.092,0.419,0.17,0.575c0.078,0.156,0.188,0.255,0.33,0.298
			c0.184,0.057,0.383,0.025,0.596-0.096c0.213-0.12,0.419-0.287,0.617-0.5c0.198-0.213,0.39-0.461,0.575-0.745
			c0.184-0.284,0.347-0.557,0.49-0.82c0.141-0.262,0.262-0.503,0.361-0.723c0.1-0.22,0.163-0.379,0.192-0.479
			c0.043-0.128,0.11-0.213,0.202-0.256c0.092-0.042,0.181-0.056,0.266-0.042c0.085,0.014,0.156,0.06,0.213,0.138
			c0.057,0.078,0.071,0.181,0.043,0.309c-0.029,0.085-0.078,0.252-0.149,0.5c-0.071,0.248-0.174,0.529-0.309,0.841
			c-0.135,0.312-0.298,0.635-0.489,0.968c-0.192,0.334-0.423,0.639-0.692,0.915c-0.27,0.276-0.578,0.507-0.926,0.691
			c-0.348,0.185-0.734,0.277-1.16,0.277c-0.511,0-0.908-0.177-1.192-0.532c-0.284-0.355-0.476-0.802-0.575-1.341
			c-0.099-0.539-0.117-1.118-0.053-1.735c0.064-0.617,0.191-1.195,0.383-1.735c0.192-0.539,0.433-0.986,0.724-1.341
			c0.291-0.354,0.613-0.532,0.968-0.532c0.341,0,0.642,0.117,0.905,0.352c0.262,0.234,0.464,0.507,0.606,0.819
			c0.142,0.312,0.224,0.631,0.245,0.958C43.352,72.768,43.291,73.024,43.149,73.208z M41.83,71.314
			c-0.099,0.042-0.206,0.223-0.32,0.543c-0.113,0.319-0.22,0.706-0.319,1.16c0.156,0,0.312-0.018,0.468-0.054
			c0.156-0.035,0.27-0.11,0.341-0.223c0.057-0.085,0.092-0.209,0.106-0.373c0.014-0.163,0.011-0.33-0.01-0.5
			c-0.022-0.17-0.057-0.312-0.107-0.426C41.94,71.328,41.886,71.285,41.83,71.314z"/>
		<path fill="#434953" d="M64.751,79.124c0.142,0.057,0.248,0.153,0.319,0.288c0.071,0.135,0.064,0.273-0.021,0.415
			c-0.085,0.142-0.263,0.255-0.532,0.34c-0.27,0.085-0.667,0.1-1.192,0.043c-0.341-0.029-0.809-0.178-1.405-0.447
			c-0.596-0.27-1.274-0.596-2.033-0.979c-0.759-0.383-1.575-0.802-2.448-1.256c-0.872-0.454-1.759-0.894-2.66-1.32
			c-0.902-0.425-1.795-0.805-2.682-1.138c-0.887-0.334-1.713-0.571-2.479-0.713c-0.043,0.44-0.092,0.897-0.149,1.372
			c-0.057,0.476-0.128,0.912-0.213,1.309c-0.085,0.397-0.185,0.724-0.298,0.979c-0.113,0.255-0.241,0.383-0.383,0.383
			c-0.156,0-0.277-0.181-0.362-0.543c-0.085-0.362-0.156-0.774-0.213-1.235c-0.057-0.461-0.092-0.908-0.106-1.341
			c-0.014-0.432-0.021-0.713-0.021-0.84v-0.745c-0.355-0.128-0.66-0.28-0.916-0.458c-0.255-0.177-0.383-0.365-0.383-0.564
			c0-0.071,0.043-0.134,0.128-0.192c0.085-0.056,0.241-0.085,0.468-0.085c0.213,0,0.461,0.036,0.745,0.107
			c0.014-0.198,0.028-0.401,0.043-0.607c0.014-0.206,0.039-0.45,0.074-0.734c0.036-0.284,0.078-0.618,0.128-1.001
			c0.05-0.383,0.117-0.844,0.202-1.383c0.085-0.539,0.153-0.887,0.202-1.043c0.05-0.156,0.124-0.234,0.224-0.234
			c0.241,0,0.447,0.053,0.617,0.159c0.17,0.107,0.309,0.234,0.415,0.383c0.107,0.149,0.185,0.309,0.234,0.479
			c0.05,0.171,0.075,0.312,0.075,0.426c0,0.695-0.061,1.391-0.181,2.086c-0.121,0.695-0.195,1.412-0.224,2.15
			c0.497,0.042,1.1,0.053,1.809,0.032c0.709-0.022,1.454-0.092,2.235-0.213c0.78-0.121,1.557-0.294,2.33-0.522
			c0.773-0.227,1.469-0.528,2.086-0.904c0.618-0.376,1.118-0.823,1.501-1.341c0.383-0.518,0.575-1.131,0.575-1.841
			c0-0.539-0.167-1.004-0.501-1.394c-0.333-0.39-0.766-0.72-1.298-0.989s-1.125-0.49-1.777-0.66
			c-0.653-0.17-1.302-0.302-1.948-0.394c-0.646-0.092-1.252-0.152-1.82-0.181c-0.568-0.028-1.021-0.042-1.362-0.042
			c-1.248,0-2.476,0.113-3.682,0.34c-1.206,0.227-2.362,0.61-3.469,1.15c-0.326,0.156-0.635,0.319-0.926,0.489
			c-0.291,0.17-0.628,0.362-1.011,0.575c-0.042,0.042-0.167,0.131-0.372,0.266c-0.206,0.135-0.419,0.252-0.639,0.351
			c-0.22,0.1-0.419,0.149-0.596,0.149c-0.177,0-0.266-0.113-0.266-0.34c0-0.241,0.096-0.472,0.287-0.692
			c0.192-0.22,0.387-0.429,0.586-0.628c0.624-0.624,1.319-1.145,2.086-1.565c0.766-0.418,1.568-0.755,2.405-1.011
			c0.837-0.255,1.692-0.439,2.565-0.553c0.873-0.113,1.735-0.17,2.586-0.17c0.454,0,1.028,0.025,1.724,0.074
			c0.695,0.05,1.429,0.142,2.203,0.277c0.773,0.135,1.554,0.323,2.341,0.564c0.788,0.241,1.493,0.553,2.118,0.936
			c0.624,0.384,1.131,0.848,1.522,1.394c0.39,0.546,0.586,1.188,0.586,1.926c0,0.582-0.121,1.128-0.362,1.639
			c-0.242,0.511-0.568,0.976-0.979,1.394c-0.412,0.419-0.898,0.798-1.458,1.139c-0.561,0.34-1.16,0.631-1.799,0.873
			c-0.639,0.241-1.298,0.443-1.979,0.606c-0.681,0.163-1.355,0.273-2.022,0.33c0.809,0.298,1.717,0.663,2.724,1.096
			c1.007,0.433,2.036,0.876,3.086,1.33c1.05,0.454,2.086,0.897,3.107,1.33C62.941,78.439,63.885,78.812,64.751,79.124z"/>
		<path fill="#434953" d="M64.069,71.122c0.198,0.043,0.372,0.135,0.521,0.277c0.149,0.142,0.273,0.298,0.373,0.468
			c0.113-0.128,0.255-0.198,0.425-0.213c0.171-0.014,0.333,0.011,0.49,0.075c0.156,0.064,0.284,0.163,0.383,0.298
			c0.099,0.135,0.135,0.294,0.106,0.479c-0.057,0.255-0.11,0.574-0.159,0.958c-0.05,0.383-0.082,0.752-0.096,1.106
			c-0.014,0.355-0.004,0.66,0.032,0.916c0.035,0.255,0.11,0.383,0.223,0.383c0.086,0,0.188-0.11,0.309-0.33
			c0.121-0.22,0.241-0.479,0.362-0.777c0.12-0.298,0.23-0.596,0.33-0.894c0.099-0.298,0.163-0.525,0.191-0.681
			c0.043-0.142,0.113-0.238,0.213-0.288c0.099-0.05,0.195-0.063,0.288-0.042c0.092,0.021,0.17,0.074,0.234,0.16
			c0.064,0.085,0.074,0.191,0.032,0.319c-0.029,0.085-0.075,0.245-0.139,0.479c-0.064,0.234-0.145,0.493-0.244,0.777
			c-0.099,0.284-0.216,0.578-0.352,0.883c-0.135,0.305-0.291,0.575-0.468,0.809c-0.177,0.234-0.376,0.415-0.596,0.543
			c-0.22,0.127-0.458,0.156-0.713,0.085c-0.412-0.113-0.71-0.362-0.894-0.745c-0.114,0.34-0.27,0.649-0.468,0.926
			c-0.199,0.276-0.454,0.479-0.766,0.606c-0.298,0.099-0.561,0.121-0.788,0.064c-0.412-0.113-0.738-0.369-0.979-0.766
			c-0.241-0.397-0.405-0.858-0.49-1.384c-0.085-0.525-0.092-1.071-0.021-1.639c0.071-0.567,0.216-1.078,0.436-1.532
			c0.22-0.454,0.514-0.812,0.884-1.075C63.097,71.104,63.544,71.023,64.069,71.122z M64.622,73.271
			c-0.028-0.241-0.082-0.475-0.16-0.702c-0.078-0.227-0.195-0.355-0.351-0.384c-0.227-0.042-0.429,0.04-0.606,0.245
			c-0.178,0.206-0.323,0.479-0.437,0.82c-0.113,0.34-0.195,0.713-0.245,1.117c-0.05,0.405-0.063,0.788-0.042,1.15
			c0.021,0.361,0.078,0.67,0.17,0.925c0.092,0.256,0.23,0.397,0.415,0.426c0.185,0.029,0.358-0.071,0.522-0.298
			c0.163-0.227,0.305-0.518,0.425-0.873c0.121-0.354,0.213-0.748,0.277-1.181C64.654,74.084,64.665,73.669,64.622,73.271z"/>
		<path fill="#434953" d="M67.836,67.759c0-0.34,0.092-0.578,0.276-0.713c0.185-0.135,0.384-0.195,0.596-0.181
			c0.213,0.014,0.401,0.092,0.564,0.234c0.163,0.142,0.224,0.327,0.181,0.554c-0.014,0.071-0.036,0.23-0.063,0.479
			c-0.029,0.248-0.057,0.56-0.086,0.936c-0.028,0.376-0.063,0.795-0.106,1.256c-0.043,0.461-0.085,0.94-0.128,1.437
			c0.128-0.142,0.277-0.256,0.447-0.341c0.171-0.085,0.376-0.128,0.617-0.128c0.411,0,0.745,0.135,1.001,0.405
			c0.255,0.27,0.44,0.61,0.553,1.022c0.113,0.411,0.153,0.851,0.117,1.319c-0.036,0.468-0.138,0.908-0.308,1.32
			c-0.171,0.412-0.412,0.752-0.724,1.022c-0.312,0.27-0.681,0.404-1.107,0.404c-0.369,0-0.667-0.128-0.894-0.383v0.617
			c-0.014,0.198-0.103,0.351-0.266,0.458c-0.163,0.106-0.34,0.163-0.532,0.17c-0.192,0.007-0.362-0.036-0.511-0.128
			c-0.149-0.092-0.216-0.244-0.202-0.457c0.028-0.355,0.064-0.812,0.106-1.373c0.043-0.56,0.086-1.16,0.128-1.799
			c0.043-0.638,0.085-1.288,0.128-1.947c0.042-0.66,0.078-1.273,0.106-1.841c0.028-0.567,0.053-1.06,0.075-1.479
			C67.825,68.203,67.836,67.916,67.836,67.759z M68.9,74.272c-0.014,0.086-0.025,0.174-0.032,0.266
			c-0.007,0.093-0.011,0.189-0.011,0.288c0.028,0.284,0.089,0.521,0.181,0.713c0.092,0.191,0.238,0.302,0.437,0.33
			c0.127,0.028,0.248-0.043,0.362-0.213c0.113-0.17,0.209-0.39,0.287-0.66c0.078-0.269,0.138-0.567,0.181-0.894
			c0.042-0.326,0.067-0.635,0.074-0.926c0.007-0.291-0.01-0.535-0.053-0.734c-0.043-0.198-0.106-0.312-0.192-0.341
			c-0.156-0.042-0.302,0-0.436,0.128c-0.135,0.128-0.255,0.302-0.362,0.521c-0.106,0.221-0.198,0.469-0.276,0.745
			C68.982,73.772,68.929,74.031,68.9,74.272z"/>
		<path fill="#434953" d="M72.944,67.759c0-0.34,0.092-0.578,0.276-0.713c0.185-0.135,0.384-0.195,0.596-0.181
			c0.213,0.014,0.401,0.092,0.564,0.234c0.163,0.142,0.224,0.327,0.181,0.554c-0.014,0.071-0.036,0.23-0.063,0.479
			c-0.029,0.248-0.057,0.56-0.086,0.936c-0.028,0.376-0.063,0.795-0.106,1.256c-0.043,0.461-0.085,0.94-0.128,1.437
			c0.128-0.142,0.277-0.256,0.447-0.341c0.171-0.085,0.376-0.128,0.617-0.128c0.411,0,0.745,0.135,1.001,0.405
			c0.255,0.27,0.44,0.61,0.553,1.022c0.113,0.411,0.153,0.851,0.117,1.319c-0.036,0.468-0.138,0.908-0.308,1.32
			c-0.171,0.412-0.412,0.752-0.724,1.022c-0.312,0.27-0.681,0.404-1.107,0.404c-0.369,0-0.667-0.128-0.894-0.383v0.617
			c-0.014,0.198-0.103,0.351-0.266,0.458c-0.163,0.106-0.34,0.163-0.532,0.17c-0.192,0.007-0.362-0.036-0.511-0.128
			s-0.216-0.244-0.202-0.457c0.028-0.355,0.064-0.812,0.106-1.373c0.043-0.56,0.086-1.16,0.128-1.799
			c0.043-0.638,0.085-1.288,0.128-1.947c0.042-0.66,0.078-1.273,0.106-1.841c0.028-0.567,0.053-1.06,0.075-1.479
			C72.933,68.203,72.944,67.916,72.944,67.759z M74.008,74.272c-0.014,0.086-0.025,0.174-0.032,0.266
			c-0.007,0.093-0.011,0.189-0.011,0.288c0.028,0.284,0.089,0.521,0.181,0.713c0.092,0.191,0.238,0.302,0.437,0.33
			c0.127,0.028,0.248-0.043,0.362-0.213c0.113-0.17,0.209-0.39,0.287-0.66c0.078-0.269,0.138-0.567,0.181-0.894
			c0.042-0.326,0.067-0.635,0.074-0.926c0.007-0.291-0.01-0.535-0.053-0.734c-0.043-0.198-0.106-0.312-0.192-0.341
			c-0.156-0.042-0.302,0-0.436,0.128c-0.135,0.128-0.255,0.302-0.362,0.521c-0.106,0.221-0.198,0.469-0.276,0.745
			C74.089,73.772,74.036,74.031,74.008,74.272z"/>
		<path fill="#434953" d="M80.222,69.59c0.028,0.156,0.01,0.302-0.053,0.436c-0.064,0.135-0.16,0.255-0.288,0.362
			c-0.127,0.106-0.276,0.195-0.447,0.266c-0.17,0.071-0.348,0.121-0.532,0.149c-0.355,0.042-0.702,0.007-1.043-0.107
			c-0.34-0.113-0.532-0.319-0.575-0.617c-0.056-0.312,0.04-0.578,0.288-0.798c0.248-0.22,0.578-0.365,0.99-0.436
			c0.411-0.071,0.78-0.039,1.106,0.095C79.995,69.075,80.179,69.292,80.222,69.59z M77.795,72.506c0-0.341,0.089-0.575,0.266-0.703
			c0.177-0.127,0.373-0.177,0.586-0.149c0.213,0.029,0.397,0.121,0.553,0.277c0.156,0.156,0.213,0.348,0.17,0.575
			c-0.057,0.255-0.11,0.574-0.159,0.958c-0.05,0.383-0.082,0.752-0.096,1.106c-0.014,0.355-0.004,0.66,0.032,0.916
			c0.035,0.255,0.117,0.383,0.245,0.383c0.085,0,0.188-0.11,0.308-0.33c0.121-0.22,0.238-0.479,0.352-0.777
			c0.113-0.298,0.22-0.596,0.319-0.894c0.099-0.298,0.163-0.525,0.191-0.681c0.043-0.142,0.113-0.238,0.213-0.288
			c0.099-0.05,0.195-0.063,0.288-0.042c0.092,0.021,0.17,0.074,0.234,0.16c0.064,0.085,0.074,0.191,0.032,0.319
			c-0.029,0.085-0.075,0.245-0.139,0.479c-0.064,0.234-0.145,0.493-0.245,0.777c-0.099,0.284-0.216,0.578-0.351,0.883
			c-0.135,0.305-0.291,0.575-0.468,0.809c-0.177,0.234-0.372,0.415-0.585,0.543c-0.213,0.127-0.447,0.156-0.703,0.085
			c-0.383-0.113-0.656-0.323-0.819-0.628c-0.163-0.305-0.259-0.66-0.288-1.064c-0.028-0.405-0.024-0.844,0.011-1.32
			C77.777,73.424,77.795,72.96,77.795,72.506z"/>
		<path fill="#434953" d="M80.796,69.951c0-0.099,0.004-0.195,0.011-0.287c0.007-0.092,0.01-0.174,0.01-0.245
			c0-0.34,0.092-0.578,0.277-0.713c0.185-0.135,0.383-0.195,0.596-0.181c0.213,0.014,0.401,0.093,0.564,0.235
			c0.163,0.142,0.224,0.326,0.181,0.553l-0.106,0.553h0.511c0.269,0,0.464,0.046,0.585,0.139c0.12,0.092,0.181,0.191,0.181,0.298
			c0,0.106-0.064,0.202-0.192,0.287c-0.128,0.085-0.305,0.128-0.532,0.128h-0.638c-0.057,0.511-0.107,1.075-0.149,1.692
			c-0.043,0.617-0.072,1.199-0.086,1.745c-0.014,0.546-0.007,1.001,0.022,1.362c0.028,0.361,0.092,0.542,0.191,0.542
			c0.085,0,0.202-0.127,0.351-0.383c0.149-0.255,0.302-0.549,0.458-0.883c0.156-0.334,0.298-0.66,0.426-0.979
			c0.127-0.32,0.213-0.536,0.255-0.649c0.028-0.128,0.092-0.213,0.192-0.256c0.099-0.042,0.195-0.053,0.287-0.032
			c0.092,0.021,0.17,0.071,0.234,0.149c0.064,0.078,0.075,0.181,0.032,0.309c-0.085,0.284-0.199,0.653-0.34,1.107
			c-0.142,0.454-0.32,0.894-0.533,1.319c-0.212,0.426-0.468,0.795-0.766,1.107c-0.298,0.312-0.653,0.468-1.064,0.468
			c-0.27,0-0.49-0.106-0.66-0.319c-0.17-0.213-0.298-0.493-0.383-0.841c-0.085-0.347-0.138-0.748-0.16-1.202
			c-0.021-0.454-0.024-0.922-0.01-1.405c0.014-0.482,0.042-0.969,0.085-1.458c0.042-0.49,0.078-0.94,0.106-1.352h-0.511
			c-0.227,0-0.401-0.042-0.521-0.127c-0.121-0.086-0.184-0.177-0.192-0.277c-0.007-0.099,0.046-0.192,0.16-0.277
			c0.114-0.085,0.298-0.128,0.553-0.128H80.796z"/>
	</g>
	<g>
		<path fill="#434953" d="M67.196,41.487c-0.211-2.539-1.679-4.795-3.927-6.036c-0.044-0.025-0.088-0.043-0.131-0.063l-0.169-0.081
			l-2.391-1.19l2.191-1.526c1.027-0.715,2.234-1.094,3.492-1.094c1.032,0,2.06,0.266,2.97,0.769
			c1.427,0.788,2.466,2.079,2.927,3.635c0.462,1.564,0.285,3.207-0.5,4.628c-0.485,0.878-1.189,1.627-2.035,2.165l-2.21,1.406
			L67.196,41.487z"/>
		<path fill="#434953" d="M39.543,62.155c-1.536,0-2.981-0.755-3.863-2.02c-0.095-0.136-0.181-0.277-0.261-0.422
			c-0.013-0.024-0.033-0.061-0.052-0.098c-0.069-0.133-0.124-0.253-0.174-0.374l-0.065-0.165c-0.027-0.071-0.052-0.148-0.076-0.226
			c-1.732-0.342-3.076-1.765-3.299-3.52c-0.092-0.727,0.016-1.448,0.29-2.099c-0.799-0.544-1.471-1.313-1.975-2.279
			c-1.792-3.439-1.372-9.049,0.998-13.34c0.838-1.518,1.921-2.889,3.166-4.017c-1.353-4.779-1.268-9.572,0.259-12.993l0.858-1.922
			l1.609,1.356c1.995,1.681,3.534,3.973,4.452,6.627c0.261,0.756,0.464,1.521,0.608,2.29c0.267-0.702,0.587-1.39,0.957-2.059
			c2.019-3.655,5.337-6.313,8.876-7.111l1.316-0.296l0.502,1.252c1.301,3.242,1.033,7.234-0.694,10.849
			c1.122-0.245,2.261-0.37,3.4-0.37c3.858,0,7.491,1.427,10.229,4.019c3.341,3.164,5.459,8.241,5.396,12.936
			c-0.041,2.987-0.961,5.509-2.671,7.35c0.012,1.098-0.344,2.164-1.03,3.048c-0.803,1.036-1.961,1.696-3.261,1.861L53.32,62.055
			c-0.221,0.028-0.425,0.041-0.628,0.041c-0.745,0-1.497-0.177-2.174-0.513c-0.118-0.058-0.239-0.121-0.357-0.192
			c-0.066-0.04-0.132-0.084-0.198-0.129c-0.105-0.071-0.197-0.135-0.285-0.202c-0.057-0.045-0.108-0.088-0.157-0.129l-9.385,1.187
			C39.94,62.142,39.741,62.155,39.543,62.155L39.543,62.155z"/>
		<g>
			<path fill="#FEFBD9" d="M68.465,33.65c-1.571-0.868-3.425-0.713-4.791,0.238c0.121,0.06,0.242,0.111,0.361,0.176
				c2.81,1.552,4.493,4.341,4.738,7.291c0.607-0.386,1.128-0.923,1.499-1.594C71.467,37.597,70.658,34.861,68.465,33.65z"/>
			<path fill="#FEFBD9" d="M65.514,36.385c-3.573-3.382-8.598-4.345-13.189-3c-0.437,0.584-0.908,1.123-1.407,1.61
				c1.564,3.106,1.547,7.319-1.06,10.636c-1.031,1.311-2.438,3.054-4.773,4.275c1.327-1.039,2.235-2.161,2.894-2.954
				c3.291-3.961,2.75-8.671,0.445-11.764c1.037-0.969,1.968-2.145,2.721-3.507c1.951-3.531,2.232-7.416,1.054-10.355
				c-2.994,0.675-5.964,2.94-7.838,6.332c-0.767,1.389-1.272,2.834-1.536,4.254c-0.699-0.061-1.412-0.026-2.127,0.1
				c0.027-1.558-0.221-3.201-0.785-4.833c-0.85-2.458-2.274-4.499-3.975-5.933c-1.431,3.207-1.488,7.987,0.114,12.888
				c-1.395,1.078-2.643,2.511-3.6,4.242c-3.007,5.446-2.573,13.673,2.236,14.181c-0.922,0.475-1.5,1.483-1.363,2.572
				c0.146,1.154,1.048,2.018,2.144,2.185c-0.019-0.09-0.037-0.179-0.046-0.272c-0.175-1.726,1.337-3.368,3.377-3.669l0.149-0.022
				c0.964-0.031,2.583,0.547,2.756,1.761c0,0-0.983-1.098-2.552-0.773c-1.205,0.25-2.667,1.55-2.725,3.091
				c-0.001,0.134-0.003,0.269,0.014,0.406c0.015,0.121,0.039,0.239,0.067,0.355c0.008,0.034,0.02,0.067,0.029,0.101
				c0.023,0.082,0.048,0.164,0.078,0.243c0.012,0.034,0.026,0.067,0.039,0.1c0.034,0.081,0.071,0.161,0.11,0.238
				c0.013,0.025,0.026,0.051,0.039,0.075c0.054,0.096,0.11,0.19,0.173,0.28c0.644,0.923,1.765,1.469,2.96,1.318l8.629-1.091
				c-0.718-0.587-1.187-1.455-1.214-2.44c-0.028-0.958,0.368-1.831,1.019-2.455c0.094,0.599,0.541,1.126,1.196,1.485
				c-0.178,0.484-0.249,1.015-0.179,1.562c0.084,0.667,0.366,1.257,0.772,1.731c0.059,0.069,0.119,0.137,0.182,0.201
				c0.042,0.042,0.088,0.081,0.133,0.122c0.056,0.049,0.11,0.099,0.169,0.145c0.061,0.047,0.125,0.09,0.189,0.133
				c0.047,0.032,0.094,0.065,0.143,0.094c0.078,0.047,0.161,0.09,0.243,0.13c0.564,0.279,1.21,0.408,1.882,0.323l11.736-1.628
				c1.821-0.23,3.109-1.892,2.88-3.713c-0.009-0.075-0.026-0.148-0.039-0.221C72.535,50.569,70.381,40.992,65.514,36.385z
				 M60.81,40.034c-3.989,0-7.221,3.878-7.221,8.66c0,1.681,0.406,3.246,1.098,4.575c-0.625-0.251-1.258-0.455-1.894-0.608
				c-0.577-1.229-0.905-2.638-0.905-4.137c0-4.783,3.339-8.66,7.46-8.66c0.505,0,0.998,0.06,1.474,0.171
				C60.818,40.035,60.814,40.034,60.81,40.034z"/>
		</g>
		<path fill="#434953" d="M37.936,48.212c0,0.181,0.019,0.358,0.048,0.53c0.454,0.27,0.981,0.428,1.548,0.428
			c1.675,0,3.034-1.358,3.034-3.033c0-0.181-0.019-0.358-0.049-0.53c-0.454-0.27-0.981-0.428-1.548-0.428
			C39.294,45.179,37.936,46.537,37.936,48.212z"/>
		<path fill="#434953" d="M29.705,47.564c0.116,0.014,0.235,0.023,0.356,0.023c0.566,0,1.094-0.158,1.548-0.428
			c0.03-0.172,0.048-0.349,0.048-0.53c0-1.328-0.855-2.453-2.041-2.865c-0.075,0.529-0.124,1.069-0.124,1.623
			C29.491,46.136,29.57,46.863,29.705,47.564z"/>
	</g>
</g>
</svg>
