<svg width="117" height="40" viewBox="0 0 117 40" fill="none" xmlns="http://www.w3.org/2000/svg">
<path fill-rule="evenodd" clip-rule="evenodd" d="M10.3566 18.5672L18.5709 9.96832C24.5191 3.66244 16.8713 -4.0766 10.3566 2.5159C3.8419 -4.0766 -3.80578 3.66244 2.14243 9.96832L10.3566 18.5672Z" transform="translate(9.12451)" fill="#5F45EA"/>
<path fill-rule="evenodd" clip-rule="evenodd" d="M10.3566 0L18.5709 8.59892C24.5191 14.9048 16.8713 22.6438 10.3566 16.0513C3.8419 22.6438 -3.80578 14.9048 2.14243 8.59892L10.3566 0Z" transform="translate(9.12451 21.4326)" fill="#FF8B8D"/>
<path fill-rule="evenodd" clip-rule="evenodd" d="M-3.45762e-05 10.4803L8.49741 18.7926C14.7289 24.8118 22.3766 17.0728 15.8619 10.4803C22.3766 3.88781 14.7289 -3.8512 8.49741 2.16805L-3.45762e-05 10.4803Z" transform="translate(20.8972 9.51953)" fill="#8667F7"/>
<path fill-rule="evenodd" clip-rule="evenodd" d="M18.3481 10.4803L9.85066 18.7926C3.6192 24.8118 -4.02851 17.0728 2.48619 10.4803C-4.02851 3.88781 3.6192 -3.8512 9.85066 2.16805L18.3481 10.4803Z" transform="translate(0 9.51953)" fill="#FFC69C"/>
<path d="M8.31357 12.7719C8.39884 12.7719 8.47345 12.7719 8.5374 12.7719C8.62266 12.7505 8.71859 12.729 8.82518 12.7076V12.7719C8.97439 12.729 9.14493 12.7076 9.33678 12.7076C9.54995 12.7076 9.69917 12.729 9.78443 12.7719C9.84838 12.6647 9.91233 12.6432 9.97628 12.7076C10.8929 12.5789 11.8202 12.4824 12.7581 12.418C13.0566 12.3751 13.3443 12.343 13.6215 12.3215C13.8986 12.2786 14.1864 12.2786 14.4848 12.3215C14.4635 12.4288 14.4208 12.4824 14.3569 12.4824C14.2929 12.4609 14.2397 12.4717 14.197 12.5146C14.1544 12.4717 14.1224 12.4609 14.1011 12.4824C14.0798 12.5038 14.0478 12.5038 14.0052 12.4824C13.9839 12.4824 13.9732 12.4931 13.9732 12.5146V12.5467C13.5255 12.5896 13.0779 12.6432 12.6302 12.7076C12.2039 12.7719 11.7776 12.8577 11.3512 12.9649C11.3299 12.9649 11.3086 12.9542 11.2873 12.9328C11.1594 12.9757 11.0208 13.0078 10.8716 13.0293C10.7224 13.0293 10.5838 13.0615 10.4559 13.1258C10.5412 13.1687 10.6051 13.1794 10.6478 13.158C10.7117 13.1151 10.7863 13.0722 10.8716 13.0293C10.9142 13.0293 10.9675 13.04 11.0315 13.0615C11.0954 13.0829 11.1487 13.0722 11.1913 13.0293C11.2979 13.0293 11.3939 13.0293 11.4791 13.0293C11.5857 13.0078 11.671 12.9971 11.7349 12.9971H11.8628C11.9268 13.04 11.9907 13.0507 12.0547 13.0293C12.1186 13.0078 12.1719 12.9971 12.2146 12.9971V13.0615C12.2146 13.04 12.2252 13.04 12.2465 13.0615C12.2892 13.0615 12.2998 13.0722 12.2785 13.0936C12.2998 13.0293 12.3318 13.0078 12.3744 13.0293C12.4384 13.0293 12.4597 13.0078 12.4384 12.9649C12.5663 12.9864 12.7155 12.9971 12.886 12.9971C13.0566 12.9757 13.2058 12.9435 13.3337 12.9006C13.355 12.9221 13.3763 12.9328 13.3976 12.9328C13.4403 12.9328 13.4722 12.9113 13.4936 12.8684C13.6215 12.9113 13.7813 12.9221 13.9732 12.9006C14.165 12.8577 14.3249 12.8577 14.4528 12.9006C14.3462 12.9649 14.2503 12.9971 14.165 12.9971C14.1011 12.9757 14.0265 12.9757 13.9412 12.9971C14.0052 13.0615 14.0798 13.1044 14.165 13.1258C14.2503 13.1258 14.3356 13.1365 14.4208 13.158C14.3995 13.2009 14.3782 13.2223 14.3569 13.2223C14.3356 13.2009 14.3143 13.2009 14.2929 13.2223C14.3356 13.2652 14.3782 13.2759 14.4208 13.2545C14.4635 13.233 14.5061 13.233 14.5487 13.2545C14.4848 13.2974 14.4102 13.3188 14.3249 13.3188C14.261 13.2974 14.2077 13.2867 14.165 13.2867V13.3188C14.165 13.3403 14.1544 13.351 14.1331 13.351L12.2146 13.5119C12.1719 13.5976 12.0973 13.6513 11.9907 13.6727C11.9055 13.6727 11.8095 13.6942 11.7029 13.7371C11.7029 13.7371 11.7029 13.7049 11.7029 13.6405C11.5324 13.6834 11.3725 13.7156 11.2233 13.7371C11.0954 13.7585 10.9675 13.7907 10.8396 13.8336C10.9036 13.8765 10.9995 13.8872 11.1274 13.8657C11.2766 13.8228 11.4045 13.8014 11.5111 13.8014C11.5111 13.8443 11.4898 13.8657 11.4471 13.8657C11.4258 13.8443 11.3939 13.8443 11.3512 13.8657C11.7776 13.8443 12.1826 13.8014 12.5663 13.7371C12.9713 13.6727 13.387 13.6405 13.8133 13.6405C13.792 13.6834 13.7707 13.7049 13.7494 13.7049C13.728 13.6834 13.7067 13.6942 13.6854 13.7371C13.5149 13.6942 13.3017 13.7156 13.0459 13.8014C12.8114 13.8657 12.5983 13.9194 12.4064 13.9623C12.0867 14.0051 11.7776 14.0588 11.4791 14.1231C11.202 14.1874 10.9142 14.2518 10.6158 14.3161C10.3174 14.3805 9.98694 14.4555 9.62456 14.5413C9.28349 14.6271 8.87847 14.7022 8.4095 14.7665C8.43081 14.8094 8.45213 14.8201 8.47345 14.7987C8.49476 14.7773 8.50542 14.7773 8.50542 14.7987C8.29225 14.8845 8.03645 14.9596 7.73802 15.0239C7.4609 15.0668 7.17312 15.1311 6.87468 15.2169C7.1518 15.2169 7.42892 15.1848 7.70604 15.1204C8.00448 15.0561 8.27094 14.9917 8.50542 14.9274C8.46279 15.0132 8.38818 15.0561 8.28159 15.0561C8.17501 15.0561 8.08974 15.0668 8.02579 15.0882C7.74867 15.1311 7.47156 15.1955 7.19444 15.2813C6.91732 15.3456 6.65086 15.3992 6.39505 15.4421C6.13925 16.0641 5.83016 16.7933 5.46777 17.6298C5.1267 18.4662 4.77497 19.3455 4.41259 20.2678C4.07152 21.1686 3.74111 22.0586 3.42135 22.938C3.1016 23.8388 2.85646 24.6538 2.68592 25.383C2.57934 25.6833 2.51539 25.9942 2.49407 26.3159C2.47275 26.6591 2.48341 26.9808 2.52605 27.2811C2.50473 27.324 2.47275 27.324 2.43012 27.2811C2.4088 27.2382 2.39815 27.206 2.39815 27.1846C2.35551 27.1846 2.33419 27.2167 2.33419 27.2811C2.29156 27.2811 2.27024 27.2596 2.27024 27.2167C2.27024 27.1953 2.24893 27.1953 2.20629 27.2167C2.18498 27.2596 2.18498 27.3133 2.20629 27.3776C2.22761 27.4419 2.20629 27.5063 2.14234 27.5706C2.09971 27.4848 1.99313 27.3883 1.82259 27.2811C1.65206 27.1738 1.52415 27.0666 1.43889 26.9594C1.39625 27.0023 1.38559 27.0666 1.40691 27.1524C1.44955 27.2596 1.48152 27.3347 1.50284 27.3776C1.39625 27.4205 1.32164 27.4956 1.27901 27.6028C1.25769 27.7315 1.24704 27.8387 1.24704 27.9245L1.08716 27.6993C1.06584 27.6993 1.05518 27.71 1.05518 27.7315C1.0765 27.7744 1.06584 27.7851 1.02321 27.7636C1.02321 27.4848 0.937941 27.2275 0.767406 26.9915C0.81004 27.0988 0.799382 27.1631 0.735431 27.1846C0.671481 27.2275 0.650164 27.3025 0.671481 27.4098C0.628847 27.4098 0.60753 27.4098 0.60753 27.4098C0.564896 27.4956 0.554238 27.5599 0.575555 27.6028C0.618189 27.6457 0.618189 27.6993 0.575555 27.7636C0.447654 27.635 0.426337 27.4741 0.511604 27.2811C0.596872 27.0881 0.586213 26.9058 0.479629 26.7342C0.479629 26.82 0.436995 26.8629 0.351728 26.8629C0.351728 26.7127 0.330411 26.5733 0.287777 26.4446C0.266461 26.3159 0.266461 26.1658 0.287777 25.9942C0.266461 25.9728 0.255802 25.9835 0.255802 26.0264C0.213168 25.9835 0.20251 25.9406 0.223827 25.8977C0.245144 25.8548 0.245144 25.8227 0.223827 25.8012C0.181193 25.8227 0.170535 25.8548 0.191852 25.8977C0.213168 25.9406 0.213168 25.9835 0.191852 26.0264C0.149218 25.9621 0.138559 25.8763 0.159876 25.769C0.20251 25.6618 0.20251 25.5653 0.159876 25.4795C0.138559 25.4795 0.117243 25.4902 0.0959258 25.5117C0.0959258 25.4473 0.0959258 25.3615 0.0959258 25.2543C0.117243 25.1685 0.127901 25.072 0.127901 24.9648C0.0852674 24.9648 0.0639506 24.9862 0.0639506 25.0291C0.0852674 25.072 0.0746089 25.0934 0.0319752 25.0934C0.0959257 24.45 0.223827 23.7208 0.415679 22.9058C0.628847 22.1123 0.863332 21.308 1.11913 20.493C1.39625 19.678 1.66271 18.9059 1.91852 18.1767C2.19564 17.426 2.43012 16.804 2.62197 16.3107C2.55802 16.225 2.49407 16.2142 2.43012 16.2786C2.36617 16.3429 2.31288 16.3751 2.27024 16.3751C2.24893 16.3751 2.22761 16.3644 2.20629 16.3429C2.18498 16.3215 2.16366 16.3107 2.14234 16.3107C2.05708 16.3107 1.96115 16.3322 1.85457 16.3751C1.7693 16.418 1.67337 16.4501 1.56679 16.4716C1.43889 16.493 1.3323 16.5145 1.24704 16.5359C1.16177 16.5359 1.09782 16.4823 1.05518 16.3751C1.03387 16.3322 1.03387 16.3322 1.05518 16.3751C1.09782 16.418 1.11913 16.418 1.11913 16.3751C1.0765 16.2893 1.00189 16.225 0.895308 16.1821C0.788723 16.1392 0.682139 16.1284 0.575555 16.1499C0.532921 16.107 0.490287 16.0855 0.447654 16.0855C0.426337 16.0641 0.40502 16.0319 0.383703 15.989C0.468971 15.9247 0.54358 15.914 0.60753 15.9569C0.671481 15.9783 0.756748 15.9676 0.863332 15.9247C0.905966 15.8818 0.927283 15.8282 0.927283 15.7638C0.9486 15.678 0.991233 15.6137 1.05518 15.5708C1.01255 15.5065 1.00189 15.4528 1.02321 15.41C1.25769 15.3671 1.48152 15.292 1.69469 15.1848C1.92917 15.0775 2.19564 14.9917 2.49407 14.9274C2.25959 14.8845 2.0251 14.9274 1.79062 15.0561C1.55613 15.1848 1.3323 15.2491 1.11913 15.2491C1.01255 15.2491 0.905966 15.2384 0.799382 15.2169C0.692798 15.174 0.586213 15.1633 0.479629 15.1848C0.479629 15.1419 0.468971 15.1097 0.447654 15.0882C0.426337 15.0668 0.40502 15.0239 0.383703 14.9596L1.72666 14.5413C1.83325 14.5199 1.92917 14.4984 2.01444 14.477C2.12103 14.4555 2.20629 14.4019 2.27024 14.3161C2.24893 14.2732 2.19564 14.284 2.11037 14.3483C2.0251 14.4126 1.97181 14.3912 1.95049 14.284C1.71601 14.3912 1.49218 14.4877 1.27901 14.5735C1.08716 14.6378 0.863332 14.67 0.60753 14.67C0.60753 14.6271 0.618189 14.6057 0.639505 14.6057C0.682139 14.6057 0.724773 14.5949 0.767406 14.5735C0.937941 14.359 1.16177 14.2411 1.43889 14.2196C1.71601 14.1982 1.96115 14.1124 2.17432 13.9623C2.23827 13.9623 2.30222 13.9515 2.36617 13.9301C2.43012 13.9086 2.49407 13.8872 2.55802 13.8657V13.9301C2.60066 13.8872 2.65395 13.855 2.7179 13.8336C2.80317 13.7907 2.87777 13.7907 2.94172 13.8336C2.98436 13.8336 3.00568 13.8014 3.00568 13.7371C3.04831 13.7585 3.05897 13.78 3.03765 13.8014C3.03765 13.8228 3.05897 13.8228 3.1016 13.8014C3.14423 13.78 3.15489 13.7478 3.13358 13.7049C3.13358 13.662 3.15489 13.6513 3.19753 13.6727C3.17621 13.6727 3.16555 13.6834 3.16555 13.7049V13.7692C3.20819 13.7478 3.24016 13.7371 3.26148 13.7371C3.28279 13.7371 3.29345 13.7049 3.29345 13.6405C3.3574 13.7263 3.43201 13.7371 3.51728 13.6727C3.60255 13.5869 3.68781 13.5655 3.77308 13.6084C3.98625 13.2438 4.18876 12.8684 4.38061 12.4824C4.57246 12.0749 4.77497 11.6674 4.98814 11.2599C5.13736 10.9596 5.28658 10.6701 5.4358 10.3913C5.58501 10.1124 5.73423 9.82291 5.88345 9.52264C6.11794 9.02935 6.37374 8.56823 6.65086 8.13929C6.92798 7.71034 7.18378 7.28139 7.41826 6.85244H7.38629C7.53551 6.63797 7.65275 6.42349 7.73802 6.20902C7.8446 5.99455 7.98316 5.7908 8.15369 5.59777C8.11106 5.55488 8.06843 5.55488 8.02579 5.59777C8.00448 5.61922 7.9725 5.62994 7.92987 5.62994C8.03645 5.54415 8.13238 5.47981 8.21764 5.43691C8.32423 5.39402 8.37752 5.28678 8.37752 5.1152C7.78065 5.26533 7.17312 5.47981 6.55493 5.75862C5.93674 6.01599 5.36119 6.16613 4.82827 6.20902C4.743 6.18757 4.67905 6.1983 4.63641 6.24119C4.6151 6.26264 4.57246 6.28409 4.50851 6.30553C4.46588 6.26264 4.46588 6.18757 4.50851 6.08034C4.4872 6.03744 4.46588 6.02672 4.44456 6.04816C4.42325 6.04816 4.40193 6.03744 4.38061 6.01599V5.88731C4.29534 5.88731 4.24205 5.88731 4.22074 5.88731C4.22074 5.88731 4.19942 5.90876 4.15679 5.95165L4.02888 5.82297H3.96493C3.98625 5.82297 3.99691 5.80152 3.99691 5.75862C3.95428 5.75862 3.91164 5.7479 3.86901 5.72645C3.82637 5.68356 3.85835 5.62994 3.96493 5.5656C3.96493 5.54415 3.93296 5.5656 3.86901 5.62994C3.82637 5.60849 3.80506 5.55487 3.80506 5.46909C3.76242 5.49053 3.73045 5.5227 3.70913 5.5656C3.68781 5.58705 3.65584 5.59777 3.61321 5.59777C3.59189 5.51198 3.60255 5.46909 3.64518 5.46909C3.70913 5.46909 3.71979 5.42619 3.67716 5.3404C3.71979 5.31895 3.76242 5.31895 3.80506 5.3404C3.84769 5.3404 3.87967 5.32968 3.90098 5.30823C3.90098 5.28678 3.89032 5.27606 3.86901 5.27606C3.84769 5.27606 3.83703 5.26534 3.83703 5.24389C3.75177 5.20099 3.69847 5.20099 3.67716 5.24389C3.65584 5.28678 3.61321 5.30823 3.54926 5.30823C3.61321 5.20099 3.62386 5.08303 3.58123 4.95435C3.5386 4.80422 3.50662 4.67553 3.4853 4.56829C3.52794 4.5254 3.55991 4.53612 3.58123 4.60047C3.62386 4.64336 3.6665 4.64336 3.70913 4.60047C3.68781 4.49323 3.6665 4.43961 3.64518 4.43961C3.62386 4.41816 3.59189 4.35382 3.54926 4.24658C3.65584 4.09645 3.81572 3.99994 4.02888 3.95704C4.24205 3.91415 4.42325 3.81764 4.57246 3.6675C5.19065 3.43158 5.84082 3.20639 6.52295 2.99191C7.20509 2.77744 7.86592 2.55224 8.50542 2.31632C8.54806 2.29487 8.59069 2.28415 8.63332 2.28415C8.67596 2.2627 8.75057 2.24125 8.85715 2.21981C8.94242 2.19836 8.97439 2.17691 8.95308 2.15546C8.93176 2.13402 8.97439 2.12329 9.08098 2.12329C9.18756 2.0804 9.29414 2.04823 9.40073 2.02678C9.52863 2.00533 9.63522 1.97316 9.72048 1.93027C9.7418 1.93027 9.75246 1.94099 9.75246 1.96244C9.75246 1.98389 9.76312 1.98389 9.78443 1.96244C9.76312 1.96244 9.75246 1.96244 9.75246 1.96244C9.75246 1.94099 9.76312 1.93027 9.78443 1.93027C9.95497 1.86592 10.1148 1.81231 10.2641 1.76941C10.4133 1.72652 10.5732 1.68362 10.7437 1.64073C10.7863 1.70507 10.8396 1.70507 10.9036 1.64073C10.9675 1.57638 11.0208 1.53349 11.0634 1.51204C11.1061 1.55494 11.1167 1.58711 11.0954 1.60855C11.1167 1.60855 11.1274 1.58711 11.1274 1.54421C11.17 1.54421 11.1913 1.54421 11.1913 1.54421C11.2127 1.52277 11.234 1.51204 11.2553 1.51204V1.57638C11.3192 1.57638 11.3619 1.55494 11.3832 1.51204C11.4258 1.46915 11.4685 1.43698 11.5111 1.41553C11.6816 1.37263 11.8415 1.34046 11.9907 1.31901C12.1613 1.29757 12.2998 1.2654 12.4064 1.2225C12.449 1.24395 12.4597 1.2654 12.4384 1.28684C12.4171 1.28684 12.4171 1.29757 12.4384 1.31901C12.481 1.27612 12.5343 1.23323 12.5983 1.19033C12.6622 1.12599 12.7368 1.09382 12.8221 1.09382C12.8008 1.17961 12.7262 1.2225 12.5983 1.2225C12.7048 1.2654 12.8008 1.25467 12.886 1.19033C12.9926 1.12599 13.0992 1.09382 13.2058 1.09382C13.2271 0.986581 13.2697 0.911515 13.3337 0.86862C13.419 0.804278 13.4936 0.761383 13.5575 0.739935C13.5575 0.804278 13.5362 0.857896 13.4936 0.90079C13.4722 0.922239 13.4509 0.95441 13.4296 0.997304C13.4936 0.975857 13.5575 0.986581 13.6215 1.02947C13.6854 1.05092 13.7387 1.01875 13.7813 0.932963H13.8133V0.965134C14.0478 0.900791 14.2716 0.857896 14.4848 0.836449C14.698 0.815002 14.9005 0.772107 15.0923 0.707764L15.1883 0.643423C15.2309 0.643423 15.2522 0.654147 15.2522 0.675594C15.2735 0.675594 15.3055 0.66487 15.3481 0.643423C15.3694 0.643423 15.3694 0.632699 15.3481 0.61125C15.3481 0.589803 15.3588 0.589803 15.3801 0.61125C15.4014 0.632699 15.4014 0.643423 15.3801 0.643423C15.6572 0.57908 15.881 0.536186 16.0516 0.514738C16.2221 0.471843 16.3713 0.439672 16.4992 0.418225C16.6485 0.396777 16.8083 0.37533 16.9789 0.353883C17.1707 0.332436 17.4159 0.289541 17.7143 0.225199C17.7569 0.182303 17.7889 0.160855 17.8102 0.160855C17.9808 0.203751 18.1406 0.214475 18.2899 0.193028C18.4391 0.171579 18.5883 0.150132 18.7375 0.128685C18.8654 0.17158 18.9933 0.182304 19.1212 0.160855C19.2491 0.139408 19.3664 0.128685 19.4729 0.128685C19.4943 0.128685 19.5049 0.139408 19.5049 0.160855C19.5049 0.160855 19.5049 0.128685 19.5049 0.0643433C19.5262 0.128685 19.5476 0.160855 19.5689 0.160855C19.6115 0.160855 19.6435 0.139408 19.6648 0.0965139C19.8353 0.0965139 20.0165 0.0857904 20.2084 0.0643433C20.4002 0.0214477 20.6134 0 20.8479 0C21.0824 0 21.3168 0 21.5513 0C21.8071 0 22.031 0.0107242 22.2228 0.0321726C22.4999 0.0750668 22.7771 0.139409 23.0542 0.225199C23.3313 0.310988 23.5551 0.450396 23.7257 0.643423C23.683 0.643423 23.6404 0.621975 23.5977 0.57908C23.5551 0.514738 23.5125 0.493291 23.4698 0.514738C23.4912 0.621975 23.5445 0.675594 23.6297 0.675594C23.715 0.675594 23.7789 0.739936 23.8216 0.86862C23.715 0.932962 23.651 1.0402 23.6297 1.19033C23.6297 1.31902 23.6937 1.36191 23.8216 1.31901C23.8642 1.23323 23.8642 1.19033 23.8216 1.19033C23.8003 1.16888 23.7683 1.14744 23.7257 1.12599C23.8322 1.10454 23.8962 1.10454 23.9175 1.12599C23.9601 1.14744 24.0028 1.2225 24.0454 1.35119C24.0028 1.32974 23.9601 1.34046 23.9175 1.38336C23.8749 1.46915 23.9388 1.53349 24.1094 1.57638C24.2799 1.59783 24.3652 1.65145 24.3652 1.73724C24.3012 1.73724 24.1626 1.74796 23.9495 1.76941C23.7576 1.76941 23.6404 1.75869 23.5977 1.73724C23.6191 1.88737 23.7043 2.01606 23.8536 2.12329C23.8536 2.16619 23.8322 2.21981 23.7896 2.28415C23.7683 2.34849 23.7789 2.40211 23.8216 2.445C23.7576 2.445 23.6617 2.42356 23.5338 2.38066C23.5125 2.42356 23.5125 2.45573 23.5338 2.47717C23.5764 2.49862 23.5977 2.53079 23.5977 2.57369C22.9582 2.46645 22.2548 2.41283 21.4874 2.41283C20.7413 2.41283 20.0592 2.46645 19.441 2.57369C19.4623 2.61658 19.4943 2.62731 19.5369 2.60586C19.6008 2.58441 19.6541 2.59514 19.6968 2.63803C19.5902 2.68093 19.4729 2.70237 19.345 2.70237C19.2385 2.70237 19.1106 2.70237 18.9613 2.70237C19.004 2.65948 19.0786 2.63803 19.1852 2.63803C19.2917 2.63803 19.377 2.61658 19.441 2.57369C19.3557 2.57369 19.2598 2.57369 19.1532 2.57369C19.0466 2.57369 18.9507 2.59514 18.8654 2.63803C18.567 2.68093 18.2579 2.72382 17.9381 2.76671C17.6184 2.80961 17.3093 2.86323 17.0108 2.92757C17.0535 2.97046 17.0855 2.98119 17.1068 2.95974C17.1281 2.93829 17.1601 2.93829 17.2027 2.95974C17.1814 2.98119 17.1174 2.99191 17.0108 2.99191C16.9682 2.99191 16.9469 2.99191 16.9469 2.99191C16.9682 2.97046 16.9789 2.94902 16.9789 2.92757C16.8083 2.97046 16.6911 3.00264 16.6271 3.02408C16.5845 3.02408 16.5419 3.03481 16.4992 3.05625C16.4566 3.05625 16.4033 3.06698 16.3394 3.08842C16.2967 3.08842 16.1901 3.1206 16.0196 3.18494H15.6999C15.3162 3.27073 14.9538 3.34579 14.6127 3.41014C14.2929 3.45303 13.9732 3.50665 13.6534 3.57099C13.3337 3.63533 13.0033 3.7104 12.6622 3.79619C12.3425 3.86053 11.9801 3.95704 11.575 4.08573C11.4471 4.10718 11.3192 4.13935 11.1913 4.18224C11.0848 4.20369 10.9995 4.24658 10.9355 4.31093C10.9782 4.31093 10.9888 4.33237 10.9675 4.37527C10.9462 4.39672 10.9462 4.42889 10.9675 4.47178C11.0741 4.42889 11.2233 4.43961 11.4152 4.50395C11.6283 4.54685 11.7776 4.58974 11.8628 4.63264C11.8415 4.69698 11.8202 4.77205 11.7989 4.85783C11.7776 4.92218 11.8095 4.96507 11.8948 4.98652C11.7882 5.17955 11.6603 5.37257 11.5111 5.5656C11.3619 5.75863 11.234 5.9731 11.1274 6.20902C11.1061 6.25191 11.1061 6.27336 11.1274 6.27336C11.1487 6.27336 11.1594 6.29481 11.1594 6.33771C11.1167 6.33771 11.0954 6.32698 11.0954 6.30553C11.0528 6.47711 10.9782 6.6058 10.8716 6.69159C10.7863 6.77738 10.7224 6.89534 10.6797 7.04547C10.6158 7.04547 10.5838 7.06692 10.5838 7.10981C10.5838 7.13126 10.5625 7.14198 10.5199 7.14198V7.30284C10.4559 7.38863 10.4026 7.46369 10.36 7.52803C10.3174 7.59238 10.2534 7.65672 10.1681 7.72106C10.1681 7.91409 10.1255 8.0106 10.0402 8.0106C9.65653 8.76126 9.27283 9.51192 8.88912 10.2626C8.50542 10.9918 8.13238 11.7532 7.76999 12.5467C7.89789 12.5682 8.02579 12.5682 8.15369 12.5467C8.28159 12.5038 8.39884 12.4824 8.50542 12.4824C8.48411 12.5038 8.45213 12.5146 8.4095 12.5146C8.38818 12.4931 8.37752 12.5038 8.37752 12.5467V12.5789C8.42015 12.536 8.47345 12.536 8.5374 12.5789C8.62266 12.6003 8.67596 12.5789 8.69727 12.5146C8.73991 12.5574 8.7932 12.5682 8.85715 12.5467C8.94242 12.5253 9.01703 12.4931 9.08098 12.4502C9.31546 12.4717 9.50731 12.4931 9.65653 12.5146C9.82707 12.5146 9.98694 12.5146 10.1362 12.5146C9.90168 12.6003 9.6139 12.6432 9.27283 12.6432C8.93176 12.6218 8.61201 12.6647 8.31357 12.7719ZM11.7989 5.69428C11.7349 5.80152 11.6497 5.88731 11.5431 5.95165C11.4578 5.99455 11.3939 6.06961 11.3512 6.17685V6.08034C11.3086 6.08034 11.2873 6.10178 11.2873 6.14468C11.2873 6.16613 11.266 6.16613 11.2233 6.14468C11.3086 6.03744 11.3832 5.94093 11.4471 5.85514C11.5324 5.7479 11.6497 5.69428 11.7989 5.69428ZM2.94172 14.0266C3.04831 14.0266 3.17621 14.0051 3.32543 13.9623C3.49596 13.9194 3.63452 13.8657 3.74111 13.8014V13.7692C3.61321 13.8121 3.47465 13.855 3.32543 13.8979C3.19753 13.9194 3.06963 13.9623 2.94172 14.0266ZM20.9118 2.54152C20.8052 2.56296 20.688 2.57369 20.5601 2.57369C20.4535 2.57369 20.3469 2.57369 20.2403 2.57369C20.3256 2.53079 20.4322 2.52007 20.5601 2.54152C20.688 2.54152 20.8052 2.54152 20.9118 2.54152ZM20.1444 2.57369C20.0592 2.65948 19.9419 2.68093 19.7927 2.63803C19.8993 2.55224 20.0165 2.53079 20.1444 2.57369ZM14.9644 0.643423C14.9005 0.707764 14.8259 0.729211 14.7406 0.707764C14.6553 0.686317 14.5594 0.686317 14.4528 0.707764C14.5168 0.66487 14.5914 0.654147 14.6766 0.675594C14.7832 0.675594 14.8792 0.66487 14.9644 0.643423ZM23.9495 0.386054C23.9068 0.407501 23.8429 0.386054 23.7576 0.321712C23.6724 0.25737 23.6084 0.203751 23.5658 0.160855C23.651 0.182304 23.715 0.225199 23.7576 0.28954C23.8003 0.332435 23.8642 0.364607 23.9495 0.386054ZM0.223827 26.8307C0.20251 26.7234 0.191852 26.6269 0.191852 26.5411C0.213168 26.4554 0.20251 26.3588 0.159876 26.2516C0.245144 26.3803 0.266461 26.5733 0.223827 26.8307ZM18.8334 2.70237C18.8334 2.74527 18.7908 2.76671 18.7055 2.76671C18.6416 2.76671 18.567 2.76671 18.4817 2.76671C18.5457 2.72382 18.6096 2.7131 18.6736 2.73454C18.7375 2.73454 18.7908 2.72382 18.8334 2.70237ZM1.91852 16.4394C1.87588 16.4609 1.83325 16.493 1.79062 16.5359C1.74798 16.5574 1.70535 16.5467 1.66271 16.5038C1.70535 16.4823 1.74798 16.4609 1.79062 16.4394C1.83325 16.418 1.87588 16.418 1.91852 16.4394ZM14.3569 0.707764C14.3143 0.75066 14.2716 0.772108 14.229 0.772108C14.1864 0.750659 14.1437 0.750659 14.1011 0.772108C14.1224 0.729212 14.1544 0.707764 14.197 0.707764C14.261 0.707764 14.3143 0.707764 14.3569 0.707764ZM21.3595 2.47717C21.3168 2.52007 21.2742 2.54152 21.2316 2.54152C21.2103 2.54152 21.1783 2.54152 21.1357 2.54152C21.1783 2.49862 21.2103 2.47717 21.2316 2.47717C21.2742 2.47717 21.3168 2.47717 21.3595 2.47717ZM21.6473 2.445C21.6259 2.50934 21.562 2.54152 21.4554 2.54152C21.4767 2.49862 21.498 2.47717 21.5194 2.47717C21.562 2.47717 21.6046 2.46645 21.6473 2.445ZM10.5518 12.418C10.5305 12.4609 10.4772 12.4824 10.392 12.4824C10.4133 12.418 10.4346 12.3966 10.4559 12.418C10.4772 12.4395 10.5092 12.4395 10.5518 12.418ZM2.30222 27.5063C2.30222 27.4848 2.30222 27.4527 2.30222 27.4098C2.32354 27.3669 2.35551 27.3347 2.39815 27.3133L2.30222 27.5063ZM10.36 12.4824C10.3387 12.5038 10.3067 12.5146 10.2641 12.5146C10.2427 12.5146 10.2108 12.5253 10.1681 12.5467C10.2108 12.5038 10.2427 12.4824 10.2641 12.4824C10.2854 12.4824 10.3174 12.4824 10.36 12.4824ZM10.8716 12.3215C10.8716 12.3859 10.8503 12.418 10.8076 12.418C10.8076 12.3966 10.8076 12.3859 10.8076 12.3859C10.829 12.3859 10.8396 12.3751 10.8396 12.3537L10.8716 12.3215ZM0.0319752 26.2194C0.0106584 26.198 0 26.1765 0 26.1551C0.0213168 26.1336 0.0213168 26.1122 0 26.0908C0.0426337 26.0908 0.0639506 26.1015 0.0639506 26.1229C0.0639506 26.1658 0.0532921 26.198 0.0319752 26.2194ZM17.5544 2.86323C17.5971 2.84178 17.6397 2.84178 17.6823 2.86323C17.725 2.86323 17.7783 2.8525 17.8422 2.83106C17.7783 2.8525 17.6823 2.86323 17.5544 2.86323ZM4.06086 5.91948C3.99691 5.98382 3.97559 6.01599 3.99691 6.01599V5.91948H4.06086ZM14.7726 12.9649C14.7299 13.0078 14.6553 13.0078 14.5487 12.9649H14.7726ZM12.4064 12.9328C12.4064 12.9542 12.3744 12.9649 12.3105 12.9649C12.3105 12.9435 12.3425 12.9328 12.4064 12.9328ZM24.0454 2.12329C24.0241 2.14474 23.9921 2.16619 23.9495 2.18763C23.9068 2.18763 23.8855 2.16619 23.8855 2.12329C23.9282 2.14474 23.9495 2.15546 23.9495 2.15546C23.9708 2.13402 24.0028 2.12329 24.0454 2.12329ZM17.6823 0.160855C17.6397 0.160855 17.6077 0.171579 17.5864 0.193028C17.5864 0.193028 17.5757 0.193028 17.5544 0.193028C17.5544 0.171579 17.5757 0.160855 17.6184 0.160855C17.6823 0.139408 17.7036 0.139408 17.6823 0.160855ZM16.1795 0.257369C16.1795 0.278816 16.1475 0.28954 16.0836 0.28954C16.1049 0.268093 16.1369 0.257369 16.1795 0.257369ZM11.7669 13.7692C11.7669 13.7907 11.7349 13.8014 11.671 13.8014C11.6923 13.78 11.7243 13.7692 11.7669 13.7692ZM10.9355 12.3215C10.9355 12.343 10.9249 12.3537 10.9036 12.3537V12.3215H10.9355ZM11.607 12.2572C11.5218 12.2572 11.4791 12.2572 11.4791 12.2572H11.607ZM3.90098 5.88731C3.87967 5.86586 3.87967 5.85514 3.90098 5.85514V5.88731Z" transform="translate(48.3018 7.54688)" fill="#34314B"/>
<path d="M19.8994 15.41C19.8994 15.41 19.91 15.4207 19.9313 15.4421L20.1871 15.2491C20.4643 14.9488 20.7414 14.6378 21.0185 14.3161C21.2956 13.9944 21.5514 13.6727 21.7859 13.351C21.8925 13.3081 21.9671 13.2438 22.0097 13.158C22.0737 13.0722 22.1803 13.0507 22.3295 13.0936C22.4361 13.0507 22.5213 12.9757 22.5853 12.8684C22.6492 12.7397 22.7238 12.654 22.8091 12.6111C22.937 12.6111 23.0116 12.6003 23.0329 12.5789C23.0756 12.6003 23.0649 12.6647 23.001 12.7719C22.937 12.8577 22.8624 12.9542 22.7771 13.0615C22.7132 13.1473 22.6599 13.233 22.6173 13.3188C22.5746 13.4046 22.5853 13.4368 22.6492 13.4153C22.6919 13.4153 22.7345 13.3939 22.7771 13.351C22.8198 13.3081 22.8837 13.2867 22.969 13.2867C23.0329 13.2652 23.0756 13.2652 23.0969 13.2867C23.1395 13.3081 23.1822 13.2974 23.2248 13.2545C23.2035 13.3188 23.1715 13.3939 23.1289 13.4797C23.1075 13.544 23.0969 13.6084 23.0969 13.6727C23.0969 13.6942 23.1395 13.7049 23.2248 13.7049C23.2035 13.8336 23.1608 13.9515 23.0969 14.0588C23.0329 14.166 22.9796 14.2732 22.937 14.3805C22.7025 14.7022 22.4894 14.981 22.2975 15.2169C22.1057 15.4528 21.9138 15.678 21.722 15.8925C21.5514 16.107 21.3596 16.3322 21.1464 16.5681C20.9545 16.7826 20.7307 17.0507 20.4749 17.3724C20.4323 17.3938 20.411 17.4153 20.411 17.4367C20.411 17.4367 20.3896 17.4367 20.347 17.4367C19.8354 18.1874 19.3131 18.9059 18.7802 19.5922C18.2473 20.2571 17.6611 20.879 17.0216 21.4581L16.9896 21.5868C16.9683 21.6082 16.9363 21.6726 16.8937 21.7798C16.7232 21.93 16.542 22.0694 16.3501 22.198C16.1583 22.3053 15.9877 22.4447 15.8385 22.6163C15.8172 22.6377 15.8385 22.6484 15.9025 22.6484C15.7746 22.82 15.5507 22.938 15.231 23.0023C14.9325 23.0667 14.6554 23.1096 14.3996 23.131C14.0372 23.1739 13.6642 23.1525 13.2805 23.0667C12.9181 22.9809 12.6623 22.82 12.5131 22.5841C12.2999 22.4983 12.1187 22.3267 11.9695 22.0694C11.8416 21.7262 11.7776 21.3723 11.7776 21.0077C11.7776 20.6217 11.8203 20.2463 11.9055 19.8817C11.9695 19.4957 12.0654 19.1203 12.1933 18.7557C12.3212 18.3911 12.4598 18.048 12.609 17.7263C12.6729 17.5547 12.7262 17.3938 12.7689 17.2437C12.8115 17.0936 12.8755 16.9327 12.9607 16.7611C13.1952 16.2035 13.4723 15.6459 13.7921 15.0882C14.1118 14.5306 14.3996 13.9944 14.6554 13.4797L15.3589 12.1607C15.5081 11.9247 15.6467 11.721 15.7746 11.5494C15.9238 11.3564 16.041 11.1526 16.1263 10.9382V10.8417C16.3181 10.8417 16.4567 10.7344 16.542 10.5199C16.5846 10.4985 16.6379 10.4878 16.7018 10.4878C16.7871 10.4878 16.8511 10.4663 16.8937 10.4234C17.1069 10.4449 17.2987 10.4985 17.4692 10.5843C17.6611 10.6486 17.8316 10.7237 17.9808 10.8095C18.0235 10.9167 18.1087 11.0132 18.2366 11.099C18.3859 11.1634 18.4498 11.2813 18.4285 11.4529C18.4285 11.4744 18.3859 11.5494 18.3006 11.6781C18.2793 11.721 18.2686 11.7532 18.2686 11.7746C18.2899 11.7961 18.2899 11.8282 18.2686 11.8711C18.2686 11.9355 18.2366 11.9676 18.1727 11.9676V12.1928L17.9489 12.8041C17.9489 12.847 17.9489 12.8684 17.9489 12.8684C17.9702 12.847 17.9808 12.8577 17.9808 12.9006C17.8743 12.9221 17.7997 12.9864 17.757 13.0936C17.7357 13.1794 17.6931 13.2438 17.6291 13.2867C17.6291 13.351 17.6291 13.3832 17.6291 13.3832C17.5438 13.4046 17.4906 13.4475 17.4692 13.5119C17.4692 13.5548 17.4586 13.5976 17.4373 13.6405C17.3094 13.8121 17.2028 13.9837 17.1175 14.1553C17.0536 14.3269 16.979 14.4877 16.8937 14.6378C16.8511 14.7022 16.8297 14.7451 16.8297 14.7665C16.8511 14.7665 16.8404 14.788 16.7978 14.8309C16.7978 14.8523 16.7658 14.863 16.7018 14.863C16.6805 14.9488 16.6485 15.0239 16.6059 15.0882C16.5846 15.1311 16.5739 15.2062 16.5739 15.3134C16.4673 15.4207 16.3821 15.5708 16.3181 15.7638C16.2542 15.9354 16.1689 16.0748 16.0623 16.1821C15.8918 16.5467 15.7532 16.9005 15.6466 17.2437C15.4761 17.5869 15.2949 17.9193 15.1031 18.241C14.9325 18.5627 14.7833 18.8844 14.6554 19.2061L14.5275 19.8496C14.4422 20.064 14.3676 20.2892 14.3037 20.5252C14.2397 20.7611 14.2184 21.0077 14.2397 21.2651C14.5808 21.115 14.8792 20.8898 15.135 20.5895C15.5187 20.2678 15.9025 19.9139 16.2862 19.5278C16.6699 19.1203 17.0429 18.7128 17.4053 18.3053C17.4479 18.2839 17.4692 18.2732 17.4692 18.2732C17.4906 18.2517 17.5225 18.241 17.5652 18.241C17.6931 18.0694 17.821 17.8978 17.9489 17.7263C18.0768 17.5547 18.226 17.3831 18.3965 17.2115C18.5244 17.1257 18.631 17.0292 18.7163 16.922C18.8015 16.7933 18.8868 16.6539 18.9721 16.5038C19.0147 16.4609 19.0573 16.4287 19.1 16.4073C19.1639 16.3644 19.2172 16.3215 19.2599 16.2786C19.3451 16.107 19.4517 15.9676 19.5796 15.8603C19.7288 15.7317 19.8354 15.5815 19.8994 15.41ZM19.2279 8.17146C19.1639 8.21435 19.1 8.27869 19.036 8.36448C18.9294 8.36448 18.8335 8.36448 18.7482 8.36448C18.663 8.36448 18.5671 8.38593 18.4605 8.42883C18.4392 8.42883 18.4285 8.45027 18.4285 8.49317L18.3006 8.39665V8.20363C18.1727 8.24652 18.1087 8.31086 18.1087 8.39665C18.0661 8.39665 18.0555 8.37521 18.0768 8.33231C18.1194 8.26797 18.1194 8.22507 18.0768 8.20363C18.0341 8.22507 18.0022 8.25725 17.9808 8.30014C17.9808 8.32159 17.9595 8.33231 17.9169 8.33231V8.20363C17.8743 8.20363 17.8529 8.21435 17.8529 8.2358C17.8956 7.93553 17.7677 7.7854 17.4692 7.7854C17.4692 7.67817 17.4479 7.62455 17.4053 7.62455C17.4053 7.25994 17.4906 6.88461 17.6611 6.49856C17.7037 6.45567 17.725 6.42349 17.725 6.40205C17.725 6.35915 17.7357 6.32698 17.757 6.30553C17.821 6.26264 17.8849 6.21974 17.9489 6.17685C18.0341 6.11251 18.0768 6.02672 18.0768 5.91948C18.0981 5.94093 18.1514 5.95165 18.2366 5.95165C18.2793 5.90876 18.3432 5.84441 18.4285 5.75862C18.5138 5.67283 18.5777 5.68356 18.6203 5.7908C18.663 5.81224 18.6736 5.81224 18.6523 5.7908C18.6523 5.76935 18.663 5.75862 18.6843 5.75862C18.7269 5.80152 18.7696 5.82297 18.8122 5.82297C18.8335 5.75863 18.8868 5.71573 18.9721 5.69428C19.0787 5.67283 19.1852 5.68356 19.2918 5.72645C19.2918 5.76935 19.2705 5.80152 19.2279 5.82297C19.2066 5.82297 19.2066 5.84441 19.2279 5.88731C19.505 5.88731 19.6862 5.82297 19.7715 5.69428C19.7715 5.75863 19.7821 5.81224 19.8034 5.85514C19.8461 5.87659 19.878 5.90876 19.8994 5.95165C19.8567 5.9731 19.8354 6.01599 19.8354 6.08034C19.8567 6.14468 19.8887 6.1983 19.9313 6.24119C20.0166 6.1983 20.1125 6.20902 20.2191 6.27336C20.347 6.3377 20.411 6.42349 20.411 6.53073C20.411 6.55218 20.4323 6.5629 20.4749 6.5629C20.4749 6.6058 20.4749 6.63797 20.4749 6.65942C20.4962 6.65942 20.5069 6.68086 20.5069 6.72376C20.4856 6.68086 20.4643 6.65942 20.4429 6.65942C20.4003 6.7452 20.3577 6.831 20.315 6.91678C20.2937 7.00257 20.2404 7.08836 20.1552 7.17415C20.1552 7.1956 20.1765 7.20632 20.2191 7.20632C20.2617 7.20632 20.2831 7.21705 20.2831 7.23849C20.2831 7.23849 20.2298 7.23849 20.1232 7.23849C19.9953 7.41007 19.8461 7.58165 19.6755 7.75323C19.505 7.90336 19.3664 8.09639 19.2599 8.33231C19.2172 8.33231 19.1959 8.34304 19.1959 8.36448C19.1959 8.36448 19.1746 8.36448 19.132 8.36448C19.1959 8.30014 19.2279 8.2358 19.2279 8.17146ZM18.3326 12.032C18.3326 12.0534 18.3219 12.0749 18.3006 12.0963C18.3006 12.0963 18.3006 12.1178 18.3006 12.1607C18.258 12.1821 18.2473 12.1607 18.2686 12.0963C18.2899 12.032 18.3113 12.0105 18.3326 12.032Z" transform="translate(48.3018 7.54688)" fill="#34314B"/>
<path d="M24.0571 10.5521C23.9932 10.5736 23.9506 10.6272 23.9292 10.713C23.9079 10.7773 23.8759 10.8524 23.8333 10.9382C23.8333 10.9596 23.844 10.9703 23.8653 10.9703C23.7161 11.2277 23.6095 11.41 23.5455 11.5172C23.4816 11.6245 23.3857 11.8282 23.2578 12.1285C23.2364 12.1928 23.1938 12.2572 23.1299 12.3215C23.0872 12.5789 22.9913 12.8363 22.8421 13.0936C22.7142 13.351 22.6076 13.6191 22.5223 13.8979C22.8634 13.5976 23.2364 13.2545 23.6415 12.8684C24.0465 12.4609 24.4941 12.1392 24.9844 11.9033C25.091 11.8604 25.1869 11.8282 25.2722 11.8068C25.3788 11.7639 25.4747 11.7317 25.56 11.7103C25.6026 11.6888 25.6346 11.6888 25.6559 11.7103C25.6772 11.7103 25.7092 11.6996 25.7518 11.6781C25.7731 11.6781 25.7838 11.6674 25.7838 11.6459C25.7838 11.6459 25.7945 11.6352 25.8158 11.6138C25.8797 11.5923 25.9543 11.603 26.0396 11.6459C26.1249 11.6674 26.2101 11.6781 26.2954 11.6781C26.3594 11.6781 26.4233 11.6674 26.4873 11.6459C26.5725 11.6245 26.6578 11.603 26.7431 11.5816C26.9136 11.6245 27.0522 11.7103 27.1587 11.839C27.2866 11.9462 27.3932 12.0749 27.4785 12.225C27.5851 12.2679 27.6704 12.3001 27.7343 12.3215C27.7983 12.343 27.8622 12.3859 27.9262 12.4502C27.9688 12.4502 27.9581 12.4288 27.8942 12.3859C27.8302 12.3215 27.8196 12.2786 27.8622 12.2572L28.2779 12.4502C28.2779 12.5574 28.3099 12.6218 28.3738 12.6432C28.4164 12.8577 28.4804 13.0615 28.5657 13.2545C28.6509 13.4261 28.6936 13.6405 28.6936 13.8979C28.6722 14.6271 28.555 15.3242 28.3418 15.989C28.15 16.6325 27.9475 17.2008 27.7343 17.6941C27.1801 18.8952 26.5512 19.9354 25.8478 20.8147C25.1443 21.694 24.281 22.434 23.2578 23.0345C23.2364 23.0345 23.2258 23.0238 23.2258 23.0023C23.2258 22.9809 23.2151 22.9702 23.1938 22.9702C22.9593 23.0131 22.7675 23.0774 22.6183 23.1632H22.4904C22.3198 23.2061 22.0747 23.1846 21.7549 23.0988C21.4565 23.0131 21.222 23.0131 21.0515 23.0988C20.9875 22.9487 20.8703 22.8522 20.6997 22.8093C20.5505 22.7879 20.4333 22.7235 20.348 22.6163C20.348 22.5948 20.3587 22.5841 20.38 22.5841C20.4013 22.6055 20.4226 22.6055 20.4439 22.5841C20.4439 22.4769 20.4013 22.4125 20.316 22.3911C20.2308 22.3482 20.1775 22.2731 20.1562 22.1659C19.9856 22.123 19.8897 22.0157 19.8684 21.8442C19.8684 21.6726 19.8471 21.5225 19.8044 21.3938C19.8258 21.3723 19.8471 21.3723 19.8684 21.3938C19.8897 21.3938 19.911 21.383 19.9323 21.3616C19.975 21.2544 19.9856 21.1686 19.9643 21.1042C19.943 21.0184 19.911 20.9005 19.8684 20.7504C19.8897 20.7504 19.911 20.7611 19.9323 20.7825C20.0602 20.6538 20.2095 20.5788 20.38 20.5573C20.4226 20.5144 20.4333 20.4608 20.412 20.3965C20.412 20.3321 20.4546 20.3 20.5399 20.3C20.5185 20.3428 20.4972 20.375 20.4759 20.3965C20.4546 20.4179 20.4653 20.4501 20.5079 20.493C20.5505 20.4501 20.5932 20.4286 20.6358 20.4286C20.6997 20.4072 20.7317 20.3643 20.7317 20.3C20.7957 20.3428 20.8276 20.3857 20.8276 20.4286C20.8276 20.4715 20.849 20.5144 20.8916 20.5573C20.9342 20.7718 20.9982 20.9434 21.0834 21.0721C21.19 21.2007 21.3073 21.3187 21.4352 21.4259C21.9255 21.3616 22.3092 21.19 22.5863 20.9112C22.6289 20.8683 22.6289 20.8469 22.5863 20.8469C22.565 20.8469 22.5543 20.8254 22.5543 20.7825C22.8741 20.6109 23.1405 20.4286 23.3537 20.2356C23.5882 20.0211 23.812 19.7959 24.0252 19.56C24.0252 19.4957 24.0358 19.4528 24.0571 19.4313C24.0785 19.4099 24.0891 19.3777 24.0891 19.3348C24.281 19.1632 24.4408 18.9702 24.5688 18.7557C24.6967 18.5198 24.8459 18.3053 25.0164 18.1123L25.3362 17.4689C25.3148 17.3831 25.3255 17.3188 25.3681 17.2759C25.4321 17.2115 25.4854 17.1579 25.528 17.115C25.5493 17.0936 25.5813 17.0185 25.6239 16.8898C25.6453 16.8898 25.6666 16.8791 25.6879 16.8576C25.7305 16.7504 25.7625 16.6539 25.7838 16.5681C25.8051 16.4823 25.8478 16.418 25.9117 16.3751C26.0822 15.8603 26.2528 15.3671 26.4233 14.8952C26.5939 14.4234 26.6898 13.8443 26.7111 13.158C26.3913 13.2438 26.0929 13.4046 25.8158 13.6405C25.5387 13.855 25.2615 14.0802 24.9844 14.3161C24.7286 14.5092 24.4622 14.7236 24.185 14.9596C23.9079 15.1955 23.6308 15.4314 23.3537 15.6673C22.906 16.1606 22.4477 16.6753 21.9788 17.2115C21.5098 17.7263 21.0408 18.2625 20.5718 18.8201C20.2734 19.3134 19.975 19.7638 19.6765 20.1713C19.3781 20.5788 19.1543 21.0935 19.0051 21.7155C18.9624 21.7798 18.9198 21.8442 18.8772 21.9085C18.8345 21.9729 18.7706 22.0157 18.6853 22.0372C18.6853 22.0801 18.6746 22.123 18.6533 22.1659C18.632 22.1873 18.632 22.2409 18.6533 22.3267C18.6107 22.3696 18.5681 22.4125 18.5254 22.4554C18.4828 22.4983 18.4508 22.5519 18.4295 22.6163C18.3229 22.6163 18.2909 22.5948 18.3336 22.5519C18.3549 22.509 18.3123 22.4983 18.2057 22.5198C18.1844 22.5412 18.1844 22.5627 18.2057 22.5841C18.2057 22.627 18.195 22.6592 18.1737 22.6806C18.0245 22.7021 17.9605 22.6699 17.9818 22.5841C17.9818 22.5198 17.9392 22.5305 17.8539 22.6163C17.8113 22.5948 17.7793 22.5627 17.758 22.5198C17.7154 22.4554 17.6728 22.4018 17.6301 22.3589C17.5875 22.2517 17.5555 22.1659 17.5342 22.1015C17.4916 22.0372 17.4809 21.9514 17.5022 21.8442L17.2464 21.619C17.1611 21.1257 17.1931 20.6967 17.3423 20.3321C17.4916 19.9675 17.6408 19.5815 17.79 19.174C17.8966 18.8094 18.0138 18.4769 18.1417 18.1767C18.2696 17.855 18.4082 17.5332 18.5574 17.2115C18.6853 16.9756 18.8025 16.7397 18.9091 16.5038C18.9944 16.2464 19.0903 15.9783 19.1969 15.6995C19.2822 15.5279 19.3568 15.3563 19.4207 15.1848C19.506 14.9917 19.5913 14.7773 19.6765 14.5413C19.7618 14.4555 19.8151 14.3805 19.8364 14.3161C19.8364 14.2947 19.8364 14.284 19.8364 14.284C19.8577 14.2625 19.8684 14.2303 19.8684 14.1874C20.0389 13.7371 20.2201 13.2867 20.412 12.8363C20.6251 12.3859 20.8383 11.9462 21.0515 11.5172C21.1154 11.3028 21.2007 11.099 21.3073 10.906C21.4139 10.6915 21.5204 10.4663 21.627 10.2304C21.6697 10.1232 21.7123 10.0374 21.7549 9.97304C21.7976 9.88725 21.8082 9.79074 21.7869 9.6835L21.9788 9.42613C22.0001 9.38323 22.0001 9.34034 21.9788 9.29744C21.9788 9.25455 21.9894 9.21165 22.0107 9.16876L22.1706 9.07225C22.1706 9.02935 22.1919 8.94356 22.2346 8.81488C22.2772 8.72909 22.3092 8.66475 22.3305 8.62185C22.3731 8.55751 22.4051 8.50389 22.4264 8.461C22.4264 8.39665 22.4371 8.35376 22.4584 8.33231C22.4797 8.31086 22.4797 8.30014 22.4584 8.30014C22.4584 8.30014 22.469 8.27869 22.4904 8.2358C22.5543 8.17146 22.5863 8.12856 22.5863 8.10711C22.6076 8.08567 22.6183 8.03205 22.6183 7.94626C22.6609 7.88192 22.6929 7.80685 22.7142 7.72106C22.7568 7.63527 22.7995 7.57093 22.8421 7.52803C22.8847 7.4208 22.9274 7.33501 22.97 7.27067C23.0126 7.18488 23.0553 7.12053 23.0979 7.07764C23.1405 6.90606 23.2045 6.79882 23.2897 6.75593C23.2897 6.73448 23.3004 6.71303 23.3217 6.69159C23.343 6.67014 23.3537 6.64869 23.3537 6.62724C23.5455 6.26264 23.7267 5.85514 23.8973 5.40474C24.0678 4.9329 24.2916 4.51468 24.5688 4.15007C24.6114 4.10718 24.622 4.08573 24.6007 4.08573C24.6007 4.08573 24.6007 4.07501 24.6007 4.05356C24.686 3.96777 24.7606 3.83908 24.8246 3.6675C24.9098 3.47448 25.0057 3.3029 25.1123 3.15277C25.2402 3.00264 25.3681 2.8954 25.496 2.83106C25.6453 2.74527 25.8264 2.76671 26.0396 2.8954C26.0822 2.87395 26.0929 2.88468 26.0716 2.92757C26.0716 2.94902 26.0716 2.97046 26.0716 2.99191C26.0929 3.01336 26.1249 3.01336 26.1675 2.99191C26.2101 2.97046 26.2528 2.94902 26.2954 2.92757C26.2954 2.94902 26.2741 2.97046 26.2315 2.99191C26.2101 2.99191 26.2101 3.00264 26.2315 3.02408C26.402 3.04553 26.4873 3.06698 26.4873 3.08842C26.4873 3.10987 26.5725 3.13132 26.7431 3.15277C26.7217 3.26 26.7644 3.34579 26.871 3.41014C26.9989 3.45303 27.0841 3.50665 27.1268 3.57099C27.2334 3.82836 27.244 4.02139 27.1587 4.15007C27.0948 4.25731 27.0202 4.36454 26.9349 4.47178C26.9562 4.51468 26.9349 4.55757 26.871 4.60047C26.8283 4.62191 26.7857 4.65408 26.7431 4.69698C26.7644 4.80422 26.7431 4.89001 26.6791 4.95435C26.6152 4.99724 26.6045 5.08303 26.6471 5.21172C26.5619 5.19027 26.4873 5.26534 26.4233 5.43691C26.3594 5.60849 26.3061 5.70501 26.2634 5.72645C26.2634 5.7908 26.2528 5.83369 26.2315 5.85514C26.2101 5.87659 26.2208 5.91948 26.2634 5.98382C26.2208 6.06961 26.1462 6.1554 26.0396 6.24119C25.9543 6.30553 25.9117 6.39132 25.9117 6.49856C25.9117 6.47711 25.8904 6.47711 25.8478 6.49856C25.7838 6.67014 25.7732 6.7881 25.8158 6.85244C25.7305 6.89534 25.6559 6.91678 25.592 6.91678C25.592 6.95968 25.5813 6.99185 25.56 7.0133C25.56 7.03474 25.5706 7.06692 25.592 7.10981C25.528 7.13126 25.496 7.17415 25.496 7.23849C25.496 7.28139 25.4747 7.31356 25.4321 7.33501C25.4321 7.48514 25.3894 7.58165 25.3042 7.62455C25.3468 7.73178 25.3255 7.84975 25.2402 7.97843C25.1763 8.10711 25.1443 8.24652 25.1443 8.39665C25.123 8.4181 25.0804 8.45027 25.0164 8.49317C24.9738 8.53606 24.9631 8.56823 24.9844 8.58968C24.9418 8.69692 24.8778 8.80415 24.7926 8.91139C24.7286 9.01863 24.6967 9.12587 24.6967 9.2331C24.6327 9.42613 24.5474 9.59771 24.4408 9.74784C24.3556 9.87652 24.2916 10.0588 24.249 10.2947L24.1211 10.3913C24.0785 10.4342 24.0571 10.4663 24.0571 10.4878C24.0785 10.4878 24.0785 10.5092 24.0571 10.5521ZM21.2433 16.6003C21.3712 16.3858 21.5844 16.107 21.8828 15.7638C22.2026 15.4207 22.5436 15.0775 22.906 14.7344C23.2684 14.3698 23.6201 14.0373 23.9612 13.7371C24.3236 13.4368 24.622 13.2116 24.8565 13.0615V13.0293C24.1957 13.544 23.6521 13.973 23.2258 14.3161C22.8208 14.6378 22.4797 14.9274 22.2026 15.1848C21.9468 15.4207 21.7443 15.6459 21.595 15.8603C21.4458 16.0748 21.3286 16.3215 21.2433 16.6003ZM24.5368 12.3859C24.4941 12.4288 24.4408 12.4502 24.3769 12.4502C24.3129 12.4502 24.2703 12.4717 24.249 12.5146C23.9719 12.7505 23.6841 12.9971 23.3857 13.2545C23.1085 13.5119 22.8847 13.7478 22.7142 13.9623C22.7994 13.9194 22.8634 13.8657 22.906 13.8014C22.97 13.7371 23.0339 13.662 23.0979 13.5762C23.1832 13.469 23.2684 13.3832 23.3537 13.3188C23.439 13.2545 23.5349 13.1901 23.6415 13.1258C23.7267 13.0615 23.8013 12.9971 23.8653 12.9328C23.9506 12.8684 24.0145 12.7934 24.0571 12.7076C24.1211 12.7076 24.1637 12.6969 24.185 12.6754C24.2064 12.654 24.2383 12.6218 24.281 12.5789C24.3662 12.5574 24.4408 12.5253 24.5048 12.4824C24.5688 12.4395 24.622 12.3966 24.6647 12.3537C24.7073 12.3108 24.7499 12.2786 24.7926 12.2572C24.8565 12.2143 24.8992 12.1499 24.9205 12.0642C24.8139 12.1071 24.7393 12.1607 24.6967 12.225C24.654 12.2894 24.6007 12.343 24.5368 12.3859ZM27.7983 12.225C27.7556 12.2465 27.6917 12.2357 27.6064 12.1928C27.5424 12.1499 27.4785 12.1071 27.4145 12.0642C27.5211 12.0213 27.5957 12.032 27.6384 12.0963C27.7023 12.1607 27.7556 12.2036 27.7983 12.225ZM22.4584 14.2518C22.565 14.1874 22.6076 14.1231 22.5863 14.0588C22.565 14.1017 22.533 14.1338 22.4904 14.1553C22.469 14.1767 22.4584 14.2089 22.4584 14.2518ZM24.9525 12.0642C24.9525 12.0856 24.9631 12.0963 24.9844 12.0963L25.0164 12.0642V11.9998C24.9738 11.9998 24.9525 12.0213 24.9525 12.0642ZM23.6415 13.8979C23.6628 13.8765 23.6734 13.8657 23.6734 13.8657C23.6948 13.8657 23.7161 13.8443 23.7374 13.8014C23.6734 13.8657 23.6415 13.8979 23.6415 13.8979Z" transform="translate(48.3018 7.54688)" fill="#34314B"/>
<path d="M37.8672 17.6298C37.9525 17.5011 38.0804 17.3188 38.2509 17.0828C38.4428 16.8255 38.6346 16.5681 38.8265 16.3107C39.0183 16.0319 39.1995 15.7638 39.3701 15.5065C39.5619 15.2491 39.7111 15.0561 39.8177 14.9274C39.8603 14.9059 39.8923 14.8738 39.9136 14.8309C39.9349 14.7665 39.9776 14.7344 40.0415 14.7344C39.9349 14.8845 39.839 15.0346 39.7538 15.1848C39.6685 15.3134 39.5619 15.4421 39.434 15.5708C39.4766 15.5923 39.5299 15.5708 39.5939 15.5065C39.7005 15.3992 39.7964 15.292 39.8817 15.1848C39.9669 15.0561 40.0629 14.9381 40.1694 14.8309L40.745 14.2518C40.745 14.2947 40.777 14.3161 40.8409 14.3161C40.777 14.4663 40.6491 14.6593 40.4572 14.8952C40.2867 15.1311 40.1055 15.3563 39.9136 15.5708C39.7431 15.7853 39.6045 15.9676 39.498 16.1177C39.4127 16.2464 39.4127 16.2893 39.498 16.2464C39.7964 15.9032 40.1055 15.5601 40.4252 15.2169C40.745 14.8738 41.0861 14.5413 41.4484 14.2196C41.4698 14.1982 41.4378 14.2625 41.3525 14.4126C41.2673 14.5628 41.1607 14.7451 41.0328 14.9596C40.9049 15.1526 40.7876 15.3456 40.681 15.5386C40.5745 15.7102 40.5105 15.8175 40.4892 15.8603C40.4892 15.8818 40.5531 15.8067 40.681 15.6351C40.8303 15.4421 41.0967 15.0775 41.4804 14.5413C41.5231 14.5842 41.5231 14.6271 41.4804 14.67C41.4591 14.6915 41.4378 14.7236 41.4165 14.7665C41.2459 15.0668 41.0434 15.3563 40.8089 15.6351C40.5958 15.914 40.3826 16.1821 40.1694 16.4394C40.3613 16.2464 40.5531 16.0426 40.745 15.8282C40.9368 15.5923 41.15 15.3563 41.3845 15.1204C41.2353 15.3992 41.0541 15.6244 40.8409 15.796C40.5638 16.0963 40.2867 16.4287 40.0096 16.7933C39.7538 17.1579 39.5086 17.4903 39.2741 17.7906C39.2315 17.8121 39.1995 17.8442 39.1782 17.8871C39.1569 17.93 39.1036 17.9622 39.0183 17.9836C39.0183 18.0051 39.0077 18.0265 38.9864 18.048C38.965 18.048 38.9544 18.0587 38.9544 18.0802C38.9331 18.1016 38.8691 18.1767 38.7625 18.3053C38.6773 18.434 38.5813 18.5734 38.4747 18.7236C38.3682 18.8523 38.2722 18.9809 38.187 19.1096C38.1017 19.2383 38.0591 19.3134 38.0591 19.3348C38.2509 19.0989 38.4428 18.8523 38.6346 18.5949C38.8478 18.3375 39.029 18.1552 39.1782 18.048V17.9515C39.2848 17.9515 39.3168 17.9086 39.2741 17.8228H39.3381L39.5939 17.5332C39.6152 17.4903 39.6152 17.4796 39.5939 17.5011C39.5939 17.5225 39.6045 17.5332 39.6259 17.5332L39.9136 17.2437L40.0415 17.0185V17.0828L40.3933 16.6003L40.681 16.1821C40.7663 16.1392 40.8303 16.0748 40.8729 15.989C40.9155 15.9032 40.9795 15.8389 41.0647 15.796C41.0647 15.8603 41.0221 15.9247 40.9368 15.989C40.8729 16.0319 40.8303 16.0963 40.8089 16.1821C40.7237 16.225 40.6597 16.2786 40.6171 16.3429C40.5958 16.4073 40.5638 16.4823 40.5212 16.5681L39.7218 17.6298L38.7625 18.7879C38.9117 18.5949 39.0503 18.3911 39.1782 18.1767C39.3274 17.9622 39.4127 17.8335 39.434 17.7906L38.3788 19.2061L37.2917 20.4286C37.1638 20.5788 37.0145 20.7182 36.844 20.8469C36.7161 21.0828 36.5456 21.2436 36.3324 21.3294C36.2045 21.4796 36.0873 21.619 35.9807 21.7477C35.8954 21.8763 35.7888 21.9943 35.6609 22.1015C35.5543 22.2731 35.4158 22.4125 35.2452 22.5198C35.096 22.627 34.9361 22.7235 34.7656 22.8093C34.6803 22.8736 34.6164 22.9273 34.5738 22.9702C34.5311 23.0345 34.4672 23.0881 34.3819 23.131C34.2753 23.1954 34.1687 23.2382 34.0622 23.2597C33.9556 23.3026 33.8596 23.3455 33.7744 23.3884C33.7317 23.3884 33.6465 23.4098 33.5186 23.4527C33.412 23.4956 33.2948 23.5385 33.1669 23.5814C33.039 23.6457 32.911 23.6886 32.7831 23.7101C32.6766 23.753 32.5913 23.7744 32.5273 23.7744C32.3994 23.7744 32.2929 23.7315 32.2076 23.6458C32.1223 23.56 32.0371 23.4634 31.9518 23.3562C31.8878 23.2704 31.8026 23.1954 31.696 23.131C31.6107 23.0667 31.4935 23.0452 31.3443 23.0667L31.1844 22.938C31.1844 22.8307 31.1631 22.7557 31.1204 22.7128C31.0778 22.4554 31.0565 22.1981 31.0565 21.9407C31.0565 21.6833 31.0885 21.4259 31.1524 21.1686C31.2377 20.568 31.3549 20.0426 31.5041 19.5922C31.6747 19.1203 31.8559 18.6807 32.0477 18.2732C32.2396 17.8442 32.4421 17.4367 32.6552 17.0507C32.8684 16.6432 33.0922 16.2142 33.3267 15.7638C33.3694 15.7209 33.3907 15.678 33.3907 15.6351C33.412 15.5708 33.444 15.5279 33.4866 15.5065C33.6571 15.1633 33.8064 14.9059 33.9343 14.7344C34.0622 14.5413 34.1794 14.3805 34.286 14.2518C34.4139 14.1017 34.5418 13.9408 34.6697 13.7692C34.7976 13.5976 34.9575 13.351 35.1493 13.0293C34.8509 13.1151 34.5205 13.1365 34.1581 13.0936C33.7957 13.0507 33.5292 12.9328 33.3587 12.7397L33.2308 12.9971C33.0603 13.1901 32.911 13.4046 32.7831 13.6405C32.6552 13.8765 32.5273 14.1124 32.3994 14.3483C32.1223 14.7344 31.8665 15.0668 31.632 15.3456C31.4189 15.6244 31.1737 15.9676 30.8966 16.3751C30.7687 16.611 30.5555 16.8577 30.2571 17.115C29.9587 17.3724 29.7242 17.619 29.5536 17.855C29.511 17.8978 29.4577 17.9515 29.3938 18.0158C29.3511 18.0802 29.3085 18.1552 29.2659 18.241H29.2019C29.1593 18.2839 29.1273 18.3375 29.106 18.4019C29.0847 18.4448 29.0527 18.4662 29.0101 18.4662C28.9674 18.4448 28.9568 18.4233 28.9781 18.4019C28.9994 18.3804 29.0101 18.359 29.0101 18.3375C28.8608 18.359 28.7756 18.4126 28.7543 18.4984C28.7329 18.5842 28.6903 18.6592 28.6264 18.7236L28.7223 18.5305C28.701 18.4877 28.6797 18.4877 28.6583 18.5305C28.6583 18.552 28.637 18.5627 28.5944 18.5627C28.5944 18.5198 28.605 18.4984 28.6264 18.4984C28.669 18.4769 28.6903 18.4448 28.6903 18.4019C28.5411 18.4019 28.4345 18.4555 28.3706 18.5627C28.3492 18.5198 28.3599 18.4984 28.4025 18.4984C28.4238 18.4769 28.4132 18.4448 28.3706 18.4019C28.3492 18.4233 28.3386 18.4448 28.3386 18.4662C28.3173 18.4877 28.2746 18.5091 28.2107 18.5305C28.1894 18.4877 28.2107 18.4448 28.2746 18.4019C28.3386 18.359 28.3706 18.3161 28.3706 18.2732C28.2853 18.3161 28.2213 18.3697 28.1787 18.434C28.1148 18.4984 28.0401 18.5413 27.9549 18.5627C27.9975 18.4984 28.0508 18.4233 28.1148 18.3375C28.1787 18.2517 28.2533 18.1659 28.3386 18.0802C28.232 18.1016 28.168 18.1445 28.1467 18.2088C28.1254 18.2732 28.0934 18.3268 28.0508 18.3697C28.0295 18.3053 28.0508 18.241 28.1148 18.1767C28.1787 18.1123 28.232 18.0373 28.2746 17.9515C28.232 17.9515 28.2 17.9729 28.1787 18.0158C28.1361 18.0587 28.1041 18.1016 28.0828 18.1445C28.0401 18.1016 28.0295 18.0802 28.0508 18.0802C27.9869 18.0802 27.9016 18.1123 27.795 18.1767C27.6671 18.2196 27.5818 18.2517 27.5392 18.2732C27.6458 18.0373 27.7843 17.8228 27.9549 17.6298C28.1254 17.4367 28.2746 17.2437 28.4025 17.0507C28.4452 16.9649 28.4985 16.8791 28.5624 16.7933C28.605 16.6861 28.6477 16.5896 28.6903 16.5038C28.7116 16.5038 28.7223 16.5038 28.7223 16.5038C28.7223 16.4823 28.7329 16.4716 28.7543 16.4716C28.9035 16.2142 29.106 15.9247 29.3618 15.603C29.6389 15.2598 29.8308 14.9596 29.9373 14.7022C30.0226 14.5949 30.1185 14.477 30.2251 14.3483C30.3317 14.1982 30.417 14.048 30.4809 13.8979C30.5875 13.6834 30.6834 13.5119 30.7687 13.3832C30.854 13.233 30.9392 13.0936 31.0245 12.9649C31.1098 12.8148 31.195 12.6754 31.2803 12.5467C31.3869 12.3966 31.5041 12.2143 31.632 11.9998C31.6534 11.9784 31.6427 11.9676 31.6001 11.9676C31.5787 11.9462 31.5681 11.9247 31.5681 11.9033C31.6107 11.9247 31.6427 11.9247 31.664 11.9033C31.6853 11.8819 31.7066 11.8711 31.728 11.8711C31.5361 11.5494 31.5255 11.1526 31.696 10.6808C31.8665 10.1875 32.0157 9.71567 32.1436 9.26527C32.165 9.22238 32.1969 9.17948 32.2396 9.13659C32.2822 9.07225 32.3248 9.01863 32.3675 8.97573C32.4101 9.04008 32.4101 9.12587 32.3675 9.2331C32.3248 9.31889 32.3035 9.41541 32.3035 9.52264C32.1969 9.73712 32.1117 9.99448 32.0477 10.2947C32.0051 10.595 32.0264 10.8631 32.1117 11.099C32.133 10.8846 32.1436 10.6808 32.1436 10.4878C32.1436 10.2947 32.1969 10.1017 32.3035 9.9087C32.3248 9.71567 32.3568 9.53337 32.3994 9.36179C32.4421 9.19021 32.4847 9.01863 32.5273 8.84705C32.57 8.88994 32.5913 8.90067 32.5913 8.87922C32.5913 8.83633 32.6126 8.81488 32.6552 8.81488C32.6766 8.81488 32.6766 8.8256 32.6552 8.84705C32.6552 8.8685 32.6659 8.88994 32.6872 8.91139C32.7938 8.8685 32.8578 8.79343 32.8791 8.68619C32.9217 8.57896 32.9963 8.50389 33.1029 8.461C33.1455 8.461 33.1669 8.47172 33.1669 8.49317C33.1882 8.51462 33.2201 8.52534 33.2628 8.52534C33.1775 8.4181 33.0603 8.39665 32.911 8.461C32.911 8.39665 32.9537 8.37521 33.0389 8.39665C33.1455 8.39665 33.2201 8.4181 33.2628 8.461C33.3267 8.35376 33.38 8.27869 33.4227 8.2358C33.4866 8.1929 33.4653 8.25725 33.3587 8.42883C33.4013 8.40738 33.4333 8.38593 33.4546 8.36448C33.4973 8.32159 33.5719 8.30014 33.6785 8.30014C33.7424 8.30014 33.8064 8.32159 33.8703 8.36448C33.9556 8.40738 34.0408 8.43955 34.1261 8.461C34.1687 8.461 34.1794 8.45027 34.1581 8.42883C34.1581 8.38593 34.1794 8.36448 34.222 8.36448C34.286 8.45027 34.3499 8.50389 34.4139 8.52534C34.4992 8.52534 34.5844 8.54679 34.6697 8.58968C34.7763 8.88994 34.7869 9.19021 34.7017 9.49047C34.6377 9.76929 34.5524 10.0588 34.4459 10.3591C34.4032 10.5307 34.3393 10.6701 34.254 10.7773C34.1901 10.8846 34.1261 11.024 34.0622 11.1955C33.9769 11.41 33.9343 11.5709 33.9343 11.6781C33.9556 11.7424 34.0302 11.8068 34.1581 11.8711C34.3073 11.914 34.4352 11.9247 34.5418 11.9033C34.5631 11.9033 34.5844 11.9033 34.6057 11.9033C34.6271 11.8819 34.6484 11.8711 34.6697 11.8711C34.7123 11.8711 34.7656 11.8819 34.8296 11.9033C34.8935 11.9247 34.9575 11.9355 35.0214 11.9355C35.1919 11.914 35.3412 11.8819 35.4691 11.839C35.597 11.7746 35.7568 11.7424 35.9487 11.7424C35.9913 11.7424 36.002 11.7424 35.9807 11.7424C35.9594 11.721 35.9594 11.6996 35.9807 11.6781C36.0446 11.7424 36.1299 11.7424 36.2365 11.6781C36.2791 11.6781 36.3004 11.6888 36.3004 11.7103C36.3217 11.7317 36.3431 11.7317 36.3644 11.7103C36.407 11.6888 36.471 11.6781 36.5562 11.6781C36.6415 11.6781 36.7161 11.6567 36.7801 11.6138C36.8227 11.6138 36.8547 11.6245 36.876 11.6459C36.8973 11.6674 36.9399 11.6674 37.0039 11.6459C37.0465 11.7103 37.0785 11.7639 37.0998 11.8068C37.1424 11.8497 37.1744 11.914 37.1957 11.9998C37.2384 12.0642 37.281 12.1071 37.3236 12.1285C37.3663 12.1499 37.4089 12.1821 37.4515 12.225C37.4942 12.3751 37.5368 12.4717 37.5794 12.5146C37.5794 12.6003 37.6008 12.6647 37.6434 12.7076C37.686 12.7505 37.7287 12.8041 37.7713 12.8684C37.7287 12.9113 37.6967 12.9864 37.6754 13.0936C37.6754 13.1794 37.6434 13.2438 37.5794 13.2867C37.5368 13.2867 37.5261 13.2759 37.5475 13.2545C37.5688 13.2116 37.5688 13.1687 37.5475 13.1258C37.4622 13.4046 37.3556 13.6513 37.2277 13.8657C37.0998 14.0588 36.9826 14.284 36.876 14.5413C36.8333 14.5842 36.7907 14.6378 36.7481 14.7022C36.7268 14.7665 36.6841 14.8201 36.6202 14.863C36.4923 15.099 36.3964 15.2705 36.3324 15.3778C36.2684 15.485 36.2045 15.5815 36.1405 15.6673C36.0766 15.7317 36.0126 15.8067 35.9487 15.8925C35.9061 15.9783 35.8421 16.0963 35.7568 16.2464C35.4797 16.7182 35.2346 17.1257 35.0214 17.4689C34.8296 17.8121 34.6484 18.1552 34.4778 18.4984C34.3286 18.8415 34.1901 19.2276 34.0622 19.6565C33.9343 20.064 33.817 20.568 33.7104 21.1686C33.9449 20.9541 34.1581 20.8254 34.3499 20.7825C34.5631 20.7182 34.8082 20.5895 35.0854 20.3965C35.0854 20.375 35.0854 20.3643 35.0854 20.3643C35.1067 20.3643 35.1173 20.375 35.1173 20.3965C35.3518 20.1605 35.5757 19.9246 35.7888 19.6887C36.002 19.4528 36.2471 19.2383 36.5243 19.0453H36.4603C36.5029 19.0024 36.5456 18.9595 36.5882 18.9166C36.6522 18.8523 36.6841 18.7986 36.6841 18.7557C36.7268 18.7128 36.7694 18.67 36.812 18.6271C36.8547 18.5842 36.9186 18.5305 37.0039 18.4662V18.434C37.0039 18.434 37.0252 18.4126 37.0678 18.3697C37.1744 18.2839 37.281 18.1767 37.3876 18.048C37.5155 17.9193 37.654 17.8013 37.8033 17.6941V17.7263L37.8672 17.6298ZM37.6114 19.8174C37.5688 19.7959 37.5688 19.7745 37.6114 19.753C37.6754 19.7102 37.7287 19.6887 37.7713 19.6887C37.7713 19.6887 37.7819 19.6673 37.8033 19.6244C37.8459 19.5815 37.8672 19.5386 37.8672 19.4957C37.6967 19.6029 37.5581 19.7316 37.4515 19.8817C37.345 20.0104 37.249 20.1605 37.1638 20.3321C37.2064 20.3107 37.2384 20.2678 37.2597 20.2034C37.3023 20.1391 37.3556 20.0855 37.4196 20.0426C37.4196 19.9997 37.4409 19.9568 37.4835 19.9139C37.5048 19.9354 37.5048 19.9568 37.4835 19.9782C37.4622 19.9782 37.4515 19.989 37.4515 20.0104L37.7393 19.7209C37.654 19.7638 37.6114 19.7959 37.6114 19.8174ZM37.4196 18.1123C37.4622 18.0694 37.5048 18.0265 37.5475 17.9836C37.6114 17.9407 37.6647 17.8871 37.7073 17.8228C37.6434 17.8657 37.5794 17.9193 37.5155 17.9836C37.4515 18.0265 37.4196 18.0694 37.4196 18.1123ZM38.0591 19.3348C37.9951 19.3348 37.9525 19.367 37.9312 19.4313C37.9312 19.4742 37.9205 19.5171 37.8992 19.56L38.0591 19.3348ZM38.091 19.4313C38.2189 19.3884 38.2829 19.3134 38.2829 19.2061L38.091 19.4313ZM39.2741 15.5065C39.2315 15.5065 39.2102 15.5065 39.2102 15.5065C39.2102 15.4421 39.2315 15.41 39.2741 15.41C39.2741 15.4314 39.2741 15.4421 39.2741 15.4421C39.2954 15.4421 39.2954 15.4636 39.2741 15.5065ZM40.9049 15.8925C40.8622 15.9783 40.7876 16.0748 40.681 16.1821L40.9049 15.8925ZM40.1055 16.922C40.1481 16.8791 40.1801 16.8362 40.2014 16.7933C40.2227 16.7504 40.2547 16.7075 40.2973 16.6646L40.1055 16.922ZM38.3788 19.2061C38.4001 19.2061 38.4534 19.1418 38.5387 19.0131L38.3788 19.2061ZM40.2973 16.6325C40.2973 16.6539 40.3293 16.6325 40.3933 16.5681L40.3613 16.6003C40.34 16.6217 40.3187 16.6325 40.2973 16.6325Z" transform="translate(48.3018 7.54688)" fill="#34314B"/>
<path d="M51.8959 11.5172C51.9385 11.5172 51.9385 11.528 51.8959 11.5494C51.8745 11.5494 51.8745 11.5601 51.8959 11.5816C51.9385 11.5601 52.0025 11.528 52.0877 11.4851C52.173 11.4207 52.2476 11.3886 52.3115 11.3886C52.2689 11.4958 52.205 11.5923 52.1197 11.6781C52.0557 11.7424 51.9918 11.8175 51.9278 11.9033L52.1836 11.7103C52.1197 11.839 52.0131 11.9569 51.8639 12.0642C51.736 12.1714 51.5974 12.2679 51.4482 12.3537C51.4482 12.3966 51.4482 12.418 51.4482 12.418C51.4695 12.3966 51.4802 12.4073 51.4802 12.4502C51.3949 12.4931 51.3097 12.5467 51.2244 12.6111C51.1391 12.6754 51.0539 12.7612 50.9686 12.8684C51.0325 12.847 51.0858 12.8363 51.1285 12.8363C51.0219 12.8792 50.9259 12.9328 50.8407 12.9971C50.7554 13.04 50.6808 13.0829 50.6169 13.1258C50.6169 13.1258 50.6169 13.1044 50.6169 13.0615C50.5955 13.0615 50.5742 13.0722 50.5529 13.0936C50.5316 13.1151 50.5316 13.1258 50.5529 13.1258H50.5849C50.5849 13.1687 50.5529 13.1901 50.489 13.1901C50.489 13.1687 50.4783 13.158 50.457 13.158V13.1901C50.457 13.1901 50.4357 13.1901 50.393 13.1901V13.2545C50.2225 13.2974 50.052 13.3724 49.8814 13.4797C49.7109 13.5655 49.519 13.6191 49.3059 13.6405C49.2419 13.662 49.1993 13.6727 49.178 13.6727C49.178 13.6727 49.1673 13.6834 49.146 13.7049C49.146 13.7049 49.1034 13.7049 49.0181 13.7049C48.8689 13.7263 48.709 13.7371 48.5385 13.7371C48.3679 13.7371 48.24 13.7478 48.1548 13.7692C47.9842 13.7692 47.803 13.7692 47.6112 13.7692C47.4193 13.7692 47.2168 13.7371 47.0036 13.6727C47.0463 13.7585 47.0463 13.8228 47.0036 13.8657C46.9823 13.8872 46.9717 13.9408 46.9717 14.0266C46.929 14.0051 46.9184 13.9837 46.9397 13.9623C46.961 13.9408 46.961 13.9194 46.9397 13.8979L46.7798 14.3805C46.7372 14.4877 46.7052 14.5735 46.6839 14.6378C46.6626 14.7022 46.6306 14.788 46.588 14.8952C46.5667 14.9167 46.5453 14.9381 46.524 14.9596C46.5027 14.9596 46.492 14.981 46.492 15.0239L46.524 15.0561C46.5027 15.2062 46.4494 15.3456 46.3641 15.4743C46.3002 15.5815 46.2469 15.6995 46.2043 15.8282C46.2682 15.8067 46.3002 15.7638 46.3002 15.6995C46.3215 15.6137 46.3535 15.5494 46.3961 15.5065C46.4388 15.4207 46.4707 15.3563 46.492 15.3134C46.5347 15.2491 46.556 15.1848 46.556 15.1204C46.5986 15.1633 46.588 15.2169 46.524 15.2813C46.4814 15.3456 46.4814 15.3992 46.524 15.4421C46.4814 15.5708 46.4281 15.6995 46.3641 15.8282C46.3215 15.9354 46.2895 16.0641 46.2682 16.2142C46.2256 16.1928 46.2043 16.225 46.2043 16.3107C46.2256 16.3751 46.2149 16.3965 46.1723 16.3751C46.1936 16.4609 46.1723 16.5359 46.1083 16.6003C46.0657 16.6432 46.0337 16.7182 46.0124 16.8255C46.0124 16.7826 46.0444 16.7611 46.1083 16.7611C46.1083 16.8255 46.0977 16.8576 46.0764 16.8576C46.0764 16.9005 46.0764 16.922 46.0764 16.922C46.0977 16.9005 46.1083 16.9113 46.1083 16.9542C46.087 16.9756 46.0337 16.9863 45.9485 16.9863C45.9485 16.9863 45.9378 16.9649 45.9165 16.922C45.682 17.2866 45.4582 17.6726 45.245 18.0802C45.0532 18.4662 44.8293 18.8308 44.5735 19.174C44.5948 19.1954 44.6055 19.1954 44.6055 19.174C44.6268 19.1311 44.6588 19.1096 44.7014 19.1096C44.5096 19.367 44.3071 19.6244 44.0939 19.8817C43.8807 20.1391 43.6676 20.3857 43.4544 20.6217C43.3478 20.7718 43.2412 20.9112 43.1346 21.0399C43.0494 21.1686 42.9534 21.2865 42.8469 21.3938C42.8042 21.4367 42.7616 21.4688 42.719 21.4903C42.6763 21.5117 42.6337 21.5439 42.5911 21.5868C42.3566 21.8227 42.0901 22.0694 41.7917 22.3267C41.5146 22.5627 41.1841 22.745 40.8004 22.8736C40.7791 22.8736 40.7685 22.9165 40.7685 23.0023C40.534 23.0667 40.2462 23.0988 39.9051 23.0988C39.5641 23.1203 39.2976 23.0667 39.1058 22.938C38.6155 22.8736 38.2104 22.7128 37.8907 22.4554C37.5709 22.198 37.3898 21.8227 37.3471 21.3294C37.2832 20.9648 37.2832 20.6217 37.3471 20.3C37.3898 19.9782 37.4537 19.6565 37.539 19.3348C37.7948 18.3053 38.1252 17.3938 38.5302 16.6003C38.7007 16.3215 38.85 16.0427 38.9779 15.7638C39.1058 15.4636 39.2763 15.1955 39.4895 14.9596C39.5108 14.8523 39.5428 14.7773 39.5854 14.7344C39.6493 14.67 39.692 14.5842 39.7133 14.477C39.8199 14.3698 39.8838 14.2625 39.9051 14.1553C40.033 14.0695 40.097 13.973 40.097 13.8657C40.1396 13.9086 40.1609 13.8765 40.1609 13.7692C40.1823 13.7692 40.2036 13.7585 40.2249 13.7371C40.3315 13.5226 40.4594 13.351 40.6086 13.2223C40.7578 13.0722 40.8857 12.8899 40.9923 12.6754C41.0776 12.6325 41.1202 12.5789 41.1202 12.5146C41.4186 12.1499 41.7277 11.7853 42.0475 11.4207C42.3672 11.0347 42.7083 10.6701 43.0707 10.3269C43.0707 10.3055 43.0814 10.284 43.1027 10.2626V10.2947C43.124 10.2733 43.1453 10.2626 43.1666 10.2626C43.1879 10.2626 43.2199 10.2519 43.2625 10.2304C43.3691 10.1661 43.4544 10.0803 43.5183 9.97304C43.6036 9.84435 43.6995 9.78001 43.8061 9.78001C43.9767 9.73712 44.1259 9.70495 44.2538 9.6835C44.403 9.6406 44.5522 9.57626 44.7014 9.49047L45.0212 9.74784C45.2344 9.70494 45.3942 9.72639 45.5008 9.81218V9.9087C45.5861 10.0159 45.6927 10.1124 45.8206 10.1982C45.9698 10.2626 45.9911 10.3805 45.8845 10.5521C45.9698 10.595 46.0231 10.6057 46.0444 10.5843C46.0657 10.6272 46.0764 10.6701 46.0764 10.713C46.0977 10.7559 46.119 10.788 46.1403 10.8095C46.1829 10.788 46.1829 10.7666 46.1403 10.7451C46.119 10.7022 46.119 10.6701 46.1403 10.6486C46.1616 10.6701 46.1723 10.7022 46.1723 10.7451C46.1723 10.7666 46.1936 10.788 46.2362 10.8095V10.713C46.2789 10.7988 46.3109 10.8417 46.3322 10.8417C46.3535 10.8202 46.3535 10.8095 46.3322 10.8095C46.3109 10.788 46.3109 10.7559 46.3322 10.713C46.3748 10.713 46.3855 10.713 46.3641 10.713C46.3641 10.6915 46.3748 10.6808 46.3961 10.6808C46.4601 10.788 46.5347 10.8953 46.6199 11.0025C46.7265 11.0883 46.7692 11.1848 46.7478 11.2921C46.7692 11.3564 46.8118 11.3886 46.8757 11.3886C46.8971 11.4958 46.9077 11.603 46.9077 11.7103C46.9077 11.7961 46.929 11.8926 46.9717 11.9998C46.9504 12.0213 46.929 12.0642 46.9077 12.1285C46.9077 12.1714 46.9397 12.1928 47.0036 12.1928C47.0463 12.0213 47.0356 11.839 46.9717 11.6459C46.929 11.4315 46.8864 11.2384 46.8438 11.0669C46.9504 11.1955 47.0143 11.3671 47.0356 11.5816C47.0569 11.7961 47.0889 11.9998 47.1315 12.1928V12.1285C47.1955 12.1928 47.3554 12.2465 47.6112 12.2894C47.867 12.3108 48.0482 12.3215 48.1548 12.3215C48.4745 12.3215 48.7197 12.3108 48.8902 12.2894C49.082 12.2679 49.2419 12.2357 49.3698 12.1928C49.6043 12.0856 49.8068 11.9998 49.9774 11.9355C50.1692 11.8711 50.3504 11.7853 50.5209 11.6781L50.7128 11.6138C50.7554 11.6138 50.7874 11.603 50.8087 11.5816C50.8513 11.5387 50.894 11.5065 50.9366 11.4851C50.9153 11.528 50.894 11.5601 50.8727 11.5816C50.8513 11.5816 50.8513 11.603 50.8727 11.6459C50.8087 11.6674 50.7554 11.7424 50.7128 11.8711L51.5441 11.3564C51.5868 11.3564 51.6081 11.3564 51.6081 11.3564C51.6294 11.3349 51.6614 11.3349 51.704 11.3564C51.8745 11.2492 52.0238 11.1205 52.1517 10.9703C52.1943 11.0132 52.1943 11.0561 52.1517 11.099C52.109 11.1205 52.0771 11.1419 52.0557 11.1634C51.9492 11.2492 51.8532 11.3457 51.768 11.4529C51.704 11.5601 51.6187 11.6567 51.5122 11.7424C51.6187 11.6996 51.6934 11.6567 51.736 11.6138C51.7786 11.5709 51.8319 11.5387 51.8959 11.5172ZM45.3729 12.5467C45.3729 12.5467 45.3623 12.5574 45.3409 12.5789C45.2983 12.7076 45.2663 12.8255 45.245 12.9328C45.245 13.04 45.2237 13.1473 45.1811 13.2545C45.2024 13.1258 45.2237 13.0078 45.245 12.9006C45.2663 12.7934 45.277 12.654 45.277 12.4824C45.1917 12.4395 45.1278 12.3751 45.0851 12.2894C45.0425 12.1821 44.9785 12.1071 44.8933 12.0642C44.8933 12.0213 44.872 11.9891 44.8293 11.9676C44.7867 11.9462 44.7441 11.914 44.7014 11.8711C44.4883 12.0856 44.3071 12.3215 44.1578 12.5789C44.0299 12.8363 43.8488 13.0615 43.6143 13.2545C43.593 13.2974 43.5716 13.3296 43.5503 13.351C43.529 13.3724 43.5183 13.4153 43.5183 13.4797C43.4544 13.5226 43.4011 13.5762 43.3585 13.6405C43.3158 13.7049 43.2625 13.7692 43.1986 13.8336C43.156 13.8979 43.1027 13.9623 43.0387 14.0266C42.9748 14.0909 42.9215 14.166 42.8788 14.2518C42.8575 14.2947 42.8469 14.3269 42.8469 14.3483C42.8469 14.3483 42.8255 14.3698 42.7829 14.4126C42.6124 14.6486 42.4632 14.8845 42.3353 15.1204C42.2074 15.3349 42.0688 15.5601 41.9196 15.796C41.8769 15.8818 41.8237 15.9676 41.7597 16.0534C41.7171 16.1392 41.6744 16.2357 41.6318 16.3429C41.4613 16.6432 41.3014 16.9434 41.1522 17.2437C41.003 17.544 40.8751 17.8657 40.7685 18.2088C40.6619 18.359 40.5766 18.5198 40.5127 18.6914C40.47 18.863 40.4167 19.0238 40.3528 19.174C40.3741 19.2169 40.3954 19.2598 40.4167 19.3027C40.4381 19.3455 40.4274 19.3884 40.3848 19.4313C40.3635 19.4528 40.3421 19.4528 40.3208 19.4313C40.2995 19.3884 40.2888 19.3884 40.2888 19.4313C40.1823 19.7102 40.0863 19.9997 40.0011 20.3C39.9158 20.5788 39.8838 20.9005 39.9051 21.2651C40.566 20.879 41.1309 20.3965 41.5998 19.8174C42.0688 19.2383 42.5164 18.6485 42.9428 18.048C42.9428 18.0265 42.9534 18.0158 42.9748 18.0158C42.9961 17.9944 42.9961 17.9622 42.9748 17.9193C43.1666 17.7263 43.3265 17.5118 43.4544 17.2759C43.6036 17.0185 43.7422 16.7719 43.8701 16.5359C43.9127 16.5359 43.934 16.5359 43.934 16.5359C43.934 16.5145 43.9553 16.5038 43.998 16.5038C44.0406 16.418 44.0726 16.3215 44.0939 16.2142C44.1152 16.107 44.1472 16.0105 44.1898 15.9247C44.2751 15.7531 44.371 15.5708 44.4776 15.3778C44.6055 15.1848 44.6801 14.981 44.7014 14.7665C44.7014 14.7451 44.6801 14.7558 44.6375 14.7987C44.5948 14.8201 44.5842 14.7987 44.6055 14.7344C44.5842 14.7129 44.5842 14.7129 44.6055 14.7344C44.6481 14.7344 44.6695 14.7236 44.6695 14.7022C44.6908 14.6807 44.7014 14.6807 44.7014 14.7022C44.7227 14.7022 44.7547 14.6915 44.7974 14.67C44.9039 14.3269 45.0212 13.9944 45.1491 13.6727C45.2983 13.3296 45.3729 12.9542 45.3729 12.5467ZM45.8845 17.1472C45.8419 17.3188 45.7673 17.4796 45.6607 17.6298C45.5541 17.7799 45.4582 17.93 45.3729 18.0802C45.4155 17.93 45.4902 17.7799 45.5967 17.6298C45.7033 17.4796 45.7992 17.3188 45.8845 17.1472ZM50.2651 13.1901C50.1585 13.2116 50.0626 13.233 49.9774 13.2545C49.8921 13.2759 49.8281 13.3081 49.7855 13.351L50.2651 13.1901ZM46.2362 15.9247C46.3641 15.796 46.4281 15.6673 46.4281 15.5386L46.2362 15.9247ZM45.4049 9.58698C45.4049 9.62988 45.3729 9.65133 45.309 9.65133C45.2663 9.62988 45.2344 9.60843 45.213 9.58698C45.2344 9.56554 45.2663 9.56554 45.309 9.58698C45.3516 9.58698 45.3836 9.58698 45.4049 9.58698ZM46.8118 14.7665C46.7905 14.7022 46.8225 14.5842 46.9077 14.4126L46.8118 14.7665ZM46.1403 16.0212C46.2043 15.9998 46.2149 15.9461 46.1723 15.8603C46.1723 15.8818 46.1616 15.914 46.1403 15.9569C46.1403 15.9783 46.1403 15.9998 46.1403 16.0212ZM46.1723 16.0855C46.1936 16.0855 46.2149 16.0641 46.2362 16.0212C46.2576 15.9569 46.2576 15.9354 46.2362 15.9569C46.1936 15.9998 46.1723 16.0426 46.1723 16.0855ZM51.3843 11.8068C51.3416 11.8068 51.3097 11.8175 51.2883 11.839C51.267 11.8604 51.267 11.8819 51.2883 11.9033L51.3843 11.8068ZM46.556 10.8738C46.556 10.8309 46.5773 10.8095 46.6199 10.8095C46.6626 10.8095 46.6626 10.8309 46.6199 10.8738H46.556ZM50.8407 12.9328C50.9046 12.9328 50.9366 12.9113 50.9366 12.8684C50.9153 12.8684 50.8833 12.8899 50.8407 12.9328ZM45.1491 13.2867C45.1704 13.2867 45.1811 13.3081 45.1811 13.351C45.1811 13.3724 45.1597 13.3832 45.1171 13.3832C45.1171 13.3617 45.1171 13.351 45.1171 13.351C45.1384 13.3296 45.1491 13.3081 45.1491 13.2867ZM40.5127 13.158C40.5553 13.158 40.5553 13.1794 40.5127 13.2223C40.4914 13.2438 40.47 13.2759 40.4487 13.3188C40.4274 13.2974 40.4274 13.2759 40.4487 13.2545C40.4914 13.233 40.5127 13.2009 40.5127 13.158ZM40.6406 13.0936C40.6193 13.0936 40.6299 13.0722 40.6725 13.0293C40.6725 13.0507 40.6619 13.0615 40.6406 13.0615C40.6406 13.0615 40.6406 13.0722 40.6406 13.0936ZM46.9397 14.3161C46.9397 14.3376 46.929 14.359 46.9077 14.3805C46.9077 14.3805 46.9077 14.3912 46.9077 14.4126L46.9397 14.3161ZM46.1403 16.729C46.1403 16.729 46.1297 16.7397 46.1083 16.7611L46.1403 16.729Z" transform="translate(48.3018 7.54688)" fill="#34314B"/>
<path d="M54.9882 17.5332C54.8177 17.8335 54.6045 18.1445 54.3487 18.4662C54.0929 18.7665 53.8478 19.0775 53.6133 19.3992C53.6559 19.3992 53.6772 19.3884 53.6772 19.367C53.6772 19.3455 53.6986 19.3348 53.7412 19.3348C53.7199 19.3777 53.6559 19.4313 53.5493 19.4957C53.3788 19.753 53.187 19.9997 52.9738 20.2356C52.7606 20.4715 52.5688 20.7075 52.3982 20.9434C52.3769 20.9648 52.3663 20.9863 52.3663 21.0077C52.3876 21.0077 52.3876 21.0184 52.3663 21.0399C52.0465 21.3402 51.7374 21.6726 51.439 22.0372C51.1405 22.4018 50.7995 22.7128 50.4158 22.9702C50.3518 23.0131 50.2879 23.0452 50.2239 23.0667C50.16 23.0881 50.096 23.1203 50.0321 23.1632C49.9681 23.1846 49.9042 23.2061 49.8402 23.2275C49.7763 23.249 49.691 23.2704 49.5844 23.2919C49.5205 23.3133 49.4245 23.324 49.2966 23.324C49.1687 23.324 49.0302 23.3133 48.8809 23.2919C48.753 23.2919 48.6251 23.2811 48.4972 23.2597C48.3693 23.2382 48.2841 23.2061 48.2414 23.1632C48.007 23.1417 47.8471 23.0988 47.7618 23.0345C47.6765 22.9702 47.5806 22.8736 47.474 22.745C47.474 22.745 47.474 22.7128 47.474 22.6484C47.3888 22.5841 47.3142 22.509 47.2502 22.4232C47.1863 22.3375 47.1756 22.2088 47.2182 22.0372C47.2182 22.0157 47.2076 22.005 47.1863 22.005C47.1436 21.9836 47.1116 21.9621 47.0903 21.9407C46.9837 21.8334 46.9411 21.7262 46.9624 21.619C46.9837 21.4903 47.0051 21.3402 47.0264 21.1686C46.9837 20.8469 46.9944 20.5037 47.0584 20.1391C47.1223 19.753 47.2395 19.3134 47.4101 18.8201C47.4527 18.6271 47.5167 18.4233 47.6019 18.2088C47.6659 17.9944 47.7298 17.7906 47.7938 17.5976C48.007 17.0185 48.2095 16.493 48.4013 16.0212C48.5932 15.5279 48.785 15.0668 48.9769 14.6378C49.1687 14.1875 49.3712 13.7478 49.5844 13.3188C49.7976 12.8684 50.0321 12.3966 50.2879 11.9033V11.8068C50.3518 11.6996 50.3838 11.6567 50.3838 11.6781C50.3838 11.6781 50.3731 11.6888 50.3518 11.7103C50.3518 11.7317 50.3518 11.7532 50.3518 11.7746C50.3518 11.7746 50.3838 11.721 50.4477 11.6138L51.407 9.87652C51.4923 9.79073 51.5562 9.66205 51.5988 9.49047C51.6415 9.29744 51.7267 9.13659 51.8546 9.00791C52.0465 8.6433 52.2916 8.20363 52.5901 7.68889C52.8885 7.17415 53.187 6.64869 53.4854 6.11251C53.8051 5.55487 54.1036 5.02941 54.3807 4.53612C54.6578 4.02139 54.8816 3.59244 55.0522 3.24928L55.276 3.15277C55.2973 3.13132 55.308 3.09915 55.308 3.05625C55.3932 3.05625 55.4359 3.02408 55.4359 2.95974C55.4572 2.87395 55.5211 2.84178 55.6277 2.86323C55.7343 2.97046 55.8409 3.05625 55.9475 3.1206C56.0541 3.18494 56.15 3.18494 56.2353 3.1206C56.2566 3.1206 56.2886 3.10987 56.3312 3.08842C56.3951 3.04553 56.4591 3.02408 56.523 3.02408C56.6083 3.02408 56.6829 3.05625 56.7469 3.1206C56.8321 3.18494 56.9067 3.31362 56.9707 3.50665C56.992 3.54954 56.9707 3.59244 56.9067 3.63533C56.8641 3.65678 56.8641 3.68895 56.9067 3.73185C56.9494 3.77474 56.9813 3.82836 57.0027 3.8927C57.0453 3.95704 57.0666 4.02139 57.0666 4.08573C57.0027 4.12862 56.96 4.19297 56.9387 4.27875C56.9387 4.3431 56.9067 4.39672 56.8428 4.43961C56.7788 4.63264 56.6403 4.95435 56.4271 5.40474C56.2139 5.83369 55.9901 6.29481 55.7556 6.7881C55.5211 7.28139 55.2867 7.74251 55.0522 8.17146C54.839 8.6004 54.6898 8.91139 54.6045 9.10442C54.5619 9.21165 54.5192 9.31889 54.4766 9.42613C54.434 9.51192 54.3274 9.70494 54.1569 10.0052C53.7518 10.8631 53.4001 11.5601 53.1017 12.0963C52.8246 12.6325 52.5581 13.1473 52.3023 13.6405C52.0465 14.1338 51.78 14.67 51.5029 15.2491C51.2471 15.8067 50.938 16.5359 50.5756 17.4367C50.533 17.5011 50.4904 17.5547 50.4477 17.5976C50.4264 17.6405 50.4264 17.6941 50.4477 17.7584L50.3838 17.8871C50.1706 18.4662 49.9468 19.0238 49.7123 19.56C49.4991 20.0962 49.3499 20.7075 49.2646 21.3938C49.2646 21.4152 49.2646 21.4152 49.2646 21.3938C49.286 21.3723 49.2966 21.3723 49.2966 21.3938C49.2966 21.4152 49.286 21.4259 49.2646 21.4259C49.2646 21.4259 49.2646 21.4367 49.2646 21.4581C49.3712 21.4152 49.5311 21.3509 49.7443 21.2651C49.9574 21.1579 50.1067 21.0613 50.1919 20.9755C50.1493 20.9327 50.1067 20.9219 50.064 20.9434C50.2346 20.9005 50.3625 20.8147 50.4477 20.686C50.533 20.5573 50.6289 20.4608 50.7355 20.3965L50.6076 20.5895C50.6716 20.5252 50.7248 20.4715 50.7675 20.4286C50.8314 20.3643 50.8847 20.2785 50.9274 20.1713C51.2258 19.9139 51.4923 19.6244 51.7267 19.3027C51.9612 18.9809 52.2277 18.67 52.5261 18.3697C52.2916 18.6914 52.0358 19.0131 51.7587 19.3348C51.5029 19.6351 51.2578 19.9354 51.0233 20.2356C51.3217 19.9997 51.5882 19.7316 51.8227 19.4313C52.0572 19.1096 52.3023 18.7986 52.5581 18.4984C52.6647 18.3911 52.7713 18.2732 52.8779 18.1445C53.0058 18.0158 53.123 17.8871 53.2296 17.7584C53.2509 17.8013 53.2402 17.8335 53.1976 17.855C53.155 17.855 53.1337 17.8764 53.1337 17.9193C53.5174 17.5332 53.8904 17.115 54.2528 16.6646C54.6152 16.2142 55.0095 15.7853 55.4359 15.3778C55.4146 15.485 55.3613 15.5815 55.276 15.6673C55.1694 15.7746 55.0628 15.8818 54.9562 15.989C54.8497 16.0963 54.7431 16.2142 54.6365 16.3429C54.5512 16.4501 54.466 16.5788 54.3807 16.729C54.2954 16.8576 54.1995 16.9756 54.0929 17.0828C53.9863 17.1901 53.9224 17.2544 53.9011 17.2759C53.9011 17.2973 53.8584 17.3617 53.7732 17.4689H53.8051L54.7004 16.5359C54.9136 16.3 55.1055 16.0748 55.276 15.8603C55.4679 15.6459 55.681 15.4421 55.9155 15.2491C55.9368 15.3134 55.9262 15.3778 55.8835 15.4421C55.8409 15.485 55.7983 15.5279 55.7556 15.5708C55.5211 15.914 55.2653 16.2464 54.9882 16.5681C54.7111 16.8898 54.434 17.2115 54.1569 17.5332C54.1356 17.5547 54.1249 17.5761 54.1249 17.5976V17.6298C54.1462 17.6298 54.1569 17.6298 54.1569 17.6298C54.1569 17.6083 54.1675 17.5976 54.1888 17.5976C54.1462 17.6405 54.1249 17.6834 54.1249 17.7263C54.1249 17.7477 54.1142 17.7799 54.0929 17.8228C54.0929 17.8442 54.1249 17.8228 54.1888 17.7584C54.2528 17.6941 54.3167 17.6298 54.3807 17.5654C54.4446 17.4796 54.5086 17.4046 54.5725 17.3402C54.6365 17.2759 54.6685 17.2437 54.6685 17.2437C54.8603 17.0507 55.0095 16.9005 55.1161 16.7933C55.2227 16.6861 55.3186 16.6003 55.4039 16.5359C55.5105 16.4501 55.6171 16.3644 55.7237 16.2786C55.8302 16.1713 55.9795 16.0212 56.1713 15.8282C56.1287 15.914 56.0754 15.989 56.0114 16.0534C55.9475 16.0963 55.8942 16.1713 55.8516 16.2786C55.9155 16.2357 55.9795 16.1713 56.0434 16.0855C56.1287 15.9783 56.2139 15.9032 56.2992 15.8603C56.0221 16.225 55.7237 16.5788 55.4039 16.922C55.0841 17.2652 54.7857 17.6298 54.5086 18.0158C54.6152 17.9729 54.7004 17.9086 54.7644 17.8228C54.8283 17.7155 54.903 17.619 54.9882 17.5332ZM50.6076 20.686C50.6502 20.6217 50.7035 20.5681 50.7675 20.5252C50.8314 20.4823 50.8634 20.4179 50.8634 20.3321C50.8208 20.3965 50.7675 20.4501 50.7035 20.493C50.6396 20.5359 50.6076 20.6002 50.6076 20.686ZM53.997 19.1418C54.0396 19.0775 54.0929 19.0131 54.1569 18.9488C54.2421 18.863 54.3167 18.7665 54.3807 18.6592C54.3381 18.7665 54.2741 18.863 54.1888 18.9488C54.1249 19.0131 54.0609 19.0775 53.997 19.1418ZM56.8108 4.72915C56.8321 4.68626 56.8428 4.66481 56.8428 4.66481C56.8641 4.64336 56.8748 4.62191 56.8748 4.60047C56.8535 4.57902 56.8428 4.57902 56.8428 4.60047C56.8428 4.62191 56.8321 4.63264 56.8108 4.63264C56.8321 4.5683 56.8641 4.53612 56.9067 4.53612C56.9067 4.64336 56.8748 4.7077 56.8108 4.72915ZM53.8051 17.1472C53.7625 17.1901 53.7305 17.2223 53.7092 17.2437C53.6879 17.2652 53.6559 17.2866 53.6133 17.308C53.6559 17.2008 53.7199 17.1472 53.8051 17.1472ZM53.0697 19.9461C53.1337 19.9461 53.1656 19.9139 53.1656 19.8496C53.1017 19.8496 53.0697 19.8817 53.0697 19.9461ZM53.4534 17.4689C53.4747 17.5118 53.4641 17.5547 53.4214 17.5976C53.3788 17.619 53.3468 17.6512 53.3255 17.6941C53.3255 17.6512 53.3362 17.619 53.3575 17.5976C53.4001 17.5547 53.4321 17.5118 53.4534 17.4689ZM54.5725 18.434C54.5725 18.434 54.5832 18.4233 54.6045 18.4019C54.6045 18.4233 54.5939 18.434 54.5725 18.434Z" transform="translate(48.3018 7.54688)" fill="#34314B"/>
<path d="M67.5088 11.5172C67.5514 11.5172 67.5514 11.528 67.5088 11.5494C67.4875 11.5494 67.4875 11.5601 67.5088 11.5816C67.5514 11.5601 67.6154 11.528 67.7006 11.4851C67.7859 11.4207 67.8605 11.3886 67.9245 11.3886C67.8818 11.4958 67.8179 11.5923 67.7326 11.6781C67.6687 11.7424 67.6047 11.8175 67.5408 11.9033L67.7966 11.7103C67.7326 11.839 67.626 11.9569 67.4768 12.0642C67.3489 12.1714 67.2104 12.2679 67.0611 12.3537C67.0611 12.3966 67.0611 12.418 67.0611 12.418C67.0825 12.3966 67.0931 12.4073 67.0931 12.4502C67.0078 12.4931 66.9226 12.5467 66.8373 12.6111C66.752 12.6754 66.6668 12.7612 66.5815 12.8684C66.6455 12.847 66.6987 12.8363 66.7414 12.8363C66.6348 12.8792 66.5389 12.9328 66.4536 12.9971C66.3683 13.04 66.2937 13.0829 66.2298 13.1258C66.2298 13.1258 66.2298 13.1044 66.2298 13.0615C66.2085 13.0615 66.1871 13.0722 66.1658 13.0936C66.1445 13.1151 66.1445 13.1258 66.1658 13.1258H66.1978C66.1978 13.1687 66.1658 13.1901 66.1019 13.1901C66.1019 13.1687 66.0912 13.158 66.0699 13.158V13.1901C66.0699 13.1901 66.0486 13.1901 66.006 13.1901V13.2545C65.8354 13.2974 65.6649 13.3724 65.4944 13.4797C65.3238 13.5655 65.132 13.6191 64.9188 13.6405C64.8548 13.662 64.8122 13.6727 64.7909 13.6727C64.7909 13.6727 64.7802 13.6834 64.7589 13.7049C64.7589 13.7049 64.7163 13.7049 64.631 13.7049C64.4818 13.7263 64.3219 13.7371 64.1514 13.7371C63.9809 13.7371 63.853 13.7478 63.7677 13.7692C63.5971 13.7692 63.416 13.7692 63.2241 13.7692C63.0323 13.7692 62.8297 13.7371 62.6166 13.6727C62.6592 13.7585 62.6592 13.8228 62.6166 13.8657C62.5953 13.8872 62.5846 13.9408 62.5846 14.0266C62.542 14.0051 62.5313 13.9837 62.5526 13.9623C62.5739 13.9408 62.5739 13.9194 62.5526 13.8979L62.3927 14.3805C62.3501 14.4877 62.3181 14.5735 62.2968 14.6378C62.2755 14.7022 62.2435 14.788 62.2009 14.8952C62.1796 14.9167 62.1583 14.9381 62.1369 14.9596C62.1156 14.9596 62.105 14.981 62.105 15.0239L62.1369 15.0561C62.1156 15.2062 62.0623 15.3456 61.9771 15.4743C61.9131 15.5815 61.8598 15.6995 61.8172 15.8282C61.8811 15.8067 61.9131 15.7638 61.9131 15.6995C61.9344 15.6137 61.9664 15.5494 62.009 15.5065C62.0517 15.4207 62.0837 15.3563 62.105 15.3134C62.1476 15.2491 62.1689 15.1848 62.1689 15.1204C62.2116 15.1633 62.2009 15.2169 62.1369 15.2813C62.0943 15.3456 62.0943 15.3992 62.1369 15.4421C62.0943 15.5708 62.041 15.6995 61.9771 15.8282C61.9344 15.9354 61.9025 16.0641 61.8811 16.2142C61.8385 16.1928 61.8172 16.225 61.8172 16.3107C61.8385 16.3751 61.8279 16.3965 61.7852 16.3751C61.8065 16.4609 61.7852 16.5359 61.7213 16.6003C61.6786 16.6432 61.6467 16.7182 61.6253 16.8255C61.6253 16.7826 61.6573 16.7611 61.7213 16.7611C61.7213 16.8255 61.7106 16.8576 61.6893 16.8576C61.6893 16.9005 61.6893 16.922 61.6893 16.922C61.7106 16.9005 61.7213 16.9113 61.7213 16.9542C61.6999 16.9756 61.6467 16.9863 61.5614 16.9863C61.5614 16.9863 61.5507 16.9649 61.5294 16.922C61.2949 17.2866 61.0711 17.6726 60.8579 18.0802C60.6661 18.4662 60.4423 18.8308 60.1865 19.174C60.2078 19.1954 60.2184 19.1954 60.2184 19.174C60.2397 19.1311 60.2717 19.1096 60.3144 19.1096C60.1225 19.367 59.92 19.6244 59.7068 19.8817C59.4937 20.1391 59.2805 20.3857 59.0673 20.6217C58.9607 20.7718 58.8541 20.9112 58.7476 21.0399C58.6623 21.1686 58.5664 21.2865 58.4598 21.3938C58.4172 21.4367 58.3745 21.4688 58.3319 21.4903C58.2893 21.5117 58.2466 21.5439 58.204 21.5868C57.9695 21.8227 57.703 22.0694 57.4046 22.3267C57.1275 22.5627 56.7971 22.745 56.4134 22.8736C56.3921 22.8736 56.3814 22.9165 56.3814 23.0023C56.1469 23.0667 55.8591 23.0988 55.5181 23.0988C55.177 23.1203 54.9105 23.0667 54.7187 22.938C54.2284 22.8736 53.8234 22.7128 53.5036 22.4554C53.1839 22.198 53.0027 21.8227 52.96 21.3294C52.8961 20.9648 52.8961 20.6217 52.96 20.3C53.0027 19.9782 53.0666 19.6565 53.1519 19.3348C53.4077 18.3053 53.7381 17.3938 54.1431 16.6003C54.3137 16.3215 54.4629 16.0427 54.5908 15.7638C54.7187 15.4636 54.8892 15.1955 55.1024 14.9596C55.1237 14.8523 55.1557 14.7773 55.1983 14.7344C55.2623 14.67 55.3049 14.5842 55.3262 14.477C55.4328 14.3698 55.4967 14.2625 55.5181 14.1553C55.646 14.0695 55.7099 13.973 55.7099 13.8657C55.7526 13.9086 55.7739 13.8765 55.7739 13.7692C55.7952 13.7692 55.8165 13.7585 55.8378 13.7371C55.9444 13.5226 56.0723 13.351 56.2215 13.2223C56.3707 13.0722 56.4986 12.8899 56.6052 12.6754C56.6905 12.6325 56.7331 12.5789 56.7331 12.5146C57.0316 12.1499 57.3406 11.7853 57.6604 11.4207C57.9802 11.0347 58.3212 10.6701 58.6836 10.3269C58.6836 10.3055 58.6943 10.284 58.7156 10.2626V10.2947C58.7369 10.2733 58.7582 10.2626 58.7795 10.2626C58.8009 10.2626 58.8328 10.2519 58.8755 10.2304C58.9821 10.1661 59.0673 10.0803 59.1313 9.97304C59.2165 9.84435 59.3125 9.78001 59.419 9.78001C59.5896 9.73712 59.7388 9.70495 59.8667 9.6835C60.0159 9.6406 60.1651 9.57626 60.3144 9.49047L60.6341 9.74784C60.8473 9.70494 61.0071 9.72639 61.1137 9.81218V9.9087C61.199 10.0159 61.3056 10.1124 61.4335 10.1982C61.5827 10.2626 61.604 10.3805 61.4974 10.5521C61.5827 10.595 61.636 10.6057 61.6573 10.5843C61.6786 10.6272 61.6893 10.6701 61.6893 10.713C61.7106 10.7559 61.7319 10.788 61.7532 10.8095C61.7959 10.788 61.7959 10.7666 61.7532 10.7451C61.7319 10.7022 61.7319 10.6701 61.7532 10.6486C61.7746 10.6701 61.7852 10.7022 61.7852 10.7451C61.7852 10.7666 61.8065 10.788 61.8492 10.8095V10.713C61.8918 10.7988 61.9238 10.8417 61.9451 10.8417C61.9664 10.8202 61.9664 10.8095 61.9451 10.8095C61.9238 10.788 61.9238 10.7559 61.9451 10.713C61.9877 10.713 61.9984 10.713 61.9771 10.713C61.9771 10.6915 61.9877 10.6808 62.009 10.6808C62.073 10.788 62.1476 10.8953 62.2329 11.0025C62.3395 11.0883 62.3821 11.1848 62.3608 11.2921C62.3821 11.3564 62.4247 11.3886 62.4887 11.3886C62.51 11.4958 62.5206 11.603 62.5206 11.7103C62.5206 11.7961 62.542 11.8926 62.5846 11.9998C62.5633 12.0213 62.542 12.0642 62.5206 12.1285C62.5206 12.1714 62.5526 12.1928 62.6166 12.1928C62.6592 12.0213 62.6486 11.839 62.5846 11.6459C62.542 11.4315 62.4993 11.2384 62.4567 11.0669C62.5633 11.1955 62.6272 11.3671 62.6485 11.5816C62.6699 11.7961 62.7018 11.9998 62.7445 12.1928V12.1285C62.8084 12.1928 62.9683 12.2465 63.2241 12.2894C63.4799 12.3108 63.6611 12.3215 63.7677 12.3215C64.0874 12.3215 64.3326 12.3108 64.5031 12.2894C64.695 12.2679 64.8548 12.2357 64.9827 12.1928C65.2172 12.0856 65.4197 11.9998 65.5903 11.9355C65.7821 11.8711 65.9633 11.7853 66.1339 11.6781L66.3257 11.6138C66.3683 11.6138 66.4003 11.603 66.4216 11.5816C66.4643 11.5387 66.5069 11.5065 66.5495 11.4851C66.5282 11.528 66.5069 11.5601 66.4856 11.5816C66.4643 11.5816 66.4643 11.603 66.4856 11.6459C66.4216 11.6674 66.3683 11.7424 66.3257 11.8711L67.1571 11.3564C67.1997 11.3564 67.221 11.3564 67.221 11.3564C67.2423 11.3349 67.2743 11.3349 67.3169 11.3564C67.4875 11.2492 67.6367 11.1205 67.7646 10.9703C67.8072 11.0132 67.8072 11.0561 67.7646 11.099C67.722 11.1205 67.69 11.1419 67.6687 11.1634C67.5621 11.2492 67.4662 11.3457 67.3809 11.4529C67.3169 11.5601 67.2317 11.6567 67.1251 11.7424C67.2317 11.6996 67.3063 11.6567 67.3489 11.6138C67.3915 11.5709 67.4448 11.5387 67.5088 11.5172ZM60.9858 12.5467C60.9858 12.5467 60.9752 12.5574 60.9539 12.5789C60.9112 12.7076 60.8792 12.8255 60.8579 12.9328C60.8579 13.04 60.8366 13.1473 60.794 13.2545C60.8153 13.1258 60.8366 13.0078 60.8579 12.9006C60.8792 12.7934 60.8899 12.654 60.8899 12.4824C60.8046 12.4395 60.7407 12.3751 60.6981 12.2894C60.6554 12.1821 60.5915 12.1071 60.5062 12.0642C60.5062 12.0213 60.4849 11.9891 60.4423 11.9676C60.3996 11.9462 60.357 11.914 60.3144 11.8711C60.1012 12.0856 59.92 12.3215 59.7708 12.5789C59.6429 12.8363 59.4617 13.0615 59.2272 13.2545C59.2059 13.2974 59.1846 13.3296 59.1632 13.351C59.1419 13.3724 59.1313 13.4153 59.1313 13.4797C59.0673 13.5226 59.014 13.5762 58.9714 13.6405C58.9288 13.7049 58.8755 13.7692 58.8115 13.8336C58.7689 13.8979 58.7156 13.9623 58.6516 14.0266C58.5877 14.0909 58.5344 14.166 58.4918 14.2518C58.4704 14.2947 58.4598 14.3269 58.4598 14.3483C58.4598 14.3483 58.4385 14.3698 58.3958 14.4126C58.2253 14.6486 58.0761 14.8845 57.9482 15.1204C57.8203 15.3349 57.6817 15.5601 57.5325 15.796C57.4899 15.8818 57.4366 15.9676 57.3726 16.0534C57.33 16.1392 57.2874 16.2357 57.2447 16.3429C57.0742 16.6432 56.9143 16.9434 56.7651 17.2437C56.6159 17.544 56.488 17.8657 56.3814 18.2088C56.2748 18.359 56.1895 18.5198 56.1256 18.6914C56.083 18.863 56.0297 19.0238 55.9657 19.174C55.987 19.2169 56.0084 19.2598 56.0297 19.3027C56.051 19.3455 56.0403 19.3884 55.9977 19.4313C55.9764 19.4528 55.9551 19.4528 55.9337 19.4313C55.9124 19.3884 55.9018 19.3884 55.9018 19.4313C55.7952 19.7102 55.6993 19.9997 55.614 20.3C55.5287 20.5788 55.4967 20.9005 55.5181 21.2651C56.1789 20.879 56.7438 20.3965 57.2128 19.8174C57.6817 19.2383 58.1294 18.6485 58.5557 18.048C58.5557 18.0265 58.5664 18.0158 58.5877 18.0158C58.609 17.9944 58.609 17.9622 58.5877 17.9193C58.7795 17.7263 58.9394 17.5118 59.0673 17.2759C59.2165 17.0185 59.3551 16.7719 59.483 16.5359C59.5256 16.5359 59.5469 16.5359 59.5469 16.5359C59.5469 16.5145 59.5683 16.5038 59.6109 16.5038C59.6535 16.418 59.6855 16.3215 59.7068 16.2142C59.7281 16.107 59.7601 16.0105 59.8027 15.9247C59.888 15.7531 59.9839 15.5708 60.0905 15.3778C60.2184 15.1848 60.293 14.981 60.3144 14.7665C60.3144 14.7451 60.293 14.7558 60.2504 14.7987C60.2078 14.8201 60.1971 14.7987 60.2184 14.7344C60.1971 14.7129 60.1971 14.7129 60.2184 14.7344C60.2611 14.7344 60.2824 14.7236 60.2824 14.7022C60.3037 14.6807 60.3144 14.6807 60.3144 14.7022C60.3357 14.7022 60.3676 14.6915 60.4103 14.67C60.5169 14.3269 60.6341 13.9944 60.762 13.6727C60.9112 13.3296 60.9858 12.9542 60.9858 12.5467ZM61.4974 17.1472C61.4548 17.3188 61.3802 17.4796 61.2736 17.6298C61.167 17.7799 61.0711 17.93 60.9858 18.0802C61.0285 17.93 61.1031 17.7799 61.2097 17.6298C61.3162 17.4796 61.4122 17.3188 61.4974 17.1472ZM65.8781 13.1901C65.7715 13.2116 65.6755 13.233 65.5903 13.2545C65.505 13.2759 65.4411 13.3081 65.3984 13.351L65.8781 13.1901ZM61.8492 15.9247C61.9771 15.796 62.041 15.6673 62.041 15.5386L61.8492 15.9247ZM61.0178 9.58698C61.0178 9.62988 60.9858 9.65133 60.9219 9.65133C60.8792 9.62988 60.8473 9.60843 60.826 9.58698C60.8473 9.56554 60.8792 9.56554 60.9219 9.58698C60.9645 9.58698 60.9965 9.58698 61.0178 9.58698ZM62.4247 14.7665C62.4034 14.7022 62.4354 14.5842 62.5206 14.4126L62.4247 14.7665ZM61.7532 16.0212C61.8172 15.9998 61.8279 15.9461 61.7852 15.8603C61.7852 15.8818 61.7746 15.914 61.7532 15.9569C61.7532 15.9783 61.7532 15.9998 61.7532 16.0212ZM61.7852 16.0855C61.8065 16.0855 61.8279 16.0641 61.8492 16.0212C61.8705 15.9569 61.8705 15.9354 61.8492 15.9569C61.8065 15.9998 61.7852 16.0426 61.7852 16.0855ZM66.9972 11.8068C66.9546 11.8068 66.9226 11.8175 66.9013 11.839C66.8799 11.8604 66.8799 11.8819 66.9013 11.9033L66.9972 11.8068ZM62.1689 10.8738C62.1689 10.8309 62.1902 10.8095 62.2329 10.8095C62.2755 10.8095 62.2755 10.8309 62.2329 10.8738H62.1689ZM66.4536 12.9328C66.5176 12.9328 66.5495 12.9113 66.5495 12.8684C66.5282 12.8684 66.4962 12.8899 66.4536 12.9328ZM60.762 13.2867C60.7833 13.2867 60.794 13.3081 60.794 13.351C60.794 13.3724 60.7727 13.3832 60.73 13.3832C60.73 13.3617 60.73 13.351 60.73 13.351C60.7513 13.3296 60.762 13.3081 60.762 13.2867ZM56.1256 13.158C56.1682 13.158 56.1682 13.1794 56.1256 13.2223C56.1043 13.2438 56.083 13.2759 56.0616 13.3188C56.0403 13.2974 56.0403 13.2759 56.0616 13.2545C56.1043 13.233 56.1256 13.2009 56.1256 13.158ZM56.2535 13.0936C56.2322 13.0936 56.2428 13.0722 56.2855 13.0293C56.2855 13.0507 56.2748 13.0615 56.2535 13.0615C56.2535 13.0615 56.2535 13.0722 56.2535 13.0936ZM62.5526 14.3161C62.5526 14.3376 62.542 14.359 62.5206 14.3805C62.5206 14.3805 62.5206 14.3912 62.5206 14.4126L62.5526 14.3161ZM61.7532 16.729C61.7532 16.729 61.7426 16.7397 61.7213 16.7611L61.7532 16.729Z" transform="translate(48.3018 7.54688)" fill="#34314B"/>
</svg>
