<svg width="160" height="40" viewBox="0 0 160 40" fill="none" xmlns="http://www.w3.org/2000/svg">
<path d="M0 7.84314C0 3.51149 3.51149 0 7.84314 0H133.333C137.665 0 141.176 3.51149 141.176 7.84314V31.3725C141.176 35.7042 137.665 39.2157 133.333 39.2157H7.84314C3.51149 39.2157 0 35.7042 0 31.3725V7.84314Z" fill="url(#paint0_linear)"/>
<path d="M160 7.84314C160 12.1748 156.489 15.6863 152.157 15.6863C147.825 15.6863 144.314 12.1748 144.314 7.84314C144.314 3.51149 147.825 0 152.157 0C156.489 0 160 3.51149 160 7.84314Z" fill="url(#paint1_linear)"/>
<path d="M4.10667 16.4267H6.26667C8.29333 16.4267 9.30667 15.7333 9.30667 14.3467C9.30667 12.96 8.30222 12.2667 6.29333 12.2667H4.10667V16.4267ZM4.10667 5.01333V9.04H5.62667C6.69333 9.04 7.49333 8.84445 8.02667 8.45333C8.57778 8.06222 8.85333 7.54667 8.85333 6.90667C8.85333 5.64445 8 5.01333 6.29333 5.01333H4.10667ZM0 1.73333H6.98667C8.96 1.73333 10.4622 2.20444 11.4933 3.14667C12.5244 4.07111 13.04 5.25333 13.04 6.69333C13.04 7.63556 12.7911 8.46222 12.2933 9.17333C11.7956 9.88445 11.1467 10.3644 10.3467 10.6133C12.4267 11.2356 13.4667 12.64 13.4667 14.8267C13.4667 16.2489 12.9511 17.4222 11.92 18.3467C10.9067 19.2533 9.52 19.7067 7.76 19.7067H0V1.73333Z" transform="translate(16.4707 7.05859)" fill="white"/>
<path d="M16.1458 19.7067V6.18667H20.0392V19.7067H16.1458ZM16.4925 3.86667C16.0481 3.42222 15.8258 2.88889 15.8258 2.26667C15.8258 1.64445 16.0481 1.11111 16.4925 0.666668C16.9369 0.222223 17.4703 0 18.0925 0C18.7147 0 19.2481 0.222223 19.6925 0.666668C20.1369 1.11111 20.3592 1.64445 20.3592 2.26667C20.3592 2.88889 20.1369 3.42222 19.6925 3.86667C19.2481 4.31111 18.7147 4.53333 18.0925 4.53333C17.4703 4.53333 16.9369 4.31111 16.4925 3.86667Z" transform="translate(16.4707 7.05859)" fill="white"/>
<path d="M27.2756 6.18667V8.48C27.6134 7.73333 28.129 7.14667 28.8223 6.72C29.5334 6.27556 30.3778 6.05333 31.3556 6.05333C32.7423 6.05333 33.8267 6.47111 34.609 7.30667C35.3912 8.12445 35.7823 9.33333 35.7823 10.9333V19.7067H31.889V11.6533C31.889 10.8533 31.7023 10.2489 31.329 9.84C30.9556 9.41333 30.4312 9.2 29.7556 9.2C29.0445 9.2 28.449 9.48445 27.969 10.0533C27.5067 10.6044 27.2756 11.44 27.2756 12.56V19.7067H23.3823V6.18667H27.2756Z" transform="translate(16.4707 7.05859)" fill="white"/>
<path d="M45.0644 16.6133C45.9533 16.6133 46.6733 16.2667 47.2244 15.5733C47.7755 14.88 48.051 13.9556 48.051 12.8C48.051 11.68 47.7488 10.8089 47.1444 10.1867C46.5577 9.56445 45.8555 9.25333 45.0377 9.25333C44.2199 9.25333 43.5266 9.58222 42.9577 10.24C42.4066 10.8978 42.131 11.8133 42.131 12.9867C42.131 14.0711 42.4155 14.9511 42.9844 15.6267C43.5533 16.2844 44.2466 16.6133 45.0644 16.6133ZM48.051 0.853334H51.9444V19.7067H48.051V17.6C47.1444 19.1111 45.7933 19.8667 43.9977 19.8667C42.2377 19.8667 40.8244 19.1822 39.7577 17.8133C38.7088 16.4444 38.1844 14.8089 38.1844 12.9067C38.1844 10.7733 38.7355 9.09333 39.8377 7.86667C40.9399 6.64 42.3355 6.02667 44.0244 6.02667C45.7844 6.02667 47.1266 6.77333 48.051 8.26667V0.853334Z" transform="translate(16.4707 7.05859)" fill="white"/>
<path d="M61.1265 19.92C59.0109 19.92 57.3754 19.2889 56.2198 18.0267C55.0642 16.7467 54.4865 15.1111 54.4865 13.12C54.4865 11.04 55.0909 9.33333 56.2998 8C57.5087 6.64889 59.1176 5.97333 61.1265 5.97333C63.2242 5.97333 64.8509 6.62222 66.0065 7.92C67.162 9.21778 67.7398 10.8711 67.7398 12.88C67.7398 14.9244 67.1531 16.6133 65.9798 17.9467C64.8242 19.2622 63.2065 19.92 61.1265 19.92ZM61.0998 9.04C60.2465 9.04 59.6065 9.40445 59.1798 10.1333C58.7531 10.8622 58.5398 11.8044 58.5398 12.96C58.5398 14.1156 58.7531 15.0667 59.1798 15.8133C59.6242 16.5422 60.282 16.9067 61.1531 16.9067C62.0065 16.9067 62.6376 16.5511 63.0465 15.84C63.4731 15.1111 63.6865 14.1689 63.6865 13.0133C63.6865 10.3644 62.8242 9.04 61.0998 9.04Z" transform="translate(16.4707 7.05859)" fill="white"/>
<path d="M74.1767 6.18667V8.48C74.5145 7.73333 75.03 7.14667 75.7233 6.72C76.4344 6.27556 77.2789 6.05333 78.2567 6.05333C79.6433 6.05333 80.7278 6.47111 81.51 7.30667C82.2922 8.12445 82.6833 9.33333 82.6833 10.9333V19.7067H78.79V11.6533C78.79 10.8533 78.6033 10.2489 78.23 9.84C77.8567 9.41333 77.3322 9.2 76.6567 9.2C75.9456 9.2 75.35 9.48445 74.87 10.0533C74.4078 10.6044 74.1767 11.44 74.1767 12.56V19.7067H70.2833V6.18667H74.1767Z" transform="translate(16.4707 7.05859)" fill="white"/>
<path d="M93.5654 11.7067V11.3867C93.441 9.80445 92.7476 9.01333 91.4854 9.01333C90.8632 9.01333 90.3121 9.24445 89.8321 9.70667C89.3521 10.1511 89.0321 10.8178 88.8721 11.7067H93.5654ZM96.3654 15.68V18.9333C95.441 19.5378 94.0276 19.84 92.1254 19.84C89.9032 19.84 88.1699 19.2 86.9254 17.92C85.6988 16.6222 85.0854 14.96 85.0854 12.9333C85.0854 10.7822 85.681 9.10222 86.8721 7.89333C88.081 6.66667 89.5654 6.05333 91.3254 6.05333C93.1388 6.05333 94.5699 6.58667 95.6188 7.65334C96.6676 8.70222 97.1921 10.2756 97.1921 12.3733C97.1921 12.7822 97.121 13.4844 96.9788 14.48H89.0321C89.2988 15.2267 89.761 15.8044 90.4188 16.2133C91.0765 16.6222 91.8676 16.8267 92.7921 16.8267C94.161 16.8267 95.3521 16.4444 96.3654 15.68Z" transform="translate(16.4707 7.05859)" fill="white"/>
<path d="M105.944 19.92C103.829 19.92 102.193 19.2889 101.038 18.0267C99.882 16.7467 99.3042 15.1111 99.3042 13.12C99.3042 11.04 99.9086 9.33333 101.118 8C102.326 6.64889 103.935 5.97333 105.944 5.97333C108.042 5.97333 109.669 6.62222 110.824 7.92C111.98 9.21778 112.558 10.8711 112.558 12.88C112.558 14.9244 111.971 16.6133 110.798 17.9467C109.642 19.2622 108.024 19.92 105.944 19.92ZM105.918 9.04C105.064 9.04 104.424 9.40445 103.998 10.1333C103.571 10.8622 103.357 11.8044 103.357 12.96C103.357 14.1156 103.571 15.0667 103.998 15.8133C104.442 16.5422 105.1 16.9067 105.971 16.9067C106.824 16.9067 107.455 16.5511 107.864 15.84C108.291 15.1111 108.504 14.1689 108.504 13.0133C108.504 10.3644 107.642 9.04 105.918 9.04Z" transform="translate(16.4707 7.05859)" fill="white"/>
<defs>
<linearGradient id="paint0_linear" x2="1" gradientUnits="userSpaceOnUse" gradientTransform="translate(0 19.6078) scale(160 39.2157)">
<stop stop-color="#64ECF5"/>
<stop offset="1" stop-color="#1CEBBC"/>
</linearGradient>
<linearGradient id="paint1_linear" x2="1" gradientUnits="userSpaceOnUse" gradientTransform="translate(0 19.6078) scale(160 39.2157)">
<stop stop-color="#64ECF5"/>
<stop offset="1" stop-color="#1CEBBC"/>
</linearGradient>
</defs>
</svg>
