<svg width="48" height="48" viewBox="0 0 48 48" fill="none" xmlns="http://www.w3.org/2000/svg">
<path d="M3.125 23.5625C2.66927 23.5625 2.29492 23.709 2.00195 24.002C1.70898 24.2949 1.5625 24.6693 1.5625 25.125C1.5625 25.5807 1.70898 25.9551 2.00195 26.248C2.29492 26.541 2.66927 26.6875 3.125 26.6875H6.25C6.70573 26.6875 7.08008 26.541 7.37305 26.248C7.66602 25.9551 7.8125 25.5807 7.8125 25.125C7.8125 24.6693 7.66602 24.2949 7.37305 24.002C7.08008 23.709 6.70573 23.5625 6.25 23.5625H3.125ZM12.793 10.7695L10.6445 8.57227C10.319 8.24674 9.94466 8.08398 9.52148 8.08398C9.09831 8.08398 8.74023 8.24674 8.44727 8.57227C8.12174 8.86523 7.95898 9.22331 7.95898 9.64648C7.95898 10.0697 8.12174 10.444 8.44727 10.7695L10.6445 12.918C10.7747 13.0807 10.9375 13.2109 11.1328 13.3086C11.3607 13.3737 11.556 13.4062 11.7188 13.4062C11.8815 13.4062 12.0605 13.3737 12.2559 13.3086C12.4837 13.2109 12.6628 13.0807 12.793 12.918C13.1185 12.625 13.2812 12.2669 13.2812 11.8438C13.2812 11.4206 13.1185 11.0625 12.793 10.7695ZM26.5625 6.375V3.25C26.5625 2.79427 26.416 2.41992 26.123 2.12695C25.8301 1.83398 25.4557 1.6875 25 1.6875C24.5443 1.6875 24.1699 1.83398 23.877 2.12695C23.584 2.41992 23.4375 2.79427 23.4375 3.25V6.375C23.4375 6.83073 23.584 7.20508 23.877 7.49805C24.1699 7.79102 24.5443 7.9375 25 7.9375C25.4557 7.9375 25.8301 7.79102 26.123 7.49805C26.416 7.20508 26.5625 6.83073 26.5625 6.375ZM39.3555 12.918L41.5527 10.7695C41.8783 10.444 42.041 10.0697 42.041 9.64648C42.041 9.22331 41.8783 8.86523 41.5527 8.57227C41.2598 8.24674 40.9017 8.08398 40.4785 8.08398C40.0553 8.08398 39.681 8.24674 39.3555 8.57227L37.207 10.7695C36.8815 11.0625 36.7188 11.4206 36.7188 11.8438C36.7188 12.2669 36.8815 12.625 37.207 12.918C37.3372 13.0807 37.5 13.2109 37.6953 13.3086C37.9232 13.3737 38.1185 13.4062 38.2812 13.4062C38.444 13.4062 38.623 13.3737 38.8184 13.3086C39.0462 13.2109 39.2253 13.0807 39.3555 12.918ZM46.875 26.6875C47.3307 26.6875 47.7051 26.541 47.998 26.248C48.291 25.9551 48.4375 25.5807 48.4375 25.125C48.4375 24.6693 48.291 24.2949 47.998 24.002C47.7051 23.709 47.3307 23.5625 46.875 23.5625H43.75C43.2943 23.5625 42.9199 23.709 42.627 24.002C42.334 24.2949 42.1875 24.6693 42.1875 25.125C42.1875 25.5807 42.334 25.9551 42.627 26.248C42.9199 26.541 43.2943 26.6875 43.75 26.6875H46.875ZM25 11.0625C23.0469 11.0625 21.2077 11.4368 19.4824 12.1855C17.7897 12.9017 16.3086 13.8945 15.0391 15.1641C13.7695 16.4336 12.7604 17.931 12.0117 19.6562C11.2956 21.349 10.9375 23.1719 10.9375 25.125C10.9375 26.4922 11.1165 27.8105 11.4746 29.0801C11.8327 30.3171 12.3372 31.4889 12.9883 32.5957C13.6719 33.6699 14.502 34.6465 15.4785 35.5254C16.4551 36.4043 17.5456 37.153 18.75 37.7715V39.1875C18.75 39.6432 18.8965 40.0176 19.1895 40.3105C19.4824 40.6035 19.8568 40.75 20.3125 40.75H29.6875C30.1432 40.75 30.5176 40.6035 30.8105 40.3105C31.1035 40.0176 31.25 39.6432 31.25 39.1875V37.7715C32.4544 37.1855 33.5286 36.4531 34.4727 35.5742C35.4492 34.6953 36.2793 33.7188 36.9629 32.6445C37.6465 31.5378 38.1673 30.3496 38.5254 29.0801C38.8835 27.8105 39.0625 26.4922 39.0625 25.125C39.0625 23.1719 38.6882 21.349 37.9395 19.6562C37.2233 17.931 36.2305 16.4336 34.9609 15.1641C33.6914 13.8945 32.194 12.9017 30.4688 12.1855C28.776 11.4368 26.9531 11.0625 25 11.0625ZM29.0527 35.2812C28.7598 35.3464 28.5319 35.5254 28.3691 35.8184C28.2064 36.0788 28.125 36.3717 28.125 36.6973V37.625H21.875V36.6973C21.875 36.3717 21.7936 36.0788 21.6309 35.8184C21.4681 35.5254 21.2402 35.3464 20.9473 35.2812C18.8314 34.4349 17.1549 33.1003 15.918 31.2773C14.681 29.4544 14.0625 27.4036 14.0625 25.125C14.0625 23.5951 14.3392 22.179 14.8926 20.877C15.4785 19.5423 16.2598 18.3867 17.2363 17.4102C18.2129 16.401 19.3685 15.6198 20.7031 15.0664C22.0378 14.4805 23.4701 14.1875 25 14.1875C26.5299 14.1875 27.946 14.4805 29.248 15.0664C30.5827 15.6198 31.7383 16.3848 32.7148 17.3613C33.724 18.3379 34.5052 19.4935 35.0586 20.8281C35.6445 22.1628 35.9375 23.5951 35.9375 25.125C35.9375 27.4036 35.319 29.4544 34.082 31.2773C32.8451 33.1003 31.1686 34.4349 29.0527 35.2812ZM31.25 43.875C31.25 43.4193 31.1035 43.0449 30.8105 42.752C30.5176 42.459 30.1432 42.3125 29.6875 42.3125H20.3125C19.8568 42.3125 19.4824 42.459 19.1895 42.752C18.8965 43.0449 18.75 43.4193 18.75 43.875C18.75 44.3307 18.8965 44.7051 19.1895 44.998C19.4824 45.291 19.8568 45.4375 20.3125 45.4375H23.4375C22.9818 45.4375 22.6074 45.584 22.3145 45.877C22.0215 46.1699 21.875 46.5443 21.875 47C21.875 47.4557 22.0215 47.8301 22.3145 48.123C22.6074 48.416 22.9818 48.5625 23.4375 48.5625H26.5625C27.0182 48.5625 27.3926 48.416 27.6855 48.123C27.9785 47.8301 28.125 47.4557 28.125 47C28.125 46.5443 27.9785 46.1699 27.6855 45.877C27.3926 45.584 27.0182 45.4375 26.5625 45.4375H29.6875C30.1432 45.4375 30.5176 45.291 30.8105 44.998C31.1035 44.7051 31.25 44.3307 31.25 43.875Z" transform="translate(-1 -1)" fill="white"/>
</svg>
