<svg width="30" height="30" viewBox="0 0 30 30" fill="none" xmlns="http://www.w3.org/2000/svg">
<path opacity="0.3" d="M2 15C1.70833 15 1.46875 15.0938 1.28125 15.2812C1.09375 15.4688 1 15.7083 1 16C1 16.2917 1.09375 16.5312 1.28125 16.7188C1.46875 16.9062 1.70833 17 2 17H4C4.29167 17 4.53125 16.9062 4.71875 16.7188C4.90625 16.5312 5 16.2917 5 16C5 15.7083 4.90625 15.4688 4.71875 15.2812C4.53125 15.0938 4.29167 15 4 15H2ZM8.1875 6.8125L6.8125 5.40625C6.60417 5.19792 6.36458 5.09375 6.09375 5.09375C5.82292 5.09375 5.59375 5.19792 5.40625 5.40625C5.19792 5.59375 5.09375 5.82292 5.09375 6.09375C5.09375 6.36458 5.19792 6.60417 5.40625 6.8125L6.8125 8.1875C6.89583 8.29167 7 8.375 7.125 8.4375C7.27083 8.47917 7.39583 8.5 7.5 8.5C7.60417 8.5 7.71875 8.47917 7.84375 8.4375C7.98958 8.375 8.10417 8.29167 8.1875 8.1875C8.39583 8 8.5 7.77083 8.5 7.5C8.5 7.22917 8.39583 7 8.1875 6.8125ZM17 4V2C17 1.70833 16.9062 1.46875 16.7188 1.28125C16.5312 1.09375 16.2917 1 16 1C15.7083 1 15.4688 1.09375 15.2812 1.28125C15.0938 1.46875 15 1.70833 15 2V4C15 4.29167 15.0938 4.53125 15.2812 4.71875C15.4688 4.90625 15.7083 5 16 5C16.2917 5 16.5312 4.90625 16.7188 4.71875C16.9062 4.53125 17 4.29167 17 4ZM25.1875 8.1875L26.5938 6.8125C26.8021 6.60417 26.9062 6.36458 26.9062 6.09375C26.9062 5.82292 26.8021 5.59375 26.5938 5.40625C26.4062 5.19792 26.1771 5.09375 25.9062 5.09375C25.6354 5.09375 25.3958 5.19792 25.1875 5.40625L23.8125 6.8125C23.6042 7 23.5 7.22917 23.5 7.5C23.5 7.77083 23.6042 8 23.8125 8.1875C23.8958 8.29167 24 8.375 24.125 8.4375C24.2708 8.47917 24.3958 8.5 24.5 8.5C24.6042 8.5 24.7188 8.47917 24.8438 8.4375C24.9896 8.375 25.1042 8.29167 25.1875 8.1875ZM30 17C30.2917 17 30.5312 16.9062 30.7188 16.7188C30.9062 16.5312 31 16.2917 31 16C31 15.7083 30.9062 15.4688 30.7188 15.2812C30.5312 15.0938 30.2917 15 30 15H28C27.7083 15 27.4688 15.0938 27.2812 15.2812C27.0938 15.4688 27 15.7083 27 16C27 16.2917 27.0938 16.5312 27.2812 16.7188C27.4688 16.9062 27.7083 17 28 17H30ZM16 7C14.75 7 13.5729 7.23958 12.4688 7.71875C11.3854 8.17708 10.4375 8.8125 9.625 9.625C8.8125 10.4375 8.16667 11.3958 7.6875 12.5C7.22917 13.5833 7 14.75 7 16C7 16.875 7.11458 17.7188 7.34375 18.5312C7.57292 19.3229 7.89583 20.0729 8.3125 20.7812C8.75 21.4688 9.28125 22.0938 9.90625 22.6562C10.5312 23.2188 11.2292 23.6979 12 24.0938V25C12 25.2917 12.0938 25.5312 12.2812 25.7188C12.4688 25.9062 12.7083 26 13 26H19C19.2917 26 19.5312 25.9062 19.7188 25.7188C19.9062 25.5312 20 25.2917 20 25V24.0938C20.7708 23.7188 21.4583 23.25 22.0625 22.6875C22.6875 22.125 23.2188 21.5 23.6562 20.8125C24.0938 20.1042 24.4271 19.3438 24.6562 18.5312C24.8854 17.7188 25 16.875 25 16C25 14.75 24.7604 13.5833 24.2812 12.5C23.8229 11.3958 23.1875 10.4375 22.375 9.625C21.5625 8.8125 20.6042 8.17708 19.5 7.71875C18.4167 7.23958 17.25 7 16 7ZM18.5938 22.5C18.4062 22.5417 18.2604 22.6562 18.1562 22.8438C18.0521 23.0104 18 23.1979 18 23.4062V24H14V23.4062C14 23.1979 13.9479 23.0104 13.8438 22.8438C13.7396 22.6562 13.5938 22.5417 13.4062 22.5C12.0521 21.9583 10.9792 21.1042 10.1875 19.9375C9.39583 18.7708 9 17.4583 9 16C9 15.0208 9.17708 14.1146 9.53125 13.2812C9.90625 12.4271 10.4062 11.6875 11.0312 11.0625C11.6562 10.4167 12.3958 9.91667 13.25 9.5625C14.1042 9.1875 15.0208 9 16 9C16.9792 9 17.8854 9.1875 18.7188 9.5625C19.5729 9.91667 20.3125 10.4062 20.9375 11.0312C21.5833 11.6562 22.0833 12.3958 22.4375 13.25C22.8125 14.1042 23 15.0208 23 16C23 17.4583 22.6042 18.7708 21.8125 19.9375C21.0208 21.1042 19.9479 21.9583 18.5938 22.5ZM20 28C20 27.7083 19.9062 27.4688 19.7188 27.2812C19.5312 27.0938 19.2917 27 19 27H13C12.7083 27 12.4688 27.0938 12.2812 27.2812C12.0938 27.4688 12 27.7083 12 28C12 28.2917 12.0938 28.5312 12.2812 28.7188C12.4688 28.9062 12.7083 29 13 29H15C14.7083 29 14.4688 29.0938 14.2812 29.2812C14.0938 29.4688 14 29.7083 14 30C14 30.2917 14.0938 30.5312 14.2812 30.7188C14.4688 30.9062 14.7083 31 15 31H17C17.2917 31 17.5312 30.9062 17.7188 30.7188C17.9062 30.5312 18 30.2917 18 30C18 29.7083 17.9062 29.4688 17.7188 29.2812C17.5312 29.0938 17.2917 29 17 29H19C19.2917 29 19.5312 28.9062 19.7188 28.7188C19.9062 28.5312 20 28.2917 20 28Z" transform="translate(-1 -1)" fill="#34314B"/>
</svg>
