<svg width="140" height="140" viewBox="0 0 140 140" fill="none" xmlns="http://www.w3.org/2000/svg">
<g filter="url(#filter0_d)">
<circle cx="50" cy="50" r="50" transform="translate(20 10)" fill="url(#paint0_linear)"/>
</g>
<path d="M34.875 7H29.707L25.5234 2.85156C25.4297 2.73437 25.3125 2.65234 25.1719 2.60547C25.0547 2.53516 24.9141 2.5 24.75 2.5H18C17.8359 2.5 17.6836 2.53516 17.543 2.60547C17.4258 2.65234 17.3203 2.73437 17.2266 2.85156L13.043 7H1.125C0.796875 7 0.527344 7.10547 0.316406 7.31641C0.105469 7.52734 0 7.79687 0 8.125V32.875C0 33.2031 0.105469 33.4727 0.316406 33.6836C0.527344 33.8945 0.796875 34 1.125 34H34.875C35.2031 34 35.4727 33.8945 35.6836 33.6836C35.8945 33.4727 36 33.2031 36 32.875V8.125C36 7.79687 35.8945 7.52734 35.6836 7.31641C35.4727 7.10547 35.2031 7 34.875 7ZM33.75 31.75H2.25V9.25H13.5C13.6641 9.25 13.8047 9.22656 13.9219 9.17969C14.0625 9.10938 14.1797 9.01563 14.2734 8.89844L18.457 4.75H24.293L28.4766 8.89844C28.5703 9.01563 28.6758 9.10938 28.793 9.17969C28.9336 9.22656 29.0859 9.25 29.25 9.25H33.75V31.75ZM21.375 11.5C20.1328 11.5 18.9609 11.7344 17.8594 12.2031C16.7812 12.6719 15.832 13.3164 15.0117 14.1367C14.1914 14.957 13.5469 15.918 13.0781 17.0195C12.6094 18.0977 12.375 19.2578 12.375 20.5C12.375 21.7422 12.6094 22.9141 13.0781 24.0156C13.5469 25.0938 14.1914 26.043 15.0117 26.8633C15.832 27.6836 16.7812 28.3281 17.8594 28.7969C18.9609 29.2656 20.1328 29.5 21.375 29.5C22.6172 29.5 23.7773 29.2656 24.8555 28.7969C25.957 28.3281 26.918 27.6836 27.7383 26.8633C28.5586 26.043 29.2031 25.0938 29.6719 24.0156C30.1406 22.9141 30.375 21.7422 30.375 20.5C30.375 19.2578 30.1406 18.0977 29.6719 17.0195C29.2031 15.918 28.5586 14.957 27.7383 14.1367C26.918 13.3164 25.957 12.6719 24.8555 12.2031C23.7773 11.7344 22.6172 11.5 21.375 11.5ZM21.375 27.25C19.5234 27.25 17.9297 26.5938 16.5938 25.2812C15.2812 23.9453 14.625 22.3516 14.625 20.5C14.625 18.6484 15.2812 17.0664 16.5938 15.7539C17.9297 14.418 19.5234 13.75 21.375 13.75C23.2266 13.75 24.8086 14.418 26.1211 15.7539C27.457 17.0664 28.125 18.6484 28.125 20.5C28.125 22.3516 27.457 23.9453 26.1211 25.2812C24.8086 26.5938 23.2266 27.25 21.375 27.25ZM9 12.625H6.75C6.42188 12.625 6.15234 12.7305 5.94141 12.9414C5.73047 13.1523 5.625 13.4219 5.625 13.75C5.625 14.0781 5.73047 14.3477 5.94141 14.5586C6.15234 14.7695 6.42188 14.875 6.75 14.875H9C9.32812 14.875 9.59766 14.7695 9.80859 14.5586C10.0195 14.3477 10.125 14.0781 10.125 13.75C10.125 13.4219 10.0195 13.1523 9.80859 12.9414C9.59766 12.7305 9.32812 12.625 9 12.625Z" transform="translate(52 42)" fill="white"/>
<defs>
<filter id="filter0_d" x="0" y="0" width="140" height="140" filterUnits="userSpaceOnUse" color-interpolation-filters="sRGB">
<feFlood flood-opacity="0" result="BackgroundImageFix"/>
<feColorMatrix in="SourceAlpha" type="matrix" values="0 0 0 0 0 0 0 0 0 0 0 0 0 0 0 0 0 0 255 0"/>
<feOffset dy="10"/>
<feGaussianBlur stdDeviation="10"/>
<feColorMatrix type="matrix" values="0 0 0 0 0.768627 0 0 0 0 0.47451 0 0 0 0 0.760784 0 0 0 0.5 0"/>
<feBlend mode="normal" in2="BackgroundImageFix" result="effect1_dropShadow"/>
<feBlend mode="normal" in="SourceGraphic" in2="effect1_dropShadow" result="shape"/>
</filter>
<linearGradient id="paint0_linear" x2="1" gradientUnits="userSpaceOnUse" gradientTransform="translate(0 50) scale(100)">
<stop stop-color="#FF8B8D"/>
<stop offset="1" stop-color="#8667F7"/>
</linearGradient>
</defs>
</svg>
