<svg width="140" height="140" viewBox="0 0 140 140" fill="none" xmlns="http://www.w3.org/2000/svg">
<g filter="url(#filter0_d)">
<circle cx="50" cy="50" r="50" transform="translate(20 10)" fill="url(#paint0_linear)"/>
</g>
<path d="M14.625 19.375C14.2969 19.375 14.0273 19.4805 13.8164 19.6914C13.6055 19.9023 13.5 20.1719 13.5 20.5V34C13.5 34.3281 13.6055 34.5977 13.8164 34.8086C14.0273 35.0195 14.2969 35.125 14.625 35.125H21.375C21.7031 35.125 21.9727 35.0195 22.1836 34.8086C22.3945 34.5977 22.5 34.3281 22.5 34V20.5C22.5 20.1719 22.3945 19.9023 22.1836 19.6914C21.9727 19.4805 21.7031 19.375 21.375 19.375H14.625ZM20.25 32.875H15.75V21.625H20.25V32.875ZM2.25 27.25V34C2.25 34.3281 2.35547 34.5977 2.56641 34.8086C2.77734 35.0195 3.04688 35.125 3.375 35.125H10.125C10.4531 35.125 10.7227 35.0195 10.9336 34.8086C11.1445 34.5977 11.25 34.3281 11.25 34V27.25C11.25 26.9219 11.1445 26.6523 10.9336 26.4414C10.7227 26.2305 10.4531 26.125 10.125 26.125H3.375C3.04688 26.125 2.77734 26.2305 2.56641 26.4414C2.35547 26.6523 2.25 26.9219 2.25 27.25ZM4.5 28.375H9V32.875H4.5V28.375ZM24.75 13.75V34C24.75 34.3281 24.8555 34.5977 25.0664 34.8086C25.2773 35.0195 25.5469 35.125 25.875 35.125H32.625C32.9531 35.125 33.2227 35.0195 33.4336 34.8086C33.6445 34.5977 33.75 34.3281 33.75 34V13.75C33.75 13.4219 33.6445 13.1523 33.4336 12.9414C33.2227 12.7305 32.9531 12.625 32.625 12.625H25.875C25.5469 12.625 25.2773 12.7305 25.0664 12.9414C24.8555 13.1523 24.75 13.4219 24.75 13.75ZM27 14.875H31.5V32.875H27V14.875ZM5.97656 13.3984C6.1875 13.6328 6.44531 13.75 6.75 13.75C7.05469 13.75 7.3125 13.6328 7.52344 13.3984L12.375 8.58203L17.2266 13.3984C17.3203 13.5156 17.4375 13.6094 17.5781 13.6797C17.7422 13.7266 17.8828 13.75 18 13.75C18.1172 13.75 18.2461 13.7266 18.3867 13.6797C18.5508 13.6094 18.6797 13.5156 18.7734 13.3984L28.125 4.08203V8.125C28.125 8.45313 28.2305 8.72266 28.4414 8.93359C28.6523 9.14453 28.9219 9.25 29.25 9.25C29.5781 9.25 29.8477 9.14453 30.0586 8.93359C30.2695 8.72266 30.375 8.45313 30.375 8.125V1.375C30.375 1.32812 30.3633 1.25781 30.3398 1.16406C30.3398 1.07031 30.3164 0.988281 30.2695 0.917969C30.1992 0.800781 30.1172 0.695312 30.0234 0.601562C29.9297 0.507813 29.8242 0.425781 29.707 0.355469C29.6367 0.308594 29.5547 0.285156 29.4609 0.285156C29.3672 0.261719 29.2969 0.25 29.25 0.25H22.5C22.1719 0.25 21.9023 0.355469 21.6914 0.566406C21.4805 0.777344 21.375 1.04687 21.375 1.375C21.375 1.70313 21.4805 1.97266 21.6914 2.18359C21.9023 2.39453 22.1719 2.5 22.5 2.5H26.543L18 11.043L13.1484 6.22656C12.9375 5.99219 12.6797 5.875 12.375 5.875C12.0703 5.875 11.8125 5.99219 11.6016 6.22656L5.97656 11.8516C5.74219 12.0625 5.625 12.3203 5.625 12.625C5.625 12.9297 5.74219 13.1875 5.97656 13.3984Z" transform="translate(52 42)" fill="white"/>
<defs>
<filter id="filter0_d" x="0" y="0" width="140" height="140" filterUnits="userSpaceOnUse" color-interpolation-filters="sRGB">
<feFlood flood-opacity="0" result="BackgroundImageFix"/>
<feColorMatrix in="SourceAlpha" type="matrix" values="0 0 0 0 0 0 0 0 0 0 0 0 0 0 0 0 0 0 255 0"/>
<feOffset dy="10"/>
<feGaussianBlur stdDeviation="10"/>
<feColorMatrix type="matrix" values="0 0 0 0 1 0 0 0 0 0.662745 0 0 0 0 0.584314 0 0 0 0.5 0"/>
<feBlend mode="normal" in2="BackgroundImageFix" result="effect1_dropShadow"/>
<feBlend mode="normal" in="SourceGraphic" in2="effect1_dropShadow" result="shape"/>
</filter>
<linearGradient id="paint0_linear" x2="1" gradientUnits="userSpaceOnUse" gradientTransform="translate(0 50) scale(100)">
<stop stop-color="#FF8B8D"/>
<stop offset="1" stop-color="#FFC69C"/>
</linearGradient>
</defs>
</svg>
