<svg width="140" height="140" viewBox="0 0 140 140" fill="none" xmlns="http://www.w3.org/2000/svg">
<g filter="url(#filter0_d)">
<circle cx="50" cy="50" r="50" transform="translate(20 10)" fill="url(#paint0_linear)"/>
</g>
<path d="M9.31641 33.6836C9.43359 33.7773 9.5625 33.8594 9.70312 33.9297C9.84375 33.9766 9.98438 34 10.125 34C10.2656 34 10.4062 33.9766 10.5469 33.9297C10.6875 33.8594 10.8164 33.7773 10.9336 33.6836L18.5625 26.0195L25.0664 32.5586C25.1133 32.6055 25.1602 32.6523 25.207 32.6992C25.2773 32.7227 25.3477 32.7461 25.418 32.7695C25.4414 32.7695 25.4648 32.7812 25.4883 32.8047C25.5117 32.8047 25.5352 32.8047 25.5586 32.8047C25.582 32.8281 25.6055 32.8398 25.6289 32.8398C25.6523 32.8398 25.6758 32.8516 25.6992 32.875L33.5742 34C33.6211 34 33.6562 34 33.6797 34C33.7031 34 33.7266 34 33.75 34C33.8906 34 34.0312 33.9766 34.1719 33.9297C34.3125 33.8594 34.4414 33.7773 34.5586 33.6836C34.6758 33.543 34.7578 33.3906 34.8047 33.2266C34.875 33.0625 34.8984 32.8867 34.875 32.6992L33.75 24.8242C33.75 24.8008 33.7383 24.7773 33.7148 24.7539C33.7148 24.7305 33.7031 24.707 33.6797 24.6836C33.6797 24.6602 33.668 24.6367 33.6445 24.6133C33.6445 24.5898 33.6445 24.5664 33.6445 24.543C33.6211 24.4727 33.5859 24.4141 33.5391 24.3672C33.5156 24.2969 33.4805 24.2383 33.4336 24.1914L26.8945 17.6875L33.4336 11.1836C33.6445 10.9492 33.75 10.6797 33.75 10.375C33.75 10.0703 33.6445 9.80078 33.4336 9.56641L25.5586 1.69141C25.3242 1.48047 25.0547 1.375 24.75 1.375C24.4453 1.375 24.1758 1.48047 23.9414 1.69141L17.4375 8.23047L10.9336 1.69141C10.6992 1.48047 10.4297 1.375 10.125 1.375C9.82031 1.375 9.55078 1.48047 9.31641 1.69141L2.56641 8.44141C2.35547 8.67578 2.25 8.94531 2.25 9.25C2.25 9.55469 2.35547 9.82422 2.56641 10.0586L9.10547 16.5625L1.44141 24.1914C1.23047 24.4258 1.125 24.6953 1.125 25C1.125 25.3047 1.23047 25.5742 1.44141 25.8086L9.31641 33.6836ZM28.2656 30.9414L31.8164 27.3906L32.4141 31.5391L28.2656 30.9414ZM31.043 25L25.875 30.168L20.1445 24.4375L25.3125 19.2695L31.043 25ZM10.6875 14.9805L8.33203 12.625L13.5 7.45703L15.8555 9.8125L10.6875 14.9805ZM10.125 4.08203L11.918 5.875L6.75 11.043L4.95703 9.25L10.125 4.08203ZM6.75 22.082L9.31641 24.6836C9.43359 24.7773 9.5625 24.8594 9.70312 24.9297C9.84375 24.9766 9.98438 25 10.125 25C10.2656 25 10.4062 24.9766 10.5469 24.9297C10.6875 24.8594 10.8164 24.7773 10.9336 24.6836C11.1445 24.4492 11.25 24.1797 11.25 23.875C11.25 23.5703 11.1445 23.3008 10.9336 23.0664L8.33203 20.5L10.125 18.707L11.5664 20.1836C11.6836 20.2773 11.8125 20.3594 11.9531 20.4297C12.0938 20.4766 12.2344 20.5 12.375 20.5C12.5156 20.5 12.6562 20.4766 12.7969 20.4297C12.9375 20.3594 13.0664 20.2773 13.1836 20.1836C13.3945 19.9492 13.5 19.6797 13.5 19.375C13.5 19.0703 13.3945 18.8008 13.1836 18.5664L11.707 17.125L13.5 15.332L16.0664 17.9336C16.1836 18.0273 16.3125 18.1094 16.4531 18.1797C16.5938 18.2266 16.7344 18.25 16.875 18.25C17.0156 18.25 17.1562 18.2266 17.2969 18.1797C17.4375 18.1094 17.5664 18.0273 17.6836 17.9336C17.8945 17.6992 18 17.4297 18 17.125C18 16.8203 17.8945 16.5508 17.6836 16.3164L15.082 13.75L16.875 11.957L18.3164 13.4336C18.4336 13.5273 18.5625 13.6094 18.7031 13.6797C18.8438 13.7266 18.9844 13.75 19.125 13.75C19.2656 13.75 19.4062 13.7266 19.5469 13.6797C19.6875 13.6094 19.8164 13.5273 19.9336 13.4336C20.1445 13.1992 20.25 12.9297 20.25 12.625C20.25 12.3203 20.1445 12.0508 19.9336 11.8164L18.457 10.375L20.25 8.58203L22.8164 11.1836C22.9336 11.2773 23.0625 11.3594 23.2031 11.4297C23.3438 11.4766 23.4844 11.5 23.625 11.5C23.7656 11.5 23.9062 11.4766 24.0469 11.4297C24.1875 11.3594 24.3164 11.2773 24.4336 11.1836C24.6445 10.9492 24.75 10.6797 24.75 10.375C24.75 10.0703 24.6445 9.80078 24.4336 9.56641L21.832 7L24.75 4.08203L31.043 10.375L10.125 31.293L3.83203 25L6.75 22.082Z" transform="translate(52 42)" fill="white"/>
<defs>
<filter id="filter0_d" x="0" y="0" width="140" height="140" filterUnits="userSpaceOnUse" color-interpolation-filters="sRGB">
<feFlood flood-opacity="0" result="BackgroundImageFix"/>
<feColorMatrix in="SourceAlpha" type="matrix" values="0 0 0 0 0 0 0 0 0 0 0 0 0 0 0 0 0 0 255 0"/>
<feOffset dy="10"/>
<feGaussianBlur stdDeviation="10"/>
<feColorMatrix type="matrix" values="0 0 0 0 0.462745 0 0 0 0 0.662745 0 0 0 0 0.968627 0 0 0 0.5 0"/>
<feBlend mode="normal" in2="BackgroundImageFix" result="effect1_dropShadow"/>
<feBlend mode="normal" in="SourceGraphic" in2="effect1_dropShadow" result="shape"/>
</filter>
<linearGradient id="paint0_linear" x2="1" gradientUnits="userSpaceOnUse" gradientTransform="translate(0 50) scale(100)">
<stop stop-color="#64ECF5"/>
<stop offset="1" stop-color="#8667F7"/>
</linearGradient>
</defs>
</svg>
