<svg width="140" height="140" viewBox="0 0 140 140" fill="none" xmlns="http://www.w3.org/2000/svg">
<g filter="url(#filter0_d)">
<circle cx="50" cy="50" r="50" transform="translate(20 10)" fill="url(#paint0_linear)"/>
</g>
<path d="M8.19141 25.8086C8.30859 25.9023 8.4375 25.9844 8.57812 26.0547C8.71875 26.1016 8.85938 26.125 9 26.125C9.14062 26.125 9.28125 26.1016 9.42188 26.0547C9.5625 25.9844 9.69141 25.9023 9.80859 25.8086C10.0195 25.5742 10.125 25.3047 10.125 25C10.125 24.6953 10.0195 24.4258 9.80859 24.1914L3.83203 18.25L9.80859 12.3086C10.0195 12.0742 10.125 11.8047 10.125 11.5C10.125 11.1953 10.0195 10.9258 9.80859 10.6914C9.57422 10.4805 9.30469 10.375 9 10.375C8.69531 10.375 8.42578 10.4805 8.19141 10.6914L1.44141 17.4414C1.23047 17.6758 1.125 17.9453 1.125 18.25C1.125 18.5547 1.23047 18.8242 1.44141 19.0586L8.19141 25.8086ZM26.1914 25.8086C26.3086 25.9023 26.4375 25.9844 26.5781 26.0547C26.7188 26.1016 26.8594 26.125 27 26.125C27.1406 26.125 27.2812 26.1016 27.4219 26.0547C27.5625 25.9844 27.6914 25.9023 27.8086 25.8086L34.5586 19.0586C34.7695 18.8242 34.875 18.5547 34.875 18.25C34.875 17.9453 34.7695 17.6758 34.5586 17.4414L27.8086 10.6914C27.5742 10.4805 27.3047 10.375 27 10.375C26.6953 10.375 26.4258 10.4805 26.1914 10.6914C25.9805 10.9258 25.875 11.1953 25.875 11.5C25.875 11.8047 25.9805 12.0742 26.1914 12.3086L32.168 18.25L26.1914 24.1914C25.9805 24.4258 25.875 24.6953 25.875 25C25.875 25.3047 25.9805 25.5742 26.1914 25.8086ZM21.4453 5.48828L12.4453 30.2383C12.3281 30.543 12.3398 30.8359 12.4805 31.1172C12.6211 31.3984 12.832 31.5859 13.1133 31.6797C13.1836 31.7031 13.2422 31.7266 13.2891 31.75C13.3594 31.75 13.4297 31.75 13.5 31.75C13.7344 31.75 13.9453 31.6914 14.1328 31.5742C14.3438 31.4336 14.4844 31.2461 14.5547 31.0117L23.5547 6.26172C23.6719 5.95703 23.6602 5.66406 23.5195 5.38281C23.3789 5.10156 23.168 4.91406 22.8867 4.82031C22.6055 4.70312 22.3125 4.71484 22.0078 4.85547C21.7266 4.99609 21.5391 5.20703 21.4453 5.48828Z" transform="translate(52 42)" fill="white"/>
<defs>
<filter id="filter0_d" x="0" y="0" width="140" height="140" filterUnits="userSpaceOnUse" color-interpolation-filters="sRGB">
<feFlood flood-opacity="0" result="BackgroundImageFix"/>
<feColorMatrix in="SourceAlpha" type="matrix" values="0 0 0 0 0 0 0 0 0 0 0 0 0 0 0 0 0 0 255 0"/>
<feOffset dy="10"/>
<feGaussianBlur stdDeviation="10"/>
<feColorMatrix type="matrix" values="0 0 0 0 1 0 0 0 0 0.662745 0 0 0 0 0.584314 0 0 0 0.5 0"/>
<feBlend mode="normal" in2="BackgroundImageFix" result="effect1_dropShadow"/>
<feBlend mode="normal" in="SourceGraphic" in2="effect1_dropShadow" result="shape"/>
</filter>
<linearGradient id="paint0_linear" x2="1" gradientUnits="userSpaceOnUse" gradientTransform="translate(0 50) scale(100)">
<stop stop-color="#FF8B8D"/>
<stop offset="1" stop-color="#FFC69C"/>
</linearGradient>
</defs>
</svg>
