<svg width="50" height="44" viewBox="0 0 50 44" fill="none" xmlns="http://www.w3.org/2000/svg">
<path d="M130.312 20.4375H117.812C117.389 20.4375 117.015 20.6003 116.689 20.9258C116.396 21.2188 116.25 21.5768 116.25 22V34.5C116.25 34.9232 116.396 35.2975 116.689 35.623C117.015 35.916 117.389 36.0625 117.812 36.0625H130.312C130.736 36.0625 131.094 35.916 131.387 35.623C131.712 35.2975 131.875 34.9232 131.875 34.5V22C131.875 21.5768 131.712 21.2188 131.387 20.9258C131.094 20.6003 130.736 20.4375 130.312 20.4375ZM128.75 32.9375H119.375V23.5625H128.75V32.9375ZM152.188 22H136.562C136.139 22 135.765 22.1628 135.439 22.4883C135.146 22.7812 135 23.1393 135 23.5625C135 23.9857 135.146 24.36 135.439 24.6855C135.765 24.9785 136.139 25.125 136.562 25.125H152.188C152.611 25.125 152.969 24.9785 153.262 24.6855C153.587 24.36 153.75 23.9857 153.75 23.5625C153.75 23.1393 153.587 22.7812 153.262 22.4883C152.969 22.1628 152.611 22 152.188 22ZM145.938 28.25H136.562C136.139 28.25 135.765 28.4128 135.439 28.7383C135.146 29.0312 135 29.3893 135 29.8125C135 30.2357 135.146 30.61 135.439 30.9355C135.765 31.2285 136.139 31.375 136.562 31.375H145.938C146.361 31.375 146.719 31.2285 147.012 30.9355C147.337 30.61 147.5 30.2357 147.5 29.8125C147.5 29.3893 147.337 29.0312 147.012 28.7383C146.719 28.4128 146.361 28.25 145.938 28.25ZM158.438 3.25H111.562C111.139 3.25 110.765 3.41276 110.439 3.73828C110.146 4.03125 110 4.38932 110 4.8125V45.4375C110 45.8607 110.146 46.235 110.439 46.5605C110.765 46.8535 111.139 47 111.562 47H158.438C158.861 47 159.219 46.8535 159.512 46.5605C159.837 46.235 160 45.8607 160 45.4375V4.8125C160 4.38932 159.837 4.03125 159.512 3.73828C159.219 3.41276 158.861 3.25 158.438 3.25ZM156.875 11.0625H122.5V6.375H156.875V11.0625ZM119.375 6.375V11.0625H113.125V6.375H119.375ZM113.125 43.875V14.1875H156.875V43.875H113.125Z" transform="translate(-110 -3)" fill="#FF8B8D"/>
</svg>
