<svg width="44" height="48" viewBox="0 0 44 48" fill="none" xmlns="http://www.w3.org/2000/svg">
<path d="M135.391 48.4648L152.578 43.8262C152.904 43.7285 153.164 43.5658 153.359 43.3379C153.587 43.0775 153.717 42.7845 153.75 42.459L156.875 3.39648C156.875 3.20117 156.842 3.00586 156.777 2.81055C156.712 2.58268 156.615 2.38737 156.484 2.22461C156.322 2.06185 156.143 1.94792 155.947 1.88281C155.752 1.78516 155.54 1.73633 155.312 1.73633H114.688C114.46 1.73633 114.248 1.78516 114.053 1.88281C113.857 1.94792 113.678 2.06185 113.516 2.22461C113.385 2.38737 113.288 2.58268 113.223 2.81055C113.158 3.00586 113.125 3.20117 113.125 3.39648L116.25 42.459C116.283 42.7845 116.396 43.0775 116.592 43.3379C116.82 43.5658 117.096 43.7285 117.422 43.8262L134.609 48.4648C134.674 48.4974 134.74 48.5137 134.805 48.5137C134.87 48.5137 134.935 48.5137 135 48.5137C135.065 48.5137 135.13 48.5137 135.195 48.5137C135.26 48.5137 135.326 48.4974 135.391 48.4648ZM119.277 41.0918L116.396 4.86133H153.604L150.723 41.0918L135 45.3398L119.277 41.0918ZM135.488 39.0898L144.863 35.9648C145.156 35.8672 145.4 35.7044 145.596 35.4766C145.791 35.2161 145.905 34.9232 145.938 34.5977L146.719 23.6602C146.751 23.4648 146.719 23.2695 146.621 23.0742C146.556 22.8464 146.458 22.651 146.328 22.4883C146.165 22.3255 145.986 22.2116 145.791 22.1465C145.596 22.0488 145.384 22 145.156 22H129.971L146.475 15.6523C146.8 15.5221 147.044 15.3268 147.207 15.0664C147.402 14.806 147.5 14.513 147.5 14.1875V12.625C147.5 12.2018 147.337 11.8438 147.012 11.5508C146.719 11.2253 146.361 11.0625 145.938 11.0625H124.062C123.639 11.0625 123.265 11.2253 122.939 11.5508C122.646 11.8438 122.5 12.2018 122.5 12.625C122.5 13.0482 122.646 13.4225 122.939 13.748C123.265 14.041 123.639 14.1875 124.062 14.1875H141.592L125.088 20.5352C124.762 20.6654 124.502 20.8607 124.307 21.1211C124.144 21.3815 124.062 21.6745 124.062 22V23.5625C124.062 23.9857 124.209 24.36 124.502 24.6855C124.827 24.9785 125.202 25.125 125.625 25.125H143.496L142.91 33.3281L135 35.9648L127.188 33.377V31.375C127.188 30.9518 127.025 30.5938 126.699 30.3008C126.406 29.9753 126.048 29.8125 125.625 29.8125C125.202 29.8125 124.827 29.9753 124.502 30.3008C124.209 30.5938 124.062 30.9518 124.062 31.375V34.5C124.062 34.8255 124.16 35.1348 124.355 35.4277C124.551 35.6882 124.811 35.8672 125.137 35.9648L134.512 39.0898C134.577 39.1224 134.642 39.1549 134.707 39.1875C134.805 39.1875 134.902 39.1875 135 39.1875C135.098 39.1875 135.179 39.1875 135.244 39.1875C135.342 39.1549 135.423 39.1224 135.488 39.0898Z" transform="translate(-113 -1)" fill="#FFC69C"/>
</svg>
