<svg width="50" height="38" viewBox="0 0 50 38" fill="none" xmlns="http://www.w3.org/2000/svg">
<path d="M153.75 6.375C152.285 6.375 150.999 6.83073 149.893 7.74219C148.786 8.62109 148.07 9.72786 147.744 11.0625H141.25V7.9375C141.25 7.51432 141.087 7.15625 140.762 6.86328C140.469 6.53776 140.111 6.375 139.688 6.375H130.312C129.889 6.375 129.515 6.53776 129.189 6.86328C128.896 7.15625 128.75 7.51432 128.75 7.9375V11.0625H122.256C121.93 9.72786 121.214 8.62109 120.107 7.74219C119.001 6.83073 117.715 6.375 116.25 6.375C114.525 6.375 113.044 6.99349 111.807 8.23047C110.602 9.4349 110 10.8997 110 12.625C110 14.3503 110.602 15.8314 111.807 17.0684C113.044 18.2728 114.525 18.875 116.25 18.875C117.715 18.875 119.001 18.4355 120.107 17.5566C121.214 16.6452 121.93 15.5221 122.256 14.1875H127.529C125.837 14.9362 124.29 15.8965 122.891 17.0684C121.523 18.2402 120.335 19.5749 119.326 21.0723C118.35 22.5697 117.585 24.1973 117.031 25.9551C116.51 27.6803 116.25 29.487 116.25 31.375H113.125C112.702 31.375 112.327 31.5378 112.002 31.8633C111.709 32.1562 111.562 32.5143 111.562 32.9375V42.3125C111.562 42.7357 111.709 43.11 112.002 43.4355C112.327 43.7285 112.702 43.875 113.125 43.875H122.5C122.923 43.875 123.281 43.7285 123.574 43.4355C123.9 43.11 124.062 42.7357 124.062 42.3125V32.9375C124.062 32.5143 123.9 32.1562 123.574 31.8633C123.281 31.5378 122.923 31.375 122.5 31.375H119.375C119.375 29.8125 119.603 28.3151 120.059 26.8828C120.514 25.418 121.149 24.0671 121.963 22.8301C122.777 21.5605 123.753 20.4375 124.893 19.4609C126.064 18.4844 127.35 17.6868 128.75 17.0684V17.3125C128.75 17.7357 128.896 18.11 129.189 18.4355C129.515 18.7285 129.889 18.875 130.312 18.875H139.688C140.111 18.875 140.469 18.7285 140.762 18.4355C141.087 18.11 141.25 17.7357 141.25 17.3125V17.0195C142.65 17.638 143.919 18.4355 145.059 19.4121C146.23 20.3887 147.223 21.5117 148.037 22.7812C148.851 24.0182 149.486 25.3691 149.941 26.834C150.397 28.2988 150.625 29.8125 150.625 31.375H147.5C147.077 31.375 146.702 31.5378 146.377 31.8633C146.084 32.1562 145.938 32.5143 145.938 32.9375V42.3125C145.938 42.7357 146.084 43.11 146.377 43.4355C146.702 43.7285 147.077 43.875 147.5 43.875H156.875C157.298 43.875 157.656 43.7285 157.949 43.4355C158.275 43.11 158.438 42.7357 158.438 42.3125V32.9375C158.438 32.5143 158.275 32.1562 157.949 31.8633C157.656 31.5378 157.298 31.375 156.875 31.375H153.75C153.75 29.487 153.473 27.6803 152.92 25.9551C152.399 24.1973 151.65 22.5697 150.674 21.0723C149.697 19.5749 148.509 18.2402 147.109 17.0684C145.742 15.8639 144.229 14.9036 142.568 14.1875H147.744C148.07 15.5221 148.786 16.6452 149.893 17.5566C150.999 18.4355 152.285 18.875 153.75 18.875C155.475 18.875 156.94 18.2728 158.145 17.0684C159.382 15.8314 160 14.3503 160 12.625C160 10.8997 159.382 9.4349 158.145 8.23047C156.94 6.99349 155.475 6.375 153.75 6.375ZM120.938 34.5V40.75H114.688V34.5H120.938ZM155.312 34.5V40.75H149.062V34.5H155.312ZM116.25 15.75C115.404 15.75 114.671 15.4408 114.053 14.8223C113.434 14.2038 113.125 13.4714 113.125 12.625C113.125 11.7786 113.434 11.0462 114.053 10.4277C114.671 9.80924 115.404 9.5 116.25 9.5C117.096 9.5 117.829 9.80924 118.447 10.4277C119.066 11.0462 119.375 11.7786 119.375 12.625C119.375 13.4714 119.066 14.2038 118.447 14.8223C117.829 15.4408 117.096 15.75 116.25 15.75ZM138.125 15.75H131.875V9.5H138.125V15.75ZM153.75 15.75C152.904 15.75 152.171 15.4408 151.553 14.8223C150.934 14.2038 150.625 13.4714 150.625 12.625C150.625 11.7786 150.934 11.0462 151.553 10.4277C152.171 9.80924 152.904 9.5 153.75 9.5C154.596 9.5 155.329 9.80924 155.947 10.4277C156.566 11.0462 156.875 11.7786 156.875 12.625C156.875 13.4714 156.566 14.2038 155.947 14.8223C155.329 15.4408 154.596 15.75 153.75 15.75Z" transform="translate(-110 -6)" fill="#64ECF5"/>
</svg>
