<svg width="54" height="61" viewBox="0 0 54 61" fill="none" xmlns="http://www.w3.org/2000/svg">
<path d="M13.125 59.75H37.5C40.1172 59.75 42.3242 58.832 44.1211 56.9961C45.957 55.1992 46.875 52.9922 46.875 50.375V35.375H50.625C52.2266 35.375 53.5547 34.8477 54.6094 33.793C55.7031 32.6992 56.25 31.3516 56.25 29.75V18.5C56.25 17.9531 56.0742 17.5039 55.7227 17.1523C55.3711 16.8008 54.9219 16.625 54.375 16.625H5.625C5.07812 16.625 4.62891 16.8008 4.27734 17.1523C3.92578 17.5039 3.75 17.9531 3.75 18.5V50.375C3.75 52.9922 4.64844 55.1992 6.44531 56.9961C8.28125 58.832 10.5078 59.75 13.125 59.75ZM52.5 29.75C52.5 30.2969 52.3242 30.7461 51.9727 31.0977C51.6211 31.4492 51.1719 31.625 50.625 31.625H46.875V20.375H52.5V29.75ZM7.5 20.375H43.125V50.375C43.125 51.9766 42.5781 53.3242 41.4844 54.418C40.4297 55.4727 39.1016 56 37.5 56H13.125C11.5234 56 10.1758 55.4727 9.08203 54.418C8.02734 53.3242 7.5 51.9766 7.5 50.375V20.375ZM24.375 11C24.9219 11 25.3711 10.8242 25.7227 10.4727C26.0742 10.1211 26.25 9.67188 26.25 9.125V1.625C26.25 1.07812 26.0742 0.628906 25.7227 0.277344C25.3711 -0.0742188 24.9219 -0.25 24.375 -0.25C23.8281 -0.25 23.3789 -0.0742188 23.0273 0.277344C22.6758 0.628906 22.5 1.07812 22.5 1.625V9.125C22.5 9.67188 22.6758 10.1211 23.0273 10.4727C23.3789 10.8242 23.8281 11 24.375 11ZM15 12.875C15.5469 12.875 15.9961 12.6992 16.3477 12.3477C16.6992 11.9961 16.875 11.5469 16.875 11V3.5C16.875 2.95312 16.6992 2.50391 16.3477 2.15234C15.9961 1.80078 15.5469 1.625 15 1.625C14.4531 1.625 14.0039 1.80078 13.6523 2.15234C13.3008 2.50391 13.125 2.95312 13.125 3.5V11C13.125 11.5469 13.3008 11.9961 13.6523 12.3477C14.0039 12.6992 14.4531 12.875 15 12.875ZM33.75 12.875C34.2969 12.875 34.7461 12.6992 35.0977 12.3477C35.4492 11.9961 35.625 11.5469 35.625 11V3.5C35.625 2.95312 35.4492 2.50391 35.0977 2.15234C34.7461 1.80078 34.2969 1.625 33.75 1.625C33.2031 1.625 32.7539 1.80078 32.4023 2.15234C32.0508 2.50391 31.875 2.95312 31.875 3.5V11C31.875 11.5469 32.0508 11.9961 32.4023 12.3477C32.7539 12.6992 33.2031 12.875 33.75 12.875Z" transform="translate(-3 1)" fill="#1CEBBC"/>
</svg>
