<svg width="48" height="46" viewBox="0 0 48 46" fill="none" xmlns="http://www.w3.org/2000/svg">
<path d="M122.939 46.5605C123.102 46.6908 123.281 46.8047 123.477 46.9023C123.672 46.9674 123.867 47 124.062 47C124.258 47 124.453 46.9674 124.648 46.9023C124.844 46.8047 125.023 46.6908 125.186 46.5605L135.781 35.916L144.814 44.998C144.88 45.0632 144.945 45.1283 145.01 45.1934C145.107 45.2259 145.205 45.2585 145.303 45.291C145.335 45.291 145.368 45.3073 145.4 45.3398C145.433 45.3398 145.465 45.3398 145.498 45.3398C145.531 45.3724 145.563 45.3887 145.596 45.3887C145.628 45.3887 145.661 45.4049 145.693 45.4375L156.631 47C156.696 47 156.745 47 156.777 47C156.81 47 156.842 47 156.875 47C157.07 47 157.266 46.9674 157.461 46.9023C157.656 46.8047 157.835 46.6908 157.998 46.5605C158.161 46.3652 158.275 46.1536 158.34 45.9258C158.438 45.6979 158.47 45.4538 158.438 45.1934L156.875 34.2559C156.875 34.2233 156.859 34.1908 156.826 34.1582C156.826 34.1257 156.81 34.0931 156.777 34.0605C156.777 34.028 156.761 33.9954 156.729 33.9629C156.729 33.9303 156.729 33.8978 156.729 33.8652C156.696 33.7676 156.647 33.6862 156.582 33.6211C156.549 33.5234 156.501 33.4421 156.436 33.377L147.354 24.3438L156.436 15.3105C156.729 14.985 156.875 14.6107 156.875 14.1875C156.875 13.7643 156.729 13.39 156.436 13.0645L145.498 2.12695C145.173 1.83398 144.798 1.6875 144.375 1.6875C143.952 1.6875 143.577 1.83398 143.252 2.12695L134.219 11.209L125.186 2.12695C124.86 1.83398 124.486 1.6875 124.062 1.6875C123.639 1.6875 123.265 1.83398 122.939 2.12695L113.564 11.502C113.271 11.8275 113.125 12.2018 113.125 12.625C113.125 13.0482 113.271 13.4225 113.564 13.748L122.646 22.7812L112.002 33.377C111.709 33.7025 111.562 34.0768 111.562 34.5C111.562 34.9232 111.709 35.2975 112.002 35.623L122.939 46.5605ZM149.258 42.752L154.189 37.8203L155.02 43.582L149.258 42.752ZM153.115 34.5L145.938 41.6777L137.979 33.7188L145.156 26.541L153.115 34.5ZM124.844 20.584L121.572 17.3125L128.75 10.1348L132.021 13.4062L124.844 20.584ZM124.062 5.44727L126.553 7.9375L119.375 15.1152L116.885 12.625L124.062 5.44727ZM119.375 30.4473L122.939 34.0605C123.102 34.1908 123.281 34.3047 123.477 34.4023C123.672 34.4674 123.867 34.5 124.062 34.5C124.258 34.5 124.453 34.4674 124.648 34.4023C124.844 34.3047 125.023 34.1908 125.186 34.0605C125.479 33.735 125.625 33.3607 125.625 32.9375C125.625 32.5143 125.479 32.14 125.186 31.8145L121.572 28.25L124.062 25.7598L126.064 27.8105C126.227 27.9408 126.406 28.0547 126.602 28.1523C126.797 28.2174 126.992 28.25 127.188 28.25C127.383 28.25 127.578 28.2174 127.773 28.1523C127.969 28.0547 128.148 27.9408 128.311 27.8105C128.604 27.485 128.75 27.1107 128.75 26.6875C128.75 26.2643 128.604 25.89 128.311 25.5645L126.26 23.5625L128.75 21.0723L132.314 24.6855C132.477 24.8158 132.656 24.9297 132.852 25.0273C133.047 25.0924 133.242 25.125 133.438 25.125C133.633 25.125 133.828 25.0924 134.023 25.0273C134.219 24.9297 134.398 24.8158 134.561 24.6855C134.854 24.36 135 23.9857 135 23.5625C135 23.1393 134.854 22.765 134.561 22.4395L130.947 18.875L133.438 16.3848L135.439 18.4355C135.602 18.5658 135.781 18.6797 135.977 18.7773C136.172 18.8424 136.367 18.875 136.562 18.875C136.758 18.875 136.953 18.8424 137.148 18.7773C137.344 18.6797 137.523 18.5658 137.686 18.4355C137.979 18.11 138.125 17.7357 138.125 17.3125C138.125 16.8893 137.979 16.515 137.686 16.1895L135.635 14.1875L138.125 11.6973L141.689 15.3105C141.852 15.4408 142.031 15.5547 142.227 15.6523C142.422 15.7174 142.617 15.75 142.812 15.75C143.008 15.75 143.203 15.7174 143.398 15.6523C143.594 15.5547 143.773 15.4408 143.936 15.3105C144.229 14.985 144.375 14.6107 144.375 14.1875C144.375 13.7643 144.229 13.39 143.936 13.0645L140.322 9.5L144.375 5.44727L153.115 14.1875L124.062 43.2402L115.322 34.5L119.375 30.4473Z" transform="translate(-111 -1)" fill="#8667F7"/>
</svg>
