<svg width="60" height="57" viewBox="0 0 60 57" fill="none" xmlns="http://www.w3.org/2000/svg">
<path d="M58.125 9.125H41.25V3.5C41.25 2.95312 41.0742 2.50391 40.7227 2.15234C40.3711 1.80078 39.9219 1.625 39.375 1.625H20.625C20.0781 1.625 19.6289 1.80078 19.2773 2.15234C18.9258 2.50391 18.75 2.95312 18.75 3.5V9.125H1.875C1.32812 9.125 0.878906 9.30078 0.527344 9.65234C0.175781 10.0039 0 10.4531 0 11V41C0 41.5469 0.175781 41.9961 0.527344 42.3477C0.878906 42.6992 1.32812 42.875 1.875 42.875H3.75V56C3.75 56.5469 3.92578 56.9961 4.27734 57.3477C4.62891 57.6992 5.07812 57.875 5.625 57.875H54.375C54.9219 57.875 55.3711 57.6992 55.7227 57.3477C56.0742 56.9961 56.25 56.5469 56.25 56V42.875H58.125C58.6719 42.875 59.1211 42.6992 59.4727 42.3477C59.8242 41.9961 60 41.5469 60 41V11C60 10.4531 59.8242 10.0039 59.4727 9.65234C59.1211 9.30078 58.6719 9.125 58.125 9.125ZM22.5 5.375H37.5V9.125H22.5V5.375ZM52.5 54.125H7.5V42.875H22.5V44.75C22.5 45.2969 22.6758 45.7461 23.0273 46.0977C23.3789 46.4492 23.8281 46.625 24.375 46.625H35.625C36.1719 46.625 36.6211 46.4492 36.9727 46.0977C37.3242 45.7461 37.5 45.2969 37.5 44.75V42.875H52.5V54.125ZM33.75 42.875H26.25V37.25H33.75V42.875ZM56.25 39.125H37.5V35.375C37.5 34.8281 37.3242 34.3789 36.9727 34.0273C36.6211 33.6758 36.1719 33.5 35.625 33.5H24.375C23.8281 33.5 23.3789 33.6758 23.0273 34.0273C22.6758 34.3789 22.5 34.8281 22.5 35.375V39.125H3.75V12.875H56.25V39.125Z" transform="translate(0 -1)" fill="#FF8B8D"/>
</svg>
