<svg width="58" height="57" viewBox="0 0 58 57" fill="none" xmlns="http://www.w3.org/2000/svg">
<path d="M3.75 27.875C3.20312 27.875 2.75391 28.0508 2.40234 28.4023C2.05078 28.7539 1.875 29.2031 1.875 29.75C1.875 30.2969 2.05078 30.7461 2.40234 31.0977C2.75391 31.4492 3.20312 31.625 3.75 31.625H7.5C8.04688 31.625 8.49609 31.4492 8.84766 31.0977C9.19922 30.7461 9.375 30.2969 9.375 29.75C9.375 29.2031 9.19922 28.7539 8.84766 28.4023C8.49609 28.0508 8.04688 27.875 7.5 27.875H3.75ZM15.3516 12.5234L12.7734 9.88672C12.3828 9.49609 11.9336 9.30078 11.4258 9.30078C10.918 9.30078 10.4883 9.49609 10.1367 9.88672C9.74609 10.2383 9.55078 10.668 9.55078 11.1758C9.55078 11.6836 9.74609 12.1328 10.1367 12.5234L12.7734 15.1016C12.9297 15.2969 13.125 15.4531 13.3594 15.5703C13.6328 15.6484 13.8672 15.6875 14.0625 15.6875C14.2578 15.6875 14.4727 15.6484 14.707 15.5703C14.9805 15.4531 15.1953 15.2969 15.3516 15.1016C15.7422 14.75 15.9375 14.3203 15.9375 13.8125C15.9375 13.3047 15.7422 12.875 15.3516 12.5234ZM31.875 7.25V3.5C31.875 2.95312 31.6992 2.50391 31.3477 2.15234C30.9961 1.80078 30.5469 1.625 30 1.625C29.4531 1.625 29.0039 1.80078 28.6523 2.15234C28.3008 2.50391 28.125 2.95312 28.125 3.5V7.25C28.125 7.79688 28.3008 8.24609 28.6523 8.59766C29.0039 8.94922 29.4531 9.125 30 9.125C30.5469 9.125 30.9961 8.94922 31.3477 8.59766C31.6992 8.24609 31.875 7.79688 31.875 7.25ZM47.2266 15.1016L49.8633 12.5234C50.2539 12.1328 50.4492 11.6836 50.4492 11.1758C50.4492 10.668 50.2539 10.2383 49.8633 9.88672C49.5117 9.49609 49.082 9.30078 48.5742 9.30078C48.0664 9.30078 47.6172 9.49609 47.2266 9.88672L44.6484 12.5234C44.2578 12.875 44.0625 13.3047 44.0625 13.8125C44.0625 14.3203 44.2578 14.75 44.6484 15.1016C44.8047 15.2969 45 15.4531 45.2344 15.5703C45.5078 15.6484 45.7422 15.6875 45.9375 15.6875C46.1328 15.6875 46.3477 15.6484 46.582 15.5703C46.8555 15.4531 47.0703 15.2969 47.2266 15.1016ZM56.25 31.625C56.7969 31.625 57.2461 31.4492 57.5977 31.0977C57.9492 30.7461 58.125 30.2969 58.125 29.75C58.125 29.2031 57.9492 28.7539 57.5977 28.4023C57.2461 28.0508 56.7969 27.875 56.25 27.875H52.5C51.9531 27.875 51.5039 28.0508 51.1523 28.4023C50.8008 28.7539 50.625 29.2031 50.625 29.75C50.625 30.2969 50.8008 30.7461 51.1523 31.0977C51.5039 31.4492 51.9531 31.625 52.5 31.625H56.25ZM30 12.875C27.6562 12.875 25.4492 13.3242 23.3789 14.2227C21.3477 15.082 19.5703 16.2734 18.0469 17.7969C16.5234 19.3203 15.3125 21.1172 14.4141 23.1875C13.5547 25.2187 13.125 27.4062 13.125 29.75C13.125 31.3906 13.3398 32.9727 13.7695 34.4961C14.1992 35.9805 14.8047 37.3867 15.5859 38.7148C16.4062 40.0039 17.4023 41.1758 18.5742 42.2305C19.7461 43.2852 21.0547 44.1836 22.5 44.9258V46.625C22.5 47.1719 22.6758 47.6211 23.0273 47.9727C23.3789 48.3242 23.8281 48.5 24.375 48.5H35.625C36.1719 48.5 36.6211 48.3242 36.9727 47.9727C37.3242 47.6211 37.5 47.1719 37.5 46.625V44.9258C38.9453 44.2227 40.2344 43.3438 41.3672 42.2891C42.5391 41.2344 43.5352 40.0625 44.3555 38.7734C45.1758 37.4453 45.8008 36.0195 46.2305 34.4961C46.6602 32.9727 46.875 31.3906 46.875 29.75C46.875 27.4062 46.4258 25.2187 45.5273 23.1875C44.668 21.1172 43.4766 19.3203 41.9531 17.7969C40.4297 16.2734 38.6328 15.082 36.5625 14.2227C34.5312 13.3242 32.3438 12.875 30 12.875ZM34.8633 41.9375C34.5117 42.0156 34.2383 42.2305 34.043 42.582C33.8477 42.8945 33.75 43.2461 33.75 43.6367V44.75H26.25V43.6367C26.25 43.2461 26.1523 42.8945 25.957 42.582C25.7617 42.2305 25.4883 42.0156 25.1367 41.9375C22.5977 40.9219 20.5859 39.3203 19.1016 37.1328C17.6172 34.9453 16.875 32.4844 16.875 29.75C16.875 27.9141 17.207 26.2148 17.8711 24.6523C18.5742 23.0508 19.5117 21.6641 20.6836 20.4922C21.8555 19.2813 23.2422 18.3438 24.8438 17.6797C26.4453 16.9766 28.1641 16.625 30 16.625C31.8359 16.625 33.5352 16.9766 35.0977 17.6797C36.6992 18.3438 38.0859 19.2617 39.2578 20.4336C40.4688 21.6055 41.4062 22.9922 42.0703 24.5938C42.7734 26.1953 43.125 27.9141 43.125 29.75C43.125 32.4844 42.3828 34.9453 40.8984 37.1328C39.4141 39.3203 37.4023 40.9219 34.8633 41.9375ZM37.5 52.25C37.5 51.7031 37.3242 51.2539 36.9727 50.9023C36.6211 50.5508 36.1719 50.375 35.625 50.375H24.375C23.8281 50.375 23.3789 50.5508 23.0273 50.9023C22.6758 51.2539 22.5 51.7031 22.5 52.25C22.5 52.7969 22.6758 53.2461 23.0273 53.5977C23.3789 53.9492 23.8281 54.125 24.375 54.125H28.125C27.5781 54.125 27.1289 54.3008 26.7773 54.6523C26.4258 55.0039 26.25 55.4531 26.25 56C26.25 56.5469 26.4258 56.9961 26.7773 57.3477C27.1289 57.6992 27.5781 57.875 28.125 57.875H31.875C32.4219 57.875 32.8711 57.6992 33.2227 57.3477C33.5742 56.9961 33.75 56.5469 33.75 56C33.75 55.4531 33.5742 55.0039 33.2227 54.6523C32.8711 54.3008 32.4219 54.125 31.875 54.125H35.625C36.1719 54.125 36.6211 53.9492 36.9727 53.5977C37.3242 53.2461 37.5 52.7969 37.5 52.25Z" transform="translate(-1 -1)" fill="#FFC69C"/>
</svg>
