<svg width="57" height="57" viewBox="0 0 57 57" fill="none" xmlns="http://www.w3.org/2000/svg">
<path d="M11.4258 28.8125C10.4102 30.4922 9.62891 31.8984 9.08203 33.0312C8.53516 34.125 8.26172 34.7109 8.26172 34.7891C8.14453 35.1797 8.10547 35.5508 8.14453 35.9023C8.18359 36.2539 8.33984 36.5859 8.61328 36.8984L22.8516 51.1367C23.0469 51.332 23.2422 51.4688 23.4375 51.5469C23.6719 51.625 23.9258 51.6641 24.1992 51.6641C24.2773 51.6641 24.3945 51.6641 24.5508 51.6641C24.707 51.6641 24.8438 51.6055 24.9609 51.4883C24.9609 51.4883 25.5078 51.2148 26.6016 50.668C27.6953 50.1211 29.082 49.3398 30.7617 48.3242L38.4375 56C38.6328 56.1953 38.8281 56.332 39.0234 56.4102C39.2188 56.5273 39.4531 56.5859 39.7266 56.5859C39.9219 56.5859 40.0977 56.5664 40.2539 56.5273C40.4492 56.5273 40.5859 56.4688 40.6641 56.3516C41.5234 55.8828 42.3242 55.375 43.0664 54.8281C43.8086 54.2812 44.4531 53.6758 45 53.0117C46.5625 51.4492 47.832 49.7305 48.8086 47.8555C49.8242 45.9805 50.5273 44.0273 50.918 41.9961C51.3477 39.9648 51.4844 37.8945 51.3281 35.7852C51.1719 33.6367 50.6836 31.5664 49.8633 29.5742C50.332 28.832 50.8008 28.0508 51.2695 27.2305C51.7383 26.3711 52.207 25.5312 52.6758 24.7109C52.6758 24.5938 52.6953 24.5352 52.7344 24.5352C52.8125 24.4961 52.8516 24.418 52.8516 24.3008C53.5547 22.8555 54.1992 21.3711 54.7852 19.8477C55.3711 18.2852 55.8789 16.6641 56.3086 14.9844C56.7383 13.3047 57.0898 11.5664 57.3633 9.76953C57.6367 7.93359 57.832 6.03906 57.9492 4.08594C57.9492 3.77344 57.8906 3.5 57.7734 3.26562C57.6953 2.99219 57.5586 2.75781 57.3633 2.5625C57.2852 2.17188 57.1094 1.91797 56.8359 1.80078C56.6016 1.68359 56.3477 1.625 56.0742 1.625C54.082 1.70313 52.168 1.87891 50.332 2.15234C48.5352 2.42578 46.7773 2.79688 45.0586 3.26562C43.3789 3.69531 41.7383 4.20312 40.1367 4.78906C38.5742 5.33594 37.0703 5.96094 35.625 6.66406C35.5469 6.66406 35.4688 6.70312 35.3906 6.78125C35.3125 6.85938 35.2734 6.89844 35.2734 6.89844C34.4141 7.36719 33.5547 7.81641 32.6953 8.24609C31.875 8.63672 31.0352 9.125 30.1758 9.71094C28.2227 8.89062 26.1914 8.40234 24.082 8.24609C22.0117 8.05078 19.9609 8.16797 17.9297 8.59766C15.8984 9.02734 13.9453 9.75 12.0703 10.7656C10.1953 11.7422 8.47656 13.0117 6.91406 14.5742C6.28906 15.2383 5.68359 15.9414 5.09766 16.6836C4.55078 17.4258 4.04297 18.2266 3.57422 19.0859C3.37891 19.4375 3.30078 19.8281 3.33984 20.2578C3.37891 20.6875 3.57422 21.0391 3.92578 21.3125L11.4258 28.8125ZM24.7266 47.3867L12.3633 35.0234C12.832 34.0078 13.6328 32.5234 14.7656 30.5703C15.9375 28.6172 17.4805 26.4883 19.3945 24.1836C21.3086 21.8398 23.6328 19.4766 26.3672 17.0938C29.1406 14.6719 32.3438 12.5234 35.9766 10.6484L48.9258 23.5391C47.0508 27.25 44.9023 30.4922 42.4805 33.2656C40.0977 36.0391 37.7344 38.4023 35.3906 40.3555C33.0859 42.2695 30.957 43.8125 29.0039 44.9844C27.0898 46.1172 25.6641 46.918 24.7266 47.3867ZM42.5391 50.1992C42.1875 50.5508 41.8164 50.8828 41.4258 51.1953C41.0352 51.5078 40.6055 51.8594 40.1367 52.25L34.1016 46.2734C35.1562 45.4922 36.2305 44.6719 37.3242 43.8125C38.457 42.9141 39.5898 41.9375 40.7227 40.8828C41.8555 39.7891 42.9883 38.6172 44.1211 37.3672C45.2539 36.1172 46.3672 34.7695 47.4609 33.3242C48.0859 36.332 47.9883 39.3398 47.168 42.3477C46.3477 45.3164 44.8047 47.9336 42.5391 50.1992ZM50.625 20.0234L39.5508 9.125C41.6992 8.1875 43.9844 7.40625 46.4062 6.78125C48.8672 6.15625 51.4648 5.74609 54.1992 5.55078C53.9258 8.28516 53.4766 10.8633 52.8516 13.2852C52.2266 15.707 51.4844 17.9531 50.625 20.0234ZM9.55078 17.2109C11.8164 15.0234 14.4336 13.5 17.4023 12.6406C20.4102 11.7813 23.418 11.6641 26.4258 12.2891C25.0195 13.3828 23.6914 14.4961 22.4414 15.6289C21.2305 16.7617 20.0781 17.8945 18.9844 19.0273C17.9297 20.1602 16.9531 21.293 16.0547 22.4258C15.1953 23.5195 14.4141 24.5938 13.7109 25.6484L7.5 19.6133C7.89062 19.2617 8.24219 18.8711 8.55469 18.4414C8.86719 17.9727 9.19922 17.5625 9.55078 17.2109ZM38.0859 21.6641C36.7578 20.375 35.1172 19.7305 33.1641 19.7305C31.25 19.7305 29.6289 20.375 28.3008 21.6641C27.0117 22.9922 26.3672 24.6328 26.3672 26.5859C26.3672 28.5 27.0117 30.1211 28.3008 31.4492C28.9648 32.1133 29.707 32.6211 30.5273 32.9727C31.3477 33.3242 32.2266 33.5 33.1641 33.5C34.1016 33.5 34.9805 33.3242 35.8008 32.9727C36.6602 32.6211 37.4219 32.1133 38.0859 31.4492C39.375 30.1211 40.0195 28.5195 40.0195 26.6445C40.0195 24.7305 39.375 23.0703 38.0859 21.6641ZM35.4492 28.8125C34.8633 29.3594 34.1211 29.6328 33.2227 29.6328C32.3633 29.6328 31.6016 29.3594 30.9375 28.8125C30.6641 28.5391 30.4297 28.2266 30.2344 27.875C30.0781 27.4844 30 27.0547 30 26.5859C30 26.1953 30.0781 25.7852 30.2344 25.3555C30.4297 24.9258 30.6641 24.5742 30.9375 24.3008C31.2109 24.0273 31.5234 23.8125 31.875 23.6562C32.2656 23.4609 32.6953 23.3633 33.1641 23.3633C33.5547 23.3633 33.9648 23.4609 34.3945 23.6562C34.8242 23.8125 35.1758 24.0273 35.4492 24.3008C35.9961 24.9648 36.2695 25.7461 36.2695 26.6445C36.2695 27.543 35.9961 28.2656 35.4492 28.8125ZM3.75 57.875C3.75 57.875 3.92578 57.875 4.27734 57.875C4.62891 57.875 5.07812 57.875 5.625 57.875C7.57812 57.875 9.23828 57.6992 10.6055 57.3477C12.0117 56.9961 13.0469 56.4883 13.7109 55.8242C15 54.4961 15.6445 52.875 15.6445 50.9609C15.6445 49.0078 15 47.3672 13.7109 46.0391C12.3828 44.75 10.7422 44.1055 8.78906 44.1055C6.875 44.1055 5.25391 44.75 3.92578 46.0391C2.71484 47.2891 2.07031 49.0469 1.99219 51.3125C1.91406 53.5781 1.875 55.1406 1.875 56C1.95313 56.4688 2.16797 56.8789 2.51953 57.2305C2.87109 57.582 3.28125 57.7969 3.75 57.875ZM6.5625 48.6758C6.83594 48.4023 7.14844 48.1875 7.5 48.0312C7.89062 47.8359 8.32031 47.7383 8.78906 47.7383C9.25781 47.7383 9.6875 47.8359 10.0781 48.0312C10.4688 48.1875 10.8008 48.4023 11.0742 48.6758C11.7383 49.3398 12.0703 50.1016 12.0703 50.9609C12.0703 51.7812 11.7383 52.5234 11.0742 53.1875C10.8789 53.3828 10.3711 53.5977 9.55078 53.832C8.73047 54.0273 7.42188 54.125 5.625 54.125C5.625 52.9141 5.70312 51.7812 5.85938 50.7266C6.05469 49.6328 6.28906 48.9492 6.5625 48.6758Z" transform="translate(-1 -1)" fill="#8667F7"/>
</svg>
