<svg width="132" height="33" viewBox="0 0 132 33" fill="none" xmlns="http://www.w3.org/2000/svg">
<path fill-rule="evenodd" clip-rule="evenodd" d="M13.6356 26.1547C11.9002 25.6565 10.1647 24.6601 8.9251 23.4147C7.18966 21.671 5.9501 18.931 5.9501 16.191C5.9501 13.451 7.18966 10.711 8.9251 8.96735C10.6605 7.2237 13.3877 5.97821 16.1148 5.97821C19.5857 5.97821 23.0566 7.47278 25.2878 9.9637C27.5191 12.4546 29.0066 15.6928 29.0066 19.1801C29.0066 22.6674 27.5191 26.1547 25.2878 28.3965C23.0566 30.8874 19.5857 32.1329 16.1148 32.382C11.6523 32.382 7.68554 30.6384 4.7105 27.6493C1.73546 24.6602 3.02637e-05 20.6747 3.02637e-05 16.191C3.02637e-05 11.7073 1.73546 7.72186 4.7105 4.73275C7.68554 1.74364 11.6523 1.52034e-05 16.1148 1.52034e-05C21.5691 1.52034e-05 26.2796 2.24181 29.7505 5.7291C36.6922 12.7037 35.4526 21.4219 35.4526 30.3892C35.4526 33.1292 31.4858 33.1292 31.4858 30.3892C31.4858 22.9164 32.7255 14.4474 27.0233 8.71824C24.2962 5.97823 20.3295 4.23454 16.1148 4.23454C12.644 4.23454 9.66892 5.48006 7.43764 7.72189C5.20635 9.96372 3.96669 12.9528 3.96669 16.191C3.96669 19.4292 5.45427 22.4183 7.43764 24.6601C9.66892 26.9019 12.6439 28.1474 15.8669 28.1474C18.3461 28.1474 20.5774 27.151 22.3128 25.4074C24.0483 23.6637 25.0399 21.422 25.0399 18.931C25.0399 16.4401 24.0483 14.1983 22.3128 12.4546C20.5774 10.711 18.3461 9.71459 15.8669 9.71459C14.1315 9.71459 12.6439 10.4619 11.6522 11.4583C10.6606 12.4546 9.91684 14.1983 9.91684 15.9419C9.91684 17.6855 10.6606 19.1801 11.6522 20.4255C12.396 21.1728 13.3877 21.671 14.6273 22.1692C17.1065 22.9165 16.1148 26.6529 13.6356 26.1547Z" transform="translate(0.629395 0.178955)" fill="#1CEBBC"/>
<path d="M16.0277 0.926608V16.3701H14.4624V4.0153L8.39964 14.4065H7.62802L1.56529 4.08149V16.3701H0V0.926608H1.34482L8.0469 12.3768L14.6828 0.926608H16.0277Z" transform="translate(43.4253 8.61426)" fill="#34314B"/>
<path d="M24.7818 4.67716C26.2956 4.67716 27.4567 5.05957 28.2651 5.82439C29.0734 6.5745 29.4776 7.69231 29.4776 9.17783V16.3701H27.9785V14.561C27.6257 15.164 27.104 15.6347 26.4132 15.973C25.7371 16.3112 24.9287 16.4804 23.9881 16.4804C22.6947 16.4804 21.6659 16.1715 20.9016 15.5538C20.1373 14.936 19.7552 14.1197 19.7552 13.1049C19.7552 12.1194 20.1079 11.3252 20.8134 10.7222C21.5336 10.1191 22.6727 9.81763 24.2306 9.81763H27.9123V9.11164C27.9123 8.11149 27.6331 7.35403 27.0746 6.83925C26.5161 6.30976 25.7004 6.04501 24.6274 6.04501C23.8926 6.04501 23.1871 6.17003 22.511 6.42007C21.8349 6.6554 21.2544 6.98633 20.7693 7.41286L20.0639 6.24357C20.6518 5.7435 21.3572 5.36109 22.1803 5.09634C23.0034 4.81689 23.8705 4.67716 24.7818 4.67716ZM24.2306 15.2449C25.1125 15.2449 25.8694 15.0463 26.5014 14.6492C27.1334 14.2374 27.6037 13.6491 27.9123 12.8843V10.9869H24.2747C22.2905 10.9869 21.2984 11.6782 21.2984 13.0608C21.2984 13.7373 21.5557 14.2742 22.0701 14.6713C22.5845 15.0537 23.3047 15.2449 24.2306 15.2449Z" transform="translate(43.4253 8.61426)" fill="#34314B"/>
<path d="M33.7291 4.76541H35.2944V16.3701H33.7291V4.76541ZM34.5228 2.22827C34.1994 2.22827 33.9275 2.11796 33.7071 1.89734C33.4866 1.67672 33.3764 1.41197 33.3764 1.1031C33.3764 0.808943 33.4866 0.551552 33.7071 0.330931C33.9275 0.11031 34.1994 0 34.5228 0C34.8461 0 35.118 0.11031 35.3385 0.330931C35.559 0.536844 35.6692 0.786881 35.6692 1.08104C35.6692 1.40462 35.559 1.67672 35.3385 1.89734C35.118 2.11796 34.8461 2.22827 34.5228 2.22827Z" transform="translate(43.4253 8.61426)" fill="#34314B"/>
<path d="M41.1489 7.03781C41.5163 6.25828 42.0602 5.66996 42.7803 5.27284C43.5152 4.87572 44.4191 4.67716 45.492 4.67716V6.19945L45.1172 6.17738C43.8973 6.17738 42.942 6.55244 42.2512 7.30255C41.5604 8.05266 41.215 9.10429 41.215 10.4574V16.3701H39.6498V4.76541H41.1489V7.03781Z" transform="translate(43.4253 8.61426)" fill="#34314B"/>
<path d="M52.9585 16.4804C51.8415 16.4804 50.8347 16.2303 49.9381 15.7303C49.0416 15.2155 48.3361 14.5095 47.8217 13.6123C47.3073 12.7151 47.0501 11.7003 47.0501 10.5677C47.0501 9.43522 47.3073 8.42036 47.8217 7.52317C48.3361 6.62598 49.0416 5.92735 49.9381 5.42727C50.8347 4.9272 51.8415 4.67716 52.9585 4.67716C54.0755 4.67716 55.0823 4.9272 55.9788 5.42727C56.8754 5.92735 57.5735 6.62598 58.0732 7.52317C58.5876 8.42036 58.8448 9.43522 58.8448 10.5677C58.8448 11.7003 58.5876 12.7151 58.0732 13.6123C57.5735 14.5095 56.8754 15.2155 55.9788 15.7303C55.0823 16.2303 54.0755 16.4804 52.9585 16.4804ZM52.9585 15.0905C53.7815 15.0905 54.5164 14.9066 55.1631 14.5389C55.8245 14.1565 56.3389 13.6197 56.7064 12.9284C57.0738 12.2371 57.2575 11.4502 57.2575 10.5677C57.2575 9.68526 57.0738 8.89837 56.7064 8.2071C56.3389 7.51582 55.8245 6.98633 55.1631 6.61863C54.5164 6.23622 53.7815 6.04501 52.9585 6.04501C52.1354 6.04501 51.3932 6.23622 50.7318 6.61863C50.0851 6.98633 49.5707 7.51582 49.1886 8.2071C48.8211 8.89837 48.6374 9.68526 48.6374 10.5677C48.6374 11.4502 48.8211 12.2371 49.1886 12.9284C49.5707 13.6197 50.0851 14.1565 50.7318 14.5389C51.3932 14.9066 52.1354 15.0905 52.9585 15.0905Z" transform="translate(43.4253 8.61426)" fill="#34314B"/>
<path d="M67.9489 4.67716C69.404 4.67716 70.5577 5.1037 71.4102 5.95676C72.2774 6.79512 72.7109 8.02325 72.7109 9.64113V16.3701H71.1456V9.79557C71.1456 8.58951 70.8443 7.67025 70.2418 7.03781C69.6392 6.40536 68.7794 6.08914 67.6623 6.08914C66.413 6.08914 65.421 6.46419 64.6861 7.2143C63.9659 7.94971 63.6058 8.97192 63.6058 10.2809V16.3701H62.0405V4.76541H63.5397V6.90543C63.9659 6.19945 64.5538 5.65525 65.3034 5.27284C66.0676 4.87572 66.9495 4.67716 67.9489 4.67716Z" transform="translate(43.4253 8.61426)" fill="#34314B"/>
<path d="M83.0674 15.6641C82.7734 15.9288 82.406 16.1347 81.965 16.2818C81.5388 16.4142 81.0905 16.4804 80.6202 16.4804C79.5326 16.4804 78.6948 16.1862 78.1069 15.5979C77.519 15.0096 77.2251 14.1786 77.2251 13.1049V6.08914H75.1527V4.76541H77.2251V2.22827H78.7904V4.76541H82.3178V6.08914H78.7904V13.0166C78.7904 13.7079 78.9594 14.2374 79.2974 14.6051C79.6502 14.9581 80.1499 15.1346 80.7966 15.1346C81.1199 15.1346 81.4286 15.0831 81.7225 14.9802C82.0312 14.8772 82.2957 14.7301 82.5162 14.5389L83.0674 15.6641Z" transform="translate(43.4253 8.61426)" fill="#34314B"/>
<path d="M85.9168 4.76541H87.4821V16.3701H85.9168V4.76541ZM86.7105 2.22827C86.3872 2.22827 86.1152 2.11796 85.8948 1.89734C85.6743 1.67672 85.5641 1.41197 85.5641 1.1031C85.5641 0.808943 85.6743 0.551552 85.8948 0.330931C86.1152 0.11031 86.3872 0 86.7105 0C87.0339 0 87.3058 0.11031 87.5262 0.330931C87.7467 0.536844 87.8569 0.786881 87.8569 1.08104C87.8569 1.40462 87.7467 1.67672 87.5262 1.89734C87.3058 2.11796 87.0339 2.22827 86.7105 2.22827Z" transform="translate(43.4253 8.61426)" fill="#34314B"/>
</svg>
