<svg width="128" height="30" viewBox="0 0 128 30" fill="none" xmlns="http://www.w3.org/2000/svg">
<path fill-rule="evenodd" clip-rule="evenodd" d="M20.1075 1.87435C22.1682 3.12391 23.8169 4.78998 25.0534 6.87259C25.2594 7.28911 25.4655 7.49737 25.4655 7.91389C25.6715 11.2461 20.7258 15.4113 17.8407 17.2856C15.1617 19.16 10.4219 19.16 7.74291 17.2856C5.06392 15.4113 -0.912254 10.6213 0.118127 7.28914C1.35458 4.99827 3.20928 3.12391 5.47612 1.87435C7.53688 0.624782 10.0098 1.27112e-05 12.6888 1.27112e-05C15.3678 1.27112e-05 18.0467 0.624782 20.1075 1.87435Z" transform="translate(1.62158)" fill="#64ECF5"/>
<path d="M3.89926 13.9288H5.62678C7.15686 13.9288 8.33322 13.4514 9.15585 12.4964C9.99493 11.5415 10.4145 10.1914 10.4145 8.44621C10.4145 6.96442 9.99493 5.77898 9.15585 4.88991C8.31677 3.98437 7.13218 3.5316 5.6021 3.5316H3.89926V13.9288ZM0 0.395144H5.72549C8.22628 0.395144 10.2746 1.16897 11.8705 2.71662C13.4664 4.2478 14.2644 6.15766 14.2644 8.44621C14.2644 11.1134 13.4746 13.2126 11.8952 14.7438C10.3322 16.275 8.25918 17.0406 5.67613 17.0406H0V0.395144Z" transform="translate(38.4697 6.53735)" fill="#34314B"/>
<path d="M20.3012 4.51946V6.84093C20.5316 6.1165 20.91 5.54025 21.4365 5.11218C21.9794 4.66764 22.6046 4.44537 23.3121 4.44537C23.7069 4.44537 24.0195 4.4783 24.2499 4.54416V7.95228C23.855 7.77117 23.4025 7.68061 22.8925 7.68061C22.1192 7.68061 21.494 7.96874 21.0169 8.54499C20.5398 9.10478 20.3012 9.85391 20.3012 10.7924V17.0406H16.6981L16.7228 4.51946H20.3012Z" transform="translate(38.4697 6.53735)" fill="#34314B"/>
<path d="M32.0513 11.9037H30.8913C30.2826 11.9037 29.8137 12.0354 29.4847 12.2989C29.1556 12.5623 28.9911 12.8998 28.9911 13.3114C28.9911 14.1511 29.4764 14.5709 30.4471 14.5709C30.9572 14.5709 31.352 14.4145 31.6317 14.1017C31.9114 13.7889 32.0513 13.3608 32.0513 12.8175V11.9037ZM26.2024 8.37212V5.13687C27.1895 4.57709 28.6127 4.29719 30.4718 4.29719C32.2487 4.29719 33.5731 4.68411 34.4451 5.45793C35.3171 6.21529 35.7531 7.40072 35.7531 9.01423V17.0406H32.224V15.5094C31.6975 16.5796 30.661 17.1147 29.1145 17.1147C27.897 17.1147 26.9427 16.7689 26.2517 16.0774C25.5772 15.3859 25.2399 14.5215 25.2399 13.4843C25.2399 12.2824 25.6759 11.3522 26.5479 10.6936C27.4363 10.0186 28.7443 9.68103 30.4718 9.68103H32.0513V8.81665C32.0513 7.76294 31.352 7.23608 29.9536 7.23608C28.6044 7.23608 27.354 7.61476 26.2024 8.37212Z" transform="translate(38.4697 6.53735)" fill="#34314B"/>
<path d="M42.185 4.51946V6.64336C42.4976 5.95186 42.9747 5.40854 43.6164 5.01339C44.2745 4.60178 45.056 4.39598 45.9609 4.39598C47.2442 4.39598 48.2478 4.78289 48.9717 5.55671C49.6956 6.31407 50.0576 7.43365 50.0576 8.91544V17.0406H46.4544V9.58225C46.4544 8.84135 46.2817 8.28156 45.9362 7.90288C45.5907 7.50774 45.1053 7.31017 44.4801 7.31017C43.822 7.31017 43.2709 7.5736 42.8267 8.10046C42.3989 8.61085 42.185 9.38467 42.185 10.4219V17.0406H38.5819V4.51946H42.185Z" transform="translate(38.4697 6.53735)" fill="#34314B"/>
<path d="M64.6693 17.0406H60.4986L56.5007 10.8912V17.0406H52.8975V0H56.5007V10.1256L60.4493 4.51946H64.5953L60.2518 10.5207L64.6693 17.0406Z" transform="translate(38.4697 6.53735)" fill="#34314B"/>
<path d="M74.3151 4.88991V7.97697C73.4431 7.46658 72.4231 7.21138 71.2549 7.21138C70.8272 7.21138 70.4981 7.30194 70.2678 7.48304C70.0375 7.64769 69.9223 7.86172 69.9223 8.12515C69.9223 8.27333 69.9634 8.41328 70.0457 8.54499C70.1279 8.67671 70.2596 8.80019 70.4405 8.91544C70.638 9.03069 70.8189 9.13771 70.9835 9.2365C71.1645 9.31882 71.403 9.42584 71.6992 9.55755C72.0118 9.68926 72.2585 9.80451 72.4395 9.9033C73.1963 10.2984 73.8051 10.7594 74.2658 11.2863C74.7264 11.7967 74.9568 12.4553 74.9568 13.262C74.9568 14.4969 74.5125 15.4518 73.6241 16.1268C72.7357 16.8019 71.5593 17.1394 70.095 17.1394C68.5814 17.1394 67.3146 16.8842 66.2945 16.3738V13.1632C67.4297 13.9535 68.6308 14.3487 69.8976 14.3487C70.8025 14.3487 71.2549 14.0605 71.2549 13.4843C71.2549 13.3361 71.2138 13.1962 71.1315 13.0645C71.0493 12.9327 70.9094 12.8093 70.712 12.694C70.5146 12.5788 70.3336 12.4882 70.1691 12.4223C70.0045 12.34 69.766 12.233 69.4534 12.1013C69.1408 11.9696 68.9022 11.8626 68.7377 11.7802C67.076 10.9899 66.2451 9.80451 66.2451 8.22394C66.2451 7.00558 66.7058 6.05888 67.6272 5.38384C68.5649 4.7088 69.7249 4.37128 71.1069 4.37128C72.3902 4.37128 73.4596 4.54416 74.3151 4.88991Z" transform="translate(38.4697 6.53735)" fill="#34314B"/>
<path d="M82.6947 17.2382C80.7369 17.2382 79.2233 16.6537 78.1538 15.4847C77.0844 14.2993 76.5497 12.7846 76.5497 10.9406C76.5497 9.01423 77.1091 7.43365 78.2279 6.19882C79.3466 4.94753 80.8356 4.32189 82.6947 4.32189C84.6361 4.32189 86.1415 4.92284 87.211 6.12473C88.2804 7.32663 88.8151 8.85782 88.8151 10.7183C88.8151 12.6117 88.2722 14.1758 87.1863 15.4106C86.1169 16.629 84.6197 17.2382 82.6947 17.2382ZM82.6701 7.16199C81.8803 7.16199 81.288 7.49951 80.8932 8.17455C80.4983 8.84958 80.3009 9.72219 80.3009 10.7924C80.3009 11.8626 80.4983 12.7434 80.8932 13.4349C81.3045 14.1099 81.9132 14.4475 82.7194 14.4475C83.5091 14.4475 84.0932 14.1182 84.4716 13.4596C84.8665 12.7846 85.0639 11.912 85.0639 10.8418C85.0639 8.38858 84.266 7.16199 82.6701 7.16199Z" transform="translate(38.4697 6.53735)" fill="#34314B"/>
<path fill-rule="evenodd" clip-rule="evenodd" d="M13.0744 17.7021C9.5711 17.2856 6.68601 15.4113 4.41918 13.1205C1.74019 10.4131 0.0915642 6.66437 0.0915642 2.70741C0.0915642 1.66611 -0.114512 1.04129 0.0915642 -1.27112e-05C0.709793 1.04129 2.97666 3.54043 5.65565 5.41478C10.6015 8.74695 13.6926 9.16346 13.0744 17.7021Z" transform="translate(0 12.0786)" fill="#FFC69C"/>
<path fill-rule="evenodd" clip-rule="evenodd" d="M0.0826942 17.7021C3.58599 17.2856 6.47108 15.4113 8.73792 13.1205C11.4169 10.4131 13.0655 6.66437 13.0655 2.70741C13.0655 1.66611 13.2715 1.04129 13.0655 -1.27112e-05C12.4472 1.04129 10.1804 3.54043 7.50145 5.41478C2.34954 8.74695 -0.535534 9.16346 0.0826942 17.7021Z" transform="translate(15.877 12.0786)" fill="#8667F7"/>
</svg>
