<svg width="109" height="37" viewBox="0 0 109 37" fill="none" xmlns="http://www.w3.org/2000/svg">
<rect width="108.151" height="36.3184" fill="#8667F7"/>
<path d="M8.67476 10.8123C8.59386 10.8395 8.53993 10.9075 8.51296 11.0163C8.48599 11.0979 8.44554 11.1931 8.39161 11.3019C8.39161 11.3291 8.40509 11.3427 8.43206 11.3427C8.24329 11.6691 8.10846 11.9003 8.02756 12.0363C7.94666 12.1723 7.82531 12.4308 7.6635 12.8116C7.63654 12.8932 7.5826 12.9748 7.5017 13.0564C7.44777 13.3828 7.32642 13.7092 7.13765 14.0356C6.97585 14.362 6.84101 14.702 6.73315 15.0556C7.16462 14.6748 7.63654 14.2396 8.14891 13.75C8.66128 13.2332 9.22758 12.8252 9.84782 12.526C9.98266 12.4716 10.104 12.4308 10.2119 12.4036C10.3467 12.3492 10.4681 12.3083 10.5759 12.2811C10.6299 12.2539 10.6703 12.2539 10.6973 12.2811C10.7242 12.2811 10.7647 12.2675 10.8186 12.2403C10.8456 12.2403 10.8591 12.2267 10.8591 12.1995C10.8591 12.1995 10.8726 12.1859 10.8995 12.1587C10.9804 12.1315 11.0748 12.1451 11.1827 12.1995C11.2906 12.2267 11.3984 12.2403 11.5063 12.2403C11.5872 12.2403 11.6681 12.2267 11.749 12.1995C11.8569 12.1723 11.9647 12.1451 12.0726 12.1179C12.2883 12.1723 12.4636 12.2811 12.5984 12.4444C12.7602 12.5804 12.8951 12.7436 13.0029 12.934C13.1378 12.9884 13.2457 13.0292 13.3266 13.0564C13.4075 13.0836 13.4884 13.138 13.5693 13.2196C13.6232 13.2196 13.6097 13.1924 13.5288 13.138C13.4479 13.0564 13.4344 13.002 13.4884 12.9748L14.0142 13.2196C14.0142 13.3556 14.0547 13.4372 14.1356 13.4644C14.1895 13.7364 14.2704 13.9948 14.3783 14.2396C14.4861 14.4572 14.5401 14.7292 14.5401 15.0556C14.5131 15.9805 14.3648 16.8645 14.0951 17.7077C13.8524 18.5237 13.5962 19.2445 13.3266 19.8702C12.6254 21.3934 11.8299 22.7126 10.94 23.8279C10.0501 24.9431 8.95792 25.8815 7.6635 26.6432C7.63654 26.6432 7.62305 26.6296 7.62305 26.6024C7.62305 26.5752 7.60957 26.5616 7.5826 26.5616C7.28597 26.616 7.04326 26.6976 6.8545 26.8064H6.6927C6.47696 26.8608 6.16684 26.8336 5.76234 26.7248C5.3848 26.616 5.08816 26.616 4.87243 26.7248C4.79153 26.5344 4.64321 26.412 4.42748 26.3575C4.23871 26.3303 4.09039 26.2487 3.98252 26.1127C3.98252 26.0855 3.996 26.0719 4.02297 26.0719C4.04994 26.0991 4.07691 26.0991 4.10387 26.0719C4.10387 25.9359 4.04994 25.8543 3.94207 25.8271C3.8342 25.7727 3.76679 25.6775 3.73982 25.5415C3.52408 25.4871 3.40273 25.3511 3.37577 25.1335C3.37577 24.9159 3.3488 24.7255 3.29487 24.5623C3.32183 24.5351 3.3488 24.5351 3.37577 24.5623C3.40273 24.5623 3.4297 24.5487 3.45667 24.5215C3.5106 24.3855 3.52408 24.2767 3.49712 24.1951C3.47015 24.0863 3.4297 23.9367 3.37577 23.7463C3.40273 23.7463 3.4297 23.7599 3.45667 23.7871C3.61847 23.6239 3.80724 23.5287 4.02297 23.5015C4.07691 23.4471 4.09039 23.3791 4.06342 23.2975C4.06342 23.2159 4.11736 23.1751 4.22522 23.1751C4.19826 23.2295 4.17129 23.2703 4.14432 23.2975C4.11736 23.3247 4.13084 23.3655 4.18477 23.4199C4.23871 23.3655 4.29264 23.3383 4.34657 23.3383C4.42748 23.3111 4.46793 23.2567 4.46793 23.1751C4.54883 23.2295 4.58928 23.2839 4.58928 23.3383C4.58928 23.3927 4.61624 23.4471 4.67018 23.5015C4.72411 23.7735 4.80501 23.9911 4.91288 24.1543C5.04771 24.3175 5.19603 24.4671 5.35783 24.6031C5.97807 24.5215 6.46348 24.3039 6.81405 23.9503C6.86798 23.8959 6.86798 23.8687 6.81405 23.8687C6.78708 23.8687 6.7736 23.8415 6.7736 23.7871C7.1781 23.5695 7.51519 23.3383 7.78485 23.0935C8.08149 22.8214 8.36464 22.5358 8.63431 22.2366C8.63431 22.155 8.6478 22.1006 8.67476 22.0734C8.70173 22.0462 8.71521 22.0054 8.71521 21.951C8.95792 21.7334 9.16017 21.4886 9.32197 21.2166C9.48377 20.9174 9.67254 20.6454 9.88827 20.4006L10.2928 19.5846C10.2658 19.4758 10.2793 19.3941 10.3332 19.3397C10.4141 19.2581 10.4815 19.1901 10.5355 19.1357C10.5624 19.1085 10.6029 19.0133 10.6568 18.8501C10.6838 18.8501 10.7108 18.8365 10.7377 18.8093C10.7917 18.6733 10.8321 18.5509 10.8591 18.4421C10.886 18.3333 10.94 18.2517 11.0209 18.1973C11.2366 17.5445 11.4524 16.9189 11.6681 16.3205C11.8838 15.722 12.0052 14.9876 12.0321 14.1172C11.6276 14.226 11.2501 14.43 10.8995 14.7292C10.549 15.0012 10.1984 15.2868 9.84782 15.586C9.52422 15.8308 9.18713 16.1029 8.83656 16.4021C8.48599 16.7013 8.13542 17.0005 7.78485 17.2997C7.21855 17.9253 6.63876 18.5781 6.04549 19.2581C5.45222 19.911 4.85895 20.591 4.26567 21.2982C3.88814 21.9238 3.5106 22.495 3.13306 23.0119C2.75553 23.5287 2.47237 24.1815 2.28361 24.9703C2.22967 25.0519 2.17574 25.1335 2.1218 25.2151C2.06787 25.2967 1.98697 25.3511 1.8791 25.3783C1.8791 25.4327 1.86562 25.4871 1.83865 25.5415C1.81169 25.5687 1.81169 25.6367 1.83865 25.7455C1.78472 25.7999 1.73078 25.8543 1.67685 25.9087C1.62292 25.9631 1.58247 26.0311 1.5555 26.1127C1.42067 26.1127 1.38022 26.0855 1.43415 26.0311C1.46112 25.9767 1.40718 25.9631 1.27235 25.9903C1.24538 26.0175 1.24538 26.0447 1.27235 26.0719C1.27235 26.1263 1.25886 26.1671 1.2319 26.1943C1.04313 26.2215 0.962228 26.1807 0.989195 26.0719C0.989195 25.9903 0.935261 26.0039 0.827394 26.1127C0.77346 26.0855 0.733009 26.0447 0.706043 25.9903C0.652109 25.9087 0.598175 25.8407 0.544241 25.7863C0.490307 25.6503 0.449857 25.5415 0.42289 25.4599C0.368956 25.3783 0.355473 25.2695 0.38244 25.1335L0.0588369 24.8479C-0.0490307 24.2223 -0.00858041 23.6783 0.180188 23.2159C0.368956 22.7534 0.557725 22.2638 0.746493 21.747C0.881327 21.2846 1.02965 20.863 1.19145 20.4822C1.35325 20.0742 1.52853 19.6662 1.7173 19.2581C1.8791 18.9589 2.02742 18.6597 2.16226 18.3605C2.27012 18.0341 2.39147 17.6941 2.52631 17.3405C2.63418 17.1229 2.72856 16.9053 2.80946 16.6877C2.91733 16.4429 3.0252 16.1709 3.13306 15.8717C3.24093 15.7628 3.30835 15.6676 3.33532 15.586C3.33532 15.5588 3.33532 15.5452 3.33532 15.5452C3.36228 15.518 3.37577 15.4772 3.37577 15.4228C3.5915 14.8516 3.82072 14.2804 4.06342 13.7092C4.33309 13.138 4.60276 12.5804 4.87243 12.0363C4.95333 11.7643 5.0612 11.5059 5.19603 11.2611C5.33087 10.9891 5.4657 10.7035 5.60054 10.4043C5.65447 10.2683 5.7084 10.1595 5.76234 10.0779C5.81627 9.96908 5.82975 9.84668 5.80279 9.71068L6.04549 9.38427C6.07246 9.32986 6.07246 9.27546 6.04549 9.22106C6.04549 9.16666 6.05897 9.11226 6.08594 9.05786L6.28819 8.93545C6.28819 8.88105 6.31516 8.77225 6.36909 8.60904C6.42303 8.50024 6.46348 8.41864 6.49044 8.36424C6.54438 8.28264 6.58483 8.21463 6.61179 8.16023C6.61179 8.07863 6.62528 8.02423 6.65224 7.99703C6.67921 7.96983 6.67921 7.95623 6.65224 7.95623C6.65224 7.95623 6.66573 7.92903 6.6927 7.87462C6.7736 7.79302 6.81405 7.73862 6.81405 7.71142C6.84101 7.68422 6.8545 7.61622 6.8545 7.50741C6.90843 7.42581 6.94888 7.33061 6.97585 7.22181C7.02978 7.113 7.08372 7.0314 7.13765 6.977C7.19158 6.84099 7.24552 6.73219 7.29945 6.65059C7.35338 6.54179 7.40732 6.46018 7.46125 6.40578C7.51519 6.18818 7.59609 6.05217 7.70395 5.99777C7.70395 5.97057 7.71744 5.94337 7.7444 5.91617C7.77137 5.88897 7.78485 5.86177 7.78485 5.83457C8.02756 5.37215 8.25678 4.85534 8.47251 4.28412C8.68825 3.68571 8.9714 3.15529 9.32197 2.69288C9.3759 2.63848 9.38939 2.61127 9.36242 2.61127C9.36242 2.61127 9.36242 2.59767 9.36242 2.57047C9.47029 2.46167 9.56467 2.29847 9.64557 2.08086C9.75344 1.83605 9.87479 1.61845 10.0096 1.42804C10.1714 1.23764 10.3332 1.10163 10.495 1.02003C10.6838 0.911226 10.913 0.938428 11.1827 1.10163C11.2366 1.07443 11.2501 1.08803 11.2231 1.14243C11.2231 1.16963 11.2231 1.19683 11.2231 1.22403C11.2501 1.25124 11.2906 1.25124 11.3445 1.22403C11.3984 1.19683 11.4524 1.16963 11.5063 1.14243C11.5063 1.16963 11.4793 1.19683 11.4254 1.22403C11.3984 1.22403 11.3984 1.23763 11.4254 1.26484C11.6411 1.29204 11.749 1.31924 11.749 1.34644C11.749 1.37364 11.8569 1.40084 12.0726 1.42804C12.0456 1.56405 12.0996 1.67285 12.2344 1.75445C12.3962 1.80885 12.5041 1.87685 12.558 1.95845C12.6928 2.28486 12.7063 2.52967 12.5984 2.69288C12.5175 2.82888 12.4232 2.96488 12.3153 3.10089C12.3423 3.15529 12.3153 3.20969 12.2344 3.26409C12.1805 3.29129 12.1265 3.33209 12.0726 3.3865C12.0996 3.5225 12.0726 3.6313 11.9917 3.71291C11.9108 3.76731 11.8973 3.87611 11.9512 4.03931C11.8434 4.01211 11.749 4.10732 11.6681 4.32492C11.5872 4.54253 11.5198 4.66493 11.4658 4.69213C11.4658 4.77374 11.4524 4.82814 11.4254 4.85534C11.3984 4.88254 11.4119 4.93694 11.4658 5.01854C11.4119 5.12735 11.3175 5.23615 11.1827 5.34495C11.0748 5.42655 11.0209 5.53536 11.0209 5.67136C11.0209 5.64416 10.9939 5.64416 10.94 5.67136C10.8591 5.88897 10.8456 6.03857 10.8995 6.12017C10.7917 6.17458 10.6973 6.20178 10.6164 6.20178C10.6164 6.25618 10.6029 6.29698 10.5759 6.32418C10.5759 6.35138 10.5894 6.39218 10.6164 6.44658C10.5355 6.47378 10.495 6.52819 10.495 6.60979C10.495 6.66419 10.4681 6.70499 10.4141 6.73219C10.4141 6.9226 10.3602 7.045 10.2523 7.0994C10.3063 7.23541 10.2793 7.38501 10.1714 7.54821C10.0905 7.71142 10.0501 7.88822 10.0501 8.07863C10.0231 8.10583 9.96917 8.14663 9.88827 8.20103C9.83434 8.25543 9.82086 8.29624 9.84782 8.32344C9.79389 8.45944 9.71299 8.59544 9.60512 8.73145C9.52422 8.86745 9.48377 9.00346 9.48377 9.13946C9.40287 9.38427 9.295 9.60187 9.16017 9.79228C9.0523 9.95548 8.9714 10.1867 8.91746 10.4859L8.75566 10.6083C8.70173 10.6627 8.67476 10.7035 8.67476 10.7307C8.70173 10.7307 8.70173 10.7579 8.67476 10.8123ZM5.11513 18.4829C5.27693 18.2109 5.5466 17.8573 5.92414 17.4221C6.32864 16.9869 6.76011 16.5517 7.21855 16.1165C7.67699 15.654 8.12194 15.2324 8.55341 14.8516C9.01185 14.4708 9.38939 14.1852 9.68602 13.9948V13.954C8.85005 14.6068 8.16239 15.1508 7.62305 15.586C7.11068 15.9941 6.67921 16.3613 6.32864 16.6877C6.00504 16.9869 5.74885 17.2725 5.56009 17.5445C5.37132 17.8165 5.223 18.1293 5.11513 18.4829ZM9.28152 13.138C9.22758 13.1924 9.16017 13.2196 9.07927 13.2196C8.99837 13.2196 8.94443 13.2468 8.91746 13.3012C8.56689 13.6004 8.20284 13.9132 7.8253 14.2396C7.47474 14.566 7.19158 14.8652 6.97585 15.1372C7.08371 15.0828 7.16462 15.0148 7.21855 14.9332C7.29945 14.8516 7.38035 14.7564 7.46125 14.6476C7.56912 14.5116 7.67699 14.4028 7.78485 14.3212C7.89272 14.2396 8.01407 14.158 8.14891 14.0764C8.25678 13.9948 8.35116 13.9132 8.43206 13.8316C8.53993 13.75 8.62083 13.6548 8.67476 13.546C8.75566 13.546 8.8096 13.5324 8.83656 13.5052C8.86353 13.478 8.90398 13.4372 8.95792 13.3828C9.06578 13.3556 9.16017 13.3148 9.24107 13.2604C9.32197 13.206 9.38939 13.1516 9.44332 13.0972C9.49725 13.0428 9.55119 13.002 9.60512 12.9748C9.68602 12.9204 9.73995 12.8388 9.76692 12.73C9.63209 12.7844 9.5377 12.8524 9.48377 12.934C9.42984 13.0156 9.36242 13.0836 9.28152 13.138ZM13.4075 12.934C13.3535 12.9612 13.2726 12.9476 13.1648 12.8932C13.0839 12.8388 13.003 12.7844 12.922 12.73C13.0569 12.6756 13.1513 12.6892 13.2052 12.7708C13.2861 12.8524 13.3535 12.9068 13.4075 12.934ZM6.65224 15.5044C6.78708 15.4228 6.84101 15.3412 6.81405 15.2596C6.78708 15.314 6.74663 15.3548 6.6927 15.382C6.66573 15.4092 6.65224 15.45 6.65224 15.5044ZM9.80737 12.73C9.80737 12.7572 9.82086 12.7708 9.84782 12.7708L9.88827 12.73V12.6484C9.83434 12.6484 9.80737 12.6756 9.80737 12.73ZM8.14891 15.0556C8.17588 15.0284 8.18936 15.0148 8.18936 15.0148C8.21632 15.0148 8.24329 14.9876 8.27026 14.9332C8.18936 15.0148 8.14891 15.0556 8.14891 15.0556Z" transform="translate(7.2583 3.63184)" fill="white"/>
<path d="M23.7586 16.9733C23.7586 16.9733 23.7721 16.9869 23.7991 17.0141L24.1227 16.7693C24.4733 16.3885 24.8238 15.9941 25.1744 15.586C25.525 15.178 25.8486 14.77 26.1452 14.362C26.28 14.3076 26.3744 14.226 26.4284 14.1172C26.5093 14.0084 26.6441 13.9812 26.8329 14.0356C26.9677 13.9812 27.0756 13.886 27.1565 13.75C27.2374 13.5868 27.3318 13.478 27.4396 13.4236C27.6014 13.4236 27.6958 13.41 27.7228 13.3828C27.7767 13.41 27.7632 13.4916 27.6823 13.6276C27.6014 13.7364 27.507 13.8588 27.3992 13.9948C27.3183 14.1036 27.2509 14.2124 27.1969 14.3212C27.143 14.43 27.1565 14.4708 27.2374 14.4436C27.2913 14.4436 27.3452 14.4164 27.3992 14.362C27.4531 14.3076 27.534 14.2804 27.6419 14.2804C27.7228 14.2532 27.7767 14.2532 27.8037 14.2804C27.8576 14.3076 27.9115 14.294 27.9655 14.2396C27.9385 14.3212 27.8981 14.4164 27.8441 14.5252C27.8172 14.6068 27.8037 14.6884 27.8037 14.77C27.8037 14.7972 27.8576 14.8108 27.9655 14.8108C27.9385 14.974 27.8846 15.1236 27.8037 15.2596C27.7228 15.3956 27.6554 15.5316 27.6014 15.6676C27.3048 16.0757 27.0351 16.4293 26.7924 16.7285C26.5497 17.0277 26.307 17.3133 26.0643 17.5853C25.8486 17.8573 25.6059 18.1429 25.3362 18.4421C25.0935 18.7141 24.8103 19.0541 24.4867 19.4622C24.4328 19.4894 24.4058 19.5166 24.4058 19.5438C24.4058 19.5438 24.3789 19.5438 24.3249 19.5438C23.6777 20.4958 23.017 21.407 22.3429 22.2774C21.6687 23.1207 20.9271 23.9095 20.1181 24.6439L20.0777 24.8071C20.0507 24.8343 20.0102 24.9159 19.9563 25.0519C19.7406 25.2423 19.5113 25.4191 19.2686 25.5823C19.0259 25.7183 18.8102 25.8951 18.6214 26.1127C18.5945 26.1399 18.6214 26.1535 18.7023 26.1535C18.5405 26.3712 18.2574 26.5208 17.8529 26.6024C17.4753 26.684 17.1248 26.7384 16.8012 26.7656C16.3427 26.82 15.8708 26.7928 15.3854 26.684C14.927 26.5752 14.6034 26.3711 14.4146 26.0719C14.1449 25.9631 13.9157 25.7455 13.7269 25.4191C13.5651 24.9839 13.4842 24.5351 13.4842 24.0727C13.4842 23.5831 13.5382 23.1071 13.646 22.6446C13.7269 22.155 13.8483 21.679 14.0101 21.2166C14.1719 20.7542 14.3472 20.319 14.536 19.911C14.6169 19.6934 14.6843 19.4894 14.7382 19.299C14.7921 19.1085 14.873 18.9045 14.9809 18.6869C15.2775 17.9797 15.6281 17.2725 16.0326 16.5653C16.4371 15.8581 16.8012 15.178 17.1248 14.5252L18.0147 12.8524C18.2035 12.5532 18.3787 12.2947 18.5405 12.0771C18.7293 11.8323 18.8776 11.5739 18.9855 11.3019V11.1795C19.2282 11.1795 19.4035 11.0435 19.5114 10.7715C19.5653 10.7443 19.6327 10.7307 19.7136 10.7307C19.8215 10.7307 19.9024 10.7035 19.9563 10.6491C20.226 10.6763 20.4687 10.7443 20.6844 10.8531C20.9271 10.9347 21.1428 11.0299 21.3316 11.1387C21.3855 11.2747 21.4934 11.3971 21.6552 11.5059C21.844 11.5875 21.9249 11.7371 21.8979 11.9547C21.8979 11.9819 21.844 12.0771 21.7361 12.2403C21.7092 12.2947 21.6957 12.3356 21.6957 12.3628C21.7226 12.39 21.7226 12.4308 21.6957 12.4852C21.6957 12.5668 21.6552 12.6076 21.5743 12.6076V12.8932L21.2912 13.6684C21.2912 13.7228 21.2912 13.75 21.2912 13.75C21.3181 13.7228 21.3316 13.7364 21.3316 13.7908C21.1968 13.818 21.1024 13.8996 21.0485 14.0356C21.0215 14.1444 20.9676 14.226 20.8867 14.2804C20.8867 14.362 20.8867 14.4028 20.8867 14.4028C20.7788 14.43 20.7114 14.4844 20.6844 14.566C20.6844 14.6204 20.6709 14.6748 20.644 14.7292C20.4822 14.9468 20.3473 15.1644 20.2395 15.382C20.1586 15.5996 20.0642 15.8036 19.9563 15.9941C19.9024 16.0757 19.8754 16.1301 19.8754 16.1573C19.9024 16.1573 19.8889 16.1845 19.835 16.2389C19.835 16.2661 19.7945 16.2797 19.7136 16.2797C19.6866 16.3885 19.6462 16.4837 19.5922 16.5653C19.5653 16.6197 19.5518 16.7149 19.5518 16.8509C19.417 16.9869 19.3091 17.1773 19.2282 17.4221C19.1473 17.6397 19.0394 17.8165 18.9046 17.9525C18.6889 18.4149 18.5136 18.8637 18.3787 19.299C18.163 19.7342 17.9338 20.1558 17.6911 20.5638C17.4753 20.9718 17.2866 21.3798 17.1248 21.7878L16.963 22.6038C16.8551 22.8759 16.7607 23.1615 16.6798 23.4607C16.5989 23.7599 16.572 24.0727 16.5989 24.3991C17.0304 24.2087 17.4079 23.9231 17.7315 23.5423C18.2169 23.1343 18.7023 22.6854 19.1877 22.1958C19.6732 21.679 20.1451 21.1622 20.6035 20.6454C20.6574 20.6182 20.6844 20.6046 20.6844 20.6046C20.7114 20.5774 20.7518 20.5638 20.8058 20.5638C20.9676 20.3462 21.1294 20.1286 21.2912 19.911C21.453 19.6934 21.6417 19.4758 21.8575 19.2581C22.0193 19.1493 22.1541 19.0269 22.262 18.8909C22.3698 18.7277 22.4777 18.5509 22.5856 18.3605C22.6395 18.3061 22.6934 18.2653 22.7474 18.2381C22.8283 18.1837 22.8957 18.1293 22.9496 18.0749C23.0575 17.8573 23.1923 17.6805 23.3541 17.5445C23.5429 17.3813 23.6777 17.1909 23.7586 16.9733ZM22.9092 7.79302C22.8283 7.84742 22.7474 7.92903 22.6665 8.03783C22.5316 8.03783 22.4103 8.03783 22.3024 8.03783C22.1946 8.03783 22.0732 8.06503 21.9384 8.11943C21.9114 8.11943 21.8979 8.14663 21.8979 8.20103L21.7361 8.07863V7.83382C21.5743 7.88822 21.4934 7.96983 21.4934 8.07863C21.4395 8.07863 21.426 8.05143 21.453 7.99703C21.5069 7.91543 21.5069 7.86102 21.453 7.83382C21.399 7.86102 21.3586 7.90182 21.3316 7.95623C21.3316 7.98343 21.3046 7.99703 21.2507 7.99703V7.83382C21.1968 7.83382 21.1698 7.84742 21.1698 7.87462C21.2237 7.49381 21.0619 7.30341 20.6844 7.30341C20.6844 7.1674 20.6574 7.0994 20.6035 7.0994C20.6035 6.63699 20.7114 6.16097 20.9271 5.67136C20.981 5.61696 21.008 5.57616 21.008 5.54896C21.008 5.49456 21.0215 5.45375 21.0485 5.42655C21.1294 5.37215 21.2103 5.31775 21.2912 5.26335C21.399 5.18175 21.453 5.07294 21.453 4.93694C21.4799 4.96414 21.5473 4.97774 21.6552 4.97774C21.7092 4.92334 21.7901 4.84174 21.8979 4.73293C22.0058 4.62413 22.0867 4.63773 22.1406 4.77374C22.1946 4.80094 22.208 4.80094 22.1811 4.77374C22.1811 4.74653 22.1946 4.73293 22.2215 4.73293C22.2755 4.78733 22.3294 4.81454 22.3833 4.81454C22.4103 4.73293 22.4777 4.67853 22.5856 4.65133C22.7204 4.62413 22.8552 4.63773 22.9901 4.69213C22.9901 4.74653 22.9631 4.78734 22.9092 4.81454C22.8822 4.81454 22.8822 4.84174 22.9092 4.89614C23.2597 4.89614 23.489 4.81454 23.5968 4.65133C23.5968 4.73293 23.6103 4.80094 23.6373 4.85534C23.6912 4.88254 23.7317 4.92334 23.7586 4.97774C23.7047 5.00494 23.6777 5.05934 23.6777 5.14095C23.7047 5.22255 23.7452 5.29055 23.7991 5.34495C23.907 5.29055 24.0283 5.30415 24.1631 5.38575C24.3249 5.46735 24.4058 5.57616 24.4058 5.71216C24.4058 5.73936 24.4328 5.75296 24.4867 5.75296C24.4867 5.80737 24.4867 5.84817 24.4867 5.87537C24.5137 5.87537 24.5272 5.90257 24.5272 5.95697C24.5002 5.90257 24.4733 5.87537 24.4463 5.87537C24.3924 5.98417 24.3384 6.09297 24.2845 6.20178C24.2575 6.31058 24.1901 6.41938 24.0822 6.52819C24.0822 6.55539 24.1092 6.56899 24.1631 6.56899C24.2171 6.56899 24.244 6.58259 24.244 6.60979C24.244 6.60979 24.1766 6.60979 24.0418 6.60979C23.88 6.82739 23.6912 7.045 23.4755 7.26261C23.2597 7.45301 23.0845 7.69782 22.9496 7.99703C22.8957 7.99703 22.8687 8.01063 22.8687 8.03783C22.8687 8.03783 22.8418 8.03783 22.7878 8.03783C22.8687 7.95623 22.9092 7.87462 22.9092 7.79302ZM21.7766 12.6892C21.7766 12.7164 21.7631 12.7436 21.7361 12.7708C21.7361 12.7708 21.7361 12.798 21.7361 12.8524C21.6822 12.8796 21.6687 12.8524 21.6957 12.7708C21.7226 12.6892 21.7496 12.662 21.7766 12.6892Z" transform="translate(7.2583 3.63184)" fill="white"/>
<path d="M39.4951 17.4629C39.7917 17.1093 40.0209 16.7013 40.1827 16.2389C40.3715 15.7764 40.5872 15.3548 40.83 14.974C40.803 15.11 40.7625 15.246 40.7086 15.382C40.6816 15.4908 40.6547 15.6132 40.6277 15.7492C40.6277 15.7492 40.6412 15.7492 40.6681 15.7492C40.6681 15.8853 40.6412 16.0213 40.5872 16.1573C40.5333 16.2933 40.4794 16.4429 40.4254 16.6061C40.5063 16.5517 40.5603 16.4837 40.5872 16.4021C40.6142 16.3205 40.6547 16.2389 40.7086 16.1573C40.7356 16.2933 40.7086 16.4021 40.6277 16.4837C40.5738 16.5653 40.5333 16.6741 40.5064 16.8101C40.5872 16.7013 40.6547 16.5925 40.7086 16.4837C40.7625 16.3477 40.8165 16.2117 40.8704 16.0757C40.9243 16.1301 40.9243 16.1845 40.8704 16.2389C40.8165 16.2933 40.8165 16.3341 40.8704 16.3613C40.8974 16.4157 40.9109 16.4157 40.9109 16.3613C40.9109 16.3069 40.9378 16.2797 40.9918 16.2797C40.9109 16.6061 40.7895 16.9053 40.6277 17.1773C40.4929 17.4221 40.3715 17.6941 40.2636 17.9933C40.2636 17.9933 40.2771 17.9933 40.3041 17.9933C40.0075 18.7549 39.6434 19.4758 39.2119 20.1558C38.8074 20.8086 38.4029 21.4614 37.9984 22.1142C37.9175 22.2774 37.8231 22.427 37.7153 22.563C37.6074 22.6718 37.4861 22.7942 37.3512 22.9303C37.3243 23.1751 37.2164 23.3383 37.0276 23.4199C37.0276 23.5287 36.9737 23.6103 36.8658 23.6647C36.7849 23.6919 36.731 23.7599 36.704 23.8687C36.4883 24.0319 36.2995 24.2087 36.1377 24.3991C36.0029 24.5623 35.8276 24.7119 35.6119 24.8479L35.4501 25.0519C35.0725 25.2695 34.7219 25.5143 34.3983 25.7863C34.1017 26.0311 33.7377 26.2215 33.3062 26.3575C33.2792 26.412 33.2792 26.4392 33.3062 26.4392C33.3332 26.4392 33.3332 26.4664 33.3062 26.5208C33.1983 26.6296 33.05 26.6704 32.8612 26.6432C32.6994 26.6432 32.5511 26.684 32.4163 26.7656H32.3758C32.241 26.7656 32.1062 26.7792 31.9713 26.8064C31.8365 26.8336 31.7017 26.8608 31.5668 26.888C31.5668 26.888 31.5803 26.9016 31.6073 26.9288C31.3915 26.9288 31.2837 26.888 31.2837 26.8064C31.2297 26.7792 31.2028 26.7792 31.2028 26.8064C31.2028 26.8336 31.1758 26.8472 31.1219 26.8472V26.7656C30.9061 26.82 30.6904 26.8064 30.4747 26.7248C30.2589 26.6432 30.0432 26.5752 29.8275 26.5208C29.6926 26.3575 29.5308 26.2215 29.342 26.1127C29.1802 26.0039 28.9915 25.8815 28.7757 25.7455C28.8297 25.7183 28.8836 25.7455 28.9375 25.8271C28.9915 25.8815 29.0724 25.9223 29.1802 25.9495C29.1263 25.8679 29.0589 25.7863 28.978 25.7047C28.8971 25.5959 28.8162 25.5143 28.7353 25.4599C28.4656 25.0791 28.2634 24.7391 28.1285 24.4399C27.9937 24.1135 27.8724 23.6919 27.7645 23.1751C27.7106 22.9847 27.6701 22.8623 27.6431 22.8078C27.6162 22.7262 27.6297 22.6038 27.6836 22.4406C27.6297 22.0598 27.5757 21.679 27.5218 21.2982C27.4948 20.8902 27.4544 20.4822 27.4004 20.0742C26.8881 20.7542 26.4161 21.4614 25.9847 22.1958C25.5532 22.9303 25.1217 23.6783 24.6903 24.4399C24.6903 24.5759 24.6768 24.6983 24.6498 24.8071C24.5689 24.8887 24.5285 24.9975 24.5285 25.1335C24.5824 25.1335 24.5959 25.1199 24.5689 25.0927C24.5419 25.0383 24.5554 25.0111 24.6094 25.0111C24.6363 25.0383 24.6363 25.0791 24.6094 25.1335C24.6094 25.1607 24.6094 25.2015 24.6094 25.2559C24.5824 25.2559 24.5689 25.2559 24.5689 25.2559C24.5689 25.2287 24.5554 25.2151 24.5285 25.2151C24.5285 25.2151 24.5285 25.2831 24.5285 25.4191C24.5824 25.3647 24.5959 25.3511 24.5689 25.3783C24.5689 25.3783 24.5824 25.4191 24.6094 25.5007H24.488C24.4341 25.6095 24.4071 25.6911 24.4071 25.7455C24.4071 25.7999 24.3936 25.8679 24.3667 25.9495C24.3397 25.8951 24.2992 25.8815 24.2453 25.9087C24.2183 25.9087 24.2049 25.9359 24.2049 25.9903C24.1779 25.9631 24.097 25.9223 23.9622 25.8679C23.8813 25.9223 23.8678 25.9767 23.9217 26.0311C23.8138 26.0855 23.7195 26.0855 23.6385 26.0311C23.5576 25.9767 23.4767 25.9767 23.3958 26.0311C23.3958 26.0855 23.4093 26.1127 23.4363 26.1127C23.4633 26.1127 23.4902 26.1399 23.5172 26.1943C23.5172 26.2759 23.4902 26.3303 23.4363 26.3575C23.3824 26.3848 23.3419 26.4392 23.3149 26.5208C23.1801 26.4392 23.0857 26.3575 23.0318 26.2759C22.9509 26.3303 22.8835 26.412 22.8295 26.5208C22.8026 26.6568 22.7352 26.6976 22.6273 26.6432C22.7621 26.5888 22.8161 26.5072 22.7891 26.3983C22.87 26.3711 22.9374 26.2759 22.9913 26.1127C22.9104 26.0855 22.87 26.1399 22.87 26.2759C22.8161 26.2215 22.7756 26.1671 22.7486 26.1127C22.6947 26.0855 22.6543 26.0447 22.6273 25.9903C22.5734 26.0447 22.5329 26.0991 22.5059 26.1535C22.479 26.2079 22.3981 26.2351 22.2632 26.2351C22.2093 26.1263 22.2228 26.0311 22.3037 25.9495C22.1958 25.8951 22.1014 25.8815 22.0205 25.9087C21.9127 25.9359 21.8183 25.9223 21.7374 25.8679C21.5756 25.5687 21.4947 25.2287 21.4947 24.8479C21.4947 24.4399 21.5216 24.0727 21.5756 23.7463L21.6969 23.3383L21.7778 22.8895C21.8587 22.6446 21.9396 22.3862 22.0205 22.1142C22.0745 21.815 22.1419 21.5158 22.2228 21.2166C22.4116 20.6726 22.6003 20.1422 22.7891 19.6254C22.9779 19.0813 23.1666 18.5373 23.3554 17.9933C23.6251 17.2861 23.8947 16.5789 24.1644 15.8717C24.461 15.1372 24.7712 14.43 25.0948 13.75C25.0948 13.6956 25.0813 13.6684 25.0543 13.6684C25.0543 13.6684 25.0543 13.6412 25.0543 13.5868C25.1082 13.5596 25.1352 13.5324 25.1352 13.5052C25.1352 13.478 25.1622 13.4508 25.2161 13.4236C25.5937 12.3628 26.0386 11.3699 26.551 10.4451C27.0903 9.49307 27.5892 8.52744 28.0476 7.54821C28.0476 7.49381 28.0476 7.49381 28.0476 7.54821C28.0476 7.57542 28.0342 7.57542 28.0072 7.54821C28.169 7.1946 28.2903 6.85459 28.3712 6.52819C28.4791 6.17458 28.6139 5.80736 28.7757 5.42655C28.7488 5.56256 28.7353 5.69856 28.7353 5.83457C28.7623 5.94337 28.7488 6.05217 28.6948 6.16097C28.8297 5.94337 28.9241 5.72576 28.978 5.50816C29.0319 5.26335 29.1263 4.99134 29.2612 4.69213C29.6387 4.06652 30.0297 3.4001 30.4342 2.69288C30.8657 1.95845 31.2028 1.19683 31.4455 0.408011V0.204006C31.4724 0.231206 31.5129 0.231206 31.5668 0.204006C31.6477 0.176805 31.7286 0.163205 31.8095 0.163205C31.7556 0.272008 31.7286 0.367211 31.7286 0.448812C31.7826 0.448812 31.8095 0.435212 31.8095 0.408011C31.8365 0.35361 31.8635 0.299209 31.8904 0.244806C31.9174 0.244806 31.9174 0.258406 31.8904 0.285607C31.8904 0.285607 31.9039 0.285607 31.9309 0.285607C31.9578 0.231206 31.9713 0.190405 31.9713 0.163205C31.9713 0.136005 31.9983 0.149605 32.0522 0.204006C32.0792 0.176805 32.1062 0.163205 32.1331 0.163205C32.1601 0.136005 32.1871 0.0952031 32.214 0.0408006C32.268 0.0408006 32.3219 0.0544008 32.3758 0.0816013C32.3489 0.163204 32.3623 0.231206 32.4163 0.285607C32.605 0.340009 32.7129 0.312809 32.7399 0.204006C32.7938 0.0680019 32.9152 0 33.1039 0C33.077 0.108803 33.0905 0.204006 33.1444 0.285607C33.2253 0.36721 33.3062 0.448813 33.3871 0.530416C33.495 0.584816 33.5893 0.652818 33.6702 0.734421C33.7511 0.816024 33.7916 0.924827 33.7916 1.06083C33.7916 1.11523 33.7916 1.14243 33.7916 1.14243C33.7916 1.11523 33.7646 1.12883 33.7107 1.18323C33.6028 1.78165 33.441 2.32567 33.2253 2.81528C33.0365 3.30489 32.8343 3.80811 32.6185 4.32492C31.8635 6.17458 31.0949 8.01063 30.3129 9.83308C29.5308 11.6283 28.7488 13.4236 27.9667 15.2188C28.0207 15.246 28.0611 15.2324 28.0881 15.178C28.1151 15.0964 28.1555 15.0692 28.2094 15.0964C28.1555 15.1508 28.1285 15.2052 28.1285 15.2596C28.1555 15.2868 28.142 15.3412 28.0881 15.4228C28.2229 15.2868 28.3308 15.1644 28.4117 15.0556C28.5196 14.9468 28.6139 14.8244 28.6948 14.6884C28.9915 14.3076 29.2746 13.9404 29.5443 13.5868C29.8409 13.206 30.1511 12.8252 30.4747 12.4444C30.5286 12.4444 30.5825 12.39 30.6365 12.2811C30.7983 12.1723 30.9601 12.0091 31.1219 11.7915C31.0949 11.7643 31.0814 11.7643 31.0814 11.7915C31.0814 11.8187 31.0679 11.8323 31.041 11.8323C31.014 11.7779 31.014 11.7371 31.041 11.7099C31.0949 11.6827 31.1353 11.6555 31.1623 11.6283C31.2162 11.6283 31.2162 11.6419 31.1623 11.6691C31.1353 11.6691 31.1219 11.6963 31.1219 11.7507C31.5803 11.3427 32.0387 10.9347 32.4972 10.5267C32.9556 10.1187 33.495 9.77868 34.1152 9.50667C34.1422 9.47947 34.1287 9.47947 34.0747 9.50667C34.0478 9.50667 34.0478 9.47947 34.0747 9.42507C34.3714 9.34346 34.668 9.27546 34.9646 9.22106C35.2613 9.13946 35.5444 9.11226 35.8141 9.13946C36.0568 9.13946 36.2591 9.15306 36.4209 9.18026C36.6096 9.18026 36.7714 9.28906 36.9063 9.50667C36.9602 9.50667 36.9737 9.49307 36.9467 9.46587C36.9467 9.43867 36.9602 9.42507 36.9872 9.42507C36.9872 9.42507 36.9872 9.45227 36.9872 9.50667C37.0681 9.58827 37.149 9.66987 37.2299 9.75148C37.3108 9.83308 37.3647 9.94188 37.3917 10.0779C37.3917 10.0779 37.4052 10.0643 37.4321 10.0371C37.4591 10.0643 37.4591 10.1187 37.4321 10.2003C37.4321 10.2547 37.4591 10.2819 37.513 10.2819C37.54 10.8531 37.4456 11.3699 37.2299 11.8323C37.2029 11.8595 37.2029 11.8867 37.2299 11.9139C37.2568 11.9411 37.2568 11.9683 37.2299 11.9955L36.7445 12.9748C36.286 13.8724 35.7737 14.7292 35.2074 15.5452C34.641 16.3341 34.0478 17.0957 33.4275 17.8301C33.1579 18.0205 32.9017 18.2245 32.659 18.4421C32.4163 18.6597 32.1736 18.8501 31.9309 19.0133C31.9309 19.0677 31.9039 19.1085 31.85 19.1357C31.823 19.1357 31.8095 19.1629 31.8095 19.2173C31.7556 19.2445 31.7421 19.2581 31.7691 19.2581C31.796 19.2309 31.796 19.2037 31.7691 19.1765C31.6882 19.2037 31.6342 19.2445 31.6073 19.299C31.6073 19.3534 31.5668 19.3806 31.4859 19.3806C31.432 19.435 31.405 19.4214 31.405 19.3397C31.2702 19.4486 31.1084 19.5438 30.9196 19.6254C30.7578 19.6798 30.6095 19.775 30.4747 19.911C30.4747 19.8838 30.4342 19.8702 30.3533 19.8702C30.2994 19.9246 30.2859 19.9654 30.3129 19.9926C30.3668 19.9926 30.3938 20.0198 30.3938 20.0742C30.3129 20.047 30.2724 19.9926 30.2724 19.911C30.1376 19.911 29.9893 19.9382 29.8275 19.9926C29.6657 20.047 29.5713 20.0062 29.5443 19.8702C29.5173 19.8974 29.5039 19.9518 29.5039 20.0334C29.5308 20.0062 29.5578 19.9926 29.5848 19.9926C29.5848 20.0198 29.5578 20.0334 29.5039 20.0334C29.6387 20.9582 29.7735 21.883 29.9084 22.8078C30.0432 23.7055 30.3398 24.4671 30.7983 25.0927C30.9061 25.2831 31.0814 25.3511 31.3241 25.2967C31.6747 25.2423 31.9713 25.1471 32.214 25.0111C32.4567 24.8751 32.6859 24.6983 32.9017 24.4807C33.1983 24.2631 33.468 24.0319 33.7107 23.7871C33.9534 23.5151 34.1961 23.2295 34.4388 22.9303C34.6006 22.8759 34.7219 22.767 34.8028 22.6038C34.8837 22.4406 34.9916 22.291 35.1265 22.155L35.5714 21.6654C35.6253 21.5838 35.6793 21.4886 35.7332 21.3798C35.8141 21.2438 35.9085 21.1214 36.0164 21.0126C36.0703 20.9582 36.1107 20.9174 36.1377 20.8902C36.1916 20.863 36.2321 20.8222 36.2591 20.7678C36.313 20.6862 36.3669 20.6046 36.4209 20.523C36.4748 20.4142 36.5287 20.3054 36.5827 20.1966C36.6636 20.0606 36.7445 19.9382 36.8254 19.8294C36.9332 19.7206 37.0276 19.5846 37.1085 19.4214L37.3108 19.1765V19.0949C37.3647 19.0133 37.4186 18.9453 37.4726 18.8909C37.5535 18.8093 37.6209 18.7277 37.6748 18.6461L38.1198 17.7485C38.1198 17.8029 38.0928 17.8845 38.0389 17.9933C37.9849 18.0749 37.9445 18.1565 37.9175 18.2381C38.1872 17.9389 38.4164 17.6125 38.6052 17.2589C38.7939 16.8781 38.9962 16.5109 39.2119 16.1573C39.3468 16.1301 39.4277 16.0757 39.4546 15.9941C39.5086 15.9125 39.5625 15.8445 39.6164 15.79C39.5625 16.0621 39.4681 16.2933 39.3333 16.4837C39.2254 16.6741 39.1445 16.8917 39.0906 17.1365C39.1445 17.1637 39.185 17.1229 39.2119 17.0141C39.2659 16.9053 39.3198 16.8237 39.3737 16.7693C39.3737 16.8237 39.3603 16.8917 39.3333 16.9733C39.3063 17.0549 39.2794 17.1229 39.2524 17.1773H39.2928C39.2659 17.2861 39.2254 17.4221 39.1715 17.5853C39.1176 17.7213 39.0636 17.8709 39.0097 18.0341C39.0906 17.9797 39.1445 17.9117 39.1715 17.8301C39.2254 17.7485 39.2928 17.6805 39.3737 17.6261C39.3737 17.5717 39.3737 17.5445 39.3737 17.5445C39.3737 17.5173 39.4142 17.5037 39.4951 17.5037V17.4629ZM30.4747 15.7084C30.2589 15.9805 30.0432 16.2525 29.8275 16.5245C29.6387 16.7965 29.4634 17.0821 29.3016 17.3813C29.3286 17.5173 29.342 17.6805 29.342 17.8709C29.342 18.0341 29.4095 18.1293 29.5443 18.1565C29.5443 18.2109 29.5443 18.2653 29.5443 18.3197C29.5713 18.3469 29.5848 18.3877 29.5848 18.4421C29.7196 18.3877 29.8679 18.3197 30.0297 18.2381C30.1915 18.1293 30.2994 17.9797 30.3533 17.7893C30.5421 17.6261 30.6769 17.4629 30.7578 17.2997C31.0005 17.1093 31.1893 16.9053 31.3241 16.6877C31.4859 16.4429 31.6747 16.2117 31.8904 15.9941C32.1331 15.6132 32.3758 15.246 32.6185 14.8924C32.8882 14.5388 33.1309 14.158 33.3466 13.75C33.5893 13.342 33.8186 12.934 34.0343 12.526C34.277 12.1179 34.4792 11.6963 34.641 11.2611V11.2203C33.859 11.8731 33.1174 12.5804 32.4163 13.342C31.7421 14.1036 31.0949 14.8924 30.4747 15.7084ZM28.8162 17.9933C28.8162 18.0477 28.8432 18.0749 28.8971 18.0749C28.8971 18.0749 28.9106 18.0477 28.9375 17.9933C28.9915 18.0477 29.0319 18.0749 29.0589 18.0749C29.0589 17.8301 29.0724 17.6669 29.0993 17.5853C29.0184 17.6125 28.9645 17.6941 28.9375 17.8301C28.9106 17.9389 28.8701 17.9933 28.8162 17.9933ZM39.4951 17.4629C39.4951 17.3541 39.5221 17.2453 39.576 17.1365C39.6569 17.0005 39.7243 16.8781 39.7782 16.7693C39.7782 16.8781 39.7378 16.9869 39.6569 17.0957C39.603 17.2045 39.549 17.3269 39.4951 17.4629ZM37.3512 11.8731C37.3512 12.1179 37.2703 12.3492 37.1085 12.5668C37.0816 12.594 37.0681 12.6212 37.0681 12.6484C37.0681 12.6756 37.0546 12.6892 37.0276 12.6892C37.0276 12.6892 37.0411 12.662 37.0681 12.6076C37.122 12.4716 37.1625 12.3492 37.1894 12.2403C37.2434 12.1315 37.2973 12.0091 37.3512 11.8731ZM32.4972 24.6031C32.4972 24.6847 32.4567 24.7255 32.3758 24.7255C32.1871 24.9159 31.9039 25.0791 31.5264 25.2151C31.7151 25.1063 31.8904 25.0111 32.0522 24.9295C32.214 24.8479 32.3623 24.7391 32.4972 24.6031ZM36.9872 12.8524C36.9332 12.9884 36.8658 13.1244 36.7849 13.2604C36.704 13.3964 36.6231 13.5324 36.5422 13.6684C36.5961 13.5324 36.6636 13.3964 36.7445 13.2604C36.8523 13.1244 36.9332 12.9884 36.9872 12.8524ZM32.0927 10.7307C32.0387 10.7851 31.9578 10.8667 31.85 10.9755C31.7421 11.0843 31.6477 11.1659 31.5668 11.2203C31.8095 10.9755 31.9848 10.8123 32.0927 10.7307ZM30.9196 11.9955C30.8926 11.9955 30.8792 11.9819 30.8792 11.9547C30.8252 11.9547 30.7983 11.9547 30.7983 11.9547C30.8792 11.7643 31.014 11.6283 31.2028 11.5467L31.2432 11.5875C31.1623 11.5603 31.0949 11.6011 31.041 11.7099C30.987 11.7915 30.9466 11.8867 30.9196 11.9955ZM34.3983 16.7693C34.3444 16.8781 34.2635 17.0005 34.1556 17.1365C34.0478 17.2453 33.9399 17.3405 33.832 17.4221L34.3983 16.7693ZM31.3646 11.3835L31.5264 11.2611C31.5264 11.3155 31.4994 11.3563 31.4455 11.3835C31.4185 11.4107 31.3915 11.4515 31.3646 11.5059C31.3106 11.4787 31.3106 11.4379 31.3646 11.3835C31.3106 11.4379 31.2702 11.4651 31.2432 11.4651C31.2972 11.4107 31.3376 11.3699 31.3646 11.3427C31.4185 11.2883 31.4724 11.2339 31.5264 11.1795L31.3646 11.3835ZM35.2478 15.586C35.2748 15.6404 35.2613 15.6948 35.2074 15.7492C35.1804 15.7764 35.1534 15.8172 35.1265 15.8717C35.0725 15.8172 35.0725 15.7764 35.1265 15.7492C35.1804 15.6948 35.2208 15.6404 35.2478 15.586ZM31.7691 10.9347C31.7691 10.9619 31.7421 11.0027 31.6882 11.0571C31.6342 11.1115 31.5803 11.1523 31.5264 11.1795C31.5533 11.0979 31.6342 11.0163 31.7691 10.9347ZM33.6702 23.6239C33.6972 23.5695 33.7377 23.5151 33.7916 23.4607C33.8725 23.4063 33.9399 23.3519 33.9938 23.2975C33.9399 23.3519 33.886 23.4063 33.832 23.4607C33.7781 23.5151 33.7242 23.5695 33.6702 23.6239ZM32.5781 10.3635C32.5781 10.4179 32.5511 10.4451 32.4972 10.4451C32.4702 10.4451 32.4432 10.4587 32.4163 10.4859C32.4163 10.4043 32.4702 10.3635 32.5781 10.3635ZM35.0456 22.0734C35.0995 22.1006 35.086 22.1414 35.0051 22.1958C34.9512 22.2502 34.9377 22.2638 34.9646 22.2366C34.9646 22.1822 34.9916 22.1278 35.0456 22.0734ZM28.3308 14.8924C28.3847 14.9196 28.3847 14.9604 28.3308 15.0148C28.2769 15.042 28.2364 15.0556 28.2094 15.0556C28.2094 15.0012 28.2229 14.974 28.2499 14.974C28.3038 14.9468 28.3308 14.9196 28.3308 14.8924ZM33.7107 17.6261C33.6568 17.5173 33.6972 17.4629 33.832 17.4629L33.7107 17.6261ZM33.1444 9.91468C33.1444 9.96908 33.1174 9.99628 33.0635 9.99628C33.0365 9.99628 33.0095 10.0099 32.9826 10.0371C32.9826 9.98268 32.9961 9.95548 33.023 9.95548C33.05 9.95548 33.0905 9.94188 33.1444 9.91468ZM33.023 18.3605C32.9691 18.4149 32.9152 18.4557 32.8612 18.4829C32.8073 18.4829 32.8343 18.4421 32.9421 18.3605H33.023ZM32.7803 10.1187C32.7803 10.1731 32.7534 10.2275 32.6994 10.2819C32.6725 10.2547 32.6725 10.2275 32.6994 10.2003C32.7264 10.1459 32.7534 10.1187 32.7803 10.1187ZM40.385 17.7485C40.385 17.8573 40.358 17.9389 40.3041 17.9933C40.3041 17.9389 40.3311 17.8573 40.385 17.7485ZM32.3758 10.4859C32.4028 10.5131 32.3893 10.5403 32.3354 10.5675C32.3084 10.5675 32.2949 10.5811 32.2949 10.6083C32.241 10.5811 32.2275 10.5539 32.2545 10.5267C32.3084 10.4995 32.3489 10.4859 32.3758 10.4859ZM34.9646 15.9125C34.9916 15.9669 34.9781 16.0213 34.9242 16.0757C34.8703 16.1029 34.8433 16.1437 34.8433 16.1981C34.8433 16.1437 34.8568 16.1029 34.8837 16.0757C34.9107 16.0213 34.9377 15.9669 34.9646 15.9125ZM36.0568 14.5252C36.0568 14.5796 36.0298 14.634 35.9759 14.6884C35.922 14.7428 35.8815 14.7972 35.8546 14.8516C35.8546 14.7972 35.8815 14.7428 35.9355 14.6884C35.9894 14.634 36.0298 14.5796 36.0568 14.5252ZM30.7578 11.9955C30.7578 12.0227 30.7308 12.0635 30.6769 12.1179C30.6499 12.0907 30.6499 12.0635 30.6769 12.0363C30.7039 12.0091 30.7308 11.9955 30.7578 11.9955ZM31.3646 0.32641C31.3646 0.408011 31.3511 0.448812 31.3241 0.448812V0.408011C31.3241 0.35361 31.3376 0.32641 31.3646 0.32641ZM36.4613 13.8724C36.4343 13.8452 36.4343 13.818 36.4613 13.7908C36.4883 13.7364 36.5152 13.7092 36.5422 13.7092L36.4613 13.8724ZM36.1782 14.362C36.1242 14.4708 36.0973 14.5116 36.0973 14.4844C36.0973 14.4572 36.1107 14.4164 36.1377 14.362H36.1782ZM40.83 15.9533C40.8569 15.9805 40.8569 16.0077 40.83 16.0349C40.803 16.0349 40.7895 16.0485 40.7895 16.0757C40.7356 16.0485 40.7221 16.0349 40.7491 16.0349C40.803 16.0077 40.83 15.9805 40.83 15.9533ZM34.7624 16.2797C34.7624 16.2797 34.7219 16.3477 34.641 16.4837C34.641 16.4565 34.6545 16.4293 34.6815 16.4021C34.7085 16.3749 34.7354 16.3341 34.7624 16.2797ZM35.4501 15.3004C35.4501 15.2732 35.4905 15.2188 35.5714 15.1372L35.4501 15.3004ZM33.3062 18.0341C33.3062 18.0885 33.2792 18.1157 33.2253 18.1157C33.2253 18.0613 33.2523 18.0341 33.3062 18.0341ZM31.4455 25.2559C31.4185 25.2831 31.3781 25.2967 31.3241 25.2967C31.3511 25.2967 31.3646 25.2967 31.3646 25.2967C31.3915 25.2695 31.4185 25.2559 31.4455 25.2559ZM36.1782 14.2804C36.1782 14.3076 36.1647 14.3212 36.1377 14.3212C36.1377 14.3212 36.1377 14.3348 36.1377 14.362C36.1377 14.3348 36.1512 14.3076 36.1782 14.2804ZM36.0164 14.362C36.0164 14.362 36.0298 14.3484 36.0568 14.3212C36.0568 14.3484 36.0433 14.362 36.0164 14.362Z" transform="translate(7.2583 3.63184)" fill="white"/>
<path d="M53.7469 12.8116C53.7199 12.866 53.693 12.9476 53.666 13.0564C53.639 13.1652 53.612 13.274 53.5851 13.3828C53.5581 13.4916 53.5446 13.5868 53.5446 13.6684C53.5446 13.7228 53.5716 13.75 53.6255 13.75C53.6525 13.7772 53.6121 13.8724 53.5042 14.0356C53.4233 14.1988 53.3963 14.294 53.4233 14.3212C53.5042 14.3212 53.5986 14.2396 53.7064 14.0764C53.8413 13.886 53.9626 13.7908 54.0705 13.7908C53.8817 14.3076 53.666 14.7836 53.4233 15.2188C53.2076 15.654 52.9648 16.0893 52.6952 16.5245C52.6682 16.5245 52.6412 16.5245 52.6143 16.5245C52.6143 16.4973 52.5873 16.4973 52.5334 16.5245C52.4525 16.6333 52.412 16.7557 52.412 16.8917C52.439 17.0005 52.412 17.1229 52.3311 17.2589C52.2233 17.3949 52.1154 17.5309 52.0075 17.6669C51.8997 17.8029 51.8188 17.9389 51.7648 18.0749C51.7109 18.0749 51.6839 18.0885 51.6839 18.1157C51.6839 18.1429 51.657 18.1293 51.603 18.0749C51.63 18.1293 51.63 18.1701 51.603 18.1973C51.603 18.1973 51.603 18.2109 51.603 18.2381C51.5761 18.2653 51.5626 18.2925 51.5626 18.3197C51.5626 18.3469 51.5356 18.3605 51.4817 18.3605V18.4829L50.3895 19.707C50.3356 19.8158 50.2547 19.911 50.1468 19.9926C50.0389 20.0742 49.958 20.1694 49.9041 20.2782C49.7693 20.4142 49.6344 20.5366 49.4996 20.6454C49.3917 20.7542 49.3108 20.8766 49.2569 21.0126C49.2569 21.0126 49.2434 21.0126 49.2164 21.0126C49.2164 21.067 49.203 21.0942 49.176 21.0942C49.176 21.0942 49.176 21.1214 49.176 21.1758L47.7198 22.6854C47.1804 23.3111 46.5332 23.9231 45.7782 24.5215C45.0501 25.0927 44.295 25.5687 43.5129 25.9495C43.2702 26.0311 43.0141 26.1263 42.7444 26.2351C42.5017 26.3439 42.2455 26.4392 41.9758 26.5208C41.841 26.5208 41.7601 26.5888 41.7331 26.7248C42.0298 26.752 42.3129 26.7112 42.5826 26.6024C42.8523 26.5208 43.1219 26.412 43.3916 26.2759C44.0927 25.9223 44.7939 25.4871 45.495 24.9703C46.2231 24.4263 46.8568 23.9231 47.3962 23.4607C47.3692 23.5967 47.3018 23.7055 47.1939 23.7871C47.0861 23.8415 47.0052 23.9231 46.9512 24.0319L45.2523 25.3783C45.1444 25.4327 44.9961 25.5279 44.8074 25.6639C44.6186 25.7999 44.4568 25.8951 44.322 25.9495C43.9444 26.1399 43.5669 26.3303 43.1893 26.5208C42.8118 26.7384 42.3669 26.8608 41.8545 26.888C41.6657 26.888 41.423 26.8608 41.1264 26.8064C40.8567 26.752 40.587 26.7248 40.3174 26.7248C40.1556 26.7248 40.0073 26.7112 39.8724 26.684C39.7376 26.6568 39.5623 26.616 39.3466 26.5616C39.1308 26.5344 38.8881 26.4664 38.6185 26.3575C38.3488 26.2759 38.1061 26.1807 37.8904 26.0719C37.4858 25.8815 37.1757 25.5823 36.96 25.1743C36.7173 24.7391 36.569 24.2359 36.515 23.6647C36.4611 23.4471 36.4746 23.2431 36.5555 23.0527C36.6094 22.835 36.6229 22.6174 36.5959 22.3998L36.7577 22.3182C36.8117 21.9374 36.8926 21.543 37.0004 21.135C37.1083 20.727 37.2297 20.3326 37.3645 19.9518C37.3645 19.8974 37.3645 19.8838 37.3645 19.911C37.3645 19.9382 37.378 19.9518 37.4049 19.9518C37.5128 19.5166 37.6342 19.1085 37.769 18.7277C37.9308 18.3197 38.1061 17.9253 38.2949 17.5445C38.6994 16.7013 39.1578 15.9125 39.6702 15.178C40.2095 14.4164 40.7488 13.682 41.2882 12.9748C41.423 12.8388 41.5309 12.7028 41.6118 12.5668C41.7196 12.4308 41.841 12.2947 41.9758 12.1587C41.9758 12.1043 41.9758 12.0771 41.9758 12.0771C42.0028 12.0771 42.0163 12.0499 42.0163 11.9955C42.0702 11.9683 42.1376 11.8867 42.2185 11.7507C42.2455 11.8323 42.2185 11.9139 42.1376 11.9955C42.1916 11.9955 42.2185 11.9683 42.2185 11.9139C42.2455 11.8595 42.2725 11.8187 42.2994 11.7915C42.3534 11.8187 42.3534 11.8459 42.2994 11.8731C42.2725 11.8731 42.259 11.9003 42.259 11.9547C42.5017 11.7643 42.7309 11.5467 42.9466 11.3019C43.1893 11.0299 43.432 10.8259 43.6747 10.6899V10.5267C43.8096 10.5267 43.8905 10.5131 43.9174 10.4859C43.9714 10.4315 44.0523 10.4179 44.1602 10.4451C44.4568 10.1187 44.8074 9.88748 45.2119 9.75148C45.3737 9.69707 45.522 9.71068 45.6568 9.79228C45.7917 9.84668 45.9535 9.87388 46.1422 9.87388L46.3849 10.1595C46.5467 10.1323 46.7355 10.1595 46.9512 10.2411C47.167 10.2955 47.2883 10.4179 47.3153 10.6083C47.3423 10.6355 47.3557 10.6491 47.3557 10.6491C47.3827 10.6219 47.4097 10.6355 47.4366 10.6899C47.6524 11.0707 47.7333 11.5603 47.6793 12.1587C47.6524 12.73 47.558 13.2876 47.3962 13.8316C47.3422 13.9948 47.2748 14.1444 47.1939 14.2804C47.14 14.4164 47.0861 14.5524 47.0321 14.6884C46.9512 14.906 46.8568 15.1372 46.749 15.382C46.6411 15.6268 46.5198 15.8581 46.3849 16.0757L45.5759 17.3813C45.3062 17.7621 45.0231 18.1293 44.7265 18.4829C44.4568 18.8365 44.1871 19.1221 43.9174 19.3397L43.1893 19.707C42.9736 19.7886 42.7983 19.843 42.6635 19.8702C42.5556 19.8702 42.3938 19.8838 42.1781 19.911C41.8815 19.9654 41.6118 19.911 41.3691 19.7478C41.1533 19.5846 40.9646 19.4078 40.8028 19.2173C40.6679 19.435 40.5196 19.775 40.3578 20.2374C40.196 20.6726 40.0612 21.0126 39.9533 21.2574C39.9263 21.2574 39.9129 21.2438 39.9129 21.2166C39.7241 21.7878 39.6162 22.4406 39.5893 23.1751C39.5893 23.8823 39.7241 24.4671 39.9938 24.9295C40.5331 24.7935 41.0859 24.6031 41.6522 24.3583C42.2185 24.1135 42.7174 23.8415 43.1489 23.5423C43.5534 23.2431 43.9579 22.9303 44.3624 22.6038C44.7939 22.2502 45.1984 21.9238 45.5759 21.6246L45.6973 21.5022C45.8051 21.4478 45.886 21.3662 45.94 21.2574C45.9939 21.1486 46.0613 21.067 46.1422 21.0126C46.358 20.8222 46.5737 20.6318 46.7894 20.4414C47.0321 20.251 47.2479 20.047 47.4366 19.8294C47.4636 19.8294 47.4771 19.8158 47.4771 19.7886C47.504 19.7614 47.5445 19.7342 47.5984 19.707C47.7602 19.4078 47.976 19.2037 48.2456 19.0949C48.8119 18.4421 49.3243 17.8165 49.7828 17.2181C50.2412 16.5925 50.7266 15.8853 51.239 15.0964C51.3738 15.1508 51.4547 15.11 51.4817 14.974C51.5356 14.8108 51.603 14.6884 51.6839 14.6068C51.7379 14.498 51.7918 14.4164 51.8457 14.362C51.8997 14.3076 51.9536 14.2532 52.0075 14.1988C52.0345 14.1716 52.048 14.1172 52.048 14.0356C52.0749 13.954 52.1154 13.8996 52.1693 13.8724C52.2233 13.818 52.2772 13.7908 52.3311 13.7908C52.3851 13.7908 52.4255 13.7636 52.4525 13.7092C52.5064 13.4916 52.5603 13.342 52.6143 13.2604C52.6682 13.206 52.6952 13.1788 52.6952 13.1788C52.803 13.1788 52.857 13.1788 52.857 13.1788C52.8839 13.2332 52.8705 13.3012 52.8165 13.3828C52.7896 13.4372 52.7491 13.4916 52.6952 13.546C52.6682 13.7364 52.6143 13.8996 52.5334 14.0356C52.4794 14.1716 52.4255 14.3484 52.3716 14.566C52.5064 14.4572 52.6008 14.3484 52.6547 14.2396C52.7087 14.1036 52.7626 13.9676 52.8165 13.8316C52.8435 13.8588 52.8705 13.8724 52.8974 13.8724C52.9244 13.8724 52.9648 13.886 53.0188 13.9132C53.1536 13.8588 53.2076 13.7772 53.1806 13.6684C53.1806 13.5324 53.2075 13.41 53.2615 13.3012C53.3154 13.274 53.3963 13.206 53.5042 13.0972C53.6121 12.9612 53.693 12.866 53.7469 12.8116ZM45.2523 12.2403C44.9557 12.458 44.6995 12.7164 44.4838 13.0156C44.268 13.3148 44.0388 13.614 43.7961 13.9132C43.5804 14.158 43.3916 14.4028 43.2298 14.6476C43.068 14.8924 42.8792 15.1372 42.6635 15.382C42.6635 15.4636 42.65 15.518 42.623 15.5452C42.4073 15.8445 42.1916 16.1573 41.9758 16.4837C41.7601 16.8101 41.5848 17.1637 41.45 17.5445C41.5578 17.5445 41.6522 17.5853 41.7331 17.6669C42.3803 17.2317 42.9332 16.7013 43.3916 16.0757C43.877 15.45 44.3085 14.7428 44.686 13.954C44.659 13.9268 44.6186 13.954 44.5647 14.0356C44.5377 14.09 44.5107 14.1036 44.4838 14.0764C44.7265 13.8588 44.8883 13.5868 44.9692 13.2604C45.077 12.9068 45.1984 12.5532 45.3332 12.1995C45.3062 12.1995 45.2793 12.2131 45.2523 12.2403ZM40.6005 19.1765C40.4927 19.3669 40.3713 19.6798 40.2365 20.115C40.1016 20.523 40.0073 20.8358 39.9533 21.0534C40.0612 20.8358 40.1825 20.523 40.3174 20.115C40.4792 19.707 40.6005 19.3942 40.6814 19.1765H40.6005Z" transform="translate(7.2583 3.63184)" fill="white"/>
<path d="M60.3147 19.7886C60.4226 19.6254 60.5844 19.3942 60.8001 19.0949C61.0428 18.7685 61.2855 18.4421 61.5282 18.1157C61.7709 17.7621 62.0001 17.4221 62.2159 17.0957C62.4586 16.7693 62.6473 16.5245 62.7822 16.3613C62.8361 16.3341 62.8766 16.2933 62.9035 16.2389C62.9305 16.1573 62.9844 16.1165 63.0653 16.1165C62.9305 16.3069 62.8091 16.4973 62.7013 16.6877C62.5934 16.8509 62.4586 17.0141 62.2968 17.1773C62.3507 17.2045 62.4181 17.1773 62.499 17.0957C62.6339 16.9597 62.7552 16.8237 62.8631 16.6877C62.9709 16.5245 63.0923 16.3749 63.2271 16.2389L63.9552 15.5044C63.9552 15.5588 63.9957 15.586 64.0766 15.586C63.9957 15.7764 63.8339 16.0213 63.5912 16.3205C63.3754 16.6197 63.1462 16.9053 62.9035 17.1773C62.6878 17.4493 62.5125 17.6805 62.3777 17.8709C62.2698 18.0341 62.2698 18.0885 62.3777 18.0341C62.7552 17.5989 63.1462 17.1637 63.5507 16.7285C63.9552 16.2933 64.3867 15.8717 64.8451 15.4636C64.8721 15.4364 64.8317 15.518 64.7238 15.7084C64.6159 15.8989 64.4811 16.1301 64.3193 16.4021C64.1575 16.6469 64.0092 16.8917 63.8743 17.1365C63.7395 17.3541 63.6586 17.4901 63.6316 17.5445C63.6316 17.5717 63.7125 17.4765 63.8743 17.2589C64.0631 17.0141 64.4002 16.5517 64.8856 15.8717C64.9395 15.9261 64.9395 15.9805 64.8856 16.0349C64.8586 16.0621 64.8316 16.1029 64.8047 16.1573C64.589 16.5381 64.3328 16.9053 64.0361 17.2589C63.7665 17.6125 63.4968 17.9525 63.2271 18.2789C63.4698 18.0341 63.7125 17.7757 63.9552 17.5037C64.1979 17.2045 64.4676 16.9053 64.7642 16.6061C64.5755 16.9597 64.3462 17.2453 64.0766 17.4629C63.726 17.8437 63.3754 18.2653 63.0249 18.7277C62.7013 19.1901 62.3911 19.6118 62.0945 19.9926C62.0406 20.0198 62.0001 20.0606 61.9732 20.115C61.9462 20.1694 61.8788 20.2102 61.7709 20.2374C61.7709 20.2646 61.7574 20.2918 61.7305 20.319C61.7035 20.319 61.69 20.3326 61.69 20.3598C61.663 20.387 61.5821 20.4822 61.4473 20.6454C61.3394 20.8086 61.2181 20.9854 61.0833 21.1758C60.9484 21.339 60.8271 21.5022 60.7192 21.6654C60.6113 21.8286 60.5574 21.9238 60.5574 21.951C60.8001 21.6518 61.0428 21.339 61.2855 21.0126C61.5552 20.6862 61.7844 20.455 61.9732 20.319V20.1966C62.108 20.1966 62.1484 20.1422 62.0945 20.0334H62.1754L62.499 19.6662C62.526 19.6118 62.526 19.5982 62.499 19.6254C62.499 19.6526 62.5125 19.6662 62.5395 19.6662L62.9035 19.299L63.0653 19.0133V19.0949L63.5103 18.4829L63.8743 17.9525C63.9822 17.8981 64.0631 17.8165 64.117 17.7077C64.171 17.5989 64.2519 17.5173 64.3597 17.4629C64.3597 17.5445 64.3058 17.6261 64.1979 17.7077C64.117 17.7621 64.0631 17.8437 64.0361 17.9525C63.9283 18.0069 63.8474 18.0749 63.7934 18.1565C63.7665 18.2381 63.726 18.3333 63.6721 18.4421L62.6608 19.7886L61.4473 21.2574C61.6361 21.0126 61.8114 20.7542 61.9732 20.4822C62.1619 20.2102 62.2698 20.047 62.2968 19.9926L60.9619 21.7878L59.5866 23.3383C59.4248 23.5287 59.236 23.7055 59.0203 23.8687C58.8585 24.1679 58.6427 24.3719 58.3731 24.4807C58.2113 24.6711 58.063 24.8479 57.9281 25.0111C57.8203 25.1743 57.6854 25.3239 57.5236 25.4599C57.3888 25.6775 57.2135 25.8543 56.9978 25.9903C56.809 26.1263 56.6067 26.2487 56.391 26.3575C56.2831 26.4392 56.2022 26.5072 56.1483 26.5616C56.0944 26.6432 56.0135 26.7112 55.9056 26.7656C55.7708 26.8472 55.6359 26.9016 55.5011 26.9288C55.3663 26.9832 55.2449 27.0376 55.1371 27.092C55.0831 27.092 54.9753 27.1192 54.8134 27.1736C54.6786 27.228 54.5303 27.2824 54.3685 27.3368C54.2067 27.4184 54.0449 27.4728 53.8831 27.5C53.7483 27.5544 53.6404 27.5816 53.5595 27.5816C53.3977 27.5816 53.2629 27.5272 53.155 27.4184C53.0471 27.3096 52.9392 27.1872 52.8314 27.0512C52.7505 26.9424 52.6426 26.8472 52.5078 26.7656C52.3999 26.684 52.2516 26.6568 52.0628 26.684L51.8606 26.5208C51.8606 26.3848 51.8336 26.2895 51.7797 26.2351C51.7257 25.9087 51.6988 25.5823 51.6988 25.2559C51.6988 24.9295 51.7392 24.6031 51.8201 24.2767C51.928 23.5151 52.0763 22.8486 52.2651 22.2774C52.4808 21.679 52.71 21.1214 52.9527 20.6046C53.1954 20.0606 53.4516 19.5438 53.7213 19.0541C53.991 18.5373 54.2741 17.9933 54.5707 17.4221C54.6247 17.3677 54.6516 17.3133 54.6516 17.2589C54.6786 17.1773 54.7191 17.1229 54.773 17.0957C54.9887 16.6605 55.1775 16.3341 55.3393 16.1165C55.5011 15.8717 55.6494 15.6676 55.7843 15.5044C55.9461 15.314 56.1079 15.11 56.2697 14.8924C56.4315 14.6748 56.6337 14.362 56.8764 13.954C56.4989 14.0628 56.0809 14.09 55.6225 14.0356C55.164 13.9812 54.8269 13.8316 54.6112 13.5868L54.4494 13.9132C54.2337 14.158 54.0449 14.43 53.8831 14.7292C53.7213 15.0284 53.5595 15.3276 53.3977 15.6268C53.0471 16.1165 52.7235 16.5381 52.4269 16.8917C52.1572 17.2453 51.8471 17.6805 51.4965 18.1973C51.3347 18.4965 51.0651 18.8093 50.6875 19.1357C50.31 19.4622 50.0133 19.775 49.7976 20.0742C49.7437 20.1286 49.6763 20.1966 49.5954 20.2782C49.5414 20.3598 49.4875 20.455 49.4336 20.5638H49.3526C49.2987 20.6182 49.2583 20.6862 49.2313 20.7678C49.2043 20.8222 49.1639 20.8494 49.11 20.8494C49.056 20.8222 49.0425 20.795 49.0695 20.7678C49.0965 20.7406 49.11 20.7134 49.11 20.6862C48.9212 20.7134 48.8133 20.7814 48.7864 20.8902C48.7594 20.999 48.7054 21.0942 48.6245 21.1758L48.7459 20.931C48.7189 20.8766 48.692 20.8766 48.665 20.931C48.665 20.9582 48.638 20.9718 48.5841 20.9718C48.5841 20.9174 48.5976 20.8902 48.6245 20.8902C48.6785 20.863 48.7054 20.8222 48.7054 20.7678C48.5167 20.7678 48.3818 20.8358 48.3009 20.9718C48.274 20.9174 48.2875 20.8902 48.3414 20.8902C48.3684 20.863 48.3549 20.8222 48.3009 20.7678C48.274 20.795 48.2605 20.8222 48.2605 20.8494C48.2335 20.8766 48.1796 20.9038 48.0987 20.931C48.0717 20.8766 48.0987 20.8222 48.1796 20.7678C48.2605 20.7134 48.3009 20.659 48.3009 20.6046C48.1931 20.659 48.1122 20.727 48.0582 20.8086C47.9773 20.8902 47.883 20.9446 47.7751 20.9718C47.829 20.8902 47.8964 20.795 47.9773 20.6862C48.0582 20.5774 48.1526 20.4686 48.2605 20.3598C48.1257 20.387 48.0448 20.4414 48.0178 20.523C47.9908 20.6046 47.9504 20.6726 47.8964 20.727C47.8695 20.6454 47.8964 20.5638 47.9773 20.4822C48.0582 20.4006 48.1257 20.3054 48.1796 20.1966C48.1257 20.1966 48.0852 20.2238 48.0582 20.2782C48.0043 20.3326 47.9639 20.387 47.9369 20.4414C47.883 20.387 47.8695 20.3598 47.8964 20.3598C47.8155 20.3598 47.7077 20.4006 47.5728 20.4822C47.411 20.5366 47.3032 20.5774 47.2492 20.6046C47.3841 20.3054 47.5594 20.0334 47.7751 19.7886C47.9908 19.5438 48.1796 19.2989 48.3414 19.0541C48.3953 18.9453 48.4627 18.8365 48.5436 18.7277C48.5976 18.5917 48.6515 18.4693 48.7054 18.3605C48.7324 18.3605 48.7459 18.3605 48.7459 18.3605C48.7459 18.3333 48.7594 18.3197 48.7864 18.3197C48.9751 17.9933 49.2313 17.6261 49.5549 17.2181C49.9055 16.7829 50.1482 16.4021 50.283 16.0757C50.3909 15.9397 50.5122 15.79 50.6471 15.6268C50.7819 15.4364 50.8898 15.246 50.9707 15.0556C51.1055 14.7836 51.2269 14.566 51.3347 14.4028C51.4426 14.2124 51.5505 14.0356 51.6583 13.8724C51.7662 13.682 51.8741 13.5052 51.9819 13.342C52.1168 13.1516 52.2651 12.9204 52.4269 12.6484C52.4538 12.6212 52.4404 12.6076 52.3864 12.6076C52.3595 12.5804 52.346 12.5532 52.346 12.526C52.3999 12.5532 52.4404 12.5532 52.4673 12.526C52.4943 12.4988 52.5213 12.4852 52.5482 12.4852C52.3055 12.0771 52.292 11.5739 52.5078 10.9755C52.7235 10.3499 52.9123 9.75148 53.0741 9.18026C53.1011 9.12586 53.1415 9.07146 53.1954 9.01706C53.2494 8.93545 53.3033 8.86745 53.3572 8.81305C53.4112 8.89465 53.4112 9.00346 53.3572 9.13946C53.3033 9.24826 53.2763 9.37067 53.2763 9.50667C53.1415 9.77868 53.0336 10.1051 52.9527 10.4859C52.8988 10.8667 52.9258 11.2067 53.0336 11.5059C53.0606 11.2339 53.0741 10.9755 53.0741 10.7307C53.0741 10.4859 53.1415 10.2411 53.2763 9.99628C53.3033 9.75148 53.3438 9.52027 53.3977 9.30266C53.4516 9.08506 53.5056 8.86745 53.5595 8.64985C53.6134 8.70425 53.6404 8.71785 53.6404 8.69065C53.6404 8.63625 53.6674 8.60904 53.7213 8.60904C53.7483 8.60904 53.7483 8.62264 53.7213 8.64985C53.7213 8.67705 53.7348 8.70425 53.7617 8.73145C53.8966 8.67705 53.9775 8.58184 54.0044 8.44584C54.0584 8.30984 54.1528 8.21463 54.2876 8.16023C54.3415 8.16023 54.3685 8.17383 54.3685 8.20103C54.3955 8.22823 54.4359 8.24183 54.4898 8.24183C54.382 8.10583 54.2337 8.07863 54.0449 8.16023C54.0449 8.07863 54.0988 8.05143 54.2067 8.07863C54.3415 8.07863 54.4359 8.10583 54.4898 8.16023C54.5707 8.02423 54.6382 7.92903 54.6921 7.87462C54.773 7.82022 54.746 7.90182 54.6112 8.11943C54.6651 8.09223 54.7056 8.06503 54.7325 8.03783C54.7865 7.98343 54.8809 7.95623 55.0157 7.95623C55.0966 7.95623 55.1775 7.98343 55.2584 8.03783C55.3663 8.09223 55.4741 8.13303 55.582 8.16023C55.6359 8.16023 55.6494 8.14663 55.6225 8.11943C55.6225 8.06503 55.6494 8.03783 55.7034 8.03783C55.7843 8.14663 55.8652 8.21463 55.9461 8.24183C56.0539 8.24183 56.1618 8.26903 56.2697 8.32344C56.4045 8.70425 56.418 9.08506 56.3101 9.46587C56.2292 9.81948 56.1213 10.1867 55.9865 10.5675C55.9326 10.7851 55.8517 10.9619 55.7438 11.0979C55.6629 11.2339 55.582 11.4107 55.5011 11.6283C55.3932 11.9003 55.3393 12.1043 55.3393 12.2403C55.3663 12.322 55.4607 12.4036 55.6225 12.4852C55.8112 12.5396 55.973 12.5532 56.1079 12.526C56.1348 12.526 56.1618 12.526 56.1888 12.526C56.2157 12.4988 56.2427 12.4852 56.2697 12.4852C56.3236 12.4852 56.391 12.4988 56.4719 12.526C56.5528 12.5532 56.6337 12.5668 56.7146 12.5668C56.9304 12.5396 57.1191 12.4988 57.2809 12.4444C57.4427 12.3628 57.645 12.3219 57.8877 12.3219C57.9416 12.3219 57.9551 12.3219 57.9281 12.3219C57.9012 12.2947 57.9012 12.2675 57.9281 12.2403C58.009 12.322 58.1169 12.322 58.2517 12.2403C58.3057 12.2403 58.3326 12.2539 58.3326 12.2811C58.3596 12.3083 58.3866 12.3083 58.4135 12.2811C58.4675 12.2539 58.5484 12.2403 58.6562 12.2403C58.7641 12.2403 58.8585 12.2131 58.9394 12.1587C58.9933 12.1587 59.0338 12.1723 59.0607 12.1995C59.0877 12.2267 59.1416 12.2267 59.2225 12.1995C59.2765 12.2811 59.3169 12.3492 59.3439 12.4036C59.3978 12.458 59.4383 12.5396 59.4652 12.6484C59.5192 12.73 59.5731 12.7844 59.627 12.8116C59.681 12.8388 59.7349 12.8796 59.7888 12.934C59.8428 13.1244 59.8967 13.2468 59.9506 13.3012C59.9506 13.41 59.9776 13.4916 60.0315 13.546C60.0855 13.6004 60.1394 13.6684 60.1933 13.75C60.1394 13.8044 60.099 13.8996 60.072 14.0356C60.072 14.1444 60.0315 14.226 59.9506 14.2804C59.8967 14.2804 59.8832 14.2668 59.9102 14.2396C59.9372 14.1852 59.9372 14.1308 59.9102 14.0764C59.8023 14.43 59.6675 14.7428 59.5057 15.0148C59.3439 15.2596 59.1956 15.5452 59.0607 15.8717C59.0068 15.9261 58.9529 15.9941 58.8989 16.0757C58.872 16.1573 58.818 16.2253 58.7371 16.2797C58.5753 16.5789 58.454 16.7965 58.3731 16.9325C58.2922 17.0685 58.2113 17.1909 58.1304 17.2997C58.0495 17.3813 57.9686 17.4765 57.8877 17.5853C57.8337 17.6941 57.7528 17.8437 57.645 18.0341C57.2944 18.6325 56.9843 19.1493 56.7146 19.5846C56.4719 20.0198 56.2427 20.455 56.027 20.8902C55.8382 21.3254 55.6629 21.815 55.5011 22.359C55.3393 22.8759 55.191 23.5151 55.0561 24.2767C55.3528 24.0047 55.6225 23.8415 55.8652 23.7871C56.1348 23.7055 56.4449 23.5423 56.7955 23.2975C56.7955 23.2703 56.7955 23.2567 56.7955 23.2567C56.8225 23.2567 56.836 23.2703 56.836 23.2975C57.1326 22.9983 57.4158 22.699 57.6854 22.3998C57.9551 22.1006 58.2652 21.8286 58.6158 21.5838H58.5349C58.5888 21.5294 58.6427 21.475 58.6967 21.4206C58.7776 21.339 58.818 21.271 58.818 21.2166C58.872 21.1622 58.9259 21.1078 58.9798 21.0534C59.0338 20.999 59.1147 20.931 59.2225 20.8494V20.8086C59.2225 20.8086 59.2495 20.7814 59.3034 20.727C59.4383 20.6182 59.5731 20.4822 59.7079 20.319C59.8697 20.1558 60.045 20.0062 60.2338 19.8702V19.911L60.3147 19.7886ZM59.9911 22.563C59.9372 22.5358 59.9372 22.5086 59.9911 22.4814C60.072 22.427 60.1394 22.3998 60.1933 22.3998C60.1933 22.3998 60.2068 22.3726 60.2338 22.3182C60.2877 22.2638 60.3147 22.2094 60.3147 22.155C60.099 22.291 59.9237 22.4542 59.7888 22.6446C59.654 22.8078 59.5327 22.9983 59.4248 23.2159C59.4787 23.1887 59.5192 23.1343 59.5461 23.0527C59.6001 22.9711 59.6675 22.903 59.7484 22.8486C59.7484 22.7942 59.7754 22.7398 59.8293 22.6854C59.8563 22.7126 59.8563 22.7398 59.8293 22.767C59.8023 22.767 59.7888 22.7806 59.7888 22.8078L60.1529 22.4406C60.045 22.495 59.9911 22.5358 59.9911 22.563ZM59.7484 20.4006C59.8023 20.3462 59.8563 20.2918 59.9102 20.2374C59.9911 20.183 60.0585 20.115 60.1124 20.0334C60.0315 20.0878 59.9506 20.1558 59.8697 20.2374C59.7888 20.2918 59.7484 20.3462 59.7484 20.4006ZM60.5574 21.951C60.4765 21.951 60.4226 21.9918 60.3956 22.0734C60.3956 22.1278 60.3821 22.1822 60.3551 22.2366L60.5574 21.951ZM60.5979 22.0734C60.7597 22.019 60.8405 21.9238 60.8405 21.7878L60.5979 22.0734ZM62.0945 17.0957C62.0406 17.0957 62.0136 17.0957 62.0136 17.0957C62.0136 17.0141 62.0406 16.9733 62.0945 16.9733C62.0945 17.0005 62.0945 17.0141 62.0945 17.0141C62.1215 17.0141 62.1215 17.0413 62.0945 17.0957ZM64.1575 17.5853C64.1035 17.6941 64.0092 17.8165 63.8743 17.9525L64.1575 17.5853ZM63.1462 18.8909C63.2002 18.8365 63.2406 18.7821 63.2676 18.7277C63.2945 18.6733 63.335 18.6189 63.3889 18.5645L63.1462 18.8909ZM60.9619 21.7878C60.9889 21.7878 61.0563 21.7062 61.1642 21.543L60.9619 21.7878ZM63.3889 18.5237C63.3889 18.5509 63.4294 18.5237 63.5103 18.4421L63.4698 18.4829C63.4429 18.5101 63.4159 18.5237 63.3889 18.5237Z" transform="translate(7.2583 3.63184)" fill="white"/>
<path d="M70.1738 16.9733C70.1738 16.9733 70.1873 16.9869 70.2143 17.0141L70.5379 16.7693C70.8885 16.3885 71.239 15.9941 71.5896 15.586C71.9402 15.178 72.2638 14.77 72.5604 14.362C72.6952 14.3076 72.7896 14.226 72.8436 14.1172C72.9245 14.0084 73.0593 13.9812 73.2481 14.0356C73.3829 13.9812 73.4908 13.886 73.5717 13.75C73.6526 13.5868 73.747 13.478 73.8548 13.4236C74.0166 13.4236 74.111 13.41 74.138 13.3828C74.1919 13.41 74.1784 13.4916 74.0975 13.6276C74.0166 13.7364 73.9222 13.8588 73.8144 13.9948C73.7335 14.1036 73.6661 14.2124 73.6121 14.3212C73.5582 14.43 73.5717 14.4708 73.6526 14.4436C73.7065 14.4436 73.7604 14.4164 73.8144 14.362C73.8683 14.3076 73.9492 14.2804 74.0571 14.2804C74.138 14.2532 74.1919 14.2532 74.2189 14.2804C74.2728 14.3076 74.3267 14.294 74.3807 14.2396C74.3537 14.3212 74.3133 14.4164 74.2593 14.5252C74.2324 14.6068 74.2189 14.6884 74.2189 14.77C74.2189 14.7972 74.2728 14.8108 74.3807 14.8108C74.3537 14.974 74.2998 15.1236 74.2189 15.2596C74.138 15.3956 74.0706 15.5316 74.0166 15.6676C73.72 16.0757 73.4503 16.4293 73.2076 16.7285C72.9649 17.0277 72.7222 17.3133 72.4795 17.5853C72.2638 17.8573 72.0211 18.1429 71.7514 18.4421C71.5087 18.7141 71.2255 19.0541 70.9019 19.4622C70.848 19.4894 70.821 19.5166 70.821 19.5438C70.821 19.5438 70.7941 19.5438 70.7401 19.5438C70.0929 20.4958 69.4323 21.407 68.7581 22.2774C68.0839 23.1207 67.3423 23.9095 66.5333 24.6439L66.4929 24.8071C66.4659 24.8343 66.4254 24.9159 66.3715 25.0519C66.1558 25.2423 65.9266 25.4191 65.6839 25.5823C65.4411 25.7183 65.2254 25.8951 65.0366 26.1127C65.0097 26.1399 65.0366 26.1535 65.1175 26.1535C64.9557 26.3712 64.6726 26.5208 64.2681 26.6024C63.8905 26.684 63.54 26.7384 63.2164 26.7656C62.7579 26.82 62.286 26.7928 61.8006 26.684C61.3422 26.5752 61.0186 26.3711 60.8298 26.0719C60.5601 25.9631 60.3309 25.7455 60.1422 25.4191C59.9804 24.9839 59.8994 24.5351 59.8994 24.0727C59.8994 23.5831 59.9534 23.1071 60.0612 22.6446C60.1422 22.155 60.2635 21.679 60.4253 21.2166C60.5871 20.7542 60.7624 20.319 60.9512 19.911C61.0321 19.6934 61.0995 19.4894 61.1534 19.299C61.2073 19.1085 61.2882 18.9045 61.3961 18.6869C61.6927 17.9797 62.0433 17.2725 62.4478 16.5653C62.8523 15.8581 63.2164 15.178 63.54 14.5252L64.4299 12.8524C64.6187 12.5532 64.7939 12.2947 64.9557 12.0771C65.1445 11.8323 65.2928 11.5739 65.4007 11.3019V11.1795C65.6434 11.1795 65.8187 11.0435 65.9266 10.7715C65.9805 10.7443 66.0479 10.7307 66.1288 10.7307C66.2367 10.7307 66.3176 10.7035 66.3715 10.6491C66.6412 10.6763 66.8839 10.7443 67.0996 10.8531C67.3423 10.9347 67.5581 11.0299 67.7468 11.1387C67.8008 11.2747 67.9086 11.3971 68.0704 11.5059C68.2592 11.5875 68.3401 11.7371 68.3131 11.9547C68.3131 11.9819 68.2592 12.0771 68.1513 12.2403C68.1244 12.2947 68.1109 12.3356 68.1109 12.3628C68.1378 12.39 68.1378 12.4308 68.1109 12.4852C68.1109 12.5668 68.0704 12.6076 67.9895 12.6076V12.8932L67.7064 13.6684C67.7064 13.7228 67.7064 13.75 67.7064 13.75C67.7333 13.7228 67.7468 13.7364 67.7468 13.7908C67.612 13.818 67.5176 13.8996 67.4637 14.0356C67.4367 14.1444 67.3828 14.226 67.3019 14.2804C67.3019 14.362 67.3019 14.4028 67.3019 14.4028C67.194 14.43 67.1266 14.4844 67.0996 14.566C67.0996 14.6204 67.0861 14.6748 67.0592 14.7292C66.8974 14.9468 66.7625 15.1644 66.6547 15.382C66.5738 15.5996 66.4794 15.8036 66.3715 15.9941C66.3176 16.0757 66.2906 16.1301 66.2906 16.1573C66.3176 16.1573 66.3041 16.1845 66.2502 16.2389C66.2502 16.2661 66.2097 16.2797 66.1288 16.2797C66.1018 16.3885 66.0614 16.4837 66.0075 16.5653C65.9805 16.6197 65.967 16.7149 65.967 16.8509C65.8322 16.9869 65.7243 17.1773 65.6434 17.4221C65.5625 17.6397 65.4546 17.8165 65.3198 17.9525C65.1041 18.4149 64.9288 18.8637 64.7939 19.299C64.5782 19.7342 64.349 20.1558 64.1063 20.5638C63.8906 20.9718 63.7018 21.3798 63.54 21.7878L63.3782 22.6038C63.2703 22.8759 63.1759 23.1615 63.095 23.4607C63.0141 23.7599 62.9872 24.0727 63.0141 24.3991C63.4456 24.2087 63.8231 23.9231 64.1467 23.5423C64.6321 23.1343 65.1175 22.6854 65.603 22.1958C66.0884 21.679 66.5603 21.1622 67.0187 20.6454C67.0726 20.6182 67.0996 20.6046 67.0996 20.6046C67.1266 20.5774 67.167 20.5638 67.221 20.5638C67.3828 20.3462 67.5446 20.1286 67.7064 19.911C67.8682 19.6934 68.0569 19.4758 68.2727 19.2581C68.4345 19.1493 68.5693 19.0269 68.6772 18.8909C68.785 18.7277 68.8929 18.5509 69.0008 18.3605C69.0547 18.3061 69.1087 18.2653 69.1626 18.2381C69.2435 18.1837 69.3109 18.1293 69.3648 18.0749C69.4727 17.8573 69.6075 17.6805 69.7693 17.5445C69.9581 17.3813 70.0929 17.1909 70.1738 16.9733ZM69.3244 7.79302C69.2435 7.84742 69.1626 7.92903 69.0817 8.03783C68.9468 8.03783 68.8255 8.03783 68.7176 8.03783C68.6098 8.03783 68.4884 8.06503 68.3536 8.11943C68.3266 8.11943 68.3131 8.14663 68.3131 8.20103L68.1513 8.07863V7.83382C67.9895 7.88822 67.9086 7.96983 67.9086 8.07863C67.8547 8.07863 67.8412 8.05143 67.8682 7.99703C67.9221 7.91543 67.9221 7.86102 67.8682 7.83382C67.8142 7.86102 67.7738 7.90182 67.7468 7.95623C67.7468 7.98343 67.7199 7.99703 67.6659 7.99703V7.83382C67.612 7.83382 67.585 7.84742 67.585 7.87462C67.639 7.49381 67.4771 7.30341 67.0996 7.30341C67.0996 7.1674 67.0726 7.0994 67.0187 7.0994C67.0187 6.63699 67.1266 6.16097 67.3423 5.67136C67.3962 5.61696 67.4232 5.57616 67.4232 5.54896C67.4232 5.49456 67.4367 5.45375 67.4637 5.42655C67.5446 5.37215 67.6255 5.31775 67.7064 5.26335C67.8142 5.18175 67.8682 5.07294 67.8682 4.93694C67.8951 4.96414 67.9626 4.97774 68.0704 4.97774C68.1244 4.92334 68.2053 4.84174 68.3131 4.73293C68.421 4.62413 68.5019 4.63773 68.5558 4.77374C68.6098 4.80094 68.6232 4.80094 68.5963 4.77374C68.5963 4.74653 68.6098 4.73293 68.6367 4.73293C68.6907 4.78733 68.7446 4.81454 68.7985 4.81454C68.8255 4.73293 68.8929 4.67853 69.0008 4.65133C69.1356 4.62413 69.2704 4.63773 69.4053 4.69213C69.4053 4.74653 69.3783 4.78734 69.3244 4.81454C69.2974 4.81454 69.2974 4.84174 69.3244 4.89614C69.6749 4.89614 69.9042 4.81454 70.012 4.65133C70.012 4.73293 70.0255 4.80094 70.0525 4.85534C70.1064 4.88254 70.1469 4.92334 70.1738 4.97774C70.1199 5.00494 70.0929 5.05934 70.0929 5.14095C70.1199 5.22255 70.1604 5.29055 70.2143 5.34495C70.3222 5.29055 70.4435 5.30415 70.5783 5.38575C70.7401 5.46735 70.821 5.57616 70.821 5.71216C70.821 5.73936 70.848 5.75296 70.9019 5.75296C70.9019 5.80737 70.9019 5.84817 70.9019 5.87537C70.9289 5.87537 70.9424 5.90257 70.9424 5.95697C70.9154 5.90257 70.8885 5.87537 70.8615 5.87537C70.8076 5.98417 70.7536 6.09297 70.6997 6.20178C70.6727 6.31058 70.6053 6.41938 70.4974 6.52819C70.4974 6.55539 70.5244 6.56899 70.5783 6.56899C70.6323 6.56899 70.6592 6.58259 70.6592 6.60979C70.6592 6.60979 70.5918 6.60979 70.457 6.60979C70.2952 6.82739 70.1064 7.045 69.8907 7.26261C69.6749 7.45301 69.4997 7.69782 69.3648 7.99703C69.3109 7.99703 69.2839 8.01063 69.2839 8.03783C69.2839 8.03783 69.257 8.03783 69.203 8.03783C69.2839 7.95623 69.3244 7.87462 69.3244 7.79302ZM68.1918 12.6892C68.1918 12.7164 68.1783 12.7436 68.1513 12.7708C68.1513 12.7708 68.1513 12.798 68.1513 12.8524C68.0974 12.8796 68.0839 12.8524 68.1109 12.7708C68.1378 12.6892 68.1648 12.662 68.1918 12.6892Z" transform="translate(7.2583 3.63184)" fill="white"/>
<path d="M77.4562 15.9941C77.4562 16.1029 77.4562 16.1981 77.4562 16.2797C77.4562 16.3613 77.4427 16.4701 77.4157 16.6061C77.5775 16.5517 77.591 16.5653 77.4562 16.6469C77.3213 16.7013 77.3078 16.7829 77.4157 16.8917C77.5505 16.8645 77.6854 16.8237 77.8202 16.7693C77.9551 16.6877 78.0899 16.6605 78.2247 16.6877C78.2787 16.6605 78.3596 16.6469 78.4674 16.6469C78.7641 16.5109 79.1551 16.4021 79.6405 16.3205C79.7753 16.2661 79.8967 16.2389 80.0045 16.2389C80.1394 16.2117 80.2742 16.1709 80.409 16.1165C80.463 16.1165 80.5034 16.0893 80.5304 16.0349C80.5843 16.0349 80.6248 16.0485 80.6517 16.0757C80.6787 16.1029 80.6922 16.0893 80.6922 16.0349C80.7461 16.0349 80.7866 16.0485 80.8135 16.0757C81.4338 15.9397 81.9192 15.8853 82.2698 15.9125C82.6203 15.9397 82.9709 16.1165 83.3215 16.4429C83.3215 16.5245 83.3619 16.5789 83.4428 16.6061C83.3889 16.6605 83.3619 16.7149 83.3619 16.7693C83.3889 16.7965 83.3889 16.8373 83.3619 16.8917C83.3349 16.9461 83.2945 16.9053 83.2406 16.7693C83.1866 16.8237 83.1192 16.8645 83.0383 16.8917C82.9844 16.8917 82.9439 16.9325 82.917 17.0141C82.7821 16.8781 82.6877 16.8781 82.6338 17.0141C82.5799 17.1501 82.472 17.2181 82.3102 17.2181H82.108C82.0271 17.2181 82.0271 17.2317 82.108 17.2589C82.1889 17.2589 82.1754 17.2589 82.0675 17.2589C82.0136 17.2589 81.9462 17.2861 81.8653 17.3405C81.7844 17.3677 81.636 17.3949 81.4203 17.4221C81.3664 17.4765 81.3394 17.5037 81.3394 17.5037C81.2046 17.4765 81.0293 17.4901 80.8135 17.5445C80.6248 17.5989 80.463 17.6533 80.3281 17.7077L77.9011 18.6869C77.9551 18.7141 77.9955 18.7141 78.0225 18.6869C78.0494 18.6597 78.0899 18.6461 78.1438 18.6461C78.009 18.7821 77.8472 18.8773 77.6584 18.9317C77.4697 18.9589 77.3079 19.0405 77.173 19.1765C77.1191 19.1221 77.0921 19.1221 77.0921 19.1765C77.0921 19.2309 77.0651 19.2581 77.0112 19.2581L76.6876 20.8086C76.7146 20.7814 76.7281 20.7406 76.7281 20.6862C76.782 20.7406 76.782 20.7814 76.7281 20.8086C76.7011 20.8358 76.6876 20.863 76.6876 20.8902C76.6337 21.0534 76.6067 21.1622 76.6067 21.2166C76.6067 21.2166 76.5798 21.2438 76.5258 21.2982C76.4449 21.5974 76.3505 21.8966 76.2427 22.1958C76.1618 22.495 76.0674 22.7942 75.9595 23.0935C75.8516 23.3383 75.7303 23.5559 75.5955 23.7463C75.4876 23.9095 75.3797 24.0999 75.2718 24.3175C75.1909 24.5079 75.0966 24.6847 74.9887 24.8479C74.8808 24.9839 74.773 25.1335 74.6651 25.2967C74.5572 25.4327 74.4494 25.5959 74.3415 25.7863C74.2606 25.9495 74.1527 26.0991 74.0179 26.2351C74.0718 26.1263 74.1797 25.9903 74.3415 25.8271C74.3145 25.7727 74.301 25.7727 74.301 25.8271C74.301 25.8543 74.2741 25.8679 74.2201 25.8679C74.2741 25.8135 74.3145 25.7455 74.3415 25.6639C74.3685 25.5823 74.4089 25.5007 74.4628 25.4191C74.5168 25.3647 74.5707 25.2967 74.6246 25.2151C74.6786 25.1335 74.6786 25.0519 74.6246 24.9703C74.4898 25.1335 74.355 25.2967 74.2201 25.4599C74.1123 25.5959 74.0044 25.7455 73.8965 25.9087C73.7617 25.9359 73.6538 26.0039 73.5729 26.1127C73.519 26.2215 73.4516 26.3167 73.3707 26.3983C73.3437 26.3983 73.3302 26.3848 73.3302 26.3575C73.1954 26.5208 73.0471 26.6568 72.8853 26.7656C72.7504 26.8744 72.6156 26.9696 72.4808 27.0512C72.4268 27.0512 72.4134 27.0376 72.4403 27.0104C72.4673 27.0104 72.4673 26.9968 72.4403 26.9696C72.3594 26.9424 72.292 26.956 72.2381 27.0104C72.1841 27.092 72.1167 27.1056 72.0358 27.0512C71.928 27.1328 71.8066 27.2144 71.6718 27.296C71.5369 27.4048 71.3886 27.4592 71.2268 27.4592C71.1998 27.4592 71.1864 27.4864 71.1864 27.5408C71.1324 27.4048 71.038 27.3776 70.9032 27.4592C70.7684 27.568 70.674 27.568 70.6201 27.4592L70.8628 27.3776C70.8088 27.3232 70.7414 27.3096 70.6605 27.3368C70.5796 27.3912 70.4717 27.4048 70.3369 27.3776C70.283 27.3232 70.256 27.3096 70.256 27.3368C70.283 27.3912 70.283 27.4184 70.256 27.4184C70.1212 27.3912 70.0133 27.364 69.9324 27.3368C69.8785 27.3096 69.7976 27.2824 69.6897 27.2552C69.8515 27.4184 70.0807 27.5136 70.3774 27.5408C70.3234 27.6224 70.2425 27.6224 70.1347 27.5408C70.0538 27.4864 69.9863 27.4864 69.9324 27.5408C69.7976 27.5136 69.6897 27.4456 69.6088 27.3368C69.5279 27.228 69.42 27.16 69.2852 27.1328C69.2582 27.16 69.2447 27.1872 69.2447 27.2144C69.2447 27.2416 69.2178 27.228 69.1638 27.1736C69.1369 27.228 69.1369 27.2552 69.1638 27.2552C69.2178 27.2552 69.2447 27.2688 69.2447 27.296C69.1638 27.2688 69.0964 27.2144 69.0425 27.1328C68.9616 27.0784 68.8807 27.024 68.7998 26.9696C68.8268 26.9152 68.8402 26.888 68.8402 26.888C68.8133 26.888 68.7998 26.8608 68.7998 26.8064C68.7459 26.8336 68.7324 26.8608 68.7593 26.888C68.7863 26.9424 68.7728 26.956 68.7189 26.9288C68.7189 26.8472 68.7054 26.752 68.6784 26.6432C68.6515 26.5616 68.638 26.4528 68.638 26.3167C68.665 26.3167 68.6515 26.3848 68.5975 26.5208C68.5436 26.1943 68.5571 25.8815 68.638 25.5823C68.7189 25.2831 68.8133 25.0247 68.9211 24.8071V24.7255H68.9616C69.1773 24.1815 69.447 23.6783 69.7706 23.2159C70.1212 22.7262 70.4987 22.2774 70.9032 21.8694C71.1189 21.6246 71.2133 21.5022 71.1864 21.5022C71.1864 21.5022 71.092 21.5974 70.9032 21.7878C70.7414 21.951 70.5257 22.1958 70.256 22.5222C70.0133 22.8214 69.7706 23.1479 69.5279 23.5015C69.2852 23.8551 69.0695 24.2087 68.8807 24.5623C68.6919 24.9159 68.5841 25.2423 68.5571 25.5415C68.5301 25.7047 68.5166 25.8679 68.5166 26.0311C68.4897 26.1671 68.5032 26.3031 68.5571 26.4392C68.611 26.6024 68.638 26.752 68.638 26.888C68.4762 26.7792 68.3818 26.616 68.3548 26.3983C68.3279 26.2079 68.3279 25.9903 68.3548 25.7455C68.3548 25.5007 68.3953 25.2695 68.4762 25.0519C68.5301 24.8071 68.5841 24.6031 68.638 24.4399C68.6919 24.4127 68.7189 24.3855 68.7189 24.3583C68.7189 24.3039 68.7459 24.2495 68.7998 24.1951C68.8537 24.1407 68.8942 24.0863 68.9211 24.0319C68.9481 23.9775 69.002 23.9231 69.0829 23.8687C69.2447 23.5151 69.447 23.1887 69.6897 22.8895C69.9594 22.5902 70.229 22.291 70.4987 21.9918C71.1189 21.339 71.7796 20.727 72.4808 20.1558C73.2089 19.5846 73.964 19.0677 74.746 18.6053V18.4421C74.3685 18.6597 74.0044 18.8909 73.6538 19.1357C73.3033 19.3806 72.9392 19.6254 72.5617 19.8702C72.5077 19.979 72.4268 20.0606 72.319 20.115C72.2111 20.1422 72.1302 20.2238 72.0763 20.3598C72.0223 20.387 71.9549 20.4414 71.874 20.523C71.8201 20.5774 71.7662 20.6318 71.7122 20.6862C71.5774 20.8222 71.4021 20.9718 71.1864 21.135C70.9976 21.2982 70.8493 21.4478 70.7414 21.5838C70.4178 21.9102 70.0942 22.2638 69.7706 22.6446C69.474 23.0255 69.2043 23.4063 68.9616 23.7871C69.0155 23.6511 69.0964 23.5151 69.2043 23.3791C69.3122 23.2159 69.4065 23.0663 69.4874 22.9303C69.4605 22.9303 69.4335 22.9575 69.4065 23.0119C69.3796 23.0663 69.3526 23.1071 69.3256 23.1343C69.3256 23.1343 69.3661 23.0663 69.447 22.9303C69.6358 22.7126 69.8245 22.4678 70.0133 22.1958C70.229 21.9238 70.4583 21.6926 70.701 21.5022C70.9167 21.203 71.1594 20.9582 71.4291 20.7678C71.7257 20.5502 72.0089 20.2918 72.2785 19.9926C72.71 19.6934 73.101 19.4214 73.4516 19.1765C73.8022 18.9045 74.2336 18.6325 74.746 18.3605C74.773 18.1429 74.7999 17.9661 74.8269 17.8301C74.8539 17.6669 74.8808 17.5309 74.9078 17.4221C74.9348 17.2861 74.9482 17.1365 74.9482 16.9733C74.9752 16.8101 74.9887 16.6061 74.9887 16.3613C74.9617 16.3069 74.9617 16.2389 74.9887 16.1573C75.0426 16.0485 75.0561 15.9261 75.0291 15.79C75.0022 15.79 74.9752 15.7764 74.9482 15.7492C75.0022 15.6948 75.0157 15.5996 74.9887 15.4636C74.9887 15.3276 74.9617 15.1916 74.9078 15.0556C74.8539 15.0556 74.8269 15.042 74.8269 15.0148C74.5842 15.3956 74.3145 15.7492 74.0179 16.0757C73.7482 16.3749 73.492 16.6877 73.2493 17.0141C73.1684 17.1229 73.0336 17.3133 72.8448 17.5853C72.683 17.8573 72.4943 18.1429 72.2785 18.4421C72.0628 18.7413 71.8471 19.0133 71.6313 19.2581C71.4426 19.503 71.2942 19.639 71.1864 19.6662C71.0246 19.9654 70.8223 20.251 70.5796 20.523C70.3639 20.7678 70.1481 20.9038 69.9324 20.931C69.9054 20.9854 69.838 21.0534 69.7301 21.135C69.6223 21.1894 69.5009 21.2574 69.3661 21.339C69.2582 21.4206 69.1638 21.5158 69.0829 21.6246C68.9751 21.7062 68.9211 21.7742 68.9211 21.8286C68.7863 21.883 68.7189 21.8966 68.7189 21.8694C68.6919 21.8422 68.611 21.8286 68.4762 21.8286C68.4762 21.747 68.4088 21.7334 68.2739 21.7878C68.1121 21.815 68.0447 21.7742 68.0717 21.6654C68.0717 21.6382 68.0852 21.6246 68.1121 21.6246C68.1391 21.6246 68.1526 21.611 68.1526 21.5838C68.0447 21.611 68.0312 21.611 68.1121 21.5838C68.193 21.5294 68.1661 21.5022 68.0312 21.5022V21.4614C68.0852 21.4342 68.1391 21.3934 68.193 21.339C68.247 21.2846 68.247 21.271 68.193 21.2982C68.22 21.2438 68.193 21.2438 68.1121 21.2982C68.0312 21.3254 68.0178 21.3118 68.0717 21.2574C68.0447 21.203 68.0852 21.1486 68.193 21.0942C68.2739 21.0398 68.2874 20.9854 68.2335 20.931C68.2874 20.8494 68.3683 20.727 68.4762 20.5638C68.5841 20.3734 68.7054 20.183 68.8402 19.9926C68.9481 19.8022 69.056 19.6254 69.1638 19.4622C69.2717 19.2717 69.3661 19.1493 69.447 19.0949H69.4065C69.4065 19.0405 69.42 18.9861 69.447 18.9317C69.474 18.8773 69.5009 18.8093 69.5279 18.7277C69.5009 18.7549 69.5144 18.7685 69.5683 18.7685H69.6492C69.7032 18.6597 69.7301 18.6053 69.7301 18.6053C69.7301 18.6053 69.7841 18.5373 69.892 18.4013C69.9459 18.3741 69.9998 18.3469 70.0538 18.3197C70.1077 18.2925 70.1347 18.2517 70.1347 18.1973C70.2156 18.1429 70.2695 18.0613 70.2965 17.9525C70.3234 17.8165 70.3774 17.7213 70.4583 17.6669L72.9662 13.8316C73.2898 13.4236 73.5999 13.002 73.8965 12.5668C74.1932 12.1315 74.4898 11.6827 74.7864 11.2203C74.9213 11.1931 74.9887 11.1659 74.9887 11.1387C75.0157 11.0843 75.0561 11.0027 75.11 10.8939C75.0831 10.8395 75.0696 10.8123 75.0696 10.8123V10.7715C75.0696 10.3907 75.0966 10.1051 75.1505 9.91468C75.2044 9.69707 75.2314 9.43867 75.2314 9.13946C75.2853 9.11226 75.3258 9.09866 75.3527 9.09866C75.4067 9.09866 75.4606 9.07146 75.5145 9.01706C75.5955 9.01706 75.6494 9.05786 75.6764 9.13946C75.7033 9.19386 75.7438 9.22106 75.7977 9.22106C75.7977 9.22106 75.7977 9.18026 75.7977 9.09866C75.9056 8.98986 75.9865 8.96266 76.0404 9.01706C76.0674 9.01706 76.0674 9.00346 76.0404 8.97626C76.0404 8.94905 76.0674 8.93545 76.1213 8.93545C76.2022 9.07146 76.337 9.08506 76.5258 8.97626C76.5528 9.05786 76.6067 9.09866 76.6876 9.09866C76.7146 9.09866 76.7146 9.08506 76.6876 9.05786C76.6876 9.00346 76.7011 8.96266 76.7281 8.93545C76.8359 8.98986 76.9168 9.01706 76.9708 9.01706C76.9168 9.12586 76.9168 9.22106 76.9708 9.30266C77.0517 9.38427 77.1056 9.46587 77.1326 9.54747C77.1595 9.57467 77.2 9.57467 77.2539 9.54747C77.3079 9.49307 77.3213 9.43867 77.2944 9.38427L77.3348 9.42507V9.46587C77.3888 9.49307 77.4157 9.50667 77.4157 9.50667C77.4157 9.47947 77.4427 9.46587 77.4966 9.46587C77.4427 9.57467 77.4562 9.64267 77.5371 9.66987C77.564 9.61547 77.5775 9.53387 77.5775 9.42507C77.6854 9.53387 77.6854 9.69707 77.5775 9.91468C77.4697 10.1051 77.4831 10.2547 77.618 10.3635C77.564 10.4995 77.5371 10.6219 77.5371 10.7307C77.564 10.8395 77.5371 10.9619 77.4562 11.0979C77.4022 11.4787 77.3753 11.8867 77.3753 12.3219C77.4022 12.73 77.4157 13.1516 77.4157 13.5868C77.4157 13.5596 77.4157 13.5596 77.4157 13.5868C77.4427 13.5868 77.4562 13.614 77.4562 13.6684V13.9132H77.4157V13.9948C77.4697 14.0764 77.4831 14.158 77.4562 14.2396C77.4292 14.3212 77.4157 14.4028 77.4157 14.4844C77.3618 14.5932 77.3753 14.6748 77.4562 14.7292C77.4562 14.838 77.4562 14.9332 77.4562 15.0148C77.4831 15.0692 77.4831 15.1372 77.4562 15.2188V15.5452C77.4562 15.5724 77.4427 15.5996 77.4157 15.6268C77.4157 15.6812 77.4157 15.722 77.4157 15.7492C77.4427 15.7764 77.4562 15.8172 77.4562 15.8717V15.9941ZM70.0133 26.4392C70.1751 26.5208 70.3369 26.5344 70.4987 26.48C70.6605 26.4256 70.7953 26.3712 70.9032 26.3167C70.9302 26.3167 70.9437 26.3031 70.9437 26.2759C70.9437 26.2487 70.9571 26.2351 70.9841 26.2351C71.4695 25.9087 71.8336 25.5007 72.0763 25.0111C72.0223 24.9839 71.9954 24.9975 71.9954 25.0519C72.0223 25.0791 72.0223 25.0655 71.9954 25.0111C72.2381 24.7391 72.4403 24.4535 72.6021 24.1543V24.0319C72.71 23.9231 72.7909 23.8143 72.8448 23.7055C72.9257 23.5695 73.0201 23.4199 73.128 23.2567C73.3167 23.0119 73.4651 22.7262 73.5729 22.3998C73.6808 22.0462 73.8291 21.7198 74.0179 21.4206C74.0179 21.2846 74.0449 21.1758 74.0988 21.0942C74.1527 20.9854 74.1662 20.8766 74.1392 20.7678C73.8156 21.0126 73.492 21.271 73.1684 21.543C72.8718 21.815 72.5752 22.1142 72.2785 22.4406H72.1976C72.1976 22.495 72.1707 22.5222 72.1167 22.5222C72.1167 22.631 72.0493 22.7126 71.9145 22.767C71.9145 22.7942 71.901 22.8078 71.874 22.8078C71.874 22.8078 71.874 22.8214 71.874 22.8486C71.6852 23.0119 71.51 23.2159 71.3482 23.4607C71.1864 23.6783 71.0246 23.8959 70.8628 24.1135C70.8628 24.1407 70.8358 24.1815 70.7819 24.2359C70.7549 24.2631 70.7414 24.2631 70.7414 24.2359V24.1951C70.5526 24.5759 70.3639 24.9431 70.1751 25.2967C70.0133 25.6231 69.9594 26.0039 70.0133 26.4392ZM69.2852 23.1343C69.0964 23.4335 68.9211 23.7327 68.7593 24.0319C68.5706 24.3311 68.4088 24.6575 68.2739 25.0111C68.2739 24.7119 68.3414 24.4807 68.4762 24.3175C68.611 24.1543 68.7324 23.9639 68.8402 23.7463C68.8942 23.6375 68.9616 23.5287 69.0425 23.4199C69.1234 23.3111 69.2043 23.2159 69.2852 23.1343ZM75.2718 9.58827C75.3527 9.50667 75.3932 9.39787 75.3932 9.26186C75.3123 9.34346 75.2718 9.45227 75.2718 9.58827ZM77.4157 14.7292C77.3887 15.0284 77.3887 15.3004 77.4157 15.5452V14.7292ZM75.5145 9.26186C75.5145 9.31627 75.5011 9.34347 75.4741 9.34347C75.528 9.31627 75.5685 9.30266 75.5955 9.30266C75.6494 9.30266 75.6764 9.26186 75.6764 9.18026C75.6494 9.15306 75.6224 9.16666 75.5955 9.22106C75.5955 9.24826 75.5685 9.26186 75.5145 9.26186ZM77.6989 10.3227C77.6719 10.2683 77.6719 10.2139 77.6989 10.1595C77.7258 10.0779 77.7258 10.0099 77.6989 9.95548C77.7528 10.0099 77.7663 10.0643 77.7393 10.1187C77.7124 10.1731 77.6989 10.2411 77.6989 10.3227ZM69.447 27.5408C69.447 27.568 69.4335 27.568 69.4065 27.5408C69.4065 27.5408 69.4065 27.5544 69.4065 27.5816C69.3796 27.5816 69.3391 27.5544 69.2852 27.5C69.3122 27.4728 69.3391 27.4592 69.3661 27.4592C69.42 27.4864 69.447 27.5136 69.447 27.5408ZM71.1864 23.7463C71.1324 23.8823 71.0515 24.0047 70.9437 24.1135L71.1864 23.7463ZM70.701 24.5623C70.7549 24.3991 70.8088 24.2903 70.8628 24.2359L70.701 24.5623ZM74.8269 11.1795C74.8539 11.1251 74.8808 11.0843 74.9078 11.0571C74.9348 11.0027 74.9617 10.9483 74.9887 10.8939C74.9887 10.9483 74.9617 11.0027 74.9078 11.0571C74.8808 11.1115 74.8539 11.1523 74.8269 11.1795ZM71.7122 23.1751C71.6583 23.2839 71.5774 23.3655 71.4695 23.4199L71.7122 23.1751ZM77.2944 9.26186C77.2404 9.23466 77.2135 9.20746 77.2135 9.18026C77.2135 9.15306 77.2404 9.13946 77.2944 9.13946V9.26186ZM68.0312 21.4614L67.9908 21.5022C67.9908 21.4206 68.0043 21.3662 68.0312 21.339V21.4614ZM71.3482 23.6647C71.2942 23.6375 71.3212 23.5967 71.4291 23.5423L71.3482 23.6647ZM68.0717 25.7863C68.0717 25.8407 68.0717 25.8679 68.0717 25.8679C68.0717 25.7591 68.0717 25.7047 68.0717 25.7047V25.7863ZM80.9349 17.6261C80.9349 17.6533 80.8944 17.6669 80.8135 17.6669C80.8135 17.6397 80.854 17.6261 80.9349 17.6261ZM70.3369 25.0927C70.3099 25.0927 70.2965 25.1335 70.2965 25.2151C70.2156 25.1335 70.229 25.0927 70.3369 25.0927ZM74.8673 14.9332C74.8404 14.9604 74.8539 15.0012 74.9078 15.0556C74.8808 15.0284 74.8673 14.9876 74.8673 14.9332ZM75.4741 9.34347C75.4202 9.39787 75.4202 9.42507 75.4741 9.42507V9.34347ZM69.1638 27.4184C69.1369 27.4456 69.0964 27.432 69.0425 27.3776C69.0695 27.3776 69.0964 27.3776 69.1234 27.3776C69.1234 27.4048 69.1369 27.4184 69.1638 27.4184ZM69.3256 19.1765L69.4065 19.0949C69.3796 19.1221 69.3661 19.1357 69.3661 19.1357C69.3661 19.1629 69.3526 19.1765 69.3256 19.1765ZM70.9437 24.1135C70.9437 24.1407 70.9167 24.1815 70.8628 24.2359L70.9437 24.1135ZM77.4562 14.4436C77.4562 14.4708 77.4427 14.4844 77.4157 14.4844C77.4157 14.4844 77.4157 14.498 77.4157 14.5252V14.4844L77.4562 14.4436ZM77.4562 14.566C77.4292 14.566 77.4157 14.5524 77.4157 14.5252L77.4562 14.566Z" transform="translate(7.2583 3.63184)" fill="white"/>
<path d="M85.058 8.11943C84.3568 8.22823 83.6153 8.32344 82.8332 8.40504C82.0512 8.48664 81.2826 8.60904 80.5276 8.77225C80.5545 8.82665 80.595 8.85385 80.6489 8.85385C80.7298 8.82665 80.7972 8.81305 80.8512 8.81305L82.995 8.48664C82.9681 8.48664 82.9546 8.50024 82.9546 8.52744C82.9546 8.52744 82.9411 8.52744 82.9141 8.52744C82.8872 8.52744 82.8197 8.55464 82.7119 8.60904L81.1748 8.81305C80.986 8.84025 80.7972 8.86745 80.6085 8.89465C80.4467 8.92185 80.2714 8.92185 80.0826 8.89465C80.0826 8.89465 80.0826 8.86745 80.0826 8.81305C80.0556 8.78585 80.0152 8.78585 79.9612 8.81305C79.9073 8.84025 79.8534 8.85385 79.7994 8.85385C79.8534 8.79945 79.9073 8.77225 79.9612 8.77225C80.0421 8.77225 80.0691 8.71785 80.0421 8.60904C79.9882 8.60904 79.9612 8.62264 79.9612 8.64985C79.9882 8.67705 79.9747 8.69065 79.9208 8.69065C79.8669 8.69065 79.8399 8.67705 79.8399 8.64985C79.8669 8.59544 79.8534 8.58184 79.7994 8.60904C79.6646 8.63625 79.5298 8.63625 79.3949 8.60904C79.2871 8.58184 79.1657 8.59544 79.0309 8.64985C79.0848 8.59544 79.1388 8.47304 79.1927 8.28264C79.2197 8.09223 79.2601 7.98343 79.314 7.95623C79.4219 7.92903 79.5163 7.88822 79.5972 7.83382C79.6781 7.75222 79.7455 7.69782 79.7994 7.67062C80.0152 7.58902 80.2309 7.53461 80.4467 7.50741C80.6624 7.48021 80.8916 7.43941 81.1343 7.38501C81.8354 7.24901 82.5501 7.1402 83.2782 7.0586C84.0332 6.977 84.8018 6.85459 85.5838 6.69139C85.8266 6.28338 86.0288 5.91617 86.1906 5.58976C86.3794 5.26335 86.5546 4.95054 86.7165 4.65133C86.9052 4.35212 87.0805 4.03931 87.2423 3.71291C87.4311 3.3865 87.6333 3.00569 87.8491 2.57047C87.903 2.54327 87.9435 2.51607 87.9704 2.48887C88.0244 2.46167 88.0783 2.43447 88.1322 2.40727C88.1592 2.38007 88.1727 2.33927 88.1727 2.28486C88.3075 2.28486 88.3749 2.24406 88.3749 2.16246C88.4019 2.05366 88.4828 2.01286 88.6176 2.04006C88.7255 2.12166 88.8738 2.20326 89.0626 2.28486C89.2513 2.33927 89.4131 2.36647 89.548 2.36647C89.6019 2.50247 89.6828 2.58407 89.7907 2.61127C89.9255 2.63848 90.0334 2.69288 90.1143 2.77448L90.3974 3.14169C90.5053 3.30489 90.5592 3.4545 90.5592 3.5905C90.5053 3.6449 90.4649 3.72651 90.4379 3.83531C90.4379 3.91691 90.3974 3.98491 90.3165 4.03931C90.1278 4.52893 89.8985 5.00494 89.6289 5.46736C89.3592 5.90257 89.103 6.36498 88.8603 6.8546L91.2469 6.69139C92.0559 6.63699 92.7975 6.59619 93.4717 6.56899C94.1458 6.54179 94.9279 6.56899 95.8178 6.65059C95.9526 6.67779 96.074 6.69139 96.1818 6.69139C96.2897 6.69139 96.3706 6.73219 96.4245 6.81379C96.3706 6.84099 96.3841 6.8818 96.465 6.9362C96.5459 6.9634 96.5594 6.9906 96.5054 7.0178C96.4785 7.0722 96.4111 7.1402 96.3032 7.22181C96.2223 7.30341 96.1953 7.34421 96.2223 7.34421C96.1953 7.39861 96.1279 7.42581 96.02 7.42581C95.9391 7.39861 95.8987 7.41221 95.8987 7.46661C95.8447 7.43941 95.8043 7.45301 95.7773 7.50741C95.7773 7.53461 95.7504 7.52101 95.6964 7.46661C95.4807 7.57542 95.2515 7.62982 95.0088 7.62982C94.793 7.60262 94.5638 7.61622 94.3211 7.67062C93.7009 7.72502 93.1885 7.77942 92.784 7.83382C92.3795 7.86102 91.8806 7.91543 91.2873 7.99703C91.1255 7.99703 90.9503 7.99703 90.7615 7.99703C90.5997 7.99703 90.4514 8.02423 90.3165 8.07863C90.2626 8.07863 90.2222 8.07863 90.1952 8.07863C90.1952 8.05143 90.1682 8.05143 90.1143 8.07863C90.0604 8.07863 90.0199 8.09223 89.9929 8.11943C89.966 8.14663 89.9255 8.16023 89.8716 8.16023C89.8176 8.18743 89.7637 8.20103 89.7098 8.20103C89.6558 8.17383 89.6019 8.17383 89.548 8.20103H89.3053C89.2244 8.20103 89.13 8.21463 89.0221 8.24183C88.9412 8.26904 88.8738 8.29624 88.8199 8.32344C88.8738 8.32344 88.9277 8.33704 88.9817 8.36424C89.0626 8.36424 89.1165 8.35064 89.1435 8.32344C89.1165 8.43224 88.9952 8.50024 88.7794 8.52744C88.5637 8.52744 88.3749 8.54104 88.2131 8.56824C87.7008 9.65627 87.2153 10.6219 86.7569 11.4651C86.2985 12.3084 85.8535 13.138 85.422 13.954C85.0175 14.77 84.5996 15.6268 84.1681 16.5245C83.7366 17.3949 83.2917 18.4013 82.8332 19.5438C82.7793 19.6254 82.7253 19.6934 82.6714 19.7478C82.6444 19.8022 82.6444 19.8702 82.6714 19.9518L82.5905 20.115C82.3208 20.8494 82.0377 21.5022 81.7411 22.0734C81.4714 22.6174 81.2826 23.3247 81.1748 24.1951C81.1748 24.2223 81.1748 24.2223 81.1748 24.1951C81.2017 24.1679 81.2152 24.1679 81.2152 24.1951C81.2152 24.2223 81.2017 24.2359 81.1748 24.2359C81.1748 24.2359 81.1748 24.2495 81.1748 24.2767C81.3096 24.2223 81.5118 24.1271 81.7815 23.9911C82.0512 23.8551 82.24 23.7327 82.3478 23.6239C82.3209 23.6239 82.3074 23.6239 82.3074 23.6239C82.3074 23.5967 82.2939 23.5831 82.2669 23.5831C82.4557 23.5287 82.5905 23.4471 82.6714 23.3383C82.7793 23.2295 82.9006 23.1207 83.0355 23.0119C83.0085 23.0663 82.9815 23.1207 82.9546 23.1751C82.9276 23.2023 82.9006 23.2431 82.8737 23.2975L82.9141 23.2567C82.8872 23.3111 82.8737 23.3655 82.8737 23.4199C82.9276 23.3383 82.9815 23.2703 83.0355 23.2159C83.1164 23.1615 83.1703 23.0799 83.1973 22.9711L83.3186 22.767C83.6962 22.4134 84.0198 22.1006 84.2894 21.8286C84.5861 21.5566 84.9231 21.2302 85.3007 20.8494C85.0041 21.2574 84.6805 21.5974 84.3299 21.8694C84.0063 22.1142 83.6962 22.427 83.3995 22.8078C83.7771 22.5358 84.1142 22.2638 84.4108 21.9918C84.7074 21.7198 85.0175 21.3934 85.3411 21.0126C85.3951 20.931 85.5164 20.795 85.7052 20.6046C85.9209 20.4142 86.1502 20.2102 86.3929 19.9926C86.6356 19.7478 86.8513 19.5302 87.0401 19.3397C87.2558 19.1221 87.3906 18.9725 87.4446 18.8909V18.9725C87.903 18.4829 88.348 17.9525 88.7794 17.3813C89.2379 16.7829 89.7368 16.2389 90.2761 15.7492C90.2222 15.8853 90.1547 15.9941 90.0738 16.0757L89.2648 16.9325C89.13 17.0957 89.0086 17.2589 88.9008 17.4221C88.8199 17.5853 88.712 17.7349 88.5772 17.8709C88.4423 18.0341 88.3075 18.2109 88.1727 18.4013C88.0648 18.5917 87.9569 18.7685 87.8491 18.9317C87.93 18.8773 87.9839 18.8093 88.0109 18.7277C88.0648 18.6461 88.1187 18.5781 88.1727 18.5237C88.3884 18.3061 88.5772 18.0885 88.739 17.8709C88.9277 17.6261 89.13 17.4085 89.3457 17.2181C89.5884 16.9189 89.8311 16.6333 90.0738 16.3613C90.3165 16.0621 90.5727 15.8036 90.8424 15.586C90.8963 15.6676 90.8828 15.7356 90.8019 15.79C90.748 15.8445 90.6941 15.8989 90.6401 15.9533C90.3435 16.3885 90.0199 16.8101 89.6693 17.2181C89.3457 17.6261 89.0086 18.0341 88.6581 18.4421C88.6311 18.4965 88.6716 18.4693 88.7794 18.3605C88.8873 18.2517 88.9952 18.1293 89.103 17.9933C89.2379 17.8573 89.3592 17.7349 89.4671 17.6261C89.575 17.5173 89.6154 17.4901 89.5884 17.5445C89.6154 17.5445 89.6289 17.5445 89.6289 17.5445C89.6289 17.5173 89.6424 17.5037 89.6693 17.5037C89.6154 17.5581 89.5884 17.6125 89.5884 17.6669C89.5884 17.6941 89.5749 17.7349 89.548 17.7893C89.5749 17.8437 89.6019 17.8709 89.6289 17.8709C89.6828 17.8437 89.7233 17.8437 89.7502 17.8709C89.9929 17.6261 90.1682 17.4493 90.2761 17.3405C90.384 17.2317 90.4918 17.1501 90.5997 17.0957C90.7076 17.0141 90.8154 16.9325 90.9233 16.8509C91.0312 16.7421 91.2065 16.5653 91.4492 16.3205C91.3952 16.4293 91.3278 16.5245 91.2469 16.6061C91.166 16.6605 91.0986 16.7421 91.0446 16.8509C91.1255 16.7965 91.2064 16.7149 91.2873 16.6061C91.3952 16.4973 91.5031 16.4157 91.6109 16.3613C91.2604 16.8237 90.8694 17.2725 90.4379 17.7077C90.0334 18.1429 89.6693 18.6053 89.3457 19.0949C89.4806 19.0405 89.5884 18.9453 89.6693 18.8093C89.7502 18.6733 89.8446 18.5509 89.9525 18.4421C89.7367 18.8501 89.521 19.1901 89.3053 19.4622C89.0895 19.7342 88.8468 20.0606 88.5772 20.4414C88.6311 20.4414 88.6041 20.523 88.4963 20.6862C88.3884 20.8222 88.3614 20.8902 88.4154 20.8902C88.3884 20.9446 88.3075 21.0126 88.1727 21.0942C88.0648 21.2574 87.876 21.475 87.6064 21.747C87.3637 22.019 87.094 22.3046 86.7974 22.6038C86.5007 22.9031 86.2176 23.1887 85.9479 23.4607C85.6782 23.7327 85.4895 23.9503 85.3816 24.1135C85.3546 24.1407 85.3411 24.1679 85.3411 24.1951C85.3681 24.1951 85.3681 24.2087 85.3411 24.2359C84.9366 24.6167 84.5052 25.0247 84.0467 25.4599C83.5883 25.8679 83.1164 26.2351 82.631 26.5616C82.577 26.616 82.4961 26.6568 82.3883 26.684C82.3074 26.7112 82.2265 26.752 82.1456 26.8064C82.0647 26.8336 81.9838 26.8608 81.9029 26.888C81.822 26.9152 81.7276 26.9424 81.6197 26.9696C81.4579 27.024 81.2152 27.024 80.8916 26.9696C80.568 26.9424 80.3523 26.888 80.2444 26.8064C79.9478 26.9152 79.7051 26.888 79.5163 26.7248C79.3545 26.5888 79.2197 26.4392 79.1118 26.2759C79.1118 26.2759 79.1118 26.2351 79.1118 26.1535C78.8961 25.9903 78.8286 25.6911 78.9095 25.2559C78.9095 25.2287 78.9095 25.2287 78.9095 25.2559C78.8826 25.2831 78.8556 25.2831 78.8286 25.2559C78.7208 25.1199 78.6399 24.9839 78.5859 24.8479C78.505 24.6847 78.4781 24.4943 78.505 24.2767C78.4511 23.8687 78.4646 23.4335 78.5455 22.9711C78.6264 22.427 78.7882 21.8694 79.0309 21.2982C79.1657 20.7542 79.314 20.2374 79.4758 19.7478C79.7455 19.0133 80.0017 18.3469 80.2444 17.7485C80.4871 17.1229 80.7298 16.5381 80.9725 15.9941C81.2152 15.4228 81.4714 14.8652 81.7411 14.3212C82.0377 13.75 82.3478 13.1516 82.6714 12.526V12.4036C82.7253 12.2675 82.7523 12.2131 82.7523 12.2403C82.7523 12.2403 82.7523 12.2539 82.7523 12.2811C82.7523 12.3083 82.7523 12.3356 82.7523 12.3628C82.7523 12.3628 82.7793 12.2947 82.8332 12.1587C82.9411 11.9955 83.0894 11.7371 83.2782 11.3835C83.4939 11.0299 83.7096 10.6627 83.9254 10.2819C84.1411 9.87388 84.3434 9.49307 84.5321 9.13946C84.7209 8.78585 84.8692 8.52744 84.9771 8.36424C84.8153 8.39144 84.6535 8.40504 84.4917 8.40504C84.3299 8.37784 84.1681 8.37784 84.0063 8.40504L84.7748 8.28264C84.8288 8.22823 84.8827 8.21463 84.9366 8.24183C84.9906 8.26904 85.0445 8.25543 85.0984 8.20103V8.16023C85.0984 8.16023 85.085 8.14663 85.058 8.11943ZM90.2761 4.40652C90.33 4.29772 90.357 4.25692 90.357 4.28412C90.33 4.25692 90.3165 4.25692 90.3165 4.28412C90.3165 4.31132 90.3031 4.32492 90.2761 4.32492C90.33 4.21612 90.3705 4.16172 90.3974 4.16172C90.3974 4.29772 90.357 4.37932 90.2761 4.40652ZM89.1839 19.911C89.0491 20.1286 88.9008 20.319 88.739 20.4822C88.7929 20.4006 88.8603 20.319 88.9412 20.2374C89.0491 20.1286 89.13 20.0198 89.1839 19.911ZM88.1727 18.1157C88.1187 18.1701 88.0783 18.2109 88.0513 18.2381C88.0513 18.2653 88.0244 18.2925 87.9704 18.3197C88.0244 18.1837 88.0918 18.1157 88.1727 18.1157ZM87.5255 21.6654C87.6333 21.6654 87.6873 21.6246 87.6873 21.543C87.5794 21.543 87.5255 21.5838 87.5255 21.6654ZM90.4783 8.16023C90.4514 8.24183 90.4109 8.26904 90.357 8.24183C90.357 8.18743 90.3974 8.16023 90.4783 8.16023ZM90.2356 8.24183C90.2356 8.26904 90.1817 8.28264 90.0738 8.28264C90.0738 8.22823 90.0873 8.21463 90.1143 8.24183C90.1682 8.24183 90.2087 8.24183 90.2356 8.24183ZM87.7682 18.5237C87.7951 18.5781 87.7816 18.6189 87.7277 18.6461C87.6738 18.6733 87.6333 18.7141 87.6064 18.7685C87.6064 18.7141 87.6198 18.6733 87.6468 18.6461C87.7007 18.6189 87.7412 18.5781 87.7682 18.5237ZM83.6422 8.40504C83.6153 8.43224 83.5883 8.44584 83.5613 8.44584H83.5209C83.5478 8.44584 83.5613 8.44584 83.5613 8.44584C83.5613 8.41864 83.5748 8.40504 83.6018 8.40504H83.6422ZM89.5075 19.503C89.5075 19.5302 89.494 19.5574 89.4671 19.5846C89.4401 19.6118 89.4266 19.639 89.4266 19.6662C89.4266 19.6118 89.4266 19.5846 89.4266 19.5846C89.4536 19.5846 89.4806 19.5574 89.5075 19.503ZM83.1973 22.9711H83.1568C83.1568 22.9711 83.1703 22.9575 83.1973 22.9303V22.9711Z" transform="translate(7.2583 3.63184)" fill="white"/>
</svg>
