<svg width="131" height="37" viewBox="0 0 131 37" fill="none" xmlns="http://www.w3.org/2000/svg">
<path fill-rule="evenodd" clip-rule="evenodd" d="M-1.65659e-05 3.77507L1.35706 2.42682C4.61406 -0.808983 9.771 -0.808983 12.7566 2.42682L15.4707 5.12332C17.0992 6.74122 17.642 8.62878 17.642 10.786V23.7292C17.3706 21.8417 16.5564 20.2237 15.1993 18.8755C-0.814249 2.96613 16.285 19.9541 -1.65659e-05 3.77507Z" transform="translate(17.9136 0.726318)" fill="#1CEBBC"/>
<path fill-rule="evenodd" clip-rule="evenodd" d="M20.0848 0L21.4419 1.34825C24.6989 4.58405 24.6989 9.70743 21.4419 12.6736L18.7277 15.3701C17.0992 16.988 15.1993 17.5272 13.028 17.5272H3.31319e-05C1.89995 17.2576 3.52841 16.4487 4.88549 15.1004C20.8991 -0.808934 3.79984 16.179 20.0848 0Z" transform="translate(11.9429 18.522)" fill="#5F45EA"/>
<path fill-rule="evenodd" clip-rule="evenodd" d="M17.642 19.9541L16.285 21.3024C13.028 24.5382 7.87111 24.5382 4.88553 21.3024L2.17136 18.6059C0.542866 16.988 -1.65659e-05 15.1004 -1.65659e-05 12.9432V-3.29163e-05C0.2714 1.88752 1.08563 3.50547 2.44271 4.85372C18.4563 20.7631 1.35706 3.77513 17.642 19.9541Z" transform="translate(0.271484 12.5894)" fill="#8667F7"/>
<path fill-rule="evenodd" clip-rule="evenodd" d="M3.79986 17.5272L2.44278 16.179C-0.814216 12.9432 -0.814216 7.81982 2.44278 4.85367L5.15694 2.15717C6.78544 0.539267 8.68529 0 10.8566 0H23.8846C21.9847 0.26965 20.3562 1.07858 18.9991 2.42683C2.98555 18.3362 20.0848 1.34825 3.79986 17.5272Z" transform="translate(0 0.994873)" fill="#64ECF5"/>
<path d="M3.82499 10.8732H10.4364L10.0564 9.79094L7.1687 1.30882C6.94916 1.98 5.96125 4.81576 4.20496 9.8161L3.82499 10.8732ZM12.5136 16.9642L10.8924 12.2575H3.3437L1.69718 16.9642H0L6.0288 0H8.3086L14.2107 16.9642H12.5136Z" transform="translate(45.0713 9.39746)" fill="black"/>
<path d="M18.6366 4.20331V6.36788C19.3458 4.82415 20.5448 4.05229 22.2336 4.05229C22.3518 4.05229 22.5629 4.06907 22.8668 4.10263V5.66314C22.5291 5.56246 22.1914 5.51212 21.8536 5.51212C20.9417 5.51212 20.1733 5.96517 19.5485 6.87127C18.9405 7.7606 18.6366 8.7506 18.6366 9.84128V16.9642H17.0914V4.20331H18.6366Z" transform="translate(45.0713 9.39746)" fill="black"/>
<path d="M27.4379 5.51212V13.4405C27.4379 14.9003 28.1219 15.6303 29.4897 15.6303C30.1652 15.6303 30.7394 15.4373 31.2123 15.0514V16.6119C30.7225 16.9307 30.1568 17.0901 29.5151 17.0901C27.0833 17.0901 25.8674 15.8484 25.8674 13.365V5.51212H23.7649V4.20331H25.8674V1.00678H27.4379V4.20331H31.1109V5.51212H27.4379Z" transform="translate(45.0713 9.39746)" fill="black"/>
<path d="M37.0449 16.9642L33.1186 4.20331H34.8158L36.0824 8.43178C36.5552 10.0091 36.9521 11.385 37.2729 12.5596C37.6107 13.7174 37.8302 14.4809 37.9315 14.85L38.0582 15.4289C38.3622 14.3382 39.0376 11.9975 40.0847 8.40661L41.3006 4.20331H43.1244L44.391 8.40661L46.4681 15.4792C46.7383 14.4892 47.456 12.1317 48.6212 8.40661L49.9385 4.20331H51.5597L47.5067 16.9642H45.4295L44.1883 12.7861L42.2125 5.99034C41.9254 7.04746 41.2921 9.31271 40.3126 12.7861L39.1221 16.9642H37.0449Z" transform="translate(45.0713 9.39746)" fill="black"/>
<path d="M59.3638 17.1908C57.5569 17.1908 56.1214 16.5699 55.0575 15.3282C53.9936 14.0865 53.4617 12.526 53.4617 10.6467C53.4617 8.78416 54.0105 7.21526 55.1082 5.94C56.2059 4.66475 57.6244 4.02712 59.3638 4.02712C61.2721 4.02712 62.7497 4.65636 63.7967 5.91483C64.8606 7.15653 65.3926 8.73382 65.3926 10.6467C65.3926 12.5428 64.8522 14.1117 63.7714 15.3534C62.7075 16.5783 61.2383 17.1908 59.3638 17.1908ZM59.3638 5.48695C58.0297 5.48695 56.9827 5.99034 56.2227 6.99712C55.4628 8.0039 55.0828 9.22043 55.0828 10.6467C55.0828 12.0394 55.4713 13.2392 56.2481 14.2459C57.0418 15.2359 58.0804 15.7309 59.3638 15.7309C60.7655 15.7309 61.8462 15.2443 62.6062 14.2711C63.383 13.2811 63.7714 12.073 63.7714 10.6467C63.7714 9.17009 63.4083 7.94517 62.6822 6.97195C61.956 5.98195 60.8499 5.48695 59.3638 5.48695Z" transform="translate(45.0713 9.39746)" fill="black"/>
<path d="M69.9914 4.20331V6.36788C70.7006 4.82415 71.8997 4.05229 73.5884 4.05229C73.7066 4.05229 73.9177 4.06907 74.2217 4.10263V5.66314C73.8839 5.56246 73.5462 5.51212 73.2084 5.51212C72.2965 5.51212 71.5281 5.96517 70.9033 6.87127C70.2953 7.7606 69.9914 8.7506 69.9914 9.84128V16.9642H68.4462V4.20331H69.9914Z" transform="translate(45.0713 9.39746)" fill="black"/>
<path d="M81.2752 10.4202L85.5815 16.9642H83.7323L80.3633 11.6031L76.9183 16.9642H75.1704L79.4007 10.395L75.4237 4.17814H77.2476L80.3886 9.21204L83.5043 4.17814H85.3028L81.2752 10.4202Z" transform="translate(45.0713 9.39746)" fill="black"/>
</svg>
