<svg width="138" height="32" viewBox="0 0 138 32" fill="none" xmlns="http://www.w3.org/2000/svg">
<path fill-rule="evenodd" clip-rule="evenodd" d="M11.5935 0.647214L2.57634 5.82464L8.58776 9.27639L13.9551 6.25612L21.6841 10.7865V19.847L13.9551 24.3774L8.58776 21.3572L2.57634 24.8089L11.5935 29.9864C13.0964 30.8493 14.8139 30.8493 16.5315 29.9864L25.5487 24.8089C27.0516 23.946 27.9103 22.4359 27.9103 20.4943V10.1392C27.9103 8.41339 27.0516 6.90329 25.5487 5.82464L16.5315 0.647214C14.8139 -0.215703 13.0964 -0.215703 11.5935 0.647214ZM-2.62078e-05 10.1392L6.01146 13.591V17.0426L-2.62078e-05 20.4943V10.1392Z" transform="translate(0.000488281 0.860596)" fill="#5F45EA"/>
<path d="M0 19.2301V0H5.31882C6.8058 0 8.152 0.3522 9.35742 1.0566C10.5628 1.761 11.5087 2.75156 12.195 4.02829C12.8813 5.29621 13.2333 6.71822 13.2509 8.29431V10.7905C13.2509 12.393 12.9121 13.8371 12.2346 15.1226C11.5659 16.4081 10.6288 17.4119 9.42341 18.1339C8.21799 18.8559 6.87179 19.2213 5.38481 19.2301H0ZM0.712695 0.713205V18.5169H5.31882C6.66502 18.5169 7.88804 18.1911 8.98788 17.5396C10.0965 16.8792 10.9632 15.9635 11.5879 14.7924C12.2126 13.6125 12.5294 12.305 12.5382 10.8698V8.39997C12.5382 6.96476 12.2302 5.66162 11.6143 4.49055C11.0072 3.31949 10.1537 2.40377 9.05387 1.74339C7.96283 1.07421 6.75301 0.730815 5.4244 0.713205H0.712695Z" transform="translate(34.9795 5.63257)" fill="#34314B"/>
<path d="M22.4499 19.4943C21.2973 19.4943 20.237 19.1861 19.2692 18.5698C18.3101 17.9446 17.5578 17.0905 17.0123 16.0075C16.4668 14.9245 16.194 13.7226 16.194 12.4018V11.8075C16.194 10.4868 16.458 9.27607 16.9859 8.17545C17.5138 7.07482 18.2397 6.21633 19.1636 5.59998C20.0874 4.98363 21.0949 4.67546 22.1859 4.67546C23.7785 4.67546 25.0807 5.24338 26.0926 6.37923C27.1044 7.51507 27.6103 9.00752 27.6103 10.8566V11.6094H16.9067V12.3886C16.9067 13.5509 17.1487 14.6295 17.6326 15.6245C18.1253 16.6106 18.7984 17.3855 19.6519 17.949C20.5142 18.5125 21.4468 18.7943 22.4499 18.7943C23.409 18.7943 24.2228 18.6358 24.8915 18.3188C25.569 17.993 26.1674 17.4955 26.6865 16.8264L27.188 17.183C26.1234 18.7238 24.544 19.4943 22.4499 19.4943ZM22.1859 5.38866C20.7957 5.38866 19.6167 5.90816 18.6489 6.94715C17.681 7.97733 17.1135 9.29368 16.9463 10.8962H26.8976V10.7245C26.8976 9.75595 26.6909 8.85783 26.2773 8.03016C25.8726 7.19369 25.3095 6.54652 24.588 6.08866C23.8753 5.622 23.0746 5.38866 22.1859 5.38866Z" transform="translate(34.9795 5.63257)" fill="#34314B"/>
<path d="M35.7799 18.7811C37.0733 18.7811 38.138 18.4377 38.9739 17.7509C39.8185 17.0641 40.2805 16.1132 40.3597 14.8981H41.0724C41.002 16.2805 40.4696 17.3943 39.4754 18.2396C38.4811 19.076 37.2493 19.4943 35.7799 19.4943C33.9938 19.4943 32.5728 18.8471 31.517 17.5528C30.4699 16.2584 29.9464 14.5018 29.9464 12.283V11.8075C29.9464 9.64148 30.4699 7.9113 31.517 6.61696C32.5728 5.32263 33.985 4.67546 35.7535 4.67546C37.2669 4.67546 38.5163 5.12891 39.5018 6.03583C40.4872 6.94275 41.0108 8.14903 41.0724 9.65469H40.3597C40.2981 8.36916 39.8449 7.33897 39.0003 6.56413C38.1644 5.78049 37.0821 5.38866 35.7535 5.38866C34.161 5.38866 32.9116 5.96539 32.0053 7.11885C31.1078 8.2635 30.6591 9.8572 30.6591 11.9V12.3622C30.6591 14.361 31.1122 15.9327 32.0185 17.0773C32.9336 18.2132 34.1874 18.7811 35.7799 18.7811Z" transform="translate(34.9795 5.63257)" fill="#34314B"/>
<path d="M43.58 11.8075C43.58 10.4427 43.8396 9.21884 44.3587 8.13582C44.8866 7.044 45.6257 6.19432 46.5759 5.58678C47.535 4.97923 48.6172 4.67546 49.8227 4.67546C51.0193 4.67546 52.0927 4.97043 53.043 5.56036C53.9933 6.1503 54.7323 6.98677 55.2603 8.06979C55.797 9.1528 56.0698 10.3723 56.0785 11.7283V12.3622C56.0785 13.7358 55.819 14.9641 55.2999 16.0471C54.7807 17.1301 54.0416 17.9754 53.0826 18.583C52.1323 19.1905 51.0545 19.4943 49.8491 19.4943C48.6436 19.4943 47.5614 19.1949 46.6023 18.5962C45.6521 17.9974 44.913 17.161 44.3851 16.0867C43.8571 15.0037 43.5888 13.7886 43.58 12.4415V11.8075ZM44.2927 12.3622C44.2927 13.5509 44.5258 14.6427 44.9922 15.6377C45.4673 16.6238 46.1228 17.3943 46.9587 17.949C47.8034 18.5037 48.7668 18.7811 49.8491 18.7811C51.4768 18.7811 52.801 18.1691 53.8217 16.9452C54.8511 15.7213 55.3659 14.1452 55.3659 12.2169V11.8075C55.3659 10.6364 55.1283 9.55343 54.6532 8.55846C54.178 7.5635 53.5181 6.78866 52.6735 6.23394C51.8376 5.67042 50.8873 5.38866 49.8227 5.38866C48.1949 5.38866 46.8663 6.00942 45.8369 7.25092C44.8074 8.49243 44.2927 10.0553 44.2927 11.9396V12.3622Z" transform="translate(34.9795 5.63257)" fill="#34314B"/>
<path d="M65.8451 5.4547L64.9212 5.37546C63.707 5.37546 62.6908 5.77168 61.8725 6.56413C61.0542 7.34778 60.5175 8.4484 60.2623 9.86601V19.2301H59.5496V4.93961H60.2623V7.9113C60.6495 6.91633 61.2302 6.12828 62.0045 5.54715C62.7788 4.96602 63.751 4.67546 64.9212 4.67546C65.3348 4.67546 65.6691 4.72389 65.9243 4.82074L65.8451 5.4547Z" transform="translate(34.9795 5.63257)" fill="#34314B"/>
<path d="M67.2573 11.8075C67.2573 10.4427 67.5169 9.21884 68.036 8.13582C68.5639 7.044 69.303 6.19432 70.2533 5.58678C71.2123 4.97923 72.2946 4.67546 73.5 4.67546C74.6966 4.67546 75.7701 4.97043 76.7203 5.56036C77.6706 6.1503 78.4097 6.98677 78.9376 8.06979C79.4743 9.1528 79.7471 10.3723 79.7559 11.7283V12.3622C79.7559 13.7358 79.4963 14.9641 78.9772 16.0471C78.4581 17.1301 77.719 17.9754 76.7599 18.583C75.8096 19.1905 74.7318 19.4943 73.5264 19.4943C72.321 19.4943 71.2387 19.1949 70.2797 18.5962C69.3294 17.9974 68.5903 17.161 68.0624 16.0867C67.5345 15.0037 67.2661 13.7886 67.2573 12.4415V11.8075ZM67.97 12.3622C67.97 13.5509 68.2032 14.6427 68.6695 15.6377C69.1446 16.6238 69.8001 17.3943 70.636 17.949C71.4807 18.5037 72.4441 18.7811 73.5264 18.7811C75.1541 18.7811 76.4783 18.1691 77.499 16.9452C78.5285 15.7213 79.0432 14.1452 79.0432 12.2169V11.8075C79.0432 10.6364 78.8056 9.55343 78.3305 8.55846C77.8553 7.5635 77.1954 6.78866 76.3508 6.23394C75.5149 5.67042 74.5646 5.38866 73.5 5.38866C71.8722 5.38866 70.5436 6.00942 69.5142 7.25092C68.4847 8.49243 67.97 10.0553 67.97 11.9396V12.3622Z" transform="translate(34.9795 5.63257)" fill="#34314B"/>
<path d="M84.8239 1.08302V4.93961H88.0706V5.66602H84.8239V15.8094C84.8239 16.822 84.9867 17.5704 85.3122 18.0547C85.6466 18.5389 86.2009 18.7811 86.9752 18.7811C87.3623 18.7811 87.8331 18.7415 88.3874 18.6622L88.5062 19.3358C88.2158 19.4415 87.7187 19.4943 87.0148 19.4943C85.9765 19.4943 85.2331 19.2081 84.7843 18.6358C84.3356 18.0547 84.1068 17.1433 84.098 15.9018V5.66602H81.4584V4.93961H84.098V1.08302H84.8239Z" transform="translate(34.9795 5.63257)" fill="#34314B"/>
<path d="M90.4331 11.8075C90.4331 10.4427 90.6927 9.21884 91.2118 8.13582C91.7397 7.044 92.4788 6.19432 93.4291 5.58678C94.3881 4.97923 95.4704 4.67546 96.6758 4.67546C97.8724 4.67546 98.9458 4.97043 99.8961 5.56036C100.846 6.1503 101.585 6.98677 102.113 8.06979C102.65 9.1528 102.923 10.3723 102.932 11.7283V12.3622C102.932 13.7358 102.672 14.9641 102.153 16.0471C101.634 17.1301 100.895 17.9754 99.9357 18.583C98.9854 19.1905 97.9076 19.4943 96.7022 19.4943C95.4967 19.4943 94.4145 19.1949 93.4555 18.5962C92.5052 17.9974 91.7661 17.161 91.2382 16.0867C90.7103 15.0037 90.4419 13.7886 90.4331 12.4415V11.8075ZM91.1458 12.3622C91.1458 13.5509 91.379 14.6427 91.8453 15.6377C92.3204 16.6238 92.9759 17.3943 93.8118 17.949C94.6565 18.5037 95.6199 18.7811 96.7022 18.7811C98.3299 18.7811 99.6541 18.1691 100.675 16.9452C101.704 15.7213 102.219 14.1452 102.219 12.2169V11.8075C102.219 10.6364 101.981 9.55343 101.506 8.55846C101.031 7.5635 100.371 6.78866 99.5266 6.23394C98.6907 5.67042 97.7404 5.38866 96.6758 5.38866C95.048 5.38866 93.7194 6.00942 92.69 7.25092C91.6605 8.49243 91.1458 10.0553 91.1458 11.9396V12.3622Z" transform="translate(34.9795 5.63257)" fill="#34314B"/>
<path fill-rule="evenodd" clip-rule="evenodd" d="M11.3788 6.68761L-2.62078e-05 13.3752V5.26683e-05L11.3788 6.68761Z" transform="translate(0 9.48975)" fill="#64ECF5"/>
</svg>
