<svg width="72" height="74" viewBox="0 0 72 74" fill="none" xmlns="http://www.w3.org/2000/svg">
<path d="M23.625 17.125C24.75 17.125 25.793 16.8555 26.7539 16.3164C27.7148 15.7773 28.5469 15.0859 29.25 14.2422C29.9531 13.375 30.5039 12.4023 30.9023 11.3242C31.3008 10.2461 31.5 9.17969 31.5 8.125C31.5 7.04688 31.2891 6.02734 30.8672 5.06641C30.4688 4.10547 29.9062 3.27344 29.1797 2.57031C28.4766 1.84375 27.6445 1.28125 26.6836 0.882812C25.7227 0.460938 24.7031 0.25 23.625 0.25C22.5469 0.25 21.5273 0.460938 20.5664 0.882812C19.6055 1.28125 18.7617 1.84375 18.0352 2.57031C17.332 3.27344 16.7695 4.10547 16.3477 5.06641C15.9492 6.02734 15.75 7.04688 15.75 8.125C15.75 9.17969 15.9492 10.2461 16.3477 11.3242C16.7461 12.4023 17.2969 13.375 18 14.2422C18.7031 15.0859 19.5352 15.7773 20.4961 16.3164C21.457 16.8555 22.5 17.125 23.625 17.125ZM23.625 2.5C25.1719 2.5 26.4961 3.05078 27.5977 4.15234C28.6992 5.25391 29.25 6.57812 29.25 8.125C29.25 9.64844 28.6992 11.1602 27.5977 12.6602C26.4961 14.1367 25.1719 14.875 23.625 14.875C22.0781 14.875 20.7539 14.1367 19.6523 12.6602C18.5508 11.1602 18 9.64844 18 8.125C18 6.57812 18.5508 5.25391 19.6523 4.15234C20.7539 3.05078 22.0781 2.5 23.625 2.5ZM32.6953 21.3438C31.7344 20.8984 30.4805 20.4648 28.9336 20.043C27.3867 19.5977 25.6172 19.375 23.625 19.375C22.8281 19.375 22.0312 19.4219 21.2344 19.5156C20.4375 19.5859 19.6523 19.7031 18.8789 19.8672L19.3711 22.082C20.0508 21.9414 20.7422 21.8359 21.4453 21.7656C22.1719 21.6719 22.8984 21.625 23.625 21.625C25.4062 21.625 26.9883 21.8242 28.3711 22.2227C29.7773 22.5977 30.9141 22.9844 31.7812 23.3828C32.3672 23.6641 32.8359 24.0859 33.1875 24.6484C33.5625 25.1875 33.75 25.7852 33.75 26.4414V34H23.625V36.25H36V26.4414C36 25.3633 35.6953 24.3555 35.0859 23.418C34.5 22.4805 33.7031 21.7891 32.6953 21.3438ZM10.125 11.5C8.27344 11.5 6.67969 12.168 5.34375 13.5039C4.03125 14.8164 3.375 16.3984 3.375 18.25C3.375 19.1641 3.55078 20.0898 3.90234 21.0273C4.25391 21.9648 4.72266 22.8086 5.30859 23.5586C5.91797 24.3086 6.63281 24.9297 7.45312 25.4219C8.27344 25.8906 9.16406 26.125 10.125 26.125C11.0859 26.125 11.9766 25.8906 12.7969 25.4219C13.6172 24.9297 14.3203 24.3086 14.9062 23.5586C15.5156 22.8086 15.9961 21.9648 16.3477 21.0273C16.6992 20.0898 16.875 19.1641 16.875 18.25C16.875 16.3984 16.207 14.8164 14.8711 13.5039C13.5586 12.168 11.9766 11.5 10.125 11.5ZM10.125 23.875C8.90625 23.875 7.85156 23.2539 6.96094 22.0117C6.07031 20.7695 5.625 19.5156 5.625 18.25C5.625 17.0078 6.05859 15.9531 6.92578 15.0859C7.81641 14.1953 8.88281 13.75 10.125 13.75C11.3672 13.75 12.4219 14.1953 13.2891 15.0859C14.1797 15.9531 14.625 17.0078 14.625 18.25C14.625 19.5156 14.1797 20.7695 13.2891 22.0117C12.3984 23.2539 11.3438 23.875 10.125 23.875ZM20.25 32.8047C20.25 31.8672 19.9805 31.0117 19.4414 30.2383C18.9023 29.4648 18.1875 28.9141 17.2969 28.5859C16.5 28.2812 15.4805 27.9883 14.2383 27.707C12.9961 27.4023 11.625 27.25 10.125 27.25C8.625 27.25 7.25391 27.4023 6.01172 27.707C4.76953 27.9883 3.75 28.2812 2.95312 28.5859C2.0625 28.9141 1.34766 29.4648 0.808594 30.2383C0.269531 31.0117 0 31.8672 0 32.8047V36.25H20.25V32.8047ZM18 34H2.25V32.8047C2.25 32.3359 2.37891 31.9141 2.63672 31.5391C2.91797 31.1406 3.28125 30.8594 3.72656 30.6953C4.45312 30.4141 5.36719 30.1445 6.46875 29.8867C7.57031 29.6289 8.78906 29.5 10.125 29.5C11.4609 29.5 12.6797 29.6289 13.7812 29.8867C14.8828 30.1445 15.7969 30.4141 16.5234 30.6953C16.9688 30.8594 17.3203 31.1406 17.5781 31.5391C17.8594 31.9141 18 32.3359 18 32.8047V34Z" transform="scale(2)" fill="url(#paint0_linear)"/>
<defs>
<linearGradient id="paint0_linear" x2="1" gradientUnits="userSpaceOnUse" gradientTransform="translate(0 18) scale(36)">
<stop stop-color="#FF8B8D"/>
<stop offset="1" stop-color="#8667F7"/>
</linearGradient>
</defs>
</svg>
