<svg width="149" height="38" viewBox="0 0 149 38" fill="none" xmlns="http://www.w3.org/2000/svg">
<path d="M0 7.26368C0 3.25206 3.24973 0 7.25848 0H123.394C127.403 0 130.653 3.25206 130.653 7.26368V29.0547C130.653 33.0663 127.403 36.3184 123.394 36.3184H7.25848C3.24973 36.3184 0 33.0663 0 29.0547V7.26368Z" transform="translate(0 0.955078)" fill="url(#paint0_linear)"/>
<path d="M148.073 7.26368C148.073 11.2753 144.823 14.5274 140.815 14.5274C136.806 14.5274 133.556 11.2753 133.556 7.26368C133.556 3.25206 136.806 0 140.815 0C144.823 0 148.073 3.25206 148.073 7.26368Z" transform="translate(0 0.955078)" fill="url(#paint1_linear)"/>
<path d="M3.80054 15.2131H5.79953C7.67512 15.2131 8.61291 14.5709 8.61291 13.2867C8.61291 12.0025 7.68334 11.3604 5.82421 11.3604H3.80054V15.2131ZM3.80054 4.64294V8.37212H5.20723C6.19439 8.37212 6.93475 8.19101 7.42833 7.82879C7.93836 7.46658 8.19337 6.98911 8.19337 6.3964C8.19337 5.22743 7.40365 4.64294 5.82421 4.64294H3.80054ZM0 1.60527H6.46586C8.29209 1.60527 9.68233 2.04158 10.6366 2.91419C11.5908 3.77033 12.068 4.86521 12.068 6.19882C12.068 7.07143 11.8376 7.83703 11.3769 8.4956C10.9163 9.15417 10.3158 9.59871 9.57539 9.82921C11.5003 10.4055 12.4628 11.7061 12.4628 13.7313C12.4628 15.0484 11.9857 16.1351 11.0314 16.9912C10.0936 17.8309 8.81034 18.2507 7.18154 18.2507H0V1.60527Z" transform="translate(15.2427 7.49243)" fill="white"/>
<path d="M14.9423 18.2507V5.72959H18.5454V18.2507H14.9423ZM15.2631 3.581C14.8518 3.16939 14.6461 2.67546 14.6461 2.0992C14.6461 1.52295 14.8518 1.02902 15.2631 0.617414C15.6744 0.205805 16.168 0 16.7438 0C17.3197 0 17.8132 0.205805 18.2246 0.617414C18.6359 1.02902 18.8415 1.52295 18.8415 2.0992C18.8415 2.67546 18.6359 3.16939 18.2246 3.581C17.8132 3.9926 17.3197 4.19841 16.7438 4.19841C16.168 4.19841 15.6744 3.9926 15.2631 3.581Z" transform="translate(15.2427 7.49243)" fill="white"/>
<path d="M25.2424 5.72959V7.85349C25.555 7.16199 26.0321 6.61867 26.6738 6.22352C27.3319 5.81191 28.1134 5.60611 29.0183 5.60611C30.3016 5.60611 31.3052 5.99302 32.0291 6.76685C32.753 7.52421 33.1149 8.64378 33.1149 10.1256V18.2507H29.5118V10.7924C29.5118 10.0515 29.3391 9.49169 28.9936 9.11301C28.6481 8.71787 28.1627 8.5203 27.5375 8.5203C26.8794 8.5203 26.3283 8.78373 25.8841 9.31059C25.4563 9.82098 25.2424 10.5948 25.2424 11.6321V18.2507H21.6393V5.72959H25.2424Z" transform="translate(15.2427 7.49243)" fill="white"/>
<path d="M41.7051 15.3859C42.5277 15.3859 43.1941 15.0649 43.7041 14.4228C44.2141 13.7807 44.4691 12.9245 44.4691 11.8543C44.4691 10.8171 44.1894 10.0103 43.6301 9.43407C43.0871 8.85782 42.4373 8.56969 41.6804 8.56969C40.9236 8.56969 40.282 8.87428 39.7555 9.48346C39.2455 10.0926 38.9904 10.9406 38.9904 12.0272C38.9904 13.0315 39.2537 13.8465 39.7802 14.4722C40.3066 15.0813 40.9483 15.3859 41.7051 15.3859ZM44.4691 0.790289H48.0723V18.2507H44.4691V16.2997C43.6301 17.6992 42.3797 18.3989 40.718 18.3989C39.0892 18.3989 37.7812 17.765 36.794 16.4973C35.8233 15.2295 35.338 13.7148 35.338 11.9531C35.338 9.97739 35.848 8.42151 36.8681 7.28547C37.8881 6.14943 39.1796 5.58141 40.7426 5.58141C42.3714 5.58141 43.6136 6.27291 44.4691 7.65592V0.790289Z" transform="translate(15.2427 7.49243)" fill="white"/>
<path d="M56.5699 18.4483C54.612 18.4483 53.0984 17.8638 52.029 16.6948C50.9595 15.5094 50.4248 13.9947 50.4248 12.1507C50.4248 10.2244 50.9842 8.64378 52.103 7.40895C53.2218 6.15766 54.7107 5.53202 56.5699 5.53202C58.5113 5.53202 60.0167 6.13297 61.0861 7.33486C62.1555 8.53676 62.6902 10.0679 62.6902 11.9284C62.6902 13.8218 62.1473 15.3859 61.0614 16.6208C59.992 17.8391 58.4948 18.4483 56.5699 18.4483ZM56.5452 8.37212C55.7555 8.37212 55.1632 8.70964 54.7683 9.38468C54.3735 10.0597 54.176 10.9323 54.176 12.0025C54.176 13.0727 54.3735 13.9535 54.7683 14.645C55.1796 15.3201 55.7884 15.6576 56.5946 15.6576C57.3843 15.6576 57.9683 15.3283 58.3467 14.6697C58.7416 13.9947 58.939 13.1221 58.939 12.0519C58.939 9.59871 58.1411 8.37212 56.5452 8.37212Z" transform="translate(15.2427 7.49243)" fill="white"/>
<path d="M68.6473 5.72959V7.85349C68.9599 7.16199 69.437 6.61867 70.0786 6.22352C70.7367 5.81191 71.5182 5.60611 72.4231 5.60611C73.7064 5.60611 74.71 5.99302 75.4339 6.76685C76.1579 7.52421 76.5198 8.64378 76.5198 10.1256V18.2507H72.9167V10.7924C72.9167 10.0515 72.744 9.49169 72.3985 9.11301C72.0529 8.71787 71.5676 8.5203 70.9424 8.5203C70.2843 8.5203 69.7331 8.78373 69.2889 9.31059C68.8612 9.82098 68.6473 10.5948 68.6473 11.6321V18.2507H65.0442V5.72959H68.6473Z" transform="translate(15.2427 7.49243)" fill="white"/>
<path d="M86.5907 10.8418V10.5454C86.4755 9.08008 85.8339 8.34742 84.6658 8.34742C84.0899 8.34742 83.5799 8.56146 83.1357 8.98953C82.6915 9.40114 82.3953 10.0186 82.2472 10.8418H86.5907ZM89.182 14.5216V17.5345C88.3265 18.0943 87.0185 18.3742 85.2581 18.3742C83.2015 18.3742 81.5974 17.7815 80.4457 16.5961C79.3105 15.3942 78.7428 13.8547 78.7428 11.9778C78.7428 9.98562 79.294 8.42974 80.3963 7.31017C81.5151 6.17413 82.8889 5.60611 84.5177 5.60611C86.1958 5.60611 87.5203 6.10004 88.491 7.0879C89.4617 8.0593 89.947 9.51639 89.947 11.4592C89.947 11.8379 89.8812 12.4882 89.7496 13.4102H82.3953C82.6421 14.1017 83.0699 14.6368 83.6786 15.0155C84.2874 15.3942 85.0195 15.5835 85.875 15.5835C87.1419 15.5835 88.2442 15.2295 89.182 14.5216Z" transform="translate(15.2427 7.49243)" fill="white"/>
<path d="M98.0467 18.4483C96.0889 18.4483 94.5752 17.8638 93.5058 16.6948C92.4364 15.5094 91.9017 13.9947 91.9017 12.1507C91.9017 10.2244 92.4611 8.64378 93.5798 7.40895C94.6986 6.15766 96.1876 5.53202 98.0467 5.53202C99.9881 5.53202 101.494 6.13297 102.563 7.33486C103.632 8.53676 104.167 10.0679 104.167 11.9284C104.167 13.8218 103.624 15.3859 102.538 16.6208C101.469 17.8391 99.9717 18.4483 98.0467 18.4483ZM98.022 8.37212C97.2323 8.37212 96.64 8.70964 96.2452 9.38468C95.8503 10.0597 95.6529 10.9323 95.6529 12.0025C95.6529 13.0727 95.8503 13.9535 96.2452 14.645C96.6565 15.3201 97.2652 15.6576 98.0714 15.6576C98.8611 15.6576 99.4452 15.3283 99.8236 14.6697C100.218 13.9947 100.416 13.1221 100.416 12.0519C100.416 9.59871 99.6179 8.37212 98.022 8.37212Z" transform="translate(15.2427 7.49243)" fill="white"/>
<defs>
<linearGradient id="paint0_linear" x2="1" gradientUnits="userSpaceOnUse" gradientTransform="translate(0 18.1592) scale(148.073 36.3184)">
<stop stop-color="#64ECF5"/>
<stop offset="1" stop-color="#1CEBBC"/>
</linearGradient>
<linearGradient id="paint1_linear" x2="1" gradientUnits="userSpaceOnUse" gradientTransform="translate(0 18.1592) scale(148.073 36.3184)">
<stop stop-color="#64ECF5"/>
<stop offset="1" stop-color="#1CEBBC"/>
</linearGradient>
</defs>
</svg>
