<svg width="78" height="23" viewBox="0 0 78 23" fill="none" xmlns="http://www.w3.org/2000/svg">
<path d="M0 22.2277L1.87725 0.356941H7.34718L10.3896 8.27455C10.9075 9.59416 11.3498 10.8056 11.7166 11.9089C12.0835 13.0121 12.3208 13.7909 12.4287 14.2452L12.5905 14.8942C12.9358 13.4664 13.691 11.2599 14.8562 8.27455L17.931 0.356941H23.4009L25.6666 22.2277H20.6822L19.873 13.7585L19.4522 7.36598C18.8912 8.98844 18.1144 11.1193 17.1218 13.7585L14.047 22.0006H11.1017L8.05924 13.7585C7.56296 12.4172 7.14219 11.2166 6.79695 10.1566C6.45171 9.0966 6.22515 8.36108 6.11726 7.95006L5.95543 7.36598C5.95543 8.90191 5.85833 11.0327 5.66413 13.7585L4.98443 22.2277H0Z" transform="translate(0 0.263672)" fill="#64ECF5"/>
<path d="M29.6987 22.2277V0.356941H34.6832V22.2277H29.6987Z" transform="translate(0 0.263672)" fill="#64ECF5"/>
<path d="M53.7376 0.356941V4.38065H48.4295V22.2277H43.4127V4.38065H38.0723V0.356941H53.7376Z" transform="translate(0 0.263672)" fill="#64ECF5"/>
<path d="M56.0015 11.2274C56.0015 7.87435 56.9617 5.17024 58.8821 3.11513C60.8241 1.03838 63.4026 0 66.6177 0C69.8543 0 72.4329 1.02756 74.3533 3.08268C76.2737 5.1378 77.2339 7.85271 77.2339 11.2274C77.2339 14.5805 76.2629 17.2954 74.3209 19.3722C72.4005 21.4273 69.8328 22.4549 66.6177 22.4549C63.3811 22.4549 60.8025 21.4273 58.8821 19.3722C56.9617 17.3171 56.0015 14.6022 56.0015 11.2274ZM62.7661 6.36005C61.8167 7.54986 61.342 9.17232 61.342 11.2274C61.342 13.2826 61.8167 14.9158 62.7661 16.1273C63.7155 17.3171 64.9994 17.912 66.6177 17.912C68.236 17.912 69.5199 17.3171 70.4693 16.1273C71.4187 14.9158 71.8934 13.2826 71.8934 11.2274C71.8934 9.17232 71.4187 7.54986 70.4693 6.36005C69.5199 5.14861 68.236 4.54289 66.6177 4.54289C64.9994 4.54289 63.7155 5.14861 62.7661 6.36005Z" transform="translate(0 0.263672)" fill="#64ECF5"/>
</svg>
