<svg width="113" height="39" viewBox="0 0 113 39" fill="none" xmlns="http://www.w3.org/2000/svg">
<path fill-rule="evenodd" clip-rule="evenodd" d="M9.96045 17.8698L17.8605 9.59389C23.5812 3.52488 16.226 -3.92348 9.96045 2.4214C3.69494 -3.92348 -3.66021 3.52488 2.06048 9.59389L9.96045 17.8698Z" transform="translate(9.21143 0.502441)" fill="#5F45EA"/>
<path fill-rule="evenodd" clip-rule="evenodd" d="M9.96045 0L17.8605 8.27593C23.5812 14.3449 16.226 21.7933 9.96045 15.4484C3.69494 21.7933 -3.66021 14.3449 2.06048 8.27593L9.96045 0Z" transform="translate(9.21143 21.1301)" fill="#FF8B8D"/>
<path fill-rule="evenodd" clip-rule="evenodd" d="M-3.32536e-05 10.0867L8.17238 18.0867C14.1655 23.8799 21.5207 16.4315 15.2551 10.0867C21.5207 3.74178 14.1655 -3.70654 8.17238 2.08661L-3.32536e-05 10.0867Z" transform="translate(20.5337 9.66431)" fill="#8667F7"/>
<path fill-rule="evenodd" clip-rule="evenodd" d="M17.6463 10.0867L9.47387 18.0867C3.48077 23.8799 -3.87442 16.4315 2.3911 10.0867C-3.87442 3.74178 3.48077 -3.70654 9.47387 2.08661L17.6463 10.0867Z" transform="translate(0.436035 9.66431)" fill="#FFC69C"/>
<path d="M7.99557 12.2922C8.07758 12.2922 8.14933 12.2922 8.21084 12.2922C8.29284 12.2715 8.3851 12.2509 8.48761 12.2303V12.2922C8.63112 12.2509 8.79513 12.2303 8.97964 12.2303C9.18466 12.2303 9.32817 12.2509 9.41017 12.2922C9.47168 12.189 9.53318 12.1683 9.59469 12.2303C10.4763 12.1064 11.3681 12.0135 12.2701 11.9516C12.5571 11.9103 12.8339 11.8794 13.1004 11.8587C13.367 11.8174 13.6437 11.8174 13.9307 11.8587C13.9102 11.9619 13.8692 12.0135 13.8077 12.0135C13.7462 11.9929 13.695 12.0032 13.654 12.0445C13.613 12.0032 13.5822 11.9929 13.5617 12.0135C13.5412 12.0342 13.5105 12.0342 13.4695 12.0135C13.449 12.0135 13.4387 12.0238 13.4387 12.0445V12.0754C13.0082 12.1167 12.5777 12.1683 12.1471 12.2303C11.7371 12.2922 11.3271 12.3748 10.917 12.478C10.8965 12.478 10.876 12.4676 10.8555 12.447C10.7325 12.4883 10.5993 12.5192 10.4557 12.5399C10.3122 12.5399 10.179 12.5709 10.056 12.6328C10.138 12.6741 10.1995 12.6844 10.2405 12.6637C10.302 12.6225 10.3737 12.5812 10.4557 12.5399C10.4968 12.5399 10.548 12.5502 10.6095 12.5709C10.671 12.5915 10.7223 12.5812 10.7633 12.5399C10.8658 12.5399 10.958 12.5399 11.04 12.5399C11.1425 12.5192 11.2246 12.5089 11.2861 12.5089H11.4091C11.4706 12.5502 11.5321 12.5605 11.5936 12.5399C11.6551 12.5192 11.7063 12.5089 11.7473 12.5089V12.5709C11.7473 12.5502 11.7576 12.5502 11.7781 12.5709C11.8191 12.5709 11.8293 12.5812 11.8088 12.6018C11.8293 12.5399 11.8601 12.5192 11.9011 12.5399C11.9626 12.5399 11.9831 12.5192 11.9626 12.478C12.0856 12.4986 12.2291 12.5089 12.3931 12.5089C12.5571 12.4883 12.7007 12.4573 12.8237 12.416C12.8442 12.4367 12.8647 12.447 12.8852 12.447C12.9262 12.447 12.9569 12.4264 12.9774 12.3851C13.1004 12.4264 13.2542 12.4367 13.4387 12.416C13.6232 12.3748 13.777 12.3748 13.9 12.416C13.7975 12.478 13.7052 12.5089 13.6232 12.5089C13.5617 12.4883 13.49 12.4883 13.408 12.5089C13.4695 12.5709 13.5412 12.6121 13.6232 12.6328C13.7052 12.6328 13.7872 12.6431 13.8692 12.6637C13.8487 12.705 13.8282 12.7257 13.8077 12.7257C13.7872 12.705 13.7667 12.705 13.7462 12.7257C13.7872 12.767 13.8282 12.7773 13.8692 12.7566C13.9102 12.736 13.9513 12.736 13.9923 12.7566C13.9307 12.7979 13.859 12.8186 13.777 12.8186C13.7155 12.7979 13.6642 12.7876 13.6232 12.7876V12.8186C13.6232 12.8392 13.613 12.8495 13.5925 12.8495L11.7473 13.0043C11.7063 13.0869 11.6346 13.1385 11.5321 13.1591C11.4501 13.1591 11.3578 13.1798 11.2553 13.2211C11.2553 13.2211 11.2553 13.1901 11.2553 13.1282C11.0913 13.1695 10.9375 13.2004 10.794 13.2211C10.671 13.2417 10.548 13.2727 10.425 13.314C10.4865 13.3552 10.5788 13.3656 10.7018 13.3449C10.8453 13.3036 10.9683 13.283 11.0708 13.283C11.0708 13.3243 11.0503 13.3449 11.0093 13.3449C10.9888 13.3243 10.958 13.3243 10.917 13.3449C11.3271 13.3243 11.7166 13.283 12.0856 13.2211C12.4751 13.1591 12.8749 13.1282 13.285 13.1282C13.2645 13.1695 13.2439 13.1901 13.2234 13.1901C13.2029 13.1695 13.1824 13.1798 13.1619 13.2211C12.9979 13.1798 12.7929 13.2004 12.5469 13.283C12.3214 13.3449 12.1164 13.3965 11.9319 13.4378C11.6243 13.4791 11.3271 13.5307 11.04 13.5926C10.7735 13.6545 10.4968 13.7165 10.2097 13.7784C9.92271 13.8403 9.60494 13.9126 9.25641 13.9951C8.92839 14.0777 8.53886 14.15 8.08783 14.2119C8.10833 14.2532 8.12883 14.2635 8.14933 14.2428C8.16984 14.2222 8.18009 14.2222 8.18009 14.2428C7.97507 14.3254 7.72905 14.3977 7.44203 14.4596C7.17551 14.5009 6.89874 14.5628 6.61172 14.6454C6.87824 14.6454 7.14476 14.6144 7.41128 14.5525C7.6983 14.4905 7.95457 14.4286 8.18009 14.3667C8.13908 14.4493 8.06733 14.4905 7.96482 14.4905C7.86231 14.4905 7.78031 14.5009 7.7188 14.5215C7.45228 14.5628 7.18577 14.6247 6.91925 14.7073C6.65273 14.7692 6.39646 14.8208 6.15044 14.8621C5.90442 15.4607 5.60715 16.1625 5.25863 16.9676C4.9306 17.7726 4.59233 18.6189 4.2438 19.5065C3.91578 20.3734 3.59801 21.2301 3.29049 22.0764C2.98296 22.9434 2.7472 23.7277 2.58319 24.4296C2.48068 24.7185 2.41917 25.0179 2.39867 25.3275C2.37817 25.6578 2.38842 25.9674 2.42942 26.2564C2.40892 26.2976 2.37817 26.2976 2.33717 26.2564C2.31667 26.2151 2.30642 26.1841 2.30642 26.1635C2.26541 26.1635 2.24491 26.1944 2.24491 26.2564C2.20391 26.2564 2.18341 26.2357 2.18341 26.1944C2.18341 26.1738 2.1629 26.1738 2.1219 26.1944C2.1014 26.2357 2.1014 26.2873 2.1219 26.3492C2.1424 26.4112 2.1219 26.4731 2.0604 26.535C2.01939 26.4525 1.91689 26.3596 1.75288 26.2564C1.58886 26.1532 1.46586 26.0499 1.38385 25.9467C1.34285 25.988 1.3326 26.0499 1.3531 26.1325C1.3941 26.2357 1.42485 26.308 1.44535 26.3492C1.34285 26.3905 1.27109 26.4628 1.23009 26.566C1.20959 26.6898 1.19934 26.793 1.19934 26.8756L1.04557 26.6589C1.02507 26.6589 1.01482 26.6692 1.01482 26.6898C1.03532 26.7311 1.02507 26.7414 0.984071 26.7208C0.984071 26.4525 0.902065 26.2048 0.738053 25.9777C0.779056 26.0809 0.768805 26.1428 0.707301 26.1635C0.645796 26.2048 0.625295 26.277 0.645796 26.3802C0.604793 26.3802 0.584292 26.3802 0.584292 26.3802C0.543289 26.4628 0.533038 26.5247 0.55354 26.566C0.594543 26.6073 0.594543 26.6589 0.55354 26.7208C0.430531 26.597 0.410029 26.4421 0.492035 26.2564C0.574041 26.0706 0.56379 25.8951 0.461283 25.73C0.461283 25.8126 0.42028 25.8538 0.338274 25.8538C0.338274 25.7094 0.317773 25.5752 0.27677 25.4513C0.256268 25.3275 0.256268 25.183 0.27677 25.0179C0.256268 24.9972 0.246018 25.0075 0.246018 25.0488C0.205015 25.0075 0.194764 24.9662 0.215265 24.925C0.235767 24.8837 0.235767 24.8527 0.215265 24.8321C0.174262 24.8527 0.164012 24.8837 0.184513 24.925C0.205015 24.9662 0.205015 25.0075 0.184513 25.0488C0.14351 24.9869 0.133259 24.9043 0.153761 24.8011C0.194764 24.6979 0.194764 24.605 0.153761 24.5225C0.133259 24.5225 0.112758 24.5328 0.0922566 24.5534C0.0922566 24.4915 0.0922566 24.4089 0.0922566 24.3057C0.112758 24.2231 0.123009 24.1303 0.123009 24.0271C0.0820058 24.0271 0.0615044 24.0477 0.0615044 24.089C0.0820059 24.1303 0.0717551 24.1509 0.0307522 24.1509C0.0922565 23.5316 0.215265 22.8298 0.399779 22.0454C0.604793 21.2817 0.83031 20.5076 1.07633 19.7232C1.34285 18.9388 1.59911 18.1957 1.84513 17.4939C2.11165 16.7715 2.33717 16.1728 2.52168 15.6981C2.46018 15.6155 2.39867 15.6052 2.33717 15.6671C2.27566 15.729 2.22441 15.76 2.18341 15.76C2.1629 15.76 2.1424 15.7497 2.1219 15.729C2.1014 15.7084 2.0809 15.6981 2.0604 15.6981C1.97839 15.6981 1.88614 15.7187 1.78363 15.76C1.70162 15.8013 1.60937 15.8323 1.50686 15.8529C1.38385 15.8735 1.28134 15.8942 1.19934 15.9148C1.11733 15.9148 1.05583 15.8632 1.01482 15.76C0.994321 15.7187 0.994321 15.7187 1.01482 15.76C1.05583 15.8013 1.07633 15.8013 1.07633 15.76C1.03532 15.6774 0.963569 15.6155 0.861062 15.5742C0.758554 15.533 0.656047 15.5226 0.55354 15.5433C0.512537 15.502 0.471534 15.4813 0.430531 15.4813C0.410029 15.4607 0.389528 15.4297 0.369026 15.3885C0.451032 15.3265 0.522787 15.3162 0.584292 15.3575C0.645796 15.3781 0.727802 15.3678 0.830309 15.3265C0.871312 15.2852 0.891814 15.2336 0.891814 15.1717C0.912315 15.0892 0.953318 15.0272 1.01482 14.9859C0.97382 14.924 0.963569 14.8724 0.984071 14.8311C1.20959 14.7898 1.42485 14.7176 1.62987 14.6144C1.85538 14.5112 2.11165 14.4286 2.39867 14.3667C2.17316 14.3254 1.94764 14.3667 1.72212 14.4905C1.49661 14.6144 1.28134 14.6763 1.07633 14.6763C0.97382 14.6763 0.871312 14.666 0.768805 14.6454C0.666298 14.6041 0.56379 14.5937 0.461283 14.6144C0.461283 14.5731 0.451032 14.5421 0.430531 14.5215C0.410029 14.5009 0.389528 14.4596 0.369026 14.3977L1.66062 13.9951C1.76313 13.9745 1.85538 13.9539 1.93739 13.9332C2.0399 13.9126 2.1219 13.861 2.18341 13.7784C2.1629 13.7371 2.11165 13.7474 2.02965 13.8094C1.94764 13.8713 1.89639 13.8506 1.87588 13.7474C1.65037 13.8506 1.4351 13.9435 1.23009 14.0261C1.04557 14.088 0.830309 14.119 0.584292 14.119C0.584292 14.0777 0.594543 14.0571 0.615044 14.0571C0.656047 14.0571 0.69705 14.0467 0.738053 14.0261C0.902065 13.8197 1.11733 13.7062 1.38385 13.6855C1.65037 13.6649 1.88614 13.5823 2.09115 13.4378C2.15265 13.4378 2.21416 13.4275 2.27566 13.4068C2.33717 13.3862 2.39867 13.3656 2.46018 13.3449V13.4068C2.50118 13.3656 2.55243 13.3346 2.61394 13.314C2.69594 13.2727 2.7677 13.2727 2.8292 13.314C2.87021 13.314 2.89071 13.283 2.89071 13.2211C2.93171 13.2417 2.94196 13.2624 2.92146 13.283C2.92146 13.3036 2.94196 13.3036 2.98296 13.283C3.02397 13.2624 3.03422 13.2314 3.01372 13.1901C3.01372 13.1488 3.03422 13.1385 3.07522 13.1591C3.05472 13.1591 3.04447 13.1695 3.04447 13.1901V13.252C3.08547 13.2314 3.11622 13.2211 3.13672 13.2211C3.15723 13.2211 3.16748 13.1901 3.16748 13.1282C3.22898 13.2107 3.30074 13.2211 3.38274 13.1591C3.46475 13.0766 3.54675 13.0559 3.62876 13.0972C3.83377 12.7463 4.02854 12.3851 4.21305 12.0135C4.39757 11.6213 4.59233 11.2291 4.79734 10.8369C4.94085 10.548 5.08436 10.2693 5.22788 10.0009C5.37139 9.73261 5.5149 9.45394 5.65841 9.16496C5.88392 8.6902 6.12994 8.2464 6.39646 7.83356C6.66298 7.42073 6.909 7.00789 7.13451 6.59505H7.10376C7.24727 6.38864 7.36003 6.18222 7.44203 5.9758C7.54454 5.76938 7.6778 5.57329 7.84181 5.38751C7.80081 5.34623 7.75981 5.34623 7.7188 5.38751C7.6983 5.40815 7.66755 5.41847 7.62655 5.41847C7.72905 5.3359 7.82131 5.27398 7.90332 5.2327C8.00582 5.19141 8.05708 5.0882 8.05708 4.92307C7.48304 5.06756 6.89874 5.27398 6.3042 5.54232C5.70966 5.79002 5.15612 5.93452 4.64358 5.9758C4.56158 5.95516 4.50007 5.96548 4.45907 6.00676C4.43857 6.0274 4.39757 6.04805 4.33606 6.06869C4.29506 6.0274 4.29506 5.95516 4.33606 5.85195C4.31556 5.81067 4.29506 5.80034 4.27456 5.82099C4.25406 5.82099 4.23355 5.81067 4.21305 5.79002V5.66617C4.13105 5.66617 4.07979 5.66617 4.05929 5.66617C4.05929 5.66617 4.03879 5.68681 3.99779 5.7281L3.87478 5.60425H3.81327C3.83377 5.60425 3.84403 5.5836 3.84403 5.54232C3.80302 5.54232 3.76202 5.532 3.72102 5.51136C3.68001 5.47008 3.71077 5.41847 3.81327 5.35655C3.81327 5.33591 3.78252 5.35655 3.72102 5.41847C3.68001 5.39783 3.65951 5.34623 3.65951 5.26366C3.61851 5.2843 3.58776 5.31526 3.56726 5.35655C3.54675 5.37719 3.516 5.38751 3.475 5.38751C3.4545 5.30494 3.46475 5.26366 3.50575 5.26366C3.56726 5.26366 3.57751 5.22237 3.5365 5.13981C3.57751 5.11916 3.61851 5.11916 3.65951 5.13981C3.70052 5.13981 3.73127 5.12949 3.75177 5.10884C3.75177 5.0882 3.74152 5.07788 3.72102 5.07788C3.70052 5.07788 3.69026 5.06756 3.69026 5.04692C3.60826 5.00564 3.557 5.00564 3.5365 5.04692C3.516 5.0882 3.475 5.10884 3.41349 5.10884C3.475 5.00564 3.48525 4.89211 3.44425 4.76826C3.40324 4.62376 3.37249 4.49991 3.35199 4.3967C3.39299 4.35542 3.42375 4.36574 3.44425 4.42767C3.48525 4.46895 3.52625 4.46895 3.56726 4.42767C3.54675 4.32446 3.52625 4.27285 3.50575 4.27285C3.48525 4.25221 3.4545 4.19028 3.41349 4.08708C3.516 3.94258 3.66976 3.84969 3.87478 3.80841C4.07979 3.76713 4.25406 3.67424 4.39757 3.52975C4.99211 3.30269 5.6174 3.08595 6.27345 2.87953C6.9295 2.67311 7.56504 2.45637 8.18009 2.22931C8.22109 2.20867 8.26209 2.19835 8.30309 2.19835C8.3441 2.17771 8.41585 2.15707 8.51836 2.13643C8.60037 2.11578 8.63112 2.09514 8.61062 2.0745C8.59012 2.05386 8.63112 2.04354 8.73363 2.04354C8.83613 2.00225 8.93864 1.97129 9.04115 1.95065C9.16416 1.93001 9.26666 1.89905 9.34867 1.85776C9.36917 1.85776 9.37942 1.86808 9.37942 1.88873C9.37942 1.90937 9.38967 1.90937 9.41017 1.88873C9.38967 1.88873 9.37942 1.88873 9.37942 1.88873C9.37942 1.86808 9.38967 1.85776 9.41017 1.85776C9.57419 1.79584 9.72795 1.74423 9.87146 1.70295C10.015 1.66167 10.1687 1.62038 10.3327 1.5791C10.3737 1.64102 10.425 1.64102 10.4865 1.5791C10.548 1.51717 10.5993 1.47589 10.6403 1.45525C10.6813 1.49653 10.6915 1.52749 10.671 1.54813C10.6915 1.54813 10.7018 1.52749 10.7018 1.48621C10.7428 1.48621 10.7633 1.48621 10.7633 1.48621C10.7838 1.46557 10.8043 1.45525 10.8248 1.45525V1.51717C10.8863 1.51717 10.9273 1.49653 10.9478 1.45525C10.9888 1.41396 11.0298 1.383 11.0708 1.36236C11.2348 1.32107 11.3886 1.29011 11.5321 1.26947C11.6961 1.24883 11.8293 1.21787 11.9319 1.17658C11.9729 1.19723 11.9831 1.21787 11.9626 1.23851C11.9421 1.23851 11.9421 1.24883 11.9626 1.26947C12.0036 1.22819 12.0549 1.1869 12.1164 1.14562C12.1779 1.08369 12.2496 1.05273 12.3316 1.05273C12.3111 1.1353 12.2394 1.17658 12.1164 1.17658C12.2189 1.21787 12.3111 1.20755 12.3931 1.14562C12.4956 1.08369 12.5982 1.05273 12.7007 1.05273C12.7212 0.949524 12.7622 0.877277 12.8237 0.835993C12.9057 0.774068 12.9774 0.732785 13.0389 0.712142C13.0389 0.774068 13.0184 0.825672 12.9774 0.866955C12.9569 0.887598 12.9364 0.918561 12.9159 0.959844C12.9774 0.939202 13.0389 0.949523 13.1004 0.990806C13.1619 1.01145 13.2132 0.980485 13.2542 0.897919H13.285V0.928882C13.5105 0.866956 13.7257 0.825672 13.9307 0.805031C14.1358 0.784389 14.3305 0.743105 14.515 0.68118L14.6073 0.619255C14.6483 0.619255 14.6688 0.629576 14.6688 0.650217C14.6893 0.650217 14.7201 0.639897 14.7611 0.619255C14.7816 0.619255 14.7816 0.608934 14.7611 0.588291C14.7611 0.567649 14.7713 0.567649 14.7918 0.588291C14.8123 0.608934 14.8123 0.619255 14.7918 0.619255C15.0583 0.557329 15.2736 0.516046 15.4376 0.495404C15.6016 0.45412 15.7451 0.423157 15.8681 0.402515C16.0117 0.381874 16.1654 0.361232 16.3294 0.340591C16.5139 0.319949 16.7497 0.278666 17.0367 0.21674C17.0777 0.175455 17.1085 0.154813 17.129 0.154813C17.293 0.196098 17.4468 0.206419 17.5903 0.185777C17.7338 0.165135 17.8773 0.144493 18.0208 0.123851C18.1438 0.165135 18.2668 0.175456 18.3898 0.154813C18.5128 0.134172 18.6256 0.123851 18.7281 0.123851C18.7486 0.123851 18.7588 0.134172 18.7588 0.154813C18.7588 0.154813 18.7588 0.123851 18.7588 0.0619264C18.7793 0.123851 18.7998 0.154813 18.8203 0.154813C18.8614 0.154813 18.8921 0.134172 18.9126 0.0928887C19.0766 0.0928887 19.2509 0.082568 19.4354 0.0619264C19.6199 0.0206421 19.8249 0 20.0504 0C20.276 0 20.5015 0 20.727 0C20.973 0 21.1883 0.0103214 21.3728 0.0309641C21.6393 0.0722472 21.9058 0.134172 22.1723 0.21674C22.4389 0.299307 22.6541 0.433479 22.8181 0.619255C22.7771 0.619255 22.7361 0.598613 22.6951 0.557329C22.6541 0.495404 22.6131 0.474763 22.5721 0.495404C22.5926 0.598613 22.6439 0.650217 22.7259 0.650217C22.8079 0.650217 22.8694 0.712143 22.9104 0.835993C22.8079 0.897919 22.7464 1.00113 22.7259 1.14562C22.7259 1.26947 22.7874 1.31075 22.9104 1.26947C22.9514 1.1869 22.9514 1.14562 22.9104 1.14562C22.8899 1.12498 22.8591 1.10434 22.8181 1.08369C22.9206 1.06305 22.9821 1.06305 23.0026 1.08369C23.0437 1.10434 23.0847 1.17658 23.1257 1.30043C23.0847 1.27979 23.0437 1.29011 23.0026 1.3314C22.9616 1.41396 23.0232 1.47589 23.1872 1.51717C23.3512 1.53781 23.4332 1.58942 23.4332 1.67199C23.3717 1.67199 23.2384 1.68231 23.0334 1.70295C22.8489 1.70295 22.7361 1.69263 22.6951 1.67199C22.7156 1.81648 22.7976 1.94033 22.9411 2.04354C22.9411 2.08482 22.9206 2.13643 22.8796 2.19835C22.8591 2.26028 22.8694 2.31188 22.9104 2.35317C22.8489 2.35317 22.7566 2.33252 22.6336 2.29124C22.6131 2.33252 22.6131 2.36349 22.6336 2.38413C22.6746 2.40477 22.6951 2.43573 22.6951 2.47702C22.0801 2.37381 21.4035 2.3222 20.6655 2.3222C19.9479 2.3222 19.2919 2.37381 18.6973 2.47702C18.7178 2.5183 18.7486 2.52862 18.7896 2.50798C18.8511 2.48734 18.9024 2.49766 18.9434 2.53894C18.8409 2.58023 18.7281 2.60087 18.6051 2.60087C18.5026 2.60087 18.3796 2.60087 18.2361 2.60087C18.2771 2.55958 18.3488 2.53894 18.4513 2.53894C18.5538 2.53894 18.6358 2.5183 18.6973 2.47702C18.6153 2.47702 18.5231 2.47702 18.4206 2.47702C18.3181 2.47702 18.2258 2.49766 18.1438 2.53894C17.8568 2.58023 17.5595 2.62151 17.252 2.66279C16.9445 2.70408 16.6472 2.75568 16.3602 2.81761C16.4012 2.85889 16.4319 2.86921 16.4524 2.84857C16.4729 2.82793 16.5037 2.82793 16.5447 2.84857C16.5242 2.86921 16.4627 2.87953 16.3602 2.87953C16.3192 2.87953 16.2987 2.87953 16.2987 2.87953C16.3192 2.85889 16.3294 2.83825 16.3294 2.81761C16.1654 2.85889 16.0527 2.88985 15.9911 2.91049C15.9501 2.91049 15.9091 2.92081 15.8681 2.94146C15.8271 2.94146 15.7759 2.95178 15.7144 2.97242C15.6734 2.97242 15.5709 3.00338 15.4069 3.06531H15.0993C14.7303 3.14787 14.3818 3.22012 14.0538 3.28205C13.7462 3.32333 13.4387 3.37493 13.1312 3.43686C12.8237 3.49878 12.5059 3.57103 12.1779 3.6536C11.8704 3.71552 11.5218 3.80841 11.1323 3.93226C11.0093 3.9529 10.8863 3.98387 10.7633 4.02515C10.6608 4.04579 10.5788 4.08708 10.5173 4.149C10.5583 4.149 10.5685 4.16964 10.548 4.21093C10.5275 4.23157 10.5275 4.26253 10.548 4.30381C10.6505 4.26253 10.794 4.27285 10.9785 4.33478C11.1836 4.37606 11.3271 4.41734 11.4091 4.45863C11.3886 4.52055 11.3681 4.5928 11.3476 4.67537C11.3271 4.73729 11.3578 4.77858 11.4398 4.79922C11.3373 4.98499 11.2143 5.17077 11.0708 5.35655C10.9273 5.54232 10.8043 5.74874 10.7018 5.9758C10.6813 6.01708 10.6813 6.03772 10.7018 6.03772C10.7223 6.03772 10.7325 6.05837 10.7325 6.09965C10.6915 6.09965 10.671 6.08933 10.671 6.06869C10.63 6.23382 10.5583 6.35767 10.4557 6.44024C10.3737 6.52281 10.3122 6.63634 10.2712 6.78083C10.2097 6.78083 10.179 6.80147 10.179 6.84276C10.179 6.8634 10.1585 6.87372 10.1175 6.87372V7.02853C10.056 7.1111 10.0047 7.18335 9.96371 7.24527C9.92271 7.3072 9.86121 7.36912 9.7792 7.43105C9.7792 7.61682 9.7382 7.70971 9.65619 7.70971C9.28717 8.43217 8.91814 9.15464 8.54911 9.8771C8.18009 10.5789 7.82131 11.3117 7.47279 12.0754C7.5958 12.0961 7.7188 12.0961 7.84181 12.0754C7.96482 12.0342 8.07758 12.0135 8.18009 12.0135C8.15958 12.0342 8.12883 12.0445 8.08783 12.0445C8.06733 12.0238 8.05708 12.0342 8.05708 12.0754V12.1064C8.09808 12.0651 8.14933 12.0651 8.21084 12.1064C8.29284 12.1271 8.3441 12.1064 8.3646 12.0445C8.4056 12.0858 8.45686 12.0961 8.51836 12.0754C8.60037 12.0548 8.67212 12.0238 8.73363 11.9826C8.95914 12.0032 9.14366 12.0238 9.28717 12.0445C9.45118 12.0445 9.60494 12.0445 9.74845 12.0445C9.52293 12.1271 9.24616 12.1683 8.91814 12.1683C8.59012 12.1477 8.28259 12.189 7.99557 12.2922ZM11.3476 5.4804C11.2861 5.58361 11.2041 5.66617 11.1015 5.7281C11.0195 5.76938 10.958 5.84163 10.917 5.94484V5.85195C10.876 5.85195 10.8555 5.87259 10.8555 5.91388C10.8555 5.93452 10.835 5.93452 10.794 5.91388C10.876 5.81067 10.9478 5.71778 11.0093 5.63521C11.0913 5.532 11.2041 5.4804 11.3476 5.4804ZM2.8292 13.4997C2.93171 13.4997 3.05472 13.4791 3.19823 13.4378C3.36224 13.3965 3.4955 13.3449 3.59801 13.283V13.252C3.475 13.2933 3.34174 13.3346 3.19823 13.3759C3.07522 13.3965 2.95221 13.4378 2.8292 13.4997ZM20.1119 2.44605C20.0094 2.4667 19.8967 2.47702 19.7737 2.47702C19.6712 2.47702 19.5687 2.47702 19.4661 2.47702C19.5482 2.43573 19.6507 2.42541 19.7737 2.44605C19.8967 2.44605 20.0094 2.44605 20.1119 2.44605ZM19.3739 2.47702C19.2919 2.55958 19.1791 2.58023 19.0356 2.53894C19.1381 2.45637 19.2509 2.43573 19.3739 2.47702ZM14.392 0.619255C14.3305 0.68118 14.2588 0.701821 14.1768 0.68118C14.0948 0.660538 14.0025 0.660538 13.9 0.68118C13.9615 0.639897 14.0333 0.629576 14.1153 0.650217C14.2178 0.650217 14.31 0.639897 14.392 0.619255ZM23.0334 0.371553C22.9924 0.392195 22.9309 0.371553 22.8489 0.309628C22.7669 0.247703 22.7054 0.196098 22.6644 0.154813C22.7464 0.175456 22.8079 0.21674 22.8489 0.278664C22.8899 0.319949 22.9514 0.350911 23.0334 0.371553ZM0.215265 25.8229C0.194764 25.7197 0.184513 25.6268 0.184513 25.5442C0.205015 25.4617 0.194764 25.3688 0.153761 25.2656C0.235767 25.3894 0.256268 25.5752 0.215265 25.8229ZM18.1131 2.60087C18.1131 2.64215 18.072 2.66279 17.99 2.66279C17.9285 2.66279 17.8568 2.66279 17.7748 2.66279C17.8363 2.62151 17.8978 2.61119 17.9593 2.63183C18.0208 2.63183 18.072 2.62151 18.1131 2.60087ZM1.84513 15.8219C1.80413 15.8426 1.76313 15.8735 1.72212 15.9148C1.68112 15.9355 1.64012 15.9251 1.59911 15.8839C1.64012 15.8632 1.68112 15.8426 1.72212 15.8219C1.76313 15.8013 1.80413 15.8013 1.84513 15.8219ZM13.8077 0.68118C13.7667 0.722464 13.7257 0.743106 13.6847 0.743106C13.6437 0.722463 13.6027 0.722463 13.5617 0.743106C13.5822 0.701822 13.613 0.68118 13.654 0.68118C13.7155 0.68118 13.7667 0.68118 13.8077 0.68118ZM20.5425 2.38413C20.5015 2.42541 20.4605 2.44605 20.4195 2.44605C20.399 2.44605 20.3682 2.44605 20.3272 2.44605C20.3682 2.40477 20.399 2.38413 20.4195 2.38413C20.4605 2.38413 20.5015 2.38413 20.5425 2.38413ZM20.8192 2.35317C20.7987 2.41509 20.7372 2.44605 20.6347 2.44605C20.6552 2.40477 20.6757 2.38413 20.6962 2.38413C20.7372 2.38413 20.7782 2.37381 20.8192 2.35317ZM10.1482 11.9516C10.1277 11.9929 10.0765 12.0135 9.99447 12.0135C10.015 11.9516 10.0355 11.931 10.056 11.9516C10.0765 11.9722 10.1072 11.9722 10.1482 11.9516ZM2.21416 26.4731C2.21416 26.4525 2.21416 26.4215 2.21416 26.3802C2.23466 26.3389 2.26541 26.308 2.30642 26.2873L2.21416 26.4731ZM9.96371 12.0135C9.94321 12.0342 9.91246 12.0445 9.87146 12.0445C9.85096 12.0445 9.8202 12.0548 9.7792 12.0754C9.8202 12.0342 9.85096 12.0135 9.87146 12.0135C9.89196 12.0135 9.92271 12.0135 9.96371 12.0135ZM10.4557 11.8587C10.4557 11.9206 10.4352 11.9516 10.3942 11.9516C10.3942 11.931 10.3942 11.9206 10.3942 11.9206C10.4147 11.9206 10.425 11.9103 10.425 11.8897L10.4557 11.8587ZM0.0307522 25.2346C0.0102507 25.214 0 25.1933 0 25.1727C0.0205014 25.152 0.0205014 25.1314 0 25.1107C0.0410029 25.1107 0.0615044 25.1211 0.0615044 25.1417C0.0615044 25.183 0.0512537 25.214 0.0307522 25.2346ZM16.883 2.75568C16.924 2.73504 16.965 2.73504 17.006 2.75568C17.047 2.75568 17.0982 2.74536 17.1597 2.72472C17.0982 2.74536 17.006 2.75568 16.883 2.75568ZM3.90553 5.69714C3.84403 5.75906 3.82352 5.79002 3.84403 5.79002V5.69714H3.90553ZM14.2075 12.478C14.1665 12.5192 14.0948 12.5192 13.9923 12.478H14.2075ZM11.9319 12.447C11.9319 12.4676 11.9011 12.478 11.8396 12.478C11.8396 12.4573 11.8704 12.447 11.9319 12.447ZM23.1257 2.04354C23.1052 2.06418 23.0744 2.08482 23.0334 2.10546C22.9924 2.10546 22.9719 2.08482 22.9719 2.04354C23.0129 2.06418 23.0334 2.0745 23.0334 2.0745C23.0539 2.05386 23.0847 2.04354 23.1257 2.04354ZM17.006 0.154813C16.965 0.154813 16.9342 0.165135 16.9137 0.185777C16.9137 0.185777 16.9035 0.185777 16.883 0.185777C16.883 0.165135 16.9035 0.154813 16.9445 0.154813C17.006 0.134172 17.0265 0.134172 17.006 0.154813ZM15.5606 0.247702C15.5606 0.268344 15.5299 0.278664 15.4684 0.278664C15.4889 0.258023 15.5196 0.247702 15.5606 0.247702ZM11.3168 13.252C11.3168 13.2727 11.2861 13.283 11.2246 13.283C11.2451 13.2624 11.2758 13.252 11.3168 13.252ZM10.5173 11.8587C10.5173 11.8794 10.507 11.8897 10.4865 11.8897V11.8587H10.5173ZM11.163 11.7968C11.081 11.7968 11.04 11.7968 11.04 11.7968H11.163ZM3.75177 5.66617C3.73127 5.64553 3.73127 5.63521 3.75177 5.63521V5.66617Z" transform="translate(46.8901 7.76611)" fill="#34314B"/>
<path d="M19.1382 14.8311C19.1382 14.8311 19.1485 14.8414 19.169 14.8621L19.415 14.6763C19.6815 14.3873 19.948 14.088 20.2145 13.7784C20.481 13.4688 20.7271 13.1591 20.9526 12.8495C21.0551 12.8082 21.1268 12.7463 21.1678 12.6637C21.2294 12.5812 21.3319 12.5605 21.4754 12.6018C21.5779 12.5605 21.6599 12.4883 21.7214 12.3851C21.7829 12.2612 21.8546 12.1787 21.9367 12.1374C22.0597 12.1374 22.1314 12.1271 22.1519 12.1064C22.1929 12.1271 22.1827 12.189 22.1212 12.2922C22.0597 12.3748 21.9879 12.4676 21.9059 12.5709C21.8444 12.6534 21.7931 12.736 21.7521 12.8186C21.7111 12.9011 21.7214 12.9321 21.7829 12.9114C21.8239 12.9114 21.8649 12.8908 21.9059 12.8495C21.9469 12.8082 22.0084 12.7876 22.0904 12.7876C22.1519 12.767 22.1929 12.767 22.2134 12.7876C22.2544 12.8082 22.2954 12.7979 22.3364 12.7566C22.3159 12.8186 22.2852 12.8908 22.2442 12.9734C22.2237 13.0353 22.2134 13.0972 22.2134 13.1591C22.2134 13.1798 22.2544 13.1901 22.3364 13.1901C22.3159 13.314 22.2749 13.4275 22.2134 13.5307C22.1519 13.6339 22.1007 13.7371 22.0597 13.8403C21.8341 14.15 21.6291 14.4183 21.4446 14.6454C21.2601 14.8724 21.0756 15.0892 20.8911 15.2956C20.7271 15.502 20.5426 15.7187 20.3375 15.9458C20.153 16.1522 19.9378 16.4102 19.6917 16.7199C19.6507 16.7405 19.6302 16.7611 19.6302 16.7818C19.6302 16.7818 19.6097 16.7818 19.5687 16.7818C19.0767 17.5042 18.5744 18.1957 18.0619 18.8563C17.5493 19.4962 16.9855 20.0948 16.3705 20.6521L16.3398 20.776C16.3193 20.7966 16.2885 20.8585 16.2475 20.9617C16.0835 21.1062 15.9092 21.2404 15.7247 21.3643C15.5402 21.4675 15.3762 21.6016 15.2327 21.7668C15.2122 21.7874 15.2327 21.7977 15.2942 21.7977C15.1712 21.9629 14.9559 22.0764 14.6484 22.1383C14.3614 22.2003 14.0948 22.2415 13.8488 22.2622C13.5003 22.3035 13.1415 22.2828 12.7725 22.2002C12.424 22.1177 12.178 21.9629 12.0344 21.7358C11.8294 21.6532 11.6552 21.4881 11.5117 21.2404C11.3886 20.9101 11.3271 20.5695 11.3271 20.2186C11.3271 19.8471 11.3681 19.4859 11.4502 19.1349C11.5117 18.7634 11.6039 18.4022 11.7269 18.0512C11.8499 17.7003 11.9832 17.3701 12.1267 17.0604C12.1882 16.8953 12.2395 16.7405 12.2805 16.596C12.3215 16.4515 12.383 16.2967 12.465 16.1316C12.6905 15.5949 12.957 15.0582 13.2645 14.5215C13.5721 13.9848 13.8488 13.4688 14.0948 12.9734L14.7714 11.7039C14.9149 11.4768 15.0482 11.2807 15.1712 11.1156C15.3147 10.9298 15.4274 10.7337 15.5094 10.5273V10.4344C15.694 10.4344 15.8272 10.3312 15.9092 10.1248C15.9502 10.1042 16.0015 10.0938 16.063 10.0938C16.145 10.0938 16.2065 10.0732 16.2475 10.0319C16.4525 10.0526 16.637 10.1042 16.801 10.1867C16.9855 10.2487 17.1496 10.3209 17.2931 10.4035C17.3341 10.5067 17.4161 10.5996 17.5391 10.6821C17.6826 10.7441 17.7441 10.8576 17.7236 11.0227C17.7236 11.0434 17.6826 11.1156 17.6006 11.2395C17.5801 11.2807 17.5698 11.3117 17.5698 11.3323C17.5903 11.353 17.5903 11.3839 17.5698 11.4252C17.5698 11.4872 17.5391 11.5181 17.4776 11.5181V11.7349L17.2623 12.3232C17.2623 12.3644 17.2623 12.3851 17.2623 12.3851C17.2828 12.3644 17.2931 12.3748 17.2931 12.416C17.1906 12.4367 17.1188 12.4986 17.0778 12.6018C17.0573 12.6844 17.0163 12.7463 16.9548 12.7876C16.9548 12.8495 16.9548 12.8805 16.9548 12.8805C16.8728 12.9011 16.8215 12.9424 16.801 13.0043C16.801 13.0456 16.7908 13.0869 16.7703 13.1282C16.6473 13.2933 16.5448 13.4584 16.4628 13.6236C16.4013 13.7887 16.3295 13.9435 16.2475 14.088C16.2065 14.15 16.186 14.1912 16.186 14.2119C16.2065 14.2119 16.1962 14.2325 16.1552 14.2738C16.1552 14.2944 16.1245 14.3048 16.063 14.3048C16.0425 14.3873 16.0117 14.4596 15.9707 14.5215C15.9502 14.5628 15.94 14.635 15.94 14.7382C15.8375 14.8414 15.7555 14.9859 15.694 15.1717C15.6325 15.3369 15.5504 15.471 15.4479 15.5742C15.2839 15.9251 15.1507 16.2657 15.0482 16.596C14.8841 16.9263 14.7099 17.2462 14.5254 17.5558C14.3614 17.8655 14.2178 18.1751 14.0948 18.4847L13.9718 19.104C13.8898 19.3104 13.8181 19.5271 13.7566 19.7542C13.6951 19.9813 13.6746 20.2186 13.6951 20.4663C14.0231 20.3218 14.3101 20.1051 14.5561 19.8161C14.9251 19.5065 15.2942 19.1659 15.6632 18.7944C16.0322 18.4022 16.391 18.01 16.7395 17.6178C16.7805 17.5971 16.801 17.5868 16.801 17.5868C16.8215 17.5662 16.8523 17.5558 16.8933 17.5558C17.0163 17.3907 17.1393 17.2256 17.2623 17.0604C17.3853 16.8953 17.5288 16.7302 17.6928 16.565C17.8159 16.4825 17.9184 16.3896 18.0004 16.2864C18.0824 16.1625 18.1644 16.0284 18.2464 15.8839C18.2874 15.8426 18.3284 15.8116 18.3694 15.791C18.4309 15.7497 18.4822 15.7084 18.5232 15.6671C18.6052 15.502 18.7077 15.3678 18.8307 15.2646C18.9742 15.1408 19.0767 14.9963 19.1382 14.8311ZM18.4924 7.86452C18.4309 7.90581 18.3694 7.96773 18.3079 8.0503C18.2054 8.0503 18.1131 8.0503 18.0311 8.0503C17.9491 8.0503 17.8569 8.07094 17.7544 8.11223C17.7339 8.11223 17.7236 8.13287 17.7236 8.17415L17.6006 8.08126V7.89549C17.4776 7.93677 17.4161 7.9987 17.4161 8.08126C17.3751 8.08126 17.3648 8.06062 17.3853 8.01934C17.4263 7.95741 17.4263 7.91613 17.3853 7.89549C17.3443 7.91613 17.3136 7.94709 17.2931 7.98837C17.2931 8.00902 17.2726 8.01934 17.2316 8.01934V7.89549C17.1906 7.89549 17.1701 7.90581 17.1701 7.92645C17.2111 7.63746 17.0881 7.49297 16.801 7.49297C16.801 7.38976 16.7805 7.33816 16.7395 7.33816C16.7395 6.98725 16.8215 6.62602 16.9855 6.25446C17.0266 6.21318 17.0471 6.18222 17.0471 6.16158C17.0471 6.12029 17.0573 6.08933 17.0778 6.06869C17.1393 6.0274 17.2008 5.98612 17.2623 5.94484C17.3443 5.88291 17.3853 5.80034 17.3853 5.69714C17.4058 5.71778 17.4571 5.7281 17.5391 5.7281C17.5801 5.68681 17.6416 5.62489 17.7236 5.54232C17.8056 5.45975 17.8671 5.47008 17.9081 5.57328C17.9491 5.59393 17.9594 5.59393 17.9389 5.57328C17.9389 5.55264 17.9491 5.54232 17.9696 5.54232C18.0106 5.5836 18.0516 5.60425 18.0926 5.60425C18.1131 5.54232 18.1644 5.50104 18.2464 5.4804C18.3489 5.45975 18.4514 5.47008 18.5539 5.51136C18.5539 5.55264 18.5334 5.58361 18.4924 5.60425C18.4719 5.60425 18.4719 5.62489 18.4924 5.66617C18.7589 5.66617 18.9332 5.60425 19.0152 5.4804C19.0152 5.54232 19.0254 5.59393 19.0459 5.63521C19.0869 5.65585 19.1177 5.68681 19.1382 5.7281C19.0972 5.74874 19.0767 5.79002 19.0767 5.85195C19.0972 5.91387 19.128 5.96548 19.169 6.00676C19.251 5.96548 19.3432 5.9758 19.4457 6.03772C19.5687 6.09965 19.6302 6.18222 19.6302 6.28543C19.6302 6.30607 19.6507 6.31639 19.6917 6.31639C19.6917 6.35767 19.6917 6.38864 19.6917 6.40928C19.7122 6.40928 19.7225 6.42992 19.7225 6.4712C19.702 6.42992 19.6815 6.40928 19.661 6.40928C19.62 6.49184 19.579 6.57441 19.538 6.65698C19.5175 6.73955 19.4662 6.82211 19.3842 6.90468C19.3842 6.92532 19.4047 6.93564 19.4457 6.93564C19.4867 6.93564 19.5072 6.94596 19.5072 6.96661C19.5072 6.96661 19.456 6.96661 19.3535 6.96661C19.2305 7.13174 19.0869 7.29688 18.9229 7.46201C18.7589 7.6065 18.6257 7.79228 18.5232 8.01934C18.4822 8.01934 18.4617 8.02966 18.4617 8.0503C18.4617 8.0503 18.4412 8.0503 18.4002 8.0503C18.4617 7.98838 18.4924 7.92645 18.4924 7.86452ZM17.6313 11.58C17.6313 11.6007 17.6211 11.6213 17.6006 11.642C17.6006 11.642 17.6006 11.6626 17.6006 11.7039C17.5596 11.7245 17.5493 11.7039 17.5698 11.642C17.5903 11.58 17.6108 11.5594 17.6313 11.58Z" transform="translate(46.8901 7.76611)" fill="#34314B"/>
<path d="M23.1369 10.1558C23.0754 10.1764 23.0344 10.228 23.0139 10.3106C22.9934 10.3725 22.9627 10.4447 22.9217 10.5273C22.9217 10.548 22.9319 10.5583 22.9524 10.5583C22.8089 10.806 22.7064 10.9814 22.6449 11.0846C22.5834 11.1879 22.4912 11.3839 22.3681 11.6729C22.3476 11.7349 22.3066 11.7968 22.2451 11.8587C22.2041 12.1064 22.1119 12.3541 21.9684 12.6018C21.8454 12.8495 21.7428 13.1075 21.6608 13.3759C21.9889 13.0869 22.3476 12.7566 22.7372 12.3851C23.1267 11.9929 23.5572 11.6833 24.0288 11.4562C24.1313 11.4149 24.2235 11.384 24.3055 11.3633C24.408 11.322 24.5003 11.2911 24.5823 11.2704C24.6233 11.2498 24.6541 11.2498 24.6746 11.2704C24.6951 11.2704 24.7258 11.2601 24.7668 11.2395C24.7873 11.2395 24.7976 11.2291 24.7976 11.2085C24.7976 11.2085 24.8078 11.1982 24.8283 11.1775C24.8898 11.1569 24.9616 11.1672 25.0436 11.2085C25.1256 11.2291 25.2076 11.2395 25.2896 11.2395C25.3511 11.2395 25.4126 11.2291 25.4741 11.2085C25.5561 11.1879 25.6381 11.1672 25.7201 11.1466C25.8841 11.1879 26.0174 11.2704 26.1199 11.3943C26.2429 11.4975 26.3454 11.6213 26.4274 11.7658C26.5299 11.8071 26.6119 11.8381 26.6735 11.8587C26.735 11.8794 26.7965 11.9206 26.858 11.9826C26.899 11.9826 26.8887 11.9619 26.8272 11.9206C26.7657 11.8587 26.7555 11.8174 26.7965 11.7968L27.1962 11.9826C27.1962 12.0858 27.227 12.1477 27.2885 12.1683C27.3295 12.3748 27.391 12.5709 27.473 12.7566C27.555 12.9218 27.596 13.1282 27.596 13.3759C27.5755 14.0777 27.4628 14.7486 27.2577 15.3885C27.0732 16.0077 26.8785 16.5547 26.6735 17.0295C26.1404 18.1854 25.5356 19.1865 24.8591 20.0329C24.1825 20.8792 23.3522 21.5913 22.3681 22.1693C22.3476 22.1693 22.3374 22.159 22.3374 22.1383C22.3374 22.1177 22.3271 22.1074 22.3066 22.1074C22.0811 22.1486 21.8966 22.2106 21.7531 22.2931H21.6301C21.4661 22.3344 21.2303 22.3138 20.9228 22.2312C20.6358 22.1486 20.4103 22.1486 20.2462 22.2312C20.1847 22.0867 20.072 21.9938 19.908 21.9525C19.7645 21.9319 19.6517 21.87 19.5697 21.7668C19.5697 21.7461 19.5799 21.7358 19.6004 21.7358C19.6209 21.7565 19.6414 21.7565 19.6619 21.7358C19.6619 21.6326 19.6209 21.5707 19.5389 21.55C19.4569 21.5088 19.4057 21.4365 19.3852 21.3333C19.2212 21.292 19.1289 21.1888 19.1084 21.0237C19.1084 20.8585 19.0879 20.714 19.0469 20.5902C19.0674 20.5695 19.0879 20.5695 19.1084 20.5902C19.1289 20.5902 19.1494 20.5799 19.1699 20.5592C19.2109 20.456 19.2212 20.3735 19.2007 20.3115C19.1802 20.229 19.1494 20.1154 19.1084 19.9709C19.1289 19.9709 19.1494 19.9813 19.1699 20.0019C19.2929 19.878 19.4364 19.8058 19.6004 19.7852C19.6414 19.7439 19.6517 19.6923 19.6312 19.6303C19.6312 19.5684 19.6722 19.5375 19.7542 19.5375C19.7337 19.5787 19.7132 19.6097 19.6927 19.6303C19.6722 19.651 19.6825 19.682 19.7235 19.7232C19.7645 19.682 19.8055 19.6613 19.8465 19.6613C19.908 19.6407 19.9387 19.5994 19.9387 19.5375C20.0002 19.5787 20.031 19.62 20.031 19.6613C20.031 19.7026 20.0515 19.7439 20.0925 19.7852C20.1335 19.9916 20.195 20.1567 20.277 20.2806C20.3795 20.4044 20.4923 20.5179 20.6153 20.6212C21.0868 20.5592 21.4558 20.3941 21.7223 20.1257C21.7634 20.0845 21.7634 20.0638 21.7223 20.0638C21.7018 20.0638 21.6916 20.0432 21.6916 20.0019C21.9991 19.8368 22.2554 19.6613 22.4604 19.4755C22.6859 19.2691 22.9012 19.0524 23.1062 18.8253C23.1062 18.7634 23.1164 18.7221 23.1369 18.7015C23.1575 18.6808 23.1677 18.6499 23.1677 18.6086C23.3522 18.4434 23.506 18.2577 23.629 18.0512C23.752 17.8242 23.8955 17.6178 24.0595 17.432L24.367 16.8127C24.3465 16.7302 24.3568 16.6682 24.3978 16.627C24.4593 16.565 24.5105 16.5134 24.5515 16.4722C24.5721 16.4515 24.6028 16.3793 24.6438 16.2554C24.6643 16.2554 24.6848 16.2451 24.7053 16.2244C24.7463 16.1212 24.7771 16.0284 24.7976 15.9458C24.8181 15.8632 24.8591 15.8013 24.9206 15.76C25.0846 15.2646 25.2486 14.7898 25.4126 14.3357C25.5766 13.8816 25.6689 13.3243 25.6894 12.6637C25.3819 12.7463 25.0948 12.9011 24.8283 13.1282C24.5618 13.3346 24.2953 13.5513 24.0288 13.7784C23.7827 13.9642 23.5265 14.1706 23.26 14.3977C22.9934 14.6247 22.7269 14.8518 22.4604 15.0788C22.0299 15.5536 21.5891 16.049 21.1381 16.565C20.687 17.0604 20.236 17.5765 19.785 18.1132C19.4979 18.5879 19.2109 19.0214 18.9239 19.4136C18.6369 19.8058 18.4216 20.3012 18.2781 20.8998C18.2371 20.9617 18.1961 21.0237 18.1551 21.0856C18.1141 21.1475 18.0526 21.1888 17.9706 21.2094C17.9706 21.2507 17.9603 21.292 17.9398 21.3333C17.9193 21.3539 17.9193 21.4055 17.9398 21.4881C17.8988 21.5294 17.8578 21.5707 17.8168 21.612C17.7758 21.6532 17.7451 21.7048 17.7246 21.7668C17.6221 21.7668 17.5913 21.7461 17.6323 21.7048C17.6528 21.6636 17.6118 21.6532 17.5093 21.6739C17.4888 21.6945 17.4888 21.7152 17.5093 21.7358C17.5093 21.7771 17.499 21.8081 17.4785 21.8287C17.335 21.8493 17.2735 21.8184 17.294 21.7358C17.294 21.6739 17.253 21.6842 17.171 21.7668C17.13 21.7461 17.0993 21.7152 17.0788 21.6739C17.0378 21.612 16.9968 21.5604 16.9558 21.5191C16.9148 21.4159 16.884 21.3333 16.8635 21.2714C16.8225 21.2094 16.8122 21.1269 16.8327 21.0237L16.5867 20.8069C16.5047 20.3322 16.5355 19.9193 16.679 19.5684C16.8225 19.2175 16.966 18.846 17.1095 18.4538C17.212 18.1029 17.3248 17.7829 17.4478 17.4939C17.5708 17.1843 17.7041 16.8747 17.8476 16.565C17.9706 16.338 18.0833 16.1109 18.1858 15.8839C18.2679 15.6362 18.3601 15.3781 18.4626 15.1098C18.5446 14.9447 18.6164 14.7795 18.6779 14.6144C18.7599 14.4286 18.8419 14.2222 18.9239 13.9951C19.0059 13.9126 19.0572 13.8403 19.0777 13.7784C19.0777 13.7578 19.0777 13.7474 19.0777 13.7474C19.0982 13.7268 19.1084 13.6958 19.1084 13.6545C19.2724 13.2211 19.4467 12.7876 19.6312 12.3541C19.8362 11.9206 20.0412 11.4975 20.2462 11.0846C20.3077 10.8782 20.3898 10.6821 20.4923 10.4964C20.5948 10.2899 20.6973 10.0732 20.7998 9.84614C20.8408 9.74293 20.8818 9.66036 20.9228 9.59844C20.9638 9.51587 20.974 9.42298 20.9535 9.31977L21.1381 9.07207C21.1586 9.03079 21.1586 8.9895 21.1381 8.94822C21.1381 8.90693 21.1483 8.86565 21.1688 8.82437L21.3226 8.73148C21.3226 8.6902 21.3431 8.60763 21.3841 8.48378C21.4251 8.40121 21.4558 8.33928 21.4763 8.298C21.5173 8.23608 21.5481 8.18447 21.5686 8.14319C21.5686 8.08126 21.5788 8.03998 21.5993 8.01934C21.6198 7.9987 21.6198 7.98837 21.5993 7.98837C21.5993 7.98837 21.6096 7.96773 21.6301 7.92645C21.6916 7.86452 21.7223 7.82324 21.7223 7.8026C21.7428 7.78196 21.7531 7.73035 21.7531 7.64778C21.7941 7.58586 21.8249 7.51361 21.8454 7.43105C21.8864 7.34848 21.9274 7.28655 21.9684 7.24527C22.0094 7.14206 22.0504 7.05949 22.0914 6.99757C22.1324 6.915 22.1734 6.85308 22.2144 6.81179C22.2554 6.64666 22.3169 6.54345 22.3989 6.50217C22.3989 6.48152 22.4091 6.46088 22.4296 6.44024C22.4502 6.4196 22.4604 6.39896 22.4604 6.37831C22.6449 6.0274 22.8192 5.63521 22.9832 5.20173C23.1472 4.74761 23.3625 4.3451 23.629 3.99419C23.67 3.9529 23.6802 3.93226 23.6597 3.93226C23.6597 3.93226 23.6597 3.92194 23.6597 3.9013C23.7417 3.81873 23.8135 3.69488 23.875 3.52975C23.957 3.34397 24.0493 3.17884 24.1518 3.03434C24.2748 2.88985 24.3978 2.78664 24.5208 2.72472C24.6643 2.64215 24.8386 2.66279 25.0436 2.78664C25.0846 2.766 25.0948 2.77632 25.0743 2.81761C25.0743 2.83825 25.0743 2.85889 25.0743 2.87953C25.0948 2.90017 25.1256 2.90017 25.1666 2.87953C25.2076 2.85889 25.2486 2.83825 25.2896 2.81761C25.2896 2.83825 25.2691 2.85889 25.2281 2.87953C25.2076 2.87953 25.2076 2.88985 25.2281 2.91049C25.3921 2.93114 25.4741 2.95178 25.4741 2.97242C25.4741 2.99306 25.5561 3.0137 25.7201 3.03434C25.6996 3.13755 25.7406 3.22012 25.8431 3.28205C25.9662 3.32333 26.0482 3.37493 26.0892 3.43686C26.1917 3.68456 26.2019 3.87034 26.1199 3.99419C26.0584 4.0974 25.9867 4.2006 25.9046 4.30381C25.9251 4.3451 25.9046 4.38638 25.8431 4.42767C25.8021 4.44831 25.7611 4.47927 25.7201 4.52055C25.7406 4.62376 25.7201 4.70633 25.6586 4.76826C25.5971 4.80954 25.5869 4.89211 25.6279 5.01596C25.5459 4.99531 25.4741 5.06756 25.4126 5.2327C25.3511 5.39783 25.2999 5.49072 25.2589 5.51136C25.2589 5.57328 25.2486 5.61457 25.2281 5.63521C25.2076 5.65585 25.2178 5.69714 25.2589 5.75906C25.2178 5.84163 25.1461 5.92419 25.0436 6.00676C24.9616 6.06869 24.9206 6.15126 24.9206 6.25446C24.9206 6.23382 24.9001 6.23382 24.8591 6.25446C24.7976 6.4196 24.7873 6.53313 24.8283 6.59505C24.7463 6.63634 24.6746 6.65698 24.6131 6.65698C24.6131 6.69826 24.6028 6.72923 24.5823 6.74987C24.5823 6.77051 24.5926 6.80147 24.6131 6.84276C24.5516 6.8634 24.5208 6.90468 24.5208 6.96661C24.5208 7.00789 24.5003 7.03885 24.4593 7.05949C24.4593 7.20399 24.4183 7.29687 24.3363 7.33816C24.3773 7.44137 24.3568 7.5549 24.2748 7.67875C24.2133 7.8026 24.1825 7.93677 24.1825 8.08126C24.162 8.1019 24.121 8.13287 24.0595 8.17415C24.0185 8.21544 24.0083 8.2464 24.0288 8.26704C23.9878 8.37025 23.9263 8.47346 23.8443 8.57667C23.7827 8.67988 23.752 8.78308 23.752 8.88629C23.6905 9.07207 23.6085 9.2372 23.506 9.3817C23.424 9.50555 23.3625 9.681 23.3215 9.90806L23.1985 10.0009C23.1575 10.0422 23.1369 10.0732 23.1369 10.0938C23.1575 10.0938 23.1575 10.1145 23.1369 10.1558ZM20.4308 15.9767C20.5538 15.7703 20.7588 15.502 21.0458 15.1717C21.3533 14.8415 21.6813 14.5112 22.0299 14.1809C22.3784 13.83 22.7167 13.5101 23.0447 13.2211C23.3932 12.9321 23.6802 12.7153 23.9058 12.5709V12.5399C23.2702 13.0353 22.7474 13.4481 22.3374 13.7784C21.9479 14.088 21.6198 14.3667 21.3533 14.6144C21.1073 14.8415 20.9125 15.0582 20.769 15.2646C20.6255 15.471 20.5128 15.7084 20.4308 15.9767ZM23.5982 11.9206C23.5572 11.9619 23.506 11.9826 23.4445 11.9826C23.383 11.9826 23.342 12.0032 23.3215 12.0445C23.0549 12.2715 22.7782 12.5089 22.4912 12.7566C22.2246 13.0043 22.0094 13.2314 21.8454 13.4378C21.9274 13.3965 21.9889 13.3449 22.0299 13.283C22.0914 13.2211 22.1529 13.1488 22.2144 13.0663C22.2964 12.963 22.3784 12.8805 22.4604 12.8186C22.5424 12.7566 22.6347 12.6947 22.7372 12.6328C22.8192 12.5709 22.8909 12.5089 22.9524 12.447C23.0344 12.3851 23.0959 12.3128 23.1369 12.2303C23.1985 12.2303 23.2395 12.2199 23.26 12.1993C23.2805 12.1787 23.3112 12.1477 23.3522 12.1064C23.4342 12.0858 23.506 12.0548 23.5675 12.0135C23.629 11.9722 23.6802 11.931 23.7212 11.8897C23.7622 11.8484 23.8032 11.8174 23.8443 11.7968C23.9058 11.7555 23.9468 11.6936 23.9673 11.611C23.8648 11.6523 23.793 11.7039 23.752 11.7658C23.711 11.8277 23.6597 11.8794 23.5982 11.9206ZM26.735 11.7658C26.694 11.7865 26.6325 11.7761 26.5504 11.7349C26.4889 11.6936 26.4274 11.6523 26.3659 11.611C26.4684 11.5697 26.5402 11.58 26.5812 11.642C26.6427 11.7039 26.694 11.7452 26.735 11.7658ZM21.5993 13.7165C21.7018 13.6545 21.7428 13.5926 21.7223 13.5307C21.7018 13.572 21.6711 13.6029 21.6301 13.6236C21.6096 13.6442 21.5993 13.6752 21.5993 13.7165ZM23.998 11.611C23.998 11.6317 24.0083 11.642 24.0288 11.642L24.0595 11.611V11.5491C24.0185 11.5491 23.998 11.5697 23.998 11.611ZM22.7372 13.3759C22.7577 13.3552 22.7679 13.3449 22.7679 13.3449C22.7884 13.3449 22.8089 13.3243 22.8294 13.283C22.7679 13.3449 22.7372 13.3759 22.7372 13.3759Z" transform="translate(46.8901 7.76611)" fill="#34314B"/>
<path d="M36.4188 16.9676C36.5008 16.8437 36.6238 16.6682 36.7878 16.4412C36.9723 16.1935 37.1568 15.9458 37.3413 15.6981C37.5259 15.4297 37.7001 15.1717 37.8641 14.924C38.0486 14.6763 38.1922 14.4905 38.2947 14.3667C38.3357 14.346 38.3664 14.3151 38.3869 14.2738C38.4074 14.2119 38.4484 14.1809 38.5099 14.1809C38.4074 14.3254 38.3152 14.4699 38.2332 14.6144C38.1512 14.7382 38.0486 14.8621 37.9256 14.9859C37.9666 15.0066 38.0179 14.9859 38.0794 14.924C38.1819 14.8208 38.2742 14.7176 38.3562 14.6144C38.4382 14.4905 38.5304 14.377 38.6329 14.2738L39.1865 13.7165C39.1865 13.7578 39.2172 13.7784 39.2787 13.7784C39.2172 13.9229 39.0942 14.1087 38.9097 14.3357C38.7457 14.5628 38.5714 14.7795 38.3869 14.9859C38.2229 15.1924 38.0896 15.3678 37.9871 15.5123C37.9051 15.6362 37.9051 15.6774 37.9871 15.6362C38.2742 15.3059 38.5714 14.9756 38.879 14.6454C39.1865 14.3151 39.5145 13.9951 39.863 13.6855C39.8835 13.6649 39.8528 13.7268 39.7708 13.8713C39.6888 14.0158 39.5863 14.1912 39.4632 14.3977C39.3402 14.5834 39.2275 14.7692 39.125 14.955C39.0225 15.1201 38.961 15.2233 38.9405 15.2646C38.9405 15.2852 39.002 15.213 39.125 15.0479C39.2685 14.8621 39.5248 14.5112 39.8938 13.9951C39.9348 14.0364 39.9348 14.0777 39.8938 14.119C39.8733 14.1396 39.8528 14.1706 39.8323 14.2119C39.6683 14.5009 39.4735 14.7795 39.248 15.0479C39.043 15.3162 38.838 15.5742 38.6329 15.8219C38.8175 15.6362 39.002 15.4401 39.1865 15.2336C39.371 15.0066 39.576 14.7795 39.8015 14.5525C39.658 14.8208 39.4837 15.0375 39.2787 15.2027C39.0122 15.4917 38.7457 15.8116 38.4792 16.1625C38.2332 16.5134 37.9974 16.8334 37.7719 17.1224C37.7309 17.143 37.7001 17.174 37.6796 17.2153C37.6591 17.2565 37.6079 17.2875 37.5259 17.3081C37.5259 17.3288 37.5156 17.3494 37.4951 17.3701C37.4746 17.3701 37.4644 17.3804 37.4644 17.401C37.4439 17.4217 37.3823 17.4939 37.2798 17.6178C37.1978 17.7416 37.1056 17.8758 37.0031 18.0203C36.9006 18.1441 36.8083 18.268 36.7263 18.3918C36.6443 18.5157 36.6033 18.5879 36.6033 18.6086C36.7878 18.3815 36.9723 18.1441 37.1568 17.8964C37.3618 17.6487 37.5361 17.4733 37.6796 17.3701V17.2772C37.7821 17.2772 37.8129 17.2359 37.7719 17.1533H37.8334L38.0794 16.8747C38.0999 16.8334 38.0999 16.8231 38.0794 16.8437C38.0794 16.8643 38.0896 16.8747 38.1101 16.8747L38.3869 16.596L38.5099 16.3793V16.4412L38.8482 15.9767L39.125 15.5742C39.207 15.533 39.2685 15.471 39.3095 15.3885C39.3505 15.3059 39.412 15.244 39.494 15.2027C39.494 15.2646 39.453 15.3265 39.371 15.3885C39.3095 15.4297 39.2685 15.4917 39.248 15.5742C39.166 15.6155 39.1045 15.6671 39.0635 15.729C39.043 15.791 39.0122 15.8632 38.9712 15.9458L38.2024 16.9676L37.2798 18.0822C37.4234 17.8964 37.5566 17.7003 37.6796 17.4939C37.8231 17.2875 37.9051 17.1637 37.9256 17.1224L36.9108 18.4847L35.8652 19.6613C35.7422 19.8058 35.5987 19.94 35.4347 20.0638C35.3117 20.2909 35.1477 20.4457 34.9427 20.5283C34.8197 20.6728 34.7069 20.8069 34.6044 20.9308C34.5224 21.0546 34.4199 21.1682 34.2969 21.2714C34.1944 21.4365 34.0611 21.5707 33.8971 21.6739C33.7536 21.7771 33.5998 21.87 33.4358 21.9525C33.3538 22.0145 33.2923 22.0661 33.2513 22.1074C33.2103 22.1693 33.1488 22.2209 33.0668 22.2622C32.9643 22.3241 32.8618 22.3654 32.7593 22.386C32.6568 22.4273 32.5645 22.4686 32.4825 22.5099C32.4415 22.5099 32.3595 22.5305 32.2365 22.5718C32.134 22.6131 32.0212 22.6544 31.8982 22.6957C31.7752 22.7576 31.6522 22.7989 31.5292 22.8195C31.4267 22.8608 31.3447 22.8814 31.2832 22.8814C31.1602 22.8814 31.0576 22.8401 30.9756 22.7576C30.8936 22.675 30.8116 22.5821 30.7296 22.4789C30.6681 22.3963 30.5861 22.3241 30.4836 22.2622C30.4016 22.2003 30.2888 22.1796 30.1453 22.2002L29.9916 22.0764C29.9916 21.9732 29.9711 21.9009 29.9301 21.8597C29.8891 21.612 29.8686 21.3643 29.8686 21.1166C29.8686 20.8689 29.8993 20.6212 29.9608 20.3735C30.0428 19.7955 30.1556 19.2898 30.2991 18.8563C30.4631 18.4022 30.6374 17.979 30.8219 17.5868C31.0064 17.174 31.2012 16.7818 31.4062 16.4102C31.6112 16.018 31.8265 15.6052 32.052 15.1717C32.093 15.1304 32.1135 15.0892 32.1135 15.0479C32.134 14.9859 32.1647 14.9447 32.2057 14.924C32.3697 14.5937 32.5132 14.346 32.6363 14.1809C32.7593 13.9951 32.872 13.8403 32.9745 13.7165C33.0975 13.572 33.2206 13.4172 33.3436 13.252C33.4666 13.0869 33.6203 12.8495 33.8048 12.5399C33.5178 12.6225 33.2 12.6431 32.8515 12.6018C32.503 12.5605 32.2467 12.447 32.0827 12.2612L31.9597 12.5089C31.7957 12.6947 31.6522 12.9011 31.5292 13.1282C31.4062 13.3552 31.2832 13.5823 31.1602 13.8094C30.8936 14.1809 30.6476 14.5009 30.4221 14.7692C30.2171 15.0375 29.9813 15.3678 29.7148 15.76C29.5918 15.9871 29.3868 16.2245 29.0998 16.4722C28.8127 16.7199 28.5872 16.9572 28.4232 17.1843C28.3822 17.2256 28.3309 17.2772 28.2694 17.3391C28.2284 17.401 28.1874 17.4733 28.1464 17.5558H28.0849C28.0439 17.5971 28.0132 17.6487 27.9927 17.7107C27.9722 17.7519 27.9414 17.7726 27.9004 17.7726C27.8594 17.7519 27.8492 17.7313 27.8697 17.7107C27.8902 17.69 27.9004 17.6694 27.9004 17.6487C27.7569 17.6694 27.6749 17.721 27.6544 17.8035C27.6339 17.8861 27.5929 17.9584 27.5314 18.0203L27.6236 17.8345C27.6031 17.7932 27.5826 17.7932 27.5621 17.8345C27.5621 17.8552 27.5416 17.8655 27.5006 17.8655C27.5006 17.8242 27.5109 17.8035 27.5314 17.8035C27.5724 17.7829 27.5929 17.7519 27.5929 17.7107C27.4494 17.7107 27.3469 17.7623 27.2854 17.8655C27.2649 17.8242 27.2751 17.8035 27.3161 17.8035C27.3366 17.7829 27.3264 17.7519 27.2854 17.7107C27.2649 17.7313 27.2546 17.7519 27.2546 17.7726C27.2341 17.7932 27.1931 17.8139 27.1316 17.8345C27.1111 17.7932 27.1316 17.7519 27.1931 17.7107C27.2546 17.6694 27.2854 17.6281 27.2854 17.5868C27.2034 17.6281 27.1419 17.6797 27.1009 17.7416C27.0394 17.8035 26.9676 17.8448 26.8856 17.8655C26.9266 17.8035 26.9778 17.7313 27.0394 17.6487C27.1009 17.5662 27.1726 17.4836 27.2546 17.401C27.1521 17.4217 27.0906 17.463 27.0701 17.5249C27.0496 17.5868 27.0189 17.6384 26.9779 17.6797C26.9574 17.6178 26.9778 17.5558 27.0394 17.4939C27.1009 17.432 27.1521 17.3597 27.1931 17.2772C27.1521 17.2772 27.1214 17.2978 27.1009 17.3391C27.0599 17.3804 27.0291 17.4217 27.0086 17.463C26.9676 17.4217 26.9574 17.401 26.9779 17.401C26.9163 17.401 26.8343 17.432 26.7318 17.4939C26.6088 17.5352 26.5268 17.5662 26.4858 17.5868C26.5883 17.3597 26.7216 17.1533 26.8856 16.9676C27.0496 16.7818 27.1931 16.596 27.3161 16.4102C27.3571 16.3277 27.4084 16.2451 27.4699 16.1625C27.5109 16.0593 27.5519 15.9664 27.5929 15.8839C27.6134 15.8839 27.6236 15.8839 27.6236 15.8839C27.6236 15.8632 27.6339 15.8529 27.6544 15.8529C27.7979 15.6052 27.9927 15.3265 28.2387 15.0169C28.5052 14.6866 28.6897 14.3977 28.7922 14.1499C28.8742 14.0467 28.9665 13.9332 29.069 13.8094C29.1715 13.6649 29.2535 13.5204 29.315 13.3759C29.4175 13.1695 29.5098 13.0043 29.5918 12.8805C29.6738 12.736 29.7558 12.6018 29.8378 12.478C29.9198 12.3335 30.0018 12.1993 30.0838 12.0754C30.1863 11.931 30.2991 11.7555 30.4221 11.5491C30.4426 11.5284 30.4324 11.5181 30.3913 11.5181C30.3708 11.4975 30.3606 11.4768 30.3606 11.4562C30.4016 11.4768 30.4324 11.4768 30.4529 11.4562C30.4734 11.4356 30.4939 11.4252 30.5144 11.4252C30.3298 11.1156 30.3196 10.7337 30.4836 10.2796C30.6476 9.80485 30.7911 9.35073 30.9141 8.91726C30.9346 8.87597 30.9654 8.83469 31.0064 8.7934C31.0474 8.73148 31.0884 8.67987 31.1294 8.63859C31.1704 8.70052 31.1704 8.78308 31.1294 8.88629C31.0884 8.96886 31.0679 9.06175 31.0679 9.16496C30.9654 9.37138 30.8834 9.61908 30.8219 9.90806C30.7809 10.197 30.8014 10.4551 30.8834 10.6821C30.9039 10.4757 30.9141 10.2796 30.9141 10.0938C30.9141 9.90806 30.9654 9.72229 31.0679 9.53651C31.0884 9.35073 31.1191 9.17528 31.1602 9.01014C31.2012 8.84501 31.2422 8.67987 31.2832 8.51474C31.3242 8.55602 31.3447 8.56634 31.3447 8.5457C31.3447 8.50442 31.3652 8.48378 31.4062 8.48378C31.4267 8.48378 31.4267 8.4941 31.4062 8.51474C31.4062 8.53538 31.4164 8.55602 31.4369 8.57667C31.5394 8.53538 31.6009 8.46314 31.6214 8.35993C31.6624 8.25672 31.7342 8.18447 31.8367 8.14319C31.8777 8.14319 31.8982 8.15351 31.8982 8.17415C31.9187 8.19479 31.9495 8.20511 31.9905 8.20511C31.9085 8.1019 31.7957 8.08126 31.6522 8.14319C31.6522 8.08126 31.6932 8.06062 31.7752 8.08126C31.8777 8.08126 31.9495 8.1019 31.9905 8.14319C32.052 8.03998 32.1032 7.96773 32.1442 7.92645C32.2057 7.88517 32.1852 7.94709 32.0827 8.11223C32.1237 8.09158 32.1545 8.07094 32.175 8.0503C32.216 8.00902 32.2877 7.98837 32.3902 7.98837C32.4517 7.98837 32.5132 8.00902 32.5748 8.0503C32.6568 8.09158 32.7388 8.12255 32.8208 8.14319C32.8618 8.14319 32.872 8.13287 32.8515 8.11223C32.8515 8.07094 32.872 8.0503 32.913 8.0503C32.9745 8.13287 33.036 8.18447 33.0975 8.20511C33.1795 8.20511 33.2616 8.22576 33.3436 8.26704C33.4461 8.55602 33.4563 8.84501 33.3743 9.13399C33.3128 9.40234 33.2308 9.681 33.1283 9.96999C33.0873 10.1351 33.0258 10.2693 32.9438 10.3725C32.8823 10.4757 32.8208 10.6099 32.7593 10.775C32.6773 10.9814 32.6363 11.1362 32.6363 11.2395C32.6568 11.3014 32.7285 11.3633 32.8515 11.4252C32.995 11.4665 33.118 11.4768 33.2206 11.4562C33.2411 11.4562 33.2616 11.4562 33.2821 11.4562C33.3026 11.4356 33.3231 11.4252 33.3436 11.4252C33.3846 11.4252 33.4358 11.4356 33.4973 11.4562C33.5588 11.4768 33.6203 11.4872 33.6818 11.4872C33.8458 11.4665 33.9894 11.4356 34.1124 11.3943C34.2354 11.3323 34.3891 11.3014 34.5736 11.3014C34.6147 11.3014 34.6249 11.3014 34.6044 11.3014C34.5839 11.2807 34.5839 11.2601 34.6044 11.2395C34.6659 11.3014 34.7479 11.3014 34.8504 11.2395C34.8914 11.2395 34.9119 11.2498 34.9119 11.2704C34.9324 11.2911 34.9529 11.2911 34.9734 11.2704C35.0144 11.2498 35.0759 11.2395 35.1579 11.2395C35.2399 11.2395 35.3117 11.2188 35.3732 11.1775C35.4142 11.1775 35.445 11.1879 35.4655 11.2085C35.486 11.2291 35.527 11.2291 35.5885 11.2085C35.6295 11.2704 35.6602 11.322 35.6807 11.3633C35.7217 11.4046 35.7525 11.4665 35.773 11.5491C35.814 11.611 35.855 11.6523 35.896 11.6729C35.937 11.6936 35.978 11.7245 36.019 11.7658C36.06 11.9103 36.101 12.0032 36.142 12.0445C36.142 12.1271 36.1625 12.189 36.2035 12.2303C36.2445 12.2715 36.2855 12.3232 36.3265 12.3851C36.2855 12.4264 36.2548 12.4986 36.2343 12.6018C36.2343 12.6844 36.2035 12.7463 36.142 12.7876C36.101 12.7876 36.0908 12.7773 36.1113 12.7566C36.1318 12.7153 36.1318 12.6741 36.1113 12.6328C36.0293 12.9011 35.9267 13.1385 35.8037 13.3449C35.6807 13.5307 35.568 13.7474 35.4655 13.9951C35.4245 14.0364 35.3835 14.088 35.3425 14.1499C35.322 14.2119 35.2809 14.2635 35.2194 14.3048C35.0964 14.5318 35.0042 14.697 34.9427 14.8002C34.8812 14.9034 34.8197 14.9963 34.7582 15.0788C34.6967 15.1408 34.6352 15.213 34.5736 15.2956C34.5326 15.3781 34.4711 15.4917 34.3891 15.6362C34.1226 16.0903 33.8868 16.4825 33.6818 16.8127C33.4973 17.143 33.3231 17.4733 33.159 17.8035C33.0155 18.1338 32.8823 18.5054 32.7593 18.9182C32.6363 19.3104 32.5235 19.7955 32.421 20.3735C32.6465 20.167 32.8515 20.0432 33.036 20.0019C33.2411 19.94 33.4768 19.8161 33.7433 19.6303C33.7433 19.6097 33.7433 19.5994 33.7433 19.5994C33.7638 19.5994 33.7741 19.6097 33.7741 19.6303C33.9996 19.4033 34.2149 19.1762 34.4199 18.9492C34.6249 18.7221 34.8607 18.5157 35.1272 18.3299H35.0657C35.1067 18.2886 35.1477 18.2473 35.1887 18.2061C35.2502 18.1441 35.2809 18.0925 35.2809 18.0512C35.3219 18.01 35.363 17.9687 35.404 17.9274C35.445 17.8861 35.5065 17.8345 35.5885 17.7726V17.7416C35.5885 17.7416 35.609 17.721 35.65 17.6797C35.7525 17.5971 35.855 17.4939 35.9575 17.3701C36.0805 17.2462 36.2138 17.1327 36.3573 17.0295V17.0604L36.4188 16.9676ZM36.1728 19.073C36.1318 19.0524 36.1318 19.0317 36.1728 19.0111C36.2343 18.9698 36.2855 18.9492 36.3265 18.9492C36.3265 18.9492 36.3368 18.9285 36.3573 18.8872C36.3983 18.846 36.4188 18.8047 36.4188 18.7634C36.2548 18.8666 36.1215 18.9905 36.019 19.1349C35.9165 19.2588 35.8242 19.4033 35.7422 19.5684C35.7832 19.5478 35.814 19.5065 35.8345 19.4446C35.8755 19.3826 35.9267 19.331 35.9883 19.2898C35.9883 19.2485 36.0088 19.2072 36.0498 19.1659C36.0703 19.1865 36.0703 19.2072 36.0498 19.2278C36.0293 19.2278 36.019 19.2382 36.019 19.2588L36.2958 18.9801C36.2138 19.0214 36.1728 19.0524 36.1728 19.073ZM35.9883 17.432C36.0293 17.3907 36.0703 17.3494 36.1113 17.3081C36.1728 17.2669 36.224 17.2153 36.265 17.1533C36.2035 17.1946 36.142 17.2462 36.0805 17.3081C36.019 17.3494 35.9883 17.3907 35.9883 17.432ZM36.6033 18.6086C36.5418 18.6086 36.5008 18.6395 36.4803 18.7015C36.4803 18.7427 36.47 18.784 36.4495 18.8253L36.6033 18.6086ZM36.634 18.7015C36.7571 18.6602 36.8186 18.5879 36.8186 18.4847L36.634 18.7015ZM37.7719 14.924C37.7309 14.924 37.7104 14.924 37.7104 14.924C37.7104 14.8621 37.7309 14.8311 37.7719 14.8311C37.7719 14.8518 37.7719 14.8621 37.7719 14.8621C37.7924 14.8621 37.7924 14.8827 37.7719 14.924ZM39.3402 15.2956C39.2992 15.3781 39.2275 15.471 39.125 15.5742L39.3402 15.2956ZM38.5714 16.2864C38.6124 16.2451 38.6432 16.2038 38.6637 16.1625C38.6842 16.1212 38.7149 16.08 38.7559 16.0387L38.5714 16.2864ZM36.9108 18.4847C36.9313 18.4847 36.9826 18.4228 37.0646 18.299L36.9108 18.4847ZM38.7559 16.0077C38.7559 16.0284 38.7867 16.0077 38.8482 15.9458L38.8175 15.9767C38.7969 15.9974 38.7764 16.0077 38.7559 16.0077Z" transform="translate(46.8901 7.76611)" fill="#34314B"/>
<path d="M49.9108 11.0846C49.9518 11.0846 49.9518 11.095 49.9108 11.1156C49.8903 11.1156 49.8903 11.1259 49.9108 11.1466C49.9518 11.1259 50.0133 11.095 50.0953 11.0537C50.1773 10.9918 50.2491 10.9608 50.3106 10.9608C50.2696 11.064 50.2081 11.1569 50.1261 11.2395C50.0646 11.3014 50.0031 11.3736 49.9416 11.4562L50.1876 11.2704C50.1261 11.3943 50.0236 11.5078 49.8801 11.611C49.7571 11.7142 49.6238 11.8071 49.4803 11.8897C49.4803 11.931 49.4803 11.9516 49.4803 11.9516C49.5008 11.931 49.5111 11.9413 49.5111 11.9826C49.429 12.0238 49.347 12.0755 49.265 12.1374C49.183 12.1993 49.101 12.2819 49.019 12.3851C49.0805 12.3644 49.1318 12.3541 49.1728 12.3541C49.0703 12.3954 48.978 12.447 48.896 12.5089C48.814 12.5502 48.7422 12.5915 48.6807 12.6328C48.6807 12.6328 48.6807 12.6121 48.6807 12.5709C48.6602 12.5709 48.6397 12.5812 48.6192 12.6018C48.5987 12.6225 48.5987 12.6328 48.6192 12.6328H48.65C48.65 12.6741 48.6192 12.6947 48.5577 12.6947C48.5577 12.6741 48.5475 12.6637 48.527 12.6637V12.6947C48.527 12.6947 48.5065 12.6947 48.4655 12.6947V12.7566C48.3015 12.7979 48.1375 12.8702 47.9734 12.9734C47.8094 13.0559 47.6249 13.1075 47.4199 13.1282C47.3584 13.1488 47.3174 13.1591 47.2969 13.1591C47.2969 13.1591 47.2866 13.1695 47.2661 13.1901C47.2661 13.1901 47.2251 13.1901 47.1431 13.1901C46.9996 13.2107 46.8459 13.2211 46.6818 13.2211C46.5178 13.2211 46.3948 13.2314 46.3128 13.252C46.1488 13.252 45.9745 13.252 45.79 13.252C45.6055 13.252 45.4108 13.2211 45.2057 13.1591C45.2467 13.2417 45.2467 13.3036 45.2057 13.3449C45.1852 13.3656 45.175 13.4172 45.175 13.4997C45.134 13.4791 45.1237 13.4585 45.1442 13.4378C45.1647 13.4172 45.1647 13.3965 45.1442 13.3759L44.9905 13.8403C44.9495 13.9435 44.9187 14.0261 44.8982 14.088C44.8777 14.15 44.847 14.2325 44.806 14.3357C44.7855 14.3564 44.765 14.377 44.7445 14.3977C44.724 14.3977 44.7137 14.4183 44.7137 14.4596L44.7445 14.4905C44.724 14.635 44.6727 14.7692 44.5907 14.8931C44.5292 14.9963 44.4779 15.1098 44.4369 15.2336C44.4984 15.213 44.5292 15.1717 44.5292 15.1098C44.5497 15.0272 44.5804 14.9653 44.6214 14.924C44.6625 14.8415 44.6932 14.7795 44.7137 14.7382C44.7547 14.6763 44.7752 14.6144 44.7752 14.5525C44.8162 14.5937 44.806 14.6454 44.7445 14.7073C44.7035 14.7692 44.7035 14.8208 44.7445 14.8621C44.7035 14.9859 44.6522 15.1098 44.5907 15.2336C44.5497 15.3369 44.5189 15.4607 44.4984 15.6052C44.4574 15.5846 44.4369 15.6155 44.4369 15.6981C44.4574 15.76 44.4472 15.7807 44.4062 15.76C44.4267 15.8426 44.4062 15.9148 44.3447 15.9767C44.3037 16.018 44.2729 16.0903 44.2524 16.1935C44.2524 16.1522 44.2832 16.1316 44.3447 16.1316C44.3447 16.1935 44.3344 16.2244 44.3139 16.2244C44.3139 16.2657 44.3139 16.2864 44.3139 16.2864C44.3344 16.2657 44.3447 16.2761 44.3447 16.3173C44.3242 16.338 44.2729 16.3483 44.1909 16.3483C44.1909 16.3483 44.1807 16.3277 44.1602 16.2864C43.9347 16.6373 43.7194 17.0088 43.5144 17.401C43.3299 17.7726 43.1146 18.1235 42.8686 18.4538C42.8891 18.4744 42.8993 18.4744 42.8993 18.4538C42.9198 18.4125 42.9506 18.3918 42.9916 18.3918C42.8071 18.6395 42.6123 18.8872 42.4073 19.1349C42.2023 19.3826 41.9973 19.62 41.7922 19.8471C41.6897 19.9916 41.5872 20.1257 41.4847 20.2496C41.4027 20.3735 41.3105 20.487 41.208 20.5902C41.167 20.6315 41.1259 20.6624 41.0849 20.6831C41.0439 20.7037 41.0029 20.7347 40.9619 20.776C40.7364 21.003 40.4802 21.2404 40.1931 21.4881C39.9266 21.7152 39.6088 21.8906 39.2398 22.0145C39.2193 22.0145 39.2091 22.0558 39.2091 22.1383C38.9835 22.2003 38.7068 22.2312 38.3787 22.2312C38.0507 22.2519 37.7945 22.2002 37.6099 22.0764C37.1384 22.0145 36.7489 21.8597 36.4414 21.612C36.1338 21.3643 35.9596 21.003 35.9186 20.5283C35.8571 20.1774 35.8571 19.8471 35.9186 19.5375C35.9596 19.2278 36.0211 18.9182 36.1031 18.6086C36.3491 17.6178 36.6669 16.7405 37.0564 15.9767C37.2204 15.7084 37.3639 15.4401 37.4869 15.1717C37.6099 14.8827 37.774 14.6247 37.979 14.3977C37.9995 14.2944 38.0302 14.2222 38.0712 14.1809C38.1327 14.119 38.1737 14.0364 38.1942 13.9332C38.2967 13.83 38.3582 13.7268 38.3787 13.6236C38.5018 13.541 38.5633 13.4481 38.5633 13.3449C38.6043 13.3862 38.6248 13.3552 38.6248 13.252C38.6453 13.252 38.6658 13.2417 38.6863 13.2211C38.7888 13.0147 38.9118 12.8495 39.0553 12.7257C39.1988 12.5812 39.3218 12.4057 39.4243 12.1993C39.5063 12.158 39.5473 12.1064 39.5473 12.0445C39.8344 11.6936 40.1316 11.3427 40.4391 10.9918C40.7467 10.6202 41.0747 10.2693 41.4232 9.93902C41.4232 9.91838 41.4335 9.89774 41.454 9.8771V9.90806C41.4745 9.88742 41.495 9.8771 41.5155 9.8771C41.536 9.8771 41.5667 9.86678 41.6077 9.84614C41.7102 9.78421 41.7922 9.70164 41.8538 9.59844C41.9358 9.47458 42.028 9.41266 42.1305 9.41266C42.2945 9.37138 42.438 9.34041 42.5611 9.31977C42.7046 9.27849 42.8481 9.21656 42.9916 9.13399L43.2991 9.3817C43.5041 9.34041 43.6579 9.36105 43.7604 9.44362V9.53651C43.8424 9.63972 43.9449 9.73261 44.0679 9.81517C44.2114 9.8771 44.2319 9.99063 44.1294 10.1558C44.2114 10.197 44.2627 10.2074 44.2832 10.1867C44.3037 10.228 44.3139 10.2693 44.3139 10.3106C44.3344 10.3519 44.3549 10.3828 44.3754 10.4035C44.4164 10.3828 44.4164 10.3622 44.3754 10.3415C44.3549 10.3003 44.3549 10.2693 44.3754 10.2487C44.3959 10.2693 44.4062 10.3003 44.4062 10.3415C44.4062 10.3622 44.4267 10.3828 44.4677 10.4035V10.3106C44.5087 10.3931 44.5394 10.4344 44.5599 10.4344C44.5804 10.4138 44.5804 10.4035 44.5599 10.4035C44.5394 10.3828 44.5394 10.3519 44.5599 10.3106C44.6009 10.3106 44.6112 10.3106 44.5907 10.3106C44.5907 10.2899 44.6009 10.2796 44.6214 10.2796C44.683 10.3828 44.7547 10.486 44.8367 10.5892C44.9392 10.6718 44.9802 10.7647 44.9597 10.8679C44.9802 10.9298 45.0212 10.9608 45.0827 10.9608C45.1032 11.064 45.1135 11.1672 45.1135 11.2704C45.1135 11.353 45.134 11.4459 45.175 11.5491C45.1545 11.5697 45.134 11.611 45.1135 11.6729C45.1135 11.7142 45.1442 11.7349 45.2057 11.7349C45.2467 11.5697 45.2365 11.3943 45.175 11.2085C45.134 11.0021 45.093 10.8163 45.052 10.6512C45.1545 10.775 45.216 10.9402 45.2365 11.1466C45.257 11.353 45.2878 11.5491 45.3288 11.7349V11.6729C45.3903 11.7349 45.544 11.7865 45.79 11.8277C46.036 11.8484 46.2103 11.8587 46.3128 11.8587C46.6203 11.8587 46.8561 11.8484 47.0201 11.8277C47.2046 11.8071 47.3584 11.7761 47.4814 11.7349C47.7069 11.6317 47.9017 11.5491 48.0657 11.4872C48.2502 11.4252 48.4245 11.3427 48.5885 11.2395L48.773 11.1775C48.814 11.1775 48.8448 11.1672 48.8653 11.1466C48.9063 11.1053 48.9473 11.0743 48.9883 11.0537C48.9678 11.095 48.9473 11.1259 48.9268 11.1466C48.9063 11.1466 48.9063 11.1672 48.9268 11.2085C48.8653 11.2291 48.814 11.3014 48.773 11.4252L49.5726 10.9298C49.6136 10.9298 49.6341 10.9298 49.6341 10.9298C49.6546 10.9092 49.6853 10.9092 49.7263 10.9298C49.8903 10.8266 50.0338 10.7028 50.1568 10.5583C50.1978 10.5996 50.1978 10.6408 50.1568 10.6821C50.1158 10.7028 50.0851 10.7234 50.0646 10.7441C49.9621 10.8266 49.8698 10.9195 49.7878 11.0227C49.7263 11.1259 49.6443 11.2188 49.5418 11.3014C49.6443 11.2601 49.7161 11.2188 49.7571 11.1775C49.7981 11.1362 49.8493 11.1053 49.9108 11.0846ZM43.6374 12.0754C43.6374 12.0754 43.6271 12.0858 43.6066 12.1064C43.5656 12.2303 43.5349 12.3438 43.5144 12.447C43.5144 12.5502 43.4939 12.6534 43.4529 12.7566C43.4734 12.6328 43.4939 12.5192 43.5144 12.416C43.5349 12.3128 43.5451 12.1787 43.5451 12.0135C43.4631 11.9722 43.4016 11.9103 43.3606 11.8277C43.3196 11.7245 43.2581 11.6523 43.1761 11.611C43.1761 11.5697 43.1556 11.5388 43.1146 11.5181C43.0736 11.4975 43.0326 11.4665 42.9916 11.4252C42.7866 11.6317 42.6123 11.8587 42.4688 12.1064C42.3458 12.3541 42.1715 12.5709 41.946 12.7566C41.9255 12.7979 41.905 12.8289 41.8845 12.8495C41.864 12.8702 41.8538 12.9114 41.8538 12.9734C41.7922 13.0147 41.741 13.0663 41.7 13.1282C41.659 13.1901 41.6077 13.252 41.5462 13.314C41.5052 13.3759 41.454 13.4378 41.3925 13.4997C41.331 13.5617 41.2797 13.6339 41.2387 13.7165C41.2182 13.7578 41.208 13.7887 41.208 13.8094C41.208 13.8094 41.1875 13.83 41.1465 13.8713C40.9824 14.0983 40.8389 14.3254 40.7159 14.5525C40.5929 14.7589 40.4597 14.9756 40.3161 15.2027C40.2751 15.2852 40.2239 15.3678 40.1624 15.4504C40.1214 15.533 40.0804 15.6258 40.0394 15.729C39.8754 16.018 39.7216 16.307 39.5781 16.596C39.4346 16.885 39.3116 17.1946 39.2091 17.5249C39.1066 17.6694 39.0245 17.8242 38.963 17.9893C38.922 18.1545 38.8708 18.3093 38.8093 18.4538C38.8298 18.495 38.8503 18.5363 38.8708 18.5776C38.8913 18.6189 38.881 18.6602 38.84 18.7015C38.8195 18.7221 38.799 18.7221 38.7785 18.7015C38.758 18.6602 38.7478 18.6602 38.7478 18.7015C38.6453 18.9698 38.553 19.2485 38.471 19.5375C38.389 19.8058 38.3582 20.1154 38.3787 20.4663C39.0143 20.0948 39.5576 19.6303 40.0086 19.073C40.4597 18.5157 40.8902 17.948 41.3002 17.3701C41.3002 17.3494 41.3105 17.3391 41.331 17.3391C41.3515 17.3185 41.3515 17.2875 41.331 17.2462C41.5155 17.0604 41.6692 16.854 41.7922 16.627C41.9358 16.3793 42.069 16.1419 42.192 15.9148C42.233 15.9148 42.2535 15.9148 42.2535 15.9148C42.2535 15.8942 42.274 15.8839 42.315 15.8839C42.356 15.8013 42.3868 15.7084 42.4073 15.6052C42.4278 15.502 42.4585 15.4091 42.4995 15.3265C42.5816 15.1614 42.6738 14.9859 42.7763 14.8002C42.8993 14.6144 42.9711 14.4183 42.9916 14.2119C42.9916 14.1912 42.9711 14.2016 42.9301 14.2428C42.8891 14.2635 42.8788 14.2428 42.8993 14.1809C42.8788 14.1603 42.8788 14.1603 42.8993 14.1809C42.9403 14.1809 42.9608 14.1706 42.9608 14.1499C42.9813 14.1293 42.9916 14.1293 42.9916 14.1499C43.0121 14.1499 43.0428 14.1396 43.0838 14.119C43.1863 13.7887 43.2991 13.4688 43.4221 13.1591C43.5656 12.8289 43.6374 12.4676 43.6374 12.0754ZM44.1294 16.5031C44.0884 16.6682 44.0167 16.8231 43.9141 16.9676C43.8116 17.112 43.7194 17.2565 43.6374 17.401C43.6784 17.2565 43.7501 17.112 43.8526 16.9676C43.9552 16.8231 44.0474 16.6682 44.1294 16.5031ZM48.3425 12.6947C48.24 12.7153 48.1477 12.736 48.0657 12.7566C47.9837 12.7773 47.9222 12.8082 47.8812 12.8495L48.3425 12.6947ZM44.4677 15.3265C44.5907 15.2027 44.6522 15.0788 44.6522 14.955L44.4677 15.3265ZM43.6681 9.22688C43.6681 9.26817 43.6374 9.28881 43.5759 9.28881C43.5349 9.26817 43.5041 9.24752 43.4836 9.22688C43.5041 9.20624 43.5349 9.20624 43.5759 9.22688C43.6169 9.22688 43.6476 9.22688 43.6681 9.22688ZM45.0212 14.2119C45.0007 14.15 45.0315 14.0364 45.1135 13.8713L45.0212 14.2119ZM44.3754 15.4194C44.4369 15.3988 44.4472 15.3472 44.4062 15.2646C44.4062 15.2852 44.3959 15.3162 44.3754 15.3575C44.3754 15.3781 44.3754 15.3988 44.3754 15.4194ZM44.4062 15.4813C44.4267 15.4813 44.4472 15.4607 44.4677 15.4194C44.4882 15.3575 44.4882 15.3369 44.4677 15.3575C44.4267 15.3988 44.4062 15.4401 44.4062 15.4813ZM49.4188 11.3633C49.3778 11.3633 49.347 11.3736 49.3265 11.3943C49.306 11.4149 49.306 11.4356 49.3265 11.4562L49.4188 11.3633ZM44.7752 10.4654C44.7752 10.4241 44.7957 10.4035 44.8367 10.4035C44.8777 10.4035 44.8777 10.4241 44.8367 10.4654H44.7752ZM48.896 12.447C48.9575 12.447 48.9883 12.4264 48.9883 12.3851C48.9678 12.3851 48.937 12.4057 48.896 12.447ZM43.4221 12.7876C43.4426 12.7876 43.4529 12.8082 43.4529 12.8495C43.4529 12.8702 43.4324 12.8805 43.3914 12.8805C43.3914 12.8598 43.3914 12.8495 43.3914 12.8495C43.4119 12.8289 43.4221 12.8082 43.4221 12.7876ZM38.963 12.6637C39.004 12.6637 39.004 12.6844 38.963 12.7257C38.9425 12.7463 38.922 12.7773 38.9015 12.8186C38.881 12.7979 38.881 12.7773 38.9015 12.7566C38.9425 12.736 38.963 12.705 38.963 12.6637ZM39.0861 12.6018C39.0656 12.6018 39.0758 12.5812 39.1168 12.5399C39.1168 12.5605 39.1066 12.5709 39.0861 12.5709C39.0861 12.5709 39.0861 12.5812 39.0861 12.6018ZM45.1442 13.7784C45.1442 13.799 45.134 13.8197 45.1135 13.8403C45.1135 13.8403 45.1135 13.8506 45.1135 13.8713L45.1442 13.7784ZM44.3754 16.1006C44.3754 16.1006 44.3652 16.1109 44.3447 16.1316L44.3754 16.1006Z" transform="translate(46.8901 7.76611)" fill="#34314B"/>
<path d="M52.8849 16.8747C52.7209 17.1637 52.5159 17.463 52.2699 17.7726C52.0238 18.0616 51.7881 18.3609 51.5626 18.6705C51.6036 18.6705 51.6241 18.6602 51.6241 18.6395C51.6241 18.6189 51.6446 18.6086 51.6856 18.6086C51.6651 18.6499 51.6036 18.7015 51.501 18.7634C51.337 19.0111 51.1525 19.2485 50.9475 19.4755C50.7425 19.7026 50.558 19.9297 50.394 20.1567C50.3735 20.1774 50.3632 20.198 50.3632 20.2186C50.3837 20.2186 50.3837 20.229 50.3632 20.2496C50.0557 20.5386 49.7584 20.8585 49.4714 21.2094C49.1844 21.5604 48.8564 21.8597 48.4873 22.1074C48.4258 22.1486 48.3643 22.1796 48.3028 22.2002C48.2413 22.2209 48.1798 22.2519 48.1183 22.2931C48.0568 22.3138 47.9953 22.3344 47.9338 22.3551C47.8723 22.3757 47.7903 22.3963 47.6878 22.417C47.6263 22.4376 47.534 22.448 47.411 22.448C47.288 22.448 47.1547 22.4376 47.0112 22.417C46.8882 22.417 46.7652 22.4067 46.6422 22.386C46.5192 22.3654 46.4372 22.3344 46.3962 22.2931C46.1707 22.2725 46.0169 22.2312 45.9349 22.1693C45.8529 22.1074 45.7606 22.0145 45.6581 21.8906C45.6581 21.8906 45.6581 21.8597 45.6581 21.7977C45.5761 21.7358 45.5044 21.6636 45.4429 21.581C45.3814 21.4984 45.3711 21.3746 45.4121 21.2094C45.4121 21.1888 45.4019 21.1785 45.3814 21.1785C45.3404 21.1578 45.3096 21.1372 45.2891 21.1166C45.1866 21.0133 45.1456 20.9101 45.1661 20.8069C45.1866 20.6831 45.2071 20.5386 45.2276 20.3735C45.1866 20.0638 45.1969 19.7336 45.2584 19.3826C45.3199 19.0111 45.4326 18.5879 45.5966 18.1132C45.6376 17.9274 45.6991 17.7313 45.7811 17.5249C45.8426 17.3185 45.9042 17.1224 45.9657 16.9366C46.1707 16.3793 46.3654 15.8735 46.5499 15.4194C46.7345 14.9447 46.919 14.5009 47.1035 14.088C47.288 13.6545 47.4828 13.2314 47.6878 12.8186C47.8928 12.3851 48.1183 11.931 48.3643 11.4562V11.3633C48.4258 11.2601 48.4566 11.2188 48.4566 11.2395C48.4566 11.2395 48.4463 11.2498 48.4258 11.2704C48.4258 11.2911 48.4258 11.3117 48.4258 11.3323C48.4258 11.3323 48.4566 11.2807 48.5181 11.1775L49.4407 9.50555C49.5227 9.42298 49.5842 9.29913 49.6252 9.13399C49.6662 8.94822 49.7482 8.7934 49.8712 8.66955C50.0557 8.31864 50.2915 7.89549 50.5785 7.40008C50.8655 6.90468 51.1525 6.39896 51.4396 5.88291C51.7471 5.34623 52.0341 4.8405 52.3006 4.36574C52.5671 3.87034 52.7824 3.4575 52.9464 3.12723L53.1617 3.03434C53.1822 3.0137 53.1924 2.98274 53.1924 2.94146C53.2744 2.94146 53.3154 2.91049 53.3154 2.84857C53.3359 2.766 53.3974 2.73504 53.5 2.75568C53.6025 2.85889 53.705 2.94146 53.8075 3.00338C53.91 3.06531 54.0022 3.06531 54.0842 3.00338C54.1047 3.00338 54.1355 2.99306 54.1765 2.97242C54.238 2.93114 54.2995 2.91049 54.361 2.91049C54.443 2.91049 54.5148 2.94146 54.5763 3.00338C54.6583 3.06531 54.73 3.18916 54.7915 3.37493C54.812 3.41622 54.7915 3.4575 54.73 3.49879C54.689 3.51943 54.689 3.55039 54.73 3.59167C54.771 3.63296 54.8018 3.68456 54.8223 3.74649C54.8633 3.80841 54.8838 3.87034 54.8838 3.93226C54.8223 3.97355 54.7813 4.03547 54.7608 4.11804C54.7608 4.17996 54.73 4.23157 54.6685 4.27285C54.607 4.45863 54.4738 4.76825 54.2687 5.20173C54.0637 5.61457 53.8485 6.05837 53.623 6.53313C53.3974 7.00789 53.1719 7.45169 52.9464 7.86452C52.7414 8.27736 52.5979 8.57667 52.5159 8.76244C52.4749 8.86565 52.4339 8.96886 52.3929 9.07207C52.3519 9.15464 52.2494 9.34041 52.0853 9.6294C51.6958 10.4551 51.3575 11.1259 51.0705 11.642C50.804 12.158 50.5477 12.6534 50.3017 13.1282C50.0557 13.6029 49.7994 14.119 49.5329 14.6763C49.2869 15.213 48.9896 15.9148 48.6411 16.7818C48.6001 16.8437 48.5591 16.8953 48.5181 16.9366C48.4976 16.9779 48.4976 17.0295 48.5181 17.0914L48.4566 17.2153C48.2516 17.7726 48.0363 18.3093 47.8108 18.8253C47.6058 19.3414 47.4623 19.9297 47.3803 20.5902C47.3803 20.6108 47.3803 20.6108 47.3803 20.5902C47.4008 20.5695 47.411 20.5695 47.411 20.5902C47.411 20.6108 47.4008 20.6212 47.3803 20.6212C47.3803 20.6212 47.3803 20.6315 47.3803 20.6521C47.4828 20.6108 47.6365 20.5489 47.8415 20.4663C48.0466 20.3631 48.1901 20.2702 48.2721 20.1877C48.2311 20.1464 48.1901 20.1361 48.1491 20.1567C48.3131 20.1154 48.4361 20.0329 48.5181 19.909C48.6001 19.7852 48.6924 19.6923 48.7949 19.6303L48.6719 19.8161C48.7334 19.7542 48.7846 19.7026 48.8256 19.6613C48.8871 19.5994 48.9384 19.5168 48.9794 19.4136C49.2664 19.1659 49.5227 18.8872 49.7482 18.5776C49.9737 18.268 50.23 17.9687 50.517 17.6797C50.2915 17.9893 50.0454 18.299 49.7789 18.6086C49.5329 18.8976 49.2971 19.1865 49.0716 19.4755C49.3587 19.2485 49.6149 18.9904 49.8404 18.7015C50.066 18.3918 50.3017 18.0925 50.5477 17.8035C50.6502 17.7003 50.7528 17.5868 50.8553 17.463C50.9783 17.3391 51.091 17.2153 51.1935 17.0914C51.214 17.1327 51.2038 17.1637 51.1628 17.1843C51.1218 17.1843 51.1013 17.2049 51.1013 17.2462C51.4703 16.8747 51.8291 16.4722 52.1776 16.0387C52.5261 15.6052 52.9054 15.1924 53.3154 14.8002C53.2949 14.9034 53.2437 14.9963 53.1617 15.0788C53.0592 15.182 52.9567 15.2852 52.8542 15.3885C52.7516 15.4917 52.6491 15.6052 52.5466 15.729C52.4646 15.8323 52.3826 15.9561 52.3006 16.1006C52.2186 16.2244 52.1264 16.338 52.0238 16.4412C51.9213 16.5444 51.8598 16.6063 51.8393 16.627C51.8393 16.6476 51.7983 16.7095 51.7163 16.8127H51.7471L52.6081 15.9148C52.8131 15.6878 52.9977 15.471 53.1617 15.2646C53.3462 15.0582 53.5512 14.8621 53.7767 14.6763C53.7972 14.7382 53.787 14.8002 53.746 14.8621C53.705 14.9034 53.664 14.9447 53.623 14.9859C53.3974 15.3162 53.1514 15.6362 52.8849 15.9458C52.6184 16.2554 52.3519 16.565 52.0853 16.8747C52.0648 16.8953 52.0546 16.916 52.0546 16.9366V16.9676C52.0751 16.9676 52.0853 16.9676 52.0853 16.9676C52.0853 16.9469 52.0956 16.9366 52.1161 16.9366C52.0751 16.9779 52.0546 17.0192 52.0546 17.0604C52.0546 17.0811 52.0443 17.112 52.0238 17.1533C52.0238 17.174 52.0546 17.1533 52.1161 17.0914C52.1776 17.0295 52.2391 16.9676 52.3006 16.9056C52.3621 16.8231 52.4236 16.7508 52.4851 16.6889C52.5466 16.627 52.5774 16.596 52.5774 16.596C52.7619 16.4102 52.9054 16.2657 53.0079 16.1625C53.1104 16.0593 53.2027 15.9767 53.2847 15.9148C53.3872 15.8323 53.4897 15.7497 53.5922 15.6671C53.6947 15.5639 53.8382 15.4194 54.0227 15.2336C53.9817 15.3162 53.9305 15.3885 53.869 15.4504C53.8075 15.4917 53.7562 15.5639 53.7152 15.6671C53.7767 15.6258 53.8382 15.5639 53.8997 15.4813C53.9817 15.3781 54.0637 15.3059 54.1457 15.2646C53.8792 15.6155 53.5922 15.9561 53.2847 16.2864C52.9772 16.6166 52.6901 16.9676 52.4236 17.3391C52.5261 17.2978 52.6081 17.2359 52.6696 17.1533C52.7311 17.0501 52.8029 16.9572 52.8849 16.8747ZM48.6719 19.909C48.7129 19.8471 48.7641 19.7955 48.8256 19.7542C48.8871 19.7129 48.9179 19.651 48.9179 19.5684C48.8769 19.6303 48.8256 19.682 48.7641 19.7232C48.7026 19.7645 48.6719 19.8264 48.6719 19.909ZM51.9316 18.4228C51.9726 18.3609 52.0238 18.299 52.0853 18.237C52.1674 18.1545 52.2391 18.0616 52.3006 17.9584C52.2596 18.0616 52.1981 18.1545 52.1161 18.237C52.0546 18.299 51.9931 18.3609 51.9316 18.4228ZM54.6378 4.55152C54.6583 4.51023 54.6685 4.48959 54.6685 4.48959C54.689 4.46895 54.6993 4.44831 54.6993 4.42767C54.6788 4.40702 54.6685 4.40702 54.6685 4.42767C54.6685 4.44831 54.6583 4.45863 54.6378 4.45863C54.6583 4.3967 54.689 4.36574 54.73 4.36574C54.73 4.46895 54.6993 4.53087 54.6378 4.55152ZM51.7471 16.5031C51.7061 16.5444 51.6753 16.5754 51.6548 16.596C51.6343 16.6166 51.6036 16.6373 51.5626 16.6579C51.6036 16.5547 51.6651 16.5031 51.7471 16.5031ZM51.0398 19.1969C51.1013 19.1969 51.132 19.1659 51.132 19.104C51.0705 19.104 51.0398 19.1349 51.0398 19.1969ZM51.4088 16.8127C51.4293 16.854 51.419 16.8953 51.378 16.9366C51.337 16.9572 51.3063 16.9882 51.2858 17.0295C51.2858 16.9882 51.296 16.9572 51.3165 16.9366C51.3575 16.8953 51.3883 16.854 51.4088 16.8127ZM52.4851 17.7416C52.4851 17.7416 52.4954 17.7313 52.5159 17.7107C52.5159 17.7313 52.5056 17.7416 52.4851 17.7416Z" transform="translate(46.8901 7.76611)" fill="#34314B"/>
<path d="M64.9266 11.0846C64.9676 11.0846 64.9676 11.095 64.9266 11.1156C64.9061 11.1156 64.9061 11.1259 64.9266 11.1466C64.9676 11.1259 65.0291 11.095 65.1111 11.0537C65.1931 10.9918 65.2648 10.9608 65.3263 10.9608C65.2853 11.064 65.2238 11.1569 65.1418 11.2395C65.0803 11.3014 65.0188 11.3736 64.9573 11.4562L65.2033 11.2704C65.1418 11.3943 65.0393 11.5078 64.8958 11.611C64.7728 11.7142 64.6395 11.8071 64.496 11.8897C64.496 11.931 64.496 11.9516 64.496 11.9516C64.5165 11.931 64.5268 11.9413 64.5268 11.9826C64.4448 12.0238 64.3628 12.0755 64.2808 12.1374C64.1988 12.1993 64.1167 12.2819 64.0347 12.3851C64.0962 12.3644 64.1475 12.3541 64.1885 12.3541C64.086 12.3954 63.9937 12.447 63.9117 12.5089C63.8297 12.5502 63.758 12.5915 63.6965 12.6328C63.6965 12.6328 63.6965 12.6121 63.6965 12.5709C63.676 12.5709 63.6555 12.5812 63.635 12.6018C63.6145 12.6225 63.6145 12.6328 63.635 12.6328H63.6657C63.6657 12.6741 63.635 12.6947 63.5735 12.6947C63.5735 12.6741 63.5632 12.6637 63.5427 12.6637V12.6947C63.5427 12.6947 63.5222 12.6947 63.4812 12.6947V12.7566C63.3172 12.7979 63.1532 12.8702 62.9892 12.9734C62.8252 13.0559 62.6406 13.1075 62.4356 13.1282C62.3741 13.1488 62.3331 13.1591 62.3126 13.1591C62.3126 13.1591 62.3024 13.1695 62.2819 13.1901C62.2819 13.1901 62.2409 13.1901 62.1589 13.1901C62.0153 13.2107 61.8616 13.2211 61.6976 13.2211C61.5336 13.2211 61.4106 13.2314 61.3285 13.252C61.1645 13.252 60.9903 13.252 60.8058 13.252C60.6212 13.252 60.4265 13.2211 60.2215 13.1591C60.2625 13.2417 60.2625 13.3036 60.2215 13.3449C60.201 13.3656 60.1907 13.4172 60.1907 13.4997C60.1497 13.4791 60.1395 13.4585 60.16 13.4378C60.1805 13.4172 60.1805 13.3965 60.16 13.3759L60.0062 13.8403C59.9652 13.9435 59.9344 14.0261 59.9139 14.088C59.8934 14.15 59.8627 14.2325 59.8217 14.3357C59.8012 14.3564 59.7807 14.377 59.7602 14.3977C59.7397 14.3977 59.7294 14.4183 59.7294 14.4596L59.7602 14.4905C59.7397 14.635 59.6884 14.7692 59.6064 14.8931C59.5449 14.9963 59.4937 15.1098 59.4527 15.2336C59.5142 15.213 59.5449 15.1717 59.5449 15.1098C59.5654 15.0272 59.5962 14.9653 59.6372 14.924C59.6782 14.8415 59.7089 14.7795 59.7294 14.7382C59.7704 14.6763 59.7909 14.6144 59.7909 14.5525C59.8319 14.5937 59.8217 14.6454 59.7602 14.7073C59.7192 14.7692 59.7192 14.8208 59.7602 14.8621C59.7192 14.9859 59.6679 15.1098 59.6064 15.2336C59.5654 15.3369 59.5347 15.4607 59.5142 15.6052C59.4732 15.5846 59.4527 15.6155 59.4527 15.6981C59.4732 15.76 59.4629 15.7807 59.4219 15.76C59.4424 15.8426 59.4219 15.9148 59.3604 15.9767C59.3194 16.018 59.2887 16.0903 59.2681 16.1935C59.2681 16.1522 59.2989 16.1316 59.3604 16.1316C59.3604 16.1935 59.3502 16.2244 59.3297 16.2244C59.3297 16.2657 59.3297 16.2864 59.3297 16.2864C59.3502 16.2657 59.3604 16.2761 59.3604 16.3173C59.3399 16.338 59.2887 16.3483 59.2066 16.3483C59.2066 16.3483 59.1964 16.3277 59.1759 16.2864C58.9504 16.6373 58.7351 17.0088 58.5301 17.401C58.3456 17.7726 58.1303 18.1235 57.8843 18.4538C57.9048 18.4744 57.9151 18.4744 57.9151 18.4538C57.9356 18.4125 57.9663 18.3918 58.0073 18.3918C57.8228 18.6395 57.628 18.8872 57.423 19.1349C57.218 19.3826 57.013 19.62 56.808 19.8471C56.7055 19.9916 56.603 20.1257 56.5004 20.2496C56.4184 20.3735 56.3262 20.487 56.2237 20.5902C56.1827 20.6315 56.1417 20.6624 56.1007 20.6831C56.0597 20.7037 56.0187 20.7347 55.9777 20.776C55.7521 21.003 55.4959 21.2404 55.2089 21.4881C54.9423 21.7152 54.6246 21.8906 54.2555 22.0145C54.235 22.0145 54.2248 22.0558 54.2248 22.1383C53.9993 22.2003 53.7225 22.2312 53.3945 22.2312C53.0665 22.2519 52.8102 22.2002 52.6257 22.0764C52.1541 22.0145 51.7646 21.8597 51.4571 21.612C51.1496 21.3643 50.9753 21.003 50.9343 20.5283C50.8728 20.1774 50.8728 19.8471 50.9343 19.5375C50.9753 19.2278 51.0368 18.9182 51.1188 18.6086C51.3648 17.6178 51.6826 16.7405 52.0721 15.9767C52.2361 15.7084 52.3797 15.4401 52.5027 15.1717C52.6257 14.8827 52.7897 14.6247 52.9947 14.3977C53.0152 14.2944 53.046 14.2222 53.087 14.1809C53.1485 14.119 53.1895 14.0364 53.21 13.9332C53.3125 13.83 53.374 13.7268 53.3945 13.6236C53.5175 13.541 53.579 13.4481 53.579 13.3449C53.62 13.3862 53.6405 13.3552 53.6405 13.252C53.661 13.252 53.6815 13.2417 53.702 13.2211C53.8045 13.0147 53.9275 12.8495 54.071 12.7257C54.2145 12.5812 54.3375 12.4057 54.44 12.1993C54.5221 12.158 54.5631 12.1064 54.5631 12.0445C54.8501 11.6936 55.1474 11.3427 55.4549 10.9918C55.7624 10.6202 56.0904 10.2693 56.4389 9.93902C56.4389 9.91838 56.4492 9.89774 56.4697 9.8771V9.90806C56.4902 9.88742 56.5107 9.8771 56.5312 9.8771C56.5517 9.8771 56.5825 9.86678 56.6235 9.84614C56.726 9.78421 56.808 9.70164 56.8695 9.59844C56.9515 9.47458 57.0437 9.41266 57.1462 9.41266C57.3103 9.37138 57.4538 9.34041 57.5768 9.31977C57.7203 9.27849 57.8638 9.21656 58.0073 9.13399L58.3148 9.3817C58.5198 9.34041 58.6736 9.36105 58.7761 9.44362V9.53651C58.8581 9.63972 58.9606 9.73261 59.0836 9.81517C59.2271 9.8771 59.2476 9.99063 59.1451 10.1558C59.2271 10.197 59.2784 10.2074 59.2989 10.1867C59.3194 10.228 59.3297 10.2693 59.3297 10.3106C59.3502 10.3519 59.3707 10.3828 59.3912 10.4035C59.4322 10.3828 59.4322 10.3622 59.3912 10.3415C59.3707 10.3003 59.3707 10.2693 59.3912 10.2487C59.4117 10.2693 59.4219 10.3003 59.4219 10.3415C59.4219 10.3622 59.4424 10.3828 59.4834 10.4035V10.3106C59.5244 10.3931 59.5552 10.4344 59.5757 10.4344C59.5962 10.4138 59.5962 10.4035 59.5757 10.4035C59.5552 10.3828 59.5552 10.3519 59.5757 10.3106C59.6167 10.3106 59.6269 10.3106 59.6064 10.3106C59.6064 10.2899 59.6167 10.2796 59.6372 10.2796C59.6987 10.3828 59.7704 10.486 59.8524 10.5892C59.9549 10.6718 59.996 10.7647 59.9754 10.8679C59.996 10.9298 60.0369 10.9608 60.0985 10.9608C60.119 11.064 60.1292 11.1672 60.1292 11.2704C60.1292 11.353 60.1497 11.4459 60.1907 11.5491C60.1702 11.5697 60.1497 11.611 60.1292 11.6729C60.1292 11.7142 60.16 11.7349 60.2215 11.7349C60.2625 11.5697 60.2522 11.3943 60.1907 11.2085C60.1497 11.0021 60.1087 10.8163 60.0677 10.6512C60.1702 10.775 60.2317 10.9402 60.2522 11.1466C60.2727 11.353 60.3035 11.5491 60.3445 11.7349V11.6729C60.406 11.7349 60.5597 11.7865 60.8058 11.8277C61.0518 11.8484 61.226 11.8587 61.3285 11.8587C61.6361 11.8587 61.8718 11.8484 62.0358 11.8277C62.2204 11.8071 62.3741 11.7761 62.4971 11.7349C62.7226 11.6317 62.9174 11.5491 63.0814 11.4872C63.2659 11.4252 63.4402 11.3427 63.6042 11.2395L63.7887 11.1775C63.8297 11.1775 63.8605 11.1672 63.881 11.1466C63.922 11.1053 63.963 11.0743 64.004 11.0537C63.9835 11.095 63.963 11.1259 63.9425 11.1466C63.922 11.1466 63.922 11.1672 63.9425 11.2085C63.881 11.2291 63.8297 11.3014 63.7887 11.4252L64.5883 10.9298C64.6293 10.9298 64.6498 10.9298 64.6498 10.9298C64.6703 10.9092 64.701 10.9092 64.742 10.9298C64.906 10.8266 65.0496 10.7028 65.1726 10.5583C65.2136 10.5996 65.2136 10.6408 65.1726 10.6821C65.1316 10.7028 65.1008 10.7234 65.0803 10.7441C64.9778 10.8266 64.8856 10.9195 64.8035 11.0227C64.742 11.1259 64.66 11.2188 64.5575 11.3014C64.66 11.2601 64.7318 11.2188 64.7728 11.1775C64.8138 11.1362 64.8651 11.1053 64.9266 11.0846ZM58.6531 12.0754C58.6531 12.0754 58.6428 12.0858 58.6223 12.1064C58.5813 12.2303 58.5506 12.3438 58.5301 12.447C58.5301 12.5502 58.5096 12.6534 58.4686 12.7566C58.4891 12.6328 58.5096 12.5192 58.5301 12.416C58.5506 12.3128 58.5608 12.1787 58.5608 12.0135C58.4788 11.9722 58.4173 11.9103 58.3763 11.8277C58.3353 11.7245 58.2738 11.6523 58.1918 11.611C58.1918 11.5697 58.1713 11.5388 58.1303 11.5181C58.0893 11.4975 58.0483 11.4665 58.0073 11.4252C57.8023 11.6317 57.628 11.8587 57.4845 12.1064C57.3615 12.3541 57.1873 12.5709 56.9617 12.7566C56.9412 12.7979 56.9207 12.8289 56.9002 12.8495C56.8797 12.8702 56.8695 12.9114 56.8695 12.9734C56.808 13.0147 56.7567 13.0663 56.7157 13.1282C56.6747 13.1901 56.6235 13.252 56.562 13.314C56.5209 13.3759 56.4697 13.4378 56.4082 13.4997C56.3467 13.5617 56.2954 13.6339 56.2544 13.7165C56.2339 13.7578 56.2237 13.7887 56.2237 13.8094C56.2237 13.8094 56.2032 13.83 56.1622 13.8713C55.9982 14.0983 55.8547 14.3254 55.7316 14.5525C55.6086 14.7589 55.4754 14.9756 55.3319 15.2027C55.2909 15.2852 55.2396 15.3678 55.1781 15.4504C55.1371 15.533 55.0961 15.6258 55.0551 15.729C54.8911 16.018 54.7373 16.307 54.5938 16.596C54.4503 16.885 54.3273 17.1946 54.2248 17.5249C54.1223 17.6694 54.0403 17.8242 53.9788 17.9893C53.9378 18.1545 53.8865 18.3093 53.825 18.4538C53.8455 18.495 53.866 18.5363 53.8865 18.5776C53.907 18.6189 53.8968 18.6602 53.8558 18.7015C53.8353 18.7221 53.8148 18.7221 53.7943 18.7015C53.7738 18.6602 53.7635 18.6602 53.7635 18.7015C53.661 18.9698 53.5687 19.2485 53.4867 19.5375C53.4047 19.8058 53.374 20.1154 53.3945 20.4663C54.03 20.0948 54.5733 19.6303 55.0243 19.073C55.4754 18.5157 55.9059 17.948 56.3159 17.3701C56.3159 17.3494 56.3262 17.3391 56.3467 17.3391C56.3672 17.3185 56.3672 17.2875 56.3467 17.2462C56.5312 17.0604 56.685 16.854 56.808 16.627C56.9515 16.3793 57.0847 16.1419 57.2077 15.9148C57.2488 15.9148 57.2693 15.9148 57.2693 15.9148C57.2693 15.8942 57.2898 15.8839 57.3308 15.8839C57.3718 15.8013 57.4025 15.7084 57.423 15.6052C57.4435 15.502 57.4743 15.4091 57.5153 15.3265C57.5973 15.1614 57.6895 14.9859 57.792 14.8002C57.9151 14.6144 57.9868 14.4183 58.0073 14.2119C58.0073 14.1912 57.9868 14.2016 57.9458 14.2428C57.9048 14.2635 57.8946 14.2428 57.9151 14.1809C57.8946 14.1603 57.8946 14.1603 57.9151 14.1809C57.9561 14.1809 57.9766 14.1706 57.9766 14.1499C57.9971 14.1293 58.0073 14.1293 58.0073 14.1499C58.0278 14.1499 58.0586 14.1396 58.0996 14.119C58.2021 13.7887 58.3148 13.4688 58.4378 13.1591C58.5814 12.8289 58.6531 12.4676 58.6531 12.0754ZM59.1451 16.5031C59.1041 16.6682 59.0324 16.8231 58.9299 16.9676C58.8274 17.112 58.7351 17.2565 58.6531 17.401C58.6941 17.2565 58.7659 17.112 58.8684 16.9676C58.9709 16.8231 59.0631 16.6682 59.1451 16.5031ZM63.3582 12.6947C63.2557 12.7153 63.1634 12.736 63.0814 12.7566C62.9994 12.7773 62.9379 12.8082 62.8969 12.8495L63.3582 12.6947ZM59.4834 15.3265C59.6064 15.2027 59.6679 15.0788 59.6679 14.955L59.4834 15.3265ZM58.6839 9.22688C58.6839 9.26817 58.6531 9.28881 58.5916 9.28881C58.5506 9.26817 58.5198 9.24752 58.4993 9.22688C58.5198 9.20624 58.5506 9.20624 58.5916 9.22688C58.6326 9.22688 58.6634 9.22688 58.6839 9.22688ZM60.037 14.2119C60.0165 14.15 60.0472 14.0364 60.1292 13.8713L60.037 14.2119ZM59.3912 15.4194C59.4527 15.3988 59.4629 15.3472 59.4219 15.2646C59.4219 15.2852 59.4117 15.3162 59.3912 15.3575C59.3912 15.3781 59.3912 15.3988 59.3912 15.4194ZM59.4219 15.4813C59.4424 15.4813 59.4629 15.4607 59.4834 15.4194C59.5039 15.3575 59.5039 15.3369 59.4834 15.3575C59.4424 15.3988 59.4219 15.4401 59.4219 15.4813ZM64.4345 11.3633C64.3935 11.3633 64.3628 11.3736 64.3423 11.3943C64.3218 11.4149 64.3218 11.4356 64.3423 11.4562L64.4345 11.3633ZM59.7909 10.4654C59.7909 10.4241 59.8114 10.4035 59.8524 10.4035C59.8934 10.4035 59.8934 10.4241 59.8524 10.4654H59.7909ZM63.9117 12.447C63.9732 12.447 64.004 12.4264 64.004 12.3851C63.9835 12.3851 63.9527 12.4057 63.9117 12.447ZM58.4378 12.7876C58.4583 12.7876 58.4686 12.8082 58.4686 12.8495C58.4686 12.8702 58.4481 12.8805 58.4071 12.8805C58.4071 12.8598 58.4071 12.8495 58.4071 12.8495C58.4276 12.8289 58.4378 12.8082 58.4378 12.7876ZM53.9788 12.6637C54.0198 12.6637 54.0198 12.6844 53.9788 12.7257C53.9583 12.7463 53.9378 12.7773 53.9173 12.8186C53.8968 12.7979 53.8968 12.7773 53.9173 12.7566C53.9583 12.736 53.9788 12.705 53.9788 12.6637ZM54.1018 12.6018C54.0813 12.6018 54.0915 12.5812 54.1325 12.5399C54.1325 12.5605 54.1223 12.5709 54.1018 12.5709C54.1018 12.5709 54.1018 12.5812 54.1018 12.6018ZM60.16 13.7784C60.16 13.799 60.1497 13.8197 60.1292 13.8403C60.1292 13.8403 60.1292 13.8506 60.1292 13.8713L60.16 13.7784ZM59.3912 16.1006C59.3912 16.1006 59.3809 16.1109 59.3604 16.1316L59.3912 16.1006Z" transform="translate(46.8901 7.76611)" fill="#34314B"/>
</svg>
