<svg width="28" height="32" viewBox="0 0 28 32" fill="none" xmlns="http://www.w3.org/2000/svg">
<path opacity="0.3" d="M7 32H20C21.3958 32 22.5729 31.5104 23.5312 30.5312C24.5104 29.5729 25 28.3958 25 27V19H27C27.8542 19 28.5625 18.7188 29.125 18.1562C29.7083 17.5729 30 16.8542 30 16V10C30 9.70833 29.9062 9.46875 29.7188 9.28125C29.5312 9.09375 29.2917 9 29 9H3C2.70833 9 2.46875 9.09375 2.28125 9.28125C2.09375 9.46875 2 9.70833 2 10V27C2 28.3958 2.47917 29.5729 3.4375 30.5312C4.41667 31.5104 5.60417 32 7 32ZM28 16C28 16.2917 27.9062 16.5312 27.7188 16.7188C27.5312 16.9062 27.2917 17 27 17H25V11H28V16ZM4 11H23V27C23 27.8542 22.7083 28.5729 22.125 29.1562C21.5625 29.7188 20.8542 30 20 30H7C6.14583 30 5.42708 29.7188 4.84375 29.1562C4.28125 28.5729 4 27.8542 4 27V11ZM13 6C13.2917 6 13.5312 5.90625 13.7188 5.71875C13.9062 5.53125 14 5.29167 14 5V1C14 0.708333 13.9062 0.46875 13.7188 0.28125C13.5312 0.09375 13.2917 0 13 0C12.7083 0 12.4688 0.09375 12.2812 0.28125C12.0938 0.46875 12 0.708333 12 1V5C12 5.29167 12.0938 5.53125 12.2812 5.71875C12.4688 5.90625 12.7083 6 13 6ZM8 7C8.29167 7 8.53125 6.90625 8.71875 6.71875C8.90625 6.53125 9 6.29167 9 6V2C9 1.70833 8.90625 1.46875 8.71875 1.28125C8.53125 1.09375 8.29167 1 8 1C7.70833 1 7.46875 1.09375 7.28125 1.28125C7.09375 1.46875 7 1.70833 7 2V6C7 6.29167 7.09375 6.53125 7.28125 6.71875C7.46875 6.90625 7.70833 7 8 7ZM18 7C18.2917 7 18.5312 6.90625 18.7188 6.71875C18.9062 6.53125 19 6.29167 19 6V2C19 1.70833 18.9062 1.46875 18.7188 1.28125C18.5312 1.09375 18.2917 1 18 1C17.7083 1 17.4688 1.09375 17.2812 1.28125C17.0938 1.46875 17 1.70833 17 2V6C17 6.29167 17.0938 6.53125 17.2812 6.71875C17.4688 6.90625 17.7083 7 18 7Z" transform="translate(-2)" fill="#34314B"/>
</svg>
