<svg width="44" height="51" viewBox="0 0 44 51" fill="none" xmlns="http://www.w3.org/2000/svg">
<path d="M10.9375 50.125H31.25C33.431 50.125 35.2702 49.36 36.7676 47.8301C38.2975 46.3327 39.0625 44.4935 39.0625 42.3125V29.8125H42.1875C43.5221 29.8125 44.6289 29.373 45.5078 28.4941C46.4193 27.5827 46.875 26.4596 46.875 25.125V15.75C46.875 15.2943 46.7285 14.9199 46.4355 14.627C46.1426 14.334 45.7682 14.1875 45.3125 14.1875H4.6875C4.23177 14.1875 3.85742 14.334 3.56445 14.627C3.27148 14.9199 3.125 15.2943 3.125 15.75V42.3125C3.125 44.4935 3.8737 46.3327 5.37109 47.8301C6.90104 49.36 8.75651 50.125 10.9375 50.125ZM43.75 25.125C43.75 25.5807 43.6035 25.9551 43.3105 26.248C43.0176 26.541 42.6432 26.6875 42.1875 26.6875H39.0625V17.3125H43.75V25.125ZM6.25 17.3125H35.9375V42.3125C35.9375 43.6471 35.4818 44.7702 34.5703 45.6816C33.6914 46.5605 32.5846 47 31.25 47H10.9375C9.60286 47 8.47982 46.5605 7.56836 45.6816C6.68945 44.7702 6.25 43.6471 6.25 42.3125V17.3125ZM20.3125 9.5C20.7682 9.5 21.1426 9.35352 21.4355 9.06055C21.7285 8.76758 21.875 8.39323 21.875 7.9375V1.6875C21.875 1.23177 21.7285 0.857422 21.4355 0.564453C21.1426 0.271484 20.7682 0.125 20.3125 0.125C19.8568 0.125 19.4824 0.271484 19.1895 0.564453C18.8965 0.857422 18.75 1.23177 18.75 1.6875V7.9375C18.75 8.39323 18.8965 8.76758 19.1895 9.06055C19.4824 9.35352 19.8568 9.5 20.3125 9.5ZM12.5 11.0625C12.9557 11.0625 13.3301 10.916 13.623 10.623C13.916 10.3301 14.0625 9.95573 14.0625 9.5V3.25C14.0625 2.79427 13.916 2.41992 13.623 2.12695C13.3301 1.83398 12.9557 1.6875 12.5 1.6875C12.0443 1.6875 11.6699 1.83398 11.377 2.12695C11.084 2.41992 10.9375 2.79427 10.9375 3.25V9.5C10.9375 9.95573 11.084 10.3301 11.377 10.623C11.6699 10.916 12.0443 11.0625 12.5 11.0625ZM28.125 11.0625C28.5807 11.0625 28.9551 10.916 29.248 10.623C29.541 10.3301 29.6875 9.95573 29.6875 9.5V3.25C29.6875 2.79427 29.541 2.41992 29.248 2.12695C28.9551 1.83398 28.5807 1.6875 28.125 1.6875C27.6693 1.6875 27.2949 1.83398 27.002 2.12695C26.709 2.41992 26.5625 2.79427 26.5625 3.25V9.5C26.5625 9.95573 26.709 10.3301 27.002 10.623C27.2949 10.916 27.6693 11.0625 28.125 11.0625Z" transform="translate(-3)" fill="white"/>
</svg>
