<svg width="88" height="106" viewBox="0 0 88 106" fill="none" xmlns="http://www.w3.org/2000/svg">
<rect x="0.5" y="0.5" width="61.3529" height="79.1681" rx="3.5" transform="translate(0 14.252)" fill="white" stroke="#5F45EA"/>
<rect x="0.5" y="0.5" width="23.9412" height="23.9412" transform="translate(26.7227 49.8818)" fill="white" stroke="#1EE4BD"/>
<rect x="0.5" y="0.5" width="23.9412" height="23.9412" transform="translate(12.4688 35.6299)" fill="white" stroke="#1EE4BD"/>
<rect x="0.5" y="0.5" width="3.45378" height="3.45378" transform="translate(10.6875 33.8486)" fill="white" stroke="#1EE4BD"/>
<rect x="0.5" y="0.5" width="3.45378" height="3.45378" transform="translate(34.7383 33.8486)" fill="white" stroke="#1EE4BD"/>
<rect x="0.5" y="0.5" width="3.45378" height="3.45378" transform="translate(34.7383 57.8994)" fill="white" stroke="#1EE4BD"/>
<rect x="0.5" y="0.5" width="3.45378" height="3.45378" transform="translate(10.6875 57.8994)" fill="white" stroke="#1EE4BD"/>
<rect x="0.5" y="0.5" width="23.2286" height="63.3571" rx="3.5" transform="translate(59.0586 41.6426)" fill="white" stroke="#5F45EA"/>
<path d="M1.29006 4.23301L0 11.9734C0 11.9823 0 11.9913 0 12.0003C0 12.0092 0 12.0182 0 12.0271C0 12.0271 0 12.0316 0 12.0406C0 12.0406 0 12.045 0 12.054C0 12.0719 0 12.0943 0 12.1212C0.00895876 12.1481 0.0179175 12.1705 0.0268763 12.1884C0.0268763 12.1973 0.0268763 12.2063 0.0268763 12.2153C0.035835 12.2153 0.0403144 12.2153 0.0403144 12.2153C0.0492732 12.2421 0.0582319 12.269 0.0671907 12.2959C0.0851082 12.3138 0.103026 12.3317 0.120943 12.3496C0.147819 12.3676 0.170216 12.3855 0.188134 12.4034C0.21501 12.4124 0.241886 12.4258 0.268763 12.4437C0.295639 12.4527 0.322515 12.4616 0.349391 12.4706C0.376268 12.4706 0.403144 12.4706 0.43002 12.4706C0.438979 12.4706 0.447938 12.4706 0.456897 12.4706C0.474814 12.4706 0.488252 12.4706 0.497211 12.4706L8.23758 11.1805C8.3182 11.1626 8.3854 11.1313 8.43915 11.0865C8.50186 11.0417 8.54665 10.9834 8.57353 10.9118L10.0517 7.21628L10.4414 7.61942C10.4862 7.65526 10.5355 7.68661 10.5892 7.71349C10.643 7.73141 10.6968 7.74037 10.7505 7.74037C10.8043 7.74037 10.858 7.73141 10.9118 7.71349C10.9655 7.68661 11.0148 7.65526 11.0596 7.61942L12.3496 6.32936C12.4303 6.23977 12.4706 6.13675 12.4706 6.02028C12.4706 5.90382 12.4303 5.80079 12.3496 5.71121L6.75938 0.120943C6.66979 0.0403144 6.56677 0 6.4503 0C6.33384 0 6.23081 0.0403144 6.14123 0.120943L4.85117 1.411C4.77054 1.50059 4.73022 1.60362 4.73022 1.72008C4.73022 1.83654 4.77054 1.93957 4.85117 2.02916L5.25431 2.41886L1.55882 3.89706C1.48715 3.92394 1.42892 3.96873 1.38413 4.03144C1.33933 4.08519 1.30798 4.15238 1.29006 4.23301ZM6.4503 1.03474L11.4359 6.02028L10.7505 6.70563L10.1995 6.14123C10.1995 6.14123 10.1951 6.14123 10.1861 6.14123L6.32936 2.28448C6.32936 2.27552 6.32936 2.27104 6.32936 2.27104L5.76496 1.72008L6.4503 1.03474ZM5.91278 3.09077L9.37982 6.55781L7.86131 10.3608L1.67977 11.3955L4.17926 8.89604C4.25989 8.94084 4.345 8.97667 4.43458 9.00355C4.53313 9.02147 4.63168 9.03043 4.73022 9.03043C4.90044 9.03043 5.0617 8.99907 5.214 8.93636C5.37525 8.86469 5.51859 8.77062 5.64402 8.65416C5.76048 8.52874 5.85007 8.38988 5.91278 8.23758C5.98445 8.07632 6.02028 7.91058 6.02028 7.74037C6.02028 7.57015 5.98445 7.40889 5.91278 7.25659C5.85007 7.09534 5.76048 6.95199 5.64402 6.82657C5.40213 6.58469 5.09753 6.46374 4.73022 6.46374C4.36291 6.46374 4.05832 6.58469 3.81643 6.82657C3.69997 6.95199 3.6059 7.09534 3.53423 7.25659C3.47152 7.40889 3.44016 7.57015 3.44016 7.74037C3.44016 7.83891 3.44912 7.93746 3.46704 8.036C3.49391 8.12559 3.52975 8.2107 3.57454 8.29133L1.07505 10.7908L2.10979 4.60928L5.91278 3.09077ZM4.42115 8.04944C4.38531 8.00465 4.35396 7.95538 4.32708 7.90162C4.30916 7.84787 4.3002 7.79412 4.3002 7.74037C4.3002 7.68661 4.30916 7.63286 4.32708 7.57911C4.35396 7.52536 4.38531 7.47608 4.42115 7.43129C4.46594 7.39545 4.51521 7.36858 4.56897 7.35066C4.62272 7.32378 4.67647 7.31035 4.73022 7.31035C4.78398 7.31035 4.83773 7.32378 4.89148 7.35066C4.94523 7.36858 4.99451 7.39545 5.0393 7.43129C5.07514 7.47608 5.10201 7.52536 5.11993 7.57911C5.14681 7.63286 5.16024 7.68661 5.16024 7.74037C5.16024 7.79412 5.14681 7.84787 5.11993 7.90162C5.10201 7.95538 5.07514 8.00465 5.0393 8.04944C4.95867 8.13007 4.85565 8.17039 4.73022 8.17039C4.6048 8.17039 4.50177 8.13007 4.42115 8.04944Z" transform="translate(65.0234 85.5127)" fill="#5F45EA"/>
<path d="M5.34454 14.2521C6.00333 14.2521 6.6482 14.1276 7.27915 13.8786C7.91938 13.6295 8.49002 13.2704 8.99107 12.801C9.5014 12.3221 9.90966 11.7427 10.2159 11.0626C10.5313 10.373 10.6891 9.59718 10.6891 8.73516C10.6891 7.91145 10.4385 7.01111 9.9375 6.03416C9.43645 5.0572 8.87509 4.1425 8.25341 3.29005C7.64102 2.42803 7.06574 1.70489 6.52757 1.12063C5.99869 0.526791 5.70641 0.201139 5.65074 0.14367C5.56723 0.0478901 5.46516 0 5.34454 0C5.22391 0 5.12185 0.0478901 5.03834 0.14367C4.98267 0.201139 4.68575 0.526791 4.14758 1.12063C3.6187 1.70489 3.04342 2.42324 2.42174 3.27568C1.80935 4.12813 1.25263 5.04762 0.751576 6.03416C0.250525 7.01111 0 7.91145 0 8.73516C0 9.59718 0.153099 10.3682 0.459296 11.0483C0.774772 11.7283 1.18304 12.3078 1.68409 12.7867C2.18514 13.256 2.75578 13.6152 3.39601 13.8642C4.03624 14.1228 4.68575 14.2521 5.34454 14.2521ZM5.34454 1.10626C5.61362 1.40318 5.99405 1.85335 6.48582 2.45676C6.98687 3.0506 7.48328 3.71148 7.97505 4.43941C8.46682 5.15777 8.89365 5.90006 9.25551 6.66631C9.61738 7.42297 9.79832 8.11259 9.79832 8.73516C9.79832 9.48224 9.66378 10.1431 9.3947 10.7178C9.13489 11.2829 8.79158 11.7618 8.36476 12.1545C7.94722 12.5376 7.474 12.8298 6.94512 13.0309C6.41623 13.232 5.8827 13.3326 5.34454 13.3326C4.80637 13.3326 4.27285 13.2368 3.74396 13.0453C3.21507 12.8441 2.73722 12.552 2.3104 12.1689C1.89286 11.7762 1.54954 11.2925 1.28046 10.7178C1.02066 10.1431 0.890756 9.48224 0.890756 8.73516C0.890756 8.11259 1.07169 7.42297 1.43356 6.66631C1.79543 5.90006 2.22225 5.15777 2.71402 4.43941C3.20579 3.71148 3.69757 3.0506 4.18934 2.45676C4.69039 1.85335 5.07546 1.40318 5.34454 1.10626ZM5.34454 11.0339C5.47444 11.0339 5.58114 10.9908 5.66465 10.9046C5.74816 10.8184 5.78992 10.7082 5.78992 10.5741C5.78992 10.44 5.74816 10.3299 5.66465 10.2437C5.58114 10.1575 5.47444 10.1144 5.34454 10.1144C5.23319 10.1144 4.98267 10.0473 4.59296 9.91326C4.20326 9.76959 4.0084 9.37689 4.0084 8.73516C4.0084 8.60107 3.96665 8.49092 3.88314 8.40472C3.79963 8.31851 3.69293 8.27541 3.56303 8.27541C3.43312 8.27541 3.32642 8.31851 3.24291 8.40472C3.1594 8.49092 3.11765 8.60107 3.11765 8.73516C3.11765 9.65465 3.39137 10.2676 3.93881 10.5741C4.49554 10.8806 4.96411 11.0339 5.34454 11.0339Z" transform="translate(65.9141 65.916)" fill="#5F45EA"/>
<path d="M12.0549 3.74118H7.06667C6.95409 3.74118 6.85449 3.78448 6.76789 3.87108C6.68995 3.94902 6.65098 4.04428 6.65098 4.15686V4.98824C6.65098 5.10082 6.68995 5.20041 6.76789 5.28701C6.85449 5.36495 6.95409 5.40392 7.06667 5.40392C7.17925 5.40392 7.27451 5.36495 7.35245 5.28701C7.43905 5.20041 7.48235 5.10082 7.48235 4.98824V4.57255H9.1451V9.1451H8.31373C8.20114 9.1451 8.10155 9.1884 8.01495 9.275C7.93701 9.35294 7.89804 9.4482 7.89804 9.56078C7.89804 9.67337 7.93701 9.77296 8.01495 9.85956C8.10155 9.9375 8.20114 9.97647 8.31373 9.97647H10.8078C10.9204 9.97647 11.0157 9.9375 11.0936 9.85956C11.1802 9.77296 11.2235 9.67337 11.2235 9.56078C11.2235 9.4482 11.1802 9.35294 11.0936 9.275C11.0157 9.1884 10.9204 9.1451 10.8078 9.1451H9.97647V4.57255H11.6392V4.98824C11.6392 5.10082 11.6782 5.20041 11.7561 5.28701C11.8427 5.36495 11.9423 5.40392 12.0549 5.40392C12.1675 5.40392 12.2627 5.36495 12.3407 5.28701C12.4273 5.20041 12.4706 5.10082 12.4706 4.98824V4.15686C12.4706 4.04428 12.4273 3.94902 12.3407 3.87108C12.2627 3.78448 12.1675 3.74118 12.0549 3.74118ZM6.65098 9.1451H4.98824V0.831373H8.31373V1.66275C8.31373 1.77533 8.3527 1.87492 8.43064 1.96152C8.51724 2.03946 8.61683 2.07843 8.72941 2.07843C8.84199 2.07843 8.93725 2.03946 9.0152 1.96152C9.1018 1.87492 9.1451 1.77533 9.1451 1.66275V0.415686C9.1451 0.303105 9.1018 0.207843 9.0152 0.129902C8.93725 0.0433007 8.84199 0 8.72941 0H0.415686C0.303105 0 0.203513 0.0433007 0.116912 0.129902C0.0389706 0.207843 0 0.303105 0 0.415686V1.66275C0 1.77533 0.0389706 1.87492 0.116912 1.96152C0.203513 2.03946 0.303105 2.07843 0.415686 2.07843C0.528268 2.07843 0.623529 2.03946 0.701471 1.96152C0.788072 1.87492 0.831373 1.77533 0.831373 1.66275V0.831373H4.15686V9.1451H2.49412C2.38154 9.1451 2.28194 9.1884 2.19534 9.275C2.1174 9.35294 2.07843 9.4482 2.07843 9.56078C2.07843 9.67337 2.1174 9.77296 2.19534 9.85956C2.28194 9.9375 2.38154 9.97647 2.49412 9.97647H6.65098C6.76356 9.97647 6.85882 9.9375 6.93676 9.85956C7.02337 9.77296 7.06667 9.67337 7.06667 9.56078C7.06667 9.4482 7.02337 9.35294 6.93676 9.275C6.85882 9.1884 6.76356 9.1451 6.65098 9.1451Z" transform="translate(65.0234 49.8828)" fill="#5F45EA"/>
<path d="M0.5 4C0.5 2.067 2.067 0.5 4 0.5H58.3529C60.2859 0.5 61.8529 2.067 61.8529 4V7.51681H0.5V4Z" transform="translate(0 14.252)" fill="white" stroke="#5F45EA"/>
<circle cx="1.33613" cy="1.33613" r="1.33613" transform="translate(3.5625 16.9248)" fill="#1EE4BD"/>
<circle cx="1.33613" cy="1.33613" r="1.33613" transform="translate(8.90625 16.9248)" fill="#1EE4BD"/>
<circle cx="1.33613" cy="1.33613" r="1.33613" transform="translate(14.2539 16.9248)" fill="#1EE4BD"/>
<circle cx="16.0336" cy="16.0336" r="15.5336" transform="translate(55.2266)" fill="white" stroke="#5F45EA"/>
<path d="M10.6891 0H4.21271V2.17627H10.6891V0Z" transform="translate(65.9141 10.6895)" fill="#5F45EA"/>
<path d="M10.6891 4.25673H4.21271V6.433H10.6891V4.25673Z" transform="translate(65.9141 10.6895)" fill="#5F45EA"/>
<path d="M10.6891 8.5128H4.21271V10.6891H10.6891V8.5128Z" transform="translate(65.9141 10.6895)" fill="#5F45EA"/>
<path d="M2.19116 0.0244467H0V10.6891H2.19116V0.0244467Z" transform="translate(65.9141 10.6895)" fill="#5F45EA"/>
</svg>
