<svg width="465" height="240" viewBox="0 0 465 240" fill="none" xmlns="http://www.w3.org/2000/svg">
<g filter="url(#filter0_d)">
<rect width="270" height="120" rx="4" transform="translate(30 30) scale(1.5)" fill="white"/>
</g>
<path fill-rule="evenodd" clip-rule="evenodd" d="M13.7225 24.6016L24.6064 13.208C32.4878 4.85274 22.3545 -5.4015 13.7225 3.33357C5.09052 -5.4015 -5.04266 4.85274 2.83872 13.208L13.7225 24.6016Z" transform="translate(135.135 79.5) scale(1.5)" fill="#5F45EA"/>
<path fill-rule="evenodd" clip-rule="evenodd" d="M13.7225 0L24.6064 11.3936C32.4878 19.7489 22.3545 30.0031 13.7225 21.268C5.09052 30.0031 -5.04266 19.7489 2.83872 11.3936L13.7225 0Z" transform="translate(135.135 122.098) scale(1.5)" fill="#FF8B8D"/>
<path fill-rule="evenodd" clip-rule="evenodd" d="M-4.58135e-05 13.8864L11.2591 24.9002C19.5158 32.8757 29.649 22.6215 21.017 13.8864C29.649 5.15136 19.5158 -5.10284 11.2591 2.87266L-4.58135e-05 13.8864Z" transform="translate(158.533 98.4199) scale(1.5)" fill="#8667F7"/>
<path fill-rule="evenodd" clip-rule="evenodd" d="M24.3113 13.8864L13.0521 24.9002C4.79545 32.8757 -5.33778 22.6215 3.29421 13.8864C-5.33778 5.15136 4.79545 -5.10284 13.0521 2.87266L24.3113 13.8864Z" transform="translate(117 98.4199) scale(1.5)" fill="#FFC69C"/>
<path d="M11.0155 16.9228C11.1285 16.9228 11.2273 16.9228 11.3121 16.9228C11.425 16.8944 11.5521 16.866 11.6934 16.8376V16.9228C11.8911 16.866 12.117 16.8376 12.3712 16.8376C12.6537 16.8376 12.8514 16.866 12.9644 16.9228C13.0491 16.7807 13.1339 16.7523 13.2186 16.8376C14.4331 16.6671 15.6618 16.5392 16.9045 16.4539C17.3 16.3971 17.6813 16.3545 18.0485 16.326C18.4156 16.2692 18.7969 16.2692 19.1924 16.326C19.1641 16.4681 19.1076 16.5392 19.0229 16.5392C18.9382 16.5108 18.8676 16.525 18.8111 16.5818C18.7546 16.525 18.7122 16.5108 18.684 16.5392C18.6557 16.5676 18.6134 16.5676 18.5569 16.5392C18.5286 16.5392 18.5145 16.5534 18.5145 16.5818V16.6244C17.9214 16.6813 17.3282 16.7523 16.7351 16.8376C16.1702 16.9228 15.6053 17.0365 15.0404 17.1786C15.0121 17.1786 14.9839 17.1644 14.9556 17.1359C14.7862 17.1928 14.6026 17.2354 14.4049 17.2638C14.2072 17.2638 14.0236 17.3065 13.8541 17.3917C13.9671 17.4485 14.0518 17.4628 14.1083 17.4343C14.193 17.3775 14.2919 17.3207 14.4049 17.2638C14.4614 17.2638 14.532 17.278 14.6167 17.3065C14.7014 17.3349 14.7721 17.3207 14.8285 17.2638C14.9698 17.2638 15.0969 17.2638 15.2098 17.2638C15.3511 17.2354 15.4641 17.2212 15.5488 17.2212H15.7183C15.803 17.278 15.8877 17.2922 15.9725 17.2638C16.0572 17.2354 16.1278 17.2212 16.1843 17.2212V17.3065C16.1843 17.278 16.1984 17.278 16.2267 17.3065C16.2832 17.3065 16.2973 17.3207 16.269 17.3491C16.2973 17.2638 16.3396 17.2354 16.3961 17.2638C16.4809 17.2638 16.5091 17.2354 16.4809 17.1786C16.6503 17.207 16.8481 17.2212 17.074 17.2212C17.3 17.1928 17.4977 17.1502 17.6672 17.0933C17.6954 17.1217 17.7236 17.1359 17.7519 17.1359C17.8084 17.1359 17.8507 17.1075 17.879 17.0507C18.0485 17.1075 18.2603 17.1217 18.5145 17.0933C18.7687 17.0365 18.9805 17.0365 19.15 17.0933C19.0088 17.1786 18.8817 17.2212 18.7687 17.2212C18.684 17.1928 18.5851 17.1928 18.4721 17.2212C18.5569 17.3065 18.6557 17.3633 18.7687 17.3917C18.8817 17.3917 18.9947 17.4059 19.1076 17.4343C19.0794 17.4912 19.0511 17.5196 19.0229 17.5196C18.9947 17.4912 18.9664 17.4912 18.9382 17.5196C18.9947 17.5764 19.0512 17.5906 19.1076 17.5622C19.1641 17.5338 19.2206 17.5338 19.2771 17.5622C19.1924 17.619 19.0935 17.6475 18.9805 17.6475C18.8958 17.619 18.8252 17.6048 18.7687 17.6048V17.6475C18.7687 17.6759 18.7546 17.6901 18.7263 17.6901L16.1843 17.9032C16.1278 18.0169 16.029 18.0879 15.8877 18.1164C15.7747 18.1164 15.6476 18.1448 15.5064 18.2016C15.5064 18.2016 15.5064 18.159 15.5064 18.0737C15.2805 18.1306 15.0686 18.1732 14.8709 18.2016C14.7014 18.23 14.532 18.2727 14.3625 18.3295C14.4472 18.3863 14.5743 18.4005 14.7438 18.3721C14.9415 18.3153 15.111 18.2869 15.2522 18.2869C15.2522 18.3437 15.224 18.3721 15.1675 18.3721C15.1392 18.3437 15.0969 18.3437 15.0404 18.3721C15.6053 18.3437 16.1419 18.2869 16.6503 18.2016C17.187 18.1164 17.7378 18.0737 18.3027 18.0737C18.2744 18.1306 18.2462 18.159 18.2179 18.159C18.1897 18.1306 18.1614 18.1448 18.1332 18.2016C17.9072 18.1448 17.6248 18.1732 17.2858 18.2869C16.9752 18.3721 16.6927 18.4432 16.4385 18.5C16.0148 18.5568 15.6053 18.6279 15.2098 18.7131C14.8427 18.7984 14.4614 18.8836 14.0659 18.9689C13.6705 19.0541 13.2327 19.1536 12.7525 19.2673C12.3006 19.381 11.764 19.4804 11.1426 19.5657C11.1708 19.6225 11.1991 19.6367 11.2273 19.6083C11.2556 19.5799 11.2697 19.5799 11.2697 19.6083C10.9872 19.722 10.6483 19.8214 10.2529 19.9067C9.8857 19.9635 9.50439 20.0488 9.10896 20.1624C9.47615 20.1624 9.84333 20.1198 10.2105 20.0346C10.6059 19.9493 10.959 19.8641 11.2697 19.7788C11.2132 19.8925 11.1143 19.9493 10.9731 19.9493C10.8319 19.9493 10.7189 19.9635 10.6342 19.9919C10.267 20.0488 9.89982 20.134 9.53264 20.2477C9.16545 20.333 8.81239 20.404 8.47345 20.4608C8.13452 21.2849 7.72497 22.2512 7.2448 23.3594C6.79289 24.4677 6.32685 25.6329 5.84668 26.8548C5.39477 28.0484 4.95697 29.2277 4.5333 30.3929C4.10963 31.5864 3.78481 32.6663 3.55885 33.6325C3.41763 34.0303 3.33289 34.4424 3.30465 34.8687C3.2764 35.3233 3.29052 35.7496 3.34701 36.1475C3.31877 36.2043 3.2764 36.2043 3.21991 36.1475C3.19167 36.0906 3.17755 36.048 3.17755 36.0196C3.12106 36.0196 3.09281 36.0622 3.09281 36.1475C3.03632 36.1475 3.00808 36.119 3.00808 36.0622C3.00808 36.0338 2.97983 36.0338 2.92334 36.0622C2.8951 36.119 2.8951 36.1901 2.92334 36.2753C2.95159 36.3606 2.92334 36.4459 2.83861 36.5311C2.78212 36.4174 2.64089 36.2896 2.41493 36.1475C2.18898 36.0054 2.01951 35.8633 1.90653 35.7212C1.85004 35.778 1.83592 35.8633 1.86416 35.977C1.92065 36.119 1.96302 36.2185 1.99126 36.2753C1.85004 36.3322 1.75118 36.4316 1.69469 36.5737C1.66645 36.7442 1.65232 36.8863 1.65232 37L1.44049 36.7016C1.41224 36.7016 1.39812 36.7158 1.39812 36.7442C1.42636 36.8011 1.41224 36.8153 1.35575 36.7869C1.35575 36.4174 1.24277 36.0764 1.01681 35.7638C1.0733 35.9059 1.05918 35.9912 0.974447 36.0196C0.889713 36.0764 0.861468 36.1759 0.889713 36.318C0.833223 36.318 0.804978 36.318 0.804978 36.318C0.748488 36.4316 0.734366 36.5169 0.762611 36.5737C0.819101 36.6306 0.819101 36.7016 0.762611 36.7869C0.593142 36.6164 0.564897 36.4032 0.677876 36.1475C0.790856 35.8917 0.776733 35.6502 0.635509 35.4228C0.635509 35.5365 0.579019 35.5933 0.46604 35.5933C0.46604 35.3944 0.437795 35.2097 0.381305 35.0392C0.353061 34.8687 0.353061 34.6697 0.381305 34.4424C0.353061 34.414 0.338938 34.4282 0.338938 34.485C0.282448 34.4282 0.268326 34.3713 0.296571 34.3145C0.324816 34.2577 0.324816 34.2151 0.296571 34.1866C0.240081 34.2151 0.225959 34.2577 0.254203 34.3145C0.282448 34.3713 0.282448 34.4282 0.254203 34.485C0.197714 34.3998 0.183591 34.2861 0.211836 34.144C0.268326 34.0019 0.268326 33.874 0.211836 33.7604C0.183591 33.7604 0.155347 33.7746 0.127102 33.803C0.127102 33.7177 0.127102 33.6041 0.127102 33.462C0.155347 33.3483 0.169469 33.2204 0.169469 33.0783C0.112979 33.0783 0.0847346 33.1068 0.0847346 33.1636C0.112979 33.2204 0.0988569 33.2488 0.0423672 33.2488C0.127102 32.3963 0.296571 31.4301 0.550775 30.3502C0.833223 29.2988 1.14392 28.2331 1.48285 27.1532C1.85004 26.0733 2.2031 25.0503 2.54204 24.0841C2.90922 23.0895 3.21991 22.2654 3.47412 21.6118C3.38938 21.4981 3.30465 21.4839 3.21991 21.5691C3.13518 21.6544 3.06457 21.697 3.00808 21.697C2.97983 21.697 2.95159 21.6828 2.92334 21.6544C2.8951 21.626 2.86685 21.6118 2.83861 21.6118C2.72563 21.6118 2.59853 21.6402 2.4573 21.697C2.34432 21.7538 2.21722 21.7965 2.076 21.8249C1.90653 21.8533 1.7653 21.8817 1.65232 21.9101C1.53934 21.9101 1.45461 21.8391 1.39812 21.697C1.36988 21.6402 1.36988 21.6402 1.39812 21.697C1.45461 21.7538 1.48285 21.7538 1.48285 21.697C1.42636 21.5833 1.32751 21.4981 1.18628 21.4412C1.04506 21.3844 0.903835 21.3702 0.762611 21.3986C0.706121 21.3418 0.649631 21.3134 0.593142 21.3134C0.564897 21.2849 0.536652 21.2423 0.508407 21.1855C0.621387 21.1002 0.720244 21.086 0.804978 21.1429C0.889713 21.1713 1.00269 21.1571 1.14392 21.1002C1.20041 21.0434 1.22865 20.9724 1.22865 20.8871C1.2569 20.7734 1.31339 20.6882 1.39812 20.6313C1.34163 20.5461 1.32751 20.475 1.35575 20.4182C1.66645 20.3614 1.96302 20.2619 2.24547 20.1198C2.55616 19.9777 2.90922 19.8641 3.30465 19.7788C2.99395 19.722 2.68326 19.7788 2.37257 19.9493C2.06187 20.1198 1.7653 20.2051 1.48285 20.2051C1.34163 20.2051 1.20041 20.1909 1.05918 20.1624C0.917958 20.1056 0.776733 20.0914 0.635509 20.1198C0.635509 20.063 0.621387 20.0204 0.593142 19.9919C0.564897 19.9635 0.536652 19.9067 0.508407 19.8214L2.28783 19.2673C2.42906 19.2389 2.55616 19.2104 2.66914 19.182C2.81036 19.1536 2.92334 19.0826 3.00808 18.9689C2.97983 18.9121 2.90922 18.9263 2.79624 19.0115C2.68326 19.0968 2.61265 19.0684 2.5844 18.9263C2.27371 19.0684 1.97714 19.1962 1.69469 19.3099C1.44049 19.3952 1.14392 19.4378 0.804978 19.4378C0.804978 19.381 0.819101 19.3525 0.847345 19.3525C0.903835 19.3525 0.960325 19.3383 1.01681 19.3099C1.24277 19.0257 1.53934 18.8694 1.90653 18.841C2.27371 18.8126 2.59853 18.6989 2.88097 18.5C2.96571 18.5 3.05044 18.4858 3.13518 18.4574C3.21991 18.429 3.30465 18.4005 3.38938 18.3721V18.4574C3.44587 18.4005 3.51648 18.3579 3.60122 18.3295C3.7142 18.2727 3.81305 18.2727 3.89779 18.3295C3.95428 18.3295 3.98252 18.2869 3.98252 18.2016C4.03901 18.23 4.05314 18.2584 4.02489 18.2869C4.02489 18.3153 4.05314 18.3153 4.10962 18.2869C4.16611 18.2584 4.18024 18.2158 4.15199 18.159C4.15199 18.1022 4.18024 18.0879 4.23673 18.1164C4.20848 18.1164 4.19436 18.1306 4.19436 18.159V18.2442C4.25085 18.2158 4.29322 18.2016 4.32146 18.2016C4.34971 18.2016 4.36383 18.159 4.36383 18.0737C4.44856 18.1874 4.54742 18.2016 4.6604 18.1164C4.77338 18.0027 4.88636 17.9743 4.99934 18.0311C5.28179 17.548 5.55011 17.0507 5.80432 16.5392C6.05852 15.9992 6.32685 15.4593 6.60929 14.9194C6.80701 14.5215 7.00472 14.1379 7.20244 13.7684C7.40015 13.399 7.59786 13.0154 7.79558 12.6175C8.10627 11.9639 8.44521 11.3529 8.81239 10.7846C9.17958 10.2162 9.51851 9.64785 9.82921 9.07949H9.78684C9.98455 8.79532 10.1399 8.51114 10.2529 8.22696C10.3941 7.94278 10.5777 7.67281 10.8037 7.41705C10.7472 7.36022 10.6907 7.36022 10.6342 7.41705C10.6059 7.44547 10.5636 7.45968 10.5071 7.45968C10.6483 7.34601 10.7754 7.26075 10.8884 7.20392C11.0296 7.14708 11.1002 7.00499 11.1002 6.77765C10.3094 6.97657 9.50439 7.26075 8.68529 7.63018C7.86619 7.9712 7.10358 8.17012 6.39746 8.22696C6.28448 8.19854 6.19974 8.21275 6.14325 8.26959C6.11501 8.298 6.05852 8.32642 5.97378 8.35484C5.9173 8.298 5.9173 8.19854 5.97378 8.05645C5.94554 7.99962 5.9173 7.98541 5.88905 8.01383C5.86081 8.01383 5.83256 7.99962 5.80432 7.9712V7.80069C5.69134 7.80069 5.62072 7.80069 5.59248 7.80069C5.59248 7.80069 5.56424 7.82911 5.50775 7.88594L5.33828 7.71544H5.25354C5.28179 7.71544 5.29591 7.68702 5.29591 7.63018C5.23942 7.63018 5.18293 7.61598 5.12644 7.58756C5.06995 7.53072 5.11232 7.45968 5.25354 7.37443C5.25354 7.34601 5.21117 7.37443 5.12644 7.45968C5.06995 7.43126 5.0417 7.36022 5.0417 7.24654C4.98522 7.27496 4.94285 7.31759 4.9146 7.37443C4.88636 7.40284 4.84399 7.41705 4.7875 7.41705C4.75926 7.30338 4.77338 7.24654 4.82987 7.24654C4.9146 7.24654 4.92873 7.18971 4.87224 7.07604C4.92873 7.04762 4.98522 7.04762 5.0417 7.07604C5.09819 7.07604 5.14056 7.06183 5.16881 7.03341C5.16881 7.00499 5.15468 6.99078 5.12644 6.99078C5.09819 6.99078 5.08407 6.97658 5.08407 6.94816C4.97109 6.89132 4.90048 6.89132 4.87224 6.94816C4.84399 7.00499 4.7875 7.03341 4.70277 7.03341C4.7875 6.89132 4.80162 6.73502 4.74513 6.56452C4.68864 6.36559 4.64628 6.19508 4.61803 6.053C4.67452 5.99616 4.71689 6.01037 4.74513 6.09562C4.80162 6.15246 4.85811 6.15246 4.9146 6.09562C4.88636 5.95353 4.85811 5.88249 4.82987 5.88249C4.80162 5.85407 4.75926 5.76882 4.70277 5.62673C4.84399 5.4278 5.05583 5.29992 5.33828 5.24309C5.62073 5.18625 5.86081 5.05837 6.05852 4.85945C6.87762 4.54685 7.73909 4.24846 8.64292 3.96429C9.54676 3.68011 10.4223 3.38172 11.2697 3.06913C11.3262 3.04071 11.3827 3.0265 11.4392 3.0265C11.4957 2.99808 11.5945 2.96966 11.7357 2.94124C11.8487 2.91283 11.8911 2.88441 11.8628 2.85599C11.8346 2.82757 11.8911 2.81337 12.0323 2.81337C12.1735 2.75653 12.3148 2.7139 12.456 2.68548C12.6254 2.65707 12.7667 2.61444 12.8797 2.5576C12.9079 2.5576 12.922 2.57181 12.922 2.60023C12.922 2.62865 12.9361 2.62865 12.9644 2.60023C12.9361 2.60023 12.922 2.60023 12.922 2.60023C12.922 2.57181 12.9361 2.5576 12.9644 2.5576C13.1903 2.47235 13.4022 2.40131 13.5999 2.34447C13.7976 2.28764 14.0094 2.2308 14.2354 2.17396C14.2919 2.25922 14.3625 2.25922 14.4472 2.17396C14.532 2.08871 14.6026 2.03188 14.6591 2.00346C14.7156 2.06029 14.7297 2.10292 14.7014 2.13134C14.7297 2.13134 14.7438 2.10292 14.7438 2.04608C14.8003 2.04608 14.8285 2.04608 14.8285 2.04608C14.8568 2.01767 14.885 2.00346 14.9133 2.00346V2.08871C14.998 2.08871 15.0545 2.06029 15.0827 2.00346C15.1392 1.94662 15.1957 1.90399 15.2522 1.87558C15.4782 1.81874 15.69 1.77611 15.8877 1.7477C16.1137 1.71928 16.2973 1.67665 16.4385 1.61982C16.495 1.64824 16.5091 1.67665 16.4809 1.70507C16.4526 1.70507 16.4526 1.71928 16.4809 1.7477C16.5374 1.69086 16.608 1.63403 16.6927 1.57719C16.7774 1.49194 16.8763 1.44931 16.9893 1.44931C16.961 1.56298 16.8622 1.61982 16.6927 1.61982C16.8339 1.67665 16.961 1.66244 17.074 1.57719C17.2152 1.49194 17.3565 1.44931 17.4977 1.44931C17.5259 1.30722 17.5824 1.20776 17.6672 1.15092C17.7801 1.06567 17.879 1.00883 17.9637 0.980415C17.9637 1.06567 17.9355 1.13671 17.879 1.19355C17.8507 1.22197 17.8225 1.26459 17.7943 1.32143C17.879 1.29301 17.9637 1.30722 18.0485 1.36406C18.1332 1.39247 18.2038 1.34985 18.2603 1.23618H18.3027V1.2788C18.6134 1.19355 18.9099 1.13671 19.1924 1.1083C19.4748 1.07988 19.7431 1.02304 19.9974 0.937789L20.1245 0.852536C20.1809 0.852536 20.2092 0.866745 20.2092 0.895162C20.2374 0.895162 20.2798 0.880954 20.3363 0.852536C20.3645 0.852536 20.3645 0.838327 20.3363 0.809908C20.3363 0.78149 20.3504 0.78149 20.3787 0.809908C20.4069 0.838327 20.4069 0.852536 20.3787 0.852536C20.7458 0.767282 21.0424 0.710446 21.2684 0.682029C21.4943 0.625192 21.692 0.582565 21.8615 0.554148C22.0592 0.525731 22.2711 0.497313 22.497 0.468896C22.7512 0.440478 23.076 0.383642 23.4715 0.298388C23.528 0.241552 23.5703 0.213133 23.5986 0.213133C23.8245 0.26997 24.0364 0.28418 24.2341 0.255762C24.4318 0.227343 24.6295 0.198925 24.8272 0.170507C24.9967 0.227344 25.1662 0.241553 25.3356 0.213133C25.5051 0.184716 25.6604 0.170507 25.8017 0.170507C25.8299 0.170507 25.844 0.184716 25.844 0.213133C25.844 0.213133 25.844 0.170507 25.844 0.0852549C25.8723 0.170507 25.9005 0.213133 25.9288 0.213133C25.9853 0.213133 26.0276 0.184716 26.0559 0.127881C26.2818 0.127881 26.5219 0.113672 26.7761 0.0852549C27.0303 0.0284183 27.3128 0 27.6235 0C27.9342 0 28.2448 0 28.5555 0C28.8945 0 29.1911 0.0142096 29.4453 0.0426287C29.8124 0.0994636 30.1796 0.184717 30.5468 0.298388C30.914 0.41206 31.2106 0.596776 31.4365 0.852536C31.38 0.852536 31.3235 0.824118 31.267 0.767281C31.2106 0.682029 31.1541 0.653612 31.0976 0.682029C31.1258 0.824118 31.1964 0.895162 31.3094 0.895162C31.4224 0.895162 31.5071 0.980416 31.5636 1.15092C31.4224 1.23618 31.3377 1.37826 31.3094 1.57719C31.3094 1.7477 31.3941 1.80453 31.5636 1.7477C31.6201 1.63402 31.6201 1.57719 31.5636 1.57719C31.5354 1.54877 31.493 1.52035 31.4365 1.49194C31.5777 1.46352 31.6625 1.46352 31.6907 1.49194C31.7472 1.52035 31.8037 1.61982 31.8602 1.79032C31.8037 1.7619 31.7472 1.77611 31.6907 1.83295C31.6342 1.94662 31.719 2.03188 31.9449 2.08871C32.1709 2.11713 32.2839 2.18817 32.2839 2.30184C32.1991 2.30184 32.0155 2.31605 31.7331 2.34447C31.4789 2.34447 31.3235 2.33026 31.267 2.30184C31.2953 2.50077 31.4083 2.67128 31.606 2.81337C31.606 2.8702 31.5777 2.94125 31.5212 3.0265C31.493 3.11175 31.5071 3.1828 31.5636 3.23963C31.4789 3.23963 31.3518 3.21121 31.1823 3.15438C31.1541 3.21121 31.1541 3.25384 31.1823 3.28226C31.2388 3.31068 31.267 3.3533 31.267 3.41014C30.4197 3.26805 29.4876 3.19701 28.4708 3.19701C27.4822 3.19701 26.5784 3.26805 25.7593 3.41014C25.7875 3.46697 25.8299 3.48118 25.8864 3.45277C25.9711 3.42435 26.0417 3.43856 26.0982 3.49539C25.957 3.55223 25.8017 3.58065 25.6322 3.58065C25.491 3.58065 25.3215 3.58065 25.1238 3.58065C25.1803 3.52381 25.2791 3.49539 25.4204 3.49539C25.5616 3.49539 25.6746 3.46697 25.7593 3.41014C25.6463 3.41014 25.5192 3.41014 25.378 3.41014C25.2368 3.41014 25.1097 3.43856 24.9967 3.49539C24.6013 3.55223 24.1917 3.60906 23.768 3.6659C23.3444 3.72273 22.9348 3.79378 22.5394 3.87903C22.5959 3.93587 22.6382 3.95008 22.6665 3.92166C22.6947 3.89324 22.7371 3.89324 22.7936 3.92166C22.7653 3.95008 22.6806 3.96429 22.5394 3.96429C22.4829 3.96429 22.4547 3.96429 22.4547 3.96429C22.4829 3.93587 22.497 3.90745 22.497 3.87903C22.2711 3.93587 22.1157 3.97849 22.031 4.00691C21.9745 4.00691 21.918 4.02112 21.8615 4.04954C21.805 4.04954 21.7344 4.06375 21.6497 4.09217C21.5932 4.09217 21.452 4.13479 21.226 4.22005H20.8023C20.2939 4.33372 19.8138 4.43318 19.3618 4.51843C18.9382 4.57527 18.5145 4.64631 18.0908 4.73157C17.6672 4.81682 17.2294 4.91628 16.7774 5.02995C16.3538 5.11521 15.8736 5.24309 15.337 5.4136C15.1675 5.44201 14.998 5.48464 14.8285 5.54147C14.6873 5.56989 14.5743 5.62673 14.4896 5.71198C14.5461 5.71198 14.5602 5.7404 14.532 5.79724C14.5037 5.82565 14.5037 5.86828 14.532 5.92511C14.6732 5.86828 14.8709 5.88249 15.1251 5.96774C15.4076 6.02458 15.6053 6.08141 15.7183 6.13825C15.69 6.2235 15.6618 6.32297 15.6335 6.43664C15.6053 6.52189 15.6476 6.57873 15.7606 6.60714C15.6194 6.8629 15.4499 7.11866 15.2522 7.37443C15.0545 7.63019 14.885 7.91436 14.7438 8.22696C14.7156 8.28379 14.7156 8.31221 14.7438 8.31221C14.7721 8.31221 14.7862 8.34063 14.7862 8.39747C14.7297 8.39747 14.7014 8.38326 14.7014 8.35484C14.645 8.58218 14.5461 8.75269 14.4049 8.86636C14.2919 8.98003 14.2072 9.13633 14.1507 9.33525C14.0659 9.33525 14.0236 9.36367 14.0236 9.42051C14.0236 9.44893 13.9953 9.46313 13.9388 9.46313V9.67627C13.8541 9.78994 13.7835 9.8894 13.727 9.97466C13.6705 10.0599 13.5858 10.1452 13.4728 10.2304C13.4728 10.4862 13.4163 10.6141 13.3033 10.6141C12.7949 11.6087 12.2865 12.6033 11.7781 13.5979C11.2697 14.5641 10.7754 15.573 10.2952 16.6244C10.4647 16.6528 10.6342 16.6528 10.8037 16.6244C10.9731 16.5676 11.1285 16.5392 11.2697 16.5392C11.2414 16.5676 11.1991 16.5818 11.1426 16.5818C11.1143 16.5534 11.1002 16.5676 11.1002 16.6244V16.6671C11.1567 16.6102 11.2273 16.6102 11.3121 16.6671C11.425 16.6955 11.4957 16.6671 11.5239 16.5818C11.5804 16.6386 11.651 16.6528 11.7357 16.6244C11.8487 16.596 11.9476 16.5534 12.0323 16.4965C12.343 16.525 12.5972 16.5534 12.7949 16.5818C13.0209 16.5818 13.2327 16.5818 13.4304 16.5818C13.1197 16.6955 12.7384 16.7523 12.2865 16.7523C11.8346 16.7239 11.4109 16.7807 11.0155 16.9228ZM15.6335 7.54493C15.5488 7.68702 15.4358 7.80069 15.2946 7.88594C15.1816 7.94278 15.0969 8.04224 15.0404 8.18433V8.05645C14.9839 8.05645 14.9556 8.08487 14.9556 8.14171C14.9556 8.17012 14.9274 8.17012 14.8709 8.14171C14.9839 7.99962 15.0827 7.87174 15.1675 7.75807C15.2805 7.61598 15.4358 7.54493 15.6335 7.54493ZM3.89779 18.5853C4.03901 18.5853 4.20848 18.5568 4.4062 18.5C4.63215 18.4432 4.81575 18.3721 4.95697 18.2869V18.2442C4.7875 18.3011 4.60391 18.3579 4.4062 18.4147C4.23673 18.4432 4.06726 18.5 3.89779 18.5853ZM27.7082 3.36751C27.567 3.39593 27.4116 3.41014 27.2422 3.41014C27.1009 3.41014 26.9597 3.41014 26.8185 3.41014C26.9315 3.3533 27.0727 3.33909 27.2422 3.36751C27.4116 3.36751 27.567 3.36751 27.7082 3.36751ZM26.6914 3.41014C26.5784 3.52381 26.4231 3.55223 26.2253 3.49539C26.3666 3.38172 26.5219 3.3533 26.6914 3.41014ZM19.8279 0.852536C19.7431 0.937789 19.6443 0.966206 19.5313 0.937789C19.4183 0.909371 19.2912 0.909371 19.15 0.937789C19.2347 0.880954 19.3336 0.866745 19.4466 0.895162C19.5878 0.895162 19.7149 0.880954 19.8279 0.852536ZM31.7331 0.511522C31.6766 0.539939 31.5919 0.511522 31.4789 0.426269C31.3659 0.341015 31.2812 0.26997 31.2247 0.213133C31.3377 0.241553 31.4224 0.298388 31.4789 0.383641C31.5354 0.440477 31.6201 0.483104 31.7331 0.511522ZM0.296571 35.5507C0.268326 35.4086 0.254203 35.2807 0.254203 35.167C0.282448 35.0534 0.268326 34.9255 0.211836 34.7834C0.324816 34.9539 0.353061 35.2097 0.296571 35.5507ZM24.9543 3.58065C24.9543 3.63748 24.8978 3.6659 24.7849 3.6659C24.7001 3.6659 24.6013 3.6659 24.4883 3.6659C24.573 3.60906 24.6578 3.59486 24.7425 3.62327C24.8272 3.62327 24.8978 3.60906 24.9543 3.58065ZM2.54204 21.7823C2.48555 21.8107 2.42906 21.8533 2.37257 21.9101C2.31608 21.9386 2.25959 21.9243 2.2031 21.8675C2.25959 21.8391 2.31608 21.8107 2.37257 21.7823C2.42906 21.7538 2.48555 21.7538 2.54204 21.7823ZM19.0229 0.937789C18.9664 0.994625 18.9099 1.02304 18.8534 1.02304C18.7969 0.994624 18.7405 0.994624 18.684 1.02304C18.7122 0.966207 18.7546 0.937789 18.8111 0.937789C18.8958 0.937789 18.9664 0.937789 19.0229 0.937789ZM28.3013 3.28226C28.2448 3.33909 28.1884 3.36751 28.1319 3.36751C28.1036 3.36751 28.0613 3.36751 28.0048 3.36751C28.0613 3.31068 28.1036 3.28226 28.1319 3.28226C28.1884 3.28226 28.2448 3.28226 28.3013 3.28226ZM28.6826 3.23963C28.6544 3.32488 28.5697 3.36751 28.4284 3.36751C28.4567 3.31068 28.4849 3.28226 28.5132 3.28226C28.5697 3.28226 28.6262 3.26805 28.6826 3.23963ZM13.9812 16.4539C13.953 16.5108 13.8823 16.5392 13.7694 16.5392C13.7976 16.4539 13.8259 16.4255 13.8541 16.4539C13.8823 16.4823 13.9247 16.4823 13.9812 16.4539ZM3.05044 36.4459C3.05044 36.4174 3.05044 36.3748 3.05044 36.318C3.07869 36.2611 3.12106 36.2185 3.17755 36.1901L3.05044 36.4459ZM13.727 16.5392C13.6988 16.5676 13.6564 16.5818 13.5999 16.5818C13.5716 16.5818 13.5293 16.596 13.4728 16.6244C13.5293 16.5676 13.5716 16.5392 13.5999 16.5392C13.6281 16.5392 13.6705 16.5392 13.727 16.5392ZM14.4049 16.326C14.4049 16.4113 14.3766 16.4539 14.3201 16.4539C14.3201 16.4255 14.3201 16.4113 14.3201 16.4113C14.3484 16.4113 14.3625 16.3971 14.3625 16.3687L14.4049 16.326ZM0.0423672 34.7408C0.0141224 34.7124 0 34.6839 0 34.6555C0.0282448 34.6271 0.0282448 34.5987 0 34.5703C0.0564897 34.5703 0.0847346 34.5845 0.0847346 34.6129C0.0847346 34.6697 0.0706121 34.7124 0.0423672 34.7408ZM23.2596 3.79378C23.3161 3.76536 23.3726 3.76536 23.4291 3.79378C23.4856 3.79378 23.5562 3.77957 23.6409 3.75115C23.5562 3.77957 23.4291 3.79378 23.2596 3.79378ZM5.38064 7.84332C5.29591 7.92857 5.26766 7.9712 5.29591 7.9712V7.84332H5.38064ZM19.5737 17.1786C19.5172 17.2354 19.4183 17.2354 19.2771 17.1786H19.5737ZM16.4385 17.1359C16.4385 17.1644 16.3961 17.1786 16.3114 17.1786C16.3114 17.1502 16.3538 17.1359 16.4385 17.1359ZM31.8602 2.81337C31.8319 2.84178 31.7896 2.8702 31.7331 2.89862C31.6766 2.89862 31.6484 2.8702 31.6484 2.81337C31.7048 2.84178 31.7331 2.85599 31.7331 2.85599C31.7613 2.82757 31.8037 2.81337 31.8602 2.81337ZM23.4291 0.213133C23.3726 0.213133 23.3302 0.227343 23.302 0.255762C23.302 0.255762 23.2879 0.255762 23.2596 0.255762C23.2596 0.227343 23.2879 0.213133 23.3444 0.213133C23.4291 0.184716 23.4573 0.184716 23.4291 0.213133ZM21.4378 0.341015C21.4378 0.369432 21.3955 0.383641 21.3107 0.383641C21.339 0.355223 21.3814 0.341015 21.4378 0.341015ZM15.5912 18.2442C15.5912 18.2727 15.5488 18.2869 15.4641 18.2869C15.4923 18.2584 15.5347 18.2442 15.5912 18.2442ZM14.4896 16.326C14.4896 16.3545 14.4755 16.3687 14.4472 16.3687V16.326H14.4896ZM15.3793 16.2408C15.2663 16.2408 15.2098 16.2408 15.2098 16.2408H15.3793ZM5.16881 7.80069C5.14056 7.77227 5.14056 7.75807 5.16881 7.75807V7.80069Z" transform="translate(213 94.5) scale(1.5)" fill="#34314B"/>
<path d="M26.3667 20.4182C26.3667 20.4182 26.3808 20.4324 26.409 20.4608L26.748 20.2051C27.1152 19.8072 27.4823 19.3952 27.8495 18.9689C28.2167 18.5426 28.5557 18.1164 28.8663 17.6901C29.0076 17.6333 29.1064 17.548 29.1629 17.4343C29.2476 17.3207 29.3889 17.2922 29.5866 17.3491C29.7278 17.2922 29.8408 17.1928 29.9255 17.0507C30.0103 16.8802 30.1091 16.7665 30.2221 16.7097C30.3916 16.7097 30.4904 16.6955 30.5187 16.6671C30.5752 16.6955 30.561 16.7807 30.4763 16.9228C30.3916 17.0365 30.2927 17.1644 30.1797 17.3065C30.095 17.4201 30.0244 17.5338 29.9679 17.6475C29.9114 17.7611 29.9255 17.8038 30.0103 17.7753C30.0667 17.7753 30.1232 17.7469 30.1797 17.6901C30.2362 17.6333 30.321 17.6048 30.4339 17.6048C30.5187 17.5764 30.5752 17.5764 30.6034 17.6048C30.6599 17.6333 30.7164 17.619 30.7729 17.5622C30.7446 17.6475 30.7023 17.7469 30.6458 17.8606C30.6175 17.9459 30.6034 18.0311 30.6034 18.1164C30.6034 18.1448 30.6599 18.159 30.7729 18.159C30.7446 18.3295 30.6881 18.4858 30.6034 18.6279C30.5187 18.77 30.4481 18.9121 30.3916 19.0541C30.0809 19.4804 29.7984 19.8498 29.5442 20.1624C29.29 20.475 29.0358 20.7734 28.7816 21.0576C28.5556 21.3418 28.3014 21.6402 28.019 21.9528C27.7648 22.2369 27.4682 22.5922 27.1293 23.0184C27.0728 23.0469 27.0446 23.0753 27.0446 23.1037C27.0446 23.1037 27.0163 23.1037 26.9598 23.1037C26.2819 24.0983 25.5899 25.0503 24.8838 25.9597C24.1777 26.8406 23.401 27.6647 22.5536 28.432L22.5113 28.6025C22.483 28.631 22.4406 28.7162 22.3842 28.8583C22.1582 29.0572 21.9181 29.2419 21.6639 29.4124C21.4097 29.5545 21.1837 29.7392 20.986 29.9666C20.9578 29.995 20.986 30.0092 21.0708 30.0092C20.9013 30.2366 20.6047 30.3929 20.1811 30.4781C19.7856 30.5634 19.4184 30.6202 19.0795 30.6486C18.5993 30.7055 18.1051 30.677 17.5967 30.5634C17.1165 30.4497 16.7775 30.2366 16.5798 29.924C16.2974 29.8103 16.0573 29.5829 15.8596 29.2419C15.6901 28.7873 15.6054 28.3184 15.6054 27.8353C15.6054 27.3237 15.6619 26.8264 15.7749 26.3433C15.8596 25.8318 15.9867 25.3345 16.1562 24.8514C16.3256 24.3683 16.5092 23.9136 16.7069 23.4873C16.7917 23.26 16.8623 23.0469 16.9188 22.8479C16.9753 22.649 17.06 22.4359 17.173 22.2085C17.4837 21.4697 17.8509 20.7308 18.2745 19.9919C18.6982 19.2531 19.0795 18.5426 19.4184 17.8606L20.3505 16.1129C20.5482 15.8003 20.7318 15.5303 20.9013 15.303C21.099 15.0472 21.2544 14.7773 21.3673 14.4931V14.3652C21.6215 14.3652 21.8051 14.2231 21.9181 13.9389C21.9746 13.9105 22.0452 13.8963 22.1299 13.8963C22.2429 13.8963 22.3277 13.8679 22.3842 13.8111C22.6666 13.8395 22.9208 13.9105 23.1468 14.0242C23.401 14.1094 23.6269 14.2089 23.8246 14.3226C23.8811 14.4647 23.9941 14.5926 24.1636 14.7062C24.3613 14.7915 24.446 14.9478 24.4178 15.1751C24.4178 15.2035 24.3613 15.303 24.2483 15.4735C24.2201 15.5303 24.2059 15.573 24.2059 15.6014C24.2342 15.6298 24.2342 15.6724 24.2059 15.7293C24.2059 15.8145 24.1636 15.8571 24.0788 15.8571V16.1555L23.7823 16.9654C23.7823 17.0223 23.7823 17.0507 23.7823 17.0507C23.8105 17.0223 23.8246 17.0365 23.8246 17.0933C23.6834 17.1217 23.5846 17.207 23.5281 17.3491C23.4998 17.4627 23.4433 17.548 23.3586 17.6048C23.3586 17.6901 23.3586 17.7327 23.3586 17.7327C23.2456 17.7611 23.175 17.818 23.1468 17.9032C23.1468 17.9601 23.1326 18.0169 23.1044 18.0737C22.9349 18.3011 22.7937 18.5284 22.6807 18.7558C22.596 18.9831 22.4971 19.1962 22.3842 19.3952C22.3277 19.4804 22.2994 19.5373 22.2994 19.5657C22.3277 19.5657 22.3135 19.5941 22.257 19.6509C22.257 19.6793 22.2147 19.6935 22.1299 19.6935C22.1017 19.8072 22.0593 19.9067 22.0028 19.9919C21.9746 20.0488 21.9605 20.1482 21.9605 20.2903C21.8193 20.4324 21.7063 20.6313 21.6215 20.8871C21.5368 21.1144 21.4238 21.2992 21.2826 21.4412C21.0566 21.9243 20.8731 22.3932 20.7318 22.8479C20.5059 23.3026 20.2658 23.7431 20.0116 24.1694C19.7856 24.5956 19.5879 25.0219 19.4184 25.4482L19.249 26.3007C19.136 26.5849 19.0371 26.8833 18.9524 27.1959C18.8677 27.5085 18.8394 27.8353 18.8677 28.1763C19.3196 27.9773 19.715 27.679 20.054 27.2811C20.5624 26.8548 21.0708 26.3859 21.5792 25.8744C22.0876 25.3345 22.5819 24.7945 23.062 24.2546C23.1185 24.2262 23.1468 24.212 23.1468 24.212C23.175 24.1836 23.2174 24.1694 23.2739 24.1694C23.4433 23.942 23.6128 23.7147 23.7823 23.4873C23.9517 23.26 24.1495 23.0326 24.3754 22.8053C24.5449 22.6916 24.6861 22.5637 24.7991 22.4217C24.9121 22.2512 25.025 22.0664 25.138 21.8675C25.1945 21.8107 25.251 21.768 25.3075 21.7396C25.3922 21.6828 25.4628 21.626 25.5193 21.5691C25.6323 21.3418 25.7735 21.1571 25.943 21.015C26.1407 20.8445 26.2819 20.6455 26.3667 20.4182ZM25.477 10.8272C25.3922 10.884 25.3075 10.9693 25.2228 11.083C25.0815 11.083 24.9544 11.083 24.8415 11.083C24.7285 11.083 24.6014 11.1114 24.4601 11.1682C24.4319 11.1682 24.4178 11.1966 24.4178 11.2535L24.2483 11.1256V10.8698C24.0788 10.9267 23.9941 11.0119 23.9941 11.1256C23.9376 11.1256 23.9235 11.0972 23.9517 11.0403C24.0082 10.9551 24.0082 10.8982 23.9517 10.8698C23.8953 10.8982 23.8529 10.9409 23.8246 10.9977C23.8246 11.0261 23.7964 11.0403 23.7399 11.0403V10.8698C23.6834 10.8698 23.6552 10.884 23.6552 10.9124C23.7117 10.5146 23.5422 10.3157 23.1468 10.3157C23.1468 10.1736 23.1185 10.1025 23.062 10.1025C23.062 9.61943 23.175 9.12212 23.401 8.6106C23.4575 8.55377 23.4857 8.51114 23.4857 8.48272C23.4857 8.42588 23.4998 8.38326 23.5281 8.35484C23.6128 8.298 23.6975 8.24117 23.7823 8.18433C23.8953 8.09908 23.9517 7.98541 23.9517 7.84332C23.98 7.87174 24.0506 7.88594 24.1636 7.88594C24.2201 7.82911 24.3048 7.74386 24.4178 7.63018C24.5308 7.51651 24.6155 7.53072 24.672 7.67281C24.7285 7.70123 24.7426 7.70123 24.7144 7.67281C24.7144 7.64439 24.7285 7.63018 24.7567 7.63018C24.8132 7.68702 24.8697 7.71544 24.9262 7.71544C24.9544 7.63019 25.025 7.57335 25.138 7.54493C25.2792 7.51651 25.4205 7.53072 25.5617 7.58756C25.5617 7.64439 25.5335 7.68702 25.477 7.71544C25.4487 7.71544 25.4487 7.74386 25.477 7.80069C25.8441 7.80069 26.0842 7.71544 26.1972 7.54493C26.1972 7.63018 26.2113 7.70123 26.2396 7.75807C26.2961 7.78648 26.3384 7.82911 26.3667 7.88594C26.3102 7.91436 26.2819 7.9712 26.2819 8.05645C26.3102 8.14171 26.3526 8.21275 26.409 8.26959C26.522 8.21275 26.6491 8.22696 26.7903 8.31221C26.9598 8.39747 27.0446 8.51114 27.0446 8.65323C27.0446 8.68164 27.0728 8.69585 27.1293 8.69585C27.1293 8.75269 27.1293 8.79532 27.1293 8.82373C27.1575 8.82373 27.1717 8.85215 27.1717 8.90899C27.1434 8.85215 27.1152 8.82373 27.0869 8.82373C27.0304 8.9374 26.9739 9.05108 26.9174 9.16475C26.8892 9.27842 26.8186 9.39209 26.7056 9.50576C26.7056 9.53418 26.7339 9.54839 26.7903 9.54839C26.8468 9.54839 26.8751 9.5626 26.8751 9.59101C26.8751 9.59101 26.8045 9.59101 26.6632 9.59101C26.4938 9.81836 26.2961 10.0457 26.0701 10.273C25.8441 10.472 25.6606 10.7277 25.5193 11.0403C25.4628 11.0403 25.4346 11.0545 25.4346 11.083C25.4346 11.083 25.4064 11.083 25.3499 11.083C25.4346 10.9977 25.477 10.9124 25.477 10.8272ZM24.2907 15.9424C24.2907 15.9708 24.2766 15.9992 24.2483 16.0276C24.2483 16.0276 24.2483 16.0561 24.2483 16.1129C24.1918 16.1413 24.1777 16.1129 24.2059 16.0276C24.2342 15.9424 24.2624 15.914 24.2907 15.9424Z" transform="translate(213 94.5) scale(1.5)" fill="#34314B"/>
<path d="M31.8757 13.9816C31.791 14.01 31.7345 14.081 31.7063 14.1947C31.678 14.28 31.6357 14.3794 31.5792 14.4931C31.5792 14.5215 31.5933 14.5357 31.6215 14.5357C31.4238 14.8767 31.2826 15.1183 31.1979 15.2604C31.1131 15.4025 30.986 15.6724 30.8166 16.0703C30.7883 16.1555 30.7318 16.2408 30.6471 16.326C30.5906 16.6671 30.4635 17.0081 30.2658 17.3491C30.0963 17.6901 29.9551 18.0453 29.8421 18.4147C30.294 18.0169 30.7883 17.5622 31.325 17.0507C31.8616 16.5108 32.4548 16.0845 33.1044 15.7719C33.2456 15.7151 33.3727 15.6724 33.4857 15.644C33.6269 15.5872 33.754 15.5445 33.867 15.5161C33.9235 15.4877 33.9659 15.4877 33.9941 15.5161C34.0224 15.5161 34.0647 15.5019 34.1212 15.4735C34.1495 15.4735 34.1636 15.4593 34.1636 15.4309C34.1636 15.4309 34.1777 15.4167 34.2059 15.3882C34.2907 15.3598 34.3895 15.374 34.5025 15.4309C34.6155 15.4593 34.7285 15.4735 34.8415 15.4735C34.9262 15.4735 35.0109 15.4593 35.0957 15.4309C35.2086 15.4025 35.3216 15.374 35.4346 15.3456C35.6606 15.4025 35.8441 15.5161 35.9854 15.6866C36.1548 15.8287 36.2961 15.9992 36.409 16.1982C36.5503 16.255 36.6632 16.2976 36.748 16.326C36.8327 16.3545 36.9175 16.4113 37.0022 16.4965C37.0587 16.4965 37.0446 16.4681 36.9598 16.4113C36.8751 16.326 36.861 16.2692 36.9174 16.2408L37.4682 16.4965C37.4682 16.6386 37.5106 16.7239 37.5953 16.7523C37.6518 17.0365 37.7365 17.3065 37.8495 17.5622C37.9625 17.7896 38.019 18.0737 38.019 18.4147C37.9908 19.381 37.8354 20.3045 37.553 21.1855C37.2988 22.038 37.0304 22.7911 36.748 23.4447C36.0136 25.0361 35.1804 26.4144 34.2483 27.5795C33.3162 28.7446 32.1723 29.725 30.8166 30.5207C30.7883 30.5207 30.7742 30.5065 30.7742 30.4781C30.7742 30.4497 30.7601 30.4355 30.7318 30.4355C30.4211 30.4923 30.1669 30.5776 29.9692 30.6912H29.7997C29.5738 30.7481 29.249 30.7197 28.8253 30.606C28.4299 30.4923 28.1192 30.4923 27.8932 30.606C27.8085 30.4071 27.6531 30.2792 27.4272 30.2224C27.2295 30.1939 27.0741 30.1087 26.9611 29.9666C26.9611 29.9382 26.9753 29.924 27.0035 29.924C27.0318 29.9524 27.06 29.9524 27.0882 29.924C27.0882 29.7819 27.0318 29.6966 26.9188 29.6682C26.8058 29.6114 26.7352 29.5119 26.7069 29.3698C26.481 29.313 26.3539 29.1709 26.3256 28.9435C26.3256 28.7162 26.2974 28.5173 26.2409 28.3468C26.2691 28.3184 26.2974 28.3184 26.3256 28.3468C26.3539 28.3468 26.3821 28.3326 26.4104 28.3041C26.4669 28.1621 26.481 28.0484 26.4527 27.9631C26.4245 27.8495 26.3821 27.6932 26.3256 27.4942C26.3539 27.4942 26.3821 27.5084 26.4104 27.5369C26.5798 27.3664 26.7775 27.2669 27.0035 27.2385C27.06 27.1816 27.0741 27.1106 27.0459 27.0253C27.0459 26.9401 27.1024 26.8975 27.2153 26.8975C27.1871 26.9543 27.1589 26.9969 27.1306 27.0253C27.1024 27.0538 27.1165 27.0964 27.173 27.1532C27.2295 27.0964 27.286 27.068 27.3424 27.068C27.4272 27.0396 27.4695 26.9827 27.4695 26.8975C27.5543 26.9543 27.5967 27.0111 27.5967 27.068C27.5967 27.1248 27.6249 27.1816 27.6814 27.2385C27.7379 27.5227 27.8226 27.75 27.9356 27.9205C28.0768 28.091 28.2322 28.2473 28.4016 28.3894C29.0513 28.3041 29.5597 28.0768 29.9268 27.7074C29.9833 27.6505 29.9833 27.6221 29.9268 27.6221C29.8986 27.6221 29.8845 27.5937 29.8845 27.5369C30.3082 27.3095 30.6612 27.068 30.9437 26.8122C31.2544 26.528 31.5509 26.2296 31.8334 25.9171C31.8334 25.8318 31.8475 25.775 31.8757 25.7465C31.904 25.7181 31.9181 25.6755 31.9181 25.6187C32.1723 25.3913 32.3842 25.1356 32.5536 24.8514C32.7231 24.5388 32.9208 24.2546 33.1468 23.9988L33.5704 23.1463C33.5422 23.0326 33.5563 22.9474 33.6128 22.8906C33.6975 22.8053 33.7681 22.7343 33.8246 22.6774C33.8529 22.649 33.8953 22.5495 33.9517 22.379C33.98 22.379 34.0082 22.3648 34.0365 22.3364C34.093 22.1943 34.1353 22.0664 34.1636 21.9528C34.1918 21.8391 34.2483 21.7538 34.333 21.697C34.559 21.015 34.785 20.3614 35.0109 19.7362C35.2369 19.111 35.364 18.3437 35.3922 17.4343C34.9686 17.548 34.5731 17.7611 34.2059 18.0737C33.8388 18.3579 33.4716 18.6563 33.1044 18.9689C32.7655 19.2247 32.4124 19.5088 32.0452 19.8214C31.678 20.134 31.3108 20.4466 30.9437 20.7592C30.3505 21.4128 29.7433 22.0949 29.1219 22.8053C28.5005 23.4873 27.8791 24.1978 27.2577 24.9366C26.8623 25.5902 26.4669 26.187 26.0714 26.727C25.676 27.2669 25.3794 27.9489 25.1817 28.773C25.1252 28.8583 25.0687 28.9435 25.0122 29.0288C24.9558 29.1141 24.871 29.1709 24.758 29.1993C24.758 29.2561 24.7439 29.313 24.7157 29.3698C24.6874 29.3982 24.6874 29.4693 24.7157 29.5829C24.6592 29.6398 24.6027 29.6966 24.5462 29.7535C24.4897 29.8103 24.4474 29.8813 24.4191 29.9666C24.2779 29.9666 24.2355 29.9382 24.292 29.8813C24.3202 29.8245 24.2638 29.8103 24.1225 29.8387C24.0943 29.8671 24.0943 29.8955 24.1225 29.924C24.1225 29.9808 24.1084 30.0234 24.0802 30.0518C23.8825 30.0803 23.7977 30.0376 23.826 29.924C23.826 29.8387 23.7695 29.8529 23.6565 29.9666C23.6 29.9382 23.5576 29.8955 23.5294 29.8387C23.4729 29.7535 23.4164 29.6824 23.3599 29.6256C23.3034 29.4835 23.2611 29.3698 23.2328 29.2846C23.1763 29.1993 23.1622 29.0856 23.1905 28.9435L22.8515 28.6452C22.7385 27.9916 22.7809 27.4232 22.9786 26.9401C23.1763 26.457 23.374 25.9455 23.5718 25.4055C23.713 24.9224 23.8683 24.482 24.0378 24.0841C24.2073 23.6578 24.3909 23.2316 24.5886 22.8053C24.758 22.4927 24.9134 22.1801 25.0546 21.8675C25.1676 21.5265 25.2947 21.1713 25.4359 20.8018C25.5489 20.5745 25.6478 20.3472 25.7325 20.1198C25.8455 19.8641 25.9584 19.5799 26.0714 19.2673C26.1844 19.1536 26.255 19.0541 26.2833 18.9689C26.2833 18.9405 26.2833 18.9263 26.2833 18.9263C26.3115 18.8979 26.3256 18.8552 26.3256 18.7984C26.5516 18.2016 26.7917 17.6048 27.0459 17.0081C27.3283 16.4113 27.6108 15.8287 27.8932 15.2604C27.978 14.9762 28.0909 14.7062 28.2322 14.4505C28.3734 14.1663 28.5146 13.8679 28.6558 13.5553C28.7123 13.4132 28.7688 13.2995 28.8253 13.2143C28.8818 13.1006 28.8959 12.9727 28.8677 12.8306L29.1219 12.4896C29.1501 12.4328 29.1501 12.376 29.1219 12.3191C29.1219 12.2623 29.136 12.2055 29.1642 12.1486L29.3761 12.0207C29.3761 11.9639 29.4043 11.8502 29.4608 11.6797C29.5173 11.5661 29.5597 11.4808 29.5879 11.424C29.6444 11.3387 29.6868 11.2677 29.715 11.2108C29.715 11.1256 29.7291 11.0687 29.7574 11.0403C29.7856 11.0119 29.7856 10.9977 29.7574 10.9977C29.7574 10.9977 29.7715 10.9693 29.7997 10.9124C29.8845 10.8272 29.9268 10.7704 29.9268 10.7419C29.9551 10.7135 29.9692 10.6425 29.9692 10.5288C30.0257 10.4435 30.0681 10.3441 30.0963 10.2304C30.1528 10.1167 30.2093 10.0315 30.2658 9.97466C30.3223 9.83257 30.3788 9.7189 30.4353 9.63364C30.4917 9.51997 30.5482 9.43472 30.6047 9.37788C30.6612 9.15054 30.746 9.00845 30.8589 8.95161C30.8589 8.9232 30.8731 8.89478 30.9013 8.86636C30.9295 8.83794 30.9437 8.80952 30.9437 8.78111C31.1979 8.298 31.4379 7.75806 31.6639 7.16129C31.8899 6.5361 32.1864 5.98195 32.5536 5.49885C32.6101 5.44201 32.6242 5.4136 32.596 5.4136C32.596 5.4136 32.596 5.39939 32.596 5.37097C32.709 5.2573 32.8078 5.08679 32.8926 4.85945C33.0055 4.60369 33.1326 4.37634 33.2739 4.17742C33.4433 3.9785 33.6128 3.83641 33.7823 3.75115C33.98 3.63748 34.2201 3.6659 34.5025 3.83641C34.559 3.80799 34.5731 3.8222 34.5449 3.87903C34.5449 3.90745 34.5449 3.93587 34.5449 3.96429C34.5731 3.9927 34.6155 3.9927 34.672 3.96429C34.7285 3.93587 34.785 3.90745 34.8415 3.87903C34.8415 3.90745 34.8132 3.93587 34.7567 3.96429C34.7285 3.96429 34.7285 3.97849 34.7567 4.00691C34.9827 4.03533 35.0957 4.06375 35.0957 4.09217C35.0957 4.12058 35.2086 4.149 35.4346 4.17742C35.4063 4.31951 35.4628 4.43318 35.6041 4.51843C35.7735 4.57527 35.8865 4.64631 35.943 4.73157C36.0842 5.07258 36.0984 5.32834 35.9854 5.49885C35.9006 5.64094 35.8018 5.78303 35.6888 5.92511C35.717 5.98195 35.6888 6.03879 35.6041 6.09562C35.5476 6.12404 35.4911 6.16667 35.4346 6.2235C35.4628 6.36559 35.4346 6.47926 35.3499 6.56452C35.2651 6.62135 35.251 6.73502 35.3075 6.90553C35.1945 6.87711 35.0957 6.97658 35.0109 7.20392C34.9262 7.43126 34.8556 7.55914 34.7991 7.58756C34.7991 7.67281 34.785 7.72965 34.7567 7.75807C34.7285 7.78648 34.7426 7.84332 34.7991 7.92857C34.7426 8.04224 34.6437 8.15591 34.5025 8.26959C34.3895 8.35484 34.333 8.46851 34.333 8.6106C34.333 8.58218 34.3048 8.58218 34.2483 8.6106C34.1636 8.83794 34.1495 8.99424 34.2059 9.07949C34.093 9.13633 33.9941 9.16475 33.9094 9.16475C33.9094 9.22158 33.8952 9.26421 33.867 9.29263C33.867 9.32104 33.8811 9.36367 33.9094 9.42051C33.8246 9.44893 33.7823 9.50576 33.7823 9.59101C33.7823 9.64785 33.754 9.69048 33.6975 9.71889C33.6975 9.91782 33.641 10.0457 33.5281 10.1025C33.5846 10.2446 33.5563 10.4009 33.4433 10.5714C33.3586 10.7419 33.3162 10.9267 33.3162 11.1256C33.288 11.154 33.2315 11.1966 33.1468 11.2535C33.0903 11.3103 33.0762 11.3529 33.1044 11.3813C33.0479 11.5234 32.9632 11.6655 32.8502 11.8076C32.7655 11.9497 32.7231 12.0918 32.7231 12.2339C32.6384 12.4896 32.5254 12.717 32.3842 12.9159C32.2712 13.0864 32.1864 13.328 32.1299 13.6406L31.9605 13.7684C31.904 13.8253 31.8757 13.8679 31.8757 13.8963C31.904 13.8963 31.904 13.9247 31.8757 13.9816ZM28.1474 21.9954C28.3169 21.7112 28.5993 21.3418 28.9948 20.8871C29.4184 20.4324 29.8704 19.9777 30.3505 19.523C30.8307 19.0399 31.2967 18.5995 31.7486 18.2016C32.2288 17.8038 32.6242 17.5054 32.9349 17.3065V17.2638C32.0593 17.9459 31.3391 18.5142 30.7742 18.9689C30.2375 19.3952 29.7856 19.7788 29.4184 20.1198C29.0795 20.4324 28.8112 20.7308 28.6135 21.015C28.4158 21.2992 28.2604 21.626 28.1474 21.9954ZM32.5113 16.4113C32.4548 16.4681 32.3841 16.4965 32.2994 16.4965C32.2147 16.4965 32.1582 16.525 32.1299 16.5818C31.7628 16.8944 31.3815 17.2212 30.986 17.5622C30.6188 17.9032 30.3223 18.2158 30.0963 18.5C30.2093 18.4432 30.294 18.3721 30.3505 18.2869C30.4353 18.2016 30.52 18.1022 30.6047 17.9885C30.7177 17.8464 30.8307 17.7327 30.9437 17.6475C31.0566 17.5622 31.1837 17.477 31.325 17.3917C31.4379 17.3065 31.5368 17.2212 31.6215 17.1359C31.7345 17.0507 31.8193 16.9512 31.8757 16.8376C31.9605 16.8376 32.017 16.8233 32.0452 16.7949C32.0735 16.7665 32.1158 16.7239 32.1723 16.6671C32.2853 16.6386 32.3842 16.596 32.4689 16.5392C32.5536 16.4823 32.6242 16.4255 32.6807 16.3687C32.7372 16.3118 32.7937 16.2692 32.8502 16.2408C32.9349 16.1839 32.9914 16.0987 33.0197 15.985C32.8784 16.0419 32.7796 16.1129 32.7231 16.1982C32.6666 16.2834 32.596 16.3545 32.5113 16.4113ZM36.8327 16.1982C36.7762 16.2266 36.6915 16.2124 36.5785 16.1555C36.4938 16.0987 36.409 16.0419 36.3243 15.985C36.4655 15.9282 36.5644 15.9424 36.6209 16.0276C36.7056 16.1129 36.7762 16.1697 36.8327 16.1982ZM29.7574 18.8836C29.8986 18.7984 29.9551 18.7131 29.9268 18.6279C29.8986 18.6847 29.8562 18.7273 29.7997 18.7558C29.7715 18.7842 29.7574 18.8268 29.7574 18.8836ZM33.062 15.985C33.062 16.0134 33.0762 16.0276 33.1044 16.0276L33.1468 15.985V15.8998C33.0903 15.8998 33.062 15.9282 33.062 15.985ZM31.325 18.4147C31.3532 18.3863 31.3673 18.3721 31.3673 18.3721C31.3956 18.3721 31.4238 18.3437 31.4521 18.2869C31.3673 18.3721 31.325 18.4147 31.325 18.4147Z" transform="translate(213 94.5) scale(1.5)" fill="#34314B"/>
<path d="M50.1741 23.3594C50.2871 23.1889 50.4566 22.9474 50.6825 22.6348C50.9367 22.2938 51.1909 21.9528 51.4451 21.6118C51.6993 21.2423 51.9394 20.8871 52.1654 20.5461C52.4196 20.2051 52.6173 19.9493 52.7585 19.7788C52.815 19.7504 52.8574 19.7078 52.8856 19.6509C52.9139 19.5657 52.9703 19.523 53.0551 19.523C52.9139 19.722 52.7868 19.9209 52.6738 20.1198C52.5608 20.2903 52.4196 20.4608 52.2501 20.6313C52.3066 20.6598 52.3772 20.6313 52.4619 20.5461C52.6032 20.404 52.7303 20.2619 52.8432 20.1198C52.9562 19.9493 53.0833 19.793 53.2245 19.6509L53.9872 18.8836C53.9872 18.9405 54.0295 18.9689 54.1143 18.9689C54.0295 19.1678 53.8601 19.4236 53.6059 19.7362C53.3799 20.0488 53.1398 20.3472 52.8856 20.6313C52.6597 20.9155 52.4761 21.1571 52.3348 21.356C52.2219 21.5265 52.2219 21.5833 52.3348 21.5265C52.7303 21.0718 53.1398 20.6171 53.5635 20.1624C53.9872 19.7078 54.4391 19.2673 54.9192 18.841C54.9475 18.8126 54.9051 18.8978 54.7921 19.0968C54.6792 19.2957 54.5379 19.5373 54.3685 19.8214C54.199 20.0772 54.0436 20.333 53.9024 20.5887C53.7612 20.8161 53.6765 20.9581 53.6482 21.015C53.6482 21.0434 53.733 20.9439 53.9024 20.7166C54.1001 20.4608 54.4532 19.9777 54.9616 19.2673C55.0181 19.3241 55.0181 19.381 54.9616 19.4378C54.9334 19.4662 54.9051 19.5088 54.8769 19.5657C54.6509 19.9635 54.3826 20.3472 54.0719 20.7166C53.7894 21.086 53.507 21.4412 53.2245 21.7823C53.4788 21.5265 53.733 21.2565 53.9872 20.9724C54.2414 20.6598 54.5238 20.3472 54.8345 20.0346C54.6368 20.404 54.3967 20.7024 54.1143 20.9297C53.7471 21.3276 53.3799 21.768 53.0127 22.2512C52.6738 22.7343 52.349 23.1747 52.0383 23.5726C51.9818 23.601 51.9394 23.6436 51.9112 23.7005C51.8829 23.7573 51.8123 23.7999 51.6993 23.8283C51.6993 23.8568 51.6852 23.8852 51.657 23.9136C51.6287 23.9136 51.6146 23.9278 51.6146 23.9562C51.5863 23.9846 51.5016 24.0841 51.3604 24.2546C51.2474 24.4251 51.1203 24.6098 50.9791 24.8088C50.8379 24.9793 50.7108 25.1498 50.5978 25.3203C50.4848 25.4908 50.4283 25.5902 50.4283 25.6187C50.6825 25.3061 50.9367 24.9793 51.1909 24.6382C51.4734 24.2972 51.7134 24.0557 51.9112 23.9136V23.7857C52.0524 23.7857 52.0948 23.7289 52.0383 23.6152H52.123L52.4619 23.2316C52.4902 23.1747 52.4902 23.1605 52.4619 23.1889C52.4619 23.2174 52.4761 23.2316 52.5043 23.2316L52.8856 22.8479L53.0551 22.5495V22.6348L53.5211 21.9954L53.9024 21.4412C54.0154 21.3844 54.1001 21.2992 54.1566 21.1855C54.2131 21.0718 54.2979 20.9866 54.4108 20.9297C54.4108 21.015 54.3543 21.1002 54.2414 21.1855C54.1566 21.2423 54.1001 21.3276 54.0719 21.4412C53.9589 21.4981 53.8742 21.5691 53.8177 21.6544C53.7894 21.7396 53.7471 21.8391 53.6906 21.9528L52.6314 23.3594L51.3604 24.894C51.5581 24.6382 51.7417 24.3683 51.9112 24.0841C52.1089 23.7999 52.2219 23.6294 52.2501 23.5726L50.852 25.4482L49.4115 27.068C49.242 27.2669 49.0443 27.4516 48.8184 27.6221C48.6489 27.9347 48.4229 28.1478 48.1405 28.2615C47.971 28.4604 47.8157 28.6452 47.6744 28.8157C47.5615 28.9862 47.4202 29.1425 47.2508 29.2846C47.1095 29.5119 46.9259 29.6966 46.7 29.8387C46.5023 29.9808 46.2904 30.1087 46.0645 30.2224C45.9515 30.3076 45.8668 30.3786 45.8103 30.4355C45.7538 30.5207 45.6691 30.5918 45.5561 30.6486C45.4148 30.7339 45.2736 30.7907 45.1324 30.8191C44.9912 30.876 44.8641 30.9328 44.7511 30.9896C44.6946 30.9896 44.5816 31.018 44.4122 31.0749C44.2709 31.1317 44.1156 31.1886 43.9461 31.2454C43.7766 31.3306 43.6072 31.3875 43.4377 31.4159C43.2965 31.4727 43.1835 31.5012 43.0988 31.5012C42.9293 31.5012 42.7881 31.4443 42.6751 31.3306C42.5621 31.217 42.4491 31.0891 42.3362 30.947C42.2514 30.8333 42.1384 30.7339 41.9972 30.6486C41.8842 30.5634 41.7289 30.5349 41.5312 30.5634L41.3193 30.3929C41.3193 30.2508 41.2911 30.1513 41.2346 30.0945C41.1781 29.7535 41.1499 29.4124 41.1499 29.0714C41.1499 28.7304 41.1922 28.3894 41.277 28.0484C41.39 27.2527 41.5453 26.5565 41.743 25.9597C41.969 25.3345 42.2091 24.7519 42.4633 24.212C42.7175 23.6436 42.9858 23.1037 43.2682 22.5922C43.5507 22.0522 43.8473 21.4839 44.158 20.8871C44.2144 20.8303 44.2427 20.7734 44.2427 20.7166C44.2709 20.6313 44.3133 20.5745 44.3698 20.5461C44.5957 20.0914 44.7935 19.7504 44.9629 19.523C45.1324 19.2673 45.2877 19.0541 45.429 18.8836C45.5984 18.6847 45.7679 18.4716 45.9374 18.2442C46.1068 18.0169 46.3187 17.6901 46.5729 17.2638C46.1775 17.3775 45.7397 17.4059 45.2595 17.3491C44.7793 17.2922 44.4263 17.1359 44.2003 16.8802L44.0308 17.2212C43.8049 17.477 43.6072 17.7611 43.4377 18.0737C43.2682 18.3863 43.0988 18.6989 42.9293 19.0115C42.5621 19.523 42.2232 19.9635 41.9125 20.3329C41.63 20.7024 41.3052 21.1571 40.938 21.697C40.7686 22.0096 40.4861 22.3364 40.0907 22.6774C39.6953 23.0184 39.3846 23.3452 39.1586 23.6578C39.1021 23.7147 39.0315 23.7857 38.9468 23.871C38.8903 23.9562 38.8338 24.0557 38.7773 24.1694H38.6926C38.6361 24.2262 38.5937 24.2972 38.5655 24.3825C38.5372 24.4393 38.4949 24.4677 38.4384 24.4677C38.3819 24.4393 38.3678 24.4109 38.396 24.3825C38.4242 24.3541 38.4384 24.3257 38.4384 24.2972C38.2407 24.3257 38.1277 24.3967 38.0994 24.5104C38.0712 24.624 38.0147 24.7235 37.93 24.8088L38.0571 24.553C38.0288 24.4962 38.0006 24.4962 37.9723 24.553C37.9723 24.5814 37.9441 24.5956 37.8876 24.5956C37.8876 24.5388 37.9017 24.5104 37.93 24.5104C37.9865 24.482 38.0147 24.4393 38.0147 24.3825C37.817 24.3825 37.6758 24.4535 37.591 24.5956C37.5628 24.5388 37.5769 24.5104 37.6334 24.5104C37.6616 24.482 37.6475 24.4393 37.591 24.3825C37.5628 24.4109 37.5487 24.4393 37.5487 24.4677C37.5204 24.4962 37.4639 24.5246 37.3792 24.553C37.3509 24.4962 37.3792 24.4393 37.4639 24.3825C37.5487 24.3257 37.591 24.2688 37.591 24.212C37.478 24.2688 37.3933 24.3399 37.3368 24.4251C37.2521 24.5104 37.1532 24.5672 37.0402 24.5956C37.0967 24.5104 37.1673 24.4109 37.2521 24.2972C37.3368 24.1836 37.4357 24.0699 37.5487 23.9562C37.4074 23.9846 37.3227 24.0415 37.2945 24.1267C37.2662 24.212 37.2238 24.283 37.1674 24.3399C37.1391 24.2546 37.1673 24.1694 37.2521 24.0841C37.3368 23.9988 37.4074 23.8994 37.4639 23.7857C37.4074 23.7857 37.3651 23.8141 37.3368 23.871C37.2803 23.9278 37.238 23.9846 37.2097 24.0415C37.1532 23.9846 37.1391 23.9562 37.1674 23.9562C37.0826 23.9562 36.9696 23.9988 36.8284 24.0841C36.6589 24.1409 36.546 24.1836 36.4895 24.212C36.6307 23.8994 36.8143 23.6152 37.0402 23.3594C37.2662 23.1037 37.4639 22.8479 37.6334 22.5922C37.6899 22.4785 37.7605 22.3648 37.8452 22.2512C37.9017 22.1091 37.9582 21.9812 38.0147 21.8675C38.0429 21.8675 38.0571 21.8675 38.0571 21.8675C38.0571 21.8391 38.0712 21.8249 38.0994 21.8249C38.2971 21.4839 38.5655 21.1002 38.9044 20.674C39.2716 20.2193 39.5258 19.8214 39.667 19.4804C39.78 19.3383 39.9071 19.182 40.0483 19.0115C40.1895 18.8126 40.3025 18.6137 40.3873 18.4147C40.5285 18.1306 40.6556 17.9032 40.7686 17.7327C40.8815 17.5338 40.9945 17.3491 41.1075 17.1786C41.2205 16.9796 41.3335 16.7949 41.4464 16.6244C41.5877 16.4255 41.743 16.1839 41.9125 15.8998C41.9407 15.8714 41.9266 15.8571 41.8701 15.8571C41.8419 15.8287 41.8278 15.8003 41.8278 15.7719C41.8842 15.8003 41.9266 15.8003 41.9549 15.7719C41.9831 15.7435 42.0113 15.7293 42.0396 15.7293C41.7854 15.303 41.7713 14.7773 41.9972 14.1521C42.2232 13.4985 42.4209 12.8733 42.5904 12.2765C42.6186 12.2197 42.661 12.1628 42.7175 12.106C42.774 12.0207 42.8304 11.9497 42.8869 11.8929C42.9434 11.9781 42.9434 12.0918 42.8869 12.2339C42.8304 12.3475 42.8022 12.4754 42.8022 12.6175C42.661 12.9017 42.548 13.2427 42.4633 13.6406C42.4068 14.0384 42.435 14.3936 42.548 14.7062C42.5762 14.422 42.5904 14.1521 42.5904 13.8963C42.5904 13.6406 42.661 13.3848 42.8022 13.129C42.8304 12.8733 42.8728 12.6317 42.9293 12.4044C42.9858 12.177 43.0423 11.9497 43.0988 11.7224C43.1553 11.7792 43.1835 11.7934 43.1835 11.765C43.1835 11.7081 43.2117 11.6797 43.2682 11.6797C43.2965 11.6797 43.2965 11.6939 43.2682 11.7224C43.2682 11.7508 43.2824 11.7792 43.3106 11.8076C43.4518 11.7508 43.5366 11.6513 43.5648 11.5092C43.6213 11.3671 43.7202 11.2677 43.8614 11.2108C43.9179 11.2108 43.9461 11.225 43.9461 11.2535C43.9744 11.2819 44.0167 11.2961 44.0732 11.2961C43.9602 11.154 43.8049 11.1256 43.6072 11.2108C43.6072 11.1256 43.6637 11.0972 43.7766 11.1256C43.9179 11.1256 44.0167 11.154 44.0732 11.2108C44.158 11.0687 44.2286 10.9693 44.2851 10.9124C44.3698 10.8556 44.3415 10.9409 44.2003 11.1682C44.2568 11.1398 44.2992 11.1114 44.3274 11.083C44.3839 11.0261 44.4828 10.9977 44.624 10.9977C44.7087 10.9977 44.7935 11.0261 44.8782 11.083C44.9912 11.1398 45.1041 11.1824 45.2171 11.2108C45.2736 11.2108 45.2877 11.1966 45.2595 11.1682C45.2595 11.1114 45.2877 11.083 45.3442 11.083C45.429 11.1966 45.5137 11.2677 45.5984 11.2961C45.7114 11.2961 45.8244 11.3245 45.9374 11.3813C46.0786 11.7792 46.0927 12.177 45.9797 12.5749C45.895 12.9443 45.782 13.328 45.6408 13.7258C45.5843 13.9531 45.4996 14.1379 45.3866 14.28C45.3019 14.422 45.2171 14.6068 45.1324 14.8341C45.0194 15.1183 44.9629 15.3314 44.9629 15.4735C44.9912 15.5588 45.09 15.644 45.2595 15.7293C45.4572 15.7861 45.6267 15.8003 45.7679 15.7719C45.7962 15.7719 45.8244 15.7719 45.8526 15.7719C45.8809 15.7435 45.9091 15.7293 45.9374 15.7293C45.9939 15.7293 46.0645 15.7435 46.1492 15.7719C46.2339 15.8003 46.3187 15.8145 46.4034 15.8145C46.6294 15.7861 46.8271 15.7435 46.9966 15.6866C47.166 15.6014 47.3779 15.5588 47.6321 15.5588C47.6886 15.5588 47.7027 15.5588 47.6744 15.5588C47.6462 15.5303 47.6462 15.5019 47.6744 15.4735C47.7592 15.5588 47.8722 15.5588 48.0134 15.4735C48.0699 15.4735 48.0981 15.4877 48.0981 15.5161C48.1263 15.5445 48.1546 15.5445 48.1828 15.5161C48.2393 15.4877 48.3241 15.4735 48.437 15.4735C48.55 15.4735 48.6489 15.4451 48.7336 15.3882C48.7901 15.3882 48.8325 15.4025 48.8607 15.4309C48.889 15.4593 48.9455 15.4593 49.0302 15.4309C49.0867 15.5161 49.129 15.5872 49.1573 15.644C49.2138 15.7008 49.2561 15.7861 49.2844 15.8998C49.3409 15.985 49.3974 16.0419 49.4539 16.0703C49.5103 16.0987 49.5668 16.1413 49.6233 16.1982C49.6798 16.3971 49.7363 16.525 49.7928 16.5818C49.7928 16.6955 49.821 16.7807 49.8775 16.8376C49.934 16.8944 49.9905 16.9654 50.047 17.0507C49.9905 17.1075 49.9481 17.207 49.9199 17.3491C49.9199 17.4627 49.8775 17.548 49.7928 17.6048C49.7363 17.6048 49.7222 17.5906 49.7504 17.5622C49.7787 17.5054 49.7787 17.4485 49.7504 17.3917C49.6374 17.7611 49.4962 18.0879 49.3268 18.3721C49.1573 18.6279 49.0019 18.9263 48.8607 19.2673C48.8042 19.3241 48.7477 19.3952 48.6912 19.4804C48.663 19.5657 48.6065 19.6367 48.5218 19.6935C48.3523 20.0061 48.2252 20.2335 48.1405 20.3756C48.0557 20.5177 47.971 20.6455 47.8863 20.7592C47.8015 20.8445 47.7168 20.9439 47.6321 21.0576C47.5756 21.1713 47.4908 21.3276 47.3779 21.5265C47.0107 22.1517 46.6859 22.6916 46.4034 23.1463C46.1492 23.601 45.9091 24.0557 45.6832 24.5104C45.4855 24.9651 45.3019 25.4766 45.1324 26.0449C44.9629 26.5849 44.8076 27.2527 44.6664 28.0484C44.9771 27.7642 45.2595 27.5937 45.5137 27.5369C45.7962 27.4516 46.121 27.2811 46.4881 27.0253C46.4881 26.9969 46.4881 26.9827 46.4881 26.9827C46.5164 26.9827 46.5305 26.9969 46.5305 27.0253C46.8412 26.7127 47.1378 26.4002 47.4202 26.0876C47.7027 25.775 48.0275 25.4908 48.3947 25.235H48.3099C48.3664 25.1782 48.4229 25.1214 48.4794 25.0645C48.5641 24.9793 48.6065 24.9082 48.6065 24.8514C48.663 24.7945 48.7195 24.7377 48.776 24.6809C48.8325 24.624 48.9172 24.553 49.0302 24.4677V24.4251C49.0302 24.4251 49.0584 24.3967 49.1149 24.3399C49.2561 24.2262 49.3974 24.0841 49.5386 23.9136C49.7081 23.7431 49.8917 23.5868 50.0894 23.4447V23.4873L50.1741 23.3594ZM49.8352 26.2581C49.7787 26.2296 49.7787 26.2012 49.8352 26.1728C49.9199 26.116 49.9905 26.0876 50.047 26.0876C50.047 26.0876 50.0611 26.0591 50.0894 26.0023C50.1459 25.9455 50.1741 25.8886 50.1741 25.8318C49.9481 25.9739 49.7646 26.1444 49.6233 26.3433C49.4821 26.5138 49.355 26.7127 49.242 26.9401C49.2985 26.9117 49.3409 26.8548 49.3691 26.7696C49.4256 26.6843 49.4962 26.6133 49.581 26.5565C49.581 26.4996 49.6092 26.4428 49.6657 26.3859C49.6939 26.4144 49.6939 26.4428 49.6657 26.4712C49.6375 26.4712 49.6233 26.4854 49.6233 26.5138L50.0046 26.1302C49.8917 26.187 49.8352 26.2296 49.8352 26.2581ZM49.581 23.9988C49.6375 23.942 49.6939 23.8852 49.7504 23.8283C49.8352 23.7715 49.9058 23.7005 49.9623 23.6152C49.8775 23.672 49.7928 23.7431 49.7081 23.8283C49.6233 23.8852 49.581 23.942 49.581 23.9988ZM50.4283 25.6187C50.3436 25.6187 50.2871 25.6613 50.2588 25.7465C50.2588 25.8034 50.2447 25.8602 50.2165 25.9171L50.4283 25.6187ZM50.4707 25.7465C50.6401 25.6897 50.7249 25.5902 50.7249 25.4482L50.4707 25.7465ZM52.0383 20.5461C51.9818 20.5461 51.9535 20.5461 51.9535 20.5461C51.9535 20.4608 51.9818 20.4182 52.0383 20.4182C52.0383 20.4466 52.0383 20.4608 52.0383 20.4608C52.0665 20.4608 52.0665 20.4892 52.0383 20.5461ZM54.199 21.0576C54.1425 21.1713 54.0436 21.2992 53.9024 21.4412L54.199 21.0576ZM53.1398 22.4217C53.1963 22.3648 53.2387 22.308 53.2669 22.2512C53.2952 22.1943 53.3375 22.1375 53.394 22.0806L53.1398 22.4217ZM50.852 25.4482C50.8802 25.4482 50.9508 25.3629 51.0638 25.1924L50.852 25.4482ZM53.394 22.038C53.394 22.0664 53.4364 22.038 53.5211 21.9528L53.4787 21.9954C53.4505 22.0238 53.4223 22.038 53.394 22.038Z" transform="translate(213 94.5) scale(1.5)" fill="#34314B"/>
<path d="M68.7621 15.2604C68.8186 15.2604 68.8186 15.2746 68.7621 15.303C68.7338 15.303 68.7338 15.3172 68.7621 15.3456C68.8186 15.3172 68.9033 15.2746 69.0163 15.2177C69.1293 15.1325 69.2281 15.0899 69.3129 15.0899C69.2564 15.232 69.1716 15.3598 69.0586 15.4735C68.9739 15.5588 68.8892 15.6582 68.8045 15.7719L69.1434 15.5161C69.0587 15.6866 68.9174 15.8429 68.7197 15.985C68.5502 16.1271 68.3667 16.255 68.1689 16.3687C68.1689 16.4255 68.1689 16.4539 68.1689 16.4539C68.1972 16.4255 68.2113 16.4397 68.2113 16.4965C68.0983 16.5534 67.9853 16.6244 67.8724 16.7097C67.7594 16.7949 67.6464 16.9086 67.5334 17.0507C67.6182 17.0223 67.6888 17.0081 67.7453 17.0081C67.604 17.0649 67.4769 17.1359 67.364 17.2212C67.251 17.278 67.1521 17.3349 67.0674 17.3917C67.0674 17.3917 67.0674 17.3633 67.0674 17.3065C67.0391 17.3065 67.0109 17.3207 66.9827 17.3491C66.9544 17.3775 66.9544 17.3917 66.9827 17.3917H67.025C67.025 17.4485 66.9827 17.477 66.8979 17.477C66.8979 17.4485 66.8838 17.4343 66.8556 17.4343V17.477C66.8556 17.477 66.8273 17.477 66.7708 17.477V17.5622C66.5449 17.619 66.3189 17.7185 66.0929 17.8606C65.867 17.9743 65.6128 18.0453 65.3303 18.0737C65.2456 18.1021 65.1891 18.1164 65.1609 18.1164C65.1609 18.1164 65.1467 18.1306 65.1185 18.159C65.1185 18.159 65.062 18.159 64.949 18.159C64.7513 18.1874 64.5395 18.2016 64.3135 18.2016C64.0876 18.2016 63.9181 18.2158 63.8051 18.2442C63.5791 18.2442 63.3391 18.2442 63.0849 18.2442C62.8307 18.2442 62.5623 18.2016 62.2799 18.1164C62.3364 18.23 62.3364 18.3153 62.2799 18.3721C62.2516 18.4005 62.2375 18.4716 62.2375 18.5853C62.181 18.5568 62.1669 18.5284 62.1952 18.5C62.2234 18.4716 62.2234 18.4432 62.1952 18.4147L61.9833 19.0541C61.9268 19.1962 61.8845 19.3099 61.8562 19.3952C61.828 19.4804 61.7856 19.5941 61.7291 19.7362C61.7009 19.7646 61.6726 19.793 61.6444 19.8214C61.6161 19.8214 61.602 19.8498 61.602 19.9067L61.6444 19.9493C61.6161 20.1482 61.5455 20.3329 61.4325 20.5035C61.3478 20.6455 61.2772 20.8018 61.2207 20.9724C61.3054 20.9439 61.3478 20.8871 61.3478 20.8018C61.376 20.6882 61.4184 20.6029 61.4749 20.5461C61.5314 20.4324 61.5738 20.3472 61.602 20.2903C61.6585 20.2051 61.6867 20.1198 61.6867 20.0346C61.7432 20.0914 61.7291 20.1624 61.6444 20.2477C61.5879 20.333 61.5879 20.404 61.6444 20.4608C61.5879 20.6313 61.5173 20.8018 61.4325 20.9724C61.3761 21.1144 61.3337 21.2849 61.3054 21.4839C61.2489 21.4555 61.2207 21.4981 61.2207 21.6118C61.249 21.697 61.2348 21.7254 61.1783 21.697C61.2066 21.8107 61.1783 21.9101 61.0936 21.9954C61.0371 22.0522 60.9947 22.1517 60.9665 22.2938C60.9665 22.2369 61.0089 22.2085 61.0936 22.2085C61.0936 22.2938 61.0795 22.3364 61.0512 22.3364C61.0512 22.3932 61.0512 22.4217 61.0512 22.4217C61.0795 22.3932 61.0936 22.4075 61.0936 22.4643C61.0654 22.4927 60.9948 22.5069 60.8818 22.5069C60.8818 22.5069 60.8676 22.4785 60.8394 22.4217C60.5287 22.9048 60.2321 23.4163 59.9497 23.9562C59.6955 24.4677 59.3989 24.9508 59.06 25.4055C59.0882 25.4339 59.1023 25.4339 59.1023 25.4055C59.1306 25.3487 59.173 25.3203 59.2294 25.3203C58.9752 25.6613 58.7069 26.0023 58.4245 26.3433C58.142 26.6843 57.8596 27.0111 57.5771 27.3237C57.4359 27.5227 57.2947 27.7074 57.1535 27.8779C57.0405 28.0484 56.9134 28.2047 56.7721 28.3468C56.7157 28.4036 56.6592 28.4462 56.6027 28.4747C56.5462 28.5031 56.4897 28.5457 56.4332 28.6025C56.1225 28.9151 55.7695 29.2419 55.374 29.5829C55.0068 29.8955 54.569 30.1371 54.0606 30.3076C54.0324 30.3076 54.0183 30.3644 54.0183 30.4781C53.7076 30.5634 53.3263 30.606 52.8744 30.606C52.4224 30.6344 52.0694 30.5634 51.8152 30.3929C51.1655 30.3076 50.6289 30.0945 50.2052 29.7535C49.7815 29.4124 49.5415 28.9151 49.485 28.2615C49.4002 27.7784 49.4002 27.3237 49.485 26.8975C49.5415 26.4712 49.6262 26.0449 49.7392 25.6187C50.0781 24.2546 50.5159 23.0469 51.0526 21.9954C51.2785 21.626 51.4762 21.2565 51.6457 20.8871C51.8152 20.4892 52.0411 20.134 52.3236 19.8214C52.3518 19.6793 52.3942 19.5799 52.4507 19.523C52.5354 19.4378 52.5919 19.3241 52.6202 19.182C52.7614 19.0399 52.8461 18.8978 52.8744 18.7558C53.0438 18.6421 53.1286 18.5142 53.1286 18.3721C53.185 18.429 53.2133 18.3863 53.2133 18.2442C53.2415 18.2442 53.2698 18.23 53.298 18.2016C53.4393 17.9174 53.6087 17.6901 53.8064 17.5196C54.0041 17.3207 54.1736 17.0791 54.3148 16.7949C54.4278 16.7381 54.4843 16.6671 54.4843 16.5818C54.8797 16.0987 55.2893 15.6156 55.713 15.1325C56.1366 14.621 56.5886 14.1379 57.0687 13.6832C57.0687 13.6548 57.0828 13.6263 57.1111 13.5979V13.6406C57.1393 13.6121 57.1676 13.5979 57.1958 13.5979C57.2241 13.5979 57.2664 13.5837 57.3229 13.5553C57.4641 13.47 57.5771 13.3564 57.6619 13.2143C57.7748 13.0438 57.9019 12.9585 58.0432 12.9585C58.2691 12.9017 58.4668 12.8591 58.6363 12.8306C58.834 12.7738 59.0317 12.6886 59.2294 12.5749L59.6531 12.9159C59.9356 12.8591 60.1474 12.8875 60.2886 13.0012V13.129C60.4016 13.2711 60.5428 13.399 60.7123 13.5127C60.91 13.5979 60.9383 13.7542 60.797 13.9816C60.91 14.0384 60.9806 14.0526 61.0089 14.0242C61.0371 14.081 61.0512 14.1379 61.0512 14.1947C61.0795 14.2515 61.1077 14.2942 61.136 14.3226C61.1925 14.2942 61.1925 14.2657 61.136 14.2373C61.1077 14.1805 61.1077 14.1379 61.136 14.1094C61.1642 14.1379 61.1783 14.1805 61.1783 14.2373C61.1783 14.2657 61.2066 14.2942 61.2631 14.3226V14.1947C61.3196 14.3084 61.3619 14.3652 61.3902 14.3652C61.4184 14.3368 61.4184 14.3226 61.3902 14.3226C61.3619 14.2942 61.3619 14.2515 61.3902 14.1947C61.4467 14.1947 61.4608 14.1947 61.4325 14.1947C61.4325 14.1663 61.4467 14.1521 61.4749 14.1521C61.5596 14.2942 61.6585 14.4363 61.7715 14.5783C61.9127 14.692 61.9692 14.8199 61.9409 14.962C61.9692 15.0472 62.0257 15.0899 62.1104 15.0899C62.1387 15.232 62.1528 15.374 62.1528 15.5161C62.1528 15.6298 62.181 15.7577 62.2375 15.8998C62.2093 15.9282 62.181 15.985 62.1528 16.0703C62.1528 16.1271 62.1952 16.1555 62.2799 16.1555C62.3364 15.9282 62.3223 15.6866 62.2375 15.4309C62.181 15.1467 62.1245 14.8909 62.0681 14.6636C62.2093 14.8341 62.294 15.0614 62.3223 15.3456C62.3505 15.6298 62.3929 15.8998 62.4494 16.1555V16.0703C62.5341 16.1555 62.7459 16.2266 63.0849 16.2834C63.4238 16.3118 63.6639 16.326 63.8051 16.326C64.2288 16.326 64.5536 16.3118 64.7796 16.2834C65.0338 16.255 65.2456 16.2124 65.4151 16.1555C65.7258 16.0134 65.9941 15.8998 66.22 15.8145C66.4742 15.7293 66.7143 15.6156 66.9403 15.4735L67.1945 15.3882C67.251 15.3882 67.2933 15.374 67.3216 15.3456C67.3781 15.2888 67.4346 15.2462 67.4911 15.2177C67.4628 15.2746 67.4346 15.3172 67.4063 15.3456C67.3781 15.3456 67.3781 15.374 67.4063 15.4309C67.3216 15.4593 67.251 15.5588 67.1945 15.7293L68.296 15.0472C68.3525 15.0472 68.3808 15.0472 68.3808 15.0472C68.409 15.0188 68.4514 15.0188 68.5079 15.0472C68.7338 14.9051 68.9316 14.7346 69.101 14.5357C69.1575 14.5926 69.1575 14.6494 69.101 14.7062C69.0445 14.7346 69.0022 14.7631 68.9739 14.7915C68.8327 14.9051 68.7056 15.033 68.5926 15.1751C68.5079 15.3172 68.3949 15.4451 68.2537 15.5588C68.3949 15.5019 68.4938 15.4451 68.5502 15.3882C68.6067 15.3314 68.6773 15.2888 68.7621 15.2604ZM60.1192 16.6244C60.1192 16.6244 60.105 16.6386 60.0768 16.6671C60.0203 16.8376 59.9779 16.9939 59.9497 17.1359C59.9497 17.278 59.9214 17.4201 59.865 17.5622C59.8932 17.3917 59.9214 17.2354 59.9497 17.0933C59.9779 16.9512 59.9921 16.7665 59.9921 16.5392C59.8791 16.4823 59.7943 16.3971 59.7379 16.2834C59.6814 16.1413 59.5966 16.0419 59.4837 15.985C59.4837 15.9282 59.4554 15.8856 59.3989 15.8571C59.3424 15.8287 59.2859 15.7861 59.2294 15.7293C58.947 16.0134 58.7069 16.326 58.5092 16.6671C58.3397 17.0081 58.0996 17.3065 57.789 17.5622C57.7607 17.619 57.7325 17.6617 57.7042 17.6901C57.676 17.7185 57.6619 17.7753 57.6619 17.8606C57.5771 17.9174 57.5065 17.9885 57.45 18.0737C57.3935 18.159 57.3229 18.2442 57.2382 18.3295C57.1817 18.4147 57.1111 18.5 57.0263 18.5853C56.9416 18.6705 56.871 18.77 56.8145 18.8836C56.7863 18.9405 56.7721 18.9831 56.7721 19.0115C56.7721 19.0115 56.7439 19.0399 56.6874 19.0968C56.4614 19.4094 56.2637 19.722 56.0943 20.0346C55.9248 20.3187 55.7412 20.6171 55.5435 20.9297C55.487 21.0434 55.4164 21.1571 55.3317 21.2707C55.2752 21.3844 55.2187 21.5123 55.1622 21.6544C54.9362 22.0522 54.7244 22.4501 54.5267 22.8479C54.329 23.2458 54.1595 23.672 54.0183 24.1267C53.877 24.3257 53.7641 24.5388 53.6793 24.7661C53.6228 24.9935 53.5522 25.2066 53.4675 25.4055C53.4957 25.4624 53.524 25.5192 53.5522 25.576C53.5805 25.6329 53.5664 25.6897 53.5099 25.7465C53.4816 25.775 53.4534 25.775 53.4251 25.7465C53.3969 25.6897 53.3828 25.6897 53.3828 25.7465C53.2415 26.116 53.1144 26.4996 53.0015 26.8975C52.8885 27.2669 52.8461 27.6932 52.8744 28.1763C53.7499 27.6647 54.4984 27.0253 55.1198 26.2581C55.7412 25.4908 56.3343 24.7093 56.8992 23.9136C56.8992 23.8852 56.9134 23.871 56.9416 23.871C56.9699 23.8425 56.9699 23.7999 56.9416 23.7431C57.1958 23.4873 57.4077 23.2032 57.5771 22.8906C57.7748 22.5495 57.9584 22.2227 58.1279 21.9101C58.1844 21.9101 58.2126 21.9101 58.2126 21.9101C58.2126 21.8817 58.2409 21.8675 58.2974 21.8675C58.3539 21.7538 58.3962 21.626 58.4245 21.4839C58.4527 21.3418 58.4951 21.2139 58.5516 21.1002C58.6645 20.8729 58.7916 20.6313 58.9329 20.3756C59.1023 20.1198 59.2012 19.8498 59.2294 19.5657C59.2294 19.5373 59.2012 19.5515 59.1447 19.6083C59.0882 19.6367 59.0741 19.6083 59.1023 19.523C59.0741 19.4946 59.0741 19.4946 59.1023 19.523C59.1588 19.523 59.1871 19.5088 59.1871 19.4804C59.2153 19.452 59.2294 19.452 59.2294 19.4804C59.2577 19.4804 59.3001 19.4662 59.3565 19.4378C59.4978 18.9831 59.6531 18.5426 59.8226 18.1164C60.0203 17.6617 60.1192 17.1644 60.1192 16.6244ZM60.797 22.72C60.7405 22.9474 60.6417 23.1605 60.5005 23.3594C60.3592 23.5584 60.2321 23.7573 60.1192 23.9562C60.1756 23.7573 60.2745 23.5584 60.4157 23.3594C60.557 23.1605 60.6841 22.9474 60.797 22.72ZM66.6013 17.477C66.4601 17.5054 66.333 17.5338 66.22 17.5622C66.1071 17.5906 66.0223 17.6333 65.9658 17.6901L66.6013 17.477ZM61.2631 21.1002C61.4325 20.9297 61.5173 20.7592 61.5173 20.5887L61.2631 21.1002ZM60.1615 12.7028C60.1615 12.7596 60.1192 12.788 60.0344 12.788C59.9779 12.7596 59.9356 12.7312 59.9073 12.7028C59.9356 12.6743 59.9779 12.6743 60.0344 12.7028C60.0909 12.7028 60.1333 12.7028 60.1615 12.7028ZM62.0257 19.5657C61.9974 19.4804 62.0398 19.3241 62.1528 19.0968L62.0257 19.5657ZM61.136 21.2281C61.2207 21.1997 61.2348 21.1286 61.1783 21.015C61.1783 21.0434 61.1642 21.086 61.136 21.1429C61.136 21.1713 61.136 21.1997 61.136 21.2281ZM61.1783 21.3134C61.2066 21.3134 61.2348 21.2849 61.2631 21.2281C61.2913 21.1429 61.2913 21.1144 61.2631 21.1429C61.2066 21.1997 61.1783 21.2565 61.1783 21.3134ZM68.0842 15.644C68.0277 15.644 67.9853 15.6582 67.9571 15.6866C67.9289 15.7151 67.9289 15.7435 67.9571 15.7719L68.0842 15.644ZM61.6867 14.4078C61.6867 14.351 61.715 14.3226 61.7715 14.3226C61.828 14.3226 61.828 14.351 61.7715 14.4078H61.6867ZM67.364 17.1359C67.4487 17.1359 67.4911 17.1075 67.4911 17.0507C67.4628 17.0507 67.4205 17.0791 67.364 17.1359ZM59.8226 17.6048C59.8508 17.6048 59.865 17.6333 59.865 17.6901C59.865 17.7185 59.8367 17.7327 59.7802 17.7327C59.7802 17.7043 59.7802 17.6901 59.7802 17.6901C59.8085 17.6617 59.8226 17.6333 59.8226 17.6048ZM53.6793 17.4343C53.7358 17.4343 53.7358 17.4628 53.6793 17.5196C53.6511 17.548 53.6228 17.5906 53.5946 17.6475C53.5664 17.619 53.5664 17.5906 53.5946 17.5622C53.6511 17.5338 53.6793 17.4912 53.6793 17.4343ZM53.8488 17.3491C53.8206 17.3491 53.8347 17.3207 53.8912 17.2638C53.8912 17.2922 53.877 17.3065 53.8488 17.3065C53.8488 17.3065 53.8488 17.3207 53.8488 17.3491ZM62.1952 18.9689C62.1952 18.9973 62.181 19.0257 62.1528 19.0541C62.1528 19.0541 62.1528 19.0684 62.1528 19.0968L62.1952 18.9689ZM61.136 22.1659C61.136 22.1659 61.1218 22.1801 61.0936 22.2085L61.136 22.1659Z" transform="translate(213 94.5) scale(1.5)" fill="#34314B"/>
<path d="M72.8595 23.2316C72.6335 23.6294 72.3511 24.0415 72.0121 24.4677C71.6732 24.8656 71.3484 25.2776 71.0377 25.7039C71.0942 25.7039 71.1224 25.6897 71.1224 25.6613C71.1224 25.6329 71.1506 25.6187 71.2071 25.6187C71.1789 25.6755 71.0942 25.7465 70.9529 25.8318C70.727 26.1728 70.4728 26.4996 70.1903 26.8122C69.9079 27.1248 69.6537 27.4374 69.4277 27.75C69.3995 27.7784 69.3853 27.8068 69.3853 27.8353C69.4136 27.8353 69.4136 27.8495 69.3853 27.8779C68.9617 28.2757 68.5521 28.7162 68.1567 29.1993C67.7613 29.6824 67.3093 30.0945 66.8009 30.4355C66.7162 30.4923 66.6315 30.5349 66.5467 30.5634C66.462 30.5918 66.3773 30.6344 66.2925 30.6912C66.2078 30.7197 66.1231 30.7481 66.0383 30.7765C65.9536 30.8049 65.8406 30.8333 65.6994 30.8618C65.6147 30.8902 65.4876 30.9044 65.3181 30.9044C65.1486 30.9044 64.965 30.8902 64.7673 30.8618C64.5978 30.8618 64.4284 30.8475 64.2589 30.8191C64.0894 30.7907 63.9765 30.7481 63.92 30.6912C63.6093 30.6628 63.3974 30.606 63.2845 30.5207C63.1715 30.4355 63.0444 30.3076 62.9031 30.1371C62.9031 30.1371 62.9031 30.0945 62.9031 30.0092C62.7902 29.924 62.6913 29.8245 62.6066 29.7108C62.5218 29.5972 62.5077 29.4267 62.5642 29.1993C62.5642 29.1709 62.5501 29.1567 62.5218 29.1567C62.4654 29.1283 62.423 29.0998 62.3947 29.0714C62.2535 28.9293 62.197 28.7873 62.2253 28.6452C62.2535 28.4747 62.2818 28.2757 62.31 28.0484C62.2535 27.6221 62.2676 27.1674 62.3524 26.6843C62.4371 26.1728 62.5925 25.5902 62.8184 24.9366C62.8749 24.6809 62.9596 24.4109 63.0726 24.1267C63.1574 23.8426 63.2421 23.5726 63.3268 23.3168C63.6093 22.5495 63.8776 21.8533 64.1318 21.2281C64.386 20.5745 64.6402 19.9635 64.8944 19.3952C65.1486 18.7984 65.4169 18.2158 65.6994 17.6475C65.9818 17.0507 66.2925 16.4255 66.6315 15.7719V15.644C66.7162 15.5019 66.7586 15.4451 66.7586 15.4735C66.7586 15.4735 66.7445 15.4877 66.7162 15.5161C66.7162 15.5445 66.7162 15.573 66.7162 15.6014C66.7162 15.6014 66.7586 15.5303 66.8433 15.3882L68.1143 13.0864C68.2273 12.9727 68.312 12.8022 68.3685 12.5749C68.425 12.3191 68.538 12.106 68.7075 11.9355C68.9617 11.4524 69.2865 10.8698 69.6819 10.1878C70.0773 9.50576 70.4728 8.80952 70.8682 8.09908C71.2919 7.36022 71.6873 6.66398 72.0545 6.01037C72.4217 5.32834 72.7182 4.75999 72.9442 4.3053L73.2408 4.17742C73.269 4.149 73.2831 4.10637 73.2831 4.04954C73.3961 4.04954 73.4526 4.00691 73.4526 3.92166C73.4808 3.80799 73.5656 3.76536 73.7068 3.79378C73.848 3.93587 73.9893 4.04954 74.1305 4.13479C74.2717 4.22005 74.3988 4.22005 74.5118 4.13479C74.54 4.13479 74.5824 4.12058 74.6389 4.09217C74.7236 4.03533 74.8084 4.00691 74.8931 4.00691C75.0061 4.00691 75.1049 4.04954 75.1897 4.13479C75.3026 4.22005 75.4015 4.39055 75.4862 4.64631C75.5145 4.70315 75.4862 4.75998 75.4015 4.81682C75.345 4.84524 75.345 4.88786 75.4015 4.9447C75.458 5.00154 75.5004 5.07258 75.5286 5.15784C75.5851 5.24309 75.6133 5.32834 75.6133 5.4136C75.5286 5.47043 75.4721 5.55568 75.4439 5.66935C75.4439 5.75461 75.4015 5.82565 75.3168 5.88249C75.232 6.13825 75.0484 6.56452 74.766 7.16129C74.4835 7.72965 74.187 8.34063 73.8763 8.99424C73.5656 9.64785 73.2549 10.2588 72.9442 10.8272C72.6617 11.3955 72.464 11.8076 72.3511 12.0634C72.2946 12.2055 72.2381 12.3475 72.1816 12.4896C72.1251 12.6033 71.9839 12.8591 71.7579 13.2569C71.2213 14.3936 70.7552 15.3172 70.3598 16.0276C69.9926 16.7381 69.6396 17.4201 69.3006 18.0737C68.9617 18.7273 68.6086 19.4378 68.2414 20.2051C67.9025 20.9439 67.4929 21.9101 67.0128 23.1037C66.9563 23.1889 66.8998 23.26 66.8433 23.3168C66.8151 23.3737 66.8151 23.4447 66.8433 23.53L66.7586 23.7005C66.4761 24.4677 66.1796 25.2066 65.8689 25.9171C65.5864 26.6275 65.3887 27.4374 65.2757 28.3468C65.2757 28.3752 65.2757 28.3752 65.2757 28.3468C65.304 28.3184 65.3181 28.3184 65.3181 28.3468C65.3181 28.3752 65.304 28.3894 65.2757 28.3894C65.2757 28.3894 65.2757 28.4036 65.2757 28.432C65.4169 28.3752 65.6288 28.2899 65.9112 28.1763C66.1937 28.0342 66.3914 27.9063 66.5044 27.7926C66.4479 27.7358 66.3914 27.7216 66.3349 27.75C66.5609 27.6932 66.7303 27.5795 66.8433 27.409C66.9563 27.2385 67.0834 27.1106 67.2246 27.0253L67.0551 27.2811C67.1399 27.1959 67.2105 27.1248 67.267 27.068C67.3517 26.9827 67.4223 26.869 67.4788 26.727C67.8742 26.3859 68.2273 26.0023 68.538 25.576C68.8487 25.1498 69.2018 24.7377 69.5972 24.3399C69.2865 24.7661 68.9475 25.1924 68.5804 25.6187C68.2414 26.0165 67.9166 26.4144 67.6059 26.8122C68.0013 26.4996 68.3544 26.1444 68.6651 25.7465C68.9758 25.3203 69.3006 24.9082 69.6395 24.5104C69.7808 24.3683 69.922 24.212 70.0632 24.0415C70.2327 23.871 70.388 23.7005 70.5293 23.53C70.5575 23.5868 70.5434 23.6294 70.4869 23.6578C70.4304 23.6578 70.4022 23.6863 70.4022 23.7431C70.9106 23.2316 71.4048 22.6774 71.885 22.0806C72.3652 21.4839 72.8877 20.9155 73.4526 20.3756C73.4244 20.5177 73.3537 20.6455 73.2408 20.7592C73.0995 20.9013 72.9583 21.0434 72.8171 21.1855C72.6759 21.3276 72.5346 21.4839 72.3934 21.6544C72.2804 21.7965 72.1675 21.967 72.0545 22.1659C71.9415 22.3364 71.8144 22.4927 71.6732 22.6348C71.532 22.7769 71.4472 22.8621 71.419 22.8906C71.419 22.919 71.3625 23.0042 71.2495 23.1463H71.2919L72.4782 21.9101C72.7606 21.5975 73.0148 21.2992 73.2408 21.015C73.495 20.7308 73.7774 20.4608 74.0881 20.2051C74.1164 20.2903 74.1022 20.3756 74.0457 20.4608C73.9893 20.5177 73.9328 20.5745 73.8763 20.6313C73.5656 21.086 73.2266 21.5265 72.8595 21.9528C72.4923 22.379 72.1251 22.8053 71.7579 23.2316C71.7297 23.26 71.7155 23.2884 71.7155 23.3168V23.3594C71.7438 23.3594 71.7579 23.3594 71.7579 23.3594C71.7579 23.331 71.772 23.3168 71.8003 23.3168C71.7438 23.3737 71.7155 23.4305 71.7155 23.4873C71.7155 23.5157 71.7014 23.5584 71.6732 23.6152C71.6732 23.6436 71.7155 23.6152 71.8003 23.53C71.885 23.4447 71.9697 23.3594 72.0545 23.2742C72.1392 23.1605 72.224 23.0611 72.3087 22.9758C72.3934 22.8906 72.4358 22.8479 72.4358 22.8479C72.69 22.5922 72.8877 22.3932 73.0289 22.2512C73.1701 22.1091 73.2973 21.9954 73.4102 21.9101C73.5515 21.7965 73.6927 21.6828 73.8339 21.5691C73.9751 21.427 74.1728 21.2281 74.427 20.9724C74.3706 21.086 74.2999 21.1855 74.2152 21.2707C74.1305 21.3276 74.0599 21.427 74.0034 21.5691C74.0881 21.5123 74.1728 21.427 74.2576 21.3134C74.3706 21.1713 74.4835 21.0718 74.5965 21.015C74.2293 21.4981 73.8339 21.967 73.4102 22.4217C72.9866 22.8763 72.5911 23.3594 72.2239 23.871C72.3652 23.8141 72.4782 23.7289 72.5629 23.6152C72.6476 23.4731 72.7465 23.3452 72.8595 23.2316ZM67.0551 27.409C67.1116 27.3237 67.1822 27.2527 67.267 27.1959C67.3517 27.139 67.3941 27.0538 67.3941 26.9401C67.3376 27.0253 67.267 27.0964 67.1822 27.1532C67.0975 27.2101 67.0551 27.2953 67.0551 27.409ZM71.5461 25.3629C71.6026 25.2777 71.6732 25.1924 71.7579 25.1071C71.8709 24.9935 71.9697 24.8656 72.0545 24.7235C71.998 24.8656 71.9133 24.9935 71.8003 25.1071C71.7155 25.1924 71.6308 25.2777 71.5461 25.3629ZM75.2744 6.26613C75.3026 6.20929 75.3168 6.18088 75.3168 6.18088C75.345 6.15246 75.3591 6.12404 75.3591 6.09562C75.3309 6.06721 75.3168 6.06721 75.3168 6.09562C75.3168 6.12404 75.3026 6.13825 75.2744 6.13825C75.3026 6.053 75.345 6.01037 75.4015 6.01037C75.4015 6.15246 75.3591 6.23771 75.2744 6.26613ZM71.2919 22.72C71.2354 22.7769 71.193 22.8195 71.1648 22.8479C71.1365 22.8763 71.0942 22.9048 71.0377 22.9332C71.0942 22.7911 71.1789 22.72 71.2919 22.72ZM70.3174 26.4286C70.4022 26.4286 70.4445 26.3859 70.4445 26.3007C70.3598 26.3007 70.3174 26.3433 70.3174 26.4286ZM70.8258 23.1463C70.8541 23.2031 70.84 23.26 70.7835 23.3168C70.727 23.3452 70.6846 23.3879 70.6564 23.4447C70.6564 23.3879 70.6705 23.3452 70.6987 23.3168C70.7552 23.26 70.7976 23.2031 70.8258 23.1463ZM72.3087 24.4251C72.3087 24.4251 72.3228 24.4109 72.3511 24.3825C72.3511 24.4109 72.3369 24.4251 72.3087 24.4251Z" transform="translate(213 94.5) scale(1.5)" fill="#34314B"/>
<path d="M89.4492 15.2604C89.5057 15.2604 89.5057 15.2746 89.4492 15.303C89.421 15.303 89.421 15.3172 89.4492 15.3456C89.5057 15.3172 89.5905 15.2746 89.7034 15.2177C89.8164 15.1325 89.9153 15.0899 90 15.0899C89.9435 15.232 89.8588 15.3598 89.7458 15.4735C89.6611 15.5588 89.5763 15.6582 89.4916 15.7719L89.8305 15.5161C89.7458 15.6866 89.6046 15.8429 89.4069 15.985C89.2374 16.1271 89.0538 16.255 88.8561 16.3687C88.8561 16.4255 88.8561 16.4539 88.8561 16.4539C88.8843 16.4255 88.8984 16.4397 88.8984 16.4965C88.7855 16.5534 88.6725 16.6244 88.5595 16.7097C88.4465 16.7949 88.3336 16.9086 88.2206 17.0507C88.3053 17.0223 88.3759 17.0081 88.4324 17.0081C88.2912 17.0649 88.1641 17.1359 88.0511 17.2212C87.9381 17.278 87.8393 17.3349 87.7545 17.3917C87.7545 17.3917 87.7545 17.3633 87.7545 17.3065C87.7263 17.3065 87.698 17.3207 87.6698 17.3491C87.6416 17.3775 87.6416 17.3917 87.6698 17.3917H87.7122C87.7122 17.4485 87.6698 17.477 87.5851 17.477C87.5851 17.4485 87.5709 17.4343 87.5427 17.4343V17.477C87.5427 17.477 87.5145 17.477 87.458 17.477V17.5622C87.232 17.619 87.006 17.7185 86.7801 17.8606C86.5541 17.9743 86.2999 18.0453 86.0175 18.0737C85.9327 18.1021 85.8763 18.1164 85.848 18.1164C85.848 18.1164 85.8339 18.1306 85.8056 18.159C85.8056 18.159 85.7491 18.159 85.6362 18.159C85.4385 18.1874 85.2266 18.2016 85.0007 18.2016C84.7747 18.2016 84.6052 18.2158 84.4923 18.2442C84.2663 18.2442 84.0262 18.2442 83.772 18.2442C83.5178 18.2442 83.2495 18.2016 82.967 18.1164C83.0235 18.23 83.0235 18.3153 82.967 18.3721C82.9388 18.4005 82.9247 18.4716 82.9247 18.5853C82.8682 18.5568 82.8541 18.5284 82.8823 18.5C82.9105 18.4716 82.9105 18.4432 82.8823 18.4147L82.6705 19.0541C82.614 19.1962 82.5716 19.3099 82.5434 19.3952C82.5151 19.4804 82.4727 19.5941 82.4163 19.7362C82.388 19.7646 82.3598 19.793 82.3315 19.8214C82.3033 19.8214 82.2892 19.8498 82.2892 19.9067L82.3315 19.9493C82.3033 20.1482 82.2327 20.3329 82.1197 20.5035C82.035 20.6455 81.9643 20.8018 81.9078 20.9724C81.9926 20.9439 82.035 20.8871 82.035 20.8018C82.0632 20.6882 82.1056 20.6029 82.1621 20.5461C82.2185 20.4324 82.2609 20.3472 82.2892 20.2903C82.3456 20.2051 82.3739 20.1198 82.3739 20.0346C82.4304 20.0914 82.4163 20.1624 82.3315 20.2477C82.275 20.333 82.275 20.404 82.3315 20.4608C82.275 20.6313 82.2044 20.8018 82.1197 20.9724C82.0632 21.1144 82.0208 21.2849 81.9926 21.4839C81.9361 21.4555 81.9078 21.4981 81.9078 21.6118C81.9361 21.697 81.922 21.7254 81.8655 21.697C81.8937 21.8107 81.8655 21.9101 81.7807 21.9954C81.7243 22.0522 81.6819 22.1517 81.6536 22.2938C81.6536 22.2369 81.696 22.2085 81.7807 22.2085C81.7807 22.2938 81.7666 22.3364 81.7384 22.3364C81.7384 22.3932 81.7384 22.4217 81.7384 22.4217C81.7666 22.3932 81.7807 22.4075 81.7807 22.4643C81.7525 22.4927 81.6819 22.5069 81.5689 22.5069C81.5689 22.5069 81.5548 22.4785 81.5265 22.4217C81.2158 22.9048 80.9193 23.4163 80.6368 23.9562C80.3826 24.4677 80.0861 24.9508 79.7471 25.4055C79.7754 25.4339 79.7895 25.4339 79.7895 25.4055C79.8177 25.3487 79.8601 25.3203 79.9166 25.3203C79.6624 25.6613 79.3941 26.0023 79.1116 26.3433C78.8292 26.6843 78.5467 27.0111 78.2643 27.3237C78.123 27.5227 77.9818 27.7074 77.8406 27.8779C77.7276 28.0484 77.6005 28.2047 77.4593 28.3468C77.4028 28.4036 77.3463 28.4462 77.2898 28.4747C77.2333 28.5031 77.1768 28.5457 77.1204 28.6025C76.8097 28.9151 76.4566 29.2419 76.0612 29.5829C75.694 29.8955 75.2562 30.1371 74.7478 30.3076C74.7195 30.3076 74.7054 30.3644 74.7054 30.4781C74.3947 30.5634 74.0134 30.606 73.5615 30.606C73.1096 30.6344 72.7565 30.5634 72.5023 30.3929C71.8527 30.3076 71.316 30.0945 70.8924 29.7535C70.4687 29.4124 70.2286 28.9151 70.1721 28.2615C70.0874 27.7784 70.0874 27.3237 70.1721 26.8975C70.2286 26.4712 70.3133 26.0449 70.4263 25.6187C70.7653 24.2546 71.2031 23.0469 71.7397 21.9954C71.9657 21.626 72.1634 21.2565 72.3328 20.8871C72.5023 20.4892 72.7283 20.134 73.0107 19.8214C73.039 19.6793 73.0813 19.5799 73.1378 19.523C73.2226 19.4378 73.2791 19.3241 73.3073 19.182C73.4485 19.0399 73.5333 18.8978 73.5615 18.7558C73.731 18.6421 73.8157 18.5142 73.8157 18.3721C73.8722 18.429 73.9004 18.3863 73.9004 18.2442C73.9287 18.2442 73.9569 18.23 73.9852 18.2016C74.1264 17.9174 74.2959 17.6901 74.4936 17.5196C74.6913 17.3207 74.8608 17.0791 75.002 16.7949C75.115 16.7381 75.1715 16.6671 75.1715 16.5818C75.5669 16.0987 75.9764 15.6156 76.4001 15.1325C76.8238 14.621 77.2757 14.1379 77.7559 13.6832C77.7559 13.6548 77.77 13.6263 77.7982 13.5979V13.6406C77.8265 13.6121 77.8547 13.5979 77.883 13.5979C77.9112 13.5979 77.9536 13.5837 78.0101 13.5553C78.1513 13.47 78.2643 13.3564 78.349 13.2143C78.462 13.0438 78.5891 12.9585 78.7303 12.9585C78.9563 12.9017 79.154 12.8591 79.3234 12.8306C79.5212 12.7738 79.7189 12.6886 79.9166 12.5749L80.3403 12.9159C80.6227 12.8591 80.8345 12.8875 80.9758 13.0012V13.129C81.0887 13.2711 81.23 13.399 81.3994 13.5127C81.5972 13.5979 81.6254 13.7542 81.4842 13.9816C81.5972 14.0384 81.6678 14.0526 81.696 14.0242C81.7243 14.081 81.7384 14.1379 81.7384 14.1947C81.7666 14.2515 81.7949 14.2942 81.8231 14.3226C81.8796 14.2942 81.8796 14.2657 81.8231 14.2373C81.7949 14.1805 81.7949 14.1379 81.8231 14.1094C81.8514 14.1379 81.8655 14.1805 81.8655 14.2373C81.8655 14.2657 81.8937 14.2942 81.9502 14.3226V14.1947C82.0067 14.3084 82.0491 14.3652 82.0773 14.3652C82.1056 14.3368 82.1056 14.3226 82.0773 14.3226C82.0491 14.2942 82.0491 14.2515 82.0773 14.1947C82.1338 14.1947 82.1479 14.1947 82.1197 14.1947C82.1197 14.1663 82.1338 14.1521 82.1621 14.1521C82.2468 14.2942 82.3456 14.4363 82.4586 14.5783C82.5998 14.692 82.6563 14.8199 82.6281 14.962C82.6563 15.0472 82.7128 15.0899 82.7976 15.0899C82.8258 15.232 82.8399 15.374 82.8399 15.5161C82.8399 15.6298 82.8682 15.7577 82.9247 15.8998C82.8964 15.9282 82.8682 15.985 82.8399 16.0703C82.8399 16.1271 82.8823 16.1555 82.967 16.1555C83.0235 15.9282 83.0094 15.6866 82.9247 15.4309C82.8682 15.1467 82.8117 14.8909 82.7552 14.6636C82.8964 14.8341 82.9812 15.0614 83.0094 15.3456C83.0376 15.6298 83.08 15.8998 83.1365 16.1555V16.0703C83.2212 16.1555 83.4331 16.2266 83.772 16.2834C84.1109 16.3118 84.351 16.326 84.4923 16.326C84.9159 16.326 85.2407 16.3118 85.4667 16.2834C85.7209 16.255 85.9327 16.2124 86.1022 16.1555C86.4129 16.0134 86.6812 15.8998 86.9072 15.8145C87.1614 15.7293 87.4015 15.6156 87.6274 15.4735L87.8816 15.3882C87.9381 15.3882 87.9805 15.374 88.0087 15.3456C88.0652 15.2888 88.1217 15.2462 88.1782 15.2177C88.15 15.2746 88.1217 15.3172 88.0935 15.3456C88.0652 15.3456 88.0652 15.374 88.0935 15.4309C88.0087 15.4593 87.9381 15.5588 87.8816 15.7293L88.9832 15.0472C89.0397 15.0472 89.0679 15.0472 89.0679 15.0472C89.0962 15.0188 89.1385 15.0188 89.195 15.0472C89.421 14.9051 89.6187 14.7346 89.7882 14.5357C89.8447 14.5926 89.8447 14.6494 89.7882 14.7062C89.7317 14.7346 89.6893 14.7631 89.6611 14.7915C89.5198 14.9051 89.3927 15.033 89.2798 15.1751C89.195 15.3172 89.082 15.4451 88.9408 15.5588C89.082 15.5019 89.1809 15.4451 89.2374 15.3882C89.2939 15.3314 89.3645 15.2888 89.4492 15.2604ZM80.8063 16.6244C80.8063 16.6244 80.7922 16.6386 80.7639 16.6671C80.7074 16.8376 80.6651 16.9939 80.6368 17.1359C80.6368 17.278 80.6086 17.4201 80.5521 17.5622C80.5803 17.3917 80.6086 17.2354 80.6368 17.0933C80.6651 16.9512 80.6792 16.7665 80.6792 16.5392C80.5662 16.4823 80.4815 16.3971 80.425 16.2834C80.3685 16.1413 80.2838 16.0419 80.1708 15.985C80.1708 15.9282 80.1425 15.8856 80.0861 15.8571C80.0296 15.8287 79.9731 15.7861 79.9166 15.7293C79.6341 16.0134 79.3941 16.326 79.1963 16.6671C79.0269 17.0081 78.7868 17.3065 78.4761 17.5622C78.4479 17.619 78.4196 17.6617 78.3914 17.6901C78.3631 17.7185 78.349 17.7753 78.349 17.8606C78.2643 17.9174 78.1937 17.9885 78.1372 18.0737C78.0807 18.159 78.0101 18.2442 77.9253 18.3295C77.8688 18.4147 77.7982 18.5 77.7135 18.5853C77.6288 18.6705 77.5581 18.77 77.5017 18.8836C77.4734 18.9405 77.4593 18.9831 77.4593 19.0115C77.4593 19.0115 77.431 19.0399 77.3745 19.0968C77.1486 19.4094 76.9509 19.722 76.7814 20.0346C76.6119 20.3187 76.4284 20.6171 76.2306 20.9297C76.1741 21.0434 76.1035 21.1571 76.0188 21.2707C75.9623 21.3844 75.9058 21.5123 75.8493 21.6544C75.6234 22.0522 75.4115 22.4501 75.2138 22.8479C75.0161 23.2458 74.8466 23.672 74.7054 24.1267C74.5642 24.3257 74.4512 24.5388 74.3665 24.7661C74.31 24.9935 74.2394 25.2066 74.1546 25.4055C74.1829 25.4624 74.2111 25.5192 74.2394 25.576C74.2676 25.6329 74.2535 25.6897 74.197 25.7465C74.1688 25.775 74.1405 25.775 74.1123 25.7465C74.084 25.6897 74.0699 25.6897 74.0699 25.7465C73.9287 26.116 73.8016 26.4996 73.6886 26.8975C73.5756 27.2669 73.5333 27.6932 73.5615 28.1763C74.4371 27.6647 75.1856 27.0253 75.807 26.2581C76.4284 25.4908 77.0215 24.7093 77.5864 23.9136C77.5864 23.8852 77.6005 23.871 77.6288 23.871C77.657 23.8425 77.657 23.7999 77.6288 23.7431C77.883 23.4873 78.0948 23.2032 78.2643 22.8906C78.462 22.5495 78.6456 22.2227 78.815 21.9101C78.8715 21.9101 78.8998 21.9101 78.8998 21.9101C78.8998 21.8817 78.928 21.8675 78.9845 21.8675C79.041 21.7538 79.0834 21.626 79.1116 21.4839C79.1399 21.3418 79.1822 21.2139 79.2387 21.1002C79.3517 20.8729 79.4788 20.6313 79.62 20.3756C79.7895 20.1198 79.8883 19.8498 79.9166 19.5657C79.9166 19.5373 79.8883 19.5515 79.8318 19.6083C79.7754 19.6367 79.7612 19.6083 79.7895 19.523C79.7612 19.4946 79.7612 19.4946 79.7895 19.523C79.846 19.523 79.8742 19.5088 79.8742 19.4804C79.9025 19.452 79.9166 19.452 79.9166 19.4804C79.9448 19.4804 79.9872 19.4662 80.0437 19.4378C80.1849 18.9831 80.3403 18.5426 80.5097 18.1164C80.7074 17.6617 80.8063 17.1644 80.8063 16.6244ZM81.4842 22.72C81.4277 22.9474 81.3288 23.1605 81.1876 23.3594C81.0464 23.5584 80.9193 23.7573 80.8063 23.9562C80.8628 23.7573 80.9617 23.5584 81.1029 23.3594C81.2441 23.1605 81.3712 22.9474 81.4842 22.72ZM87.2885 17.477C87.1473 17.5054 87.0202 17.5338 86.9072 17.5622C86.7942 17.5906 86.7095 17.6333 86.653 17.6901L87.2885 17.477ZM81.9502 21.1002C82.1197 20.9297 82.2044 20.7592 82.2044 20.5887L81.9502 21.1002ZM80.8487 12.7028C80.8487 12.7596 80.8063 12.788 80.7216 12.788C80.6651 12.7596 80.6227 12.7312 80.5945 12.7028C80.6227 12.6743 80.6651 12.6743 80.7216 12.7028C80.7781 12.7028 80.8204 12.7028 80.8487 12.7028ZM82.7128 19.5657C82.6846 19.4804 82.7269 19.3241 82.8399 19.0968L82.7128 19.5657ZM81.8231 21.2281C81.9078 21.1997 81.922 21.1286 81.8655 21.015C81.8655 21.0434 81.8514 21.086 81.8231 21.1429C81.8231 21.1713 81.8231 21.1997 81.8231 21.2281ZM81.8655 21.3134C81.8937 21.3134 81.922 21.2849 81.9502 21.2281C81.9785 21.1429 81.9785 21.1144 81.9502 21.1429C81.8937 21.1997 81.8655 21.2565 81.8655 21.3134ZM88.7713 15.644C88.7149 15.644 88.6725 15.6582 88.6442 15.6866C88.616 15.7151 88.616 15.7435 88.6442 15.7719L88.7713 15.644ZM82.3739 14.4078C82.3739 14.351 82.4021 14.3226 82.4586 14.3226C82.5151 14.3226 82.5151 14.351 82.4586 14.4078H82.3739ZM88.0511 17.1359C88.1358 17.1359 88.1782 17.1075 88.1782 17.0507C88.15 17.0507 88.1076 17.0791 88.0511 17.1359ZM80.5097 17.6048C80.538 17.6048 80.5521 17.6333 80.5521 17.6901C80.5521 17.7185 80.5239 17.7327 80.4674 17.7327C80.4674 17.7043 80.4674 17.6901 80.4674 17.6901C80.4956 17.6617 80.5097 17.6333 80.5097 17.6048ZM74.3665 17.4343C74.423 17.4343 74.423 17.4628 74.3665 17.5196C74.3382 17.548 74.31 17.5906 74.2817 17.6475C74.2535 17.619 74.2535 17.5906 74.2817 17.5622C74.3382 17.5338 74.3665 17.4912 74.3665 17.4343ZM74.5359 17.3491C74.5077 17.3491 74.5218 17.3207 74.5783 17.2638C74.5783 17.2922 74.5642 17.3065 74.5359 17.3065C74.5359 17.3065 74.5359 17.3207 74.5359 17.3491ZM82.8823 18.9689C82.8823 18.9973 82.8682 19.0257 82.8399 19.0541C82.8399 19.0541 82.8399 19.0684 82.8399 19.0968L82.8823 18.9689ZM81.8231 22.1659C81.8231 22.1659 81.809 22.1801 81.7807 22.2085L81.8231 22.1659Z" transform="translate(213 94.5) scale(1.5)" fill="#34314B"/>
<defs>
<filter id="filter0_d" x="0" y="0" width="465" height="240" filterUnits="userSpaceOnUse" color-interpolation-filters="sRGB">
<feFlood flood-opacity="0" result="BackgroundImageFix"/>
<feColorMatrix in="SourceAlpha" type="matrix" values="0 0 0 0 0 0 0 0 0 0 0 0 0 0 0 0 0 0 255 0"/>
<feOffset/>
<feGaussianBlur stdDeviation="10"/>
<feColorMatrix type="matrix" values="0 0 0 0 0.203922 0 0 0 0 0.192157 0 0 0 0 0.294118 0 0 0 0.1 0"/>
<feBlend mode="normal" in2="BackgroundImageFix" result="effect1_dropShadow"/>
<feBlend mode="normal" in="SourceGraphic" in2="effect1_dropShadow" result="shape"/>
</filter>
</defs>
</svg>
