<svg width="60" height="50" viewBox="0 0 60 50" fill="none" xmlns="http://www.w3.org/2000/svg">
<path d="M57.5093 0V3.59668C52.4302 5.45618 48.4499 8.39225 45.5685 12.4049C42.687 16.3686 41.2463 20.5035 41.2463 24.8097C41.2463 25.7395 41.3929 26.4246 41.6859 26.865C41.8812 27.1586 42.101 27.3054 42.3452 27.3054C42.5894 27.3054 42.9557 27.1341 43.444 26.7916C45.0068 25.6661 46.9848 25.1033 49.3778 25.1033C52.1616 25.1033 54.6279 26.2533 56.7767 28.5532C58.9256 30.8042 60 33.4956 60 36.6274C60 39.906 58.7546 42.7931 56.2639 45.2888C53.822 47.7844 50.8429 49.0323 47.3266 49.0323C43.2243 49.0323 39.6835 47.344 36.7044 43.9675C33.7253 40.5911 32.2358 36.0646 32.2358 30.3883C32.2358 23.7821 34.2626 17.8611 38.3161 12.6251C42.3696 7.38909 48.7673 3.18074 57.5093 0ZM25.2735 0V3.59668C20.1944 5.45618 16.2141 8.39225 13.3327 12.4049C10.4513 16.3686 9.01055 20.5035 9.01055 24.8097C9.01055 25.7395 9.15706 26.4246 9.45009 26.865C9.64544 27.1586 9.86521 27.3054 10.1094 27.3054C10.3536 27.3054 10.7199 27.1341 11.2082 26.7916C12.771 25.6661 14.749 25.1033 17.142 25.1033C19.9258 25.1033 22.3921 26.2533 24.5409 28.5532C26.6898 30.8042 27.7642 33.4956 27.7642 36.6274C27.7642 39.906 26.5189 42.7931 24.0281 45.2888C21.5862 47.7844 18.6071 49.0323 15.0908 49.0323C10.9885 49.0323 7.44774 47.344 4.46865 43.9675C1.48955 40.5911 0 36.0646 0 30.3883C0 23.7821 2.02676 17.8611 6.08029 12.6251C10.1338 7.38909 16.5315 3.18074 25.2735 0Z" fill="#1CEBBC"/>
</svg>
