<svg width="32" height="37" viewBox="0 0 32 37" fill="none" xmlns="http://www.w3.org/2000/svg">
<path d="M7.875 36.25H22.5C24.0703 36.25 25.3945 35.6992 26.4727 34.5977C27.5742 33.5195 28.125 32.1953 28.125 30.625V21.625H30.375C31.3359 21.625 32.1328 21.3086 32.7656 20.6758C33.4219 20.0195 33.75 19.2109 33.75 18.25V11.5C33.75 11.1719 33.6445 10.9023 33.4336 10.6914C33.2227 10.4805 32.9531 10.375 32.625 10.375H3.375C3.04688 10.375 2.77734 10.4805 2.56641 10.6914C2.35547 10.9023 2.25 11.1719 2.25 11.5V30.625C2.25 32.1953 2.78906 33.5195 3.86719 34.5977C4.96875 35.6992 6.30469 36.25 7.875 36.25ZM31.5 18.25C31.5 18.5781 31.3945 18.8477 31.1836 19.0586C30.9727 19.2695 30.7031 19.375 30.375 19.375H28.125V12.625H31.5V18.25ZM4.5 12.625H25.875V30.625C25.875 31.5859 25.5469 32.3945 24.8906 33.0508C24.2578 33.6836 23.4609 34 22.5 34H7.875C6.91406 34 6.10547 33.6836 5.44922 33.0508C4.81641 32.3945 4.5 31.5859 4.5 30.625V12.625ZM14.625 7C14.9531 7 15.2227 6.89453 15.4336 6.68359C15.6445 6.47266 15.75 6.20313 15.75 5.875V1.375C15.75 1.04687 15.6445 0.777344 15.4336 0.566406C15.2227 0.355469 14.9531 0.25 14.625 0.25C14.2969 0.25 14.0273 0.355469 13.8164 0.566406C13.6055 0.777344 13.5 1.04687 13.5 1.375V5.875C13.5 6.20313 13.6055 6.47266 13.8164 6.68359C14.0273 6.89453 14.2969 7 14.625 7ZM9 8.125C9.32812 8.125 9.59766 8.01953 9.80859 7.80859C10.0195 7.59766 10.125 7.32813 10.125 7V2.5C10.125 2.17187 10.0195 1.90234 9.80859 1.69141C9.59766 1.48047 9.32812 1.375 9 1.375C8.67188 1.375 8.40234 1.48047 8.19141 1.69141C7.98047 1.90234 7.875 2.17187 7.875 2.5V7C7.875 7.32813 7.98047 7.59766 8.19141 7.80859C8.40234 8.01953 8.67188 8.125 9 8.125ZM20.25 8.125C20.5781 8.125 20.8477 8.01953 21.0586 7.80859C21.2695 7.59766 21.375 7.32813 21.375 7V2.5C21.375 2.17187 21.2695 1.90234 21.0586 1.69141C20.8477 1.48047 20.5781 1.375 20.25 1.375C19.9219 1.375 19.6523 1.48047 19.4414 1.69141C19.2305 1.90234 19.125 2.17187 19.125 2.5V7C19.125 7.32813 19.2305 7.59766 19.4414 7.80859C19.6523 8.01953 19.9219 8.125 20.25 8.125Z" transform="translate(-2)" fill="#8667F7"/>
</svg>
