<svg width="182" height="50" viewBox="0 0 182 50" fill="none" xmlns="http://www.w3.org/2000/svg">
<rect width="1920" height="5011" fill="white" transform="translate(-1019 -3634)"/>
<path fill-rule="evenodd" clip-rule="evenodd" d="M18.7858 36.0075C16.3949 35.3216 14.0039 33.9499 12.2961 32.2353C9.90518 29.8348 8.19744 26.0626 8.19744 22.2904C8.19744 18.5181 9.90518 14.746 12.2961 12.3455C14.687 9.94496 18.4442 8.23028 22.2014 8.23028C26.9832 8.23028 31.765 10.2879 34.839 13.7172C37.9131 17.1464 39.9624 21.6044 39.9624 26.4054C39.9624 31.2064 37.9131 36.0075 34.839 39.0938C31.765 42.5231 26.9832 44.2378 22.2014 44.5807C16.0533 44.5807 10.5884 42.1802 6.48965 38.0651C2.39094 33.9499 4.16943e-05 28.4631 4.16943e-05 22.2904C4.16943e-05 16.1176 2.39094 10.6308 6.48965 6.51564C10.5884 2.4005 16.0533 2.09307e-05 22.2014 2.09307e-05C29.7157 2.09307e-05 36.2053 3.08633 40.9872 7.88733C50.5508 17.4893 48.843 29.4918 48.843 41.8372C48.843 45.6094 43.378 45.6094 43.378 41.8372C43.378 31.5494 45.0859 19.8899 37.23 12.0025C33.4728 8.2303 28.0079 5.82974 22.2014 5.82974C17.4196 5.82974 13.3209 7.54446 10.2468 10.6308C7.17279 13.7172 5.46491 17.8323 5.46491 22.2904C5.46491 26.7484 7.51435 30.8635 10.2468 33.9499C13.3209 37.0363 17.4195 38.7509 21.8598 38.7509C25.2754 38.7509 28.3495 37.3791 30.7404 34.9786C33.1313 32.5781 34.4975 29.4919 34.4975 26.0626C34.4975 22.6333 33.1313 19.5469 30.7404 17.1464C28.3495 14.7459 25.2754 13.3742 21.8598 13.3742C19.4689 13.3742 17.4195 14.403 16.0533 15.7747C14.687 17.1465 13.6624 19.5469 13.6624 21.9474C13.6624 24.3479 14.687 26.4054 16.0533 28.1201C17.0779 29.1489 18.4442 29.8348 20.152 30.5206C23.5676 31.5494 22.2014 36.6933 18.7858 36.0075Z" transform="translate(1 3)" fill="#1CEBBC"/>
<path d="M22.0813 1.27567V22.5369H19.9248V5.52791L11.5722 19.8337H10.5091L2.15649 5.61903V22.5369H0V1.27567H1.85276L11.0862 17.0393L20.2285 1.27567H22.0813Z" transform="translate(59.9595 14.6133)" fill="#34314B"/>
<path d="M34.1418 6.43911C36.2274 6.43911 37.8271 6.96558 38.9408 8.01851C40.0544 9.0512 40.6113 10.5901 40.6113 12.6352V22.5369H38.5459V20.0463C38.0599 20.8765 37.3411 21.5244 36.3894 21.9902C35.458 22.4559 34.3443 22.6887 33.0484 22.6887C31.2665 22.6887 29.8491 22.2635 28.7961 21.4131C27.7432 20.5626 27.2167 19.4388 27.2167 18.0417C27.2167 16.685 27.7027 15.5916 28.6746 14.7614C29.6668 13.9312 31.2361 13.5161 33.3825 13.5161H38.4548V12.5441C38.4548 11.1672 38.0701 10.1244 37.3006 9.41568C36.5312 8.68672 35.4073 8.32224 33.9292 8.32224C32.9167 8.32224 31.9448 8.49436 31.0134 8.83859C30.0819 9.16257 29.2821 9.61817 28.6139 10.2054L27.6419 8.5956C28.4519 7.90715 29.4238 7.38068 30.5578 7.0162C31.6917 6.63147 32.8864 6.43911 34.1418 6.43911ZM33.3825 20.9879C34.5974 20.9879 35.6402 20.7145 36.5109 20.1678C37.3816 19.6008 38.0296 18.7909 38.4548 17.7379V15.1258H33.4432C30.7096 15.1258 29.3428 16.0775 29.3428 17.9809C29.3428 18.9124 29.6972 19.6514 30.4059 20.1981C31.1146 20.7246 32.1068 20.9879 33.3825 20.9879Z" transform="translate(59.9595 14.6133)" fill="#34314B"/>
<path d="M46.4686 6.5606H48.625V22.5369H46.4686V6.5606ZM47.562 3.06769C47.1165 3.06769 46.7419 2.91582 46.4382 2.61209C46.1345 2.30836 45.9826 1.94388 45.9826 1.51866C45.9826 1.11368 46.1345 0.759328 46.4382 0.455597C46.7419 0.151866 47.1165 0 47.562 0C48.0075 0 48.3821 0.151866 48.6858 0.455597C48.9895 0.73908 49.1414 1.08331 49.1414 1.48828C49.1414 1.93376 48.9895 2.30836 48.6858 2.61209C48.3821 2.91582 48.0075 3.06769 47.562 3.06769Z" transform="translate(59.9595 14.6133)" fill="#34314B"/>
<path d="M56.6908 9.68904C57.197 8.61585 57.9462 7.8059 58.9384 7.25918C59.9508 6.71247 61.1961 6.43911 62.6743 6.43911V8.53486L62.1579 8.50448C60.4773 8.50448 59.1611 9.02083 58.2094 10.0535C57.2577 11.0862 56.7819 12.534 56.7819 14.3969V22.5369H54.6254V6.5606H56.6908V9.68904Z" transform="translate(59.9595 14.6133)" fill="#34314B"/>
<path d="M72.9608 22.6887C71.4219 22.6887 70.0349 22.3445 68.7997 21.6561C67.5645 20.9474 66.5926 19.9754 65.8839 18.7402C65.1752 17.5051 64.8208 16.1079 64.8208 14.5487C64.8208 12.9896 65.1752 11.5924 65.8839 10.3572C66.5926 9.12207 67.5645 8.16025 68.7997 7.4718C70.0349 6.78334 71.4219 6.43911 72.9608 6.43911C74.4997 6.43911 75.8868 6.78334 77.1219 7.4718C78.3571 8.16025 79.3189 9.12207 80.0074 10.3572C80.7161 11.5924 81.0705 12.9896 81.0705 14.5487C81.0705 16.1079 80.7161 17.5051 80.0074 18.7402C79.3189 19.9754 78.3571 20.9474 77.1219 21.6561C75.8868 22.3445 74.4997 22.6887 72.9608 22.6887ZM72.9608 20.7752C74.0948 20.7752 75.1072 20.5221 75.9981 20.0159C76.9093 19.4894 77.618 18.7504 78.1243 17.7987C78.6305 16.847 78.8836 15.7637 78.8836 14.5487C78.8836 13.3338 78.6305 12.2505 78.1243 11.2988C77.618 10.3471 76.9093 9.61817 75.9981 9.11195C75.1072 8.58548 74.0948 8.32224 72.9608 8.32224C71.8269 8.32224 70.8043 8.58548 69.8931 9.11195C69.0022 9.61817 68.2935 10.3471 67.767 11.2988C67.2608 12.2505 67.0077 13.3338 67.0077 14.5487C67.0077 15.7637 67.2608 16.847 67.767 17.7987C68.2935 18.7504 69.0022 19.4894 69.8931 20.0159C70.8043 20.5221 71.8269 20.7752 72.9608 20.7752Z" transform="translate(59.9595 14.6133)" fill="#34314B"/>
<path d="M93.6132 6.43911C95.6178 6.43911 97.2073 7.02632 98.3817 8.20075C99.5764 9.35493 100.174 11.0457 100.174 13.2731V22.5369H98.0173V13.4857C98.0173 11.8253 97.6022 10.5597 96.772 9.68904C95.9418 8.81834 94.7572 8.38299 93.2183 8.38299C91.4972 8.38299 90.1304 8.89933 89.1179 9.93202C88.1257 10.9445 87.6296 12.3518 87.6296 14.1539V22.5369H85.4731V6.5606H87.5385V9.5068C88.1257 8.53486 88.9357 7.78565 89.9684 7.25918C91.0213 6.71247 92.2362 6.43911 93.6132 6.43911Z" transform="translate(59.9595 14.6133)" fill="#34314B"/>
<path d="M114.442 21.5649C114.037 21.9294 113.531 22.2129 112.923 22.4154C112.336 22.5976 111.718 22.6887 111.07 22.6887C109.572 22.6887 108.418 22.2838 107.608 21.4738C106.798 20.6639 106.393 19.5198 106.393 18.0417V8.38299H103.538V6.5606H106.393V3.06769H108.549V6.5606H113.409V8.38299H108.549V17.9202C108.549 18.8719 108.782 19.6008 109.248 20.107C109.734 20.593 110.422 20.836 111.313 20.836C111.759 20.836 112.184 20.7651 112.589 20.6234C113.014 20.4816 113.379 20.2791 113.682 20.0159L114.442 21.5649Z" transform="translate(59.9595 14.6133)" fill="#34314B"/>
<path d="M118.368 6.5606H120.524V22.5369H118.368V6.5606ZM119.461 3.06769C119.015 3.06769 118.641 2.91582 118.337 2.61209C118.033 2.30836 117.882 1.94388 117.882 1.51866C117.882 1.11368 118.033 0.759328 118.337 0.455597C118.641 0.151866 119.015 0 119.461 0C119.906 0 120.281 0.151866 120.585 0.455597C120.888 0.73908 121.04 1.08331 121.04 1.48828C121.04 1.93376 120.888 2.30836 120.585 2.61209C120.281 2.91582 119.906 3.06769 119.461 3.06769Z" transform="translate(59.9595 14.6133)" fill="#34314B"/>
</svg>
