<svg width="34" height="35" viewBox="0 0 34 35" fill="none" xmlns="http://www.w3.org/2000/svg">
<path d="M2.25 17.125C1.92188 17.125 1.65234 17.2305 1.44141 17.4414C1.23047 17.6523 1.125 17.9219 1.125 18.25C1.125 18.5781 1.23047 18.8477 1.44141 19.0586C1.65234 19.2695 1.92188 19.375 2.25 19.375H4.5C4.82812 19.375 5.09766 19.2695 5.30859 19.0586C5.51953 18.8477 5.625 18.5781 5.625 18.25C5.625 17.9219 5.51953 17.6523 5.30859 17.4414C5.09766 17.2305 4.82812 17.125 4.5 17.125H2.25ZM9.21094 7.91406L7.66406 6.33203C7.42969 6.09766 7.16016 5.98047 6.85547 5.98047C6.55078 5.98047 6.29297 6.09766 6.08203 6.33203C5.84766 6.54297 5.73047 6.80078 5.73047 7.10547C5.73047 7.41016 5.84766 7.67969 6.08203 7.91406L7.66406 9.46094C7.75781 9.57813 7.875 9.67188 8.01562 9.74219C8.17969 9.78906 8.32031 9.8125 8.4375 9.8125C8.55469 9.8125 8.68359 9.78906 8.82422 9.74219C8.98828 9.67188 9.11719 9.57813 9.21094 9.46094C9.44531 9.25 9.5625 8.99219 9.5625 8.6875C9.5625 8.38281 9.44531 8.125 9.21094 7.91406ZM19.125 4.75V2.5C19.125 2.17187 19.0195 1.90234 18.8086 1.69141C18.5977 1.48047 18.3281 1.375 18 1.375C17.6719 1.375 17.4023 1.48047 17.1914 1.69141C16.9805 1.90234 16.875 2.17187 16.875 2.5V4.75C16.875 5.07813 16.9805 5.34766 17.1914 5.55859C17.4023 5.76953 17.6719 5.875 18 5.875C18.3281 5.875 18.5977 5.76953 18.8086 5.55859C19.0195 5.34766 19.125 5.07813 19.125 4.75ZM28.3359 9.46094L29.918 7.91406C30.1523 7.67969 30.2695 7.41016 30.2695 7.10547C30.2695 6.80078 30.1523 6.54297 29.918 6.33203C29.707 6.09766 29.4492 5.98047 29.1445 5.98047C28.8398 5.98047 28.5703 6.09766 28.3359 6.33203L26.7891 7.91406C26.5547 8.125 26.4375 8.38281 26.4375 8.6875C26.4375 8.99219 26.5547 9.25 26.7891 9.46094C26.8828 9.57813 27 9.67188 27.1406 9.74219C27.3047 9.78906 27.4453 9.8125 27.5625 9.8125C27.6797 9.8125 27.8086 9.78906 27.9492 9.74219C28.1133 9.67188 28.2422 9.57813 28.3359 9.46094ZM33.75 19.375C34.0781 19.375 34.3477 19.2695 34.5586 19.0586C34.7695 18.8477 34.875 18.5781 34.875 18.25C34.875 17.9219 34.7695 17.6523 34.5586 17.4414C34.3477 17.2305 34.0781 17.125 33.75 17.125H31.5C31.1719 17.125 30.9023 17.2305 30.6914 17.4414C30.4805 17.6523 30.375 17.9219 30.375 18.25C30.375 18.5781 30.4805 18.8477 30.6914 19.0586C30.9023 19.2695 31.1719 19.375 31.5 19.375H33.75ZM18 8.125C16.5938 8.125 15.2695 8.39453 14.0273 8.93359C12.8086 9.44922 11.7422 10.1641 10.8281 11.0781C9.91406 11.9922 9.1875 13.0703 8.64844 14.3125C8.13281 15.5312 7.875 16.8438 7.875 18.25C7.875 19.2344 8.00391 20.1836 8.26172 21.0977C8.51953 21.9883 8.88281 22.832 9.35156 23.6289C9.84375 24.4023 10.4414 25.1055 11.1445 25.7383C11.8477 26.3711 12.6328 26.9102 13.5 27.3555V28.375C13.5 28.7031 13.6055 28.9727 13.8164 29.1836C14.0273 29.3945 14.2969 29.5 14.625 29.5H21.375C21.7031 29.5 21.9727 29.3945 22.1836 29.1836C22.3945 28.9727 22.5 28.7031 22.5 28.375V27.3555C23.3672 26.9336 24.1406 26.4062 24.8203 25.7734C25.5234 25.1406 26.1211 24.4375 26.6133 23.6641C27.1055 22.8672 27.4805 22.0117 27.7383 21.0977C27.9961 20.1836 28.125 19.2344 28.125 18.25C28.125 16.8438 27.8555 15.5312 27.3164 14.3125C26.8008 13.0703 26.0859 11.9922 25.1719 11.0781C24.2578 10.1641 23.1797 9.44922 21.9375 8.93359C20.7188 8.39453 19.4062 8.125 18 8.125ZM20.918 25.5625C20.707 25.6094 20.543 25.7383 20.4258 25.9492C20.3086 26.1367 20.25 26.3477 20.25 26.582V27.25H15.75V26.582C15.75 26.3477 15.6914 26.1367 15.5742 25.9492C15.457 25.7383 15.293 25.6094 15.082 25.5625C13.5586 24.9531 12.3516 23.9922 11.4609 22.6797C10.5703 21.3672 10.125 19.8906 10.125 18.25C10.125 17.1484 10.3242 16.1289 10.7227 15.1914C11.1445 14.2305 11.707 13.3984 12.4102 12.6953C13.1133 11.9688 13.9453 11.4063 14.9062 11.0078C15.8672 10.5859 16.8984 10.375 18 10.375C19.1016 10.375 20.1211 10.5859 21.0586 11.0078C22.0195 11.4063 22.8516 11.957 23.5547 12.6602C24.2812 13.3633 24.8438 14.1953 25.2422 15.1562C25.6641 16.1172 25.875 17.1484 25.875 18.25C25.875 19.8906 25.4297 21.3672 24.5391 22.6797C23.6484 23.9922 22.4414 24.9531 20.918 25.5625ZM22.5 31.75C22.5 31.4219 22.3945 31.1523 22.1836 30.9414C21.9727 30.7305 21.7031 30.625 21.375 30.625H14.625C14.2969 30.625 14.0273 30.7305 13.8164 30.9414C13.6055 31.1523 13.5 31.4219 13.5 31.75C13.5 32.0781 13.6055 32.3477 13.8164 32.5586C14.0273 32.7695 14.2969 32.875 14.625 32.875H16.875C16.5469 32.875 16.2773 32.9805 16.0664 33.1914C15.8555 33.4023 15.75 33.6719 15.75 34C15.75 34.3281 15.8555 34.5977 16.0664 34.8086C16.2773 35.0195 16.5469 35.125 16.875 35.125H19.125C19.4531 35.125 19.7227 35.0195 19.9336 34.8086C20.1445 34.5977 20.25 34.3281 20.25 34C20.25 33.6719 20.1445 33.4023 19.9336 33.1914C19.7227 32.9805 19.4531 32.875 19.125 32.875H21.375C21.7031 32.875 21.9727 32.7695 22.1836 32.5586C22.3945 32.3477 22.5 32.0781 22.5 31.75Z" transform="translate(-1 -1)" fill="#8667F7"/>
</svg>
