<svg width="156" height="50" viewBox="0 0 156 50" fill="none" xmlns="http://www.w3.org/2000/svg">
<rect width="156" height="50" rx="4" fill="#34314B"/>
<path d="M6 3.3C6 4.1 5.8 4.8 5.3 5.3C4.7 5.9 4 6.2 3.1 6.2C2.2 6.2 1.5 5.9 0.899999 5.3C0.299999 4.7 1.52588e-06 4 1.52588e-06 3.1C1.52588e-06 2.2 0.299999 1.5 0.899999 0.9C1.5 0.3 2.2 9.53674e-08 3.1 9.53674e-08C3.5 9.53674e-08 3.9 0.0999998 4.3 0.3C4.7 0.5 5 0.7 5.2 1L4.7 1.5C4.3 1 3.8 0.8 3.1 0.8C2.5 0.8 1.9 1 1.5 1.5C1 1.9 0.800001 2.5 0.800001 3.2C0.800001 3.9 1 4.5 1.5 4.9C2 5.3 2.5 5.6 3.1 5.6C3.8 5.6 4.3 5.4 4.8 4.9C5.1 4.6 5.3 4.2 5.3 3.7H3.1V2.9H6V3.3ZM10.6 0.8H7.9V2.7H10.4V3.4H7.9V5.3H10.6V6.1H7.1V0.1H10.6V0.8ZM13.9 6.1H13.1V0.8H11.4V0.1H15.6V0.8H13.9V6.1ZM18.5 6.1V0.1H19.3V6.1H18.5ZM22.7 6.1H21.9V0.8H20.2V0.1H24.3V0.8H22.6V6.1H22.7ZM32.2 5.3C31.6 5.9 30.9 6.2 30 6.2C29.1 6.2 28.4 5.9 27.8 5.3C27.2 4.7 26.9 4 26.9 3.1C26.9 2.2 27.2 1.5 27.8 0.9C28.4 0.3 29.1 9.53674e-08 30 9.53674e-08C30.9 9.53674e-08 31.6 0.3 32.2 0.9C32.8 1.5 33.1 2.2 33.1 3.1C33.1 4 32.8 4.7 32.2 5.3ZM28.4 4.8C28.8 5.2 29.4 5.5 30 5.5C30.6 5.5 31.2 5.3 31.6 4.8C32 4.4 32.3 3.8 32.3 3.1C32.3 2.4 32.1 1.8 31.6 1.4C31.2 1 30.6 0.7 30 0.7C29.4 0.7 28.8 0.9 28.4 1.4C28 1.8 27.7 2.4 27.7 3.1C27.7 3.8 27.9 4.4 28.4 4.8ZM34.2 6.1V0.1H35.1L38 4.8V0.1H38.8V6.1H38L34.9 1.2V6.1H34.2Z" transform="translate(51.4004 11.8999)" fill="white"/>
<path d="M27 4.7C24.6 4.7 22.7 6.5 22.7 9C22.7 11.4 24.6 13.3 27 13.3C29.4 13.3 31.3 11.5 31.3 9C31.3 6.4 29.4 4.7 27 4.7ZM27 11.5C25.7 11.5 24.6 10.4 24.6 8.9C24.6 7.4 25.7 6.3 27 6.3C28.3 6.3 29.4 7.3 29.4 8.9C29.4 10.4 28.3 11.5 27 11.5ZM17.7 4.7C15.3 4.7 13.4 6.5 13.4 9C13.4 11.4 15.3 13.3 17.7 13.3C20.1 13.3 22 11.5 22 9C22 6.4 20.1 4.7 17.7 4.7ZM17.7 11.5C16.4 11.5 15.3 10.4 15.3 8.9C15.3 7.4 16.4 6.3 17.7 6.3C19 6.3 20.1 7.3 20.1 8.9C20.1 10.4 19 11.5 17.7 11.5ZM6.6 6V7.8H10.9C10.8 8.8 10.4 9.6 9.9 10.1C9.3 10.7 8.3 11.4 6.6 11.4C3.9 11.4 1.9 9.3 1.9 6.6C1.9 3.9 4 1.8 6.6 1.8C8 1.8 9.1 2.4 9.9 3.1L11.2 1.8C10.1 0.8 8.7 3.8147e-07 6.7 3.8147e-07C3.1 3.8147e-07 -1.52588e-06 3 -1.52588e-06 6.6C-1.52588e-06 10.2 3.1 13.2 6.7 13.2C8.7 13.2 10.1 12.6 11.3 11.3C12.5 10.1 12.9 8.4 12.9 7.1C12.9 6.7 12.9 6.3 12.8 6H6.6ZM52 7.4C51.6 6.4 50.6 4.7 48.4 4.7C46.2 4.7 44.4 6.4 44.4 9C44.4 11.4 46.2 13.3 48.6 13.3C50.5 13.3 51.7 12.1 52.1 11.4L50.7 10.4C50.2 11.1 49.6 11.6 48.6 11.6C47.6 11.6 47 11.2 46.5 10.3L52.2 7.9L52 7.4ZM46.2 8.8C46.2 7.2 47.5 6.3 48.4 6.3C49.1 6.3 49.8 6.7 50 7.2L46.2 8.8ZM41.5 12.9H43.4V0.4H41.5V12.9ZM38.5 5.6C38 5.1 37.2 4.6 36.2 4.6C34.1 4.6 32.1 6.5 32.1 8.9C32.1 11.3 34 13.1 36.2 13.1C37.2 13.1 38 12.6 38.4 12.1H38.5V12.7C38.5 14.3 37.6 15.2 36.2 15.2C35.1 15.2 34.3 14.4 34.1 13.7L32.5 14.4C33 15.5 34.2 16.9 36.3 16.9C38.5 16.9 40.3 15.6 40.3 12.5V4.9H38.5V5.6ZM36.3 11.5C35 11.5 33.9 10.4 33.9 8.9C33.9 7.4 35 6.3 36.3 6.3C37.6 6.3 38.6 7.4 38.6 8.9C38.6 10.4 37.6 11.5 36.3 11.5ZM60.7 0.4H56.2V12.9H58.1V8.2H60.7C62.8 8.2 64.8 6.7 64.8 4.3C64.8 1.9 62.8 0.4 60.7 0.4ZM60.8 6.4H58.1V2.1H60.8C62.2 2.1 63 3.3 63 4.2C62.9 5.3 62.1 6.4 60.8 6.4ZM72.3 4.6C70.9 4.6 69.5 5.2 69 6.5L70.7 7.2C71.1 6.5 71.7 6.3 72.4 6.3C73.4 6.3 74.3 6.9 74.4 7.9V8C74.1 7.8 73.3 7.5 72.5 7.5C70.7 7.5 68.9 8.5 68.9 10.3C68.9 12 70.4 13.1 72 13.1C73.3 13.1 73.9 12.5 74.4 11.9H74.5V12.9H76.3V8.1C76.1 5.9 74.4 4.6 72.3 4.6ZM72.1 11.5C71.5 11.5 70.6 11.2 70.6 10.4C70.6 9.4 71.7 9.1 72.6 9.1C73.4 9.1 73.8 9.3 74.3 9.5C74.1 10.7 73.1 11.5 72.1 11.5ZM82.6 4.9L80.5 10.3H80.4L78.2 4.9H76.2L79.5 12.5L77.6 16.7H79.5L84.6 4.9H82.6ZM65.8 12.9H67.7V0.4H65.8V12.9Z" transform="translate(51.0996 22.1001)" fill="white"/>
<path d="M0.4 0C0.0999996 0.3 0 0.8 0 1.4V23.5C0 24.1 0.2 24.6 0.5 24.9L0.6 25L13 12.6V12.4L0.4 0Z" transform="translate(20 12.5)" fill="url(#paint0_linear)"/>
<path d="M4.1 8.5L-3.8147e-07 4.4V4.1L4.1 1.90735e-07L4.2 0.0999996L9.1 2.9C10.5 3.7 10.5 5 9.1 5.8L4.1 8.5Z" transform="translate(32.9004 20.8)" fill="url(#paint1_linear)"/>
<path d="M16.7 4.2L12.5 0L-3.8147e-07 12.5C0.5 13 1.2 13 2.1 12.6L16.7 4.2Z" transform="translate(20.4004 25)" fill="url(#paint2_linear)"/>
<path d="M16.7 8.62873L2.1 0.328725C1.2 -0.171275 0.5 -0.0712747 -3.8147e-07 0.428725L12.5 12.8287L16.7 8.62873Z" transform="translate(20.4004 12.1714)" fill="url(#paint3_linear)"/>
<path opacity="0.2" d="M16.6 3.8147e-07L2.1 8.2C1.3 8.7 0.6 8.6 0.1 8.2L-3.8147e-07 8.3L0.1 8.4C0.6 8.8 1.3 8.9 2.1 8.4L16.6 3.8147e-07Z" transform="translate(20.4004 29.1001)" fill="black"/>
<path opacity="0.2" d="M0.4 12.3C0.0999996 12 0 11.5 0 10.9V11C0 11.6 0.2 12.1 0.5 12.4V12.3H0.4ZM22 1.3L17 4.1L17.1 4.2L22 1.4C22.7 1 23 0.5 23 0C23 0.5 22.6 0.899999 22 1.3Z" transform="translate(20 25)" fill="black"/>
<path opacity="0.2" d="M2.5 0.452809L22 11.5528C22.6 11.9528 23 12.3528 23 12.8528C23 12.3528 22.7 11.8528 22 11.4528L2.5 0.352809C1.1 -0.447191 0 0.152809 0 1.75281V1.85281C0 0.352809 1.1 -0.347191 2.5 0.452809Z" transform="translate(20 12.1472)" fill="white"/>
<defs>
<linearGradient id="paint0_linear" x2="1" gradientUnits="userSpaceOnUse" gradientTransform="translate(3.409 -7.1815) scale(-23.734 23.734) rotate(44.9983)">
<stop stop-color="#00A0FF"/>
<stop offset="0.007" stop-color="#00A1FF"/>
<stop offset="0.26" stop-color="#00BEFF"/>
<stop offset="0.512" stop-color="#00D2FF"/>
<stop offset="0.76" stop-color="#00DFFF"/>
<stop offset="1" stop-color="#00E3FF"/>
</linearGradient>
<linearGradient id="paint1_linear" x2="1" gradientUnits="userSpaceOnUse" gradientTransform="translate(10.934 -7.8975) scale(-24.197 24.197)">
<stop stop-color="#FFE000"/>
<stop offset="0.409" stop-color="#FFBD00"/>
<stop offset="0.775" stop-color="#FFA500"/>
<stop offset="1" stop-color="#FF9C00"/>
</linearGradient>
<linearGradient id="paint2_linear" x2="1" gradientUnits="userSpaceOnUse" gradientTransform="translate(3.048 -9.083) scale(-32.1847 32.1847) rotate(45)">
<stop stop-color="#FF3A44"/>
<stop offset="1" stop-color="#C31162"/>
</linearGradient>
<linearGradient id="paint3_linear" x2="1" gradientUnits="userSpaceOnUse" gradientTransform="translate(-8.1845 -1.91377) scale(14.3727 -14.3727) rotate(-45)">
<stop stop-color="#32A071"/>
<stop offset="0.069" stop-color="#2DA771"/>
<stop offset="0.476" stop-color="#15CF74"/>
<stop offset="0.801" stop-color="#06E775"/>
<stop offset="1" stop-color="#00F076"/>
</linearGradient>
</defs>
</svg>
