<svg width="91" height="106" viewBox="0 0 91 106" fill="none" xmlns="http://www.w3.org/2000/svg">
<rect x="0.5" y="0.5" width="71.0388" height="91.6214" rx="3.5" transform="translate(0 13.3786)" fill="white" stroke="#1EE4BD"/>
<rect opacity="0.1" width="54.5437" height="10.2913" transform="translate(8.23291 29.8447)" fill="#5F45EA"/>
<rect opacity="0.1" width="54.5437" height="10.2913" transform="translate(8.23291 47.3398)" fill="#5F45EA"/>
<rect opacity="0.1" width="54.5437" height="10.2913" transform="translate(8.23291 64.835)" fill="#5F45EA"/>
<rect opacity="0.1" width="45.2816" height="10.2913" transform="translate(8.23291 82.3301)" fill="#5F45EA"/>
<path d="M0.5 4C0.5 2.067 2.067 0.5 4 0.5H68.0388C69.9718 0.5 71.5388 2.067 71.5388 4V8.76214H0.5V4Z" transform="translate(0 13.3786)" fill="white" stroke="#1EE4BD"/>
<circle cx="1.54369" cy="1.54369" r="1.54369" transform="translate(4.1167 16.466)" fill="#1EE4BD"/>
<circle cx="1.54369" cy="1.54369" r="1.54369" transform="translate(10.2915 16.466)" fill="#1EE4BD"/>
<circle cx="1.54369" cy="1.54369" r="1.54369" transform="translate(16.4658 16.466)" fill="#1EE4BD"/>
<circle cx="18.5243" cy="18.5243" r="18.0243" transform="translate(53.5146)" fill="white" stroke="#5F45EA"/>
<path d="M0 2.98858V1.01266C1.07029 0.337553 2.38757 0 3.95184 0C5.51612 0 6.76753 0.403417 7.7061 1.21025C8.64466 2.00062 9.11394 3.10384 9.11394 4.51992C9.11394 5.91953 8.62819 7.00629 7.6567 7.78019C6.6852 8.5541 5.55728 8.99868 4.27293 9.11394L4.24823 11.8061H2.37111L2.34641 7.7061C3.86128 7.7061 5.03037 7.45087 5.85367 6.94043C6.67697 6.41351 7.08862 5.63138 7.08862 4.59402C7.08862 3.75425 6.81693 3.07091 6.27355 2.544C5.73018 2.01709 4.92334 1.75363 3.85305 1.75363C2.58517 1.75363 1.30082 2.16528 0 2.98858ZM1.82773 15.5851C1.82773 15.1899 1.96769 14.8523 2.24761 14.5724C2.52753 14.276 2.86509 14.1278 3.26027 14.1278C3.67192 14.1278 4.02594 14.276 4.32233 14.5724C4.61872 14.8523 4.76691 15.1899 4.76691 15.5851C4.76691 15.9967 4.61872 16.3425 4.32233 16.6224C4.04241 16.9024 3.68839 17.0423 3.26027 17.0423C2.84862 17.0423 2.50284 16.9024 2.22291 16.6224C1.95946 16.3425 1.82773 15.9967 1.82773 15.5851Z" transform="translate(67.9224 10.2913)" fill="#1EE4BD"/>
</svg>
