<svg width="42" height="48" viewBox="0 0 42 48" fill="none" xmlns="http://www.w3.org/2000/svg">
<path opacity="0.3" d="M10.5 48H30C32.0938 48 33.8594 47.2656 35.2969 45.7969C36.7656 44.3594 37.5 42.5938 37.5 40.5V28.5H40.5C41.7812 28.5 42.8438 28.0781 43.6875 27.2344C44.5625 26.3594 45 25.2812 45 24V15C45 14.5625 44.8594 14.2031 44.5781 13.9219C44.2969 13.6406 43.9375 13.5 43.5 13.5H4.5C4.0625 13.5 3.70312 13.6406 3.42188 13.9219C3.14062 14.2031 3 14.5625 3 15V40.5C3 42.5938 3.71875 44.3594 5.15625 45.7969C6.625 47.2656 8.40625 48 10.5 48ZM42 24C42 24.4375 41.8594 24.7969 41.5781 25.0781C41.2969 25.3594 40.9375 25.5 40.5 25.5H37.5V16.5H42V24ZM6 16.5H34.5V40.5C34.5 41.7812 34.0625 42.8594 33.1875 43.7344C32.3438 44.5781 31.2812 45 30 45H10.5C9.21875 45 8.14062 44.5781 7.26562 43.7344C6.42188 42.8594 6 41.7812 6 40.5V16.5ZM19.5 9C19.9375 9 20.2969 8.85938 20.5781 8.57812C20.8594 8.29688 21 7.9375 21 7.5V1.5C21 1.0625 20.8594 0.703125 20.5781 0.421875C20.2969 0.140625 19.9375 0 19.5 0C19.0625 0 18.7031 0.140625 18.4219 0.421875C18.1406 0.703125 18 1.0625 18 1.5V7.5C18 7.9375 18.1406 8.29688 18.4219 8.57812C18.7031 8.85938 19.0625 9 19.5 9ZM12 10.5C12.4375 10.5 12.7969 10.3594 13.0781 10.0781C13.3594 9.79688 13.5 9.4375 13.5 9V3C13.5 2.5625 13.3594 2.20312 13.0781 1.92188C12.7969 1.64062 12.4375 1.5 12 1.5C11.5625 1.5 11.2031 1.64062 10.9219 1.92188C10.6406 2.20312 10.5 2.5625 10.5 3V9C10.5 9.4375 10.6406 9.79688 10.9219 10.0781C11.2031 10.3594 11.5625 10.5 12 10.5ZM27 10.5C27.4375 10.5 27.7969 10.3594 28.0781 10.0781C28.3594 9.79688 28.5 9.4375 28.5 9V3C28.5 2.5625 28.3594 2.20312 28.0781 1.92188C27.7969 1.64062 27.4375 1.5 27 1.5C26.5625 1.5 26.2031 1.64062 25.9219 1.92188C25.6406 2.20312 25.5 2.5625 25.5 3V9C25.5 9.4375 25.6406 9.79688 25.9219 10.0781C26.2031 10.3594 26.5625 10.5 27 10.5Z" transform="translate(-3)" fill="#34314B"/>
</svg>
