<svg width="46" height="46" viewBox="0 0 46 46" fill="none" xmlns="http://www.w3.org/2000/svg">
<path opacity="0.3" d="M9.14062 23.25C8.32812 24.5938 7.70312 25.7188 7.26562 26.625C6.82812 27.5 6.60938 27.9688 6.60938 28.0312C6.51562 28.3438 6.48438 28.6406 6.51562 28.9219C6.54688 29.2031 6.67188 29.4688 6.89062 29.7188L18.2812 41.1094C18.4375 41.2656 18.5938 41.375 18.75 41.4375C18.9375 41.5 19.1406 41.5312 19.3594 41.5312C19.4219 41.5312 19.5156 41.5312 19.6406 41.5312C19.7656 41.5312 19.875 41.4844 19.9688 41.3906C19.9688 41.3906 20.4062 41.1719 21.2812 40.7344C22.1562 40.2969 23.2656 39.6719 24.6094 38.8594L30.75 45C30.9062 45.1562 31.0625 45.2656 31.2188 45.3281C31.375 45.4219 31.5625 45.4688 31.7812 45.4688C31.9375 45.4688 32.0781 45.4531 32.2031 45.4219C32.3594 45.4219 32.4688 45.375 32.5312 45.2812C33.2188 44.9062 33.8594 44.5 34.4531 44.0625C35.0469 43.625 35.5625 43.1406 36 42.6094C37.25 41.3594 38.2656 39.9844 39.0469 38.4844C39.8594 36.9844 40.4219 35.4219 40.7344 33.7969C41.0781 32.1719 41.1875 30.5156 41.0625 28.8281C40.9375 27.1094 40.5469 25.4531 39.8906 23.8594C40.2656 23.2656 40.6406 22.6406 41.0156 21.9844C41.3906 21.2969 41.7656 20.625 42.1406 19.9688C42.1406 19.875 42.1562 19.8281 42.1875 19.8281C42.25 19.7969 42.2812 19.7344 42.2812 19.6406C42.8438 18.4844 43.3594 17.2969 43.8281 16.0781C44.2969 14.8281 44.7031 13.5312 45.0469 12.1875C45.3906 10.8438 45.6719 9.45312 45.8906 8.01562C46.1094 6.54687 46.2656 5.03125 46.3594 3.46875C46.3594 3.21875 46.3125 3 46.2188 2.8125C46.1562 2.59375 46.0469 2.40625 45.8906 2.25C45.8281 1.9375 45.6875 1.73438 45.4688 1.64062C45.2812 1.54688 45.0781 1.5 44.8594 1.5C43.2656 1.5625 41.7344 1.70313 40.2656 1.92188C38.8281 2.14062 37.4219 2.4375 36.0469 2.8125C34.7031 3.15625 33.3906 3.5625 32.1094 4.03125C30.8594 4.46875 29.6562 4.96875 28.5 5.53125C28.4375 5.53125 28.375 5.5625 28.3125 5.625C28.25 5.6875 28.2188 5.71875 28.2188 5.71875C27.5312 6.09375 26.8438 6.45312 26.1562 6.79688C25.5 7.10937 24.8281 7.5 24.1406 7.96875C22.5781 7.3125 20.9531 6.92187 19.2656 6.79688C17.6094 6.64062 15.9688 6.73437 14.3438 7.07812C12.7188 7.42188 11.1562 8 9.65625 8.8125C8.15625 9.59375 6.78125 10.6094 5.53125 11.8594C5.03125 12.3906 4.54688 12.9531 4.07812 13.5469C3.64062 14.1406 3.23438 14.7813 2.85938 15.4688C2.70312 15.75 2.64062 16.0625 2.67188 16.4062C2.70312 16.75 2.85938 17.0312 3.14062 17.25L9.14062 23.25ZM19.7812 38.1094L9.89062 28.2188C10.2656 27.4062 10.9062 26.2188 11.8125 24.6562C12.75 23.0938 13.9844 21.3906 15.5156 19.5469C17.0469 17.6719 18.9062 15.7812 21.0938 13.875C23.3125 11.9375 25.875 10.2188 28.7812 8.71875L39.1406 19.0312C37.6406 22 35.9219 24.5938 33.9844 26.8125C32.0781 29.0312 30.1875 30.9219 28.3125 32.4844C26.4688 34.0156 24.7656 35.25 23.2031 36.1875C21.6719 37.0938 20.5312 37.7344 19.7812 38.1094ZM34.0312 40.3594C33.75 40.6406 33.4531 40.9062 33.1406 41.1562C32.8281 41.4062 32.4844 41.6875 32.1094 42L27.2812 37.2188C28.125 36.5938 28.9844 35.9375 29.8594 35.25C30.7656 34.5312 31.6719 33.75 32.5781 32.9062C33.4844 32.0312 34.3906 31.0938 35.2969 30.0938C36.2031 29.0938 37.0938 28.0156 37.9688 26.8594C38.4688 29.2656 38.3906 31.6719 37.7344 34.0781C37.0781 36.4531 35.8438 38.5469 34.0312 40.3594ZM40.5 16.2188L31.6406 7.5C33.3594 6.75 35.1875 6.125 37.125 5.625C39.0938 5.125 41.1719 4.79688 43.3594 4.64062C43.1406 6.82812 42.7812 8.89062 42.2812 10.8281C41.7812 12.7656 41.1875 14.5625 40.5 16.2188ZM7.64062 13.9688C9.45312 12.2187 11.5469 11 13.9219 10.3125C16.3281 9.625 18.7344 9.53125 21.1406 10.0312C20.0156 10.9062 18.9531 11.7969 17.9531 12.7031C16.9844 13.6094 16.0625 14.5156 15.1875 15.4219C14.3438 16.3281 13.5625 17.2344 12.8438 18.1406C12.1562 19.0156 11.5312 19.875 10.9688 20.7188L6 15.8906C6.3125 15.6094 6.59375 15.2969 6.84375 14.9531C7.09375 14.5781 7.35938 14.25 7.64062 13.9688ZM30.4688 17.5312C29.4062 16.5 28.0938 15.9844 26.5312 15.9844C25 15.9844 23.7031 16.5 22.6406 17.5312C21.6094 18.5938 21.0938 19.9062 21.0938 21.4688C21.0938 23 21.6094 24.2969 22.6406 25.3594C23.1719 25.8906 23.7656 26.2969 24.4219 26.5781C25.0781 26.8594 25.7812 27 26.5312 27C27.2812 27 27.9844 26.8594 28.6406 26.5781C29.3281 26.2969 29.9375 25.8906 30.4688 25.3594C31.5 24.2969 32.0156 23.0156 32.0156 21.5156C32.0156 19.9844 31.5 18.6562 30.4688 17.5312ZM28.3594 23.25C27.8906 23.6875 27.2969 23.9062 26.5781 23.9062C25.8906 23.9062 25.2812 23.6875 24.75 23.25C24.5312 23.0312 24.3438 22.7812 24.1875 22.5C24.0625 22.1875 24 21.8438 24 21.4688C24 21.1562 24.0625 20.8281 24.1875 20.4844C24.3438 20.1406 24.5312 19.8594 24.75 19.6406C24.9688 19.4219 25.2188 19.25 25.5 19.125C25.8125 18.9688 26.1562 18.8906 26.5312 18.8906C26.8438 18.8906 27.1719 18.9688 27.5156 19.125C27.8594 19.25 28.1406 19.4219 28.3594 19.6406C28.7969 20.1719 29.0156 20.7969 29.0156 21.5156C29.0156 22.2344 28.7969 22.8125 28.3594 23.25ZM3 46.5C3 46.5 3.14062 46.5 3.42188 46.5C3.70312 46.5 4.0625 46.5 4.5 46.5C6.0625 46.5 7.39062 46.3594 8.48438 46.0781C9.60938 45.7969 10.4375 45.3906 10.9688 44.8594C12 43.7969 12.5156 42.5 12.5156 40.9688C12.5156 39.4062 12 38.0938 10.9688 37.0312C9.90625 36 8.59375 35.4844 7.03125 35.4844C5.5 35.4844 4.20312 36 3.14062 37.0312C2.17188 38.0312 1.65625 39.4375 1.59375 41.25C1.53125 43.0625 1.5 44.3125 1.5 45C1.5625 45.375 1.73438 45.7031 2.01562 45.9844C2.29688 46.2656 2.625 46.4375 3 46.5ZM5.25 39.1406C5.46875 38.9219 5.71875 38.75 6 38.625C6.3125 38.4688 6.65625 38.3906 7.03125 38.3906C7.40625 38.3906 7.75 38.4688 8.0625 38.625C8.375 38.75 8.64062 38.9219 8.85938 39.1406C9.39062 39.6719 9.65625 40.2812 9.65625 40.9688C9.65625 41.625 9.39062 42.2188 8.85938 42.75C8.70312 42.9062 8.29688 43.0781 7.64062 43.2656C6.98438 43.4219 5.9375 43.5 4.5 43.5C4.5 42.5312 4.5625 41.625 4.6875 40.7812C4.84375 39.9062 5.03125 39.3594 5.25 39.1406Z" transform="translate(-1 -1)" fill="#34314B"/>
</svg>
