<svg width="36" height="37" viewBox="0 0 36 37" fill="none" xmlns="http://www.w3.org/2000/svg">
<path d="M34.875 4.75H19.125C18.8203 4.75 18.5508 4.86719 18.3164 5.10156C18.1055 5.3125 18 5.57031 18 5.875C18 6.17969 18.1055 6.44922 18.3164 6.68359C18.5508 6.89453 18.8203 7 19.125 7H34.875C35.1797 7 35.4375 6.89453 35.6484 6.68359C35.8828 6.44922 36 6.17969 36 5.875C36 5.57031 35.8828 5.3125 35.6484 5.10156C35.4375 4.86719 35.1797 4.75 34.875 4.75ZM0 5.875C0 6.17969 0.105469 6.44922 0.316406 6.68359C0.550781 6.89453 0.820312 7 1.125 7H4.60547C4.86328 8.28906 5.50781 9.36719 6.53906 10.2344C7.57031 11.0781 8.76562 11.5 10.125 11.5C11.6719 11.5 12.9961 10.9492 14.0977 9.84766C15.1992 8.74609 15.75 7.42188 15.75 5.875C15.75 4.32812 15.1992 3.00391 14.0977 1.90234C12.9961 0.800781 11.6719 0.25 10.125 0.25C8.76562 0.25 7.57031 0.683594 6.53906 1.55078C5.50781 2.39453 4.86328 3.46094 4.60547 4.75H1.125C0.820312 4.75 0.550781 4.86719 0.316406 5.10156C0.105469 5.3125 0 5.57031 0 5.875ZM10.125 2.5C11.0625 2.5 11.8594 2.82813 12.5156 3.48438C13.1719 4.14062 13.5 4.9375 13.5 5.875C13.5 6.8125 13.1719 7.60938 12.5156 8.26562C11.8594 8.92187 11.0625 9.25 10.125 9.25C9.1875 9.25 8.39062 8.92187 7.73438 8.26562C7.07812 7.60938 6.75 6.8125 6.75 5.875C6.75 4.9375 7.07812 4.14062 7.73438 3.48438C8.39062 2.82813 9.1875 2.5 10.125 2.5ZM34.875 17.125H31.5C31.1953 17.125 30.9258 17.2422 30.6914 17.4766C30.4805 17.6875 30.375 17.9453 30.375 18.25C30.375 18.5547 30.4805 18.8242 30.6914 19.0586C30.9258 19.2695 31.1953 19.375 31.5 19.375H34.875C35.1797 19.375 35.4375 19.2695 35.6484 19.0586C35.8828 18.8242 36 18.5547 36 18.25C36 17.9453 35.8828 17.6875 35.6484 17.4766C35.4375 17.2422 35.1797 17.125 34.875 17.125ZM1.125 19.375H16.9805C17.2383 20.6641 17.8828 21.7422 18.9141 22.6094C19.9453 23.4531 21.1406 23.875 22.5 23.875C24.0469 23.875 25.3711 23.3242 26.4727 22.2227C27.5742 21.1211 28.125 19.7969 28.125 18.25C28.125 16.7031 27.5742 15.3789 26.4727 14.2773C25.3711 13.1758 24.0469 12.625 22.5 12.625C21.1406 12.625 19.9453 13.0586 18.9141 13.9258C17.8828 14.7695 17.2383 15.8359 16.9805 17.125H1.125C0.820312 17.125 0.550781 17.2422 0.316406 17.4766C0.105469 17.6875 0 17.9453 0 18.25C0 18.5547 0.105469 18.8242 0.316406 19.0586C0.550781 19.2695 0.820312 19.375 1.125 19.375ZM22.5 14.875C23.4375 14.875 24.2344 15.2031 24.8906 15.8594C25.5469 16.5156 25.875 17.3125 25.875 18.25C25.875 19.1875 25.5469 19.9844 24.8906 20.6406C24.2344 21.2969 23.4375 21.625 22.5 21.625C21.5625 21.625 20.7656 21.2969 20.1094 20.6406C19.4531 19.9844 19.125 19.1875 19.125 18.25C19.125 17.3125 19.4531 16.5156 20.1094 15.8594C20.7656 15.2031 21.5625 14.875 22.5 14.875ZM34.875 29.5H19.125C18.8203 29.5 18.5508 29.6172 18.3164 29.8516C18.1055 30.0625 18 30.3203 18 30.625C18 30.9297 18.1055 31.1992 18.3164 31.4336C18.5508 31.6445 18.8203 31.75 19.125 31.75H34.875C35.1797 31.75 35.4375 31.6445 35.6484 31.4336C35.8828 31.1992 36 30.9297 36 30.625C36 30.3203 35.8828 30.0625 35.6484 29.8516C35.4375 29.6172 35.1797 29.5 34.875 29.5ZM1.125 31.75H4.60547C4.86328 33.0391 5.50781 34.1055 6.53906 34.9492C7.57031 35.8164 8.76562 36.25 10.125 36.25C11.6719 36.25 12.9961 35.6992 14.0977 34.5977C15.1992 33.4961 15.75 32.1719 15.75 30.625C15.75 29.0781 15.1992 27.7539 14.0977 26.6523C12.9961 25.5508 11.6719 25 10.125 25C8.76562 25 7.57031 25.4336 6.53906 26.3008C5.50781 27.1445 4.86328 28.2109 4.60547 29.5H1.125C0.820312 29.5 0.550781 29.6172 0.316406 29.8516C0.105469 30.0625 0 30.3203 0 30.625C0 30.9297 0.105469 31.1992 0.316406 31.4336C0.550781 31.6445 0.820312 31.75 1.125 31.75ZM10.125 27.25C11.0625 27.25 11.8594 27.5781 12.5156 28.2344C13.1719 28.8906 13.5 29.6875 13.5 30.625C13.5 31.5625 13.1719 32.3594 12.5156 33.0156C11.8594 33.6719 11.0625 34 10.125 34C9.1875 34 8.39062 33.6719 7.73438 33.0156C7.07812 32.3594 6.75 31.5625 6.75 30.625C6.75 29.6875 7.07812 28.8906 7.73438 28.2344C8.39062 27.5781 9.1875 27.25 10.125 27.25Z" fill="#64ECF5"/>
</svg>
