<svg width="80" height="89" viewBox="0 0 80 89" fill="none" xmlns="http://www.w3.org/2000/svg">
<g filter="url(#filter0_d)">
<path d="M20 0C9 0 0 9 0 20C0 28.5 5.4 35.8 12.9 38.7L20 49L27.1 38.7C34.6 35.8 40 28.5 40 20C40 9 31 0 20 0ZM20 27C16.1 27 13 23.9 13 20C13 16.1 16.1 13 20 13C23.9 13 27 16.1 27 20C27 23.9 23.9 27 20 27Z" transform="translate(20 10)" fill="url(#paint0_linear)"/>
</g>
<defs>
<filter id="filter0_d" x="0" y="0" width="80" height="89" filterUnits="userSpaceOnUse" color-interpolation-filters="sRGB">
<feFlood flood-opacity="0" result="BackgroundImageFix"/>
<feColorMatrix in="SourceAlpha" type="matrix" values="0 0 0 0 0 0 0 0 0 0 0 0 0 0 0 0 0 0 255 0"/>
<feOffset dy="10"/>
<feGaussianBlur stdDeviation="10"/>
<feColorMatrix type="matrix" values="0 0 0 0 0.447059 0 0 0 0 0.337255 0 0 0 0 0.945098 0 0 0 0.5 0"/>
<feBlend mode="normal" in2="BackgroundImageFix" result="effect1_dropShadow"/>
<feBlend mode="normal" in="SourceGraphic" in2="effect1_dropShadow" result="shape"/>
</filter>
<linearGradient id="paint0_linear" x2="1" gradientUnits="userSpaceOnUse" gradientTransform="translate(0 24.5) scale(40 49)">
<stop stop-color="#5F45EA"/>
<stop offset="1" stop-color="#8667F7"/>
</linearGradient>
</defs>
</svg>
