<svg width="140" height="140" viewBox="0 0 140 140" fill="none" xmlns="http://www.w3.org/2000/svg">
<g filter="url(#filter0_d)">
<circle cx="50" cy="50" r="50" transform="translate(20 10)" fill="url(#paint0_linear)"/>
</g>
<path d="M6.85547 17.6875C6.24609 18.6953 5.77734 19.5391 5.44922 20.2188C5.12109 20.875 4.95703 21.2266 4.95703 21.2734C4.88672 21.5078 4.86328 21.7305 4.88672 21.9414C4.91016 22.1523 5.00391 22.3516 5.16797 22.5391L13.7109 31.082C13.8281 31.1992 13.9453 31.2812 14.0625 31.3281C14.2031 31.375 14.3555 31.3984 14.5195 31.3984C14.5664 31.3984 14.6367 31.3984 14.7305 31.3984C14.8242 31.3984 14.9062 31.3633 14.9766 31.293C14.9766 31.293 15.3047 31.1289 15.9609 30.8008C16.6172 30.4727 17.4492 30.0039 18.457 29.3945L23.0625 34C23.1797 34.1172 23.2969 34.1992 23.4141 34.2461C23.5312 34.3164 23.6719 34.3516 23.8359 34.3516C23.9531 34.3516 24.0586 34.3398 24.1523 34.3164C24.2695 34.3164 24.3516 34.2812 24.3984 34.2109C24.9141 33.9297 25.3945 33.625 25.8398 33.2969C26.2852 32.9688 26.6719 32.6055 27 32.207C27.9375 31.2695 28.6992 30.2383 29.2852 29.1133C29.8945 27.9883 30.3164 26.8164 30.5508 25.5977C30.8086 24.3789 30.8906 23.1367 30.7969 21.8711C30.7031 20.582 30.4102 19.3398 29.918 18.1445C30.1992 17.6992 30.4805 17.2305 30.7617 16.7383C31.043 16.2227 31.3242 15.7188 31.6055 15.2266C31.6055 15.1562 31.6172 15.1211 31.6406 15.1211C31.6875 15.0977 31.7109 15.0508 31.7109 14.9805C32.1328 14.1133 32.5195 13.2227 32.8711 12.3086C33.2227 11.3711 33.5273 10.3984 33.7852 9.39062C34.043 8.38281 34.2539 7.33984 34.418 6.26172C34.582 5.16016 34.6992 4.02344 34.7695 2.85156C34.7695 2.66406 34.7344 2.5 34.6641 2.35938C34.6172 2.19531 34.5352 2.05469 34.418 1.9375C34.3711 1.70313 34.2656 1.55078 34.1016 1.48047C33.9609 1.41016 33.8086 1.375 33.6445 1.375C32.4492 1.42188 31.3008 1.52734 30.1992 1.69141C29.1211 1.85547 28.0664 2.07812 27.0352 2.35938C26.0273 2.61719 25.043 2.92188 24.082 3.27344C23.1445 3.60156 22.2422 3.97656 21.375 4.39844C21.3281 4.39844 21.2812 4.42187 21.2344 4.46875C21.1875 4.51563 21.1641 4.53906 21.1641 4.53906C20.6484 4.82031 20.1328 5.08984 19.6172 5.34766C19.125 5.58203 18.6211 5.875 18.1055 6.22656C16.9336 5.73438 15.7148 5.44141 14.4492 5.34766C13.207 5.23047 11.9766 5.30078 10.7578 5.55859C9.53906 5.81641 8.36719 6.25 7.24219 6.85938C6.11719 7.44531 5.08594 8.20703 4.14844 9.14453C3.77344 9.54297 3.41016 9.96484 3.05859 10.4102C2.73047 10.8555 2.42578 11.3359 2.14453 11.8516C2.02734 12.0625 1.98047 12.2969 2.00391 12.5547C2.02734 12.8125 2.14453 13.0234 2.35547 13.1875L6.85547 17.6875ZM14.8359 28.832L7.41797 21.4141C7.69922 20.8047 8.17969 19.9141 8.85938 18.7422C9.5625 17.5703 10.4883 16.293 11.6367 14.9102C12.7852 13.5039 14.1797 12.0859 15.8203 10.6562C17.4844 9.20312 19.4062 7.91406 21.5859 6.78906L29.3555 14.5234C28.2305 16.75 26.9414 18.6953 25.4883 20.3594C24.0586 22.0234 22.6406 23.4414 21.2344 24.6133C19.8516 25.7617 18.5742 26.6875 17.4023 27.3906C16.2539 28.0703 15.3984 28.5508 14.8359 28.832ZM25.5234 30.5195C25.3125 30.7305 25.0898 30.9297 24.8555 31.1172C24.6211 31.3047 24.3633 31.5156 24.082 31.75L20.4609 28.1641C21.0938 27.6953 21.7383 27.2031 22.3945 26.6875C23.0742 26.1484 23.7539 25.5625 24.4336 24.9297C25.1133 24.2734 25.793 23.5703 26.4727 22.8203C27.1523 22.0703 27.8203 21.2617 28.4766 20.3945C28.8516 22.1992 28.793 24.0039 28.3008 25.8086C27.8086 27.5898 26.8828 29.1602 25.5234 30.5195ZM30.375 12.4141L23.7305 5.875C25.0195 5.3125 26.3906 4.84375 27.8438 4.46875C29.3203 4.09375 30.8789 3.84766 32.5195 3.73047C32.3555 5.37109 32.0859 6.91797 31.7109 8.37109C31.3359 9.82422 30.8906 11.1719 30.375 12.4141ZM5.73047 10.7266C7.08984 9.41406 8.66016 8.5 10.4414 7.98438C12.2461 7.46875 14.0508 7.39844 15.8555 7.77344C15.0117 8.42969 14.2148 9.09766 13.4648 9.77734C12.7383 10.457 12.0469 11.1367 11.3906 11.8164C10.7578 12.4961 10.1719 13.1758 9.63281 13.8555C9.11719 14.5117 8.64844 15.1562 8.22656 15.7891L4.5 12.168C4.73438 11.957 4.94531 11.7227 5.13281 11.4648C5.32031 11.1836 5.51953 10.9375 5.73047 10.7266ZM22.8516 13.3984C22.0547 12.625 21.0703 12.2383 19.8984 12.2383C18.75 12.2383 17.7773 12.625 16.9805 13.3984C16.207 14.1953 15.8203 15.1797 15.8203 16.3516C15.8203 17.5 16.207 18.4727 16.9805 19.2695C17.3789 19.668 17.8242 19.9727 18.3164 20.1836C18.8086 20.3945 19.3359 20.5 19.8984 20.5C20.4609 20.5 20.9883 20.3945 21.4805 20.1836C21.9961 19.9727 22.4531 19.668 22.8516 19.2695C23.625 18.4727 24.0117 17.5117 24.0117 16.3867C24.0117 15.2383 23.625 14.2422 22.8516 13.3984ZM21.2695 17.6875C20.918 18.0156 20.4727 18.1797 19.9336 18.1797C19.418 18.1797 18.9609 18.0156 18.5625 17.6875C18.3984 17.5234 18.2578 17.3359 18.1406 17.125C18.0469 16.8906 18 16.6328 18 16.3516C18 16.1172 18.0469 15.8711 18.1406 15.6133C18.2578 15.3555 18.3984 15.1445 18.5625 14.9805C18.7266 14.8164 18.9141 14.6875 19.125 14.5938C19.3594 14.4766 19.6172 14.418 19.8984 14.418C20.1328 14.418 20.3789 14.4766 20.6367 14.5938C20.8945 14.6875 21.1055 14.8164 21.2695 14.9805C21.5977 15.3789 21.7617 15.8477 21.7617 16.3867C21.7617 16.9258 21.5977 17.3594 21.2695 17.6875ZM2.25 35.125C2.25 35.125 2.35547 35.125 2.56641 35.125C2.77734 35.125 3.04688 35.125 3.375 35.125C4.54688 35.125 5.54297 35.0195 6.36328 34.8086C7.20703 34.5977 7.82812 34.293 8.22656 33.8945C9 33.0977 9.38672 32.125 9.38672 30.9766C9.38672 29.8047 9 28.8203 8.22656 28.0234C7.42969 27.25 6.44531 26.8633 5.27344 26.8633C4.125 26.8633 3.15234 27.25 2.35547 28.0234C1.62891 28.7734 1.24219 29.8281 1.19531 31.1875C1.14844 32.5469 1.125 33.4844 1.125 34C1.17188 34.2812 1.30078 34.5273 1.51172 34.7383C1.72266 34.9492 1.96875 35.0781 2.25 35.125ZM3.9375 29.6055C4.10156 29.4414 4.28906 29.3125 4.5 29.2188C4.73438 29.1016 4.99219 29.043 5.27344 29.043C5.55469 29.043 5.8125 29.1016 6.04688 29.2188C6.28125 29.3125 6.48047 29.4414 6.64453 29.6055C7.04297 30.0039 7.24219 30.4609 7.24219 30.9766C7.24219 31.4688 7.04297 31.9141 6.64453 32.3125C6.52734 32.4297 6.22266 32.5586 5.73047 32.6992C5.23828 32.8164 4.45312 32.875 3.375 32.875C3.375 32.1484 3.42188 31.4688 3.51562 30.8359C3.63281 30.1797 3.77344 29.7695 3.9375 29.6055Z" transform="translate(52 42)" fill="white"/>
<defs>
<filter id="filter0_d" x="0" y="0" width="140" height="140" filterUnits="userSpaceOnUse" color-interpolation-filters="sRGB">
<feFlood flood-opacity="0" result="BackgroundImageFix"/>
<feColorMatrix in="SourceAlpha" type="matrix" values="0 0 0 0 0 0 0 0 0 0 0 0 0 0 0 0 0 0 255 0"/>
<feOffset dy="10"/>
<feGaussianBlur stdDeviation="10"/>
<feColorMatrix type="matrix" values="0 0 0 0 0.447059 0 0 0 0 0.337255 0 0 0 0 0.945098 0 0 0 0.5 0"/>
<feBlend mode="normal" in2="BackgroundImageFix" result="effect1_dropShadow"/>
<feBlend mode="normal" in="SourceGraphic" in2="effect1_dropShadow" result="shape"/>
</filter>
<linearGradient id="paint0_linear" x2="1" gradientUnits="userSpaceOnUse" gradientTransform="translate(0 50) scale(100)">
<stop stop-color="#5F45EA"/>
<stop offset="1" stop-color="#8667F7"/>
</linearGradient>
</defs>
</svg>
