<svg width="30" height="30" viewBox="0 0 30 30" fill="none" xmlns="http://www.w3.org/2000/svg">
<path opacity="0.3" d="M6.09375 15.5C5.55208 16.3958 5.13542 17.1458 4.84375 17.75C4.55208 18.3333 4.40625 18.6458 4.40625 18.6875C4.34375 18.8958 4.32292 19.0938 4.34375 19.2812C4.36458 19.4688 4.44792 19.6458 4.59375 19.8125L12.1875 27.4062C12.2917 27.5104 12.3958 27.5833 12.5 27.625C12.625 27.6667 12.7604 27.6875 12.9062 27.6875C12.9479 27.6875 13.0104 27.6875 13.0938 27.6875C13.1771 27.6875 13.25 27.6562 13.3125 27.5938C13.3125 27.5938 13.6042 27.4479 14.1875 27.1562C14.7708 26.8646 15.5104 26.4479 16.4062 25.9062L20.5 30C20.6042 30.1042 20.7083 30.1771 20.8125 30.2188C20.9167 30.2812 21.0417 30.3125 21.1875 30.3125C21.2917 30.3125 21.3854 30.3021 21.4688 30.2812C21.5729 30.2812 21.6458 30.25 21.6875 30.1875C22.1458 29.9375 22.5729 29.6667 22.9688 29.375C23.3646 29.0833 23.7083 28.7604 24 28.4062C24.8333 27.5729 25.5104 26.6562 26.0312 25.6562C26.5729 24.6562 26.9479 23.6146 27.1562 22.5312C27.3854 21.4479 27.4583 20.3438 27.375 19.2188C27.2917 18.0729 27.0312 16.9688 26.5938 15.9062C26.8438 15.5104 27.0938 15.0938 27.3438 14.6562C27.5938 14.1979 27.8438 13.75 28.0938 13.3125C28.0938 13.25 28.1042 13.2188 28.125 13.2188C28.1667 13.1979 28.1875 13.1562 28.1875 13.0938C28.5625 12.3229 28.9062 11.5312 29.2188 10.7188C29.5312 9.88542 29.8021 9.02083 30.0312 8.125C30.2604 7.22917 30.4479 6.30208 30.5938 5.34375C30.7396 4.36458 30.8438 3.35417 30.9062 2.3125C30.9062 2.14583 30.875 2 30.8125 1.875C30.7708 1.72917 30.6979 1.60417 30.5938 1.5C30.5521 1.29167 30.4583 1.15625 30.3125 1.09375C30.1875 1.03125 30.0521 1 29.9062 1C28.8438 1.04167 27.8229 1.13542 26.8438 1.28125C25.8854 1.42708 24.9479 1.625 24.0312 1.875C23.1354 2.10417 22.2604 2.375 21.4062 2.6875C20.5729 2.97917 19.7708 3.3125 19 3.6875C18.9583 3.6875 18.9167 3.70833 18.875 3.75C18.8333 3.79167 18.8125 3.8125 18.8125 3.8125C18.3542 4.0625 17.8958 4.30208 17.4375 4.53125C17 4.73958 16.5521 5 16.0938 5.3125C15.0521 4.875 13.9688 4.61458 12.8438 4.53125C11.7396 4.42708 10.6458 4.48958 9.5625 4.71875C8.47917 4.94792 7.4375 5.33333 6.4375 5.875C5.4375 6.39583 4.52083 7.07292 3.6875 7.90625C3.35417 8.26042 3.03125 8.63542 2.71875 9.03125C2.42708 9.42708 2.15625 9.85417 1.90625 10.3125C1.80208 10.5 1.76042 10.7083 1.78125 10.9375C1.80208 11.1667 1.90625 11.3542 2.09375 11.5L6.09375 15.5ZM13.1875 25.4062L6.59375 18.8125C6.84375 18.2708 7.27083 17.4792 7.875 16.4375C8.5 15.3958 9.32292 14.2604 10.3438 13.0312C11.3646 11.7812 12.6042 10.5208 14.0625 9.25C15.5417 7.95833 17.25 6.8125 19.1875 5.8125L26.0938 12.6875C25.0938 14.6667 23.9479 16.3958 22.6562 17.875C21.3854 19.3542 20.125 20.6146 18.875 21.6562C17.6458 22.6771 16.5104 23.5 15.4688 24.125C14.4479 24.7292 13.6875 25.1562 13.1875 25.4062ZM22.6875 26.9062C22.5 27.0938 22.3021 27.2708 22.0938 27.4375C21.8854 27.6042 21.6562 27.7917 21.4062 28L18.1875 24.8125C18.75 24.3958 19.3229 23.9583 19.9062 23.5C20.5104 23.0208 21.1146 22.5 21.7188 21.9375C22.3229 21.3542 22.9271 20.7292 23.5312 20.0625C24.1354 19.3958 24.7292 18.6771 25.3125 17.9062C25.6458 19.5104 25.5938 21.1146 25.1562 22.7188C24.7188 24.3021 23.8958 25.6979 22.6875 26.9062ZM27 10.8125L21.0938 5C22.2396 4.5 23.4583 4.08333 24.75 3.75C26.0625 3.41667 27.4479 3.19792 28.9062 3.09375C28.7604 4.55208 28.5208 5.92708 28.1875 7.21875C27.8542 8.51042 27.4583 9.70833 27 10.8125ZM5.09375 9.3125C6.30208 8.14583 7.69792 7.33333 9.28125 6.875C10.8854 6.41667 12.4896 6.35417 14.0938 6.6875C13.3438 7.27083 12.6354 7.86458 11.9688 8.46875C11.3229 9.07292 10.7083 9.67708 10.125 10.2812C9.5625 10.8854 9.04167 11.4896 8.5625 12.0938C8.10417 12.6771 7.6875 13.25 7.3125 13.8125L4 10.5938C4.20833 10.4062 4.39583 10.1979 4.5625 9.96875C4.72917 9.71875 4.90625 9.5 5.09375 9.3125ZM20.3125 11.6875C19.6042 11 18.7292 10.6562 17.6875 10.6562C16.6667 10.6562 15.8021 11 15.0938 11.6875C14.4062 12.3958 14.0625 13.2708 14.0625 14.3125C14.0625 15.3333 14.4062 16.1979 15.0938 16.9062C15.4479 17.2604 15.8438 17.5312 16.2812 17.7188C16.7188 17.9062 17.1875 18 17.6875 18C18.1875 18 18.6562 17.9062 19.0938 17.7188C19.5521 17.5312 19.9583 17.2604 20.3125 16.9062C21 16.1979 21.3438 15.3438 21.3438 14.3438C21.3438 13.3229 21 12.4375 20.3125 11.6875ZM18.9062 15.5C18.5938 15.7917 18.1979 15.9375 17.7188 15.9375C17.2604 15.9375 16.8542 15.7917 16.5 15.5C16.3542 15.3542 16.2292 15.1875 16.125 15C16.0417 14.7917 16 14.5625 16 14.3125C16 14.1042 16.0417 13.8854 16.125 13.6562C16.2292 13.4271 16.3542 13.2396 16.5 13.0938C16.6458 12.9479 16.8125 12.8333 17 12.75C17.2083 12.6458 17.4375 12.5938 17.6875 12.5938C17.8958 12.5938 18.1146 12.6458 18.3438 12.75C18.5729 12.8333 18.7604 12.9479 18.9062 13.0938C19.1979 13.4479 19.3438 13.8646 19.3438 14.3438C19.3438 14.8229 19.1979 15.2083 18.9062 15.5ZM2 31C2 31 2.09375 31 2.28125 31C2.46875 31 2.70833 31 3 31C4.04167 31 4.92708 30.9062 5.65625 30.7188C6.40625 30.5312 6.95833 30.2604 7.3125 29.9062C8 29.1979 8.34375 28.3333 8.34375 27.3125C8.34375 26.2708 8 25.3958 7.3125 24.6875C6.60417 24 5.72917 23.6562 4.6875 23.6562C3.66667 23.6562 2.80208 24 2.09375 24.6875C1.44792 25.3542 1.10417 26.2917 1.0625 27.5C1.02083 28.7083 1 29.5417 1 30C1.04167 30.25 1.15625 30.4688 1.34375 30.6562C1.53125 30.8438 1.75 30.9583 2 31ZM3.5 26.0938C3.64583 25.9479 3.8125 25.8333 4 25.75C4.20833 25.6458 4.4375 25.5938 4.6875 25.5938C4.9375 25.5938 5.16667 25.6458 5.375 25.75C5.58333 25.8333 5.76042 25.9479 5.90625 26.0938C6.26042 26.4479 6.4375 26.8542 6.4375 27.3125C6.4375 27.75 6.26042 28.1458 5.90625 28.5C5.80208 28.6042 5.53125 28.7188 5.09375 28.8438C4.65625 28.9479 3.95833 29 3 29C3 28.3542 3.04167 27.75 3.125 27.1875C3.22917 26.6042 3.35417 26.2396 3.5 26.0938Z" transform="translate(-1 -1)" fill="#34314B"/>
</svg>
