<svg width="48" height="48" viewBox="0 0 48 48" fill="none" xmlns="http://www.w3.org/2000/svg">
<path d="M9.52148 24.3438C8.67513 25.7435 8.02409 26.9154 7.56836 27.8594C7.11263 28.7708 6.88477 29.2591 6.88477 29.3242C6.78711 29.6497 6.75456 29.959 6.78711 30.252C6.81966 30.5449 6.94987 30.8216 7.17773 31.082L19.043 42.9473C19.2057 43.11 19.3685 43.224 19.5312 43.2891C19.7266 43.3542 19.9382 43.3867 20.166 43.3867C20.2311 43.3867 20.3288 43.3867 20.459 43.3867C20.5892 43.3867 20.7031 43.3379 20.8008 43.2402C20.8008 43.2402 21.2565 43.0124 22.168 42.5566C23.0794 42.1009 24.235 41.4499 25.6348 40.6035L32.0312 47C32.194 47.1628 32.3568 47.2767 32.5195 47.3418C32.6823 47.4395 32.8776 47.4883 33.1055 47.4883C33.2682 47.4883 33.4147 47.472 33.5449 47.4395C33.7077 47.4395 33.8216 47.3906 33.8867 47.293C34.6029 46.9023 35.2702 46.4792 35.8887 46.0234C36.5072 45.5677 37.0443 45.0632 37.5 44.5098C38.8021 43.2077 39.86 41.7754 40.6738 40.2129C41.5202 38.6504 42.1061 37.0228 42.4316 35.3301C42.7897 33.6374 42.9036 31.9121 42.7734 30.1543C42.6432 28.3639 42.2363 26.6387 41.5527 24.9785C41.9434 24.36 42.334 23.709 42.7246 23.0254C43.1152 22.3092 43.5059 21.6094 43.8965 20.9258C43.8965 20.8281 43.9128 20.7793 43.9453 20.7793C44.0104 20.7467 44.043 20.6816 44.043 20.584C44.6289 19.3796 45.166 18.1426 45.6543 16.873C46.1426 15.571 46.5658 14.2201 46.9238 12.8203C47.2819 11.4206 47.5749 9.97201 47.8027 8.47461C48.0306 6.94466 48.1934 5.36589 48.291 3.73828C48.291 3.47786 48.2422 3.25 48.1445 3.05469C48.0794 2.82682 47.9655 2.63151 47.8027 2.46875C47.7376 2.14323 47.5911 1.93164 47.3633 1.83398C47.168 1.73633 46.9564 1.6875 46.7285 1.6875C45.0684 1.7526 43.4733 1.89909 41.9434 2.12695C40.446 2.35482 38.9811 2.66406 37.5488 3.05469C36.1491 3.41276 34.7819 3.83594 33.4473 4.32422C32.1452 4.77995 30.8919 5.30078 29.6875 5.88672C29.6224 5.88672 29.5573 5.91927 29.4922 5.98438C29.4271 6.04948 29.3945 6.08203 29.3945 6.08203C28.6784 6.47266 27.9622 6.84701 27.2461 7.20508C26.5625 7.5306 25.8626 7.9375 25.1465 8.42578C23.5189 7.74219 21.8262 7.33529 20.0684 7.20508C18.3431 7.04232 16.6341 7.13997 14.9414 7.49805C13.2487 7.85612 11.6211 8.45833 10.0586 9.30469C8.49609 10.1185 7.0638 11.1764 5.76172 12.4785C5.24089 13.0319 4.73633 13.6178 4.24805 14.2363C3.79232 14.8548 3.36914 15.5221 2.97852 16.2383C2.81576 16.5312 2.75065 16.8568 2.7832 17.2148C2.81576 17.5729 2.97852 17.8659 3.27148 18.0938L9.52148 24.3438ZM20.6055 39.8223L10.3027 29.5195C10.6934 28.6732 11.3607 27.4362 12.3047 25.8086C13.2812 24.181 14.5671 22.4069 16.1621 20.4863C17.7572 18.5332 19.694 16.5638 21.9727 14.5781C24.2839 12.5599 26.9531 10.7695 29.9805 9.20703L40.7715 19.9492C39.209 23.0417 37.4186 25.7435 35.4004 28.0547C33.4147 30.3659 31.4453 32.3353 29.4922 33.9629C27.5716 35.5579 25.7975 36.8438 24.1699 37.8203C22.5749 38.7643 21.3867 39.4316 20.6055 39.8223ZM35.4492 42.166C35.1562 42.459 34.847 42.7357 34.5215 42.9961C34.196 43.2565 33.8379 43.5495 33.4473 43.875L28.418 38.8945C29.2969 38.2435 30.1921 37.5599 31.1035 36.8438C32.0475 36.0951 32.9915 35.2812 33.9355 34.4023C34.8796 33.4909 35.8236 32.5143 36.7676 31.4727C37.7116 30.431 38.6393 29.3079 39.5508 28.1035C40.0716 30.61 39.9902 33.1165 39.3066 35.623C38.623 38.097 37.3372 40.278 35.4492 42.166ZM42.1875 17.0195L32.959 7.9375C34.7493 7.15625 36.6536 6.50521 38.6719 5.98438C40.7227 5.46354 42.8874 5.12174 45.166 4.95898C44.9382 7.23763 44.5638 9.38607 44.043 11.4043C43.5221 13.4225 42.9036 15.2943 42.1875 17.0195ZM7.95898 14.6758C9.84701 12.8529 12.028 11.5833 14.502 10.8672C17.0085 10.151 19.515 10.0534 22.0215 10.5742C20.8496 11.4857 19.7428 12.4134 18.7012 13.3574C17.6921 14.3014 16.7318 15.2454 15.8203 16.1895C14.9414 17.1335 14.1276 18.0775 13.3789 19.0215C12.6628 19.9329 12.0117 20.8281 11.4258 21.707L6.25 16.6777C6.57552 16.3848 6.86849 16.0592 7.12891 15.7012C7.38932 15.3105 7.66602 14.9688 7.95898 14.6758ZM31.7383 18.3867C30.6315 17.3125 29.2643 16.7754 27.6367 16.7754C26.0417 16.7754 24.6908 17.3125 23.584 18.3867C22.5098 19.4935 21.9727 20.8607 21.9727 22.4883C21.9727 24.0833 22.5098 25.4342 23.584 26.541C24.1374 27.0944 24.7559 27.5176 25.4395 27.8105C26.123 28.1035 26.8555 28.25 27.6367 28.25C28.418 28.25 29.1504 28.1035 29.834 27.8105C30.5501 27.5176 31.1849 27.0944 31.7383 26.541C32.8125 25.4342 33.3496 24.0996 33.3496 22.5371C33.3496 20.9421 32.8125 19.5586 31.7383 18.3867ZM29.541 24.3438C29.0527 24.7995 28.4342 25.0273 27.6855 25.0273C26.9694 25.0273 26.3346 24.7995 25.7812 24.3438C25.5534 24.1159 25.3581 23.8555 25.1953 23.5625C25.0651 23.237 25 22.8789 25 22.4883C25 22.1628 25.0651 21.821 25.1953 21.4629C25.3581 21.1048 25.5534 20.8118 25.7812 20.584C26.0091 20.3561 26.2695 20.1771 26.5625 20.0469C26.888 19.8841 27.2461 19.8027 27.6367 19.8027C27.9622 19.8027 28.304 19.8841 28.6621 20.0469C29.0202 20.1771 29.3132 20.3561 29.541 20.584C29.9967 21.1374 30.2246 21.7884 30.2246 22.5371C30.2246 23.2858 29.9967 23.888 29.541 24.3438ZM3.125 48.5625C3.125 48.5625 3.27148 48.5625 3.56445 48.5625C3.85742 48.5625 4.23177 48.5625 4.6875 48.5625C6.3151 48.5625 7.69857 48.416 8.83789 48.123C10.0098 47.8301 10.8724 47.4069 11.4258 46.8535C12.5 45.7467 13.0371 44.3958 13.0371 42.8008C13.0371 41.1732 12.5 39.806 11.4258 38.6992C10.319 37.625 8.95182 37.0879 7.32422 37.0879C5.72917 37.0879 4.37826 37.625 3.27148 38.6992C2.26237 39.7409 1.72526 41.2057 1.66016 43.0938C1.59505 44.9818 1.5625 46.2839 1.5625 47C1.6276 47.3906 1.80664 47.7324 2.09961 48.0254C2.39258 48.3184 2.73438 48.4974 3.125 48.5625ZM5.46875 40.8965C5.69661 40.6686 5.95703 40.4896 6.25 40.3594C6.57552 40.1966 6.93359 40.1152 7.32422 40.1152C7.71484 40.1152 8.07292 40.1966 8.39844 40.3594C8.72396 40.4896 9.00065 40.6686 9.22852 40.8965C9.7819 41.4499 10.0586 42.0846 10.0586 42.8008C10.0586 43.4844 9.7819 44.1029 9.22852 44.6562C9.06576 44.819 8.64258 44.998 7.95898 45.1934C7.27539 45.3561 6.1849 45.4375 4.6875 45.4375C4.6875 44.4284 4.7526 43.4844 4.88281 42.6055C5.04557 41.694 5.24089 41.1243 5.46875 40.8965Z" transform="translate(-1 -1)" fill="white"/>
</svg>
